<svg width="24" height="24" viewBox="0 0 24 24" fill="none" xmlns="http://www.w3.org/2000/svg">
<circle cx="12" cy="20" r="2" fill="black"/>
<circle cx="6" cy="6" r="2" fill="black"/>
<path fill-rule="evenodd" clip-rule="evenodd" d="M12.0001 1.25C12.2508 1.25 12.485 1.37533 12.6241 1.58397L14.6241 4.58397C14.8539 4.92862 14.7608 5.39427 14.4161 5.62404C14.0715 5.8538 13.6058 5.76067 13.376 5.41603L12.0001 3.35208L10.6241 5.41603C10.3944 5.76067 9.9287 5.8538 9.58405 5.62404C9.23941 5.39427 9.14628 4.92862 9.37604 4.58397L11.376 1.58397C11.5151 1.37533 11.7493 1.25 12.0001 1.25Z" fill="black"/>
<path d="M16 8C16 7.05719 16 6.58579 16.2929 6.29289C16.5858 6 17.0572 6 18 6C18.9428 6 19.4142 6 19.7071 6.29289C20 6.58579 20 7.05719 20 8C20 8.94281 20 9.41421 19.7071 9.70711C19.4142 10 18.9428 10 18 10C17.0572 10 16.5858 10 16.2929 9.70711C16 9.41421 16 8.94281 16 8Z" fill="black"/>
<g opacity="0.5">
<path d="M12.0078 1.25C12.1697 1.25165 12.3194 1.30462 12.4412 1.39341C12.3168 1.30294 12.1658 1.25163 12.0078 1.25Z" fill="black"/>
<path d="M12.6155 1.57133L12.6241 1.58393L12.627 1.58821L12.6155 1.57133Z" fill="black"/>
<path d="M12.0001 3.35204L12.75 4.47692V14.9918C12.8713 14.93 12.9983 14.8766 13.1304 14.8326L16.3953 13.7443C16.9057 13.5742 17.25 13.0965 17.25 12.5584V9.99996L17.2501 9.9912C17.4605 9.99994 17.7076 9.99994 18 9.99994C18.2924 9.99994 18.5395 9.99994 18.7499 9.9912L18.75 9.99996V12.5584C18.75 13.7421 17.9926 14.793 16.8696 15.1673L13.6047 16.2556C13.0943 16.4258 12.75 16.9034 12.75 17.4415V18.1453C12.5184 18.0516 12.2652 17.9999 12 17.9999C11.7348 17.9999 11.4816 18.0516 11.25 18.1453V14.4415C11.25 13.9034 10.9057 13.4258 10.3953 13.2556L7.13037 12.1673C6.00743 11.793 5.25 10.7421 5.25 9.55844V7.85456C5.48161 7.94831 5.73477 7.99994 6 7.99994C6.26523 7.99994 6.51839 7.94831 6.75 7.85456V9.55844C6.75 10.0965 7.09429 10.5742 7.60472 10.7443L10.8696 11.8326C11.0017 11.8766 11.1287 11.93 11.25 11.9918V4.47716L12.0001 3.35204Z" fill="black"/>
</g>
</svg>
