<svg width="24" height="24" viewBox="0 0 24 24" fill="none" xmlns="http://www.w3.org/2000/svg">
<path d="M14.005 4H9.99502C6.21439 4 4.32407 4 3.14958 5.17157C2.34091 5.97823 2.08903 7.12339 2.01058 8.98947C1.99502 9.35954 1.98724 9.54458 2.05634 9.66802C2.12545 9.79147 2.40133 9.94554 2.95308 10.2537C3.56586 10.5959 3.98007 11.2497 3.98007 12C3.98007 12.7503 3.56586 13.4041 2.95308 13.7463C2.40133 14.0545 2.12545 14.2085 2.05634 14.332C1.98724 14.4554 1.99502 14.6405 2.01058 15.0105C2.08903 16.8766 2.34091 18.0218 3.14958 18.8284C4.32407 20 6.21439 20 9.99502 20H14.005C17.7856 20 19.6759 20 20.8504 18.8284C21.6591 18.0218 21.911 16.8766 21.9894 15.0105C22.005 14.6405 22.0128 14.4554 21.9437 14.332C21.8746 14.2085 21.5987 14.0545 21.0469 13.7463C20.4341 13.4041 20.0199 12.7503 20.0199 12C20.0199 11.2497 20.4341 10.5959 21.0469 10.2537C21.5987 9.94554 21.8746 9.79147 21.9437 9.66803C22.0128 9.54458 22.005 9.35954 21.9894 8.98947C21.911 7.12339 21.6591 5.97823 20.8504 5.17157C19.6759 4 17.7856 4 14.005 4Z" stroke="black" stroke-width="1.5"/>
<path d="M9 15L15 9" stroke="black" stroke-width="1.5" stroke-linecap="round"/>
<path d="M15.5 14.5C15.5 15.0523 15.0523 15.5 14.5 15.5C13.9477 15.5 13.5 15.0523 13.5 14.5C13.5 13.9477 13.9477 13.5 14.5 13.5C15.0523 13.5 15.5 13.9477 15.5 14.5Z" fill="black"/>
<path d="M10.5 9.5C10.5 10.0523 10.0523 10.5 9.5 10.5C8.94772 10.5 8.5 10.0523 8.5 9.5C8.5 8.94772 8.94772 8.5 9.5 8.5C10.0523 8.5 10.5 8.94772 10.5 9.5Z" fill="black"/>
</svg>
