<svg width="24" height="24" viewBox="0 0 24 24" fill="none" xmlns="http://www.w3.org/2000/svg">
<path d="M17.2623 13.6L18.263 11.1339C18.5392 10.4533 19.2628 10 20.0731 10C21.3873 10 22.3153 11.1504 21.8997 12.2643L20.7803 15.2649C20.5852 15.7879 20.4876 16.0494 20.3588 16.2717C19.8348 17.1756 18.8608 17.8028 17.7354 17.9611C17.4587 18 17.1502 18 16.5332 18H16H6.88633C6.82438 18 6.7934 18 6.76531 17.9996C5.26517 17.9786 3.93869 17.1243 3.44197 15.8594C3.43268 15.8357 3.42288 15.8095 3.4033 15.757L3.40329 15.757L2.10028 12.2643C1.68469 11.1504 2.61268 10 3.92689 10C4.7372 10 5.46079 10.4533 5.73699 11.1339L6.83511 13.84L6.83511 13.84C6.93505 14.0863 6.98502 14.2094 7.05744 14.3101C7.22656 14.5452 7.49217 14.7116 7.79716 14.7735C7.92777 14.8 8.07437 14.8 8.36757 14.8H15.3467C15.9158 14.8 16.2004 14.8 16.4383 14.7019C16.5683 14.6484 16.6864 14.5744 16.787 14.4835C16.9713 14.317 17.0683 14.078 17.2623 13.6Z" stroke="black" stroke-width="1.5" stroke-linecap="round"/>
<path d="M17.2971 4.66947L16.7798 5.21257L16.7798 5.21257L17.2971 4.66947ZM6.70294 4.66947L6.1857 4.12637L6.70294 4.66947ZM12 3.25C11.5858 3.25 11.25 3.58579 11.25 4C11.25 4.41421 11.5858 4.75 12 4.75V3.25ZM8.11812 4.84818C8.52716 4.78294 8.80587 4.39846 8.74064 3.98942C8.67541 3.58038 8.29093 3.30166 7.88188 3.36689L8.11812 4.84818ZM6.75 12V8.57143H5.25V12H6.75ZM17.25 8.57143V12H18.75V8.57143H17.25ZM13.2 4.75C14.3516 4.75 15.1434 4.75145 15.7382 4.82761C16.315 4.90147 16.5921 5.03378 16.7798 5.21257L17.8143 4.12637C17.2991 3.63569 16.659 3.43326 15.9287 3.33976C15.2164 3.24855 14.3112 3.25 13.2 3.25V4.75ZM18.75 8.57143C18.75 7.51616 18.7518 6.64555 18.6548 5.95854C18.5542 5.24605 18.3347 4.62195 17.8143 4.12637L16.7798 5.21257C16.9624 5.38646 17.0943 5.63584 17.1695 6.16822C17.2482 6.72607 17.25 7.4717 17.25 8.57143H18.75ZM6.75 8.57143C6.75 7.4717 6.75175 6.72607 6.8305 6.16822C6.90566 5.63584 7.0376 5.38646 7.22019 5.21257L6.1857 4.12637C5.66534 4.62195 5.44581 5.24605 5.34523 5.95854C5.24825 6.64555 5.25 7.51616 5.25 8.57143H6.75ZM12 4.75H13.2V3.25H12V4.75ZM7.88188 3.36689C7.22943 3.47095 6.65542 3.67902 6.1857 4.12637L7.22019 5.21257C7.39213 5.04882 7.63827 4.9247 8.11812 4.84818L7.88188 3.36689Z" fill="black"/>
<path d="M18 20V18M6 20V18.6667" stroke="black" stroke-width="1.5" stroke-linecap="round"/>
</svg>
