<svg width="24" height="24" viewBox="0 0 24 24" fill="none" xmlns="http://www.w3.org/2000/svg">
<path d="M17 21V16M7 21V16" stroke="black" stroke-width="1.5" stroke-linecap="round"/>
<path d="M12 16H7.00001C6.01506 16 5.52259 16 5.22538 15.6762C4.92818 15.3523 4.9669 14.9018 5.04435 14.0008C5.10026 13.3503 5.22669 12.9125 5.51257 12.5858C6.02514 12 6.8501 12 8.50001 12H15.5C17.1499 12 17.9749 12 18.4874 12.5858C18.7733 12.9125 18.8998 13.3503 18.9557 14.0008C19.0331 14.9018 19.0718 15.3523 18.7746 15.6762C18.4774 16 17.985 16 17 16H16" stroke="black" stroke-width="1.5" stroke-linecap="round"/>
<path d="M7 8C7 6.13077 7 5.19615 7.40192 4.5C7.66523 4.04394 8.04394 3.66523 8.5 3.40192C9.19615 3 10.1308 3 12 3C13.8692 3 14.8038 3 15.5 3.40192C15.9561 3.66523 16.3348 4.04394 16.5981 4.5C17 5.19615 17 6.13077 17 8V12H7V8Z" stroke="black" stroke-width="1.5"/>
</svg>
