<svg width="24" height="24" viewBox="0 0 24 24" fill="none" xmlns="http://www.w3.org/2000/svg">
<path d="M19 15V9C19 6.19108 19 4.78661 18.3259 3.77772C18.034 3.34096 17.659 2.96596 17.2223 2.67412C16.2134 2 14.8089 2 12 2C9.19108 2 7.78661 2 6.77772 2.67412C6.34096 2.96596 5.96596 3.34096 5.67412 3.77772C5.08522 4.65907 5.01077 5.8423 5.00136 8M18.8096 19C18.7098 19.4816 18.5577 19.8753 18.3259 20.2223C18.034 20.659 17.659 21.034 17.2223 21.3259C16.2134 22 14.8089 22 12 22C9.19108 22 7.78661 22 6.77772 21.3259C6.34096 21.034 5.96596 20.659 5.67412 20.2223C5 19.2134 5 17.8089 5 15V12" stroke="black" stroke-width="1.5" stroke-linecap="round"/>
<path d="M15 11C15 12.6569 13.6569 14 12 14C10.3431 14 9 12.6569 9 11C9 9.34315 10.3431 8 12 8C13.6569 8 15 9.34315 15 11Z" stroke="black" stroke-width="1.5"/>
<circle cx="12" cy="5" r="1" fill="black"/>
<circle cx="12" cy="17" r="1" fill="black"/>
</svg>
