<svg width="24" height="24" viewBox="0 0 24 24" fill="none" xmlns="http://www.w3.org/2000/svg">
<path d="M8 18H5.55556C3.59188 18 2 16.4081 2 14.4444V12C2 10.8954 2.89543 10 4 10C5.10457 10 6 10.8954 6 12V13.2C6 13.6418 6.35817 14 6.8 14H17.2C17.6418 14 18 13.6418 18 13.2V12C18 10.8954 18.8954 10 20 10C21.1046 10 22 10.8954 22 12V14.4444C22 16.4081 20.4081 18 18.4444 18H12" stroke="black" stroke-width="1.5" stroke-linecap="round"/>
<path d="M20 10C20 9.07069 20 8.60603 19.9231 8.21964C19.6075 6.63288 18.3671 5.39249 16.7804 5.07686C16.394 5 15.9293 5 15 5H9C8.07069 5 7.60603 5 7.21964 5.07686C5.63288 5.39249 4.39249 6.63288 4.07686 8.21964C4 8.60603 4 9.07069 4 10" stroke="black" stroke-width="1.5"/>
<path d="M12.75 11C12.75 10.5858 12.4142 10.25 12 10.25C11.5858 10.25 11.25 10.5858 11.25 11H12.75ZM11.25 7C11.25 7.41421 11.5858 7.75 12 7.75C12.4142 7.75 12.75 7.41421 12.75 7H11.25ZM11.25 11V14H12.75V11H11.25ZM11.25 5V7H12.75V5H11.25Z" fill="black"/>
<path d="M20 19V18M4 19V18" stroke="black" stroke-width="1.5" stroke-linecap="round"/>
</svg>
