<svg width="24" height="24" viewBox="0 0 24 24" fill="none" xmlns="http://www.w3.org/2000/svg">
<path d="M8 18H5.55556C3.59188 18 2 16.4081 2 14.4444V12C2 10.8954 2.89543 10 4 10C5.10457 10 6 10.8954 6 12V13.2C6 13.6418 6.35817 14 6.8 14H17.2C17.6418 14 18 13.6418 18 13.2V12C18 10.8954 18.8954 10 20 10C21.1046 10 22 10.8954 22 12V14.4444C22 16.4081 20.4081 18 18.4444 18H12" stroke="black" stroke-width="1.5" stroke-linecap="round"/>
<path d="M15 5C15.9293 5 16.394 5 16.7804 5.07686C18.3671 5.39249 19.6075 6.63288 19.9231 8.21964C20 8.60603 20 9.07069 20 10M4 10C4 9.07069 4 8.60603 4.07686 8.21964C4.39249 6.63288 5.63288 5.39249 7.21964 5.07686C7.60603 5 8.07069 5 9 5H11" stroke="black" stroke-width="1.5" stroke-linecap="round"/>
<path d="M20 19V18M4 19V18" stroke="black" stroke-width="1.5" stroke-linecap="round"/>
</svg>
