<svg width="24" height="24" viewBox="0 0 24 24" fill="none" xmlns="http://www.w3.org/2000/svg">
<circle cx="12" cy="13" r="3" stroke="black" stroke-width="1.5"/>
<path d="M3.0001 12.9999C3.0001 10.191 2.99995 8.78673 3.67407 7.77783C3.96591 7.34107 4.34091 6.96607 4.77767 6.67423C5.78656 6.00011 7.19103 6.00011 9.99995 6.00011H14C16.8089 6.00011 18.2133 6.00011 19.2222 6.67423C19.659 6.96607 20.034 7.34107 20.3258 7.77783C21 8.78673 21.0001 10.191 21.0001 12.9999C21.0001 15.8088 21.0001 17.2133 20.326 18.2222C20.0341 18.6589 19.6591 19.0339 19.2224 19.3258C18.2135 19.9999 16.809 19.9999 14.0001 19.9999H10.0001C7.19117 19.9999 5.78671 19.9999 4.77782 19.3258C4.34106 19.0339 3.96605 18.6589 3.67422 18.2222C3.44239 17.8752 3.29028 17.4815 3.19049 16.9999" stroke="black" stroke-width="1.5" stroke-linecap="round"/>
<path d="M18 10H17.5" stroke="black" stroke-width="1.5" stroke-linecap="round"/>
<path d="M14.5 3.5H9.5" stroke="black" stroke-width="1.5" stroke-linecap="round"/>
</svg>
