<svg width="24" height="24" viewBox="0 0 24 24" fill="none" xmlns="http://www.w3.org/2000/svg">
<path d="M2.5 7.25C2.08579 7.25 1.75 7.58579 1.75 8C1.75 8.41421 2.08579 8.75 2.5 8.75V7.25ZM22 7.25H2.5V8.75H22V7.25Z" fill="black"/>
<path d="M10.5 2.5L7 8" stroke="black" stroke-width="1.5" stroke-linecap="round"/>
<path d="M17 2.5L13.5 8" stroke="black" stroke-width="1.5" stroke-linecap="round"/>
<path d="M15 14.5C15 13.8666 14.338 13.4395 13.014 12.5852C11.6719 11.7193 11.0008 11.2863 10.5004 11.6042C10 11.9221 10 12.7814 10 14.5C10 16.2186 10 17.0779 10.5004 17.3958C11.0008 17.7137 11.6719 17.2807 13.014 16.4148C14.338 15.5605 15 15.1334 15 14.5Z" stroke="black" stroke-width="1.5" stroke-linecap="round"/>
<path d="M22 12C22 16.714 22 19.0711 20.5355 20.5355C19.0711 22 16.714 22 12 22C7.28595 22 4.92893 22 3.46447 20.5355C2 19.0711 2 16.714 2 12C2 7.28595 2 4.92893 3.46447 3.46447C4.92893 2 7.28595 2 12 2C16.714 2 19.0711 2 20.5355 3.46447C21.5093 4.43821 21.8356 5.80655 21.9449 8" stroke="black" stroke-width="1.5" stroke-linecap="round"/>
</svg>
