<svg width="24" height="24" viewBox="0 0 24 24" fill="none" xmlns="http://www.w3.org/2000/svg">
<path d="M12.1141 20.3755C12.3215 20.017 12.199 19.5582 11.8404 19.3508C11.4819 19.1434 11.0231 19.2659 10.8157 19.6245L12.1141 20.3755ZM11.4649 16L10.8157 16.3755L11.4649 16ZM12 17L11.3334 17.3438C11.492 17.6513 11.8405 17.8105 12.1769 17.7288C12.5132 17.6472 12.75 17.3461 12.75 17H12ZM12.75 8C12.75 7.58579 12.4142 7.25 12 7.25C11.5858 7.25 11.25 7.58579 11.25 8H12.75ZM8 21.25C6.20507 21.25 4.75 19.7949 4.75 18H3.25C3.25 20.6234 5.37665 22.75 8 22.75V21.25ZM4.75 18C4.75 16.2051 6.20507 14.75 8 14.75V13.25C5.37665 13.25 3.25 15.3766 3.25 18H4.75ZM10.8157 19.6245C10.2526 20.5978 9.20201 21.25 8 21.25V22.75C9.75911 22.75 11.2939 21.7934 12.1141 20.3755L10.8157 19.6245ZM8 14.75C9.20202 14.75 10.2526 15.4022 10.8157 16.3755L12.1141 15.6245C11.2939 14.2066 9.75911 13.25 8 13.25V14.75ZM10.8157 16.3755C10.8968 16.5158 11.0242 16.7535 11.1361 16.9658C11.191 17.0699 11.2404 17.1646 11.2762 17.2333C11.294 17.2676 11.3084 17.2954 11.3183 17.3145C11.3232 17.3241 11.3271 17.3315 11.3296 17.3364C11.3309 17.3389 11.3319 17.3408 11.3325 17.342C11.3328 17.3426 11.3331 17.3431 11.3332 17.3434C11.3333 17.3435 11.3334 17.3436 11.3334 17.3437C11.3334 17.3437 11.3334 17.3437 11.3334 17.3438C11.3334 17.3438 11.3334 17.3438 11.3334 17.3438C11.3334 17.3438 11.3334 17.3438 12 17C12.6666 16.6562 12.6666 16.6562 12.6666 16.6562C12.6666 16.6562 12.6666 16.6562 12.6666 16.6562C12.6665 16.6562 12.6665 16.6561 12.6665 16.6561C12.6664 16.656 12.6664 16.6558 12.6663 16.6556C12.6661 16.6553 12.6658 16.6547 12.6654 16.654C12.6647 16.6526 12.6637 16.6506 12.6623 16.6479C12.6595 16.6426 12.6555 16.6349 12.6504 16.6249C12.6401 16.6051 12.6253 16.5765 12.607 16.5412C12.5703 16.4708 12.5195 16.3735 12.463 16.2663C12.3522 16.056 12.212 15.7937 12.1141 15.6245L10.8157 16.3755ZM12.75 17V8H11.25V17H12.75Z" fill="black"/>
<path d="M16.1167 3.94199L13.4833 5.25871C13.1184 5.44117 12.9359 5.5324 12.7852 5.64761C12.3949 5.94608 12.128 6.3778 12.0357 6.86043C12 7.04673 12 7.25073 12 7.65871C12 8.6298 12 9.11535 12.1196 9.44543C12.4356 10.3178 13.3101 10.8583 14.2317 10.7508C14.5804 10.7101 15.0147 10.493 15.8833 10.0587L18.5167 8.74199C18.8816 8.55954 19.0641 8.46831 19.2148 8.35309C19.6051 8.05463 19.872 7.62291 19.9643 7.14028C20 6.95397 20 6.74998 20 6.34199C20 5.3709 20 4.88536 19.8804 4.55528C19.5644 3.68288 18.6899 3.14239 17.7683 3.24989C17.4196 3.29057 16.9853 3.50771 16.1167 3.94199Z" stroke="black" stroke-width="1.5" stroke-linecap="round"/>
</svg>
