<svg width="24" height="24" viewBox="0 0 24 24" fill="none" xmlns="http://www.w3.org/2000/svg">
<path d="M8 9.5C8 9.03406 8 8.80109 8.07612 8.61732C8.17761 8.37229 8.37229 8.17761 8.61732 8.07612C8.80109 8 9.03406 8 9.5 8C9.96594 8 10.1989 8 10.3827 8.07612C10.6277 8.17761 10.8224 8.37229 10.9239 8.61732C11 8.80109 11 9.03406 11 9.5V14.5C11 14.9659 11 15.1989 10.9239 15.3827C10.8224 15.6277 10.6277 15.8224 10.3827 15.9239C10.1989 16 9.96594 16 9.5 16C9.03406 16 8.80109 16 8.61732 15.9239C8.37229 15.8224 8.17761 15.6277 8.07612 15.3827C8 15.1989 8 14.9659 8 14.5V9.5Z" stroke="black" stroke-width="1.5"/>
<path d="M13 9.5C13 9.03406 13 8.80109 13.0761 8.61732C13.1776 8.37229 13.3723 8.17761 13.6173 8.07612C13.8011 8 14.0341 8 14.5 8C14.9659 8 15.1989 8 15.3827 8.07612C15.6277 8.17761 15.8224 8.37229 15.9239 8.61732C16 8.80109 16 9.03406 16 9.5V14.5C16 14.9659 16 15.1989 15.9239 15.3827C15.8224 15.6277 15.6277 15.8224 15.3827 15.9239C15.1989 16 14.9659 16 14.5 16C14.0341 16 13.8011 16 13.6173 15.9239C13.3723 15.8224 13.1776 15.6277 13.0761 15.3827C13 15.1989 13 14.9659 13 14.5V9.5Z" stroke="black" stroke-width="1.5"/>
<path d="M7 3.33782C8.47087 2.48697 10.1786 2 12 2C17.5228 2 22 6.47715 22 12C22 17.5228 17.5228 22 12 22C6.47715 22 2 17.5228 2 12C2 10.1786 2.48697 8.47087 3.33782 7" stroke="black" stroke-width="1.5" stroke-linecap="round"/>
</svg>
