<svg width="24" height="24" viewBox="0 0 24 24" fill="none" xmlns="http://www.w3.org/2000/svg">
<path d="M11 21H10C6.22876 21 4.34315 21 3.17157 19.8284C2 18.6569 2 16.7712 2 13V11M22 11C22 7.22876 22 5.34315 20.8284 4.17157C19.6569 3 17.7712 3 14 3H10C6.22876 3 4.34315 3 3.17157 4.17157C2.51839 4.82475 2.22937 5.69989 2.10149 7" stroke="black" stroke-width="1.5" stroke-linecap="round"/>
<path d="M13 17C13 15.1144 13 14.1716 13.5858 13.5858C14.1716 13 15.1144 13 17 13H18C19.8856 13 20.8284 13 21.4142 13.5858C22 14.1716 22 15.1144 22 17C22 18.8856 22 19.8284 21.4142 20.4142C20.8284 21 19.8856 21 18 21H17C15.1144 21 14.1716 21 13.5858 20.4142C13 19.8284 13 18.8856 13 17Z" stroke="black" stroke-width="1.5"/>
</svg>
