<svg width="24" height="24" viewBox="0 0 24 24" fill="none" xmlns="http://www.w3.org/2000/svg">
<path d="M9.99756 6.00065C9.98309 7.70722 9.88834 8.64801 9.26793 9.26842C8.64752 9.88883 7.70673 9.98358 6.00017 9.99805" stroke="black" stroke-width="1.5" stroke-linecap="round"/>
<path d="M9.99756 17.9974C9.98309 16.2908 9.88834 15.35 9.26793 14.7296C8.64752 14.1092 7.70673 14.0145 6.00017 14" stroke="black" stroke-width="1.5" stroke-linecap="round"/>
<path d="M14 6.00065C14.0145 7.70722 14.1092 8.64801 14.7296 9.26842C15.35 9.88883 16.2908 9.98358 17.9974 9.99805" stroke="black" stroke-width="1.5" stroke-linecap="round"/>
<path d="M14 17.9974C14.0145 16.2908 14.1092 15.35 14.7296 14.7296C15.35 14.1092 16.2908 14.0145 17.9974 14" stroke="black" stroke-width="1.5" stroke-linecap="round"/>
<path d="M22 12C22 16.714 22 19.0711 20.5355 20.5355C19.0711 22 16.714 22 12 22C7.28595 22 4.92893 22 3.46447 20.5355C2 19.0711 2 16.714 2 12C2 7.28595 2 4.92893 3.46447 3.46447C4.92893 2 7.28595 2 12 2C16.714 2 19.0711 2 20.5355 3.46447C21.5093 4.43821 21.8356 5.80655 21.9449 8" stroke="black" stroke-width="1.5" stroke-linecap="round"/>
</svg>
