<svg width="24" height="24" viewBox="0 0 24 24" fill="none" xmlns="http://www.w3.org/2000/svg">
<path d="M16.5 8.5H13.8604C13.6452 8.5 13.4541 8.63772 13.386 8.84189L12.7194 10.8419C12.6114 11.1657 12.8524 11.5 13.1937 11.5H14.5C15.6046 11.5 16.5 12.3954 16.5 13.5C16.5 14.6046 15.6046 15.5 14.5 15.5H12.5" stroke="black" stroke-width="1.5" stroke-linecap="round"/>
<path d="M7.5 10.5L10 8.5V15.5" stroke="black" stroke-width="1.5" stroke-linecap="round" stroke-linejoin="round"/>
<path d="M14 4.5L12 2C17.5228 2 22 6.47715 22 12C22 17.5228 17.5228 22 12 22C8.7288 22 5.82446 20.4293 4 18.001M8 2.83209C6.87754 3.32251 5.86251 4.01303 5 4.85857C3.14864 6.67349 2 9.20261 2 12C2 12.6849 2.06886 13.3538 2.20004 14" stroke="black" stroke-width="1.5" stroke-linecap="round" stroke-linejoin="round"/>
</svg>
