<svg width="24" height="24" viewBox="0 0 24 24" fill="none" xmlns="http://www.w3.org/2000/svg">
<path d="M14 4.5L12 2C17.5228 2 22 6.47715 22 12C22 17.5228 17.5228 22 12 22C8.7288 22 5.82446 20.4293 4 18.001M8 2.83209C6.87754 3.32251 5.86251 4.01303 5 4.85857C3.14864 6.67349 2 9.20261 2 12C2 12.6849 2.06886 13.3538 2.20004 14" stroke="black" stroke-width="1.5" stroke-linecap="round" stroke-linejoin="round"/>
<path d="M14 8.5H11.3604C11.1452 8.5 10.9541 8.63772 10.886 8.84189L10.2194 10.8419C10.1114 11.1657 10.3524 11.5 10.6937 11.5H12C13.1046 11.5 14 12.3954 14 13.5C14 14.6046 13.1046 15.5 12 15.5H10" stroke="black" stroke-width="1.5" stroke-linecap="round"/>
</svg>
