<svg width="24" height="24" viewBox="0 0 24 24" fill="none" xmlns="http://www.w3.org/2000/svg">
<path d="M13 8.07141L16.2215 10.3725C17.3382 11.1702 17.3382 12.8298 16.2215 13.6274L13 15.9286M7.5 15.0568V8.94317C7.5 8.1298 8.41937 7.65667 9.08124 8.12944L13.3608 11.1862C13.9191 11.5851 13.9191 12.4149 13.3608 12.8137L9.08124 15.8705C8.41937 16.3433 7.5 15.8702 7.5 15.0568Z" stroke="black" stroke-width="1.5" stroke-linecap="round"/>
<path d="M7 3.33782C8.47087 2.48697 10.1786 2 12 2C17.5228 2 22 6.47715 22 12C22 17.5228 17.5228 22 12 22C6.47715 22 2 17.5228 2 12C2 10.1786 2.48697 8.47087 3.33782 7" stroke="black" stroke-width="1.5" stroke-linecap="round"/>
</svg>
