<svg width="24" height="24" viewBox="0 0 24 24" fill="none" xmlns="http://www.w3.org/2000/svg">
<path d="M7.5 10.5L10 8.5V15.5" stroke="black" stroke-width="1.5" stroke-linecap="round" stroke-linejoin="round"/>
<path d="M12.5 13.75V10.25C12.5 9.2835 13.2835 8.5 14.25 8.5C15.2165 8.5 16 9.2835 16 10.25V13.75C16 14.7165 15.2165 15.5 14.25 15.5C13.2835 15.5 12.5 14.7165 12.5 13.75Z" stroke="black" stroke-width="1.5" stroke-linecap="round"/>
<path d="M14 4.5L12 2C17.5228 2 22 6.47715 22 12C22 17.5228 17.5228 22 12 22C8.7288 22 5.82446 20.4293 4 18.001M8 2.83209C6.87754 3.32251 5.86251 4.01303 5 4.85857C3.14864 6.67349 2 9.20261 2 12C2 12.6849 2.06886 13.3538 2.20004 14" stroke="black" stroke-width="1.5" stroke-linecap="round" stroke-linejoin="round"/>
</svg>
