<svg width="24" height="24" viewBox="0 0 24 24" fill="none" xmlns="http://www.w3.org/2000/svg">
<path d="M15.5001 11.9998C15.5001 12.5317 15.4647 13.4879 15.4128 14.6052C15.2726 17.6226 15.2025 19.1313 14.2798 19.7797C14.1029 19.9041 13.9048 20.0049 13.7001 20.0747C12.7327 20.4048 11.5976 19.747 9.50009 18.3725M7.01629 17.0417C6.76828 16.9998 6.51225 16.9998 6.00018 16.9998C4.62626 16.9998 3.9393 16.9998 3.33997 16.7225C2.79239 16.4692 2.24482 15.9539 1.95863 15.4228C1.6454 14.8414 1.60856 14.237 1.53488 13.0282C1.52396 12.849 1.51525 12.6722 1.50928 12.4998M1.95863 8.57679C2.24482 8.04563 2.79239 7.53042 3.33997 7.27707C3.9393 6.99979 4.62626 6.99979 6.00018 6.99979C6.51225 6.99979 6.76828 6.99979 7.01629 6.95791C7.26147 6.9165 7.50056 6.84478 7.72804 6.74438C7.95815 6.64283 8.1719 6.50189 8.59941 6.22002L8.81835 6.07566C11.3613 4.39898 12.6328 3.56063 13.7001 3.92487C13.9048 3.9947 14.1029 4.09551 14.2798 4.21984C15.1151 4.80685 15.2517 6.09882 15.3741 8.57679" stroke="black" stroke-width="1.5" stroke-linecap="round"/>
<path d="M20 18C20 18 21.5 16.2 21.5 12C21.5 9.56658 20.9965 7.93882 20.5729 7" stroke="black" stroke-width="1.5" stroke-linecap="round"/>
<path d="M18 15C18 15 18.5 14.1 18.5 12C18.5 11.1381 18.4158 10.4784 18.3165 10" stroke="black" stroke-width="1.5" stroke-linecap="round"/>
<path d="M22 2L2 22" stroke="black" stroke-width="1.5" stroke-linecap="round"/>
</svg>
