<svg width="24" height="24" viewBox="0 0 24 24" fill="none" xmlns="http://www.w3.org/2000/svg">
<path d="M15.6646 2.82918C16.0351 2.64393 16.4856 2.7941 16.6708 3.16459L17.1708 4.16459C17.3561 4.53507 17.2059 4.98557 16.8354 5.17082C16.4649 5.35606 16.0144 5.20589 15.8292 4.83541L15.3292 3.83541C15.1439 3.46492 15.2941 3.01442 15.6646 2.82918Z" fill="black"/>
<path fill-rule="evenodd" clip-rule="evenodd" d="M1.25 14.5C1.25 9.94365 4.94365 6.25 9.5 6.25C11.5081 6.25 13.3487 6.96746 14.7793 8.16004L16.4697 6.46967C16.7626 6.17677 17.2374 6.17677 17.5303 6.46967C17.8232 6.76256 17.8232 7.23743 17.5303 7.53033L15.84 9.2207C17.0325 10.6513 17.75 12.4919 17.75 14.5C17.75 19.0563 14.0563 22.75 9.5 22.75C4.94365 22.75 1.25 19.0563 1.25 14.5ZM9.5 7.75C5.77208 7.75 2.75 10.7721 2.75 14.5C2.75 18.2279 5.77208 21.25 9.5 21.25C13.2279 21.25 16.25 18.2279 16.25 14.5C16.25 10.7721 13.2279 7.75 9.5 7.75Z" fill="black"/>
<path d="M19.8354 6.82918C19.4649 6.64393 19.0144 6.7941 18.8292 7.16459C18.6439 7.53507 18.7941 7.98557 19.1646 8.17082L20.1646 8.67082C20.5351 8.85606 20.9856 8.70589 21.1708 8.33541C21.3561 7.96492 21.2059 7.51442 20.8354 7.32918L19.8354 6.82918Z" fill="black"/>
<path d="M20.5303 4.53033C20.8232 4.23743 20.8232 3.76256 20.5303 3.46967C20.2374 3.17677 19.7626 3.17677 19.4697 3.46967L18.4697 4.46967C18.1768 4.76256 18.1768 5.23743 18.4697 5.53033C18.7626 5.82322 19.2374 5.82322 19.5303 5.53033L20.5303 4.53033Z" fill="black"/>
</svg>
