<svg width="24" height="24" viewBox="0 0 24 24" fill="none" xmlns="http://www.w3.org/2000/svg">
<path d="M18.2892 2.88976C17.2615 2.75159 15.9068 2.75 14 2.75C13.5858 2.75 13.25 2.41421 13.25 2C13.25 1.58579 13.5858 1.25 14 1.25H14.0564C15.8942 1.24998 17.3498 1.24997 18.489 1.40313C19.6615 1.56076 20.6104 1.89288 21.3588 2.64124C22.0432 3.32568 22.417 3.97665 22.5924 4.98199C22.7501 5.8857 22.7501 7.1045 22.75 8.90368L22.75 9C22.75 9.41421 22.4142 9.75 22 9.75C21.5858 9.75 21.25 9.41421 21.25 9C21.25 7.08091 21.2471 5.9986 21.1147 5.23984C20.9973 4.56666 20.7852 4.18904 20.2981 3.7019C19.8749 3.27869 19.2952 3.02502 18.2892 2.88976Z" fill="black"/>
<path d="M2.75001 15C2.75001 14.5858 2.41422 14.25 2.00001 14.25C1.58579 14.25 1.25001 14.5858 1.25001 15L1.25 15.0963C1.24995 16.8955 1.24992 18.1143 1.40762 19.018C1.58304 20.0233 1.95681 20.6743 2.64125 21.3588C3.38961 22.1071 4.33856 22.4392 5.51098 22.5969C6.6502 22.75 8.10583 22.75 9.94359 22.75H10C10.4142 22.75 10.75 22.4142 10.75 22C10.75 21.5858 10.4142 21.25 10 21.25C8.09318 21.25 6.73852 21.2484 5.71085 21.1102C4.70476 20.975 4.12512 20.7213 3.70191 20.2981C3.21477 19.811 3.00275 19.4333 2.88529 18.7602C2.75289 18.0014 2.75001 16.9191 2.75001 15Z" fill="black"/>
<path d="M22.75 15C22.75 14.5858 22.4142 14.25 22 14.25C21.5858 14.25 21.25 14.5858 21.25 15C21.25 16.9191 21.2471 18.0014 21.1147 18.7602C20.9973 19.4333 20.7852 19.811 20.2981 20.2981C19.8749 20.7213 19.2952 20.975 18.2892 21.1102C17.2615 21.2484 15.9068 21.25 14 21.25C13.5858 21.25 13.25 21.5858 13.25 22C13.25 22.4142 13.5858 22.75 14 22.75H14.0564C15.8942 22.75 17.3498 22.75 18.489 22.5969C19.6615 22.4392 20.6104 22.1071 21.3588 21.3588C22.0432 20.6743 22.417 20.0233 22.5924 19.018C22.7501 18.1143 22.7501 16.8955 22.75 15.0963L22.75 15Z" fill="black"/>
<path d="M10 1.25H9.94359C8.10584 1.24998 6.65019 1.24997 5.51098 1.40313C4.33856 1.56076 3.38961 1.89288 2.64125 2.64124C1.95681 3.32568 1.58304 3.97665 1.40762 4.98199C1.24992 5.8857 1.24995 7.10448 1.25 8.90364L1.25001 9C1.25001 9.41421 1.58579 9.75 2.00001 9.75C2.41422 9.75 2.75001 9.41421 2.75001 9C2.75001 7.08091 2.75289 5.9986 2.88529 5.23984C3.00275 4.56666 3.21477 4.18904 3.70191 3.7019C4.12512 3.27869 4.70476 3.02502 5.71085 2.88976C6.73852 2.75159 8.09319 2.75 10 2.75C10.4142 2.75 10.75 2.41421 10.75 2C10.75 1.58579 10.4142 1.25 10 1.25Z" fill="black"/>
<path fill-rule="evenodd" clip-rule="evenodd" d="M12 9.25C10.4812 9.25 9.25001 10.4812 9.25001 12C9.25001 13.5188 10.4812 14.75 12 14.75C13.5188 14.75 14.75 13.5188 14.75 12C14.75 10.4812 13.5188 9.25 12 9.25ZM10.75 12C10.75 11.3096 11.3096 10.75 12 10.75C12.6904 10.75 13.25 11.3096 13.25 12C13.25 12.6904 12.6904 13.25 12 13.25C11.3096 13.25 10.75 12.6904 10.75 12Z" fill="black"/>
<path fill-rule="evenodd" clip-rule="evenodd" d="M5.32438 9.45049C6.59435 7.97738 8.77637 6.25 12 6.25C15.2236 6.25 17.4057 7.97737 18.6756 9.45049L18.7079 9.48791C18.9789 9.80202 19.2576 10.125 19.4491 10.5121C19.6632 10.9448 19.75 11.4094 19.75 12C19.75 12.5906 19.6632 13.0552 19.4491 13.4879C19.2576 13.875 18.9789 14.198 18.7079 14.5121L18.6756 14.5495C17.4057 16.0226 15.2236 17.75 12 17.75C8.77637 17.75 6.59435 16.0226 5.32438 14.5495L5.29211 14.5121C5.0211 14.198 4.7424 13.875 4.5509 13.4879C4.33676 13.0552 4.25001 12.5906 4.25001 12C4.25001 11.4094 4.33676 10.9448 4.5509 10.5121C4.74241 10.125 5.02109 9.80201 5.2921 9.48791L5.32438 9.45049ZM12 7.75C9.369 7.75 7.56642 9.14707 6.46048 10.4299C6.14652 10.7941 5.99368 10.9785 5.89533 11.1773C5.81198 11.3457 5.75001 11.566 5.75001 12C5.75001 12.434 5.81198 12.6543 5.89533 12.8227C5.99368 13.0215 6.14652 13.2059 6.46048 13.5701C7.56642 14.8529 9.369 16.25 12 16.25C14.631 16.25 16.4336 14.8529 17.5395 13.5701C17.8535 13.2059 18.0063 13.0215 18.1047 12.8227C18.188 12.6543 18.25 12.434 18.25 12C18.25 11.566 18.188 11.3457 18.1047 11.1773C18.0063 10.9785 17.8535 10.7941 17.5395 10.4299C16.4336 9.14707 14.631 7.75 12 7.75Z" fill="black"/>
</svg>
