<svg width="24" height="24" viewBox="0 0 24 24" fill="none" xmlns="http://www.w3.org/2000/svg">
<path fill-rule="evenodd" clip-rule="evenodd" d="M11.9426 1.25H12.0574C14.3658 1.24999 16.1748 1.24998 17.5863 1.43975C19.031 1.63399 20.1711 2.03933 21.0659 2.93414C21.9607 3.82895 22.366 4.96897 22.5603 6.41371C22.75 7.82519 22.75 9.63423 22.75 11.9426V12.0574C22.75 14.3658 22.75 16.1748 22.5603 17.5863C22.366 19.031 21.9607 20.1711 21.0659 21.0659C20.1711 21.9607 19.031 22.366 17.5863 22.5603C16.1748 22.75 14.3658 22.75 12.0574 22.75H11.9426C9.63423 22.75 7.82519 22.75 6.41371 22.5603C4.96897 22.366 3.82895 21.9607 2.93414 21.0659C2.03933 20.1711 1.63399 19.031 1.43975 17.5863C1.24998 16.1748 1.24999 14.3658 1.25 12.0574V11.9426C1.24999 9.63423 1.24998 7.82519 1.43975 6.41371C1.63399 4.96897 2.03933 3.82895 2.93414 2.93414C3.82895 2.03933 4.96897 1.63399 6.41371 1.43975C7.82519 1.24998 9.63423 1.24999 11.9426 1.25ZM6.61358 2.92637C5.33517 3.09825 4.56445 3.42514 3.9948 3.9948C3.42514 4.56445 3.09825 5.33517 2.92637 6.61358C2.75159 7.91356 2.75 9.62178 2.75 12C2.75 14.3782 2.75159 16.0864 2.92637 17.3864C3.09825 18.6648 3.42514 19.4355 3.9948 20.0052C4.56445 20.5749 5.33517 20.9018 6.61358 21.0736C7.91356 21.2484 9.62178 21.25 12 21.25C14.3782 21.25 16.0864 21.2484 17.3864 21.0736C18.6648 20.9018 19.4355 20.5749 20.0052 20.0052C20.5749 19.4355 20.9018 18.6648 21.0736 17.3864C21.2484 16.0864 21.25 14.3782 21.25 12C21.25 9.62178 21.2484 7.91356 21.0736 6.61358C20.9018 5.33517 20.5749 4.56445 20.0052 3.9948C19.4355 3.42514 18.6648 3.09825 17.3864 2.92637C16.0864 2.75159 14.3782 2.75 12 2.75C9.62178 2.75 7.91356 2.75159 6.61358 2.92637ZM14.2084 6.75C12.5257 6.75 11.1669 8.10771 11.1669 9.77606C11.1669 10.147 11.2521 10.4739 11.3403 10.7111C11.3839 10.8284 11.4268 10.9198 11.4569 10.9786C11.4718 11.0079 11.4834 11.0288 11.49 11.0404L11.4956 11.0499C11.6803 11.3443 11.6366 11.7274 11.3904 11.9726L6.80189 16.5424C6.80189 16.5424 6.79792 16.5464 6.79128 16.5551C6.78483 16.5637 6.77786 16.5741 6.77139 16.5857C6.75762 16.6104 6.75208 16.6294 6.7505 16.6391L6.7501 16.642L6.7511 16.6443C6.75217 16.6466 6.75413 16.6504 6.75747 16.6557C6.76405 16.6662 6.77721 16.6844 6.80189 16.709L7.30045 17.2055L7.30368 17.2076C7.31321 17.2139 7.32491 17.2207 7.33798 17.2271C7.36576 17.2407 7.38874 17.2472 7.40293 17.2493C7.40657 17.2464 7.41235 17.2422 7.41871 17.2358L8.03594 16.6211C8.32859 16.3297 8.80179 16.3297 9.09443 16.6211C9.17078 16.6972 9.2267 16.7215 9.25568 16.7303C9.28541 16.7394 9.31524 16.7409 9.34995 16.7343C9.38769 16.727 9.43107 16.7098 9.47361 16.6824C9.5121 16.6577 9.53725 16.6327 9.549 16.6188C9.58417 16.5663 9.58593 16.5279 9.56237 16.4576C9.54799 16.4146 9.52645 16.3739 9.50688 16.3431C9.49771 16.3287 9.49059 16.319 9.48762 16.315M11.0441 16.8688C11.0014 17.0748 10.914 17.2897 10.7618 17.5018L10.7567 17.5089L10.7515 17.5159C10.5169 17.8274 10.1166 18.1147 9.63211 18.2075C9.31794 18.2677 8.98553 18.2421 8.66594 18.1107L8.4772 18.2987C8.07777 18.6965 7.59637 18.7941 7.1836 18.7331C6.80814 18.6776 6.50086 18.4966 6.31475 18.3377C6.30016 18.3252 6.28605 18.3122 6.27245 18.2987L5.7434 17.7718C5.32319 17.3533 5.19555 16.8535 5.27014 16.3971C5.33706 15.9878 5.55556 15.6666 5.7434 15.4795L9.95412 11.286C9.94754 11.269 9.94095 11.2517 9.93437 11.234C9.80215 10.8784 9.6669 10.3711 9.6669 9.77606C9.6669 7.27349 11.7031 5.25 14.2084 5.25C16.7138 5.25 18.75 7.27349 18.75 9.77606C18.75 12.2786 16.7138 14.3021 14.2084 14.3021C13.9722 14.3021 13.6078 14.2761 13.2342 14.1987C13.0881 14.1685 12.9211 14.1266 12.7503 14.0668C12.7705 14.0997 12.7953 14.1424 12.8217 14.194C12.8763 14.3006 12.9423 14.4534 12.987 14.6401C13.0788 15.0243 13.0799 15.5694 12.7017 16.0968L12.6966 16.1039L12.6913 16.1109C12.4778 16.3944 12.0768 16.7396 11.5244 16.8444C11.3659 16.8745 11.2052 16.8829 11.0441 16.8688ZM9.48762 16.315C9.23996 16.0172 9.25947 15.5782 9.53493 15.3039L9.71128 15.1283C10.0039 14.8368 10.4771 14.8368 10.7698 15.1283C10.9168 15.2747 11.0285 15.3328 11.096 15.3563C11.1602 15.3786 11.2071 15.3779 11.2448 15.3707C11.3374 15.3531 11.4355 15.2811 11.488 15.2151C11.5454 15.1312 11.5459 15.0635 11.5281 14.9889C11.5176 14.9451 11.501 14.9057 11.4867 14.8779C11.4815 14.8678 11.4773 14.8605 11.4749 14.8565L11.4484 14.8195L11.4219 14.7668C11.4203 14.7642 11.4126 14.753 11.3863 14.7239L11.3843 14.7219C11.367 14.704 11.239 14.572 11.1617 14.4334C11.0318 14.2005 10.996 13.9151 11.1081 13.6272C11.193 13.4092 11.3465 13.2363 11.4748 13.1085L12.0039 12.5816C12.2779 12.3087 12.7145 12.2889 13.0121 12.5359C13.0788 12.5913 13.2534 12.6709 13.5382 12.7299C13.801 12.7843 14.0626 12.8021 14.2084 12.8021C15.8911 12.8021 17.25 11.4444 17.25 9.77606C17.25 8.10771 15.8911 6.75 14.2084 6.75M14.2084 9.20883C13.8893 9.20883 13.6358 9.46568 13.6358 9.77606C13.6358 10.0864 13.8893 10.3433 14.2084 10.3433C14.5276 10.3433 14.7811 10.0864 14.7811 9.77606C14.7811 9.46568 14.5276 9.20883 14.2084 9.20883ZM12.1358 9.77606C12.1358 8.63147 13.0667 7.70883 14.2084 7.70883C15.3502 7.70883 16.2811 8.63147 16.2811 9.77606C16.2811 10.9207 15.3502 11.8433 14.2084 11.8433C13.0667 11.8433 12.1358 10.9207 12.1358 9.77606Z" fill="black"/>
</svg>
