<svg width="24" height="24" viewBox="0 0 24 24" fill="none" xmlns="http://www.w3.org/2000/svg">
<path fill-rule="evenodd" clip-rule="evenodd" d="M9.25 16C9.25 14.4812 10.4812 13.25 12 13.25C13.5188 13.25 14.75 14.4812 14.75 16C14.75 17.5188 13.5188 18.75 12 18.75C10.4812 18.75 9.25 17.5188 9.25 16ZM12 14.75C11.3096 14.75 10.75 15.3096 10.75 16C10.75 16.6904 11.3096 17.25 12 17.25C12.6904 17.25 13.25 16.6904 13.25 16C13.25 15.3096 12.6904 14.75 12 14.75Z" fill="black"/>
<path fill-rule="evenodd" clip-rule="evenodd" d="M5.25 9.30277V8C5.25 4.27208 8.27208 1.25 12 1.25C15.7279 1.25 18.75 4.27208 18.75 8V9.30277C18.9768 9.31872 19.1906 9.33948 19.3918 9.36652C20.2919 9.48754 21.0497 9.74643 21.6517 10.3483C22.2536 10.9503 22.5125 11.7081 22.6335 12.6082C22.75 13.4752 22.75 14.5775 22.75 15.9451V16.0549C22.75 17.4225 22.75 18.5248 22.6335 19.3918C22.5125 20.2919 22.2536 21.0497 21.6517 21.6516C21.0497 22.2536 20.2919 22.5125 19.3918 22.6335C18.5248 22.75 17.4225 22.75 16.0549 22.75H7.94513C6.57754 22.75 5.47522 22.75 4.60825 22.6335C3.70814 22.5125 2.95027 22.2536 2.34835 21.6516C1.74643 21.0497 1.48754 20.2919 1.36652 19.3918C1.24996 18.5248 1.24998 17.4225 1.25 16.0549V15.9451C1.24998 14.5775 1.24996 13.4752 1.36652 12.6082C1.48754 11.7081 1.74643 10.9503 2.34835 10.3483C2.95027 9.74643 3.70814 9.48754 4.60825 9.36652C4.80938 9.33948 5.02317 9.31872 5.25 9.30277ZM6.75 8C6.75 5.10051 9.10051 2.75 12 2.75C14.8995 2.75 17.25 5.10051 17.25 8V9.25344C16.8765 9.24999 16.4784 9.24999 16.0549 9.25H7.94513C7.52161 9.24999 7.12353 9.24999 6.75 9.25344V8ZM4.80812 10.8531C4.07435 10.9518 3.68577 11.1322 3.40901 11.409C3.13225 11.6858 2.9518 12.0743 2.85315 12.8081C2.75159 13.5635 2.75 14.5646 2.75 16C2.75 17.4354 2.75159 18.4365 2.85315 19.1919C2.9518 19.9257 3.13225 20.3142 3.40901 20.591C3.68577 20.8678 4.07435 21.0482 4.80812 21.1469C5.56347 21.2484 6.56459 21.25 8 21.25H16C17.4354 21.25 18.4365 21.2484 19.1919 21.1469C19.9257 21.0482 20.3142 20.8678 20.591 20.591C20.8678 20.3142 21.0482 19.9257 21.1469 19.1919C21.2484 18.4365 21.25 17.4354 21.25 16C21.25 14.5646 21.2484 13.5635 21.1469 12.8081C21.0482 12.0743 20.8678 11.6858 20.591 11.409C20.3142 11.1322 19.9257 10.9518 19.1919 10.8531C18.4365 10.7516 17.4354 10.75 16 10.75H8C6.56459 10.75 5.56347 10.7516 4.80812 10.8531Z" fill="black"/>
</svg>
