<svg width="24" height="24" viewBox="0 0 24 24" fill="none" xmlns="http://www.w3.org/2000/svg">
<path d="M12.7502 10C12.7502 9.58579 12.4144 9.25 12.0002 9.25C11.586 9.25 11.2502 9.58579 11.2502 10V10.7012L10.6428 10.3505C10.2841 10.1434 9.8254 10.2663 9.61829 10.625C9.41119 10.9837 9.53409 11.4424 9.89281 11.6495L10.4997 11.9999L9.89258 12.3505C9.53386 12.5576 9.41095 13.0163 9.61806 13.375C9.82517 13.7337 10.2839 13.8566 10.6426 13.6495L11.2502 13.2987V14C11.2502 14.4142 11.586 14.75 12.0002 14.75C12.4144 14.75 12.7502 14.4142 12.7502 14V13.2993L13.3569 13.6495C13.7156 13.8566 14.1743 13.7337 14.3814 13.375C14.5885 13.0163 14.4656 12.5576 14.1069 12.3505L13.4997 11.9999L14.1067 11.6495C14.4654 11.4424 14.5883 10.9837 14.3812 10.625C14.1741 10.2663 13.7154 10.1434 13.3567 10.3505L12.7502 10.7006V10Z" fill="black"/>
<path d="M6.73266 9.25C7.14687 9.25 7.48266 9.58579 7.48266 10V10.7006L8.0891 10.3505C8.44782 10.1434 8.90652 10.2663 9.11362 10.625C9.32073 10.9837 9.19782 11.4424 8.8391 11.6495L8.23217 11.9999L8.83934 12.3505C9.19806 12.5576 9.32096 13.0163 9.11386 13.375C8.90675 13.7337 8.44806 13.8566 8.08934 13.6495L7.48266 13.2993V14C7.48266 14.4142 7.14687 14.75 6.73266 14.75C6.31844 14.75 5.98266 14.4142 5.98266 14V13.2987L5.375 13.6495C5.01628 13.8566 4.55759 13.7337 4.35048 13.375C4.14338 13.0163 4.26628 12.5576 4.625 12.3505L5.23217 11.9999L4.62524 11.6495C4.26652 11.4424 4.14361 10.9837 4.35072 10.625C4.55782 10.2663 5.01652 10.1434 5.37524 10.3505L5.98266 10.7012V10C5.98266 9.58579 6.31844 9.25 6.73266 9.25Z" fill="black"/>
<path d="M18.0181 10C18.0181 9.58579 17.6823 9.25 17.2681 9.25C16.8539 9.25 16.5181 9.58579 16.5181 10V10.7012L15.9106 10.3505C15.5519 10.1434 15.0932 10.2663 14.8861 10.625C14.679 10.9837 14.8019 11.4424 15.1606 11.6495L15.7676 11.9999L15.1604 12.3505C14.8017 12.5576 14.6788 13.0163 14.8859 13.375C15.093 13.7337 15.5517 13.8566 15.9104 13.6495L16.5181 13.2987V14C16.5181 14.4142 16.8539 14.75 17.2681 14.75C17.6823 14.75 18.0181 14.4142 18.0181 14V13.2993L18.6247 13.6495C18.9835 13.8566 19.4422 13.7337 19.6493 13.375C19.8564 13.0163 19.7335 12.5576 19.3747 12.3505L18.7676 11.9999L19.3745 11.6495C19.7332 11.4424 19.8561 10.9837 19.649 10.625C19.4419 10.2663 18.9832 10.1434 18.6245 10.3505L18.0181 10.7006V10Z" fill="black"/>
<path fill-rule="evenodd" clip-rule="evenodd" d="M9.94358 3.25C8.10583 3.24998 6.65019 3.24997 5.51098 3.40314C4.33856 3.56076 3.38961 3.89288 2.64124 4.64124C1.89288 5.38961 1.56076 6.33856 1.40314 7.51098C1.24997 8.65019 1.24998 10.1058 1.25 11.9436V12.0564C1.24998 13.8942 1.24997 15.3498 1.40314 16.489C1.56076 17.6614 1.89288 18.6104 2.64124 19.3588C3.38961 20.1071 4.33856 20.4392 5.51098 20.5969C6.65018 20.75 8.1058 20.75 9.94354 20.75H14.0564C15.8942 20.75 17.3498 20.75 18.489 20.5969C19.6614 20.4392 20.6104 20.1071 21.3588 19.3588C22.1071 18.6104 22.4392 17.6614 22.5969 16.489C22.75 15.3498 22.75 13.8942 22.75 12.0565V11.9436C22.75 10.1059 22.75 8.65018 22.5969 7.51098C22.4392 6.33856 22.1071 5.38961 21.3588 4.64124C20.6104 3.89288 19.6614 3.56076 18.489 3.40314C17.3498 3.24997 15.8942 3.24998 14.0564 3.25H9.94358ZM3.7019 5.7019C4.12511 5.27869 4.70476 5.02503 5.71085 4.88976C6.73851 4.75159 8.09318 4.75 10 4.75H14C15.9068 4.75 17.2615 4.75159 18.2892 4.88976C19.2952 5.02503 19.8749 5.27869 20.2981 5.7019C20.7213 6.12511 20.975 6.70476 21.1102 7.71085C21.2484 8.73851 21.25 10.0932 21.25 12C21.25 13.9068 21.2484 15.2615 21.1102 16.2892C20.975 17.2952 20.7213 17.8749 20.2981 18.2981C19.8749 18.7213 19.2952 18.975 18.2892 19.1102C17.2615 19.2484 15.9068 19.25 14 19.25H10C8.09318 19.25 6.73851 19.2484 5.71085 19.1102C4.70476 18.975 4.12511 18.7213 3.7019 18.2981C3.27869 17.8749 3.02503 17.2952 2.88976 16.2892C2.75159 15.2615 2.75 13.9068 2.75 12C2.75 10.0932 2.75159 8.73851 2.88976 7.71085C3.02503 6.70476 3.27869 6.12511 3.7019 5.7019Z" fill="black"/>
</svg>
