<svg width="24" height="24" viewBox="0 0 24 24" fill="none" xmlns="http://www.w3.org/2000/svg">
<path d="M14 2.75C15.9068 2.75 17.2615 2.75159 18.2892 2.88976C19.2952 3.02503 19.8749 3.27869 20.2981 3.7019C20.7852 4.18904 20.9973 4.56666 21.1147 5.23984C21.2471 5.9986 21.25 7.08092 21.25 9C21.25 9.41421 21.5858 9.75 22 9.75C22.4142 9.75 22.75 9.41421 22.75 9L22.75 8.90369C22.7501 7.1045 22.7501 5.88571 22.5924 4.98199C22.417 3.97665 22.0432 3.32568 21.3588 2.64124C20.6104 1.89288 19.6615 1.56076 18.489 1.40314C17.3498 1.24997 15.8942 1.24998 14.0564 1.25H14C13.5858 1.25 13.25 1.58579 13.25 2C13.25 2.41421 13.5858 2.75 14 2.75Z" fill="black"/>
<path d="M2.00001 14.25C2.41422 14.25 2.75001 14.5858 2.75001 15C2.75001 16.9191 2.75289 18.0014 2.88529 18.7602C3.00275 19.4333 3.21477 19.811 3.70191 20.2981C4.12512 20.7213 4.70476 20.975 5.71085 21.1102C6.73852 21.2484 8.09318 21.25 10 21.25C10.4142 21.25 10.75 21.5858 10.75 22C10.75 22.4142 10.4142 22.75 10 22.75H9.94359C8.10583 22.75 6.6502 22.75 5.51098 22.5969C4.33856 22.4392 3.38961 22.1071 2.64125 21.3588C1.95681 20.6743 1.58304 20.0233 1.40762 19.018C1.24992 18.1143 1.24995 16.8955 1.25 15.0964L1.25001 15C1.25001 14.5858 1.58579 14.25 2.00001 14.25Z" fill="black"/>
<path d="M22 14.25C22.4142 14.25 22.75 14.5858 22.75 15L22.75 15.0963C22.7501 16.8955 22.7501 18.1143 22.5924 19.018C22.417 20.0233 22.0432 20.6743 21.3588 21.3588C20.6104 22.1071 19.6615 22.4392 18.489 22.5969C17.3498 22.75 15.8942 22.75 14.0564 22.75H14C13.5858 22.75 13.25 22.4142 13.25 22C13.25 21.5858 13.5858 21.25 14 21.25C15.9068 21.25 17.2615 21.2484 18.2892 21.1102C19.2952 20.975 19.8749 20.7213 20.2981 20.2981C20.7852 19.811 20.9973 19.4333 21.1147 18.7602C21.2471 18.0014 21.25 16.9191 21.25 15C21.25 14.5858 21.5858 14.25 22 14.25Z" fill="black"/>
<path d="M9.94359 1.25H10C10.4142 1.25 10.75 1.58579 10.75 2C10.75 2.41421 10.4142 2.75 10 2.75C8.09319 2.75 6.73852 2.75159 5.71085 2.88976C4.70476 3.02503 4.12512 3.27869 3.70191 3.7019C3.21477 4.18904 3.00275 4.56666 2.88529 5.23984C2.75289 5.9986 2.75001 7.08092 2.75001 9C2.75001 9.41421 2.41422 9.75 2.00001 9.75C1.58579 9.75 1.25001 9.41421 1.25001 9L1.25 8.90369C1.24995 7.10453 1.24992 5.8857 1.40762 4.98199C1.58304 3.97665 1.95681 3.32568 2.64125 2.64124C3.38961 1.89288 4.33856 1.56076 5.51098 1.40314C6.65019 1.24997 8.10584 1.24998 9.94359 1.25Z" fill="black"/>
<path d="M2.00001 11.25C1.58579 11.25 1.25001 11.5858 1.25001 12C1.25001 12.4142 1.58579 12.75 2.00001 12.75H22C22.4142 12.75 22.75 12.4142 22.75 12C22.75 11.5858 22.4142 11.25 22 11.25H2.00001Z" fill="black"/>
</svg>
