<svg width="24" height="24" viewBox="0 0 24 24" fill="none" xmlns="http://www.w3.org/2000/svg">
<path d="M14 2.75C15.9068 2.75 17.2615 2.75159 18.2892 2.88976C19.2952 3.02502 19.8749 3.27869 20.2981 3.7019C20.7213 4.12511 20.975 4.70476 21.1102 5.71085C21.2484 6.73851 21.25 8.09318 21.25 10C21.25 10.4142 21.5858 10.75 22 10.75C22.4142 10.75 22.75 10.4142 22.75 10V9.94359C22.75 8.10583 22.75 6.65019 22.5969 5.51098C22.4392 4.33855 22.1071 3.38961 21.3588 2.64124C20.6104 1.89288 19.6614 1.56076 18.489 1.40313C17.3498 1.24997 15.8942 1.24998 14.0564 1.25H14C13.5858 1.25 13.25 1.58579 13.25 2C13.25 2.41421 13.5858 2.75 14 2.75Z" fill="black"/>
<path d="M9.94358 1.25H10C10.4142 1.25 10.75 1.58579 10.75 2C10.75 2.41421 10.4142 2.75 10 2.75C8.09318 2.75 6.73851 2.75159 5.71085 2.88976C4.70476 3.02502 4.12511 3.27869 3.7019 3.7019C3.27869 4.12511 3.02503 4.70476 2.88976 5.71085C2.75159 6.73851 2.75 8.09318 2.75 10C2.75 10.4142 2.41421 10.75 2 10.75C1.58579 10.75 1.25 10.4142 1.25 10V9.94358C1.24998 8.10583 1.24997 6.65019 1.40314 5.51098C1.56076 4.33855 1.89288 3.38961 2.64124 2.64124C3.38961 1.89288 4.33856 1.56076 5.51098 1.40313C6.65019 1.24997 8.10583 1.24998 9.94358 1.25Z" fill="black"/>
<path d="M5.49828 13.5575C5.1904 13.2804 5.16544 12.8062 5.44253 12.4983L6 13C5.44253 12.4983 5.44223 12.4986 5.44253 12.4983L5.44375 12.4969L5.44515 12.4954L5.44846 12.4918L5.45715 12.4824C5.46387 12.4752 5.47245 12.4661 5.4829 12.4553C5.5038 12.4338 5.53222 12.4053 5.56831 12.371C5.64047 12.3022 5.7434 12.2098 5.87836 12.1018C6.14829 11.8859 6.54652 11.6076 7.08276 11.3326C8.15891 10.7808 9.77574 10.25 12 10.25C14.2243 10.25 15.8411 10.7808 16.9172 11.3326C17.4535 11.6076 17.8517 11.8859 18.1216 12.1018C18.2566 12.2098 18.3595 12.3022 18.4317 12.371C18.4678 12.4053 18.4962 12.4338 18.5171 12.4553C18.5276 12.4661 18.5361 12.4752 18.5429 12.4824L18.5515 12.4918L18.5549 12.4954L18.5562 12.4969C18.5565 12.4973 18.5575 12.4983 18 13L18.5575 12.4983C18.8346 12.8062 18.8096 13.2804 18.5017 13.5575C18.1952 13.8333 17.7239 13.8098 17.4463 13.5059L17.4404 13.4997C17.4329 13.492 17.4185 13.4775 17.3972 13.4572C17.3545 13.4165 17.284 13.3527 17.1846 13.2732C16.9858 13.1141 16.6715 12.8924 16.2328 12.6674C15.3589 12.2192 13.9757 11.75 12 11.75C10.0243 11.75 8.64109 12.2192 7.76724 12.6674C7.32849 12.8924 7.01422 13.1141 6.8154 13.2732C6.71597 13.3527 6.64547 13.4165 6.60279 13.4572C6.58146 13.4775 6.5671 13.492 6.55959 13.4997L6.55369 13.5059C6.27608 13.8098 5.80476 13.8333 5.49828 13.5575Z" fill="black"/>
<path d="M22 13.25C22.4142 13.25 22.75 13.5858 22.75 14V14.0564C22.75 15.8942 22.75 17.3498 22.5969 18.489C22.4392 19.6614 22.1071 20.6104 21.3588 21.3588C20.6104 22.1071 19.6614 22.4392 18.489 22.5969C17.3498 22.75 15.8942 22.75 14.0564 22.75H14C13.5858 22.75 13.25 22.4142 13.25 22C13.25 21.5858 13.5858 21.25 14 21.25C15.9068 21.25 17.2615 21.2484 18.2892 21.1102C19.2952 20.975 19.8749 20.7213 20.2981 20.2981C20.7213 19.8749 20.975 19.2952 21.1102 18.2892C21.2484 17.2615 21.25 15.9068 21.25 14C21.25 13.5858 21.5858 13.25 22 13.25Z" fill="black"/>
<path d="M2.75 14C2.75 13.5858 2.41421 13.25 2 13.25C1.58579 13.25 1.25 13.5858 1.25 14V14.0564C1.24998 15.8942 1.24997 17.3498 1.40314 18.489C1.56076 19.6614 1.89288 20.6104 2.64124 21.3588C3.38961 22.1071 4.33856 22.4392 5.51098 22.5969C6.65019 22.75 8.10583 22.75 9.94359 22.75H10C10.4142 22.75 10.75 22.4142 10.75 22C10.75 21.5858 10.4142 21.25 10 21.25C8.09318 21.25 6.73851 21.2484 5.71085 21.1102C4.70476 20.975 4.12511 20.7213 3.7019 20.2981C3.27869 19.8749 3.02503 19.2952 2.88976 18.2892C2.75159 17.2615 2.75 15.9068 2.75 14Z" fill="black"/>
</svg>
