<svg width="24" height="24" viewBox="0 0 24 24" fill="none" xmlns="http://www.w3.org/2000/svg">
<path d="M15 12.75C15.4142 12.75 15.75 12.4142 15.75 12C15.75 11.5858 15.4142 11.25 15 11.25H9C8.58579 11.25 8.25 11.5858 8.25 12C8.25 12.4142 8.58579 12.75 9 12.75H15Z" fill="black"/>
<path fill-rule="evenodd" clip-rule="evenodd" d="M12 1.25C11.0625 1.25 10.1673 1.55658 8.72339 2.05112L7.99595 2.30014C6.51462 2.8072 5.3714 3.19852 4.55303 3.53099C4.14078 3.69846 3.78637 3.86067 3.50098 4.02641C3.22634 4.1859 2.95082 4.38484 2.76363 4.65154C2.5786 4.91516 2.48293 5.23924 2.42281 5.55122C2.36031 5.87556 2.32262 6.26464 2.2983 6.71136C2.25 7.59836 2.25 8.81351 2.25 10.3896V11.9914C2.25 18.0924 6.85803 21.0175 9.59833 22.2146L9.62543 22.2264C9.96523 22.3749 10.2846 22.5144 10.6516 22.6084C11.0391 22.7076 11.4507 22.75 12 22.75C12.5493 22.75 12.9609 22.7076 13.3484 22.6084C13.7154 22.5144 14.0348 22.3749 14.3745 22.2264L14.4017 22.2146C17.142 21.0175 21.75 18.0924 21.75 11.9914V10.3898C21.75 8.81361 21.75 7.5984 21.7017 6.71136C21.6774 6.26464 21.6397 5.87556 21.5772 5.55122C21.5171 5.23924 21.4214 4.91516 21.2364 4.65154C21.0492 4.38484 20.7737 4.1859 20.499 4.02641C20.2136 3.86067 19.8592 3.69846 19.447 3.53099C18.6286 3.19852 17.4854 2.8072 16.004 2.30013L15.2766 2.05112C13.8327 1.55658 12.9375 1.25 12 1.25ZM9.08062 3.5143C10.6951 2.96164 11.3423 2.75 12 2.75C12.6577 2.75 13.3049 2.96164 14.9194 3.5143L15.4922 3.71037C17.0048 4.22814 18.1079 4.60605 18.8824 4.92069C19.269 5.07774 19.5491 5.20935 19.7457 5.32353C19.8428 5.3799 19.9097 5.42642 19.9543 5.46273C19.9922 5.49349 20.0066 5.51092 20.0087 5.51348C20.0106 5.5166 20.0231 5.53737 20.0406 5.58654C20.0606 5.64265 20.0827 5.72309 20.1043 5.83506C20.148 6.06169 20.1811 6.37301 20.2039 6.79292C20.2497 7.63411 20.25 8.80833 20.25 10.4167V11.9914C20.25 17.1665 16.3801 19.7135 13.8012 20.84C13.4297 21.0023 13.2152 21.0941 12.9764 21.1552C12.7483 21.2136 12.47 21.25 12 21.25C11.53 21.25 11.2517 21.2136 11.0236 21.1552C10.7848 21.0941 10.5703 21.0023 10.1988 20.84C7.6199 19.7135 3.75 17.1665 3.75 11.9914V10.4167C3.75 8.80833 3.75028 7.63411 3.79608 6.79292C3.81894 6.37301 3.85204 6.06169 3.89571 5.83506C3.91729 5.72309 3.93944 5.64265 3.95943 5.58654C3.97693 5.5374 3.98936 5.51663 3.99129 5.51349C3.99336 5.51095 4.0078 5.49351 4.04567 5.46273C4.09034 5.42642 4.15722 5.3799 4.25429 5.32353C4.4509 5.20935 4.731 5.07774 5.11759 4.92069C5.8921 4.60605 6.99521 4.22814 8.5078 3.71037L9.08062 3.5143Z" fill="black"/>
</svg>
