<svg width="24" height="24" viewBox="0 0 24 24" fill="none" xmlns="http://www.w3.org/2000/svg">
<path fill-rule="evenodd" clip-rule="evenodd" d="M12 2.75C11.3423 2.75 10.6951 2.96164 9.08062 3.5143L8.5078 3.71037C6.99521 4.22814 5.8921 4.60605 5.11759 4.92069C4.731 5.07774 4.4509 5.20935 4.25429 5.32353C4.15722 5.3799 4.09034 5.42642 4.04567 5.46273C4.0078 5.49351 3.99336 5.51095 3.99129 5.51349C3.98936 5.51663 3.97693 5.5374 3.95943 5.58654C3.93944 5.64265 3.91729 5.72309 3.89571 5.83506C3.85204 6.06169 3.81894 6.37301 3.79608 6.79292C3.75028 7.63411 3.75 8.80833 3.75 10.4167V11.9914C3.75 17.1665 7.6199 19.7135 10.1988 20.84C10.5703 21.0023 10.7848 21.0941 11.0236 21.1552C11.2517 21.2136 11.53 21.25 12 21.25C12.47 21.25 12.7483 21.2136 12.9764 21.1552C13.2152 21.0941 13.4297 21.0023 13.8012 20.84C16.3801 19.7135 20.25 17.1665 20.25 11.9914V10.4167C20.25 8.80833 20.2497 7.63411 20.2039 6.79292C20.1811 6.37301 20.148 6.06169 20.1043 5.83506C20.0827 5.72309 20.0606 5.64265 20.0406 5.58654C20.0231 5.53737 20.0106 5.5166 20.0087 5.51348C20.0066 5.51092 19.9922 5.49349 19.9543 5.46273C19.9097 5.42642 19.8428 5.3799 19.7457 5.32353C19.5491 5.20935 19.269 5.07774 18.8824 4.92069C18.1079 4.60605 17.0048 4.22814 15.4922 3.71037L14.9194 3.5143C13.3049 2.96164 12.6577 2.75 12 2.75ZM8.72339 2.05112C10.1673 1.55658 11.0625 1.25 12 1.25C12.9375 1.25 13.8327 1.55658 15.2766 2.05112C15.319 2.06563 15.3618 2.0803 15.4052 2.09514L16.004 2.30013C17.4854 2.8072 18.6286 3.19852 19.447 3.53099C19.8592 3.69846 20.2136 3.86067 20.499 4.02641C20.7737 4.1859 21.0492 4.38484 21.2364 4.65154C21.4214 4.91516 21.5171 5.23924 21.5772 5.55122C21.6397 5.87556 21.6774 6.26464 21.7017 6.71136C21.75 7.5984 21.75 8.81361 21.75 10.3898V11.9914C21.75 18.0924 17.142 21.0175 14.4017 22.2146L14.3746 22.2264C14.0348 22.3749 13.7154 22.5144 13.3484 22.6084C12.9609 22.7076 12.5493 22.75 12 22.75C11.4507 22.75 11.0391 22.7076 10.6516 22.6084C10.2846 22.5144 9.96523 22.3749 9.62543 22.2264L9.59833 22.2146C6.85803 21.0175 2.25 18.0924 2.25 11.9914V10.3899C2.25 8.81365 2.25 7.59841 2.2983 6.71136C2.32262 6.26464 2.36031 5.87556 2.42281 5.55122C2.48293 5.23924 2.5786 4.91516 2.76363 4.65154C2.95082 4.38484 3.22634 4.1859 3.50098 4.02641C3.78637 3.86067 4.14078 3.69846 4.55303 3.53099C5.37141 3.19852 6.51463 2.8072 7.99596 2.30013L8.59483 2.09514C8.63817 2.0803 8.68101 2.06563 8.72339 2.05112ZM12 7.90049C11.8811 8.07699 11.7345 8.33717 11.5164 8.72853L11.3853 8.96367C11.3755 8.98113 11.3655 8.99937 11.3551 9.01826C11.2465 9.21556 11.099 9.48358 10.8555 9.66849C10.6074 9.85681 10.3082 9.92266 10.0944 9.96974C10.0741 9.97421 10.0545 9.97851 10.0359 9.98273L9.78133 10.0403C9.31615 10.1456 9.02625 10.2129 8.83146 10.281C8.9519 10.462 9.15408 10.701 9.48204 11.0845L9.65557 11.2874C9.66833 11.3024 9.68164 11.3178 9.69537 11.3337C9.84312 11.5047 10.0397 11.7322 10.1305 12.0244C10.2204 12.3135 10.19 12.6126 10.1667 12.8412C10.1645 12.8626 10.1624 12.8833 10.1605 12.9034L10.1343 13.1741C10.0874 13.6577 10.0585 13.9706 10.0593 14.1919C10.2516 14.1238 10.5148 14.0042 10.9166 13.8192L11.1549 13.7095C11.1725 13.7014 11.1908 13.6928 11.21 13.6839C11.4078 13.5913 11.6885 13.4599 12 13.4599C12.3115 13.4599 12.5922 13.5913 12.79 13.6839C12.8092 13.6928 12.8275 13.7014 12.8451 13.7095L13.0834 13.8192C13.4852 14.0042 13.7484 14.1238 13.9407 14.1919C13.9415 13.9706 13.9126 13.6577 13.8657 13.1741L13.8395 12.9034C13.8376 12.8833 13.8355 12.8626 13.8333 12.8412C13.81 12.6126 13.7796 12.3135 13.8695 12.0244C13.9603 11.7322 14.1569 11.5047 14.3046 11.3337C14.3184 11.3178 14.3317 11.3024 14.3444 11.2874L14.518 11.0845C14.8459 10.701 15.0481 10.462 15.1685 10.281C14.9737 10.2129 14.6838 10.1456 14.2187 10.0403L13.9641 9.98273C13.9455 9.97851 13.9259 9.97421 13.9056 9.96974C13.6918 9.92266 13.3926 9.85681 13.1445 9.66849C12.901 9.48359 12.7535 9.21557 12.6449 9.01827C12.6345 8.99937 12.6245 8.98113 12.6147 8.96367L12.4836 8.72853C12.2655 8.33717 12.1189 8.07699 12 7.90049ZM14.1529 14.2502C14.1541 14.2502 14.1546 14.2503 14.1547 14.2503ZM9.84533 14.2503C9.84534 14.2503 9.84594 14.2502 9.84707 14.2502ZM10.8831 6.88484C11.0988 6.60321 11.451 6.25 12 6.25C12.549 6.25 12.9012 6.60321 13.1169 6.88484C13.3245 7.15603 13.5371 7.53751 13.7683 7.95239C13.7768 7.9676 13.7853 7.98287 13.7938 7.99817L13.9249 8.23332C13.9617 8.29933 13.9902 8.35037 14.0155 8.39411C14.0324 8.42352 14.0458 8.44573 14.0565 8.46286C14.0733 8.46751 14.0946 8.47303 14.1219 8.47967C14.1689 8.49111 14.2235 8.50351 14.2952 8.51971L14.5497 8.5773C14.5671 8.58123 14.5844 8.58514 14.6016 8.58905C15.0485 8.69009 15.4657 8.78439 15.7807 8.90852C16.1219 9.04302 16.5343 9.28543 16.6932 9.79638C16.8496 10.2992 16.6571 10.7332 16.4626 11.0421C16.2799 11.3323 15.9979 11.662 15.6916 12.0201C15.6804 12.0332 15.6692 12.0463 15.658 12.0594L15.4844 12.2623C15.4357 12.3193 15.3981 12.3633 15.3662 12.4018C15.3401 12.4334 15.322 12.4562 15.309 12.4734C15.3107 12.5291 15.3179 12.6075 15.3325 12.7587L15.3637 13.0803C15.4102 13.5596 15.4526 13.997 15.4373 14.3415C15.4213 14.6994 15.3369 15.1785 14.9114 15.5015C14.4737 15.8337 13.9847 15.7689 13.6378 15.6695C13.3132 15.5765 12.9231 15.3969 12.5049 15.2042C12.4886 15.1967 12.4724 15.1892 12.4561 15.1817L12.2177 15.072C12.1507 15.0411 12.0994 15.0175 12.0548 14.9979C12.0329 14.9882 12.0149 14.9805 12 14.9744C11.9851 14.9805 11.9671 14.9882 11.9452 14.9979C11.9006 15.0175 11.8493 15.0411 11.7823 15.072L11.5439 15.1817C11.5276 15.1892 11.5114 15.1967 11.4951 15.2042C11.0769 15.3969 10.6868 15.5765 10.3622 15.6695C10.0153 15.7689 9.52629 15.8337 9.08858 15.5015C8.66311 15.1785 8.57866 14.6994 8.56272 14.3415C8.54737 13.997 8.58982 13.5596 8.63631 13.0804C8.63796 13.0634 8.6396 13.0465 8.64125 13.0294L8.66749 12.7587C8.68214 12.6075 8.68928 12.5291 8.69097 12.4734C8.67803 12.4562 8.65995 12.4334 8.63378 12.4018C8.60187 12.3633 8.56431 12.3193 8.51557 12.2623L8.34204 12.0594C8.33081 12.0463 8.3196 12.0332 8.30843 12.0201C8.00207 11.662 7.72006 11.3323 7.53738 11.0421C7.34293 10.7332 7.15045 10.2992 7.3068 9.79638C7.46569 9.28543 7.87805 9.04302 8.21935 8.90852C8.53433 8.78439 8.95146 8.69009 9.39836 8.58905C9.41563 8.58514 9.43295 8.58123 9.4503 8.5773L9.70484 8.51971C9.77645 8.50351 9.83113 8.49112 9.87814 8.47967C9.90542 8.47303 9.92669 8.46751 9.94352 8.46287C9.95424 8.44573 9.96756 8.42352 9.98455 8.39411C10.0098 8.35037 10.0383 8.29934 10.0751 8.23332L10.2062 7.99817C10.2147 7.98287 10.2232 7.96761 10.2317 7.95239C10.4629 7.53751 10.6755 7.15603 10.8831 6.88484Z" fill="black"/>
</svg>
