<svg width="24" height="24" viewBox="0 0 24 24" fill="none" xmlns="http://www.w3.org/2000/svg">
<path d="M12.75 2C12.75 1.58579 12.4142 1.25 12 1.25C11.5858 1.25 11.25 1.58579 11.25 2V5C11.25 5.41421 11.5858 5.75 12 5.75C12.4142 5.75 12.75 5.41421 12.75 5V2Z" fill="black"/>
<path d="M15 10.0649C14.5858 10.0649 14.25 10.4007 14.25 10.8149C14.25 11.2292 14.5858 11.5649 15 11.5649C15.842 11.5649 16.4637 12.2034 16.4356 12.9727C16.4205 13.3866 16.7438 13.7344 17.1577 13.7495C17.5717 13.7646 17.9195 13.4413 17.9346 13.0274C17.9963 11.3367 16.618 10.0649 15 10.0649Z" fill="black"/>
<path fill-rule="evenodd" clip-rule="evenodd" d="M11.9664 7.25C10.5947 7.25 9.51929 7.24999 8.65494 7.32061C7.77479 7.39252 7.04768 7.54138 6.38955 7.87671C5.30762 8.42798 4.42798 9.30762 3.87671 10.3896C3.54138 11.0477 3.39252 11.7748 3.32061 12.6549C3.24999 13.5193 3.25 14.5947 3.25 15.9664L3.25 21.25H2C1.58579 21.25 1.25 21.5858 1.25 22C1.25 22.4142 1.58579 22.75 2 22.75H22C22.4142 22.75 22.75 22.4142 22.75 22C22.75 21.5858 22.4142 21.25 22 21.25H20.75V15.9664C20.75 14.5949 20.75 13.5192 20.6794 12.6549C20.6075 11.7748 20.4586 11.0477 20.1233 10.3896C19.572 9.30762 18.6924 8.42798 17.6104 7.87671C16.9523 7.54138 16.2252 7.39252 15.3451 7.32061C14.4807 7.24999 13.4053 7.25 12.0336 7.25H11.9664ZM12.75 21.25H19.25V16C19.25 14.5875 19.2494 13.5732 19.1844 12.7771C19.12 11.9897 18.9964 11.482 18.7868 11.0705C18.3793 10.2709 17.7291 9.62068 16.9295 9.21322C16.518 9.00359 16.0103 8.87996 15.2229 8.81563C14.4268 8.75058 13.4125 8.75 12 8.75C10.5875 8.75 9.57322 8.75058 8.77708 8.81563C7.9897 8.87996 7.48197 9.00359 7.07054 9.21322C6.27085 9.62068 5.62068 10.2709 5.21322 11.0705C5.00359 11.482 4.87996 11.9897 4.81563 12.7771C4.75058 13.5732 4.75 14.5875 4.75 16V21.25H11.25V19.622C10.3761 19.3131 9.75 18.4797 9.75 17.5C9.75 16.2574 10.7574 15.25 12 15.25C13.2426 15.25 14.25 16.2574 14.25 17.5C14.25 18.4797 13.6239 19.3131 12.75 19.622V21.25ZM12 18.25C12.4142 18.25 12.75 17.9142 12.75 17.5C12.75 17.0858 12.4142 16.75 12 16.75C11.5858 16.75 11.25 17.0858 11.25 17.5C11.25 17.9142 11.5858 18.25 12 18.25Z" fill="black"/>
<path d="M21.5303 5.53033L20.0303 7.03033C19.7374 7.32322 19.2626 7.32322 18.9697 7.03033C18.6768 6.73744 18.6768 6.26256 18.9697 5.96967L20.4697 4.46967C20.7626 4.17678 21.2374 4.17678 21.5303 4.46967C21.8232 4.76256 21.8232 5.23744 21.5303 5.53033Z" fill="black"/>
<path d="M3.53033 4.46967C3.23744 4.17678 2.76256 4.17678 2.46967 4.46967C2.17678 4.76256 2.17678 5.23744 2.46967 5.53033L3.96967 7.03033C4.26256 7.32322 4.73744 7.32322 5.03033 7.03033C5.32322 6.73744 5.32322 6.26256 5.03033 5.96967L3.53033 4.46967Z" fill="black"/>
</svg>
