<svg width="24" height="24" viewBox="0 0 24 24" fill="none" xmlns="http://www.w3.org/2000/svg">
<path opacity="0.5" d="M2 12C2 7.28595 2 4.92893 3.46447 3.46447C4.92893 2 7.28595 2 12 2C16.714 2 19.0711 2 20.5355 3.46447C22 4.92893 22 7.28595 22 12C22 16.714 22 19.0711 20.5355 20.5355C19.0711 22 16.714 22 12 22C7.28595 22 4.92893 22 3.46447 20.5355C2 19.0711 2 16.714 2 12Z" stroke="black" stroke-width="1.5"/>
<path d="M14 8V7.25C13.5858 7.25 13.25 7.58579 13.25 8H14ZM13.25 16C13.25 16.4142 13.5858 16.75 14 16.75C14.4142 16.75 14.75 16.4142 14.75 16H13.25ZM8.5 8L9.21586 7.77629C9.11801 7.46319 8.82804 7.25 8.5 7.25C8.17196 7.25 7.88199 7.46319 7.78414 7.77629L8.5 8ZM6.875 13.2L6.15914 12.9763L6.875 13.2ZM5.28414 15.7763C5.16059 16.1717 5.38094 16.5923 5.77629 16.7159C6.17165 16.8394 6.59231 16.6191 6.71586 16.2237L5.28414 15.7763ZM10.2841 16.2237C10.4077 16.6191 10.8283 16.8394 11.2237 16.7159C11.6191 16.5923 11.8394 16.1717 11.7159 15.7763L10.2841 16.2237ZM14 12H13.25V12.75H14V12ZM17.364 16.3975C17.5835 16.7488 18.0462 16.8555 18.3975 16.636C18.7488 16.4165 18.8555 15.9538 18.636 15.6025L17.364 16.3975ZM7.78414 7.77629L6.15914 12.9763L7.59086 13.4237L9.21586 8.22371L7.78414 7.77629ZM6.15914 12.9763L5.28414 15.7763L6.71586 16.2237L7.59086 13.4237L6.15914 12.9763ZM7.78414 8.22371L9.40914 13.4237L10.8409 12.9763L9.21586 7.77629L7.78414 8.22371ZM9.40914 13.4237L10.2841 16.2237L11.7159 15.7763L10.8409 12.9763L9.40914 13.4237ZM6.875 13.95H10.125V12.45H6.875V13.95ZM14 8.75H16V7.25H14V8.75ZM14.75 12V8H13.25V12H14.75ZM17.25 10C17.25 10.6904 16.6904 11.25 16 11.25V12.75C17.5188 12.75 18.75 11.5188 18.75 10H17.25ZM16 8.75C16.6904 8.75 17.25 9.30964 17.25 10H18.75C18.75 8.48122 17.5188 7.25 16 7.25V8.75ZM13.25 8V16H14.75V8H13.25ZM16 11.25H15.5V12.75H16V11.25ZM15.5 11.25H14V12.75H15.5V11.25ZM14.864 12.3975L17.364 16.3975L18.636 15.6025L16.136 11.6025L14.864 12.3975Z" fill="black"/>
</svg>
