<svg width="24" height="24" viewBox="0 0 24 24" fill="none" xmlns="http://www.w3.org/2000/svg">
<path d="M19.0993 10.6602C20.2113 11.9744 19.98 13.5815 19.9801 15C19.9801 18.9062 14.7132 20 12 20C9.28677 20 4.01994 18.9062 4.01994 15C4.01995 13.5815 3.78875 11.9744 4.90066 10.6602M19.0993 10.6602C18.9048 10.4303 18.6692 10.2094 18.384 10M19.0993 10.6602C19.7993 11.0634 19.9781 9.55469 19.9801 9.0625V7.18761C19.9801 5.56261 18.8629 5.00011 17.9053 5.00011C16.9477 5.00011 15.0324 6.5625 14.394 6.5625C13.6279 6.5625 13.4804 6.40636 12 6.40636C10.5197 6.40636 10.3721 6.5625 9.60601 6.5625C8.9676 6.5625 7.05236 5 6.09476 5C5.13715 5 4.01995 5.5625 4.01995 7.1875V9.0625C4.02188 9.55469 4.20072 11.0634 4.90066 10.6602M4.90066 10.6602C5.09519 10.4303 5.33082 10.2094 5.61599 10" stroke="black" stroke-width="1.5" stroke-linecap="round"/>
<path opacity="0.5" d="M12.8259 15.9999C12.8259 16.1725 12.4649 16.3124 12.0195 16.3124C11.5741 16.3124 11.213 16.1725 11.213 15.9999C11.213 15.8273 11.5741 15.6874 12.0195 15.6874C12.4649 15.6874 12.8259 15.8273 12.8259 15.9999Z" stroke="black" stroke-width="1.5"/>
<path opacity="0.5" d="M15.5 13.5938C15.5 14.0252 15.2834 14.375 15.0161 14.375C14.7489 14.375 14.5323 14.0252 14.5323 13.5938C14.5323 13.1623 14.7489 12.8125 15.0161 12.8125C15.2834 12.8125 15.5 13.1623 15.5 13.5938Z" stroke="black" stroke-width="1.5"/>
<path opacity="0.5" d="M9.50012 13.5938C9.50012 14.0252 9.28349 14.375 9.01625 14.375C8.74901 14.375 8.53238 14.0252 8.53238 13.5938C8.53238 13.1623 8.74901 12.8125 9.01625 12.8125C9.28349 12.8125 9.50012 13.1623 9.50012 13.5938Z" stroke="black" stroke-width="1.5"/>
<path opacity="0.5" d="M22.0004 15.4688C21.5165 15.1562 19.4197 14.375 18.6133 14.375" stroke="black" stroke-width="1.5" stroke-linecap="round"/>
<path opacity="0.5" d="M20.3871 17.9688C19.9033 17.6562 18.7742 16.875 17.9678 16.875" stroke="black" stroke-width="1.5" stroke-linecap="round"/>
<path opacity="0.5" d="M2 15.4688C2.48387 15.1562 4.58065 14.375 5.3871 14.375" stroke="black" stroke-width="1.5" stroke-linecap="round"/>
<path opacity="0.5" d="M3.61279 17.9688C4.09667 17.6562 5.2257 16.875 6.03215 16.875" stroke="black" stroke-width="1.5" stroke-linecap="round"/>
</svg>
