<svg width="24" height="24" viewBox="0 0 24 24" fill="none" xmlns="http://www.w3.org/2000/svg">
<path opacity="0.5" d="M14 22.0002C17.7712 22.0002 19.6568 22.0002 20.8284 20.7883C22 19.5765 22 17.626 22 13.7251V12.2041C22 9.91567 22 8.77146 21.4808 7.82292C20.9616 6.87439 20.013 6.2857 18.116 5.10831L16.116 3.86705C14.1106 2.62247 13.1079 2.00018 12 2.00018C10.8921 2.00018 9.88938 2.62247 7.88402 3.86705L5.88402 5.10831C3.98694 6.2857 3.03839 6.87439 2.51919 7.82292C2.20161 8.40311 2.07829 9.05651 2.0304 10.0002" stroke="black" stroke-width="1.5" stroke-linecap="round"/>
<path d="M11 22C11 17.0294 6.97056 13 2 13" stroke="black" stroke-width="1.5" stroke-linecap="round"/>
<path d="M8 22C8 18.6863 5.31371 16 2 16" stroke="black" stroke-width="1.5" stroke-linecap="round"/>
<path d="M5 22C5 20.3431 3.65685 19 2 19" stroke="black" stroke-width="1.5" stroke-linecap="round"/>
</svg>
