<svg width="24" height="24" viewBox="0 0 24 24" fill="none" xmlns="http://www.w3.org/2000/svg">
<path opacity="0.5" d="M2 12C2 7.28595 2 4.92893 3.46447 3.46447C4.92893 2 7.28595 2 12 2C16.714 2 19.0711 2 20.5355 3.46447C22 4.92893 22 7.28595 22 12C22 16.714 22 19.0711 20.5355 20.5355C19.0711 22 16.714 22 12 22C7.28595 22 4.92893 22 3.46447 20.5355C2 19.0711 2 16.714 2 12Z" stroke="black" stroke-width="1.5"/>
<path d="M15.9775 8.71452L15.5355 8.2621C13.5829 6.26318 10.4171 6.26318 8.46447 8.2621C6.51184 10.261 6.51184 13.5019 8.46447 15.5008C10.4171 17.4997 13.5829 17.4997 15.5355 15.5008C16.671 14.3384 17.1462 12.7559 16.9611 11.242M15.9775 8.71452H13.3258M15.9775 8.71452V6" stroke="black" stroke-width="1.5" stroke-linecap="round" stroke-linejoin="round"/>
</svg>
