<svg width="24" height="24" viewBox="0 0 24 24" fill="none" xmlns="http://www.w3.org/2000/svg">
<path d="M16.9585 9.75C16.5443 9.75 16.2085 9.41421 16.2085 9L16.2085 2C16.2085 1.58579 16.5443 1.25 16.9585 1.25C17.3727 1.25 17.7085 1.58579 17.7085 2L17.7085 9C17.7085 9.41421 17.3727 9.75 16.9585 9.75Z" fill="black"/>
<path fill-rule="evenodd" clip-rule="evenodd" d="M7 5.75C9.07107 5.75 10.75 7.42893 10.75 9.5C10.75 11.5711 9.07107 13.25 7 13.25C4.92893 13.25 3.25 11.5711 3.25 9.5C3.25 7.42893 4.92893 5.75 7 5.75ZM9.25 9.5C9.25 8.25736 8.24264 7.25 7 7.25C5.75736 7.25 4.75 8.25736 4.75 9.5C4.75 10.7426 5.75736 11.75 7 11.75C8.24264 11.75 9.25 10.7426 9.25 9.5Z" fill="black"/>
<path fill-rule="evenodd" clip-rule="evenodd" d="M17 18.25C19.0711 18.25 20.75 16.5711 20.75 14.5C20.75 12.4289 19.0711 10.75 17 10.75C14.9289 10.75 13.25 12.4289 13.25 14.5C13.25 16.5711 14.9289 18.25 17 18.25ZM19.25 14.5C19.25 15.7426 18.2426 16.75 17 16.75C15.7574 16.75 14.75 15.7426 14.75 14.5C14.75 13.2574 15.7574 12.25 17 12.25C18.2426 12.25 19.25 13.2574 19.25 14.5Z" fill="black"/>
<path d="M6.20852 15C6.20852 14.5858 6.54431 14.25 6.95852 14.25C7.37273 14.25 7.70852 14.5858 7.70852 15V22C7.70852 22.4142 7.37273 22.75 6.95852 22.75C6.54431 22.75 6.20852 22.4142 6.20852 22V15Z" fill="black"/>
<path d="M16.9585 22.75C16.5443 22.75 16.2085 22.4142 16.2085 22V20C16.2085 19.5858 16.5443 19.25 16.9585 19.25C17.3727 19.25 17.7085 19.5858 17.7085 20V22C17.7085 22.4142 17.3727 22.75 16.9585 22.75Z" fill="black"/>
<path d="M6.20852 2C6.20852 1.58579 6.54431 1.25 6.95852 1.25C7.37273 1.25 7.70852 1.58579 7.70852 2V4C7.70852 4.41421 7.37273 4.75 6.95852 4.75C6.54431 4.75 6.20852 4.41421 6.20852 4V2Z" fill="black"/>
</svg>
