<svg width="24" height="24" viewBox="0 0 24 24" fill="none" xmlns="http://www.w3.org/2000/svg">
<path fill-rule="evenodd" clip-rule="evenodd" d="M7.25 16C7.25 14.4812 8.48122 13.25 10 13.25C11.5188 13.25 12.75 14.4812 12.75 16C12.75 17.5188 11.5188 18.75 10 18.75C8.48122 18.75 7.25 17.5188 7.25 16ZM10 14.75C9.30964 14.75 8.75 15.3096 8.75 16C8.75 16.6904 9.30964 17.25 10 17.25C10.6904 17.25 11.25 16.6904 11.25 16C11.25 15.3096 10.6904 14.75 10 14.75Z" fill="black"/>
<path fill-rule="evenodd" clip-rule="evenodd" d="M16.75 8C16.75 9.51878 15.5188 10.75 14 10.75C12.4812 10.75 11.25 9.51878 11.25 8C11.25 6.48122 12.4812 5.25 14 5.25C15.5188 5.25 16.75 6.48122 16.75 8ZM14 9.25C14.6904 9.25 15.25 8.69036 15.25 8C15.25 7.30964 14.6904 6.75 14 6.75C13.3096 6.75 12.75 7.30964 12.75 8C12.75 8.69036 13.3096 9.25 14 9.25Z" fill="black"/>
<path d="M13.25 16C13.25 15.5858 13.5858 15.25 14 15.25H19C19.4142 15.25 19.75 15.5858 19.75 16C19.75 16.4142 19.4142 16.75 19 16.75H14C13.5858 16.75 13.25 16.4142 13.25 16Z" fill="black"/>
<path d="M10 7.25C10.4142 7.25 10.75 7.58579 10.75 8C10.75 8.41421 10.4142 8.75 10 8.75H5C4.58579 8.75 4.25 8.41421 4.25 8C4.25 7.58579 4.58579 7.25 5 7.25H10Z" fill="black"/>
<path d="M4.25 16C4.25 15.5858 4.58579 15.25 5 15.25H6C6.41421 15.25 6.75 15.5858 6.75 16C6.75 16.4142 6.41421 16.75 6 16.75H5C4.58579 16.75 4.25 16.4142 4.25 16Z" fill="black"/>
<path d="M19 7.25C19.4142 7.25 19.75 7.58579 19.75 8C19.75 8.41421 19.4142 8.75 19 8.75H18C17.5858 8.75 17.25 8.41421 17.25 8C17.25 7.58579 17.5858 7.25 18 7.25H19Z" fill="black"/>
<path fill-rule="evenodd" clip-rule="evenodd" d="M11.9426 1.25H12.0574C14.3658 1.24999 16.1748 1.24998 17.5863 1.43975C19.031 1.63399 20.1711 2.03933 21.0659 2.93414C21.9607 3.82895 22.366 4.96897 22.5603 6.41371C22.75 7.82519 22.75 9.63423 22.75 11.9426V12.0574C22.75 14.3658 22.75 16.1748 22.5603 17.5863C22.366 19.031 21.9607 20.1711 21.0659 21.0659C20.1711 21.9607 19.031 22.366 17.5863 22.5603C16.1748 22.75 14.3658 22.75 12.0574 22.75H11.9426C9.63423 22.75 7.82519 22.75 6.41371 22.5603C4.96897 22.366 3.82895 21.9607 2.93414 21.0659C2.03933 20.1711 1.63399 19.031 1.43975 17.5863C1.24998 16.1748 1.24999 14.3658 1.25 12.0574V11.9426C1.24999 9.63423 1.24998 7.82519 1.43975 6.41371C1.63399 4.96897 2.03933 3.82895 2.93414 2.93414C3.82895 2.03933 4.96897 1.63399 6.41371 1.43975C7.82519 1.24998 9.63423 1.24999 11.9426 1.25ZM6.61358 2.92637C5.33517 3.09825 4.56445 3.42514 3.9948 3.9948C3.42514 4.56445 3.09825 5.33517 2.92637 6.61358C2.75159 7.91356 2.75 9.62178 2.75 12C2.75 14.3782 2.75159 16.0864 2.92637 17.3864C3.09825 18.6648 3.42514 19.4355 3.9948 20.0052C4.56445 20.5749 5.33517 20.9018 6.61358 21.0736C7.91356 21.2484 9.62178 21.25 12 21.25C14.3782 21.25 16.0864 21.2484 17.3864 21.0736C18.6648 20.9018 19.4355 20.5749 20.0052 20.0052C20.5749 19.4355 20.9018 18.6648 21.0736 17.3864C21.2484 16.0864 21.25 14.3782 21.25 12C21.25 9.62178 21.2484 7.91356 21.0736 6.61358C20.9018 5.33517 20.5749 4.56445 20.0052 3.9948C19.4355 3.42514 18.6648 3.09825 17.3864 2.92637C16.0864 2.75159 14.3782 2.75 12 2.75C9.62178 2.75 7.91356 2.75159 6.61358 2.92637Z" fill="black"/>
</svg>
