<svg width="24" height="24" viewBox="0 0 24 24" fill="none" xmlns="http://www.w3.org/2000/svg">
<path fill-rule="evenodd" clip-rule="evenodd" d="M5.948 1.75C5.04954 1.74997 4.3003 1.74995 3.70552 1.82991C3.07773 1.91432 2.51093 2.09999 2.05546 2.55546C1.59999 3.01093 1.41432 3.57773 1.32991 4.20552C1.24995 4.8003 1.24997 5.54951 1.25 6.44798V8.552C1.24997 9.45047 1.24995 10.1997 1.32991 10.7945C1.41432 11.4223 1.59999 11.9891 2.05546 12.4445C2.51093 12.9 3.07773 13.0857 3.70552 13.1701C4.3003 13.2501 5.04951 13.25 5.94798 13.25H6.052C6.95047 13.25 7.69971 13.2501 8.29448 13.1701C8.92228 13.0857 9.48908 12.9 9.94455 12.4445C10.4 11.9891 10.5857 11.4223 10.6701 10.7945C10.7501 10.1997 10.75 9.4505 10.75 8.55203V6.44801C10.75 5.54954 10.7501 4.8003 10.6701 4.20552C10.5857 3.57773 10.4 3.01093 9.94455 2.55546C9.48908 2.09999 8.92228 1.91432 8.29448 1.82991C7.69971 1.74995 6.9505 1.74997 6.05203 1.75H5.948ZM3.11612 3.61612C3.24644 3.4858 3.44393 3.37858 3.9054 3.31654C4.38843 3.2516 5.03599 3.25 6 3.25C6.96401 3.25 7.61157 3.2516 8.09461 3.31654C8.55607 3.37858 8.75357 3.4858 8.88389 3.61612C9.0142 3.74644 9.12143 3.94393 9.18347 4.4054C9.24841 4.88843 9.25 5.53599 9.25 6.5V8.5C9.25 9.46401 9.24841 10.1116 9.18347 10.5946C9.12143 11.0561 9.0142 11.2536 8.88389 11.3839C8.75357 11.5142 8.55607 11.6214 8.09461 11.6835C7.61157 11.7484 6.96401 11.75 6 11.75C5.03599 11.75 4.38843 11.7484 3.9054 11.6835C3.44393 11.6214 3.24644 11.5142 3.11612 11.3839C2.9858 11.2536 2.87858 11.0561 2.81654 10.5946C2.7516 10.1116 2.75 9.46401 2.75 8.5V6.5C2.75 5.53599 2.7516 4.88843 2.81654 4.4054C2.87858 3.94393 2.9858 3.74644 3.11612 3.61612Z" fill="black"/>
<path fill-rule="evenodd" clip-rule="evenodd" d="M17.448 10.75C16.5495 10.75 15.8003 10.7499 15.2055 10.8299C14.5777 10.9143 14.0109 11.1 13.5555 11.5555C13.1 12.0109 12.9143 12.5777 12.8299 13.2055C12.7499 13.8003 12.75 14.5495 12.75 15.448V17.552C12.75 18.4505 12.7499 19.1997 12.8299 19.7945C12.9143 20.4223 13.1 20.9891 13.5555 21.4445C14.0109 21.9 14.5777 22.0857 15.2055 22.1701C15.8003 22.2501 16.5495 22.25 17.4479 22.25H17.552C18.4504 22.25 19.1997 22.2501 19.7945 22.1701C20.4223 22.0857 20.9891 21.9 21.4445 21.4445C21.9 20.9891 22.0857 20.4223 22.1701 19.7945C22.2501 19.1997 22.25 18.4505 22.25 17.5521V15.448C22.25 14.5496 22.2501 13.8003 22.1701 13.2055C22.0857 12.5777 21.9 12.0109 21.4445 11.5555C20.9891 11.1 20.4223 10.9143 19.7945 10.8299C19.1997 10.7499 18.4505 10.75 17.552 10.75H17.448ZM14.6161 12.6161C14.7464 12.4858 14.9439 12.3786 15.4054 12.3165C15.8884 12.2516 16.536 12.25 17.5 12.25C18.464 12.25 19.1116 12.2516 19.5946 12.3165C20.0561 12.3786 20.2536 12.4858 20.3839 12.6161C20.5142 12.7464 20.6214 12.9439 20.6835 13.4054C20.7484 13.8884 20.75 14.536 20.75 15.5V17.5C20.75 18.464 20.7484 19.1116 20.6835 19.5946C20.6214 20.0561 20.5142 20.2536 20.3839 20.3839C20.2536 20.5142 20.0561 20.6214 19.5946 20.6835C19.1116 20.7484 18.464 20.75 17.5 20.75C16.536 20.75 15.8884 20.7484 15.4054 20.6835C14.9439 20.6214 14.7464 20.5142 14.6161 20.3839C14.4858 20.2536 14.3786 20.0561 14.3165 19.5946C14.2516 19.1116 14.25 18.464 14.25 17.5V15.5C14.25 14.536 14.2516 13.8884 14.3165 13.4054C14.3786 12.9439 14.4858 12.7464 14.6161 12.6161Z" fill="black"/>
<path fill-rule="evenodd" clip-rule="evenodd" d="M16.4748 1.75H18.5253C18.9697 1.75 19.3408 1.74999 19.6454 1.77077C19.9625 1.79241 20.262 1.83905 20.5524 1.95933C21.2262 2.23844 21.7616 2.7738 22.0407 3.44762C22.161 3.73801 22.2076 4.03754 22.2292 4.35464C22.25 4.65925 22.25 5.03029 22.25 5.47475V5.52526C22.25 5.96972 22.25 6.34076 22.2292 6.64537C22.2076 6.96247 22.161 7.26199 22.0407 7.55238C21.7616 8.22621 21.2262 8.76156 20.5524 9.04067C20.262 9.16095 19.9625 9.2076 19.6454 9.22923C19.3408 9.25002 18.9697 9.25001 18.5253 9.25H16.4747C16.0303 9.25001 15.6592 9.25002 15.3546 9.22923C15.0375 9.2076 14.738 9.16095 14.4476 9.04067C13.7738 8.76156 13.2384 8.22621 12.9593 7.55238C12.8391 7.26199 12.7924 6.96247 12.7708 6.64537C12.75 6.34075 12.75 5.96972 12.75 5.52525V5.47475C12.75 5.03029 12.75 4.65925 12.7708 4.35464C12.7924 4.03754 12.8391 3.73801 12.9593 3.44762C13.2384 2.7738 13.7738 2.23844 14.4476 1.95933C14.738 1.83905 15.0375 1.79241 15.3546 1.77077C15.6592 1.74999 16.0303 1.75 16.4748 1.75ZM15.4567 3.26729C15.216 3.28372 15.0988 3.3132 15.0216 3.34515C14.7154 3.47202 14.472 3.71536 14.3452 4.02165C14.3132 4.0988 14.2837 4.21602 14.2673 4.45675C14.2504 4.70421 14.25 5.0238 14.25 5.5C14.25 5.97621 14.2504 6.2958 14.2673 6.54326C14.2837 6.78399 14.3132 6.9012 14.3452 6.97836C14.472 7.28464 14.7154 7.52799 15.0216 7.65485C15.0988 7.68681 15.216 7.71629 15.4567 7.73271C15.7042 7.7496 16.0238 7.75 16.5 7.75H18.5C18.9762 7.75 19.2958 7.7496 19.5433 7.73271C19.784 7.71629 19.9012 7.68681 19.9784 7.65485C20.2846 7.52799 20.528 7.28464 20.6549 6.97836C20.6868 6.9012 20.7163 6.78399 20.7327 6.54326C20.7496 6.2958 20.75 5.97621 20.75 5.5C20.75 5.0238 20.7496 4.70421 20.7327 4.45674C20.7163 4.21602 20.6868 4.0988 20.6549 4.02165C20.528 3.71536 20.2846 3.47202 19.9784 3.34515C19.9012 3.3132 19.784 3.28372 19.5433 3.26729C19.2958 3.25041 18.9762 3.25 18.5 3.25H16.5C16.0238 3.25 15.7042 3.25041 15.4567 3.26729Z" fill="black"/>
<path fill-rule="evenodd" clip-rule="evenodd" d="M4.97475 14.75C4.53029 14.75 4.15925 14.75 3.85464 14.7708C3.53754 14.7924 3.23801 14.8391 2.94762 14.9593C2.2738 15.2384 1.73844 15.7738 1.45933 16.4476C1.33905 16.738 1.29241 17.0375 1.27077 17.3546C1.24999 17.6592 1.25 18.0302 1.25 18.4747V18.5253C1.25 18.9697 1.24999 19.3408 1.27077 19.6454C1.29241 19.9625 1.33905 20.262 1.45933 20.5524C1.73844 21.2262 2.2738 21.7616 2.94762 22.0407C3.23801 22.161 3.53754 22.2076 3.85464 22.2292C4.15925 22.25 4.53029 22.25 4.97475 22.25H7.02526C7.46972 22.25 7.84076 22.25 8.14537 22.2292C8.46247 22.2076 8.76199 22.161 9.05238 22.0407C9.72621 21.7616 10.2616 21.2262 10.5407 20.5524C10.661 20.262 10.7076 19.9625 10.7292 19.6454C10.75 19.3408 10.75 18.9697 10.75 18.5253V18.4747C10.75 18.0303 10.75 17.6592 10.7292 17.3546C10.7076 17.0375 10.661 16.738 10.5407 16.4476C10.2616 15.7738 9.72621 15.2384 9.05238 14.9593C8.76199 14.8391 8.46247 14.7924 8.14537 14.7708C7.84075 14.75 7.46972 14.75 7.02525 14.75H4.97475ZM3.52165 16.3452C3.5988 16.3132 3.71602 16.2837 3.95675 16.2673C4.20421 16.2504 4.5238 16.25 5 16.25H7C7.47621 16.25 7.7958 16.2504 8.04326 16.2673C8.28399 16.2837 8.4012 16.3132 8.47836 16.3452C8.78464 16.472 9.02799 16.7154 9.15485 17.0216C9.18681 17.0988 9.21629 17.216 9.23271 17.4567C9.2496 17.7042 9.25 18.0238 9.25 18.5C9.25 18.9762 9.2496 19.2958 9.23271 19.5433C9.21629 19.784 9.18681 19.9012 9.15485 19.9784C9.02799 20.2846 8.78464 20.528 8.47836 20.6549C8.4012 20.6868 8.28399 20.7163 8.04326 20.7327C7.7958 20.7496 7.47621 20.75 7 20.75H5C4.5238 20.75 4.20421 20.7496 3.95674 20.7327C3.71602 20.7163 3.5988 20.6868 3.52165 20.6549C3.21536 20.528 2.97202 20.2846 2.84515 19.9784C2.8132 19.9012 2.78372 19.784 2.76729 19.5433C2.75041 19.2958 2.75 18.9762 2.75 18.5C2.75 18.0238 2.75041 17.7042 2.76729 17.4567C2.78372 17.216 2.8132 17.0988 2.84515 17.0216C2.97202 16.7154 3.21536 16.472 3.52165 16.3452Z" fill="black"/>
</svg>
