<svg width="24" height="24" viewBox="0 0 24 24" fill="none" xmlns="http://www.w3.org/2000/svg">
<path fill-rule="evenodd" clip-rule="evenodd" d="M6.5 1.75C3.87665 1.75 1.75 3.87665 1.75 6.5C1.75 9.12335 3.87665 11.25 6.5 11.25C9.12335 11.25 11.25 9.12335 11.25 6.5C11.25 3.87665 9.12335 1.75 6.5 1.75ZM3.25 6.5C3.25 4.70507 4.70507 3.25 6.5 3.25C8.29493 3.25 9.75 4.70507 9.75 6.5C9.75 8.29493 8.29493 9.75 6.5 9.75C4.70507 9.75 3.25 8.29493 3.25 6.5Z" fill="black"/>
<path fill-rule="evenodd" clip-rule="evenodd" d="M17.5 12.75C14.8766 12.75 12.75 14.8766 12.75 17.5C12.75 20.1234 14.8766 22.25 17.5 22.25C20.1234 22.25 22.25 20.1234 22.25 17.5C22.25 14.8766 20.1234 12.75 17.5 12.75ZM14.25 17.5C14.25 15.7051 15.7051 14.25 17.5 14.25C19.2949 14.25 20.75 15.7051 20.75 17.5C20.75 19.2949 19.2949 20.75 17.5 20.75C15.7051 20.75 14.25 19.2949 14.25 17.5Z" fill="black"/>
<path fill-rule="evenodd" clip-rule="evenodd" d="M12.75 6.5C12.75 3.87665 14.8766 1.75 17.5 1.75C20.1234 1.75 22.25 3.87665 22.25 6.5C22.25 9.12335 20.1234 11.25 17.5 11.25C14.8766 11.25 12.75 9.12335 12.75 6.5ZM17.5 3.25C15.7051 3.25 14.25 4.70507 14.25 6.5C14.25 8.29493 15.7051 9.75 17.5 9.75C19.2949 9.75 20.75 8.29493 20.75 6.5C20.75 4.70507 19.2949 3.25 17.5 3.25Z" fill="black"/>
<path fill-rule="evenodd" clip-rule="evenodd" d="M6.5 12.75C3.87665 12.75 1.75 14.8766 1.75 17.5C1.75 20.1234 3.87665 22.25 6.5 22.25C9.12335 22.25 11.25 20.1234 11.25 17.5C11.25 14.8766 9.12335 12.75 6.5 12.75ZM3.25 17.5C3.25 15.7051 4.70507 14.25 6.5 14.25C8.29493 14.25 9.75 15.7051 9.75 17.5C9.75 19.2949 8.29493 20.75 6.5 20.75C4.70507 20.75 3.25 19.2949 3.25 17.5Z" fill="black"/>
</svg>
