<svg width="24" height="24" viewBox="0 0 24 24" fill="none" xmlns="http://www.w3.org/2000/svg">
<path opacity="0.5" d="M18.7491 9V9.7041C18.7491 10.5491 18.9903 11.3752 19.4422 12.0782L20.5496 13.8012C21.5612 15.3749 20.789 17.5139 19.0296 18.0116C14.4273 19.3134 9.57274 19.3134 4.97036 18.0116C3.21105 17.5139 2.43882 15.3749 3.45036 13.8012L4.5578 12.0782C5.00972 11.3752 5.25087 10.5491 5.25087 9.7041V9C5.25087 5.13401 8.27256 2 12 2C15.7274 2 18.7491 5.13401 18.7491 9Z" fill="black"/>
<path d="M7.24316 18.5449C7.8941 20.5501 9.77767 21.9997 11.9998 21.9997C14.222 21.9997 16.1055 20.5501 16.7565 18.5449C13.611 19.1352 10.3886 19.1352 7.24316 18.5449Z" fill="black"/>
<path d="M9.34865 9C9.34865 9.41421 9.67241 9.75 10.0718 9.75H12.1827L9.56045 12.4697C9.35364 12.6842 9.29177 13.0068 9.4037 13.287C9.51562 13.5673 9.7793 13.75 10.0718 13.75H13.9284C14.3278 13.75 14.6515 13.4142 14.6515 13C14.6515 12.5858 14.3278 12.25 13.9284 12.25H11.8175L14.4397 9.53033C14.6466 9.31583 14.7084 8.99324 14.5965 8.71299C14.4846 8.43273 14.2209 8.25 13.9284 8.25H10.0718C9.67241 8.25 9.34865 8.58579 9.34865 9Z" fill="black"/>
</svg>
