<svg width="24" height="24" viewBox="0 0 24 24" fill="none" xmlns="http://www.w3.org/2000/svg">
<path opacity="0.5" d="M22 12C22 16.714 22 19.0711 20.5355 20.5355C19.0711 22 16.714 22 12 22C7.28595 22 4.92893 22 3.46447 20.5355C2 19.0711 2 16.714 2 12C2 7.28595 2 4.92893 3.46447 3.46447C4.92893 2 7.28595 2 12 2C16.714 2 19.0711 2 20.5355 3.46447C22 4.92893 22 7.28595 22 12Z" fill="black"/>
<path d="M22 5C22 6.65685 20.6569 8 19 8C17.3431 8 16 6.65685 16 5C16 3.34315 17.3431 2 19 2C20.6569 2 22 3.34315 22 5Z" fill="black"/>
</svg>
