<svg width="24" height="24" viewBox="0 0 24 24" fill="none" xmlns="http://www.w3.org/2000/svg">
<path opacity="0.5" d="M2 12L5 12M22 12L19 12M14 12L10 12" stroke="black" stroke-width="1.5" stroke-linecap="round"/>
<path d="M7.5 5C6.56538 5 6.09808 5 5.75 5.20096C5.52197 5.33261 5.33261 5.52197 5.20096 5.75C5 6.09808 5 6.56538 5 7.5L5 16.5C5 17.4346 5 17.9019 5.20096 18.25C5.33261 18.478 5.52197 18.6674 5.75 18.799C6.09808 19 6.56538 19 7.5 19C8.43462 19 8.90192 19 9.25 18.799C9.47803 18.6674 9.66739 18.478 9.79904 18.25C10 17.9019 10 17.4346 10 16.5L10 7.5C10 6.56538 10 6.09808 9.79904 5.75C9.66739 5.52197 9.47803 5.33261 9.25 5.20096C8.90192 5 8.43462 5 7.5 5Z" stroke="black" stroke-width="1.5"/>
<path d="M16.5 7C15.5654 7 15.0981 7 14.75 7.20096C14.522 7.33261 14.3326 7.52197 14.201 7.75C14 8.09808 14 8.56538 14 9.5L14 14.5C14 15.4346 14 15.9019 14.201 16.25C14.3326 16.478 14.522 16.6674 14.75 16.799C15.0981 17 15.5654 17 16.5 17C17.4346 17 17.9019 17 18.25 16.799C18.478 16.6674 18.6674 16.478 18.799 16.25C19 15.9019 19 15.4346 19 14.5V9.5C19 8.56538 19 8.09808 18.799 7.75C18.6674 7.52197 18.478 7.33261 18.25 7.20096C17.9019 7 17.4346 7 16.5 7Z" stroke="black" stroke-width="1.5"/>
</svg>
