<svg width="24" height="24" viewBox="0 0 24 24" fill="none" xmlns="http://www.w3.org/2000/svg">
<path d="M19.3517 7.61665L15.3929 4.05375C14.2651 3.03868 13.7012 2.53114 13.0092 2.26562L13 5.00011C13 7.35713 13 8.53564 13.7322 9.26787C14.4645 10.0001 15.643 10.0001 18 10.0001H21.5801C21.2175 9.29588 20.5684 8.71164 19.3517 7.61665Z" fill="black"/>
<path fill-rule="evenodd" clip-rule="evenodd" d="M14 22H10C6.22876 22 4.34315 22 3.17157 20.8284C2 19.6569 2 17.7712 2 14V10C2 6.22876 2 4.34315 3.17157 3.17157C4.34315 2 6.23869 2 10.0298 2C10.6358 2 11.1214 2 11.53 2.01666C11.5166 2.09659 11.5095 2.17813 11.5092 2.26057L11.5 5.09497C11.4999 6.19207 11.4998 7.16164 11.6049 7.94316C11.7188 8.79028 11.9803 9.63726 12.6716 10.3285C13.3628 11.0198 14.2098 11.2813 15.0569 11.3952C15.8385 11.5003 16.808 11.5002 17.9051 11.5001L18 11.5001H21.9574C22 12.0344 22 12.6901 22 13.5629V14C22 17.7712 22 19.6569 20.8284 20.8284C19.6569 22 17.7712 22 14 22ZM10.4983 14.4394C10.8079 14.7146 10.8357 15.1887 10.5606 15.4983L7.89389 18.4983C7.75157 18.6584 7.54756 18.75 7.33333 18.75C7.11911 18.75 6.9151 18.6584 6.77278 18.4983L5.43944 16.9983C5.16425 16.6887 5.19214 16.2146 5.50173 15.9394C5.81131 15.6643 6.28537 15.6921 6.56056 16.0017L7.33333 16.8711L9.43944 14.5017C9.71463 14.1921 10.1887 14.1643 10.4983 14.4394Z" fill="black"/>
</svg>
