<svg width="24" height="24" viewBox="0 0 24 24" fill="none" xmlns="http://www.w3.org/2000/svg">
<path d="M13.5 7.64214L9.07107 3.2132C7.45346 1.5956 4.83081 1.5956 3.2132 3.2132C1.5956 4.83081 1.5956 7.45346 3.2132 9.07107L14.9289 20.7868C16.5465 22.4044 19.1692 22.4044 20.7868 20.7868C22.4044 19.1692 22.4044 16.5465 20.7868 14.9289L16.4289 10.5711" stroke="black" stroke-width="1.5" stroke-linecap="round"/>
<path d="M12 17.8579L9.07102 20.7868C7.45342 22.4044 4.83076 22.4044 3.21316 20.7868C2.97114 20.5448 2.76534 20.2803 2.59574 20M6.14209 12L3.21316 14.9289C2.89075 15.2513 2.63261 15.6137 2.43872 16M12 6.14214L14.9289 3.2132C16.5465 1.5956 19.1691 1.5956 20.7867 3.2132C22.4044 4.83081 22.4044 7.45346 20.7867 9.07107L17.8578 12" stroke="black" stroke-width="1.5" stroke-linecap="round"/>
<path d="M15.8414 12.8714C16.1489 13.179 16.1489 13.6776 15.8414 13.9852C15.5338 14.2927 15.0352 14.2927 14.7277 13.9852C14.4201 13.6776 14.4201 13.179 14.7277 12.8714C15.0352 12.5639 15.5338 12.5639 15.8414 12.8714Z" fill="black"/>
<path d="M12.1289 9.15895C11.8214 8.8514 11.3227 8.8514 11.0152 9.15895C10.7076 9.4665 10.7076 9.96514 11.0152 10.2727C11.3227 10.5802 11.8214 10.5802 12.1289 10.2727C12.4365 9.96514 12.4365 9.4665 12.1289 9.15895Z" fill="black"/>
<path d="M16.7695 15.6558C17.0771 15.9633 17.0771 16.462 16.7695 16.7695C16.462 17.0771 15.9633 17.0771 15.6558 16.7695C15.3482 16.462 15.3482 15.9633 15.6558 15.6558C15.9633 15.3482 16.462 15.3482 16.7695 15.6558Z" fill="black"/>
<path d="M9.34458 8.23084C9.03703 7.92329 8.53839 7.92329 8.23084 8.23084C7.92329 8.53839 7.92329 9.03703 8.23084 9.34458C8.53839 9.65213 9.03703 9.65213 9.34458 9.34458C9.65213 9.03703 9.65213 8.53839 9.34458 8.23084Z" fill="black"/>
<path d="M13.057 11.9433C13.3646 12.2509 13.3646 12.7495 13.057 13.057C12.7495 13.3646 12.2509 13.3646 11.9433 13.057C11.6358 12.7495 11.6358 12.2509 11.9433 11.9433C12.2509 11.6358 12.7495 11.6358 13.057 11.9433Z" fill="black"/>
<path d="M13.9852 14.7277C14.2927 15.0352 14.2927 15.5338 13.9852 15.8414C13.6776 16.1489 13.179 16.1489 12.8714 15.8414C12.5639 15.5338 12.5639 15.0352 12.8714 14.7277C13.179 14.4201 13.6776 14.4201 13.9852 14.7277Z" fill="black"/>
<path d="M10.2727 11.0152C9.96514 10.7076 9.4665 10.7076 9.15895 11.0152C8.8514 11.3227 8.8514 11.8214 9.15895 12.1289C9.4665 12.4365 9.96514 12.4365 10.2727 12.1289C10.5802 11.8214 10.5802 11.3227 10.2727 11.0152Z" fill="black"/>
</svg>
