<svg width="24" height="24" viewBox="0 0 24 24" fill="none" xmlns="http://www.w3.org/2000/svg">
<path d="M21 12H18.6361C17.9781 12 17.6491 12 17.3578 12.1297C17.0665 12.2595 16.8463 12.5041 16.4059 12.9934L15.3767 14.137C15.0154 14.5384 14.8348 14.739 14.6057 14.7341C14.3766 14.7292 14.2049 14.5211 13.8616 14.1049L10.3334 9.82832C10.0133 9.44029 9.85321 9.24628 9.63599 9.23323C9.41877 9.22018 9.23663 9.39364 8.87237 9.74056L7.36897 11.1724C6.93986 11.581 6.7253 11.7854 6.45709 11.8927C6.18887 12 5.89258 12 5.3 12H3" stroke="black" stroke-width="1.5" stroke-linecap="round"/>
<path d="M8.96173 18.9108L9.42605 18.3219L8.96173 18.9108ZM12 5.5006L11.4596 6.0207C11.601 6.1676 11.7961 6.2506 12 6.2506C12.2039 6.2506 12.399 6.1676 12.5404 6.0207L12 5.5006ZM15.0383 18.9109L15.5026 19.4999L15.5026 19.4999L15.0383 18.9109ZM12 20.4859L12 19.7359L12 20.4859ZM2.65666 13.3964C2.87558 13.748 3.33811 13.8556 3.68974 13.6367C4.04137 13.4178 4.14895 12.9552 3.93003 12.6036L2.65666 13.3964ZM6.52969 15.7718C6.23645 15.4793 5.76158 15.4798 5.46903 15.7731C5.17649 16.0663 5.17706 16.5412 5.47031 16.8337L6.52969 15.7718ZM2.75 9.13707C2.75 6.33419 4.00722 4.59507 5.57921 3.99711C7.15546 3.39753 9.35129 3.8302 11.4596 6.0207L12.5404 4.9805C10.1489 2.49583 7.3447 1.72069 5.04591 2.59512C2.74286 3.47116 1.25 5.88785 1.25 9.13707H2.75ZM15.5026 19.4999C16.9949 18.3234 18.7837 16.7461 20.2061 14.9838C21.6126 13.2412 22.75 11.2089 22.75 9.13703H21.25C21.25 10.688 20.3777 12.3829 19.0389 14.0417C17.716 15.6807 16.0239 17.1788 14.574 18.3219L15.5026 19.4999ZM22.75 9.13703C22.75 5.88784 21.2571 3.47115 18.9541 2.59511C16.6553 1.7207 13.8511 2.49583 11.4596 4.9805L12.5404 6.0207C14.6487 3.8302 16.8445 3.39753 18.4208 3.99711C19.9928 4.59506 21.25 6.33418 21.25 9.13703H22.75ZM8.49742 19.4998C9.77172 20.5044 10.6501 21.2359 12 21.2359L12 19.7359C11.2693 19.7359 10.8157 19.4174 9.42605 18.3219L8.49742 19.4998ZM14.574 18.3219C13.1843 19.4174 12.7307 19.7359 12 19.7359L12 21.2359C13.3499 21.2359 14.2283 20.5044 15.5026 19.4999L14.574 18.3219ZM3.93003 12.6036C3.18403 11.4054 2.75 10.2312 2.75 9.13707H1.25C1.25 10.617 1.83054 12.0695 2.65666 13.3964L3.93003 12.6036ZM9.42605 18.3219C8.50908 17.599 7.49093 16.7307 6.52969 15.7718L5.47031 16.8337C6.48347 17.8445 7.54819 18.7515 8.49742 19.4998L9.42605 18.3219Z" fill="black"/>
</svg>
