<svg width="24" height="24" viewBox="0 0 24 24" fill="none" xmlns="http://www.w3.org/2000/svg">
<path d="M11.5355 10.5355C12.4404 9.63071 13 8.38071 13 7C13 4.23858 10.7614 2 8 2C6.61929 2 5.36929 2.55964 4.46447 3.46447M11.5355 10.5355C10.6307 11.4404 9.38071 12 8 12C5.23858 12 3 9.76142 3 7C3 5.61929 3.55964 4.36929 4.46447 3.46447M11.5355 10.5355L4.46447 3.46447" stroke="black" stroke-width="1.5" stroke-linecap="round"/>
<path d="M12 17C12 18.2796 12.4882 19.5592 13.4645 20.5355C14.4408 21.5118 15.7204 22 17 22M12 17C12 15.7204 12.4882 14.4408 13.4645 13.4645C15.4171 11.5118 18.5829 11.5118 20.5355 13.4645C21.5118 14.4408 22 15.7204 22 17M12 17H22M22 17C22 18.2796 21.5118 19.5592 20.5355 20.5355" stroke="black" stroke-width="1.5" stroke-linecap="round"/>
</svg>
