<svg width="24" height="24" viewBox="0 0 24 24" fill="none" xmlns="http://www.w3.org/2000/svg">
<path d="M4 11H16C17.8856 11 18.8284 11 19.4142 11.5858C20 12.1716 20 13.1144 20 15V16C20 18.8284 20 20.2426 19.1213 21.1213C18.2426 22 16.8284 22 14 22H10C7.17157 22 5.75736 22 4.87868 21.1213C4 20.2426 4 18.8284 4 16V11Z" fill="black"/>
<path d="M13.9184 3.16598L9.15025 4.44361C9.17143 4.52917 9.17779 4.61993 9.16673 4.71262L8.56266 9.77744L13.342 8.49682C13.3149 8.40322 13.3058 8.30276 13.318 8.19993L13.9184 3.16598Z" fill="black"/>
<path d="M14.8412 8.09511L18.2487 7.18208C18.4731 7.12195 18.5853 7.09188 18.6736 7.04832C19.0364 6.86943 19.2557 6.48964 19.2292 6.08604C19.2228 5.98776 19.1927 5.87556 19.1326 5.65114C18.9522 4.97791 18.862 4.64129 18.7313 4.37629C18.1946 3.28804 17.0553 2.63022 15.8445 2.70958C15.7213 2.71766 15.5907 2.73811 15.4314 2.77235C15.4505 2.85465 15.4558 2.94159 15.4452 3.0303L14.8412 8.09511Z" fill="black"/>
<path d="M7.06349 10.1791C7.03643 10.0855 7.02727 9.98509 7.03953 9.88225L7.63992 4.84831L7.53682 4.87593C5.73128 5.35973 4.82851 5.60162 4.2601 6.17003C3.88773 6.5424 3.61994 7.00623 3.48364 7.51489C3.27559 8.29135 3.51749 9.19412 4.00128 10.9997L7.06349 10.1791Z" fill="black"/>
</svg>
