<svg width="24" height="24" viewBox="0 0 24 24" fill="none" xmlns="http://www.w3.org/2000/svg">
<path fill-rule="evenodd" clip-rule="evenodd" d="M3.46447 3.46447C2 4.92893 2 7.28595 2 12C2 16.714 2 19.0711 3.46447 20.5355C4.92893 22 7.28595 22 12 22C16.714 22 19.0711 22 20.5355 20.5355C22 19.0711 22 16.714 22 12C22 7.28595 22 4.92893 20.5355 3.46447C19.0711 2 16.714 2 12 2C7.28595 2 4.92893 2 3.46447 3.46447ZM16 10C17.1046 10 18 9.10457 18 8C18 6.89543 17.1046 6 16 6C14.8954 6 14 6.89543 14 8C14 9.10457 14.8954 10 16 10ZM6.32092 13.1038C6.94501 12.5241 7.91991 12.5566 8.50397 13.1766L11.1515 15.9869C11.9509 16.8356 13.2596 16.9499 14.1941 16.2527C14.8073 15.7953 15.661 15.8473 16.2141 16.3757L18.4819 18.5423C18.7814 18.8284 19.2562 18.8176 19.5423 18.5181C19.8284 18.2186 19.8176 17.7438 19.5181 17.4577L17.2503 15.2911C16.1679 14.257 14.4971 14.1553 13.2972 15.0504C12.9735 15.2919 12.5202 15.2523 12.2433 14.9584L9.59579 12.1481C8.44651 10.9281 6.52816 10.8641 5.3001 12.0047L4.4896 12.7575C4.1861 13.0394 4.16858 13.5139 4.45047 13.8174C4.73236 14.1209 5.20691 14.1385 5.51041 13.8566L6.32092 13.1038Z" fill="black"/>
</svg>
