<svg width="24" height="24" viewBox="0 0 24 24" fill="none" xmlns="http://www.w3.org/2000/svg">
<path d="M8.50989 2.00001H15.49C15.7225 1.99995 15.9007 1.99991 16.0565 2.01515C17.1643 2.12352 18.0711 2.78958 18.4556 3.68678H5.54428C5.92879 2.78958 6.83555 2.12352 7.94337 2.01515C8.09917 1.99991 8.27741 1.99995 8.50989 2.00001Z" fill="black"/>
<path d="M6.31052 4.72312C4.91989 4.72312 3.77963 5.56287 3.3991 6.67691C3.39117 6.70013 3.38356 6.72348 3.37629 6.74693C3.77444 6.62636 4.18881 6.54759 4.60827 6.49382C5.68865 6.35531 7.05399 6.35538 8.64002 6.35547L8.75846 6.35547L15.5321 6.35547C17.1181 6.35538 18.4835 6.35531 19.5639 6.49382C19.9833 6.54759 20.3977 6.62636 20.7958 6.74693C20.7886 6.72348 20.781 6.70013 20.773 6.67691C20.3925 5.56287 19.2522 4.72312 17.8616 4.72312H6.31052Z" fill="black"/>
<path fill-rule="evenodd" clip-rule="evenodd" d="M8.67239 7.54204H15.3276C18.7024 7.54204 20.3898 7.54204 21.3377 8.52887C22.2855 9.5157 22.0625 11.0403 21.6165 14.0896L21.1935 16.9811C20.8437 19.3724 20.6689 20.568 19.7717 21.284C18.8745 22 17.5512 22 14.9046 22H9.09536C6.44881 22 5.12553 22 4.22834 21.284C3.33115 20.568 3.15626 19.3724 2.80648 16.9811L2.38351 14.0896C1.93748 11.0403 1.71447 9.5157 2.66232 8.52887C3.61017 7.54204 5.29758 7.54204 8.67239 7.54204ZM8 18.0001C8 17.5859 8.3731 17.2501 8.83333 17.2501H15.1667C15.6269 17.2501 16 17.5859 16 18.0001C16 18.4144 15.6269 18.7502 15.1667 18.7502H8.83333C8.3731 18.7502 8 18.4144 8 18.0001Z" fill="black"/>
</svg>
