<svg width="24" height="24" viewBox="0 0 24 24" fill="none" xmlns="http://www.w3.org/2000/svg">
<path fill-rule="evenodd" clip-rule="evenodd" d="M3.69231 10.3721C4.07466 10.3721 4.38462 10.6845 4.38462 11.0698V12.9302C4.38462 17.1687 7.79414 20.6047 12 20.6047C16.2059 20.6047 19.6154 17.1687 19.6154 12.9302V11.0698C19.6154 10.6845 19.9253 10.3721 20.3077 10.3721C20.69 10.3721 21 10.6845 21 11.0698V12.9302C21 17.9393 16.9706 22 12 22C7.02944 22 3 17.9393 3 12.9302V11.0698C3 10.6845 3.30996 10.3721 3.69231 10.3721Z" fill="black"/>
<path fill-rule="evenodd" clip-rule="evenodd" d="M12 2C8.55884 2 5.76923 4.81123 5.76923 8.27907V12.9302C5.76923 16.3981 8.55884 19.2093 12 19.2093C15.4412 19.2093 18.2308 16.3981 18.2308 12.9302V8.27907C18.2308 4.81124 15.4412 2 12 2ZM9.67822 7.39068C9.40039 7.12597 9.3881 6.6844 9.65078 6.40441L10.1538 6.88372C9.65078 6.40441 9.65154 6.40361 9.65154 6.40361L9.65231 6.40279L9.65388 6.40114L9.65716 6.3977L9.66431 6.39036C9.66934 6.38527 9.67489 6.37977 9.68099 6.37391C9.69318 6.36218 9.70751 6.349 9.72413 6.33461C9.75739 6.3058 9.79962 6.27232 9.85184 6.23613C9.95658 6.16357 10.0997 6.0814 10.2887 6.00438C10.6676 5.84997 11.2189 5.72093 12 5.72093C12.7811 5.72093 13.3324 5.84997 13.7113 6.00438C13.9003 6.0814 14.0434 6.16357 14.1482 6.23613C14.2004 6.27232 14.2426 6.3058 14.2759 6.33461C14.2925 6.349 14.3068 6.36218 14.319 6.37391C14.3251 6.37977 14.3307 6.38527 14.3357 6.39036L14.3428 6.3977L14.3461 6.40114L14.3477 6.40279L14.3485 6.40361C14.3485 6.40361 14.3492 6.40441 13.8562 6.87412L14.3492 6.40441C14.6119 6.6844 14.5996 7.12597 14.3218 7.39068C14.0536 7.64624 13.6359 7.64354 13.371 7.39112L13.3637 7.38596C13.3426 7.37132 13.2885 7.33721 13.1922 7.29795C13.0004 7.2198 12.6287 7.11628 12 7.11628C11.3713 7.11628 10.9996 7.2198 10.8078 7.29795C10.7115 7.33721 10.6574 7.37132 10.6363 7.38596L10.629 7.39112C10.3641 7.64354 9.94645 7.64624 9.67822 7.39068ZM9.67822 10.1814C9.40039 9.91667 9.3881 9.4751 9.65078 9.19511L10.1538 9.67442C9.65078 9.19511 9.65154 9.19431 9.65154 9.19431L9.65231 9.19349L9.65388 9.19183L9.65716 9.1884L9.66431 9.18106C9.66934 9.17597 9.67489 9.17047 9.68099 9.16461C9.69318 9.15288 9.70751 9.13969 9.72413 9.1253C9.75739 9.0965 9.79962 9.06301 9.85184 9.02683C9.95658 8.95427 10.0997 8.8721 10.2887 8.79507C10.6676 8.64067 11.2189 8.51163 12 8.51163C12.7811 8.51163 13.3324 8.64067 13.7113 8.79507C13.9003 8.8721 14.0434 8.95427 14.1482 9.02683C14.2004 9.06301 14.2426 9.0965 14.2759 9.1253C14.2925 9.13969 14.3068 9.15288 14.319 9.16461C14.3251 9.17047 14.3307 9.17597 14.3357 9.18106L14.3428 9.1884L14.3461 9.19183L14.3477 9.19349L14.3485 9.19431C14.3485 9.19431 14.3492 9.1951 13.8562 9.66482L14.3492 9.19511C14.6119 9.4751 14.5996 9.91667 14.3218 10.1814C14.0536 10.4369 13.6359 10.4342 13.371 10.1818L13.3637 10.1767C13.3426 10.162 13.2885 10.1279 13.1922 10.0886C13.0004 10.0105 12.6287 9.90698 12 9.90698C11.3713 9.90698 10.9996 10.0105 10.8078 10.0886C10.7115 10.1279 10.6574 10.162 10.6363 10.1767L10.629 10.1818C10.3641 10.4342 9.94645 10.4369 9.67822 10.1814Z" fill="black"/>
</svg>
