<svg width="24" height="24" viewBox="0 0 24 24" fill="none" xmlns="http://www.w3.org/2000/svg">
<path fill-rule="evenodd" clip-rule="evenodd" d="M6.41861 8C6.41861 5.17157 6.41861 3.75736 7.23598 2.87868C8.05336 2 9.36891 2 12 2C14.6311 2 15.9466 2 16.764 2.87868C17.5814 3.75736 17.5814 5.17157 17.5814 8V16C17.5814 18.8284 17.5814 20.2426 16.764 21.1213C15.9466 22 14.6311 22 12 22C9.36891 22 8.05336 22 7.23598 21.1213C6.41861 20.2426 6.41861 18.8284 6.41861 16V8ZM5.02325 7.90125L5.02326 8L5.02325 16.0987C5.0232 17.0815 5.02316 17.9638 5.06946 18.7277C5.08581 18.9974 5.10793 19.2523 5.13787 19.4917C5.15132 19.5992 5.16661 19.7062 5.18411 19.8126C5.21968 20.0288 5.05257 20.2326 4.83435 20.2134C4.40341 20.1756 4.01421 20.0949 3.65073 19.8958C3.08186 19.5842 2.61937 19.087 2.32952 18.4755C2.14431 18.0847 2.06921 17.6663 2.034 17.2031C1.99999 16.7555 1.99999 16.2048 2 15.5314V8.46859C1.99999 7.79521 1.99999 7.2445 2.034 6.79693C2.06921 6.33367 2.14431 5.91527 2.32952 5.52453C2.61937 4.913 3.08186 4.41582 3.65073 4.10423C4.01421 3.90514 4.40341 3.8244 4.83435 3.78655C5.05257 3.76739 5.21968 3.97125 5.18411 4.1874C5.16661 4.29376 5.15132 4.40079 5.13787 4.50831C5.10793 4.74771 5.08581 5.00264 5.06946 5.27233C5.02316 6.03622 5.0232 6.91847 5.02325 7.90124V7.90125ZM18.9767 7.90126V16.0987C18.9768 17.0815 18.9768 17.9638 18.9305 18.7277C18.9142 18.9974 18.8921 19.2523 18.8621 19.4917C18.8487 19.5992 18.8334 19.7062 18.8159 19.8126C18.7803 20.0288 18.9474 20.2326 19.1656 20.2134C19.5966 20.1756 19.9858 20.0949 20.3493 19.8958C20.9181 19.5842 21.3806 19.087 21.6705 18.4755C21.8557 18.0847 21.9308 17.6663 21.966 17.2031C22 16.7555 22 16.2048 22 15.5315V15.5314V8.46859V8.4685C22 7.79516 22 7.24448 21.966 6.79693C21.9308 6.33367 21.8557 5.91527 21.6705 5.52453C21.3806 4.913 20.9181 4.41582 20.3493 4.10423C19.9858 3.90514 19.5966 3.8244 19.1656 3.78655C18.9474 3.76739 18.7803 3.97125 18.8159 4.1874C18.8334 4.29376 18.8487 4.40079 18.8621 4.50831C18.8921 4.74771 18.9142 5.00264 18.9305 5.27233C18.9768 6.03623 18.9768 6.91849 18.9767 7.90126ZM14.8684 8.41172C14.9383 8.38128 14.9705 8.37152 14.9785 8.36917C15.0885 8.35966 15.1917 8.42348 15.2324 8.52605C15.2339 8.5343 15.2396 8.5675 15.2436 8.64357C15.2498 8.76123 15.25 8.92003 15.25 9.17103C15.25 9.27816 15.2499 9.33925 15.2482 9.3855C15.2472 9.41444 15.2458 9.42668 15.2454 9.42975C15.2338 9.48965 15.2007 9.54324 15.1523 9.58042C15.1498 9.58215 15.1394 9.58885 15.114 9.60273C15.0734 9.62489 15.0188 9.6523 14.9229 9.70021L13.6062 10.3586C13.3817 10.4708 13.2396 10.5416 13.1316 10.5887C13.0617 10.6191 13.0295 10.6289 13.0215 10.6313C12.9115 10.6408 12.8083 10.5769 12.7676 10.4744C12.7661 10.4661 12.7604 10.4329 12.7564 10.3569C12.7502 10.2392 12.75 10.0804 12.75 9.82939C12.75 9.72226 12.7501 9.66118 12.7518 9.61492C12.7528 9.58596 12.7542 9.57373 12.7546 9.57067C12.7662 9.51077 12.7993 9.45718 12.8477 9.42001C12.8502 9.41827 12.8606 9.41157 12.886 9.39769C12.9266 9.37554 12.9812 9.34812 13.0771 9.30021L14.3938 8.64185C14.6183 8.5296 14.7604 8.4588 14.8684 8.41172ZM16.6454 8.02225C16.3689 7.25889 15.6037 6.78596 14.7972 6.88003C14.5988 6.90318 14.4199 6.97092 14.269 7.03669C14.1204 7.10149 13.9425 7.19042 13.7397 7.29184L12.4062 7.95857L12.3697 7.97679L12.3697 7.97679C12.2248 8.04899 12.0711 8.12557 11.9371 8.22804C11.5955 8.48919 11.362 8.86695 11.2812 9.28925C11.2495 9.45495 11.2497 9.62667 11.25 9.78857V9.78859L11.25 9.82939V9.8481C11.25 9.86533 11.25 9.8824 11.25 9.8993C11.25 9.93357 11.2499 9.96716 11.25 10V12.5499C10.875 12.3582 10.4501 12.25 10 12.25C8.48122 12.25 7.25 13.4813 7.25 15C7.25 16.5188 8.48122 17.75 10 17.75C11.5188 17.75 12.75 16.5188 12.75 15V12.1144C12.8974 12.1357 13.0493 12.1383 13.2028 12.1204C13.4012 12.0972 13.5801 12.0295 13.731 11.9637C13.8796 11.8989 14.0575 11.81 14.2603 11.7086L15.5938 11.0419L15.6303 11.0236C15.7752 10.9514 15.9289 10.8749 16.0629 10.7724C16.4045 10.5112 16.638 10.1335 16.7188 9.71117C16.7505 9.54547 16.7503 9.37374 16.75 9.21184L16.75 9.17103V9.15231C16.75 8.92555 16.75 8.72669 16.7415 8.56475C16.7328 8.4004 16.7134 8.21007 16.6454 8.02225ZM10 13.75C10.6904 13.75 11.25 14.3097 11.25 15C11.25 15.6904 10.6904 16.25 10 16.25C9.30964 16.25 8.75 15.6904 8.75 15C8.75 14.3097 9.30964 13.75 10 13.75Z" fill="black"/>
</svg>
