<svg width="24" height="24" viewBox="0 0 24 24" fill="none" xmlns="http://www.w3.org/2000/svg">
<path fill-rule="evenodd" clip-rule="evenodd" d="M3.46447 3.46447C2 4.92893 2 7.28595 2 12C2 16.714 2 19.0711 3.46447 20.5355C4.92893 22 7.28595 22 12 22C16.714 22 19.0711 22 20.5355 20.5355C22 19.0711 22 16.714 22 12C22 7.28595 22 4.92893 20.5355 3.46447C19.0711 2 16.714 2 12 2C7.28595 2 4.92893 2 3.46447 3.46447ZM10.0038 5.251C10.4179 5.25452 10.7509 5.59314 10.7474 6.00734C10.7402 6.85802 10.7138 7.58393 10.5958 8.18634C10.4737 8.80968 10.2442 9.35294 9.7981 9.79907C9.35196 10.2452 8.80871 10.4747 8.18536 10.5968C7.58296 10.7148 6.85705 10.7411 6.00636 10.7483C5.59216 10.7519 5.25354 10.4189 5.25003 10.0047C5.24652 9.59053 5.57944 9.25191 5.99364 9.2484C6.84952 9.24114 7.44729 9.21287 7.89702 9.12477C8.32582 9.04078 8.56316 8.91269 8.73744 8.73841C8.91171 8.56414 9.0398 8.32679 9.1238 7.898C9.21189 7.44826 9.24016 6.85049 9.24742 5.99462C9.25093 5.58042 9.58955 5.24749 10.0038 5.251ZM13.9935 5.251C14.4077 5.24749 14.7463 5.58042 14.7498 5.99462C14.7571 6.85049 14.7853 7.44826 14.8734 7.898C14.9574 8.32679 15.0855 8.56414 15.2598 8.73841C15.4341 8.91269 15.6714 9.04078 16.1002 9.12477C16.5499 9.21287 17.1477 9.24114 18.0036 9.2484C18.4178 9.25191 18.7507 9.59053 18.7472 10.0047C18.7437 10.4189 18.4051 10.7519 17.9909 10.7483C17.1402 10.7411 16.4143 10.7148 15.8119 10.5968C15.1885 10.4747 14.6453 10.2452 14.1991 9.79907C13.753 9.35294 13.5235 8.80968 13.4014 8.18634C13.2834 7.58393 13.2571 6.85802 13.2499 6.00734C13.2463 5.59314 13.5793 5.25452 13.9935 5.251ZM6.00636 13.2503C5.59216 13.2468 5.25354 13.5798 5.25003 13.994C5.24652 14.4082 5.57944 14.7468 5.99364 14.7503C6.84952 14.7576 7.44729 14.7858 7.89702 14.8739C8.32582 14.9579 8.56316 15.086 8.73744 15.2603C8.91171 15.4346 9.0398 15.6719 9.1238 16.1007C9.21189 16.5504 9.24016 17.1482 9.24742 18.0041C9.25093 18.4183 9.58955 18.7512 10.0038 18.7477C10.4179 18.7442 10.7509 18.4056 10.7474 17.9914C10.7402 17.1407 10.7138 16.4148 10.5958 15.8124C10.4737 15.189 10.2442 14.6458 9.7981 14.1996C9.35196 13.7535 8.80871 13.524 8.18536 13.4019C7.58296 13.2839 6.85705 13.2576 6.00636 13.2503ZM18.7472 13.994C18.7507 14.4082 18.4178 14.7468 18.0036 14.7503C17.1477 14.7576 16.5499 14.7858 16.1002 14.8739C15.6714 14.9579 15.4341 15.086 15.2598 15.2603C15.0855 15.4346 14.9574 15.6719 14.8734 16.1007C14.7853 16.5504 14.7571 17.1482 14.7498 18.0041C14.7463 18.4183 14.4077 18.7512 13.9935 18.7477C13.5793 18.7442 13.2463 18.4056 13.2499 17.9914C13.2571 17.1407 13.2834 16.4148 13.4014 15.8124C13.5235 15.189 13.753 14.6458 14.1991 14.1996C14.6453 13.7535 15.1885 13.524 15.8119 13.4019C16.4143 13.2839 17.1402 13.2576 17.9909 13.2503C18.4051 13.2468 18.7437 13.5798 18.7472 13.994Z" fill="black"/>
</svg>
