<svg width="24" height="24" viewBox="0 0 24 24" fill="none" xmlns="http://www.w3.org/2000/svg">
<path fill-rule="evenodd" clip-rule="evenodd" d="M10 3H14C17.7712 3 19.6569 3 20.8284 4.17157C21.7775 5.1206 21.9577 6.86626 21.992 9.49974C22.0042 10.4366 22.0102 10.905 21.7166 11.2025C21.4229 11.5 20.9486 11.5 20 11.5H17.5C14.6716 11.5 13.2574 11.5 12.3787 12.3787C11.5 13.2574 11.5 14.6716 11.5 17.5V19.5C11.5 19.9659 11.5 20.1989 11.4239 20.3827C11.3224 20.6277 11.1277 20.8224 10.8827 20.9239C10.6989 21 10.4659 21 10 21C6.22876 21 4.34315 21 3.17157 19.8284C2 18.6569 2 16.7712 2 13V11C2 7.22876 2 5.34315 3.17157 4.17157C4.34315 3 6.22876 3 10 3ZM10.9697 12.0303C11.2626 12.3232 11.7374 12.3232 12.0303 12.0303C12.3232 11.7374 12.3232 11.2626 12.0303 10.9697L9.31066 8.25H10.5C10.9142 8.25 11.25 7.91421 11.25 7.5C11.25 7.08579 10.9142 6.75 10.5 6.75H7.5C7.08579 6.75 6.75 7.08579 6.75 7.5V10.5C6.75 10.9142 7.08579 11.25 7.5 11.25C7.91421 11.25 8.25 10.9142 8.25 10.5V9.31066L10.9697 12.0303Z" fill="black"/>
<path d="M13.5858 13.5858C13 14.1716 13 15.1144 13 17C13 18.8856 13 19.8284 13.5858 20.4142C14.1716 21 15.1144 21 17 21H18C19.8856 21 20.8284 21 21.4142 20.4142C22 19.8284 22 18.8856 22 17C22 15.1144 22 14.1716 21.4142 13.5858C20.8284 13 19.8856 13 18 13H17C15.1144 13 14.1716 13 13.5858 13.5858Z" fill="black"/>
</svg>
