<svg width="24" height="24" viewBox="0 0 24 24" fill="none" xmlns="http://www.w3.org/2000/svg">
<path fill-rule="evenodd" clip-rule="evenodd" d="M8.71597 3.20277C8.98843 2.93241 9.43017 2.93241 9.70263 3.20277L11.5631 5.04893C11.7626 5.24692 11.8223 5.5447 11.7143 5.8034C11.6063 6.06209 11.352 6.23077 11.0698 6.23077H9.2093C5.99834 6.23077 3.39535 8.81374 3.39535 12C3.39535 15.1862 5.99857 17.7692 9.20956 17.7692H9.67442C10.0597 17.7692 10.3721 18.0792 10.3721 18.4615C10.3721 18.8439 10.0597 19.1538 9.67442 19.1538H9.20956C5.22801 19.1538 2 15.951 2 12C2 8.04904 5.22771 4.84615 9.2093 4.84615H9.38543L8.71597 4.18184C8.44351 3.91148 8.44351 3.47314 8.71597 3.20277Z" fill="black"/>
<path fill-rule="evenodd" clip-rule="evenodd" d="M13.6279 5.53846C13.6279 5.15611 13.9403 4.84615 14.3256 4.84615H14.7907C18.7723 4.84615 22 8.04904 22 12C22 15.951 18.7723 19.1538 14.7907 19.1538H14.6146L15.284 19.8182C15.5565 20.0885 15.5565 20.5269 15.284 20.7972C15.0116 21.0676 14.5698 21.0676 14.2974 20.7972L12.4369 18.9511C12.2374 18.7531 12.1777 18.4553 12.2857 18.1966C12.3937 17.9379 12.648 17.7692 12.9302 17.7692H14.7907C18.0017 17.7692 20.6047 15.1863 20.6047 12C20.6047 8.81374 18.0017 6.23077 14.7907 6.23077H14.3256C13.9403 6.23077 13.6279 5.92081 13.6279 5.53846Z" fill="black"/>
<path d="M5.48837 12C5.48837 9.96079 7.15429 8.30769 9.2093 8.30769H14.7907C16.8457 8.30769 18.5116 9.96079 18.5116 12C18.5116 14.0392 16.8457 15.6923 14.7907 15.6923H9.2093C7.15429 15.6923 5.48837 14.0392 5.48837 12Z" fill="black"/>
</svg>
