<svg width="24" height="24" viewBox="0 0 24 24" fill="none" xmlns="http://www.w3.org/2000/svg">
<path fill-rule="evenodd" clip-rule="evenodd" d="M12 3.25C12.4142 3.25 12.75 3.58579 12.75 4L12.75 20C12.75 20.4142 12.4142 20.75 12 20.75C11.5858 20.75 11.25 20.4142 11.25 20L11.25 4C11.25 3.58579 11.5858 3.25 12 3.25ZM8 6.25C8.41421 6.25 8.75 6.58579 8.75 7V17C8.75 17.4142 8.41421 17.75 8 17.75C7.58579 17.75 7.25 17.4142 7.25 17V7C7.25 6.58579 7.58579 6.25 8 6.25ZM16 6.25C16.4142 6.25 16.75 6.58579 16.75 7V17C16.75 17.4142 16.4142 17.75 16 17.75C15.5858 17.75 15.25 17.4142 15.25 17V7C15.25 6.58579 15.5858 6.25 16 6.25ZM4 10.25C4.41421 10.25 4.75 10.5858 4.75 11L4.75 13C4.75 13.4142 4.41421 13.75 4 13.75C3.58579 13.75 3.25 13.4142 3.25 13L3.25 11C3.25 10.5858 3.58579 10.25 4 10.25ZM20 10.25C20.4142 10.25 20.75 10.5858 20.75 11V13C20.75 13.4142 20.4142 13.75 20 13.75C19.5858 13.75 19.25 13.4142 19.25 13V11C19.25 10.5858 19.5858 10.25 20 10.25Z" fill="black"/>
</svg>
