<svg width="24" height="24" viewBox="0 0 24 24" fill="none" xmlns="http://www.w3.org/2000/svg">
<path d="M6.25001 2.22164C5.02727 2.4159 4.14851 2.78043 3.46447 3.46447C2.78044 4.1485 2.41591 5.02727 2.22165 6.25H6.25001V2.22164Z" fill="black"/>
<path d="M2.06874 7.75C2.01039 8.73117 2.00158 9.88382 2.00024 11.25H6.25001V7.75H2.06874Z" fill="black"/>
<path d="M2.00024 12.75C2.00158 14.1162 2.01039 15.2688 2.06874 16.25H6.25001V12.75H2.00024Z" fill="black"/>
<path d="M2.22165 17.75C2.41591 18.9727 2.78044 19.8515 3.46447 20.5355C4.14851 21.2196 5.02727 21.5841 6.25001 21.7784V17.75H2.22165Z" fill="black"/>
<path d="M7.75001 21.9313C8.90581 22 10.2996 22 12 22C13.7005 22 15.0942 22 16.25 21.9313V12.75H7.75001V21.9313Z" fill="black"/>
<path d="M17.75 21.7784C18.9727 21.5841 19.8515 21.2196 20.5355 20.5355C21.2196 19.8515 21.5841 18.9727 21.7784 17.75H17.75V21.7784Z" fill="black"/>
<path d="M21.9313 16.25C21.9896 15.2688 21.9984 14.1162 21.9998 12.75H17.75V16.25H21.9313Z" fill="black"/>
<path d="M21.9998 11.25C21.9984 9.88382 21.9896 8.73117 21.9313 7.75H17.75V11.25H21.9998Z" fill="black"/>
<path d="M21.7784 6.25C21.5841 5.02727 21.2196 4.1485 20.5355 3.46447C19.8515 2.78043 18.9727 2.4159 17.75 2.22164V6.25H21.7784Z" fill="black"/>
<path d="M16.25 2.06874C15.0942 2 13.7005 2 12 2C10.2996 2 8.90581 2 7.75001 2.06874V11.25H16.25V2.06874Z" fill="black"/>
</svg>
