<svg width="24" height="24" viewBox="0 0 24 24" fill="none" xmlns="http://www.w3.org/2000/svg">
<path d="M2 11.5V12.5C2 15.7875 2 17.4312 2.90796 18.5376C3.07418 18.7401 3.25989 18.9258 3.46243 19.092C4.56878 20 6.21252 20 9.5 20C12.7875 20 14.4312 20 15.5376 19.092C15.7401 18.9258 15.9258 18.7401 16.092 18.5376C16.7936 17.6827 16.9531 16.507 16.9893 14.5L17.6584 14.8292C19.6042 15.8021 20.5772 16.2886 21.2886 15.8489C22 15.4093 22 14.3215 22 12.1459V11.8541C22 9.67853 22 8.59075 21.2886 8.15107C20.5772 7.7114 19.6042 8.19788 17.6584 9.17082L16.9893 9.50002C16.9531 7.49303 16.7936 6.3173 16.092 5.46243C15.9258 5.25989 15.7401 5.07418 15.5376 4.90796C14.4312 4 12.7875 4 9.5 4C6.21252 4 4.56878 4 3.46243 4.90796C3.25989 5.07418 3.07418 5.25989 2.90796 5.46243C2 6.56878 2 8.21252 2 11.5Z" fill="black"/>
</svg>
