<svg width="24" height="24" viewBox="0 0 24 24" fill="none" xmlns="http://www.w3.org/2000/svg">
<path d="M11.25 2.0315C11.1701 2.01094 11.0863 2 11 2H8.66667C8.345 2 8.03979 2 7.75 2.00094L7.75002 2.00684V6.25032L11.25 6.25032L11.25 2.0315Z" fill="black"/>
<path d="M12.75 7.00596L12.75 7.00032L12.75 6.99468V4H15.3333C15.655 4 15.9602 4 16.25 4.00094L16.25 4.00684V8.25032L12.75 8.25032V7.00596Z" fill="black"/>
<path d="M11.25 7.75032L2.00195 7.75032L2.00003 7.75032L2 14C2 14.4517 2 14.8673 2.00398 15.2505L2.01927 15.2503H11.25V7.75032Z" fill="black"/>
<path d="M12.75 16.0059L12.75 16.0003L12.75 15.9947L12.75 9.75032L21.9981 9.75032L22 9.75032L22 16C22 16.4517 22 16.8673 21.996 17.2505L21.9808 17.2503H12.75V16.0059Z" fill="black"/>
<path d="M11.25 16.7503L7.75002 16.7503L7.75002 19.9938L7.75 19.9991C8.03979 20 8.345 20 8.66667 20H11.25L11.25 16.7503Z" fill="black"/>
<path d="M12.75 21.9685C12.8299 21.9891 12.9137 22 13 22H15.3333C15.655 22 15.9602 22 16.25 21.9991L16.25 21.9938L16.25 18.7503H12.75V21.9685Z" fill="black"/>
<path d="M6.25002 2.02325C4.64034 2.07802 3.6617 2.26183 2.97631 2.87868C2.22628 3.55371 2.05245 4.54479 2.01216 6.25032L6.25002 6.25032V2.02325Z" fill="black"/>
<path d="M17.75 8.25032V4.02325C19.3597 4.07802 20.3383 4.26183 21.0237 4.87868C21.7737 5.55371 21.9476 6.54479 21.9878 8.25032L17.75 8.25032Z" fill="black"/>
<path d="M21.9393 18.7503H17.75V21.9768C19.3597 21.922 20.3383 21.7382 21.0237 21.1213C21.6132 20.5907 21.8468 19.8649 21.9393 18.7503Z" fill="black"/>
<path d="M6.25002 16.7503L6.25002 19.9768C4.64034 19.922 3.6617 19.7382 2.97631 19.1213C2.38678 18.5907 2.15323 17.8649 2.0607 16.7503L6.25002 16.7503Z" fill="black"/>
</svg>
