<svg width="24" height="24" viewBox="0 0 24 24" fill="none" xmlns="http://www.w3.org/2000/svg">
<path fill-rule="evenodd" clip-rule="evenodd" d="M12 22C17.5228 22 22 17.5228 22 12C22 6.47715 17.5228 2 12 2C6.47715 2 2 6.47715 2 12C2 17.5228 6.47715 22 12 22ZM15.9346 5.59158C16.217 5.70662 16.4017 5.98121 16.4017 6.28616V9.00067C16.4017 9.41489 16.0659 9.75067 15.6517 9.75067H13C12.6983 9.75067 12.4259 9.56984 12.3088 9.29174C12.1917 9.01364 12.2527 8.69245 12.4635 8.47659L13.225 7.69705C11.7795 7.25143 10.1467 7.61303 9.00097 8.78596C7.33301 10.4935 7.33301 13.269 9.00097 14.9765C10.6593 16.6742 13.3407 16.6742 14.999 14.9765C15.6769 14.2826 16.0805 13.4112 16.2069 12.5045C16.2651 12.0865 16.5972 11.7349 17.0192 11.7349C17.4246 11.7349 17.7609 12.0595 17.7217 12.463C17.5957 13.7606 17.0471 15.0265 16.072 16.0247C13.8252 18.3248 10.1748 18.3248 7.92796 16.0247C5.69068 13.7344 5.69068 10.0281 7.92796 7.7378C9.66551 5.95905 12.244 5.55465 14.3647 6.53037L15.1152 5.76208C15.3283 5.54393 15.6522 5.47653 15.9346 5.59158Z" fill="black"/>
</svg>
