<svg width="24" height="24" viewBox="0 0 24 24" fill="none" xmlns="http://www.w3.org/2000/svg">
<path fill-rule="evenodd" clip-rule="evenodd" d="M22 12C22 17.5228 17.5228 22 12 22C6.47715 22 2 17.5228 2 12C2 6.47715 6.47715 2 12 2C17.5228 2 22 6.47715 22 12ZM8.46967 13.0303C8.17678 12.7374 8.17678 12.2626 8.46967 11.9697C8.76256 11.6768 9.23744 11.6768 9.53033 11.9697L12 14.4393L14.4697 11.9697C14.7626 11.6768 15.2374 11.6768 15.5303 11.9697C15.8232 12.2626 15.8232 12.7374 15.5303 13.0303L12.5303 16.0303C12.2374 16.3232 11.7626 16.3232 11.4697 16.0303L8.46967 13.0303ZM8.46967 7.96967C8.17678 8.26256 8.17678 8.73744 8.46967 9.03033L11.4697 12.0303C11.7626 12.3232 12.2374 12.3232 12.5303 12.0303L15.5303 9.03033C15.8232 8.73744 15.8232 8.26256 15.5303 7.96967C15.2374 7.67678 14.7626 7.67678 14.4697 7.96967L12 10.4393L9.53033 7.96967C9.23744 7.67678 8.76256 7.67678 8.46967 7.96967Z" fill="black"/>
</svg>
