<svg width="24" height="24" viewBox="0 0 24 24" fill="none" xmlns="http://www.w3.org/2000/svg">
<path fill-rule="evenodd" clip-rule="evenodd" d="M20.5355 3.46447C19.0711 2 16.714 2 12 2C7.28595 2 4.92893 2 3.46447 3.46447C2 4.92893 2 7.28595 2 12C2 16.714 2 19.0711 3.46447 20.5355C4.92893 22 7.28595 22 12 22C16.714 22 19.0711 22 20.5355 20.5355C22 19.0711 22 16.714 22 12C22 7.28595 22 4.92893 20.5355 3.46447ZM14.0303 8.46967C14.3232 8.76256 14.3232 9.23744 14.0303 9.53033L11.5607 12L14.0303 14.4697C14.3232 14.7626 14.3232 15.2374 14.0303 15.5303C13.7374 15.8232 13.2626 15.8232 12.9697 15.5303L9.96967 12.5303C9.82902 12.3897 9.75 12.1989 9.75 12C9.75 11.8011 9.82902 11.6103 9.96967 11.4697L12.9697 8.46967C13.2626 8.17678 13.7374 8.17678 14.0303 8.46967Z" fill="black"/>
</svg>
