<svg width="24" height="24" viewBox="0 0 24 24" fill="none" xmlns="http://www.w3.org/2000/svg">
<path fill-rule="evenodd" clip-rule="evenodd" d="M2 12C2 7.28595 2 4.92893 3.46447 3.46447C4.92893 2 7.28595 2 12 2C16.714 2 19.0711 2 20.5355 3.46447C22 4.92893 22 7.28595 22 12C22 16.714 22 19.0711 20.5355 20.5355C19.0711 22 16.714 22 12 22C7.28595 22 4.92893 22 3.46447 20.5355C2 19.0711 2 16.714 2 12ZM7.55495 12.7455C7.27632 12.439 6.80199 12.4164 6.49549 12.695C6.189 12.9737 6.16641 13.448 6.44504 13.7545L8.94504 16.5045C9.08719 16.6609 9.28869 16.75 9.5 16.75C9.71131 16.75 9.91281 16.6609 10.055 16.5045L12.555 13.7545C12.8336 13.448 12.811 12.9737 12.5045 12.695C12.198 12.4164 11.7237 12.439 11.445 12.7455L10.25 14.06V8C10.25 7.58579 9.91421 7.25 9.5 7.25C9.08579 7.25 8.75 7.58579 8.75 8V14.06L7.55495 12.7455ZM11.4955 11.305C11.802 11.5836 12.2763 11.561 12.555 11.2545L13.75 9.93995L13.75 16C13.75 16.4142 14.0858 16.75 14.5 16.75C14.9142 16.75 15.25 16.4142 15.25 16L15.25 9.93995L16.445 11.2545C16.7237 11.561 17.198 11.5836 17.5045 11.305C17.811 11.0263 17.8336 10.552 17.555 10.2455L15.055 7.49549C14.9128 7.33914 14.7113 7.25 14.5 7.25C14.2887 7.25 14.0872 7.33914 13.945 7.49549L11.445 10.2455C11.1664 10.552 11.189 11.0263 11.4955 11.305Z" fill="black"/>
</svg>
