<svg width="24" height="24" viewBox="0 0 24 24" fill="none" xmlns="http://www.w3.org/2000/svg">
<path fill-rule="evenodd" clip-rule="evenodd" d="M3.46447 20.5355C4.92893 22 7.28595 22 12 22C16.714 22 19.0711 22 20.5355 20.5355C22 19.0711 22 16.714 22 12C22 7.28595 22 4.92893 20.5355 3.46447C19.0711 2 16.714 2 12 2C7.28595 2 4.92893 2 3.46447 3.46447C2 4.92893 2 7.28595 2 12C2 16.714 2 19.0711 3.46447 20.5355ZM7.56507 13.0693C7.29271 12.7573 6.81893 12.7251 6.50685 12.9974C6.19477 13.2698 6.16257 13.7436 6.43493 14.0557L9.43493 17.4932C9.6405 17.7287 9.97062 17.812 10.2633 17.7022C10.5561 17.5925 10.75 17.3126 10.75 17V7C10.75 6.58579 10.4142 6.25 10 6.25C9.58579 6.25 9.25 6.58579 9.25 7V15L7.56507 13.0693ZM13.7367 6.29775C13.4439 6.40753 13.25 6.68737 13.25 7L13.25 17C13.25 17.4142 13.5858 17.75 14 17.75C14.4142 17.75 14.75 17.4142 14.75 17L14.75 9L16.4349 10.9306C16.7073 11.2427 17.1811 11.2749 17.4931 11.0026C17.8052 10.7302 17.8374 10.2564 17.5651 9.94435L14.5651 6.50685C14.3595 6.2713 14.0294 6.18798 13.7367 6.29775Z" fill="black"/>
</svg>
