<svg width="24" height="24" viewBox="0 0 24 24" fill="none" xmlns="http://www.w3.org/2000/svg">
<path fill-rule="evenodd" clip-rule="evenodd" d="M2 12C2 7.28595 2 4.92893 3.46447 3.46447C4.92893 2 7.28595 2 12 2C16.714 2 19.0711 2 20.5355 3.46447C22 4.92893 22 7.28595 22 12C22 16.714 22 19.0711 20.5355 20.5355C19.0711 22 16.714 22 12 22C7.28595 22 4.92893 22 3.46447 20.5355C2 19.0711 2 16.714 2 12ZM12.7455 12.555C12.439 12.2763 12.4164 11.802 12.695 11.4955C12.9737 11.189 13.448 11.1664 13.7545 11.445L16.5045 13.945C16.6609 14.0872 16.75 14.2887 16.75 14.5C16.75 14.7113 16.6609 14.9128 16.5045 15.055L13.7545 17.555C13.448 17.8336 12.9737 17.811 12.695 17.5045C12.4164 17.198 12.439 16.7237 12.7455 16.445L14.06 15.25H8C7.58579 15.25 7.25 14.9142 7.25 14.5C7.25 14.0858 7.58579 13.75 8 13.75H14.06L12.7455 12.555ZM11.305 6.49549C11.5836 6.80199 11.561 7.27632 11.2545 7.55495L9.93996 8.75H16C16.4142 8.75 16.75 9.08579 16.75 9.5C16.75 9.91421 16.4142 10.25 16 10.25H9.93996L11.2545 11.445C11.561 11.7237 11.5836 12.198 11.305 12.5045C11.0263 12.811 10.552 12.8336 10.2455 12.555L7.4955 10.055C7.33914 9.91281 7.25 9.71131 7.25 9.5C7.25 9.28869 7.33914 9.08719 7.4955 8.94504L10.2455 6.44504C10.552 6.16641 11.0263 6.189 11.305 6.49549Z" fill="black"/>
</svg>
