<svg width="24" height="24" viewBox="0 0 24 24" fill="none" xmlns="http://www.w3.org/2000/svg">
<path fill-rule="evenodd" clip-rule="evenodd" d="M3.46447 20.5355C4.92893 22 7.28595 22 12 22C16.714 22 19.0711 22 20.5355 20.5355C22 19.0711 22 16.714 22 12C22 7.28595 22 4.92893 20.5355 3.46447C19.0711 2 16.714 2 12 2C7.28595 2 4.92893 2 3.46447 3.46447C2 4.92893 2 7.28595 2 12C2 16.714 2 19.0711 3.46447 20.5355ZM7.25 12C7.25 11.5858 7.58579 11.25 8 11.25H14.1893L12.4697 9.53033C12.1768 9.23744 12.1768 8.76256 12.4697 8.46967C12.7626 8.17678 13.2374 8.17678 13.5303 8.46967L16.5303 11.4697C16.671 11.6103 16.75 11.8011 16.75 12C16.75 12.1989 16.671 12.3897 16.5303 12.5303L13.5303 15.5303C13.2374 15.8232 12.7626 15.8232 12.4697 15.5303C12.1768 15.2374 12.1768 14.7626 12.4697 14.4697L14.1893 12.75H8C7.58579 12.75 7.25 12.4142 7.25 12Z" fill="black"/>
</svg>
