<svg width="24" height="24" viewBox="0 0 24 24" fill="none" xmlns="http://www.w3.org/2000/svg">
<path fill-rule="evenodd" clip-rule="evenodd" d="M13.4629 21.6744C12.5343 22.1085 11.4657 22.1085 10.5371 21.6744C6.55332 19.8124 4 14.6055 4 10.1433C4 5.64588 7.58172 2 12 2C16.4183 2 20 5.64588 20 10.1433C20 14.6055 17.4467 19.8124 13.4629 21.6744ZM10.9666 5.9318C11.6301 5.6894 12.3698 5.6894 13.0334 5.9318L15.3753 6.78735C15.9163 6.98499 16.25 7.46744 16.25 8.00001C16.25 8.53258 15.9163 9.01502 15.3753 9.21267L15.25 9.25844V11.7002C15.25 12.3732 14.856 13.0287 14.1693 13.2821C13.6442 13.4759 12.779 13.75 12 13.75C11.221 13.75 10.3558 13.4759 9.83069 13.2821C9.14396 13.0287 8.75 12.3732 8.75 11.7002V9.25843L8.62471 9.21265C8.08368 9.01501 7.75 8.53256 7.75 7.99999C7.75 7.46742 8.08368 6.98498 8.62471 6.78733L10.9666 5.9318Z" fill="black"/>
<path fill-rule="evenodd" clip-rule="evenodd" d="M11.4813 7.34073C11.8125 7.21976 12.1875 7.21976 12.5187 7.34073L14.3233 8.00001L12.5187 8.65927C12.1875 8.78024 11.8125 8.78024 11.4813 8.65927L9.67667 7.99999L11.4813 7.34073Z" fill="black"/>
<path d="M10.25 11.7002V9.8064L10.9666 10.0682C11.6302 10.3106 12.3699 10.3106 13.0334 10.0682L13.75 9.80641V11.7002C13.75 11.805 13.6931 11.859 13.65 11.8749C13.1488 12.0598 12.4959 12.25 12 12.25C11.5041 12.25 10.8512 12.0598 10.35 11.8749C10.3069 11.859 10.25 11.805 10.25 11.7002Z" fill="black"/>
</svg>
