<svg width="24" height="24" viewBox="0 0 24 24" fill="none" xmlns="http://www.w3.org/2000/svg">
<path fill-rule="evenodd" clip-rule="evenodd" d="M12 2C7.58172 2 4 5.64588 4 10.1433C4 14.6055 6.55332 19.8124 10.5371 21.6744C11.4657 22.1085 12.5343 22.1085 13.4629 21.6744C17.4467 19.8124 20 14.6055 20 10.1433C20 5.64588 16.4183 2 12 2ZM8.25 10C8.25 7.92893 9.92893 6.25 12 6.25C14.0711 6.25 15.75 7.92893 15.75 10C15.75 10.7628 15.5217 11.4731 15.1304 12.0653L16.0317 12.9715C16.3238 13.2652 16.3225 13.7401 16.0288 14.0322C15.7351 14.3243 15.2602 14.323 14.9681 14.0293L14.0706 13.1268C13.4774 13.5203 12.7651 13.75 12 13.75C9.92893 13.75 8.25 12.0711 8.25 10ZM9.75 10C9.75 8.75736 10.7574 7.75 12 7.75C13.2426 7.75 14.25 8.75736 14.25 10C14.25 10.6202 14.0001 11.1806 13.5937 11.5883C13.1854 11.9979 12.6229 12.25 12 12.25C10.7574 12.25 9.75 11.2426 9.75 10Z" fill="black"/>
</svg>
