<svg width="24" height="24" viewBox="0 0 24 24" fill="none" xmlns="http://www.w3.org/2000/svg">
<path fill-rule="evenodd" clip-rule="evenodd" d="M18.5 14C16.567 14 15 15.4584 15 17.2573C15 19.0422 16.1171 21.125 17.86 21.8698C18.2663 22.0434 18.7337 22.0434 19.14 21.8698C20.8829 21.125 22 19.0422 22 17.2573C22 15.4584 20.433 14 18.5 14ZM18.5 18.5C19.0523 18.5 19.5 18.0523 19.5 17.5C19.5 16.9477 19.0523 16.5 18.5 16.5C17.9477 16.5 17.5 16.9477 17.5 17.5C17.5 18.0523 17.9477 18.5 18.5 18.5Z" fill="black"/>
<path fill-rule="evenodd" clip-rule="evenodd" d="M5.5 2C3.567 2 2 3.45835 2 5.25732C2 7.04219 3.11708 9.12497 4.85997 9.86978C5.26626 10.0434 5.73374 10.0434 6.14003 9.86978C7.88292 9.12497 9 7.04219 9 5.25732C9 3.45835 7.433 2 5.5 2ZM5.5 6.5C6.05228 6.5 6.5 6.05228 6.5 5.5C6.5 4.94772 6.05228 4.5 5.5 4.5C4.94772 4.5 4.5 4.94772 4.5 5.5C4.5 6.05228 4.94772 6.5 5.5 6.5Z" fill="black"/>
<path fill-rule="evenodd" clip-rule="evenodd" d="M11.25 5C11.25 4.58579 11.5858 4.25 12 4.25H16.1319C18.8831 4.25 19.9294 7.843 17.6083 9.32007L7.197 15.9454C6.14195 16.6168 6.61754 18.25 7.86809 18.25H10.1893L9.96965 18.0303C9.67675 17.7374 9.67675 17.2626 9.96965 16.9697C10.2625 16.6768 10.7374 16.6768 11.0303 16.9697L12.5303 18.4697C12.8232 18.7626 12.8232 19.2374 12.5303 19.5303L11.0303 21.0303C10.7374 21.3232 10.2625 21.3232 9.96965 21.0303C9.67675 20.7374 9.67675 20.2626 9.96965 19.9697L10.1893 19.75H7.86809C5.11685 19.75 4.07059 16.157 6.39169 14.6799L16.803 8.05458C17.858 7.38318 17.3824 5.75 16.1319 5.75H12C11.5858 5.75 11.25 5.41421 11.25 5Z" fill="black"/>
</svg>
