<svg width="24" height="24" viewBox="0 0 24 24" fill="none" xmlns="http://www.w3.org/2000/svg">
<path fill-rule="evenodd" clip-rule="evenodd" d="M12.75 2C12.75 1.58579 12.4142 1.25 12 1.25C11.5858 1.25 11.25 1.58579 11.25 2V3.5H6.70399C6.04642 3.5 5.71764 3.5 5.41593 3.5982C5.28282 3.64152 5.15463 3.6987 5.03346 3.76879C4.75882 3.92767 4.53915 4.1723 4.09981 4.66156C3.24911 5.60893 2.82376 6.08262 2.72136 6.63619C2.67687 6.87669 2.67687 7.12331 2.72136 7.36381C2.82376 7.91738 3.24911 8.39107 4.09981 9.33844C4.53915 9.8277 4.75882 10.0723 5.03346 10.2312C5.15463 10.3013 5.28282 10.3585 5.41593 10.4018C5.71764 10.5 6.04642 10.5 6.70399 10.5H11.25V12.5H6.5C5.09554 12.5 4.39331 12.5 3.88886 12.8371C3.67048 12.983 3.48298 13.1705 3.33706 13.3889C3 13.8933 3 14.5955 3 16C3 17.4045 3 18.1067 3.33706 18.6111C3.48298 18.8295 3.67048 19.017 3.88886 19.1629C4.39331 19.5 5.09554 19.5 6.5 19.5H11.25V21.25H10C9.58579 21.25 9.25 21.5858 9.25 22C9.25 22.4142 9.58579 22.75 10 22.75H14C14.4142 22.75 14.75 22.4142 14.75 22C14.75 21.5858 14.4142 21.25 14 21.25H12.75V19.5H17.296C17.9536 19.5 18.2824 19.5 18.5841 19.4018C18.7172 19.3585 18.8454 19.3013 18.9665 19.2312C19.2412 19.0723 19.4608 18.8277 19.9002 18.3384C20.7509 17.3911 21.1762 16.9174 21.2786 16.3638C21.3231 16.1233 21.3231 15.8767 21.2786 15.6362C21.1762 15.0826 20.7509 14.6089 19.9002 13.6616C19.4608 13.1723 19.2412 12.9277 18.9665 12.7688C18.8454 12.6987 18.7172 12.6415 18.5841 12.5982C18.2824 12.5 17.9536 12.5 17.296 12.5H12.75V10.5H17.5C18.9045 10.5 19.6067 10.5 20.1111 10.1629C20.3295 10.017 20.517 9.82952 20.6629 9.61114C21 9.10669 21 8.40446 21 7C21 5.59554 21 4.89331 20.6629 4.38886C20.517 4.17048 20.3295 3.98298 20.1111 3.83706C19.6067 3.5 18.9045 3.5 17.5 3.5H12.75V2ZM9 6.25C8.58579 6.25 8.25 6.58579 8.25 7C8.25 7.41421 8.58579 7.75 9 7.75H15C15.4142 7.75 15.75 7.41421 15.75 7C15.75 6.58579 15.4142 6.25 15 6.25H9ZM8.25 16C8.25 15.5858 8.58579 15.25 9 15.25H15C15.4142 15.25 15.75 15.5858 15.75 16C15.75 16.4142 15.4142 16.75 15 16.75H9C8.58579 16.75 8.25 16.4142 8.25 16Z" fill="black"/>
</svg>
