<svg width="24" height="24" viewBox="0 0 24 24" fill="none" xmlns="http://www.w3.org/2000/svg">
<path opacity="0.5" d="M17 14.5C17 18.6421 13.6421 22 9.5 22C5.35786 22 2 18.6421 2 14.5C2 10.3579 5.35786 7 9.5 7C13.6421 7 17 10.3579 17 14.5Z" fill="black"/>
<path d="M16.6707 3.16451C16.4855 2.79403 16.035 2.64386 15.6645 2.8291C15.294 3.01434 15.1438 3.46485 15.3291 3.83533L15.8291 4.83533C16.0143 5.20581 16.4648 5.35598 16.8353 5.17074C17.2058 4.9855 17.356 4.53499 17.1707 4.16451L16.6707 3.16451Z" fill="black"/>
<path d="M19.8353 6.8291C19.4648 6.64386 19.0143 6.79403 18.8291 7.16451C18.6438 7.53499 18.794 7.9855 19.1645 8.17074L20.1645 8.67074C20.535 8.85598 20.9855 8.70581 21.1707 8.33533C21.356 7.96485 21.2058 7.51434 20.8353 7.3291L19.8353 6.8291Z" fill="black"/>
<path d="M20.5302 4.53025C20.8231 4.23736 20.8231 3.76248 20.5302 3.46959C20.2373 3.1767 19.7625 3.1767 19.4696 3.46959L18.4696 4.46959C18.1767 4.76248 18.1767 5.23736 18.4696 5.53025C18.7625 5.82314 19.2373 5.82314 19.5302 5.53025L20.5302 4.53025Z" fill="black"/>
<path d="M15.307 9.75335L17.5301 7.53025C17.823 7.23736 17.823 6.76248 17.5301 6.46959C17.2372 6.1767 16.7623 6.1767 16.4695 6.46959L14.2463 8.69271C14.6342 9.01007 14.9896 9.36552 15.307 9.75335Z" fill="black"/>
</svg>
