<svg width="24" height="24" viewBox="0 0 24 24" fill="none" xmlns="http://www.w3.org/2000/svg">
<path opacity="0.5" d="M2 12C2 7.28595 2 4.92893 3.46447 3.46447C4.92893 2 7.28595 2 12 2C16.714 2 19.0711 2 20.5355 3.46447C22 4.92893 22 7.28595 22 12C22 16.714 22 19.0711 20.5355 20.5355C19.0711 22 16.714 22 12 22C7.28595 22 4.92893 22 3.46447 20.5355C2 19.0711 2 16.714 2 12Z" fill="black"/>
<path fill-rule="evenodd" clip-rule="evenodd" d="M21.9626 8.41231C21.8202 9.65939 21.2708 10.8688 20.3142 11.8253C18.8218 13.3178 16.7136 13.8192 14.8074 13.3297C14.5 13.2508 14.1677 13.3207 13.9433 13.5451L12.4136 15.0748L12.4107 15.0719L10.9532 13.6303C10.6587 13.3391 10.1838 13.3417 9.89254 13.6362C9.60127 13.9307 9.60388 14.4055 9.89838 14.6968L11.3529 16.1354L10.8496 16.6388C10.5847 16.9037 10.2137 17.0338 9.84133 16.9924L8.10084 16.7991C7.91528 16.7784 7.74226 16.6953 7.61024 16.5633L7.43673 16.3897C7.30472 16.2577 7.22156 16.0847 7.20094 15.8991L7.00755 14.1587C6.96618 13.7863 7.09632 13.4153 7.36124 13.1504L10.4547 10.057C10.6791 9.83251 10.7492 9.50003 10.6703 9.19259C10.1808 7.28637 10.6822 5.1782 12.1747 3.68575C13.1312 2.72922 14.3407 2.17975 15.5878 2.03735C16.4945 2.07068 17.2684 2.13372 17.9361 2.253C18.8063 2.51972 19.6258 2.9973 20.3142 3.68575C21.0027 4.37418 21.4802 5.19362 21.747 6.06382C21.8663 6.73153 21.9293 7.50553 21.9626 8.41231ZM14.9882 6.6549C15.639 6.00402 16.6943 6.00402 17.3452 6.6549C17.9961 7.30577 17.9961 8.36104 17.3452 9.01192C16.6943 9.66279 15.639 9.66279 14.9882 9.01192C14.3373 8.36104 14.3373 7.30577 14.9882 6.6549Z" fill="black"/>
</svg>
