<svg width="24" height="24" viewBox="0 0 24 24" fill="none" xmlns="http://www.w3.org/2000/svg">
<path opacity="0.5" d="M2 16C2 13.1716 2 11.7574 2.87868 10.8787C3.75736 10 5.17157 10 8 10H16C18.8284 10 20.2426 10 21.1213 10.8787C22 11.7574 22 13.1716 22 16C22 18.8284 22 20.2426 21.1213 21.1213C20.2426 22 18.8284 22 16 22H8C5.17157 22 3.75736 22 2.87868 21.1213C2 20.2426 2 18.8284 2 16Z" fill="black"/>
<path d="M6.75 8C6.75 5.10051 9.10051 2.75 12 2.75C14.4453 2.75 16.5018 4.42242 17.0846 6.68694C17.1879 7.08808 17.5968 7.32957 17.9979 7.22633C18.3991 7.12308 18.6405 6.7142 18.5373 6.31306C17.788 3.4019 15.1463 1.25 12 1.25C8.27208 1.25 5.25 4.27208 5.25 8V10.0546C5.68651 10.022 6.18264 10.0089 6.75 10.0036V8Z" fill="black"/>
</svg>
