<svg width="24" height="24" viewBox="0 0 24 24" fill="none" xmlns="http://www.w3.org/2000/svg">
<path opacity="0.5" d="M3.46447 3.46447C2 4.92893 2 7.28595 2 12C2 16.714 2 19.0711 3.46447 20.5355C4.92893 22 7.28595 22 12 22C16.714 22 19.0711 22 20.5355 20.5355C22 19.0711 22 16.714 22 12C22 7.28595 22 4.92893 20.5355 3.46447C19.0711 2 16.714 2 12 2C7.28595 2 4.92893 2 3.46447 3.46447Z" fill="black"/>
<path d="M10.004 5.7517C10.4182 5.7495 10.7522 5.41194 10.75 4.99773C10.7478 4.58353 10.4102 4.24952 9.99602 4.25172C8.91427 4.25745 8.01583 4.28215 7.28261 4.41042C6.53075 4.54195 5.88786 4.79244 5.36144 5.29379C4.90634 5.72721 4.60191 6.16616 4.43626 6.79676C4.28612 7.36833 4.25937 8.07154 4.25231 8.99426C4.24914 9.40846 4.58234 9.74681 4.99654 9.74998C5.41074 9.75315 5.74909 9.41994 5.75226 9.00574C5.75952 8.05697 5.79204 7.53952 5.88704 7.17786C5.96654 6.87522 6.09314 6.66836 6.39592 6.38C6.63788 6.14955 6.96814 5.98821 7.54109 5.88798C8.13268 5.78449 8.91071 5.75749 10.004 5.7517Z" fill="black"/>
<path d="M14.0041 4.25172C13.5899 4.24952 13.2523 4.58352 13.2501 4.99773C13.2479 5.41194 13.5819 5.7495 13.9961 5.7517C15.0894 5.7575 15.8674 5.78449 16.4589 5.88799C17.0319 5.98822 17.3621 6.14956 17.6041 6.37999C17.9069 6.66836 18.0335 6.87522 18.113 7.17786C18.208 7.53952 18.2405 8.05697 18.2477 9.00574C18.2509 9.41994 18.5893 9.75315 19.0035 9.74998C19.4177 9.74681 19.7509 9.40846 19.7477 8.99426C19.7406 8.07154 19.7139 7.36833 19.5637 6.79676C19.3981 6.16616 19.0937 5.72721 18.6386 5.29379C18.1121 4.79244 17.4693 4.54196 16.7174 4.41043C15.9842 4.28216 15.0858 4.25746 14.0041 4.25172Z" fill="black"/>
<path d="M5 11.2501C4.58579 11.2501 4.25 11.5858 4.25 12.0001C4.25 12.4143 4.58579 12.7501 5 12.7501H19C19.4142 12.7501 19.75 12.4143 19.75 12.0001C19.75 11.5858 19.4142 11.2501 19 11.2501H5Z" fill="black"/>
<path d="M5.75226 14.9944C5.74909 14.5802 5.41074 14.247 4.99654 14.2501C4.58234 14.2533 4.24914 14.5916 4.25231 15.0058C4.25937 15.9286 4.28612 16.6318 4.43626 17.2034C4.60191 17.8339 4.90634 18.2729 5.36144 18.7063C5.88785 19.2077 6.53073 19.4581 7.28258 19.5897C8.01578 19.718 8.91421 19.7427 9.99593 19.7484C10.4101 19.7506 10.7477 19.4166 10.7499 19.0024C10.7521 18.5882 10.4181 18.2506 10.0039 18.2484C8.91065 18.2426 8.13264 18.2156 7.54107 18.1121C6.96814 18.0119 6.63788 17.8506 6.39592 17.6201C6.09314 17.3318 5.96654 17.1249 5.88704 16.8223C5.79204 16.4606 5.75952 15.9431 5.75226 14.9944Z" fill="black"/>
<path d="M19.7477 15.0058C19.7509 14.5916 19.4177 14.2533 19.0035 14.2501C18.5893 14.247 18.2509 14.5802 18.2477 14.9944C18.2405 15.9431 18.208 16.4606 18.113 16.8223C18.0335 17.1249 17.9069 17.3318 17.6041 17.6201C17.3621 17.8506 17.0319 18.0119 16.4589 18.1121C15.8674 18.2156 15.0894 18.2426 13.9961 18.2484C13.5819 18.2506 13.2479 18.5882 13.2501 19.0024C13.2523 19.4166 13.5899 19.7506 14.0041 19.7484C15.0858 19.7427 15.9842 19.718 16.7174 19.5897C17.4693 19.4581 18.1121 19.2077 18.6386 18.7063C19.0937 18.2729 19.3981 17.8339 19.5637 17.2034C19.7139 16.6318 19.7406 15.9286 19.7477 15.0058Z" fill="black"/>
</svg>
