<svg width="24" height="24" viewBox="0 0 24 24" fill="none" xmlns="http://www.w3.org/2000/svg">
<path opacity="0.5" d="M3 10.4167C3 7.21907 3 5.62028 3.37752 5.08241C3.75503 4.54454 5.25832 4.02996 8.26491 3.00079L8.83772 2.80472C10.405 2.26824 11.1886 2 12 2C12.8114 2 13.595 2.26824 15.1623 2.80472L15.7351 3.00079C18.7417 4.02996 20.245 4.54454 20.6225 5.08241C21 5.62028 21 7.21907 21 10.4167V11.9914C21 17.6294 16.761 20.3655 14.1014 21.5273C13.38 21.8424 13.0193 22 12 22C10.9807 22 10.62 21.8424 9.89856 21.5273C7.23896 20.3655 3 17.6294 3 11.9914V10.4167Z" fill="black"/>
<path d="M10.0303 8.96967C9.73744 8.67678 9.26256 8.67678 8.96967 8.96967C8.67678 9.26256 8.67678 9.73744 8.96967 10.0303L10.9394 12L8.96969 13.9697C8.6768 14.2626 8.6768 14.7374 8.96969 15.0303C9.26258 15.3232 9.73746 15.3232 10.0304 15.0303L12 13.0607L13.9696 15.0303C14.2625 15.3232 14.7374 15.3232 15.0303 15.0303C15.3232 14.7374 15.3232 14.2625 15.0303 13.9696L13.0607 12L15.0303 10.0303C15.3232 9.73746 15.3232 9.26258 15.0303 8.96969C14.7374 8.6768 14.2626 8.6768 13.9697 8.96969L12 10.9394L10.0303 8.96967Z" fill="black"/>
</svg>
