<svg width="24" height="24" viewBox="0 0 24 24" fill="none" xmlns="http://www.w3.org/2000/svg">
<path d="M6.25993 21.3884H6C5.05719 21.3884 4.58579 21.3884 4.29289 21.0955C4 20.8026 4 20.3312 4 19.3884V18.2764C4 17.7579 4 17.4987 4.13318 17.2672C4.26636 17.0356 4.46727 16.9188 4.8691 16.6851C7.51457 15.1464 11.2715 14.2803 13.7791 15.7759C13.9475 15.8764 14.0991 15.9977 14.2285 16.1431C14.7866 16.77 14.746 17.7161 14.1028 18.2775C13.9669 18.396 13.8222 18.486 13.6764 18.5172C13.7962 18.5033 13.911 18.4874 14.0206 18.4699C14.932 18.3245 15.697 17.8375 16.3974 17.3084L18.2046 15.9433C18.8417 15.462 19.7873 15.4619 20.4245 15.943C20.9982 16.3762 21.1736 17.0894 20.8109 17.6707C20.388 18.3487 19.7921 19.216 19.2199 19.7459C18.6469 20.2766 17.7939 20.7504 17.0975 21.0865C16.326 21.4589 15.4738 21.6734 14.6069 21.8138C12.8488 22.0983 11.0166 22.0549 9.27633 21.6964C8.29253 21.4937 7.27079 21.3884 6.25993 21.3884Z" fill="#1C274C"/>
<path d="M10.8613 3.36335C11.3679 2.45445 11.6213 2 12 2C12.3787 2 12.6321 2.45445 13.1387 3.36335L13.2698 3.59849C13.4138 3.85677 13.4858 3.98591 13.598 4.07112C13.7103 4.15633 13.8501 4.18796 14.1296 4.25122L14.3842 4.30881C15.3681 4.53142 15.86 4.64273 15.977 5.01909C16.0941 5.39546 15.7587 5.78763 15.088 6.57197L14.9144 6.77489C14.7238 6.99777 14.6285 7.10922 14.5857 7.24709C14.5428 7.38496 14.5572 7.53365 14.586 7.83102L14.6122 8.10176C14.7136 9.14824 14.7644 9.67148 14.4579 9.90409C14.1515 10.1367 13.6909 9.92462 12.7697 9.50047L12.5314 9.39074C12.2696 9.27021 12.1387 9.20994 12 9.20994C11.8613 9.20994 11.7304 9.27021 11.4686 9.39074L11.2303 9.50047C10.3091 9.92462 9.84847 10.1367 9.54206 9.90409C9.23565 9.67148 9.28635 9.14824 9.38776 8.10176L9.41399 7.83102C9.44281 7.53364 9.45722 7.38496 9.41435 7.24709C9.37147 7.10922 9.27617 6.99777 9.08557 6.77489L8.91204 6.57197C8.2413 5.78763 7.90593 5.39546 8.02297 5.01909C8.14001 4.64273 8.63194 4.53142 9.61581 4.30881L9.87035 4.25122C10.1499 4.18796 10.2897 4.15633 10.402 4.07112C10.5142 3.98591 10.5862 3.85677 10.7302 3.59849L10.8613 3.36335Z" fill="#1C274C"/>
<path d="M19.4306 7.68167C19.684 7.22722 19.8106 7 20 7C20.1894 7 20.316 7.22723 20.5694 7.68167L20.6349 7.79925C20.7069 7.92839 20.7429 7.99296 20.799 8.03556C20.8551 8.07817 20.925 8.09398 21.0648 8.12561L21.1921 8.15441C21.684 8.26571 21.93 8.32136 21.9885 8.50955C22.047 8.69773 21.8794 8.89381 21.544 9.28598L21.4572 9.38744C21.3619 9.49889 21.3143 9.55461 21.2928 9.62354C21.2714 9.69248 21.2786 9.76682 21.293 9.91551L21.3061 10.0509C21.3568 10.5741 21.3822 10.8357 21.229 10.952C21.0758 11.0683 20.8455 10.9623 20.3849 10.7502L20.2657 10.6954C20.1348 10.6351 20.0694 10.605 20 10.605C19.9306 10.605 19.8652 10.6351 19.7343 10.6954L19.6151 10.7502C19.1545 10.9623 18.9242 11.0683 18.771 10.952C18.6178 10.8357 18.6432 10.5741 18.6939 10.0509L18.707 9.91551C18.7214 9.76682 18.7286 9.69248 18.7072 9.62354C18.6857 9.55461 18.6381 9.49889 18.5428 9.38744L18.456 9.28598C18.1207 8.89381 17.953 8.69773 18.0115 8.50955C18.07 8.32136 18.316 8.26571 18.8079 8.15441L18.9352 8.12561C19.075 8.09398 19.1449 8.07817 19.201 8.03556C19.2571 7.99296 19.2931 7.92839 19.3651 7.79925L19.4306 7.68167Z" fill="#1C274C"/>
<path d="M3.43063 7.68167C3.68396 7.22722 3.81063 7 4 7C4.18937 7 4.31604 7.22723 4.56937 7.68167L4.63491 7.79925C4.7069 7.92839 4.74289 7.99296 4.79901 8.03556C4.85513 8.07817 4.92503 8.09398 5.06482 8.12561L5.19209 8.15441C5.68403 8.26571 5.93 8.32136 5.98852 8.50955C6.04704 8.69773 5.87935 8.89381 5.54398 9.28598L5.45722 9.38744C5.36191 9.49889 5.31426 9.55461 5.29283 9.62354C5.27139 9.69248 5.27859 9.76682 5.293 9.91551L5.30612 10.0509C5.35682 10.5741 5.38218 10.8357 5.22897 10.952C5.07576 11.0683 4.84547 10.9623 4.38487 10.7502L4.2657 10.6954C4.13481 10.6351 4.06937 10.605 4 10.605C3.93063 10.605 3.86519 10.6351 3.7343 10.6954L3.61513 10.7502C3.15454 10.9623 2.92424 11.0683 2.77103 10.952C2.61782 10.8357 2.64318 10.5741 2.69388 10.0509L2.707 9.91551C2.72141 9.76682 2.72861 9.69248 2.70717 9.62354C2.68574 9.55461 2.63809 9.49889 2.54278 9.38744L2.45602 9.28598C2.12065 8.89381 1.95296 8.69773 2.01148 8.50955C2.07 8.32136 2.31597 8.26571 2.80791 8.15441L2.93518 8.12561C3.07497 8.09398 3.14487 8.07817 3.20099 8.03556C3.25711 7.99296 3.29311 7.92839 3.36509 7.79925L3.43063 7.68167Z" fill="#1C274C"/>
</svg>
