<svg width="24" height="24" viewBox="0 0 24 24" fill="none" xmlns="http://www.w3.org/2000/svg">
<path fill-rule="evenodd" clip-rule="evenodd" d="M3.375 1.625C3.78921 1.625 4.125 1.96079 4.125 2.375L4.125 22.375C4.125 22.7892 3.78921 23.125 3.375 23.125C2.96079 23.125 2.625 22.7892 2.625 22.375L2.625 2.375C2.625 1.96079 2.96079 1.625 3.375 1.625Z" fill="black"/>
<path d="M7.375 7.875C7.375 6.94038 7.375 6.47308 7.57596 6.125C7.70762 5.89697 7.89697 5.70761 8.125 5.57596C8.47308 5.375 8.94039 5.375 9.875 5.375H18.875C19.8096 5.375 20.2769 5.375 20.625 5.57596C20.853 5.70761 21.0424 5.89697 21.174 6.125C21.375 6.47308 21.375 6.94038 21.375 7.875C21.375 8.80962 21.375 9.27692 21.174 9.625C21.0424 9.85303 20.853 10.0424 20.625 10.174C20.2769 10.375 19.8096 10.375 18.875 10.375L9.875 10.375C8.94038 10.375 8.47308 10.375 8.125 10.174C7.89697 10.0424 7.70762 9.85303 7.57596 9.625C7.375 9.27692 7.375 8.80962 7.375 7.875Z" fill="black"/>
<path d="M7.375 16.875C7.375 15.9404 7.375 15.4731 7.57596 15.125C7.70762 14.897 7.89697 14.7076 8.125 14.576C8.47308 14.375 8.94038 14.375 9.875 14.375L15.875 14.375C16.8096 14.375 17.2769 14.375 17.625 14.576C17.853 14.7076 18.0424 14.897 18.174 15.125C18.375 15.4731 18.375 15.9404 18.375 16.875C18.375 17.8096 18.375 18.2769 18.174 18.625C18.0424 18.853 17.853 19.0424 17.625 19.174C17.2769 19.375 16.8096 19.375 15.875 19.375H9.875C8.94038 19.375 8.47308 19.375 8.125 19.174C7.89697 19.0424 7.70761 18.853 7.57596 18.625C7.375 18.2769 7.375 17.8096 7.375 16.875Z" fill="black"/>
</svg>
