<svg width="24" height="24" viewBox="0 0 24 24" fill="none" xmlns="http://www.w3.org/2000/svg">
<path fill-rule="evenodd" clip-rule="evenodd" d="M3.17157 3.17157C2 4.34315 2 6.22876 2 10V14C2 17.7712 2 19.6569 3.17157 20.8284C4.34315 22 6.22876 22 10 22H14C17.7712 22 19.6569 22 20.8284 20.8284C22 19.6569 22 17.7712 22 14V10C22 6.22876 22 4.34315 20.8284 3.17157C19.6569 2 17.7712 2 14 2H10C6.22876 2 4.34315 2 3.17157 3.17157ZM8.75 6C8.75 5.58579 8.41421 5.25 8 5.25C7.58579 5.25 7.25 5.58579 7.25 6V7.25H6C5.58579 7.25 5.25 7.58579 5.25 8C5.25 8.41421 5.58579 8.75 6 8.75H7.25L7.25 12.052C7.24997 12.9505 7.24995 13.6997 7.32991 14.2945C7.41432 14.9223 7.59999 15.4891 8.05546 15.9445C8.51093 16.4 9.07773 16.5857 9.70552 16.6701C10.3003 16.7501 11.0495 16.75 11.948 16.75L15.25 16.75V18C15.25 18.4142 15.5858 18.75 16 18.75C16.4142 18.75 16.75 18.4142 16.75 18V16.75H18C18.4142 16.75 18.75 16.4142 18.75 16C18.75 15.5858 18.4142 15.25 18 15.25H12C11.036 15.25 10.3884 15.2484 9.90539 15.1835C9.44393 15.1214 9.24643 15.0142 9.11612 14.8839C8.9858 14.7536 8.87858 14.5561 8.81653 14.0946C8.75159 13.6116 8.75 12.964 8.75 12V6ZM12 8.75C12.964 8.75 13.6116 8.75159 14.0946 8.81653C14.5561 8.87858 14.7536 8.9858 14.8839 9.11612C15.0142 9.24643 15.1214 9.44393 15.1835 9.90539C15.2484 10.3884 15.25 11.036 15.25 12V13.4706C15.25 13.8848 15.5858 14.2206 16 14.2206C16.4142 14.2206 16.75 13.8848 16.75 13.4706L16.75 11.948C16.75 11.0495 16.7501 10.3003 16.6701 9.70552C16.5857 9.07773 16.4 8.51093 15.9445 8.05546C15.4891 7.59999 14.9223 7.41432 14.2945 7.32991C13.6997 7.24995 12.9505 7.24997 12.052 7.25L10.5294 7.25C10.1152 7.25 9.77941 7.58579 9.77941 8C9.77941 8.41421 10.1152 8.75 10.5294 8.75H12Z" fill="black"/>
</svg>
