<svg width="24" height="24" viewBox="0 0 24 24" fill="none" xmlns="http://www.w3.org/2000/svg">
<path d="M2 18.1136V5.88638C2 4.18423 2 3.33316 2.54242 3.05402C3.08484 2.77488 3.77738 3.26956 5.16247 4.25891L6.74371 5.38837C7.35957 5.82827 7.6675 6.04822 7.83375 6.37127C8 6.69432 8 7.07274 8 7.82957V16.1704C8 16.9273 8 17.3057 7.83375 17.6287C7.6675 17.9518 7.35957 18.1717 6.74372 18.6116L5.16248 19.7411C3.77738 20.7304 3.08484 21.2251 2.54242 20.946C2 20.6668 2 19.8158 2 18.1136Z" fill="black"/>
<path d="M22 18.1136V5.88638C22 4.18423 22 3.33316 21.4576 3.05402C20.9152 2.77488 20.2226 3.26956 18.8375 4.25891L17.2563 5.38837C16.6404 5.82827 16.3325 6.04822 16.1662 6.37127C16 6.69432 16 7.07274 16 7.82957V16.1704C16 16.9273 16 17.3057 16.1662 17.6287C16.3325 17.9518 16.6404 18.1717 17.2563 18.6116L18.8375 19.7411C20.2226 20.7304 20.9152 21.2251 21.4576 20.946C22 20.6668 22 19.8158 22 18.1136Z" fill="black"/>
<path fill-rule="evenodd" clip-rule="evenodd" d="M12 1.25C12.4142 1.25 12.75 1.58579 12.75 2V6C12.75 6.41421 12.4142 6.75 12 6.75C11.5858 6.75 11.25 6.41421 11.25 6V2C11.25 1.58579 11.5858 1.25 12 1.25ZM12 9.25C12.4142 9.25 12.75 9.58579 12.75 10V14C12.75 14.4142 12.4142 14.75 12 14.75C11.5858 14.75 11.25 14.4142 11.25 14V10C11.25 9.58579 11.5858 9.25 12 9.25ZM12 17.25C12.4142 17.25 12.75 17.5858 12.75 18V22C12.75 22.4142 12.4142 22.75 12 22.75C11.5858 22.75 11.25 22.4142 11.25 22V18C11.25 17.5858 11.5858 17.25 12 17.25Z" fill="black"/>
</svg>
