<svg width="24" height="24" viewBox="0 0 24 24" fill="none" xmlns="http://www.w3.org/2000/svg">
<path d="M6 4.5C6 3.56538 6 3.09808 6.20096 2.75C6.33261 2.52197 6.52197 2.33261 6.75 2.20096C7.09808 2 7.56538 2 8.5 2H15.5C16.4346 2 16.9019 2 17.25 2.20096C17.478 2.33261 17.6674 2.52197 17.799 2.75C18 3.09808 18 3.56538 18 4.5C18 5.43462 18 5.90192 17.799 6.25C17.6674 6.47803 17.478 6.66739 17.25 6.79904C16.9019 7 16.4346 7 15.5 7H8.5C7.56538 7 7.09808 7 6.75 6.79904C6.52197 6.66739 6.33261 6.47803 6.20096 6.25C6 5.90192 6 5.43462 6 4.5Z" fill="black"/>
<path d="M5.00214 3.93896C4.84746 4.07635 4.75 4.27674 4.75 4.4999C4.75 4.72305 4.84746 4.92344 5.00214 5.06083C4.99998 4.89607 4.99999 4.72193 5 4.54013V4.45968C4.99999 4.27787 4.99998 4.10373 5.00214 3.93896Z" fill="black"/>
<path d="M10 16V20C10 20.9428 10 21.4142 10.2929 21.7071C10.5858 22 11.0572 22 12 22C12.9428 22 13.4142 22 13.7071 21.7071C14 21.4142 14 20.9428 14 20V16C14 15.0572 14 14.5858 13.7071 14.2929C13.4142 14 12.9428 14 12 14C11.0572 14 10.5858 14 10.2929 14.2929C10 14.5858 10 15.0572 10 16Z" fill="black"/>
<path d="M18.9941 5.25H19.045C19.4997 5.25 19.8048 5.25037 20.0413 5.26579C20.2715 5.2808 20.384 5.30776 20.458 5.3369C20.7807 5.46395 21.0362 5.71937 21.1632 6.04208C21.1924 6.11609 21.2193 6.22858 21.2343 6.45878C21.2497 6.6953 21.2501 7.00044 21.2501 7.4551C21.2501 8.29243 21.2395 8.52185 21.1788 8.69392C21.0745 8.98918 20.8632 9.23455 20.5866 9.38148C20.4255 9.4671 20.2002 9.5116 19.3721 9.63581L15.2487 10.2543C14.4761 10.3702 13.8275 10.4675 13.315 10.6116C12.7719 10.7643 12.2914 10.9923 11.9163 11.4278C11.5332 11.8727 11.375 12.4055 11.3069 13.0062C11.5111 12.9999 11.7267 13 11.9455 13H12.0544C12.3193 13 12.5796 12.9999 12.8206 13.011C12.8706 12.6902 12.9479 12.5286 13.0529 12.4067C13.1624 12.2796 13.3304 12.1654 13.721 12.0556C14.1319 11.94 14.6862 11.8555 15.518 11.7307L19.7138 11.1014C20.3645 11.0044 20.8714 10.9288 21.2905 10.7061C21.8988 10.3829 22.3637 9.84304 22.5931 9.19346C22.7512 8.74599 22.7507 8.23353 22.7502 7.57559L22.7501 7.43098C22.7501 7.00661 22.7501 6.65233 22.7311 6.3612C22.7114 6.05823 22.6688 5.77171 22.5589 5.49258C22.2794 4.78261 21.7175 4.22069 21.0075 3.94117C20.7284 3.83128 20.4419 3.78872 20.1389 3.76897C19.8478 3.74999 19.4935 3.74999 19.0691 3.75H18.9941C19 3.96867 19 4.20681 18.9999 4.45976V4.54024C19 4.7932 19 5.03133 18.9941 5.25Z" fill="black"/>
</svg>
