<svg width="24" height="24" viewBox="0 0 24 24" fill="none" xmlns="http://www.w3.org/2000/svg">
<path fill-rule="evenodd" clip-rule="evenodd" d="M10 6V18C10 19.4001 10 20.1002 9.72752 20.635C9.48783 21.1054 9.10538 21.4878 8.63498 21.7275C8.1002 22 7.40013 22 6 22C4.59987 22 3.8998 22 3.36502 21.7275C2.89462 21.4878 2.51217 21.1054 2.27248 20.635C2 20.1002 2 19.4001 2 18V6C2 4.59987 2 3.8998 2.27248 3.36502C2.51217 2.89462 2.89462 2.51217 3.36502 2.27248C3.8998 2 4.59987 2 6 2C7.40013 2 8.1002 2 8.63498 2.27248C9.10538 2.51217 9.48783 2.89462 9.72752 3.36502C10 3.8998 10 4.59987 10 6ZM7 19.75C7.41421 19.75 7.75 19.4142 7.75 19C7.75 18.5858 7.41421 18.25 7 18.25H5C4.58579 18.25 4.25 18.5858 4.25 19C4.25 19.4142 4.58579 19.75 5 19.75H7Z" fill="black"/>
<path d="M19.0599 10.6144L13.2219 16.704C12.492 17.4653 12.1271 17.8459 11.8135 17.7199C11.5 17.5939 11.5 17.0666 11.5 16.0119L11.5 7.7738C11.5012 7.11381 11.7633 6.48107 12.2291 6.01357L13.2839 4.95882L13.7141 4.62987C14.7183 3.86212 15.2204 3.47825 15.7673 3.3603C16.2175 3.26322 16.6857 3.29236 17.1204 3.4445C17.6484 3.62934 18.099 4.0725 19.0003 4.95883C19.9999 5.95839 20.4997 6.45818 20.685 7.03056C20.843 7.51871 20.847 8.04366 20.6964 8.53417C20.5199 9.10931 20.0332 9.61101 19.0599 10.6144Z" fill="black"/>
<path d="M12.7897 22H17.8994C19.2995 22 19.9996 22 20.5344 21.7275C21.0048 21.4878 21.3872 21.1054 21.6269 20.635C21.8994 20.1002 21.8994 19.4001 21.8994 18C21.8994 16.5999 21.8994 15.8998 21.6269 15.365C21.3872 14.8946 21.0048 14.5122 20.5344 14.2725C19.9996 14 19.2995 14 17.8994 14H17.6797L11.878 19.798C11.636 20.0399 11.5 20.3391 11.5 20.6813C11.5 21.3936 12.0774 22 12.7897 22Z" fill="black"/>
</svg>
