<svg width="24" height="24" viewBox="0 0 24 24" fill="none" xmlns="http://www.w3.org/2000/svg">
<path fill-rule="evenodd" clip-rule="evenodd" d="M10.8468 21.9342C5.86713 21.3624 2 17.1328 2 12C2 6.47715 6.47715 2 12 2C17.5228 2 22 6.47715 22 12C22 17.1565 18.7173 16.7325 15.9135 16.3703C14.2964 16.1614 12.8386 15.9731 12.2619 16.888C11.8674 17.5136 12.2938 18.2938 12.8168 18.8168C13.4703 19.4703 13.4703 20.5297 12.8168 21.1832C12.2938 21.7062 11.5816 22.0186 10.8468 21.9342ZM11.085 6.99976C11.085 7.82818 10.4134 8.49976 9.585 8.49976C8.75658 8.49976 8.085 7.82818 8.085 6.99976C8.085 6.17133 8.75658 5.49976 9.585 5.49976C10.4134 5.49976 11.085 6.17133 11.085 6.99976ZM6.5 13C7.32843 13 8 12.3284 8 11.5C8 10.6716 7.32843 9.99998 6.5 9.99998C5.67157 9.99998 5 10.6716 5 11.5C5 12.3284 5.67157 13 6.5 13ZM17.5 13C18.3284 13 19 12.3284 19 11.5C19 10.6716 18.3284 9.99998 17.5 9.99998C16.6716 9.99998 16 10.6716 16 11.5C16 12.3284 16.6716 13 17.5 13ZM14.5 8.49998C15.3284 8.49998 16 7.82841 16 6.99998C16 6.17156 15.3284 5.49998 14.5 5.49998C13.6716 5.49998 13 6.17156 13 6.99998C13 7.82841 13.6716 8.49998 14.5 8.49998Z" fill="black"/>
</svg>
