<svg width="24" height="24" viewBox="0 0 24 24" fill="none" xmlns="http://www.w3.org/2000/svg">
<path d="M4.04537 5.49167L5.49167 4.04537C6.85525 2.68179 7.53704 2 8.38426 2C9.23148 2 9.91327 2.68179 11.2769 4.04537L8.86636 6.45586L4.04537 11.2769L4.04536 11.2768C2.68179 9.91327 2 9.23148 2 8.38426C2 7.53704 2.68179 6.85525 4.04537 5.49167L4.04537 5.49167Z" fill="black"/>
<path d="M19.9546 18.5083L18.5083 19.9546C17.1448 21.3182 16.463 22 15.6157 22C14.7685 22 14.0867 21.3182 12.7232 19.9546L12.7231 19.9546L17.5441 15.1336L19.9546 12.7231C21.3182 14.0867 22 14.7685 22 15.6157C22 16.463 21.3182 17.1448 19.9546 18.5083Z" fill="black"/>
<path d="M11.4001 18.1612L11.4001 18.1612L18.796 10.7653C17.7894 10.3464 16.5972 9.6582 15.4697 8.53068C14.342 7.40298 13.6537 6.21058 13.2348 5.2039L5.83882 12.5999L5.83879 12.5999C5.26166 13.1771 4.97307 13.4657 4.7249 13.7838C4.43213 14.1592 4.18114 14.5653 3.97634 14.995C3.80273 15.3593 3.67368 15.7465 3.41556 16.5208L2.05445 20.6042C1.92743 20.9852 2.0266 21.4053 2.31063 21.6894C2.59466 21.9734 3.01478 22.0726 3.39584 21.9456L7.47918 20.5844C8.25351 20.3263 8.6407 20.1973 9.00498 20.0237C9.43469 19.8189 9.84082 19.5679 10.2162 19.2751C10.5343 19.0269 10.823 18.7383 11.4001 18.1612Z" fill="black"/>
<path d="M20.8482 8.71306C22.3839 7.17735 22.3839 4.68748 20.8482 3.15178C19.3125 1.61607 16.8226 1.61607 15.2869 3.15178L14.3999 4.03882C14.4121 4.0755 14.4246 4.11268 14.4377 4.15035C14.7628 5.0875 15.3763 6.31601 16.5303 7.47002C17.6843 8.62403 18.9128 9.23749 19.85 9.56262C19.8875 9.57563 19.9245 9.58817 19.961 9.60026L20.8482 8.71306Z" fill="black"/>
</svg>
