<svg width="24" height="24" viewBox="0 0 24 24" fill="none" xmlns="http://www.w3.org/2000/svg">
<path d="M14.1249 12.1178L15.5 13.5M14.1249 12.1178C14.6657 11.5752 15 10.8266 15 10C15 8.34315 13.6569 7 12 7C10.3431 7 9 8.34315 9 10C9 11.6569 10.3431 13 12 13C12.8302 13 13.5817 12.6628 14.1249 12.1178Z" stroke="black" stroke-width="1.5" stroke-linecap="round"/>
<path d="M5 15.2161C4.35254 13.5622 4 11.8013 4 10.1433C4 5.64588 7.58172 2 12 2C16.4183 2 20 5.64588 20 10.1433C20 14.6055 17.4467 19.8124 13.4629 21.6744C12.5343 22.1085 11.4657 22.1085 10.5371 21.6744C9.26474 21.0797 8.13831 20.1439 7.19438 19" stroke="black" stroke-width="1.5" stroke-linecap="round"/>
</svg>
