<svg width="24" height="24" viewBox="0 0 24 24" fill="none" xmlns="http://www.w3.org/2000/svg">
<path d="M15 5L9 5C6.19108 5 4.78661 5 3.77772 5.67412C3.34096 5.96596 2.96596 6.34096 2.67412 6.77772C2 7.78661 2 9.19108 2 12C2 14.8089 2 16.2134 2.67412 17.2223C2.96596 17.659 3.34096 18.034 3.77772 18.3259C4.12468 18.5577 4.51843 18.7098 5 18.8096M9 19H15C17.8089 19 19.2134 19 20.2223 18.3259C20.659 18.034 21.034 17.659 21.3259 17.2223C22 16.2134 22 14.8089 22 12C22 9.19108 22 7.78661 21.3259 6.77772C21.034 6.34096 20.659 5.96596 20.2223 5.67412C19.8753 5.44229 19.4816 5.29018 19 5.19039" stroke="black" stroke-width="1.5" stroke-linecap="round"/>
<path d="M12 9C13.6569 9 15 10.3431 15 12C15 13.6569 13.6569 15 12 15C10.3431 15 9 13.6569 9 12C9 10.3431 10.3431 9 12 9Z" stroke="black" stroke-width="1.5"/>
<path d="M18.5 15L18.5 14M18.5 9L18.5 11.5" stroke="black" stroke-width="1.5" stroke-linecap="round"/>
<path d="M5.5 9L5.5 10M5.5 15L5.5 12.5" stroke="black" stroke-width="1.5" stroke-linecap="round"/>
</svg>
