<svg width="24" height="24" viewBox="0 0 24 24" fill="none" xmlns="http://www.w3.org/2000/svg">
<path d="M10 16.5H6" stroke="black" stroke-width="1.5" stroke-linecap="round"/>
<path d="M8 13.5H6" stroke="black" stroke-width="1.5" stroke-linecap="round"/>
<path d="M14 15C14 14.0572 14 13.5858 14.2929 13.2929C14.5858 13 15.0572 13 16 13C16.9428 13 17.4142 13 17.7071 13.2929C18 13.5858 18 14.0572 18 15C18 15.9428 18 16.4142 17.7071 16.7071C17.4142 17 16.9428 17 16 17C15.0572 17 14.5858 17 14.2929 16.7071C14 16.4142 14 15.9428 14 15Z" stroke="black" stroke-width="1.5"/>
<path d="M22 12C22 8.22876 22 6.34315 20.8284 5.17157C19.6569 4 17.7712 4 14 4H10C6.22876 4 4.34315 4 3.17157 5.17157C2 6.34315 2 8.22876 2 12C2 15.7712 2 17.6569 3.17157 18.8284C4.34315 20 6.22876 20 10 20H14C17.7712 20 19.6569 20 20.8284 18.8284C21.4816 18.1752 21.7706 17.3001 21.8985 16" stroke="black" stroke-width="1.5" stroke-linecap="round"/>
<path d="M2 10L7 10M22 10L11 10" stroke="black" stroke-width="1.5" stroke-linecap="round"/>
</svg>
