<svg width="24" height="24" viewBox="0 0 24 24" fill="none" xmlns="http://www.w3.org/2000/svg">
<path d="M15 6.80269C14.1175 6.29218 13.0929 6 12 6C8.68629 6 6 8.68629 6 12C6 15.3137 8.68629 18 12 18C13.0929 18 14.1175 17.7078 15 17.1973" stroke="black" stroke-width="1.5" stroke-linecap="round"/>
<path d="M5 10.5H10" stroke="black" stroke-width="1.5" stroke-linecap="round"/>
<path d="M5 13.5H10" stroke="black" stroke-width="1.5" stroke-linecap="round"/>
<path d="M7 3.33782C8.47087 2.48697 10.1786 2 12 2C17.5228 2 22 6.47715 22 12C22 17.5228 17.5228 22 12 22C6.47715 22 2 17.5228 2 12C2 10.1786 2.48697 8.47087 3.33782 7" stroke="black" stroke-width="1.5" stroke-linecap="round"/>
</svg>
