<svg width="24" height="24" viewBox="0 0 24 24" fill="none" xmlns="http://www.w3.org/2000/svg">
<path d="M3.17157 20.8284C4.34315 22 6.22876 22 10 22H14C17.7712 22 19.6569 22 20.8284 20.8284C22 19.6569 22 17.7712 22 14C22 12.8302 22 11.8419 21.965 11M20.8284 7.17157C19.6569 6 17.7712 6 14 6H10C6.22876 6 4.34315 6 3.17157 7.17157C2 8.34315 2 10.2288 2 14C2 15.1698 2 16.1581 2.03496 17" stroke="black" stroke-width="1.5" stroke-linecap="round"/>
<path d="M12 2C13.8856 2 14.8284 2 15.4142 2.58579C16 3.17157 16 4.11438 16 6M8.58579 2.58579C8 3.17157 8 4.11438 8 6" stroke="black" stroke-width="1.5" stroke-linecap="round"/>
<path d="M12 17.3333C13.1046 17.3333 14 16.5871 14 15.6667C14 14.7462 13.1046 14 12 14C10.8954 14 10 13.2538 10 12.3333C10 11.4129 10.8954 10.6667 12 10.6667M12 17.3333C10.8954 17.3333 10 16.5871 10 15.6667M12 17.3333V18M12 10V10.6667M12 10.6667C13.1046 10.6667 14 11.4129 14 12.3333" stroke="black" stroke-width="1.5" stroke-linecap="round"/>
</svg>
