<svg width="24" height="24" viewBox="0 0 24 24" fill="none" xmlns="http://www.w3.org/2000/svg">
<path d="M9 14H12" stroke="black" stroke-width="1.5" stroke-linecap="round"/>
<path d="M10 12V8.2C10 8.0142 10 7.9213 10.0123 7.84357C10.0801 7.41567 10.4157 7.08008 10.8436 7.01231C10.9213 7 11.0142 7 11.2 7H13.5C14.8807 7 16 8.11929 16 9.5C16 10.8807 14.8807 12 13.5 12H10ZM10 12V17M10 12H9" stroke="black" stroke-width="1.5" stroke-linecap="round"/>
<path d="M7 3.33782C8.47087 2.48697 10.1786 2 12 2C17.5228 2 22 6.47715 22 12C22 17.5228 17.5228 22 12 22C6.47715 22 2 17.5228 2 12C2 10.1786 2.48697 8.47087 3.33782 7" stroke="black" stroke-width="1.5" stroke-linecap="round"/>
</svg>
