<svg width="24" height="24" viewBox="0 0 24 24" fill="none" xmlns="http://www.w3.org/2000/svg">
<path d="M13.5 12C13.5 12.8284 12.8284 13.5 12 13.5C11.1716 13.5 10.5 12.8284 10.5 12C10.5 11.1716 11.1716 10.5 12 10.5C12.8284 10.5 13.5 11.1716 13.5 12Z" fill="black"/>
<path d="M12 12V8" stroke="black" stroke-width="1.5"/>
<path d="M12 12L15.5 13.5" stroke="black" stroke-width="1.5"/>
<path d="M12 12L8.5 13.5" stroke="black" stroke-width="1.5"/>
<path d="M4.5 7V10" stroke="black" stroke-width="1.5" stroke-linecap="round"/>
<path d="M4.5 14V17" stroke="black" stroke-width="1.5" stroke-linecap="round"/>
<path d="M22 12C22 16.714 22 19.0711 20.5355 20.5355C19.0711 22 16.714 22 12 22C7.28595 22 4.92893 22 3.46447 20.5355C2 19.0711 2 16.714 2 12C2 7.28595 2 4.92893 3.46447 3.46447C4.92893 2 7.28595 2 12 2C16.714 2 19.0711 2 20.5355 3.46447C21.5093 4.43821 21.8356 5.80655 21.9449 8" stroke="black" stroke-width="1.5" stroke-linecap="round"/>
<path d="M12 5C8.70017 5 7.05025 5 6.02513 6.02513C5 7.05025 5 8.70017 5 12C5 15.2998 5 16.9497 6.02513 17.9749C7.05025 19 8.70017 19 12 19C15.2998 19 16.9497 19 17.9749 17.9749C19 16.9497 19 15.2998 19 12C19 8.70017 19 7.05025 17.9749 6.02513C17.2933 5.34351 16.3354 5.11511 14.8 5.03857" stroke="black" stroke-width="1.5" stroke-linecap="round"/>
<path d="M10 8.53513C10.5883 8.19479 11.2714 8 12 8C14.2091 8 16 9.79086 16 12C16 14.2091 14.2091 16 12 16C9.79086 16 8 14.2091 8 12C8 11.6547 8.04375 11.3196 8.12602 11" stroke="black" stroke-width="1.5" stroke-linecap="round"/>
</svg>
