<svg width="24" height="24" viewBox="0 0 24 24" fill="none" xmlns="http://www.w3.org/2000/svg">
<path d="M13.358 21C15.5854 21 16.6992 21 17.6289 20.4672C18.5586 19.9345 19.1488 18.958 20.3294 17.005L21.0102 15.8787C22.0034 14.2357 22.5 13.4142 22.5 12.5C22.5 11.5858 22.0034 10.7643 21.0102 9.12126L20.3294 7.99501C19.1488 6.04203 18.5586 5.06554 17.6289 4.53277C16.6992 4 15.5854 4 13.358 4H10.721C9.68263 4 8.78333 4 8 4.02395M3.70394 5.2448C2.5 6.48959 2.5 8.49306 2.5 12.5C2.5 16.5069 2.5 18.5104 3.70394 19.7552C4.70239 20.7875 6.2055 20.9637 8.89997 20.9938" stroke="black" stroke-width="1.5" stroke-linecap="round"/>
<path d="M7.5 7.99512V17" stroke="black" stroke-width="1.5" stroke-linecap="round"/>
</svg>
