<svg width="24" height="24" viewBox="0 0 24 24" fill="none" xmlns="http://www.w3.org/2000/svg">
<path d="M9 15L15 9" stroke="black" stroke-width="1.5" stroke-linecap="round"/>
<path d="M15.5 14.5C15.5 15.0523 15.0523 15.5 14.5 15.5C13.9477 15.5 13.5 15.0523 13.5 14.5C13.5 13.9477 13.9477 13.5 14.5 13.5C15.0523 13.5 15.5 13.9477 15.5 14.5Z" fill="black"/>
<path d="M10.5 9.5C10.5 10.0523 10.0523 10.5 9.5 10.5C8.94772 10.5 8.5 10.0523 8.5 9.5C8.5 8.94772 8.94772 8.5 9.5 8.5C10.0523 8.5 10.5 8.94772 10.5 9.5Z" fill="black"/>
<path d="M14.0037 4H9.9963C6.21809 4 4.32899 4 3.15525 5.17157C2.27661 6.04858 2.0557 7.32572 2.00016 9.49444C1.99304 9.77248 2.22121 9.99467 2.49076 10.0652C3.35074 10.2901 3.98521 11.0711 3.98521 12C3.98521 12.9289 3.35074 13.7099 2.49076 13.9348C2.22121 14.0053 1.99304 14.2275 2.00016 14.5056C2.0557 16.6743 2.27661 17.9514 3.15525 18.8284M18 4.10041C19.3086 4.22774 20.1885 4.51654 20.8448 5.17157C21.7234 6.04858 21.9443 7.32572 21.9998 9.49444C22.007 9.77248 21.7788 9.99467 21.5092 10.0652C20.6493 10.2901 20.0148 11.0711 20.0148 12C20.0148 12.9289 20.6493 13.7099 21.5092 13.9348C21.7788 14.0053 22.007 14.2275 21.9998 14.5056C21.9443 16.6743 21.7234 17.9514 20.8448 18.8284C19.671 20 17.7819 20 14.0037 20H9.9963C8.82865 20 7.84143 20 7 19.9654" stroke="black" stroke-width="1.5" stroke-linecap="round"/>
</svg>
