<svg width="24" height="24" viewBox="0 0 24 24" fill="none" xmlns="http://www.w3.org/2000/svg">
<path opacity="0.5" d="M2.5 6.5C2.5 4.29086 4.29086 2.5 6.5 2.5C8.70914 2.5 10.5 4.29086 10.5 6.5C10.5 8.70914 8.70914 10.5 6.5 10.5C4.29086 10.5 2.5 8.70914 2.5 6.5Z" stroke="black" stroke-width="1.5"/>
<path opacity="0.5" d="M13.5 17.5C13.5 15.2909 15.2909 13.5 17.5 13.5C19.7091 13.5 21.5 15.2909 21.5 17.5C21.5 19.7091 19.7091 21.5 17.5 21.5C15.2909 21.5 13.5 19.7091 13.5 17.5Z" stroke="black" stroke-width="1.5"/>
<path d="M21.5 6.5C21.5 4.29086 19.7091 2.5 17.5 2.5C15.2909 2.5 13.5 4.29086 13.5 6.5C13.5 8.70914 15.2909 10.5 17.5 10.5C19.7091 10.5 21.5 8.70914 21.5 6.5Z" stroke="black" stroke-width="1.5"/>
<path d="M10.5 17.5C10.5 15.2909 8.70914 13.5 6.5 13.5C4.29086 13.5 2.5 15.2909 2.5 17.5C2.5 19.7091 4.29086 21.5 6.5 21.5C8.70914 21.5 10.5 19.7091 10.5 17.5Z" stroke="black" stroke-width="1.5"/>
</svg>
