<svg width="24" height="24" viewBox="0 0 24 24" fill="none" xmlns="http://www.w3.org/2000/svg">
<path opacity="0.5" d="M13.5 15.5C13.5 13.6144 13.5 12.6716 14.0858 12.0858C14.6716 11.5 15.6144 11.5 17.5 11.5C19.3856 11.5 20.3284 11.5 20.9142 12.0858C21.5 12.6716 21.5 13.6144 21.5 15.5V17.5C21.5 19.3856 21.5 20.3284 20.9142 20.9142C20.3284 21.5 19.3856 21.5 17.5 21.5C15.6144 21.5 14.6716 21.5 14.0858 20.9142C13.5 20.3284 13.5 19.3856 13.5 17.5V15.5Z" stroke="black" stroke-width="1.5"/>
<path d="M2 8.5C2 10.3856 2 11.3284 2.58579 11.9142C3.17157 12.5 4.11438 12.5 6 12.5C7.88562 12.5 8.82843 12.5 9.41421 11.9142C10 11.3284 10 10.3856 10 8.5V6.5C10 4.61438 10 3.67157 9.41421 3.08579C8.82843 2.5 7.88562 2.5 6 2.5C4.11438 2.5 3.17157 2.5 2.58579 3.08579C2 3.67157 2 4.61438 2 6.5V8.5Z" stroke="black" stroke-width="1.5"/>
<path d="M13.5 5.5C13.5 4.56812 13.5 4.10218 13.6522 3.73463C13.8552 3.24458 14.2446 2.85523 14.7346 2.65224C15.1022 2.5 15.5681 2.5 16.5 2.5H18.5C19.4319 2.5 19.8978 2.5 20.2654 2.65224C20.7554 2.85523 21.1448 3.24458 21.3478 3.73463C21.5 4.10218 21.5 4.56812 21.5 5.5C21.5 6.43188 21.5 6.89782 21.3478 7.26537C21.1448 7.75542 20.7554 8.14477 20.2654 8.34776C19.8978 8.5 19.4319 8.5 18.5 8.5H16.5C15.5681 8.5 15.1022 8.5 14.7346 8.34776C14.2446 8.14477 13.8552 7.75542 13.6522 7.26537C13.5 6.89782 13.5 6.43188 13.5 5.5Z" stroke="black" stroke-width="1.5"/>
<path opacity="0.5" d="M2 18.5C2 19.4319 2 19.8978 2.15224 20.2654C2.35523 20.7554 2.74458 21.1448 3.23463 21.3478C3.60218 21.5 4.06812 21.5 5 21.5H7C7.93188 21.5 8.39782 21.5 8.76537 21.3478C9.25542 21.1448 9.64477 20.7554 9.84776 20.2654C10 19.8978 10 19.4319 10 18.5C10 17.5681 10 17.1022 9.84776 16.7346C9.64477 16.2446 9.25542 15.8552 8.76537 15.6522C8.39782 15.5 7.93188 15.5 7 15.5H5C4.06812 15.5 3.60218 15.5 3.23463 15.6522C2.74458 15.8552 2.35523 16.2446 2.15224 16.7346C2 17.1022 2 17.5681 2 18.5Z" stroke="black" stroke-width="1.5"/>
</svg>
