<svg width="24" height="24" viewBox="0 0 24 24" fill="none" xmlns="http://www.w3.org/2000/svg">
<path d="M2.5 6.5C2.5 4.29086 4.29086 2.5 6.5 2.5C8.70914 2.5 10.5 4.29086 10.5 6.5C10.5 8.70914 8.70914 10.5 6.5 10.5C4.29086 10.5 2.5 8.70914 2.5 6.5Z" stroke="black" stroke-width="1.5"/>
<path opacity="0.5" d="M13.5 17.5C13.5 15.2909 15.2909 13.5 17.5 13.5C19.7091 13.5 21.5 15.2909 21.5 17.5C21.5 19.7091 19.7091 21.5 17.5 21.5C15.2909 21.5 13.5 19.7091 13.5 17.5Z" stroke="black" stroke-width="1.5"/>
<path d="M2.5 17.5C2.5 15.6144 2.5 14.6716 3.08579 14.0858C3.67157 13.5 4.61438 13.5 6.5 13.5C8.38562 13.5 9.32843 13.5 9.91421 14.0858C10.5 14.6716 10.5 15.6144 10.5 17.5C10.5 19.3856 10.5 20.3284 9.91421 20.9142C9.32843 21.5 8.38562 21.5 6.5 21.5C4.61438 21.5 3.67157 21.5 3.08579 20.9142C2.5 20.3284 2.5 19.3856 2.5 17.5Z" stroke="black" stroke-width="1.5"/>
<path opacity="0.5" d="M13.5 6.5C13.5 4.61438 13.5 3.67157 14.0858 3.08579C14.6716 2.5 15.6144 2.5 17.5 2.5C19.3856 2.5 20.3284 2.5 20.9142 3.08579C21.5 3.67157 21.5 4.61438 21.5 6.5C21.5 8.38562 21.5 9.32843 20.9142 9.91421C20.3284 10.5 19.3856 10.5 17.5 10.5C15.6144 10.5 14.6716 10.5 14.0858 9.91421C13.5 9.32843 13.5 8.38562 13.5 6.5Z" stroke="black" stroke-width="1.5"/>
</svg>
