<svg width="24" height="24" viewBox="0 0 24 24" fill="none" xmlns="http://www.w3.org/2000/svg">
<path d="M14.1374 2.73779C13.3942 3.48102 13.0092 4.77646 13.2895 5.7897C13.438 6.32603 13.4622 6.97541 13.0687 7.3689L11.7892 8.64837C11.7196 8.71805 11.7423 8.83608 11.8329 8.8749C13.3123 9.50892 14.4911 10.6877 15.1251 12.1671C15.1639 12.2577 15.2819 12.2804 15.3516 12.2108L16.6311 10.9313C17.0246 10.5378 17.674 10.562 18.2103 10.7105C19.2235 10.9908 20.519 10.6058 21.2622 9.86257C22.2459 8.87884 22.2459 7.28391 21.2622 6.30018C20.2785 5.31646 18.6835 5.31646 17.6998 6.30018C18.6835 5.31646 18.6835 3.72152 17.6998 2.73779C16.7161 1.75407 15.1212 1.75407 14.1374 2.73779Z" stroke="black" stroke-width="1.5" stroke-linecap="round" stroke-linejoin="round"/>
<path d="M2.73779 17.6998C3.72152 18.6835 5.31646 18.6835 6.30018 17.6998C5.31646 18.6835 5.31645 20.2785 6.30018 21.2622C7.28391 22.2459 8.87884 22.2459 9.86257 21.2622C10.6058 20.519 10.9908 19.2235 10.7105 18.2103C10.562 17.674 10.5378 17.0246 10.9313 16.6311L12.2108 15.3516C12.2804 15.2819 12.2577 15.1639 12.1671 15.1251C10.6877 14.4911 9.50892 13.3123 8.8749 11.8329C8.83608 11.7423 8.71805 11.7196 8.64837 11.7892L7.3689 13.0687C6.97541 13.4622 6.32603 13.438 5.7897 13.2895C4.77646 13.0092 3.48101 13.3942 2.73779 14.1374C1.75407 15.1212 1.75407 16.7161 2.73779 17.6998Z" stroke="black" stroke-width="1.5" stroke-linecap="round" stroke-linejoin="round"/>
<path opacity="0.5" d="M17.6572 17.6567L19.0714 19.071" stroke="black" stroke-width="1.5" stroke-linecap="round"/>
<path opacity="0.5" d="M6.34314 6.34314L4.92893 4.92893" stroke="black" stroke-width="1.5" stroke-linecap="round"/>
<path opacity="0.5" d="M15 19V20" stroke="black" stroke-width="1.5" stroke-linecap="round"/>
<path opacity="0.5" d="M5 9L4 9" stroke="black" stroke-width="1.5" stroke-linecap="round"/>
<path opacity="0.5" d="M19 15H20" stroke="black" stroke-width="1.5" stroke-linecap="round"/>
<path opacity="0.5" d="M9 5L9 4" stroke="black" stroke-width="1.5" stroke-linecap="round"/>
</svg>
