<svg width="24" height="24" viewBox="0 0 24 24" fill="none" xmlns="http://www.w3.org/2000/svg">
<path d="M21 12H18.6361C17.9781 12 17.6491 12 17.3578 12.1297C17.0665 12.2595 16.8463 12.5041 16.4059 12.9934L15.3767 14.137C15.0154 14.5384 14.8348 14.739 14.6057 14.7341C14.3766 14.7292 14.2049 14.5211 13.8616 14.1049L10.3334 9.82832C10.0133 9.44029 9.85321 9.24628 9.63599 9.23323C9.41877 9.22018 9.23663 9.39364 8.87237 9.74056L7.36897 11.1724C6.93986 11.581 6.7253 11.7854 6.45709 11.8927C6.18887 12 5.89258 12 5.3 12H3" stroke="black" stroke-width="1.5" stroke-linecap="round"/>
<path opacity="0.5" d="M8.96173 19.3707L9.43571 18.7895L9.43571 18.7895L8.96173 19.3707ZM12 5.49877L11.4509 6.00966C11.5928 6.16215 11.7917 6.24877 12 6.24877C12.2083 6.24877 12.4072 6.16215 12.5491 6.00966L12 5.49877ZM15.0383 19.3707L15.5123 19.952L15.5123 19.952L15.0383 19.3707ZM9.43571 18.7895C7.98585 17.6072 6.29293 16.0568 4.96881 14.3598C3.63045 12.6445 2.75 10.8821 2.75 9.26044H1.25C1.25 11.3862 2.37926 13.4793 3.7862 15.2825C5.20736 17.1039 6.99531 18.7349 8.48775 19.952L9.43571 18.7895ZM2.75 9.26044C2.75 6.53057 4.0079 4.70454 5.60065 4.04191C7.17297 3.38778 9.35285 3.75479 11.4509 6.00966L12.5491 4.98787C10.1473 2.40661 7.32719 1.69899 5.02447 2.65699C2.74218 3.60649 1.25 6.07936 1.25 9.26044H2.75ZM15.5123 19.952C17.0047 18.735 18.7926 17.1039 20.2138 15.2825C21.6207 13.4794 22.75 11.3862 22.75 9.2604H21.25C21.25 10.8821 20.3695 12.6445 19.0312 14.3598C17.7071 16.0568 16.0142 17.6072 14.5643 18.7895L15.5123 19.952ZM22.75 9.2604C22.75 6.07926 21.2578 3.60639 18.9755 2.65691C16.6728 1.69894 13.8527 2.40662 11.4509 4.98787L12.5491 6.00966C14.6472 3.75479 16.827 3.38774 18.3994 4.04184C19.9921 4.70444 21.25 6.53045 21.25 9.2604H22.75ZM8.48775 19.952C9.7587 20.9884 10.641 21.75 12 21.75L12 20.25C11.2785 20.25 10.8287 19.9254 9.43571 18.7895L8.48775 19.952ZM14.5643 18.7895C13.1713 19.9254 12.7216 20.25 12 20.25L12 21.75C13.359 21.75 14.2413 20.9884 15.5123 19.952L14.5643 18.7895Z" fill="black"/>
</svg>
