<svg width="24" height="24" viewBox="0 0 24 24" fill="none" xmlns="http://www.w3.org/2000/svg">
<circle cx="12" cy="6" r="4" fill="black"/>
<path fill-rule="evenodd" clip-rule="evenodd" d="M16.5 22C14.8501 22 14.0251 22 13.5126 21.4874C13 20.9749 13 20.1499 13 18.5C13 16.8501 13 16.0251 13.5126 15.5126C14.0251 15 14.8501 15 16.5 15C18.1499 15 18.9749 15 19.4874 15.5126C20 16.0251 20 16.8501 20 18.5C20 20.1499 20 20.9749 19.4874 21.4874C18.9749 22 18.1499 22 16.5 22ZM17.0833 16.9444C17.0833 16.6223 16.8222 16.3611 16.5 16.3611C16.1778 16.3611 15.9167 16.6223 15.9167 16.9444V17.9167H14.9444C14.6223 17.9167 14.3611 18.1778 14.3611 18.5C14.3611 18.8222 14.6223 19.0833 14.9444 19.0833H15.9167V20.0556C15.9167 20.3777 16.1778 20.6389 16.5 20.6389C16.8222 20.6389 17.0833 20.3777 17.0833 20.0556V19.0833H18.0556C18.3777 19.0833 18.6389 18.8222 18.6389 18.5C18.6389 18.1778 18.3777 17.9167 18.0556 17.9167H17.0833V16.9444Z" fill="black"/>
<path d="M15.6782 13.5028C15.2051 13.5085 14.7642 13.5258 14.3799 13.5774C13.737 13.6639 13.0334 13.8705 12.4519 14.4519C11.8705 15.0333 11.6639 15.737 11.5775 16.3799C11.4998 16.9576 11.4999 17.6635 11.5 18.414V18.586C11.4999 19.3365 11.4998 20.0424 11.5775 20.6201C11.6381 21.0712 11.7579 21.5522 12.0249 22C12.0166 22 12.0083 22 12 22C4 22 4 19.9853 4 17.5C4 15.0147 7.58172 13 12 13C13.3262 13 14.577 13.1815 15.6782 13.5028Z" fill="black"/>
</svg>
