<svg width="24" height="24" viewBox="0 0 24 24" fill="none" xmlns="http://www.w3.org/2000/svg">
<circle cx="12" cy="6" r="4" fill="black"/>
<path fill-rule="evenodd" clip-rule="evenodd" d="M13.5126 21.4874C14.0251 22 14.8501 22 16.5 22C18.1499 22 18.9749 22 19.4874 21.4874C20 20.9749 20 20.1499 20 18.5C20 16.8501 20 16.0251 19.4874 15.5126C18.9749 15 18.1499 15 16.5 15C14.8501 15 14.0251 15 13.5126 15.5126C13 16.0251 13 16.8501 13 18.5C13 20.1499 13 20.9749 13.5126 21.4874ZM15.9167 17.9167H14.9444C14.6223 17.9167 14.3611 18.1778 14.3611 18.5C14.3611 18.8222 14.6223 19.0833 14.9444 19.0833H15.9167H17.0833H18.0556C18.3777 19.0833 18.6389 18.8222 18.6389 18.5C18.6389 18.1778 18.3777 17.9167 18.0556 17.9167H17.0833H15.9167Z" fill="black"/>
<path d="M15.4147 13.5074C14.4046 13.1842 13.24 13 12 13C8.13401 13 5 14.7909 5 17C5 19.1406 7.94244 20.8884 11.6421 20.9949C11.615 20.8686 11.594 20.7432 11.5775 20.6201C11.4998 20.0424 11.4999 19.3365 11.5 18.586V18.414C11.4999 17.6635 11.4998 16.9576 11.5775 16.3799C11.6639 15.737 11.8705 15.0333 12.4519 14.4519C13.0334 13.8705 13.737 13.6639 14.3799 13.5774C14.6919 13.5355 15.0412 13.5162 15.4147 13.5074Z" fill="black"/>
</svg>
