<svg width="24" height="24" viewBox="0 0 24 24" fill="none" xmlns="http://www.w3.org/2000/svg">
<path d="M12 10C14.2091 10 16 8.20914 16 6C16 3.79086 14.2091 2 12 2C9.79086 2 8 3.79086 8 6C8 8.20914 9.79086 10 12 10Z" fill="black"/>
<path d="M2.72778 5.81803C2.62732 5.41619 2.22012 5.17186 1.81828 5.27233C1.41643 5.37279 1.17211 5.77999 1.27257 6.18184L1.65454 7.7097C2.3593 10.5287 4.49604 12.7495 7.25018 13.5787L7.25018 18.0519C7.25015 18.9504 7.25012 19.6996 7.33009 20.2944C7.41449 20.9222 7.60016 21.489 8.05563 21.9445C8.5111 22.3999 9.0779 22.5856 9.7057 22.67C10.3005 22.75 11.0497 22.75 11.9482 22.7499H12.0522C12.9507 22.75 13.6999 22.75 14.2947 22.67C14.9225 22.5856 15.4892 22.3999 15.9447 21.9445C16.4002 21.489 16.5859 20.9222 16.6703 20.2944C16.7502 19.6996 16.7502 18.9504 16.7502 18.052L16.7502 13.859C17.7313 14.1514 18.4808 15.0039 18.6058 16.067L19.2553 21.5876C19.3037 21.9989 19.6764 22.2932 20.0878 22.2448C20.4992 22.1964 20.7934 21.8237 20.745 21.4123L20.0956 15.8918C19.8512 13.815 18.0912 12.2499 16.0002 12.2499H8.0847C5.64125 11.6764 3.71957 9.78517 3.10975 7.3459L2.72778 5.81803Z" fill="black"/>
</svg>
