<svg width="24" height="24" viewBox="0 0 24 24" fill="none" xmlns="http://www.w3.org/2000/svg">
<path opacity="0.5" d="M4.0828 11.8943C4.52171 9.55339 4.74117 8.38295 5.57434 7.69147C6.40752 7 7.59835 7 9.98003 7H14.0209C16.4026 7 17.5934 7 18.4266 7.69147C19.2598 8.38295 19.4792 9.55339 19.9181 11.8943L20.6681 15.8943C21.2853 19.186 21.5939 20.8318 20.6942 21.9159C19.7945 23 18.12 23 14.7709 23H9.23003C5.88097 23 4.20644 23 3.30672 21.9159C2.40701 20.8318 2.7156 19.186 3.3328 15.8943L4.0828 11.8943Z" fill="black"/>
<path d="M9.75 5.98485C9.75 4.74221 10.7574 3.73485 12 3.73485C13.2426 3.73485 14.25 4.74221 14.25 5.98485V6.98485C14.816 6.98503 15.3119 6.98659 15.7499 6.99973C15.75 6.99478 15.75 6.98982 15.75 6.98485V5.98485C15.75 3.91378 14.0711 2.23485 12 2.23485C9.92893 2.23485 8.25 3.91378 8.25 5.98485V6.98485C8.25 6.98983 8.25005 6.9948 8.25015 6.99976C8.68814 6.9866 9.18397 6.98505 9.75 6.98487V5.98485Z" fill="black"/>
<path d="M9.87823 15.7503C10.1875 16.6252 11.0219 17.2502 12.0004 17.2502C12.9789 17.2502 13.8133 16.6252 14.1226 15.7503C14.2606 15.3597 14.6891 15.155 15.0796 15.2931C15.4702 15.4311 15.6749 15.8596 15.5368 16.2501C15.0224 17.7056 13.6343 18.7502 12.0004 18.7502C10.3665 18.7502 8.97841 17.7056 8.46397 16.2501C8.32594 15.8596 8.53063 15.4311 8.92117 15.2931C9.31171 15.155 9.7402 15.3597 9.87823 15.7503Z" fill="black"/>
</svg>
