<svg width="24" height="24" viewBox="0 0 24 24" fill="none" xmlns="http://www.w3.org/2000/svg">
<path opacity="0.5" d="M5.57386 4.69147C4.74068 5.38295 4.52122 6.55339 4.08231 8.89427L3.33231 12.8943C2.71512 16.186 2.40652 17.8318 3.30624 18.9159C4.20595 20 5.88048 20 9.22954 20H14.7704C18.1195 20 19.794 20 20.6937 18.9159C21.5934 17.8318 21.2849 16.186 20.6677 12.8943L19.9177 8.89427C19.4787 6.55339 19.2593 5.38295 18.4261 4.69147C17.5929 4 16.4021 4 14.0204 4H9.97954C7.59787 4 6.40703 4 5.57386 4.69147Z" fill="black"/>
<path d="M12.0004 9.2502C11.0219 9.2502 10.1875 8.62518 9.87823 7.75027C9.7402 7.35973 9.31171 7.15504 8.92117 7.29307C8.53063 7.43111 8.32594 7.8596 8.46397 8.25014C8.97841 9.70562 10.3665 10.7502 12.0004 10.7502C13.6343 10.7502 15.0224 9.70562 15.5368 8.25014C15.6749 7.8596 15.4702 7.43111 15.0796 7.29307C14.6891 7.15504 14.2606 7.35973 14.1226 7.75027C13.8133 8.62518 12.9789 9.2502 12.0004 9.2502Z" fill="black"/>
</svg>
