<svg width="24" height="24" viewBox="0 0 24 24" fill="none" xmlns="http://www.w3.org/2000/svg">
<path opacity="0.5" d="M4.0828 10.8943C4.52171 8.55339 4.74117 7.38295 5.57434 6.69147C6.40752 6 7.59835 6 9.98003 6H14.0209C16.4026 6 17.5934 6 18.4266 6.69147C19.2598 7.38295 19.4792 8.55339 19.9181 10.8943L20.6681 14.8943C21.2853 18.186 21.5939 19.8318 20.6942 20.9159C19.7945 22 18.12 22 14.7709 22H9.23003C5.88097 22 4.20644 22 3.30672 20.9159C2.40701 19.8318 2.7156 18.186 3.3328 14.8943L4.0828 10.8943Z" fill="black"/>
<path d="M9.75 5C9.75 3.75736 10.7574 2.75 12 2.75C13.2426 2.75 14.25 3.75736 14.25 5V6C14.25 6.00001 14.25 5.99999 14.25 6C14.816 6.00018 15.3119 6.00174 15.7499 6.01488C15.75 6.00993 15.75 6.00497 15.75 6V5C15.75 2.92893 14.0711 1.25 12 1.25C9.92893 1.25 8.25 2.92893 8.25 5V6C8.25 6.00498 8.25005 6.00995 8.25015 6.01491C8.68814 6.00175 9.18397 6.00021 9.75 6.00002C9.75 6.00002 9.75 6.00003 9.75 6.00002V5Z" fill="black"/>
<path fill-rule="evenodd" clip-rule="evenodd" d="M12.75 17.0002C12.75 18.519 11.5188 19.7502 10 19.7502C8.48122 19.7502 7.25 18.519 7.25 17.0002C7.25 15.4814 8.48122 14.2502 10 14.2502C10.4501 14.2502 10.875 14.3584 11.25 14.5501V11.8294C11.2498 11.6675 11.2495 11.455 11.2812 11.2892C11.362 10.867 11.5955 10.4892 11.9371 10.228C12.0711 10.1256 12.2248 10.049 12.3697 9.97679L13.7397 9.29184C13.9425 9.19043 14.1204 9.10149 14.269 9.03669C14.4199 8.97092 14.5988 8.90318 14.7972 8.88003C15.6037 8.78596 16.3689 9.25889 16.6454 10.0222C16.7134 10.2101 16.7328 10.4004 16.7415 10.5648C16.75 10.7267 16.75 10.9256 16.75 11.1523L16.75 11.2118C16.7503 11.3737 16.7505 11.5455 16.7188 11.7112C16.638 12.1335 16.4045 12.5112 16.0629 12.7724C15.9289 12.8749 15.7752 12.9514 15.6303 13.0236L14.2603 13.7086C14.0575 13.81 13.8796 13.8989 13.731 13.9637C13.5801 14.0295 13.4012 14.0972 13.2028 14.1204C13.0493 14.1383 12.8974 14.1357 12.75 14.1144V17.0002ZM14.8684 10.4117C14.9383 10.3813 14.9705 10.3715 14.9785 10.3692C15.0885 10.3597 15.1917 10.4235 15.2324 10.5261C15.2339 10.5343 15.2396 10.5675 15.2436 10.6436C15.2498 10.7612 15.25 10.92 15.25 11.171C15.25 11.2782 15.2499 11.3392 15.2482 11.3855C15.2472 11.4145 15.2458 11.4267 15.2454 11.4298C15.2338 11.4897 15.2007 11.5432 15.1523 11.5804C15.1498 11.5822 15.1394 11.5889 15.114 11.6027C15.0734 11.6249 15.0188 11.6523 14.9229 11.7002L13.6062 12.3586C13.3817 12.4708 13.2396 12.5416 13.1316 12.5887C13.0617 12.6191 13.0295 12.6289 13.0215 12.6313C12.9115 12.6408 12.8083 12.5769 12.7676 12.4744C12.7661 12.4661 12.7604 12.4329 12.7564 12.3569C12.7502 12.2392 12.75 12.0804 12.75 11.8294C12.75 11.7223 12.7501 11.6612 12.7518 11.6149C12.7528 11.586 12.7542 11.5737 12.7546 11.5707C12.7662 11.5108 12.7993 11.4572 12.8477 11.42C12.8502 11.4183 12.8606 11.4116 12.886 11.3977C12.9266 11.3755 12.9812 11.3481 13.0771 11.3002L14.3938 10.6419C14.6183 10.5296 14.7604 10.4588 14.8684 10.4117ZM10 15.7502C10.6904 15.7502 11.25 16.3099 11.25 17.0002C11.25 17.6906 10.6904 18.2502 10 18.2502C9.30964 18.2502 8.75 17.6906 8.75 17.0002C8.75 16.3099 9.30964 15.7502 10 15.7502Z" fill="black"/>
</svg>
