<svg width="24" height="24" viewBox="0 0 24 24" fill="none" xmlns="http://www.w3.org/2000/svg">
<path d="M7.5 18C8.32843 18 9 18.6716 9 19.5C9 20.3284 8.32843 21 7.5 21C6.67157 21 6 20.3284 6 19.5C6 18.6716 6.67157 18 7.5 18Z" fill="black"/>
<path d="M16.5 18.0001C17.3284 18.0001 18 18.6716 18 19.5001C18 20.3285 17.3284 21.0001 16.5 21.0001C15.6716 21.0001 15 20.3285 15 19.5001C15 18.6716 15.6716 18.0001 16.5 18.0001Z" fill="black"/>
<path opacity="0.6" d="M3.04047 2.29266C2.6497 2.15527 2.22155 2.36068 2.08416 2.75145C1.94678 3.14221 2.15218 3.57036 2.54295 3.70775L2.80416 3.79958C3.47177 4.0343 3.91052 4.18985 4.23336 4.34826C4.53659 4.49704 4.67026 4.61747 4.75832 4.74634C4.84858 4.87842 4.91828 5.05984 4.95761 5.42319C4.99877 5.8034 4.99979 6.29862 4.99979 7.03856L4.99979 9.64024C4.99979 12.5818 5.06302 13.5526 5.92943 14.4664C6.6646 15.2418 7.77998 15.3593 9.80491 15.3771L11.3286 15.3802H14.1714H15.6945H16.2821C17.8431 15.3802 18.6236 15.3802 19.1753 14.9306C19.727 14.481 19.8846 13.7166 20.1997 12.1877L20.6995 9.763C21.0466 8.02394 21.2202 7.15441 20.7762 6.57733C20.3516 6.0254 18.9457 6.00134 17.3498 6.00029L15.8266 6.00024H9.67335H8.15018H6.49233C6.48564 5.72991 6.47295 5.48397 6.4489 5.26177C6.39517 4.76539 6.27875 4.31268 5.99677 3.90003C5.71259 3.48417 5.33474 3.21784 4.89411 3.00163C4.48203 2.79943 3.95839 2.61536 3.34187 2.39862L3.04047 2.29266Z" fill="black"/>
<path d="M8.14941 6L9.80442 15.3768L11.3282 15.38L9.67286 6H8.14941Z" fill="black"/>
<path d="M15.8259 6L14.1706 15.38H15.6945L17.3498 6.00005L15.8259 6Z" fill="black"/>
</svg>
