<svg width="24" height="24" viewBox="0 0 24 24" fill="none" xmlns="http://www.w3.org/2000/svg">
<path opacity="0.5" d="M2.08368 2.75145C2.22106 2.36068 2.64921 2.15527 3.03998 2.29266L3.34138 2.39862C3.95791 2.61536 4.48154 2.79943 4.89363 3.00163C5.33426 3.21784 5.71211 3.48417 5.99629 3.90003C6.27827 4.31268 6.39468 4.76539 6.44841 5.26177C6.47247 5.48397 6.48515 5.72991 6.49184 6.00024H17.1301C18.815 6.00024 20.3318 6.00024 20.7757 6.57733C21.2197 7.15441 21.0461 8.02394 20.699 9.763L20.1992 12.1877C19.8841 13.7166 19.7266 14.481 19.1748 14.9306C18.6231 15.3802 17.8426 15.3802 16.2816 15.3802H10.9787C8.18979 15.3802 6.79534 15.3802 5.92894 14.4664C5.06254 13.5526 4.9993 12.5818 4.9993 9.64024L4.9993 7.03856C4.9993 6.29862 4.99828 5.8034 4.95712 5.42319C4.91779 5.05984 4.84809 4.87842 4.75783 4.74634C4.66977 4.61747 4.5361 4.49704 4.23288 4.34826C3.91003 4.18985 3.47128 4.0343 2.80367 3.79958L2.54246 3.70775C2.1517 3.57036 1.94629 3.14221 2.08368 2.75145Z" fill="black"/>
<path d="M12.0303 8.96967C11.7374 8.67678 11.2626 8.67678 10.9697 8.96967C10.6768 9.26256 10.6768 9.73744 10.9697 10.0303L11.9393 11L10.9697 11.9697C10.6768 12.2626 10.6768 12.7374 10.9697 13.0303C11.2626 13.3232 11.7374 13.3232 12.0303 13.0303L13 12.0607L13.9697 13.0303C14.2626 13.3232 14.7374 13.3232 15.0303 13.0303C15.3232 12.7374 15.3232 12.2626 15.0303 11.9697L14.0607 11L15.0303 10.0303C15.3232 9.73744 15.3232 9.26256 15.0303 8.96967C14.7374 8.67678 14.2626 8.67678 13.9697 8.96967L13 9.93934L12.0303 8.96967Z" fill="black"/>
<path d="M7.5 18C8.32843 18 9 18.6716 9 19.5C9 20.3284 8.32843 21 7.5 21C6.67157 21 6 20.3284 6 19.5C6 18.6716 6.67157 18 7.5 18Z" fill="black"/>
<path d="M16.5 18.0001C17.3284 18.0001 18 18.6716 18 19.5001C18 20.3285 17.3284 21.0001 16.5 21.0001C15.6716 21.0001 15 20.3285 15 19.5001C15 18.6716 15.6716 18.0001 16.5 18.0001Z" fill="black"/>
</svg>
