<svg width="24" height="24" viewBox="0 0 24 24" fill="none" xmlns="http://www.w3.org/2000/svg">
<path d="M14.5 21.9913V18.5C14.5 17.5654 14.5 17.0981 14.299 16.75C14.1674 16.522 13.978 16.3326 13.75 16.201C13.4019 16 12.9346 16 12 16C11.0654 16 10.5981 16 10.25 16.201C10.022 16.3326 9.83261 16.522 9.70096 16.75C9.5 17.0981 9.5 17.5654 9.5 18.5V21.9913H14.5Z" fill="black"/>
<path opacity="0.5" fill-rule="evenodd" clip-rule="evenodd" d="M5.73204 12.0002C4.84126 12.0002 4.05323 11.6242 3.5 11.0331V14.0002C3.5 17.7715 3.5 19.6571 4.67157 20.8287C5.61466 21.7718 7.02043 21.9557 9.5 21.9915H14.5C16.9796 21.9557 18.3853 21.7718 19.3284 20.8287C20.5 19.6571 20.5 17.7715 20.5 14.0002V11.0342C19.9468 11.6246 19.1592 12.0002 18.269 12.0002C16.6973 12.0002 15.3814 10.8093 15.225 9.24548L15.152 8.51758C15.3385 10.3822 13.8742 12.0002 12.0003 12.0002C10.139 12.0002 8.6819 10.404 8.84499 8.55536L8.77598 9.24548C8.6196 10.8093 7.30367 12.0002 5.73204 12.0002ZM14.5 18.5002V21.9915H9.5V18.5002C9.5 17.5656 9.5 17.0983 9.70096 16.7502C9.83261 16.5222 10.022 16.3329 10.25 16.2012C10.5981 16.0002 11.0654 16.0002 12 16.0002C12.9346 16.0002 13.4019 16.0002 13.75 16.2012C13.978 16.3329 14.1674 16.5222 14.299 16.7502C14.5 17.0983 14.5 17.5656 14.5 18.5002Z" fill="black"/>
<path d="M9.4998 2H14.4998L15.1515 8.51737C15.338 10.382 13.8737 12 11.9998 12C10.1259 12 8.6616 10.382 8.84806 8.51737L9.4998 2Z" fill="black"/>
<path opacity="0.7" d="M3.32975 5.35133C3.50783 4.46093 3.59687 4.01573 3.77791 3.65484C4.15938 2.89439 4.84579 2.33168 5.66628 2.10675C6.05567 2 6.50969 2 7.41771 2H9.50002L8.77549 9.24527C8.61911 10.8091 7.30318 12 5.73155 12C3.8011 12 2.35324 10.2339 2.73183 8.34093L3.32975 5.35133Z" fill="black"/>
<path opacity="0.7" d="M20.6703 5.35133C20.4922 4.46093 20.4031 4.01573 20.2221 3.65484C19.8406 2.89439 19.1542 2.33168 18.3337 2.10675C17.9443 2 17.4903 2 16.5823 2H14.5L15.2245 9.24527C15.3809 10.8091 16.6968 12 18.2685 12C20.1989 12 21.6468 10.2339 21.2682 8.34093L20.6703 5.35133Z" fill="black"/>
</svg>
