<svg width="24" height="24" viewBox="0 0 24 24" fill="none" xmlns="http://www.w3.org/2000/svg">
<path fill-rule="evenodd" clip-rule="evenodd" d="M21.7883 21.7883C22.0706 21.506 22.0706 21.0483 21.7883 20.7659L18.1224 17.1002C19.4884 15.5007 20.3133 13.425 20.3133 11.1566C20.3133 6.09956 16.2137 2 11.1566 2C6.09956 2 2 6.09956 2 11.1566C2 16.2137 6.09956 20.3133 11.1566 20.3133C13.4249 20.3133 15.5006 19.4885 17.1 18.1225L20.7659 21.7883C21.0483 22.0706 21.506 22.0706 21.7883 21.7883ZM8.0241 11.1566C8.0241 10.7574 8.34775 10.4337 8.74699 10.4337H13.5663C13.9655 10.4337 14.2892 10.7574 14.2892 11.1566C14.2892 11.5559 13.9655 11.8795 13.5663 11.8795H8.74699C8.34775 11.8795 8.0241 11.5559 8.0241 11.1566Z" fill="black"/>
</svg>
