<svg width="24" height="24" viewBox="0 0 24 24" fill="none" xmlns="http://www.w3.org/2000/svg">
<path fill-rule="evenodd" clip-rule="evenodd" d="M8.85714 11.9474C8.85714 12.8755 9.45343 13.665 10.2857 13.9577V10.7632H8.85714V11.9474ZM13.0209 9.34211C12.7268 8.51421 11.933 7.92105 11 7.92105C10.067 7.92105 9.27324 8.51421 8.97908 9.34211H13.0209ZM13.1429 10.7632H11.7143V13.9577C12.5466 13.665 13.1429 12.8755 13.1429 11.9474V10.7632Z" fill="black"/>
<path fill-rule="evenodd" clip-rule="evenodd" d="M21.7883 21.7883C22.0706 21.506 22.0706 21.0483 21.7883 20.7659L18.1224 17.1002C19.4884 15.5007 20.3133 13.425 20.3133 11.1566C20.3133 6.09956 16.2137 2 11.1566 2C6.09956 2 2 6.09956 2 11.1566C2 16.2137 6.09956 20.3133 11.1566 20.3133C13.4249 20.3133 15.5006 19.4885 17.1 18.1225L20.7659 21.7883C21.0483 22.0706 21.506 22.0706 21.7883 21.7883ZM8.18946 7.86036C8.8433 7.03208 9.85918 6.5 11 6.5C12.1408 6.5 13.1567 7.03208 13.8105 7.86036L14.4901 7.52238C14.8429 7.34689 15.272 7.48915 15.4484 7.84014C15.6248 8.19112 15.4818 8.61792 15.129 8.79341L14.4501 9.13106C14.5292 9.42496 14.5714 9.73389 14.5714 10.0526V10.2895H15.2857C15.6802 10.2895 16 10.6076 16 11C16 11.3924 15.6802 11.7105 15.2857 11.7105H14.5714V11.9474C14.5714 12.2661 14.5292 12.575 14.4501 12.8689L15.129 13.2066C15.4818 13.3821 15.6248 13.8089 15.4484 14.1599C15.272 14.5108 14.8429 14.6531 14.4901 14.4776L13.8105 14.1396C13.1567 14.9679 12.1408 15.5 11 15.5C9.85918 15.5 8.8433 14.9679 8.18946 14.1396L7.50991 14.4776C7.15707 14.6531 6.72802 14.5108 6.5516 14.1599C6.37518 13.8089 6.5182 13.3821 6.87104 13.2066L7.54991 12.8689C7.47077 12.575 7.42857 12.2661 7.42857 11.9474V11.7105H6.71429C6.3198 11.7105 6 11.3924 6 11C6 10.6076 6.3198 10.2895 6.71429 10.2895H7.42857V10.0526C7.42857 9.73389 7.47077 9.42496 7.54991 9.13106L6.87104 8.79341C6.5182 8.61792 6.37518 8.19112 6.5516 7.84014C6.72802 7.48915 7.15707 7.34689 7.50991 7.52238L8.18946 7.86036Z" fill="black"/>
</svg>
