<svg width="24" height="24" viewBox="0 0 24 24" fill="none" xmlns="http://www.w3.org/2000/svg">
<path d="M20.3133 11.1566C20.3133 16.2137 16.2137 20.3133 11.1566 20.3133C6.09956 20.3133 2 16.2137 2 11.1566C2 6.09956 6.09956 2 11.1566 2C16.2137 2 20.3133 6.09956 20.3133 11.1566Z" fill="black"/>
<path fill-rule="evenodd" clip-rule="evenodd" d="M11.1566 8.0241C11.5559 8.0241 11.8795 8.34775 11.8795 8.74699V10.4337H13.5663C13.9655 10.4337 14.2892 10.7574 14.2892 11.1566C14.2892 11.5559 13.9655 11.8795 13.5663 11.8795H11.8795V13.5663C11.8795 13.9655 11.5559 14.2892 11.1566 14.2892C10.7574 14.2892 10.4337 13.9655 10.4337 13.5663V11.8795H8.74699C8.34775 11.8795 8.0241 11.5559 8.0241 11.1566C8.0241 10.7574 8.34775 10.4337 8.74699 10.4337H10.4337V8.74699C10.4337 8.34775 10.7574 8.0241 11.1566 8.0241Z" fill="white"/>
<path fill-rule="evenodd" clip-rule="evenodd" d="M18.8382 18.8382C19.1205 18.5559 19.5783 18.5559 19.8606 18.8382L21.7883 20.7659C22.0706 21.0483 22.0706 21.506 21.7883 21.7883C21.506 22.0706 21.0483 22.0706 20.7659 21.7883L18.8382 19.8606C18.5559 19.5783 18.5559 19.1205 18.8382 18.8382Z" fill="black"/>
</svg>
