<svg width="24" height="24" viewBox="0 0 24 24" fill="none" xmlns="http://www.w3.org/2000/svg">
<path fill-rule="evenodd" clip-rule="evenodd" d="M17.8194 19.7006C17.7302 18.6064 18.6357 17.6929 19.7205 17.783C19.9086 17.7986 20.1337 17.8671 20.363 17.9368C20.3851 17.9435 20.4073 17.9502 20.4294 17.9569C20.4494 17.9629 20.4694 17.9689 20.4894 17.975C20.7001 18.0383 20.9097 18.1013 21.0692 18.1874C21.9844 18.6818 22.2799 19.8631 21.7067 20.7363C21.6068 20.8884 21.4519 21.0441 21.2962 21.2007C21.2814 21.2156 21.2666 21.2305 21.2519 21.2454C21.2371 21.2602 21.2224 21.2752 21.2076 21.2901C21.0524 21.4471 20.898 21.6034 20.7472 21.7041C19.8816 22.2823 18.7105 21.9843 18.2204 21.0611C18.135 20.9002 18.0726 20.6888 18.0097 20.4762C18.0038 20.4561 17.9978 20.4359 17.9918 20.4157C17.9852 20.3934 17.9785 20.3711 17.9719 20.3488C17.9028 20.1175 17.8349 19.8903 17.8194 19.7006Z" fill="black"/>
<path fill-rule="evenodd" clip-rule="evenodd" d="M20.1278 11.1429C20.1278 16.1924 16.0697 20.2858 11.0639 20.2858C6.05804 20.2858 2 16.1924 2 11.1429C2 6.09342 6.05804 2 11.0639 2C16.0697 2 20.1278 6.09342 20.1278 11.1429ZM8.18952 7.86036C8.84337 7.03208 9.85925 6.5 11.0001 6.5C12.1409 6.5 13.1568 7.03208 13.8106 7.86036L14.4902 7.52238C14.843 7.34689 15.272 7.48915 15.4485 7.84014C15.6249 8.19112 15.4819 8.61792 15.129 8.79341L14.4502 9.13106C14.5293 9.42496 14.5715 9.73389 14.5715 10.0526V10.2895H15.2857C15.6802 10.2895 16 10.6076 16 11C16 11.3924 15.6802 11.7105 15.2857 11.7105H14.5715V11.9474C14.5715 12.2661 14.5293 12.575 14.4502 12.8689L15.129 13.2066C15.4819 13.3821 15.6249 13.8089 15.4485 14.1599C15.272 14.5108 14.843 14.6531 14.4902 14.4776L13.8106 14.1396C13.1568 14.9679 12.1409 15.5 11.0001 15.5C9.85925 15.5 8.84337 14.9679 8.18952 14.1396L7.50998 14.4776C7.15714 14.6531 6.72809 14.5108 6.55167 14.1599C6.37525 13.8089 6.51826 13.3821 6.87111 13.2066L7.54998 12.8689C7.47084 12.575 7.42864 12.2661 7.42864 11.9474V11.7105H6.71429C6.3198 11.7105 6 11.3924 6 11C6 10.6076 6.3198 10.2895 6.71429 10.2895H7.42864V10.0526C7.42864 9.73389 7.47084 9.42496 7.54998 9.13106L6.87111 8.79341C6.51826 8.61792 6.37525 8.19112 6.55167 7.84014C6.72809 7.48915 7.15714 7.34689 7.50998 7.52238L8.18952 7.86036Z" fill="black"/>
<path d="M11.7144 13.9577V10.7632H13.1429V11.9474C13.1429 12.8755 12.5466 13.665 11.7144 13.9577Z" fill="black"/>
<path d="M8.85721 11.9474V10.7632H10.2858V13.9577C9.4535 13.665 8.85721 12.8755 8.85721 11.9474Z" fill="black"/>
<path d="M8.97914 9.34211C9.27331 8.51421 10.0671 7.92105 11.0001 7.92105C11.9331 7.92105 12.7268 8.51421 13.021 9.34211H8.97914Z" fill="black"/>
</svg>
