<svg width="24" height="24" viewBox="0 0 24 24" fill="none" xmlns="http://www.w3.org/2000/svg">
<path d="M6.71275 10.6736C7.16723 8.15492 9.38539 6.25 12.0437 6.25C13.6212 6.25 15.0431 6.9209 16.0328 7.9907C16.3141 8.29476 16.2956 8.76927 15.9915 9.05055C15.6875 9.33183 15.213 9.31337 14.9317 9.0093C14.2154 8.23504 13.1879 7.75 12.0437 7.75C10.2056 7.75 8.66974 9.00212 8.24452 10.6853L8.48095 10.4586C8.77994 10.172 9.25471 10.182 9.54137 10.4809C9.82804 10.7799 9.81805 11.2547 9.51905 11.5414L7.89662 13.0969C7.74932 13.2381 7.55084 13.3133 7.34695 13.3049C7.14306 13.2966 6.95137 13.2056 6.81608 13.0528L5.43852 11.4972C5.16391 11.1871 5.19267 10.7131 5.50277 10.4385C5.81286 10.1639 6.28686 10.1927 6.56148 10.5028L6.71275 10.6736Z" fill="black"/>
<path d="M16.6485 10.6959C16.8523 10.704 17.044 10.7947 17.1795 10.9472L18.5607 12.5019C18.8358 12.8115 18.8078 13.2856 18.4981 13.5607C18.1885 13.8358 17.7144 13.8078 17.4393 13.4981L17.2841 13.3234C16.8295 15.8458 14.6011 17.7509 11.9348 17.7509C10.3635 17.7509 8.94543 17.0895 7.95312 16.0322C7.66966 15.7302 7.68472 15.2555 7.98675 14.9721C8.28879 14.6886 8.76342 14.7037 9.04688 15.0057C9.76546 15.7714 10.792 16.2509 11.9348 16.2509C13.7819 16.2509 15.322 14.9991 15.7503 13.3193L15.5195 13.5409C15.2208 13.8278 14.746 13.8183 14.4591 13.5195C14.1721 13.2208 14.1817 12.746 14.4805 12.4591L16.0993 10.9044C16.2464 10.7631 16.4447 10.6878 16.6485 10.6959Z" fill="black"/>
<path fill-rule="evenodd" clip-rule="evenodd" d="M12 1.25C6.06294 1.25 1.25 6.06294 1.25 12C1.25 17.9371 6.06294 22.75 12 22.75C17.9371 22.75 22.75 17.9371 22.75 12C22.75 6.06294 17.9371 1.25 12 1.25ZM2.75 12C2.75 6.89137 6.89137 2.75 12 2.75C17.1086 2.75 21.25 6.89137 21.25 12C21.25 17.1086 17.1086 21.25 12 21.25C6.89137 21.25 2.75 17.1086 2.75 12Z" fill="black"/>
</svg>
