<svg width="24" height="24" viewBox="0 0 24 24" fill="none" xmlns="http://www.w3.org/2000/svg">
<path d="M6.71275 10.6736C7.16723 8.15492 9.38539 6.25 12.0437 6.25C13.6212 6.25 15.0431 6.9209 16.0328 7.9907C16.3141 8.29476 16.2956 8.76927 15.9915 9.05055C15.6875 9.33183 15.213 9.31337 14.9317 9.0093C14.2154 8.23504 13.1879 7.75 12.0437 7.75C10.2056 7.75 8.66974 9.00212 8.24452 10.6853L8.48095 10.4586C8.77994 10.172 9.25471 10.182 9.54137 10.4809C9.82804 10.7799 9.81805 11.2547 9.51905 11.5414L7.89662 13.0969C7.74932 13.2381 7.55084 13.3133 7.34695 13.3049C7.14306 13.2966 6.95137 13.2056 6.81608 13.0528L5.43852 11.4972C5.16391 11.1871 5.19267 10.7131 5.50277 10.4385C5.81286 10.1639 6.28686 10.1927 6.56148 10.5028L6.71275 10.6736Z" fill="black"/>
<path d="M16.6485 10.6959C16.8523 10.704 17.044 10.7947 17.1795 10.9472L18.5607 12.5019C18.8358 12.8115 18.8078 13.2856 18.4981 13.5607C18.1885 13.8358 17.7144 13.8078 17.4393 13.4981L17.2841 13.3234C16.8295 15.8458 14.6011 17.7509 11.9348 17.7509C10.3635 17.7509 8.94543 17.0895 7.95312 16.0322C7.66966 15.7302 7.68472 15.2555 7.98675 14.9721C8.28879 14.6886 8.76342 14.7037 9.04688 15.0057C9.76546 15.7714 10.792 16.2509 11.9348 16.2509C13.7819 16.2509 15.322 14.9991 15.7503 13.3193L15.5195 13.5409C15.2208 13.8278 14.746 13.8183 14.4591 13.5195C14.1721 13.2208 14.1817 12.746 14.4805 12.4591L16.0993 10.9044C16.2464 10.7631 16.4447 10.6878 16.6485 10.6959Z" fill="black"/>
<path fill-rule="evenodd" clip-rule="evenodd" d="M11.9426 1.25C9.63423 1.24999 7.82519 1.24998 6.4137 1.43975C4.96897 1.63399 3.82895 2.03933 2.93414 2.93414C2.03933 3.82895 1.63399 4.96897 1.43975 6.41371C1.24998 7.82519 1.24999 9.63423 1.25 11.9426V12.0574C1.24999 14.3658 1.24998 16.1748 1.43975 17.5863C1.63399 19.031 2.03933 20.1711 2.93414 21.0659C3.82895 21.9607 4.96897 22.366 6.4137 22.5603C7.82519 22.75 9.63423 22.75 11.9426 22.75H12.0574C14.3658 22.75 16.1748 22.75 17.5863 22.5603C19.031 22.366 20.1711 21.9607 21.0659 21.0659C21.9607 20.1711 22.366 19.031 22.5603 17.5863C22.75 16.1748 22.75 14.3658 22.75 12.0574V11.9426C22.75 9.63423 22.75 7.82519 22.5603 6.41371C22.366 4.96897 21.9607 3.82895 21.0659 2.93414C20.1711 2.03933 19.031 1.63399 17.5863 1.43975C16.1748 1.24998 14.3658 1.24999 12.0574 1.25H11.9426ZM3.9948 3.9948C4.56445 3.42514 5.33517 3.09825 6.61358 2.92637C7.91356 2.75159 9.62177 2.75 12 2.75C14.3782 2.75 16.0864 2.75159 17.3864 2.92637C18.6648 3.09825 19.4355 3.42514 20.0052 3.9948C20.5749 4.56445 20.9018 5.33517 21.0736 6.61358C21.2484 7.91356 21.25 9.62178 21.25 12C21.25 14.3782 21.2484 16.0864 21.0736 17.3864C20.9018 18.6648 20.5749 19.4355 20.0052 20.0052C19.4355 20.5749 18.6648 20.9018 17.3864 21.0736C16.0864 21.2484 14.3782 21.25 12 21.25C9.62177 21.25 7.91356 21.2484 6.61358 21.0736C5.33517 20.9018 4.56445 20.5749 3.9948 20.0052C3.42514 19.4355 3.09825 18.6648 2.92637 17.3864C2.75159 16.0864 2.75 14.3782 2.75 12C2.75 9.62178 2.75159 7.91356 2.92637 6.61358C3.09825 5.33517 3.42514 4.56445 3.9948 3.9948Z" fill="black"/>
</svg>
