<svg width="24" height="24" viewBox="0 0 24 24" fill="none" xmlns="http://www.w3.org/2000/svg">
<path d="M16.7275 6C16.7275 5.58579 16.3917 5.25 15.9775 5.25C15.5633 5.25 15.2275 5.58579 15.2275 6V7.0232C12.9877 5.46956 9.91113 5.70783 7.92796 7.73802C5.69068 10.0283 5.69068 13.7346 7.92796 16.0249C10.1748 18.325 13.8252 18.325 16.072 16.0249C17.3754 14.6907 17.9168 12.8781 17.7055 11.1509C17.6552 10.7398 17.2812 10.4472 16.87 10.4975C16.4589 10.5478 16.1663 10.9219 16.2166 11.333C16.3757 12.6337 15.9667 13.9861 14.999 14.9767C13.3407 16.6744 10.6593 16.6744 9.00097 14.9767C7.33301 13.2692 7.33301 10.4937 9.00097 8.78618C10.324 7.4318 12.298 7.15792 13.8844 7.96452H13.3258C12.9116 7.96452 12.5758 8.3003 12.5758 8.71452C12.5758 9.12873 12.9116 9.46452 13.3258 9.46452H15.9775C16.3917 9.46452 16.7275 9.12873 16.7275 8.71452V6Z" fill="black"/>
<path fill-rule="evenodd" clip-rule="evenodd" d="M12 1.25C6.06294 1.25 1.25 6.06294 1.25 12C1.25 17.9371 6.06294 22.75 12 22.75C17.9371 22.75 22.75 17.9371 22.75 12C22.75 6.06294 17.9371 1.25 12 1.25ZM2.75 12C2.75 6.89137 6.89137 2.75 12 2.75C17.1086 2.75 21.25 6.89137 21.25 12C21.25 17.1086 17.1086 21.25 12 21.25C6.89137 21.25 2.75 17.1086 2.75 12Z" fill="black"/>
</svg>
