<svg width="24" height="24" viewBox="0 0 24 24" fill="none" xmlns="http://www.w3.org/2000/svg">
<path fill-rule="evenodd" clip-rule="evenodd" d="M12 2.75C6.89137 2.75 2.75 6.89137 2.75 12C2.75 17.1086 6.89137 21.25 12 21.25C17.1086 21.25 21.25 17.1086 21.25 12C21.25 6.89137 17.1086 2.75 12 2.75ZM1.25 12C1.25 6.06294 6.06294 1.25 12 1.25C17.9371 1.25 22.75 6.06294 22.75 12C22.75 17.9371 17.9371 22.75 12 22.75C6.06294 22.75 1.25 17.9371 1.25 12ZM8.46967 7.96967C8.76256 7.67678 9.23744 7.67678 9.53033 7.96967L12 10.4393L14.4697 7.96967C14.7626 7.67678 15.2374 7.67678 15.5303 7.96967C15.8232 8.26256 15.8232 8.73744 15.5303 9.03033L12.5303 12.0303C12.2374 12.3232 11.7626 12.3232 11.4697 12.0303L8.46967 9.03033C8.17678 8.73744 8.17678 8.26256 8.46967 7.96967ZM8.46967 11.9697C8.76256 11.6768 9.23744 11.6768 9.53033 11.9697L12 14.4393L14.4697 11.9697C14.7626 11.6768 15.2374 11.6768 15.5303 11.9697C15.8232 12.2626 15.8232 12.7374 15.5303 13.0303L12.5303 16.0303C12.2374 16.3232 11.7626 16.3232 11.4697 16.0303L8.46967 13.0303C8.17678 12.7374 8.17678 12.2626 8.46967 11.9697Z" fill="black"/>
</svg>
