<svg width="24" height="24" viewBox="0 0 24 24" fill="none" xmlns="http://www.w3.org/2000/svg">
<path fill-rule="evenodd" clip-rule="evenodd" d="M12 2.75C6.89137 2.75 2.75 6.89137 2.75 12C2.75 17.1086 6.89137 21.25 12 21.25C17.1086 21.25 21.25 17.1086 21.25 12C21.25 6.89137 17.1086 2.75 12 2.75ZM1.25 12C1.25 6.06294 6.06294 1.25 12 1.25C17.9371 1.25 22.75 6.06294 22.75 12C22.75 17.9371 17.9371 22.75 12 22.75C6.06294 22.75 1.25 17.9371 1.25 12ZM7.96967 8.46967C8.26256 8.17678 8.73744 8.17678 9.03033 8.46967L12.0303 11.4697C12.3232 11.7626 12.3232 12.2374 12.0303 12.5303L9.03033 15.5303C8.73744 15.8232 8.26256 15.8232 7.96967 15.5303C7.67678 15.2374 7.67678 14.7626 7.96967 14.4697L10.4393 12L7.96967 9.53033C7.67678 9.23744 7.67678 8.76256 7.96967 8.46967ZM11.9697 8.46967C12.2626 8.17678 12.7374 8.17678 13.0303 8.46967L16.0303 11.4697C16.3232 11.7626 16.3232 12.2374 16.0303 12.5303L13.0303 15.5303C12.7374 15.8232 12.2626 15.8232 11.9697 15.5303C11.6768 15.2374 11.6768 14.7626 11.9697 14.4697L14.4393 12L11.9697 9.53033C11.6768 9.23744 11.6768 8.76256 11.9697 8.46967Z" fill="black"/>
</svg>
