<svg width="24" height="24" viewBox="0 0 24 24" fill="none" xmlns="http://www.w3.org/2000/svg">
<path fill-rule="evenodd" clip-rule="evenodd" d="M12 2.75C6.89137 2.75 2.75 6.89137 2.75 12C2.75 17.1086 6.89137 21.25 12 21.25C17.1086 21.25 21.25 17.1086 21.25 12C21.25 6.89137 17.1086 2.75 12 2.75ZM1.25 12C1.25 6.06294 6.06294 1.25 12 1.25C17.9371 1.25 22.75 6.06294 22.75 12C22.75 17.9371 17.9371 22.75 12 22.75C6.06294 22.75 1.25 17.9371 1.25 12ZM8.46967 9.96967C8.76256 9.67678 9.23744 9.67678 9.53033 9.96967L12 12.4393L14.4697 9.96967C14.7626 9.67678 15.2374 9.67678 15.5303 9.96967C15.8232 10.2626 15.8232 10.7374 15.5303 11.0303L12.5303 14.0303C12.2374 14.3232 11.7626 14.3232 11.4697 14.0303L8.46967 11.0303C8.17678 10.7374 8.17678 10.2626 8.46967 9.96967Z" fill="black"/>
</svg>
