<svg width="24" height="24" viewBox="0 0 24 24" fill="none" xmlns="http://www.w3.org/2000/svg">
<path fill-rule="evenodd" clip-rule="evenodd" d="M11.9426 1.25H12.0574C14.3658 1.24999 16.1748 1.24998 17.5863 1.43975C19.031 1.63399 20.1711 2.03933 21.0659 2.93414C21.9607 3.82895 22.366 4.96897 22.5603 6.41371C22.75 7.82519 22.75 9.63423 22.75 11.9426V12.0574C22.75 14.3658 22.75 16.1748 22.5603 17.5863C22.366 19.031 21.9607 20.1711 21.0659 21.0659C20.1711 21.9607 19.031 22.366 17.5863 22.5603C16.1748 22.75 14.3658 22.75 12.0574 22.75H11.9426C9.63423 22.75 7.82519 22.75 6.41371 22.5603C4.96897 22.366 3.82895 21.9607 2.93414 21.0659C2.03933 20.1711 1.63399 19.031 1.43975 17.5863C1.24998 16.1748 1.24999 14.3658 1.25 12.0574V11.9426C1.24999 9.63423 1.24998 7.82519 1.43975 6.41371C1.63399 4.96897 2.03933 3.82895 2.93414 2.93414C3.82895 2.03933 4.96897 1.63399 6.41371 1.43975C7.82519 1.24998 9.63423 1.24999 11.9426 1.25ZM6.61358 2.92637C5.33517 3.09825 4.56445 3.42514 3.9948 3.9948C3.42514 4.56445 3.09825 5.33517 2.92637 6.61358C2.75159 7.91356 2.75 9.62178 2.75 12C2.75 14.3782 2.75159 16.0864 2.92637 17.3864C3.09825 18.6648 3.42514 19.4355 3.9948 20.0052C4.56445 20.5749 5.33517 20.9018 6.61358 21.0736C7.91356 21.2484 9.62177 21.25 12 21.25C14.3782 21.25 16.0864 21.2484 17.3864 21.0736C18.6648 20.9018 19.4355 20.5749 20.0052 20.0052C20.5749 19.4355 20.9018 18.6648 21.0736 17.3864C21.2484 16.0864 21.25 14.3782 21.25 12C21.25 9.62178 21.2484 7.91356 21.0736 6.61358C20.9018 5.33517 20.5749 4.56445 20.0052 3.9948C19.4355 3.42514 18.6648 3.09825 17.3864 2.92637C16.0864 2.75159 14.3782 2.75 12 2.75C9.62177 2.75 7.91356 2.75159 6.61358 2.92637ZM11.305 6.4955C11.5836 6.80199 11.561 7.27633 11.2545 7.55496L9.93996 8.75H16C16.4142 8.75 16.75 9.08579 16.75 9.5C16.75 9.91421 16.4142 10.25 16 10.25H9.93996L11.2545 11.445C11.561 11.7237 11.5836 12.198 11.305 12.5045C11.0263 12.811 10.552 12.8336 10.2455 12.555L7.4955 10.055C7.33914 9.91281 7.25 9.71131 7.25 9.5C7.25 9.28869 7.33914 9.08719 7.4955 8.94505L10.2455 6.44505C10.552 6.16642 11.0263 6.189 11.305 6.4955ZM12.695 11.4955C12.9737 11.189 13.448 11.1664 13.7545 11.445L16.5045 13.945C16.6609 14.0872 16.75 14.2887 16.75 14.5C16.75 14.7113 16.6609 14.9128 16.5045 15.055L13.7545 17.555C13.448 17.8336 12.9737 17.811 12.695 17.5045C12.4164 17.198 12.439 16.7237 12.7455 16.445L14.06 15.25H8C7.58579 15.25 7.25 14.9142 7.25 14.5C7.25 14.0858 7.58579 13.75 8 13.75H14.06L12.7455 12.555C12.439 12.2763 12.4164 11.802 12.695 11.4955Z" fill="black"/>
</svg>
