<svg width="24" height="24" viewBox="0 0 24 24" fill="none" xmlns="http://www.w3.org/2000/svg">
<path d="M10 17.25C9.30964 17.25 8.75 16.6904 8.75 16C8.75 15.3096 9.30964 14.75 10 14.75C10.6904 14.75 11.25 15.3096 11.25 16C11.25 16.6904 10.6904 17.25 10 17.25Z" fill="black"/>
<path d="M15.25 8C15.25 8.69036 14.6904 9.25 14 9.25C13.3096 9.25 12.75 8.69036 12.75 8C12.75 7.30964 13.3096 6.75 14 6.75C14.6904 6.75 15.25 7.30964 15.25 8Z" fill="black"/>
<path fill-rule="evenodd" clip-rule="evenodd" d="M2 12C2 7.28595 2 4.92893 3.46447 3.46447C4.92893 2 7.28595 2 12 2C16.714 2 19.0711 2 20.5355 3.46447C22 4.92893 22 7.28595 22 12C22 16.714 22 19.0711 20.5355 20.5355C19.0711 22 16.714 22 12 22C7.28595 22 4.92893 22 3.46447 20.5355C2 19.0711 2 16.714 2 12ZM10 18.75C8.48122 18.75 7.25 17.5188 7.25 16C7.25 14.4812 8.48122 13.25 10 13.25C11.5188 13.25 12.75 14.4812 12.75 16C12.75 17.5188 11.5188 18.75 10 18.75ZM16.75 8C16.75 9.51878 15.5188 10.75 14 10.75C12.4812 10.75 11.25 9.51878 11.25 8C11.25 6.48122 12.4812 5.25 14 5.25C15.5188 5.25 16.75 6.48122 16.75 8ZM13.25 16C13.25 15.5858 13.5858 15.25 14 15.25H19C19.4142 15.25 19.75 15.5858 19.75 16C19.75 16.4142 19.4142 16.75 19 16.75H14C13.5858 16.75 13.25 16.4142 13.25 16ZM10 7.25C10.4142 7.25 10.75 7.58579 10.75 8C10.75 8.41421 10.4142 8.75 10 8.75L5 8.75C4.58579 8.75 4.25 8.41421 4.25 8C4.25 7.58579 4.58579 7.25 5 7.25L10 7.25ZM4.25 16C4.25 15.5858 4.58579 15.25 5 15.25H6C6.41421 15.25 6.75 15.5858 6.75 16C6.75 16.4142 6.41421 16.75 6 16.75H5C4.58579 16.75 4.25 16.4142 4.25 16ZM19 7.25C19.4142 7.25 19.75 7.58579 19.75 8C19.75 8.41421 19.4142 8.75 19 8.75H18C17.5858 8.75 17.25 8.41421 17.25 8C17.25 7.58579 17.5858 7.25 18 7.25H19Z" fill="black"/>
</svg>
