<svg width="24" height="24" viewBox="0 0 24 24" fill="none" xmlns="http://www.w3.org/2000/svg">
<path d="M2 6.21053C2 4.22567 2 3.23323 2.65901 2.61662C3.31802 2 4.37868 2 6.5 2C8.62132 2 9.68198 2 10.341 2.61662C11 3.23323 11 4.22567 11 6.21053V17.7895C11 19.7743 11 20.7668 10.341 21.3834C9.68198 22 8.62132 22 6.5 22C4.37868 22 3.31802 22 2.65901 21.3834C2 20.7668 2 19.7743 2 17.7895V6.21053Z" fill="black"/>
<path d="M13 15.4C13 13.3258 13 12.2887 13.659 11.6444C14.318 11 15.3787 11 17.5 11C19.6213 11 20.682 11 21.341 11.6444C22 12.2887 22 13.3258 22 15.4V17.6C22 19.6742 22 20.7113 21.341 21.3556C20.682 22 19.6213 22 17.5 22C15.3787 22 14.318 22 13.659 21.3556C13 20.7113 13 19.6742 13 17.6V15.4Z" fill="black"/>
<path d="M13 5.5C13 4.4128 13 3.8692 13.1713 3.44041C13.3996 2.86867 13.8376 2.41443 14.389 2.17761C14.8024 2 15.3266 2 16.375 2H18.625C19.6734 2 20.1976 2 20.611 2.17761C21.1624 2.41443 21.6004 2.86867 21.8287 3.44041C22 3.8692 22 4.4128 22 5.5C22 6.5872 22 7.1308 21.8287 7.55959C21.6004 8.13133 21.1624 8.58557 20.611 8.82239C20.1976 9 19.6734 9 18.625 9H16.375C15.3266 9 14.8024 9 14.389 8.82239C13.8376 8.58557 13.3996 8.13133 13.1713 7.55959C13 7.1308 13 6.5872 13 5.5Z" fill="black"/>
</svg>
