<svg width="24" height="24" viewBox="0 0 24 24" fill="none" xmlns="http://www.w3.org/2000/svg">
<path fill-rule="evenodd" clip-rule="evenodd" d="M2.25 6C2.25 5.58579 2.58579 5.25 3 5.25H20C20.4142 5.25 20.75 5.58579 20.75 6C20.75 6.41421 20.4142 6.75 20 6.75H3C2.58579 6.75 2.25 6.41421 2.25 6ZM20.4613 10.4086C20.7879 10.6634 20.8461 11.1347 20.5914 11.4613L16.6914 16.4613C16.5522 16.6397 16.3399 16.7458 16.1136 16.7499C15.8873 16.754 15.6713 16.6557 15.5257 16.4824L13.4257 13.9824C13.1593 13.6652 13.2004 13.1921 13.5176 12.9257C13.8348 12.6593 14.3079 12.7004 14.5743 13.0176L16.0784 14.8082L19.4086 10.5387C19.6634 10.2121 20.1347 10.1539 20.4613 10.4086ZM2.25 11C2.25 10.5858 2.58579 10.25 3 10.25H10C10.4142 10.25 10.75 10.5858 10.75 11C10.75 11.4142 10.4142 11.75 10 11.75H3C2.58579 11.75 2.25 11.4142 2.25 11ZM2.25 16C2.25 15.5858 2.58579 15.25 3 15.25H10C10.4142 15.25 10.75 15.5858 10.75 16C10.75 16.4142 10.4142 16.75 10 16.75H3C2.58579 16.75 2.25 16.4142 2.25 16Z" fill="black"/>
</svg>
