<svg width="24" height="24" viewBox="0 0 24 24" fill="none" xmlns="http://www.w3.org/2000/svg">
<path fill-rule="evenodd" clip-rule="evenodd" d="M2.25 6C2.25 5.58579 2.58579 5.25 3 5.25H21C21.4142 5.25 21.75 5.58579 21.75 6C21.75 6.41421 21.4142 6.75 21 6.75H3C2.58579 6.75 2.25 6.41421 2.25 6ZM2.25 10C2.25 9.58579 2.58579 9.25 3 9.25H21C21.4142 9.25 21.75 9.58579 21.75 10C21.75 10.4142 21.4142 10.75 21 10.75H3C2.58579 10.75 2.25 10.4142 2.25 10ZM20.4613 12.9086C20.7879 13.1634 20.8461 13.6347 20.5914 13.9613L16.6914 18.9613C16.5522 19.1397 16.3399 19.2458 16.1136 19.2499C15.8873 19.254 15.6713 19.1557 15.5257 18.9824L13.4257 16.4824C13.1593 16.1652 13.2004 15.6921 13.5176 15.4257C13.8348 15.1593 14.3079 15.2004 14.5743 15.5176L16.0784 17.3082L19.4086 13.0387C19.6634 12.7121 20.1347 12.6539 20.4613 12.9086ZM2.25 14C2.25 13.5858 2.58579 13.25 3 13.25H10C10.4142 13.25 10.75 13.5858 10.75 14C10.75 14.4142 10.4142 14.75 10 14.75H3C2.58579 14.75 2.25 14.4142 2.25 14ZM2.25 18C2.25 17.5858 2.58579 17.25 3 17.25H10C10.4142 17.25 10.75 17.5858 10.75 18C10.75 18.4142 10.4142 18.75 10 18.75H3C2.58579 18.75 2.25 18.4142 2.25 18Z" fill="black"/>
</svg>
