<svg width="24" height="24" viewBox="0 0 24 24" fill="none" xmlns="http://www.w3.org/2000/svg">
<path fill-rule="evenodd" clip-rule="evenodd" d="M2.25 6C2.25 5.58579 2.58579 5.25 3 5.25H20C20.4142 5.25 20.75 5.58579 20.75 6C20.75 6.41421 20.4142 6.75 20 6.75H3C2.58579 6.75 2.25 6.41421 2.25 6ZM19.4656 10.016L19.5344 10.0557C20.3262 10.5129 20.9675 10.8831 21.4397 11.2194C21.9157 11.5583 22.3284 11.9351 22.5407 12.4476C22.8198 13.1214 22.8198 13.8786 22.5407 14.5524C22.3284 15.0649 21.9157 15.4417 21.4397 15.7806C20.9675 16.1169 20.3262 16.4871 19.5344 16.9443L19.4656 16.9839C18.6738 17.4411 18.0326 17.8114 17.5052 18.0522C16.9737 18.295 16.4411 18.464 15.8911 18.3915C15.1679 18.2963 14.5123 17.9178 14.0683 17.3392C13.7305 16.899 13.6106 16.3533 13.5551 15.7716C13.5 15.1945 13.5 14.454 13.5 13.5397V13.4603C13.5 12.546 13.5 11.8055 13.5551 11.2284C13.6106 10.6467 13.7305 10.101 14.0683 9.66084C14.5123 9.08221 15.1679 8.70366 15.8911 8.60846C16.4411 8.53605 16.9737 8.70502 17.5052 8.9478C18.0326 9.18864 18.6738 9.5589 19.4656 10.016ZM16.8821 10.3122C16.4243 10.1031 16.2099 10.0794 16.0868 10.0956C15.7582 10.1389 15.4601 10.311 15.2583 10.574C15.1828 10.6724 15.0961 10.87 15.0483 11.3709C15.0008 11.8682 15 12.5366 15 13.5C15 14.4634 15.0008 15.1318 15.0483 15.6291C15.0961 16.13 15.1828 16.3276 15.2583 16.426C15.4601 16.689 15.7582 16.8611 16.0868 16.9044C16.2099 16.9206 16.4243 16.8969 16.8821 16.6878C17.3364 16.4803 17.9157 16.1468 18.75 15.6651C19.5843 15.1834 20.1628 14.8484 20.5697 14.5587C20.9796 14.2669 21.1074 14.093 21.1549 13.9784C21.2817 13.6721 21.2817 13.3279 21.1549 13.0216C21.1074 12.907 20.9796 12.7331 20.5697 12.4413C20.1628 12.1516 19.5843 11.8166 18.75 11.3349C17.9157 10.8532 17.3364 10.5197 16.8821 10.3122ZM2.25 11C2.25 10.5858 2.58579 10.25 3 10.25H10C10.4142 10.25 10.75 10.5858 10.75 11C10.75 11.4142 10.4142 11.75 10 11.75H3C2.58579 11.75 2.25 11.4142 2.25 11ZM2.25 16C2.25 15.5858 2.58579 15.25 3 15.25H10C10.4142 15.25 10.75 15.5858 10.75 16C10.75 16.4142 10.4142 16.75 10 16.75H3C2.58579 16.75 2.25 16.4142 2.25 16Z" fill="black"/>
</svg>
