<svg width="24" height="24" viewBox="0 0 24 24" fill="none" xmlns="http://www.w3.org/2000/svg">
<path fill-rule="evenodd" clip-rule="evenodd" d="M3.46447 3.46447C2 4.92893 2 7.28595 2 12C2 16.714 2 19.0711 3.46447 20.5355C4.92893 22 7.28595 22 12 22C16.714 22 19.0711 22 20.5355 20.5355C22 19.0711 22 16.714 22 12C22 7.28595 22 4.92893 20.5355 3.46447C19.0711 2 16.714 2 12 2C7.28595 2 4.92893 2 3.46447 3.46447ZM15 12C15.5523 12 16 11.3284 16 10.5C16 9.67157 15.5523 9 15 9C14.4477 9 14 9.67157 14 10.5C14 11.3284 14.4477 12 15 12ZM10 10.5C10 11.3284 9.55228 12 9 12C8.44772 12 8 11.3284 8 10.5C8 9.67157 8.44772 9 9 9C9.55228 9 10 9.67157 10 10.5ZM8.39747 15.5534C8.64413 15.2206 9.11385 15.1508 9.44661 15.3975C10.175 15.9373 11.0541 16.25 12 16.25C12.9459 16.25 13.825 15.9373 14.5534 15.3975C14.8862 15.1508 15.3559 15.2206 15.6025 15.5534C15.8492 15.8862 15.7794 16.3559 15.4466 16.6025C14.4742 17.3233 13.285 17.75 12 17.75C10.715 17.75 9.5258 17.3233 8.55339 16.6025C8.22062 16.3559 8.15082 15.8862 8.39747 15.5534Z" fill="black"/>
</svg>
