<svg width="24" height="24" viewBox="0 0 24 24" fill="none" xmlns="http://www.w3.org/2000/svg">
<path opacity="0.5" d="M13 7L3 7" stroke="black" stroke-width="1.5" stroke-linecap="round"/>
<path opacity="0.5" d="M10 12H3" stroke="black" stroke-width="1.5" stroke-linecap="round"/>
<path opacity="0.5" d="M8 17H3" stroke="black" stroke-width="1.5" stroke-linecap="round"/>
<path d="M11.3161 16.6922C11.1461 17.07 11.3145 17.514 11.6922 17.6839C12.07 17.8539 12.514 17.6855 12.6839 17.3078L11.3161 16.6922ZM16.5 7L17.1839 6.69223C17.0628 6.42309 16.7951 6.25 16.5 6.25C16.2049 6.25 15.9372 6.42309 15.8161 6.69223L16.5 7ZM20.3161 17.3078C20.486 17.6855 20.93 17.8539 21.3078 17.6839C21.6855 17.514 21.8539 17.07 21.6839 16.6922L20.3161 17.3078ZM19.3636 13.3636L20.0476 13.0559L20.0476 13.0559L19.3636 13.3636ZM13.6364 12.6136C13.2222 12.6136 12.8864 12.9494 12.8864 13.3636C12.8864 13.7779 13.2222 14.1136 13.6364 14.1136V12.6136ZM12.6839 17.3078L17.1839 7.30777L15.8161 6.69223L11.3161 16.6922L12.6839 17.3078ZM21.6839 16.6922L20.0476 13.0559L18.6797 13.6714L20.3161 17.3078L21.6839 16.6922ZM20.0476 13.0559L17.1839 6.69223L15.8161 7.30777L18.6797 13.6714L20.0476 13.0559ZM19.3636 12.6136H13.6364V14.1136H19.3636V12.6136Z" fill="black"/>
</svg>
