<svg width="24" height="24" viewBox="0 0 24 24" fill="none" xmlns="http://www.w3.org/2000/svg">
<path d="M13.9333 9.79988L11 11.9999V7.99988C11 7.1272 11 6.69087 11.2764 6.55267C11.5528 6.41447 11.9019 6.67628 12.6 7.19988L13.9333 8.19988C14.4222 8.56655 14.6667 8.74988 14.6667 8.99988C14.6667 9.24988 14.4222 9.43322 13.9333 9.79988Z" stroke="black" stroke-width="1.5"/>
<path d="M13.9333 15.8L12.6 16.8C11.9019 17.3236 11.5528 17.5854 11.2764 17.4472C11 17.309 11 16.8727 11 16V12L13.9333 14.2C14.4222 14.5667 14.6667 14.75 14.6667 15C14.6667 15.25 14.4222 15.4333 13.9333 15.8Z" stroke="black" stroke-width="1.5"/>
<path d="M8.48014 8.92383C8.16193 8.65866 7.68901 8.70165 7.42383 9.01986C7.15866 9.33807 7.20165 9.81099 7.51986 10.0762L8.48014 8.92383ZM11.4801 11.4238L8.48014 8.92383L7.51986 10.0762L10.5199 12.5762L11.4801 11.4238Z" fill="black"/>
<path d="M8.48014 15.0762C8.16193 15.3413 7.68901 15.2983 7.42383 14.9801C7.15866 14.6619 7.20165 14.189 7.51986 13.9238L8.48014 15.0762ZM11.4801 12.5762L8.48014 15.0762L7.51986 13.9238L10.5199 11.4238L11.4801 12.5762Z" fill="black"/>
<path d="M22 12C22 16.714 22 19.0711 20.5355 20.5355C19.0711 22 16.714 22 12 22C7.28595 22 4.92893 22 3.46447 20.5355C2 19.0711 2 16.714 2 12C2 7.28595 2 4.92893 3.46447 3.46447C4.92893 2 7.28595 2 12 2C16.714 2 19.0711 2 20.5355 3.46447C21.5093 4.43821 21.8356 5.80655 21.9449 8" stroke="black" stroke-width="1.5" stroke-linecap="round"/>
</svg>
