<svg width="24" height="24" viewBox="0 0 24 24" fill="none" xmlns="http://www.w3.org/2000/svg">
<path d="M13.2633 4.6551C14.4211 5.47731 15 5.88842 15 6.45874C15 7.02907 14.4211 7.44017 13.2633 8.26238L8 12V5.22457C8 3.33816 8 2.39496 8.60465 2.08561C8.96658 1.90043 9.38847 2.02253 10 2.38554" stroke="black" stroke-width="1.5" stroke-linecap="round"/>
<path d="M13.2633 19.3449L11.5253 20.5791C9.98131 21.6755 9.2093 22.2238 8.60465 21.9144C8 21.605 8 20.6618 8 18.7754V12L13.2633 15.7376C14.4211 16.5598 15 16.9709 15 17.5413C15 18.1116 14.4211 18.5227 13.2633 19.3449Z" stroke="black" stroke-width="1.5"/>
<path d="M2.5699 14.8856C2.23057 15.1231 2.14804 15.5908 2.38558 15.9301C2.62311 16.2694 3.09076 16.352 3.4301 16.1144L2.5699 14.8856ZM3.4301 16.1144L8.4301 12.6144L7.5699 11.3856L2.5699 14.8856L3.4301 16.1144Z" fill="black"/>
<path d="M2.5699 9.11442C2.23057 8.87689 2.14804 8.40924 2.38558 8.0699C2.62311 7.73057 3.09076 7.64804 3.4301 7.88558L2.5699 9.11442ZM3.4301 7.88558L8.4301 11.3856L7.5699 12.6144L2.5699 9.11442L3.4301 7.88558Z" fill="black"/>
<path d="M19 5C19 5 21 7.1 21 12C21 12.7276 20.9559 13.3936 20.8808 14M19 19C19 19 19.3043 18.6805 19.6755 18" stroke="black" stroke-width="1.5" stroke-linecap="round"/>
<path d="M17 8C17 8 18 9.9 18 12C18 14.1 17 16 17 16" stroke="black" stroke-width="1.5" stroke-linecap="round"/>
</svg>
