<svg width="24" height="24" viewBox="0 0 24 24" fill="none" xmlns="http://www.w3.org/2000/svg">
<path d="M17 22V21C17 19.1144 17 18.1716 16.4142 17.5858C15.8284 17 14.8856 17 13 17H11C9.11438 17 8.17157 17 7.58579 17.5858C7 18.1716 7 19.1144 7 21V22" stroke="black" stroke-width="1.5"/>
<path d="M7 8H13" stroke="black" stroke-width="1.5" stroke-linecap="round"/>
<path d="M2 12C2 7.28595 2 4.92893 3.46447 3.46447C4.92893 2 7.28595 2 12 2C12.3415 2 12.5122 2 12.6858 2.01515C13.4951 2.08581 14.2874 2.414 14.9097 2.93631C15.0431 3.04835 15.1668 3.17206 15.4142 3.41944L20.5806 8.58578C20.828 8.83317 20.9516 8.95687 21.0637 9.09034C21.586 9.71257 21.9142 10.5049 21.9848 11.3142C22 11.4878 22 11.6585 22 12C22 16.714 22 19.0711 20.5355 20.5355C19.0711 22 16.714 22 12 22C7.28595 22 4.92893 22 3.46447 20.5355C2.49073 19.5618 2.16444 18.1934 2.0551 16" stroke="black" stroke-width="1.5" stroke-linecap="round"/>
</svg>
