<svg width="24" height="24" viewBox="0 0 24 24" fill="none" xmlns="http://www.w3.org/2000/svg">
<path d="M14 21H5C4.06812 21 3.60218 21 3.23463 20.8478C2.74458 20.6448 2.35523 20.2554 2.15224 19.7654C2 19.3978 2 18.9319 2 18C2 17.0681 2 16.6022 2.15224 16.2346C2.35523 15.7446 2.74458 15.3552 3.23463 15.1522C3.60218 15 4.06812 15 5 15H19C19.9319 15 20.3978 15 20.7654 15.1522C21.2554 15.3552 21.6448 15.7446 21.8478 16.2346C22 16.6022 22 17.0681 22 18C22 18.9319 22 19.3978 21.8478 19.7654C21.6448 20.2554 21.2554 20.6448 20.7654 20.8478C20.3978 21 19.9319 21 19 21H18" stroke="black" stroke-width="1.5" stroke-linecap="round"/>
<path d="M2 12C2 11.0681 2 10.6022 2.15224 10.2346C2.35523 9.74458 2.74458 9.35523 3.23463 9.15224C3.60218 9 4.06812 9 5 9H19C19.9319 9 20.3978 9 20.7654 9.15224C21.2554 9.35523 21.6448 9.74458 21.8478 10.2346C22 10.6022 22 11.0681 22 12C22 12.9319 22 13.3978 21.8478 13.7654C21.6448 14.2554 21.2554 14.6448 20.7654 14.8478C20.3978 15 19.9319 15 19 15H5C4.06812 15 3.60218 15 3.23463 14.8478C2.74458 14.6448 2.35523 14.2554 2.15224 13.7654C2 13.3978 2 12.9319 2 12Z" stroke="black" stroke-width="1.5"/>
<path d="M10 3H19C19.9319 3 20.3978 3 20.7654 3.15224C21.2554 3.35523 21.6448 3.74458 21.8478 4.23463C22 4.60218 22 5.06812 22 6C22 6.93188 22 7.39782 21.8478 7.76537C21.6448 8.25542 21.2554 8.64477 20.7654 8.84776C20.3978 9 19.9319 9 19 9H5C4.06812 9 3.60218 9 3.23463 8.84776C2.74458 8.64477 2.35523 8.25542 2.15224 7.76537C2 7.39782 2 6.93188 2 6C2 5.06812 2 4.60218 2.15224 4.23463C2.35523 3.74458 2.74458 3.35523 3.23463 3.15224C3.60218 3 4.06812 3 5 3H6" stroke="black" stroke-width="1.5" stroke-linecap="round"/>
<circle cx="5" cy="12" r="1" fill="black"/>
<circle cx="5" cy="6" r="1" fill="black"/>
<circle cx="5" cy="18" r="1" fill="black"/>
</svg>
