<svg width="24" height="24" viewBox="0 0 24 24" fill="none" xmlns="http://www.w3.org/2000/svg">
<path fill-rule="evenodd" clip-rule="evenodd" d="M8.75 3.5C8.75 3.08579 9.08579 2.75 9.5 2.75H14.5C14.9142 2.75 15.25 3.08579 15.25 3.5C15.25 3.91421 14.9142 4.25 14.5 4.25H9.5C9.08579 4.25 8.75 3.91421 8.75 3.5ZM9.95827 5.25022H14.0414C15.4106 5.25021 16.4955 5.25021 17.3619 5.33834C18.2496 5.42864 18.9906 5.61761 19.6388 6.05074C20.1575 6.39729 20.6028 6.84261 20.9493 7.36126C21.3824 8.00945 21.5715 8.7504 21.6618 9.63802C21.75 10.5047 21.75 11.5901 21.75 12.9601V13.0416C21.75 14.4108 21.75 15.4957 21.6619 16.3621C21.5716 17.2497 21.3826 17.9907 20.9495 18.639C20.6029 19.1576 20.1576 19.6029 19.639 19.9495C18.9907 20.3826 18.2497 20.5716 17.3621 20.6619C16.4957 20.75 15.4108 20.75 14.0416 20.75H9.95844C8.58922 20.75 7.50431 20.75 6.63794 20.6619C5.7503 20.5716 5.00926 20.3826 4.36104 19.9495C3.84239 19.6029 3.39707 19.1576 3.05052 18.639C2.61739 17.9907 2.42841 17.2497 2.33812 16.3621C2.24998 15.4957 2.24999 14.4108 2.25 13.0416V12.9566C2.24999 11.588 2.24998 10.5035 2.3381 9.63749C2.42838 8.75016 2.61733 8.00935 3.05037 7.36126C3.39692 6.84261 3.84224 6.39729 4.36089 6.05074C5.00911 5.61761 5.75015 5.42864 6.6378 5.33834C7.50415 5.25021 8.58906 5.25021 9.95827 5.25022ZM6.7896 6.83064C6.02056 6.90887 5.55492 7.05695 5.19425 7.29795C4.83938 7.53506 4.53469 7.83975 4.29758 8.19462C4.05664 8.5552 3.90861 9.02065 3.83039 9.78933C3.75091 10.5706 3.75 11.5787 3.75 12.9981V13C3.75 14.4201 3.75091 15.4287 3.83041 16.2102C3.90865 16.9793 4.05673 17.4449 4.29772 17.8056C4.53484 18.1605 4.83953 18.4652 5.1944 18.7023C5.55507 18.9433 6.02071 19.0914 6.78975 19.1696C7.57133 19.2491 8.57993 19.25 10 19.25H14C15.4201 19.25 16.4287 19.2491 17.2102 19.1696C17.9793 19.0914 18.4449 18.9433 18.8056 18.7023C19.1605 18.4652 19.4652 18.1605 19.7023 17.8056C19.9433 17.4449 20.0914 16.9793 20.1696 16.2102C20.2491 15.4287 20.25 14.4201 20.25 13C20.25 11.5799 20.2491 10.5714 20.1695 9.7899C20.0913 9.02094 19.9431 8.55533 19.7021 8.19462C19.465 7.83975 19.1603 7.53506 18.8055 7.29795C18.4448 7.05695 17.9791 6.90887 17.2101 6.83064C16.4285 6.75113 15.4199 6.75022 13.9999 6.75022H9.99985C8.57978 6.75022 7.57118 6.75113 6.7896 6.83064ZM12 10.75C10.7574 10.75 9.75 11.7574 9.75 13C9.75 14.2426 10.7574 15.25 12 15.25C13.2426 15.25 14.25 14.2426 14.25 13C14.25 11.7574 13.2426 10.75 12 10.75ZM8.25 13C8.25 10.9289 9.92893 9.25 12 9.25C14.0711 9.25 15.75 10.9289 15.75 13C15.75 15.0711 14.0711 16.75 12 16.75C9.92893 16.75 8.25 15.0711 8.25 13ZM16.75 10C16.75 9.58579 17.0858 9.25 17.5 9.25H18C18.4142 9.25 18.75 9.58579 18.75 10C18.75 10.4142 18.4142 10.75 18 10.75H17.5C17.0858 10.75 16.75 10.4142 16.75 10Z" fill="black"/>
</svg>
