<svg width="24" height="24" viewBox="0 0 24 24" fill="none" xmlns="http://www.w3.org/2000/svg">
<path fill-rule="evenodd" clip-rule="evenodd" d="M12 1.25L11.9426 1.25C9.63423 1.24999 7.82519 1.24998 6.41371 1.43975C4.96897 1.63399 3.82895 2.03933 2.93414 2.93414C2.03933 3.82895 1.63399 4.96897 1.43975 6.41371C1.24998 7.82519 1.24999 9.63423 1.25 11.9426L1.25005 12.4912C1.25081 14.5851 1.26257 16.2684 1.43975 17.5863C1.63399 19.031 2.03933 20.1711 2.93414 21.0659C3.82895 21.9607 4.96897 22.366 6.41371 22.5603C7.82519 22.75 9.63423 22.75 11.9426 22.75H12.0574C14.3658 22.75 16.1748 22.75 17.5863 22.5603C19.031 22.366 20.1711 21.9607 21.0659 21.0659C21.9607 20.1711 22.366 19.031 22.5603 17.5863C22.75 16.1748 22.75 14.3658 22.75 12.0574V12C22.75 11.5858 22.4142 11.25 22 11.25C21.5858 11.25 21.25 11.5858 21.25 12C21.25 14.3782 21.2484 16.0864 21.0736 17.3864C21.0667 17.4378 21.0596 17.4883 21.0522 17.5381L18.2782 15.0415C16.9788 13.872 15.0437 13.7555 13.6134 14.7607L13.3152 14.9703C12.8182 15.3196 12.1421 15.261 11.7125 14.8315L7.42282 10.5418C6.28741 9.40636 4.46613 9.34572 3.25771 10.4031L2.75098 10.8465C2.75552 9.05407 2.78124 7.69307 2.92637 6.61358C3.09825 5.33517 3.42514 4.56445 3.9948 3.9948C4.56445 3.42514 5.33517 3.09825 6.61358 2.92637C7.91356 2.75159 9.62178 2.75 12 2.75C12.4142 2.75 12.75 2.41421 12.75 2C12.75 1.58579 12.4142 1.25 12 1.25ZM20.6095 19.1406C20.5706 19.1168 20.5334 19.0892 20.4983 19.0576L17.2747 16.1564C16.4951 15.4547 15.334 15.3849 14.4758 15.988L14.1776 16.1975C13.0843 16.9659 11.5968 16.8371 10.6519 15.8922L6.36216 11.6024C5.78515 11.0254 4.85958 10.9946 4.24546 11.5319L2.75038 12.8401C2.75296 14.7885 2.77289 16.2449 2.92637 17.3864C3.09825 18.6648 3.42514 19.4355 3.9948 20.0052C4.56445 20.5749 5.33517 20.9018 6.61358 21.0736C7.91356 21.2484 9.62178 21.25 12 21.25C14.3782 21.25 16.0864 21.2484 17.3864 21.0736C18.6648 20.9018 19.4355 20.5749 20.0052 20.0052C20.2487 19.7617 20.4478 19.4815 20.6095 19.1406Z" fill="black"/>
<path fill-rule="evenodd" clip-rule="evenodd" d="M22.75 5.3754C22.75 3.96615 22.0697 2.82878 20.934 2.41077C19.9943 2.06486 18.9334 2.28181 18 2.97655C17.0666 2.28181 16.0057 2.06486 15.066 2.41077C13.9303 2.82879 13.25 3.96616 13.25 5.37541C13.25 6.16255 13.6077 6.89306 14.0359 7.49718C14.4712 8.11136 15.0347 8.67228 15.5685 9.13604L15.6533 9.20986C16.3713 9.83502 16.9693 10.3556 18 10.3556C19.0307 10.3556 19.6287 9.83503 20.3467 9.20987L20.4315 9.13605C20.9654 8.67229 21.5288 8.11137 21.9641 7.49719C22.3923 6.89306 22.75 6.16255 22.75 5.3754ZM20.4159 3.81844C19.9897 3.66155 19.2867 3.73783 18.5317 4.49679C18.391 4.63831 18.1996 4.71788 18 4.71788C17.8004 4.71788 17.609 4.63831 17.4683 4.49679C16.7133 3.73783 16.0103 3.66155 15.5841 3.81844C15.1697 3.97095 14.75 4.44214 14.75 5.37541C14.75 5.71639 14.9126 6.14016 15.2597 6.62976C15.5996 7.1093 16.0663 7.58155 16.5522 8.00368C17.3851 8.72727 17.5762 8.85564 18 8.85564C18.4239 8.85564 18.6149 8.72727 19.4478 8.00369C19.9337 7.58156 20.4004 7.10932 20.7403 6.62978C21.0874 6.14018 21.25 5.7164 21.25 5.3754C21.25 4.44213 20.8303 3.97095 20.4159 3.81844Z" fill="black"/>
</svg>
