<svg width="24" height="24" viewBox="0 0 24 24" fill="none" xmlns="http://www.w3.org/2000/svg">
<path fill-rule="evenodd" clip-rule="evenodd" d="M17.1413 2.3738C16.217 2.24997 15.0402 2.24998 13.5732 2.25H10.2518C8.7848 2.24998 7.60801 2.24997 6.68371 2.3738C5.72656 2.50204 4.92853 2.77526 4.29558 3.406C3.63535 4.06393 3.36504 4.90117 3.2432 5.91009L3.23724 5.95944L3.23963 6.1548C3.02743 6.29351 2.82808 6.4544 2.64124 6.64124C1.89288 7.38961 1.56076 8.33856 1.40314 9.51098C1.24997 10.6502 1.24998 12.1058 1.25 13.9436V14.0564L1.25007 14.4892C1.25106 16.1137 1.26287 17.4457 1.40314 18.489C1.56076 19.6614 1.89288 20.6104 2.64124 21.3588C3.38961 22.1071 4.33856 22.4392 5.51098 22.5969C6.65019 22.75 8.10583 22.75 9.94359 22.75H14.0564C15.8942 22.75 17.3498 22.75 18.489 22.5969C19.6614 22.4392 20.6104 22.1071 21.3588 21.3588C22.1071 20.6104 22.4392 19.6614 22.5969 18.489C22.75 17.3498 22.75 15.8942 22.75 14.0564V13.9436C22.75 12.1058 22.75 10.6502 22.5969 9.51098C22.4392 8.33856 22.1071 7.38961 21.3588 6.64124C21.1219 6.4044 20.865 6.20924 20.5872 6.04812V5.95488L20.5818 5.91009C20.46 4.90117 20.1897 4.06393 19.5294 3.406C18.8965 2.77526 18.0985 2.50204 17.1413 2.3738ZM2.7506 14.8399C2.75371 16.315 2.7728 17.4192 2.88976 18.2892C3.02502 19.2952 3.27869 19.8749 3.7019 20.2981C4.12511 20.7213 4.70476 20.975 5.71085 21.1102C6.73851 21.2484 8.09318 21.25 10 21.25H14C15.9068 21.25 17.2615 21.2484 18.2892 21.1102C19.0532 21.0075 19.5714 20.8365 19.9618 20.5748L17.2747 18.1564C16.4951 17.4547 15.334 17.3849 14.4758 17.988L14.1776 18.1975C13.0843 18.9659 11.5968 18.8371 10.6519 17.8922L6.36216 13.6024C5.78515 13.0254 4.85958 12.9946 4.24546 13.5319L2.7506 14.8399ZM18.2782 17.0415L20.8664 19.3709C20.9722 19.0747 21.0521 18.7213 21.1102 18.2892C21.2484 17.2615 21.25 15.9068 21.25 14C21.25 12.0932 21.2484 10.7385 21.1102 9.71085C20.975 8.70476 20.7213 8.12511 20.2981 7.7019C19.8749 7.27869 19.2952 7.02502 18.2892 6.88976C17.2615 6.75159 15.9068 6.75 14 6.75H10C8.09318 6.75 6.73851 6.75159 5.71085 6.88976C4.70476 7.02502 4.12511 7.27869 3.7019 7.7019C3.27869 8.12511 3.02502 8.70476 2.88976 9.71085C2.78126 10.5179 2.75698 11.5266 2.75156 12.846L3.25771 12.4031C4.46613 11.3457 6.28741 11.4064 7.42282 12.5418L11.7125 16.8315C12.1421 17.261 12.8182 17.3196 13.3152 16.9703L13.6134 16.7607C15.0437 15.7555 16.9788 15.872 18.2782 17.0415ZM5.35438 4.46852C5.11442 4.70764 4.94241 5.02039 4.82795 5.52195C5.04664 5.4739 5.27425 5.43496 5.51098 5.40314C6.65019 5.24997 8.10582 5.24998 9.94358 5.25H14.0564C15.8942 5.24998 17.3498 5.24997 18.489 5.40314C18.6602 5.42614 18.8265 5.45287 18.9882 5.48407C18.8738 5.00454 18.7045 4.70156 18.4706 4.46852C18.163 4.162 17.7339 3.9666 16.9421 3.86052C16.129 3.75158 15.053 3.75 13.5181 3.75H10.3069C8.77197 3.75 7.69597 3.75158 6.88289 3.86052C6.09112 3.9666 5.66198 4.162 5.35438 4.46852Z" fill="black"/>
<path fill-rule="evenodd" clip-rule="evenodd" d="M17.5 8.25C16.2574 8.25 15.25 9.25736 15.25 10.5C15.25 11.7426 16.2574 12.75 17.5 12.75C18.7426 12.75 19.75 11.7426 19.75 10.5C19.75 9.25736 18.7426 8.25 17.5 8.25ZM17.5 9.75C17.0858 9.75 16.75 10.0858 16.75 10.5C16.75 10.9142 17.0858 11.25 17.5 11.25C17.9142 11.25 18.25 10.9142 18.25 10.5C18.25 10.0858 17.9142 9.75 17.5 9.75Z" fill="black"/>
</svg>
