<svg width="24" height="24" viewBox="0 0 24 24" fill="none" xmlns="http://www.w3.org/2000/svg">
<path fill-rule="evenodd" clip-rule="evenodd" d="M8.25 18C8.25 17.5858 8.58579 17.25 9 17.25H15C15.4142 17.25 15.75 17.5858 15.75 18C15.75 18.4142 15.4142 18.75 15 18.75H9C8.58579 18.75 8.25 18.4142 8.25 18Z" fill="black"/>
<path fill-rule="evenodd" clip-rule="evenodd" d="M8.69935 1.25001H15.3004C15.5203 1.24995 15.6888 1.2499 15.8362 1.26571C17.1903 1.41104 18.2268 2.52307 18.2897 3.87013C19.4805 4.22571 20.3289 5.3275 20.3443 6.59118C20.9453 6.77151 21.4637 7.05595 21.888 7.51432C22.54 8.21857 22.7421 9.08649 22.7498 10.1003C22.7572 11.075 22.5835 12.3067 22.3678 13.8363L21.9288 16.9499C21.7602 18.146 21.6232 19.1176 21.4101 19.879C21.1871 20.6756 20.8585 21.331 20.25 21.8349C19.6463 22.3347 18.9301 22.5502 18.0835 22.6518C17.265 22.75 16.2353 22.75 14.9532 22.75H9.04687C7.76478 22.75 6.73501 22.75 5.91647 22.6518C5.06993 22.5502 4.35372 22.3347 3.75003 21.8349C3.14152 21.331 2.81286 20.6756 2.58989 19.879C2.37676 19.1176 2.23979 18.146 2.07118 16.9499L1.63219 13.8363C1.41651 12.3067 1.24283 11.075 1.25023 10.1003C1.25792 9.08649 1.45997 8.21857 2.11196 7.51432C2.53621 7.05606 3.05445 6.77164 3.65528 6.5913C3.67058 5.3275 4.51917 4.22559 5.71005 3.87007C5.77295 2.52304 6.80943 1.41104 8.16359 1.26571C8.31094 1.2499 8.4795 1.24995 8.69935 1.25001ZM5.18902 6.32785C6.11481 6.24999 7.24973 6.25 8.61594 6.25001H15.384C16.75 6.25 17.8848 6.24999 18.8105 6.32781C18.6734 5.72018 18.1306 5.25001 17.4617 5.25001H6.53787C5.86896 5.25001 5.32618 5.72019 5.18902 6.32785ZM15.6761 2.75715C16.2263 2.8162 16.6611 3.22633 16.7677 3.75001H7.2321C7.33862 3.22633 7.77344 2.8162 8.32365 2.75715C8.37993 2.75111 8.46013 2.75001 8.74099 2.75001H15.2588C15.5396 2.75001 15.6198 2.75111 15.6761 2.75715ZM3.21267 8.53336C3.51557 8.20618 3.97106 7.98917 4.85612 7.87145C5.75726 7.75159 6.96357 7.75001 8.67239 7.75001H15.3276C17.0364 7.75001 18.2427 7.75159 19.1439 7.87145C20.0289 7.98917 20.4844 8.20618 20.7873 8.53336C21.0832 8.85293 21.2436 9.28782 21.2498 10.1117C21.2563 10.9618 21.1002 12.0828 20.8738 13.6883L20.4509 16.6883C20.2731 17.9491 20.1486 18.821 19.9656 19.4747C19.7894 20.1042 19.582 20.4405 19.2934 20.6795C18.9999 20.9225 18.6058 21.0784 17.9048 21.1625C17.1861 21.2488 16.2465 21.25 14.9046 21.25H9.09536C7.75347 21.25 6.81393 21.2488 6.09519 21.1625C5.39417 21.0784 5.00014 20.9225 4.70664 20.6795C4.41795 20.4405 4.21058 20.1042 4.03437 19.4747C3.8514 18.821 3.7269 17.9491 3.54913 16.6883L3.12616 13.6883C2.89981 12.0828 2.74373 10.9618 2.75018 10.1117C2.75644 9.28782 2.91681 8.85293 3.21267 8.53336Z" fill="black"/>
</svg>
