<svg width="24" height="24" viewBox="0 0 24 24" fill="none" xmlns="http://www.w3.org/2000/svg">
<path fill-rule="evenodd" clip-rule="evenodd" d="M5.25 8C5.25 4.27208 8.27208 1.25 12 1.25C15.7279 1.25 18.75 4.27208 18.75 8V13C18.75 16.7279 15.7279 19.75 12 19.75C8.27208 19.75 5.25 16.7279 5.25 13V8ZM12 2.75C9.10051 2.75 6.75 5.1005 6.75 8V13C6.75 15.8995 9.10051 18.25 12 18.25C14.8995 18.25 17.25 15.8995 17.25 13V8C17.25 5.10051 14.8995 2.75 12 2.75ZM10.5148 7.04546C10.2278 7.31681 9.77532 7.31971 9.48474 7.04498C9.18375 6.76042 9.17045 6.28573 9.45502 5.98474L9.98878 6.48939C9.45502 5.98474 9.45543 5.98431 9.45583 5.98388L9.45666 5.983L9.45836 5.98122L9.46192 5.97753L9.46967 5.96964C9.47512 5.96416 9.48113 5.95826 9.48774 5.95195C9.50094 5.93935 9.51647 5.92517 9.53447 5.9097C9.5705 5.87874 9.61625 5.84274 9.67283 5.80384C9.7863 5.72584 9.94135 5.6375 10.1461 5.55471C10.5565 5.38872 11.1539 5.25 12 5.25C12.8461 5.25 13.4435 5.38872 13.8539 5.55471C14.0587 5.6375 14.2137 5.72584 14.3272 5.80384C14.3837 5.84274 14.4295 5.87874 14.4655 5.9097C14.4835 5.92517 14.4991 5.93935 14.5123 5.95195C14.5189 5.95826 14.5249 5.96416 14.5303 5.96964L14.5381 5.97753L14.5416 5.98122L14.5433 5.983L14.5442 5.98388C14.5446 5.98431 14.545 5.98474 14.0112 6.48939L14.545 5.98474C14.8296 6.28573 14.8162 6.76042 14.5153 7.04498C14.2247 7.31971 13.7722 7.31681 13.4852 7.04546C13.4833 7.04403 13.4807 7.04216 13.4774 7.03991C13.4545 7.02416 13.3959 6.9875 13.2915 6.94529C13.0838 6.86128 12.6811 6.75 12 6.75C11.3189 6.75 10.9162 6.86128 10.7085 6.94529C10.6041 6.9875 10.5455 7.02416 10.5226 7.03991C10.5193 7.04216 10.5167 7.04402 10.5148 7.04546ZM13.4561 7.01645L13.4566 7.01695L13.4569 7.01721C13.4566 7.01696 13.4564 7.01671 13.4561 7.01645ZM10.5148 10.0455C10.2278 10.3168 9.77532 10.3197 9.48474 10.045C9.18375 9.76042 9.17045 9.28573 9.45502 8.98474L10 9.5C9.45502 8.98474 9.45542 8.98431 9.45583 8.98388L9.45666 8.983L9.45836 8.98122L9.46192 8.97753L9.46967 8.96964C9.47512 8.96416 9.48113 8.95826 9.48774 8.95195C9.50094 8.93935 9.51647 8.92517 9.53447 8.9097C9.5705 8.87874 9.61625 8.84274 9.67283 8.80384C9.7863 8.72584 9.94135 8.6375 10.1461 8.55471C10.5565 8.38872 11.1539 8.25 12 8.25C12.8461 8.25 13.4435 8.38872 13.8539 8.55471C14.0587 8.6375 14.2137 8.72584 14.3272 8.80384C14.3837 8.84274 14.4295 8.87874 14.4655 8.9097C14.4835 8.92517 14.4991 8.93935 14.5123 8.95195C14.5189 8.95826 14.5249 8.96416 14.5303 8.96964L14.5381 8.97753L14.5416 8.98122L14.5433 8.983L14.5442 8.98388C14.5446 8.98431 14.545 8.98474 14 9.5L14.545 8.98474C14.8296 9.28573 14.8162 9.76042 14.5153 10.045C14.2247 10.3197 13.7722 10.3168 13.4852 10.0455C13.4833 10.044 13.4807 10.0422 13.4774 10.0399C13.4545 10.0242 13.3959 9.9875 13.2915 9.9453C13.0838 9.86129 12.6811 9.75 12 9.75C11.3189 9.75 10.9162 9.86129 10.7085 9.9453C10.6041 9.9875 10.5455 10.0242 10.5226 10.0399C10.5193 10.0422 10.5167 10.044 10.5148 10.0455ZM13.4567 10.017C13.4566 10.0169 13.4564 10.0168 13.4563 10.0166C13.4561 10.0164 13.456 10.0163 13.4558 10.0161C13.4558 10.0161 13.4558 10.0161 13.4558 10.0161L13.4563 10.0166L13.4566 10.017L13.4567 10.017ZM3 10.25C3.41421 10.25 3.75 10.5858 3.75 11V13C3.75 17.5563 7.44365 21.25 12 21.25C16.5563 21.25 20.25 17.5563 20.25 13V11C20.25 10.5858 20.5858 10.25 21 10.25C21.4142 10.25 21.75 10.5858 21.75 11V13C21.75 18.3848 17.3848 22.75 12 22.75C6.61522 22.75 2.25 18.3848 2.25 13V11C2.25 10.5858 2.58579 10.25 3 10.25Z" fill="black"/>
</svg>
