<svg width="24" height="24" viewBox="0 0 24 24" fill="none" xmlns="http://www.w3.org/2000/svg">
<path fill-rule="evenodd" clip-rule="evenodd" d="M8.51159 3.69837C8.9663 4.07389 9.54565 4.25 10 4.25C10.4142 4.25 10.75 4.58579 10.75 5C10.75 5.41421 10.4142 5.75 10 5.75C9.27955 5.75 8.44852 5.50913 7.75 5.0045V11C7.75 11.1595 7.7002 11.3074 7.6153 11.429C7.21563 12.7712 5.97212 13.75 4.5 13.75C2.70507 13.75 1.25 12.2949 1.25 10.5C1.25 8.70507 2.70507 7.25 4.5 7.25C5.14432 7.25 5.74485 7.4375 6.25 7.76091V2H7.75C7.75 2.79785 8.0784 3.34061 8.51159 3.69837ZM6.25 10.5C6.25 9.5335 5.4665 8.75 4.5 8.75C3.5335 8.75 2.75 9.5335 2.75 10.5C2.75 11.4665 3.5335 12.25 4.5 12.25C5.4665 12.25 6.25 11.4665 6.25 10.5ZM19.5727 3.94109C18.901 4.11226 18.0215 4.47821 16.7452 5.01241L14.7452 5.84951C14.135 6.10492 13.7328 6.27436 13.4371 6.43763C13.1575 6.59205 13.0364 6.70818 12.9594 6.82394C12.8823 6.93969 12.822 7.09625 12.7875 7.41379C12.751 7.74954 12.75 8.18597 12.75 8.8475V10.8922L21.2497 7.49235C21.2478 6.38367 21.2348 5.58512 21.1466 4.98852C21.0473 4.31734 20.8772 4.0875 20.6925 3.96459C20.5079 3.84167 20.2302 3.77354 19.5727 3.94109ZM22.75 7.98252V7.94757C22.75 6.64216 22.7501 5.5776 22.6304 4.769C22.5067 3.93292 22.2308 3.18652 21.5236 2.71585C20.8164 2.24517 20.0213 2.27883 19.2023 2.48754C18.4102 2.68938 17.4282 3.10042 16.224 3.60446L14.13 4.48093C13.5655 4.71715 13.0873 4.91728 12.712 5.12457C12.3126 5.34512 11.9686 5.60525 11.7106 5.99288C11.4527 6.38052 11.3455 6.79827 11.2963 7.25181C11.25 7.67809 11.25 8.19649 11.25 8.80836V11.983C11.2497 11.9945 11.2497 12.006 11.25 12.0175V16.7609C10.7449 16.4375 10.1443 16.25 9.5 16.25C7.70507 16.25 6.25 17.7051 6.25 19.5C6.25 21.2949 7.70507 22.75 9.5 22.75C11.2949 22.75 12.75 21.2949 12.75 19.5C12.75 19.33 12.7369 19.163 12.7118 19H12.75V12.5078L21.25 9.10778V14.7609C20.7449 14.4375 20.1443 14.25 19.5 14.25C17.7051 14.25 16.25 15.7051 16.25 17.5C16.25 19.2949 17.7051 20.75 19.5 20.75C21.2949 20.75 22.75 19.2949 22.75 17.5C22.75 17.3831 22.7438 17.2676 22.7318 17.1538H22.75V8.01702C22.7503 8.00554 22.7503 7.99404 22.75 7.98252ZM19.5 15.75C18.5335 15.75 17.75 16.5335 17.75 17.5C17.75 18.4665 18.5335 19.25 19.5 19.25C20.4665 19.25 21.25 18.4665 21.25 17.5C21.25 16.5335 20.4665 15.75 19.5 15.75ZM9.5 17.75C8.5335 17.75 7.75 18.5335 7.75 19.5C7.75 20.4665 8.5335 21.25 9.5 21.25C10.4665 21.25 11.25 20.4665 11.25 19.5C11.25 18.5335 10.4665 17.75 9.5 17.75Z" fill="black"/>
</svg>
