<svg width="24" height="24" viewBox="0 0 24 24" fill="none" xmlns="http://www.w3.org/2000/svg">
<path fill-rule="evenodd" clip-rule="evenodd" d="M18.6731 3.66678C18.0356 3.78024 17.1965 4.05792 15.9723 4.466L11.9723 5.79934C11.2959 6.02481 10.8487 6.17507 10.5192 6.32833C10.2072 6.47345 10.0724 6.59025 9.98595 6.71015C9.89953 6.83005 9.83138 6.99494 9.79235 7.33679C9.75113 7.69779 9.75 8.16956 9.75 8.88256V10.959L20.25 7.45895C20.2499 6.21736 20.2459 5.35983 20.1541 4.7342C20.0627 4.11097 19.906 3.88657 19.7309 3.76032C19.5557 3.63407 19.2933 3.55641 18.6731 3.66678ZM21.7402 5.99952C21.7279 5.43502 21.7003 4.93995 21.6382 4.51655C21.522 3.72389 21.2634 3.01586 20.608 2.54346C19.9525 2.07106 19.1991 2.04961 18.4103 2.18999C17.6516 2.32502 16.7078 2.63965 15.5559 3.02365L11.4584 4.38947C10.8321 4.59824 10.3027 4.77466 9.88651 4.96829C9.44407 5.17412 9.06018 5.42921 8.76908 5.83309C8.47799 6.23696 8.35738 6.68182 8.30203 7.16664C8.27376 7.41423 8.26085 7.69183 8.25495 7.99952H8.25V8.7587C8.25 8.78594 8.25 8.81336 8.25 8.84095L8.25 15.9992C7.62325 15.5285 6.8442 15.2495 6 15.2495C3.92893 15.2495 2.25 16.9285 2.25 18.9995C2.25 21.0706 3.92893 22.7495 6 22.7495C8.07107 22.7495 9.75 21.0706 9.75 18.9995V12.5401L20.25 9.04009V13.9992C19.6233 13.5285 18.8442 13.2495 18 13.2495C15.9289 13.2495 14.25 14.9285 14.25 16.9995C14.25 19.0706 15.9289 20.7495 18 20.7495C20.0711 20.7495 21.75 19.0706 21.75 16.9995V7.4881C21.75 7.45241 21.75 7.41692 21.75 7.38161V5.99952H21.7402ZM20.25 16.9995C20.25 15.7569 19.2426 14.7495 18 14.7495C16.7574 14.7495 15.75 15.7569 15.75 16.9995C15.75 18.2422 16.7574 19.2495 18 19.2495C19.2426 19.2495 20.25 18.2422 20.25 16.9995ZM8.25 18.9995C8.25 17.7569 7.24264 16.7495 6 16.7495C4.75736 16.7495 3.75 17.7569 3.75 18.9995C3.75 20.2422 4.75736 21.2495 6 21.2495C7.24264 21.2495 8.25 20.2422 8.25 18.9995Z" fill="black"/>
</svg>
