<svg width="24" height="24" viewBox="0 0 24 24" fill="none" xmlns="http://www.w3.org/2000/svg">
<path fill-rule="evenodd" clip-rule="evenodd" d="M5.46689 4.39207C5.75949 4.68526 5.75902 5.16013 5.46583 5.45273C3.78722 7.128 2.75 9.44218 2.75 12C2.75 14.5878 3.81163 16.9262 5.52503 18.6059C5.82082 18.8959 5.82554 19.3707 5.53557 19.6665C5.24561 19.9623 4.77076 19.967 4.47497 19.677C2.48564 17.7269 1.25 15.0071 1.25 12C1.25 9.02783 2.45721 6.33616 4.40623 4.39102C4.69941 4.09842 5.17429 4.09889 5.46689 4.39207ZM18.6164 4.46446C18.9122 4.17449 19.387 4.17921 19.677 4.475C21.5771 6.41326 22.75 9.07043 22.75 12C22.75 14.9645 21.5491 17.6499 19.609 19.5938C19.3164 19.887 18.8415 19.8875 18.5484 19.5949C18.2552 19.3023 18.2547 18.8274 18.5473 18.5342C20.2182 16.86 21.25 14.5512 21.25 12C21.25 9.47873 20.2422 7.1943 18.6059 5.52507C18.3159 5.22928 18.3206 4.75443 18.6164 4.46446ZM8.30923 7.48757C8.59226 7.79001 8.57652 8.26462 8.27408 8.54765C7.32517 9.43564 6.75 10.6502 6.75 11.9822C6.75 13.3297 7.33869 14.5573 8.30756 15.4479C8.61251 15.7282 8.63248 16.2026 8.35216 16.5076C8.07185 16.8125 7.59739 16.8325 7.29244 16.5522C6.03967 15.4006 5.25 13.7824 5.25 11.9822C5.25 10.203 6.02148 8.60128 7.24916 7.45242C7.5516 7.16939 8.02621 7.18513 8.30923 7.48757ZM15.7429 7.52559C16.0292 7.22626 16.5039 7.21571 16.8033 7.50202C18.0005 8.64714 18.75 10.2286 18.75 11.9822C18.75 13.7568 17.9825 15.3548 16.7604 16.503C16.4586 16.7867 15.9839 16.7719 15.7003 16.47C15.4167 16.1681 15.4315 15.6935 15.7333 15.4099C16.6778 14.5225 17.25 13.3108 17.25 11.9822C17.25 10.6692 16.6911 9.47046 15.7664 8.58599C15.4671 8.29968 15.4566 7.82492 15.7429 7.52559ZM12.5922 8.88834C12.6098 8.89796 12.6274 8.9076 12.645 8.91724C12.8855 9.04887 13.124 9.18627 13.3391 9.32225C13.5841 9.4771 13.8445 9.65888 14.1002 9.8466C14.1155 9.85784 14.1308 9.86905 14.146 9.88024C14.5543 10.1798 14.9365 10.4603 15.2067 10.7436C15.5201 11.0721 15.75 11.4709 15.75 12.0001C15.75 12.5292 15.5201 12.928 15.2067 13.2565C14.9365 13.5398 14.5543 13.8203 14.146 14.1199C14.1308 14.1311 14.1155 14.1423 14.1002 14.1535C13.8445 14.3412 13.5841 14.523 13.3391 14.6779C13.124 14.8138 12.8855 14.9512 12.645 15.0829C12.6274 15.0925 12.6098 15.1022 12.5922 15.1118C12.1916 15.3312 11.8024 15.5444 11.4602 15.655C11.0513 15.7872 10.5783 15.8163 10.1238 15.5093C9.69566 15.2201 9.52038 14.7919 9.4325 14.3837C9.35233 14.0113 9.32201 13.5387 9.28853 13.0167C9.28742 12.9994 9.28631 12.9821 9.28519 12.9648C9.26397 12.6345 9.25 12.3032 9.25 12.0001C9.25 11.697 9.26397 11.3656 9.28519 11.0353C9.28631 11.018 9.28742 11.0007 9.28853 10.9834C9.32201 10.4614 9.35233 9.98878 9.4325 9.61641C9.52038 9.20825 9.69566 8.78006 10.1238 8.49079C10.5783 8.18376 11.0513 8.21293 11.4602 8.34513C11.8024 8.45576 12.1916 8.66893 12.5922 8.88834ZM10.951 9.75853C10.9379 9.78721 10.9187 9.84009 10.8989 9.93214C10.8451 10.182 10.8201 10.5405 10.7821 11.1315C10.7621 11.4425 10.75 11.7397 10.75 12.0001C10.75 12.2604 10.7621 12.5576 10.7821 12.8686C10.8201 13.4596 10.8451 13.8181 10.8989 14.068C10.9187 14.16 10.9379 14.2129 10.951 14.2416C10.9639 14.2384 10.9797 14.2339 10.9987 14.2277C11.1886 14.1663 11.4504 14.0267 11.9249 13.7671C12.148 13.6449 12.3575 13.5238 12.5377 13.4099C12.7435 13.2799 12.9736 13.1198 13.2125 12.9444C13.6829 12.599 13.9539 12.3966 14.1214 12.2211C14.2506 12.0857 14.2503 12.0372 14.25 12.0041C14.25 12.0027 14.25 12.0014 14.25 12.0001C14.25 11.9987 14.25 11.9974 14.25 11.996C14.2503 11.9629 14.2506 11.9144 14.1214 11.7791C13.9539 11.6035 13.6829 11.4011 13.2125 11.0557C12.9736 10.8803 12.7435 10.7203 12.5377 10.5902C12.3575 10.4763 12.148 10.3552 11.9249 10.2331C11.4504 9.97337 11.1886 9.83376 10.9987 9.77238C10.9797 9.76622 10.9639 9.76176 10.951 9.75853Z" fill="black"/>
</svg>
