<svg width="24" height="24" viewBox="0 0 24 24" fill="none" xmlns="http://www.w3.org/2000/svg">
<path fill-rule="evenodd" clip-rule="evenodd" d="M12 2.75C6.89137 2.75 2.75 6.89137 2.75 12C2.75 17.1086 6.89137 21.25 12 21.25C17.1086 21.25 21.25 17.1086 21.25 12C21.25 6.89137 17.1086 2.75 12 2.75ZM17.4805 21.25C20.6354 19.3767 22.75 15.9353 22.75 12C22.75 6.06294 17.9371 1.25 12 1.25C6.06294 1.25 1.25 6.06294 1.25 12C1.25 17.9371 6.06294 22.75 12 22.75H22C22.4142 22.75 22.75 22.4142 22.75 22C22.75 21.5858 22.4142 21.25 22 21.25H17.4805ZM12 6.75C11.5858 6.75 11.25 7.08579 11.25 7.5C11.25 7.91421 11.5858 8.25 12 8.25C12.4142 8.25 12.75 7.91421 12.75 7.5C12.75 7.08579 12.4142 6.75 12 6.75ZM9.75 7.5C9.75 6.25736 10.7574 5.25 12 5.25C13.2426 5.25 14.25 6.25736 14.25 7.5C14.25 8.74264 13.2426 9.75 12 9.75C10.7574 9.75 9.75 8.74264 9.75 7.5ZM7.5 11.25C7.08579 11.25 6.75 11.5858 6.75 12C6.75 12.4142 7.08579 12.75 7.5 12.75C7.91421 12.75 8.25 12.4142 8.25 12C8.25 11.5858 7.91421 11.25 7.5 11.25ZM5.25 12C5.25 10.7574 6.25736 9.75 7.5 9.75C8.74264 9.75 9.75 10.7574 9.75 12C9.75 13.2426 8.74264 14.25 7.5 14.25C6.25736 14.25 5.25 13.2426 5.25 12ZM16.5 11.25C16.0858 11.25 15.75 11.5858 15.75 12C15.75 12.4142 16.0858 12.75 16.5 12.75C16.9142 12.75 17.25 12.4142 17.25 12C17.25 11.5858 16.9142 11.25 16.5 11.25ZM14.25 12C14.25 10.7574 15.2574 9.75 16.5 9.75C17.7426 9.75 18.75 10.7574 18.75 12C18.75 13.2426 17.7426 14.25 16.5 14.25C15.2574 14.25 14.25 13.2426 14.25 12ZM12 15.75C11.5858 15.75 11.25 16.0858 11.25 16.5C11.25 16.9142 11.5858 17.25 12 17.25C12.4142 17.25 12.75 16.9142 12.75 16.5C12.75 16.0858 12.4142 15.75 12 15.75ZM9.75 16.5C9.75 15.2574 10.7574 14.25 12 14.25C13.2426 14.25 14.25 15.2574 14.25 16.5C14.25 17.7426 13.2426 18.75 12 18.75C10.7574 18.75 9.75 17.7426 9.75 16.5Z" fill="black"/>
</svg>
