<svg width="24" height="24" viewBox="0 0 24 24" fill="none" xmlns="http://www.w3.org/2000/svg">
<path fill-rule="evenodd" clip-rule="evenodd" d="M1.25 12C1.25 6.06294 6.06294 1.25 12 1.25C12.2883 1.25 12.5511 1.41526 12.676 1.67511C12.8009 1.93496 12.7658 2.24339 12.5857 2.46852L10.5857 4.96852C10.3269 5.29197 9.85493 5.34441 9.53148 5.08565C9.20803 4.82689 9.15559 4.35493 9.41435 4.03148L10.3174 2.90266C6.01213 3.69386 2.75 7.46598 2.75 12C2.75 17.1086 6.89137 21.25 12 21.25C17.1086 21.25 21.25 17.1086 21.25 12C21.25 8.20808 18.9682 4.94742 15.6997 3.51935C15.3202 3.35351 15.1469 2.91137 15.3127 2.53181C15.4786 2.15224 15.9207 1.97898 16.3003 2.14482C20.0954 3.80298 22.75 7.59065 22.75 12C22.75 17.9371 17.9371 22.75 12 22.75C6.06294 22.75 1.25 17.9371 1.25 12ZM10.3249 7.82402C10.5847 7.94891 10.75 8.2117 10.75 8.5V15.5C10.75 15.9142 10.4142 16.25 10 16.25C9.58579 16.25 9.25 15.9142 9.25 15.5V10.0605L7.96852 11.0857C7.64507 11.3444 7.17311 11.292 6.91435 10.9685C6.65559 10.6451 6.70803 10.1731 7.03148 9.91435L9.53148 7.91435C9.75661 7.73425 10.065 7.69913 10.3249 7.82402ZM12.6745 8.60472C12.8447 8.09429 13.3223 7.75 13.8604 7.75H16.5C16.9142 7.75 17.25 8.08579 17.25 8.5C17.25 8.91421 16.9142 9.25 16.5 9.25H14.0406L13.5406 10.75H14.5C16.0188 10.75 17.25 11.9812 17.25 13.5C17.25 15.0188 16.0188 16.25 14.5 16.25H12.5C12.0858 16.25 11.75 15.9142 11.75 15.5C11.75 15.0858 12.0858 14.75 12.5 14.75H14.5C15.1904 14.75 15.75 14.1904 15.75 13.5C15.75 12.8096 15.1904 12.25 14.5 12.25H13.1937C12.3405 12.25 11.7381 11.4141 12.0079 10.6047L12.6745 8.60472ZM13.4309 11.0791L13.431 11.0787Z" fill="black"/>
</svg>
