<svg width="24" height="24" viewBox="0 0 24 24" fill="none" xmlns="http://www.w3.org/2000/svg">
<path fill-rule="evenodd" clip-rule="evenodd" d="M12 2.75C6.89137 2.75 2.75 6.89137 2.75 12C2.75 17.1086 6.89137 21.25 12 21.25C17.1086 21.25 21.25 17.1086 21.25 12C21.25 6.89137 17.1086 2.75 12 2.75ZM1.25 12C1.25 6.06294 6.06294 1.25 12 1.25C17.9371 1.25 22.75 6.06294 22.75 12C22.75 17.9371 17.9371 22.75 12 22.75C6.06294 22.75 1.25 17.9371 1.25 12ZM8.64531 8.73976C8.47984 8.62157 8.25 8.73985 8.25 8.94319V15.0568C8.25 15.2602 8.47984 15.3784 8.64531 15.2602L12.9248 12.2034C13.0644 12.1037 13.0644 11.8963 12.9248 11.7966L8.64531 8.73976ZM6.75 8.94319C6.75 7.51979 8.3589 6.69182 9.51717 7.51916L13.7967 10.576C14.7738 11.2739 14.7738 12.7261 13.7967 13.424L9.51717 16.4808C8.3589 17.3082 6.75 16.4802 6.75 15.0568V8.94319ZM12.3897 7.6355C12.6305 7.29844 13.0989 7.22037 13.4359 7.46113L16.6575 9.76223C18.1929 10.859 18.1929 13.141 16.6575 14.2378L13.4359 16.5389C13.0989 16.7796 12.6305 16.7016 12.3897 16.3645C12.1489 16.0274 12.227 15.559 12.5641 15.3183L15.7856 13.0172C16.4836 12.5186 16.4836 11.4814 15.7856 10.9828L12.5641 8.68173C12.227 8.44097 12.1489 7.97256 12.3897 7.6355Z" fill="black"/>
</svg>
