<svg width="24" height="24" viewBox="0 0 24 24" fill="none" xmlns="http://www.w3.org/2000/svg">
<path fill-rule="evenodd" clip-rule="evenodd" d="M12 2.75C6.89137 2.75 2.75 6.89137 2.75 12C2.75 17.1086 6.89137 21.25 12 21.25C12.6345 21.25 13.2534 21.1862 13.8508 21.065C14.2567 20.9826 14.6526 21.2448 14.735 21.6508C14.8174 22.0567 14.5551 22.4526 14.1492 22.535C13.4541 22.6761 12.7353 22.75 12 22.75C6.06294 22.75 1.25 17.9371 1.25 12C1.25 6.06294 6.06294 1.25 12 1.25C17.9371 1.25 22.75 6.06294 22.75 12C22.75 12.7353 22.6761 13.4541 22.535 14.1492C22.4526 14.5551 22.0567 14.8174 21.6508 14.735C21.2448 14.6526 20.9826 14.2567 21.065 13.8508C21.1862 13.2534 21.25 12.6345 21.25 12C21.25 6.89137 17.1086 2.75 12 2.75ZM13 7C13.4142 7 13.7378 7.345 13.8733 7.73642C14.1783 8.6174 15.0153 9.25 16 9.25C16.4142 9.25 16.75 9.58579 16.75 10C16.75 10.4142 16.4142 10.75 16 10.75C15.1558 10.75 14.3767 10.471 13.75 10.0003V15C13.75 16.5188 12.5188 17.75 11 17.75C9.48122 17.75 8.25 16.5188 8.25 15C8.25 13.4812 9.48122 12.25 11 12.25C11.4501 12.25 11.875 12.3581 12.25 12.5499V7.75C12.25 7.33579 12.5858 7 13 7ZM12.25 15C12.25 14.3096 11.6904 13.75 11 13.75C10.3096 13.75 9.75 14.3096 9.75 15C9.75 15.6904 10.3096 16.25 11 16.25C11.6904 16.25 12.25 15.6904 12.25 15ZM17.4697 14.4697C17.7626 14.1768 18.2374 14.1768 18.5303 14.4697L21.0303 16.9697C21.3232 17.2626 21.3232 17.7374 21.0303 18.0303C20.7374 18.3232 20.2626 18.3232 19.9697 18.0303L18.75 16.8107V22C18.75 22.4142 18.4142 22.75 18 22.75C17.5858 22.75 17.25 22.4142 17.25 22V16.8107L16.0303 18.0303C15.7374 18.3232 15.2626 18.3232 14.9697 18.0303C14.6768 17.7374 14.6768 17.2626 14.9697 16.9697L17.4697 14.4697Z" fill="black"/>
</svg>
