<svg width="24" height="24" viewBox="0 0 24 24" fill="none" xmlns="http://www.w3.org/2000/svg">
<path fill-rule="evenodd" clip-rule="evenodd" d="M11.9426 1.25H12.0574C14.3658 1.24999 16.1748 1.24998 17.5863 1.43975C19.031 1.63399 20.1711 2.03933 21.0659 2.93414C21.9607 3.82895 22.366 4.96897 22.5603 6.41371C22.75 7.82519 22.75 9.63423 22.75 11.9426V12.0574C22.75 14.3658 22.75 16.1748 22.5603 17.5863C22.366 19.031 21.9607 20.1711 21.0659 21.0659C20.1711 21.9607 19.031 22.366 17.5863 22.5603C16.1748 22.75 14.3658 22.75 12.0574 22.75H11.9426C9.63423 22.75 7.82519 22.75 6.41371 22.5603C4.96897 22.366 3.82895 21.9607 2.93414 21.0659C2.03933 20.1711 1.63399 19.031 1.43975 17.5863C1.24998 16.1748 1.24999 14.3658 1.25 12.0574V11.9426C1.24999 9.63423 1.24998 7.82519 1.43975 6.41371C1.63399 4.96897 2.03933 3.82895 2.93414 2.93414C3.82895 2.03933 4.96897 1.63399 6.41371 1.43975C7.82519 1.24998 9.63423 1.24999 11.9426 1.25ZM6.25 2.98181C5.18517 3.16506 4.50829 3.4813 3.9948 3.9948C3.4813 4.50829 3.16506 5.18517 2.98181 6.25H6.25V2.98181ZM7.75 2.81997V11.25H16.25V2.81997C15.1242 2.75085 13.7418 2.75 12 2.75C10.2582 2.75 8.87584 2.75085 7.75 2.81997ZM17.75 2.98181V6.25H21.0182C20.8349 5.18517 20.5187 4.50829 20.0052 3.9948C19.4917 3.4813 18.8148 3.16506 17.75 2.98181ZM21.18 7.75H17.75V11.25H21.2497C21.2483 9.8547 21.2389 8.70923 21.18 7.75ZM21.2497 12.75H17.75V16.25H21.18C21.2389 15.2908 21.2483 14.1453 21.2497 12.75ZM21.0182 17.75H17.75V21.0182C18.8148 20.8349 19.4917 20.5187 20.0052 20.0052C20.5187 19.4917 20.8349 18.8148 21.0182 17.75ZM16.25 21.18V12.75H7.75V21.18C8.87584 21.2491 10.2582 21.25 12 21.25C13.7418 21.25 15.1242 21.2491 16.25 21.18ZM6.25 21.0182V17.75H2.98181C3.16506 18.8148 3.4813 19.4917 3.9948 20.0052C4.50829 20.5187 5.18517 20.8349 6.25 21.0182ZM2.81997 16.25H6.25V12.75H2.75028C2.75175 14.1453 2.76108 15.2908 2.81997 16.25ZM2.75028 11.25H6.25V7.75H2.81997C2.76108 8.70923 2.75175 9.8547 2.75028 11.25Z" fill="black"/>
</svg>
