<svg width="24" height="24" viewBox="0 0 24 24" fill="none" xmlns="http://www.w3.org/2000/svg">
<path fill-rule="evenodd" clip-rule="evenodd" d="M9.77629 3.12017C9.3001 2.28685 9.90181 1.25 10.8616 1.25H13.1384C14.0982 1.25 14.6999 2.28685 14.2237 3.12017L13.0853 5.11239C12.6054 5.95216 11.3946 5.95216 10.9147 5.11239L9.77629 3.12017ZM11.2924 2.75L12 3.98833L12.7076 2.75H11.2924ZM7.94513 3.25L8.5 3.25C8.91421 3.25 9.25 3.58579 9.25 4C9.25 4.41421 8.91421 4.75 8.5 4.75H8C7.91516 4.75 7.83184 4.75001 7.75 4.75004V19.25C7.83184 19.25 7.91516 19.25 8 19.25H8.5C8.91421 19.25 9.25 19.5858 9.25 20C9.25 20.4142 8.91421 20.75 8.5 20.75H7.94513C7.63162 20.75 7.33204 20.75 7.04605 20.7486C7.03082 20.7495 7.01546 20.75 7 20.75C6.98169 20.75 6.96353 20.7493 6.94555 20.7481C6.02806 20.7424 5.25306 20.7202 4.60825 20.6335C3.70814 20.5125 2.95027 20.2536 2.34835 19.6517C1.74643 19.0497 1.48754 18.2919 1.36652 17.3918C1.24996 16.5248 1.24998 15.4225 1.25 14.0549V9.94513C1.24998 8.57754 1.24996 7.47522 1.36652 6.60825C1.48754 5.70814 1.74643 4.95027 2.34835 4.34835C2.95027 3.74643 3.70814 3.48754 4.60825 3.36652C5.25306 3.27983 6.02806 3.25763 6.94556 3.25195C6.96354 3.25066 6.98169 3.25 7 3.25C7.01546 3.25 7.03082 3.25047 7.04605 3.25139C7.33204 3.24999 7.63161 3.24999 7.94513 3.25ZM6.25 4.76115C5.68097 4.77341 5.2098 4.79914 4.80812 4.85315C4.07435 4.9518 3.68577 5.13225 3.40901 5.40901C3.13225 5.68577 2.9518 6.07435 2.85315 6.80812C2.79914 7.2098 2.77341 7.68097 2.76115 8.25H6.25V4.76115ZM6.25 9.75H2.75004C2.75001 9.83184 2.75 9.91516 2.75 10V14C2.75 14.0848 2.75001 14.1682 2.75004 14.25H6.25V9.75ZM6.25 15.75H2.76115C2.77341 16.319 2.79914 16.7902 2.85315 17.1919C2.9518 17.9257 3.13225 18.3142 3.40901 18.591C3.68577 18.8678 4.07435 19.0482 4.80812 19.1469C5.2098 19.2009 5.68097 19.2266 6.25 19.2389V15.75ZM16.25 4.75004C16.1682 4.75001 16.0848 4.75 16 4.75H15.5C15.0858 4.75 14.75 4.41421 14.75 4C14.75 3.58579 15.0858 3.25 15.5 3.25L16.0549 3.25C16.3684 3.24999 16.668 3.24999 16.954 3.25139C16.9692 3.25047 16.9845 3.25 17 3.25C17.0183 3.25 17.0365 3.25066 17.0544 3.25195C17.9719 3.25763 18.7469 3.27983 19.3918 3.36652C20.2919 3.48754 21.0497 3.74643 21.6517 4.34835C22.2536 4.95027 22.5125 5.70814 22.6335 6.60825C22.75 7.47522 22.75 8.57754 22.75 9.94513V14.0549C22.75 15.4225 22.75 16.5248 22.6335 17.3918C22.5125 18.2919 22.2536 19.0497 21.6517 19.6517C21.0497 20.2536 20.2919 20.5125 19.3918 20.6335C18.7469 20.7202 17.9719 20.7424 17.0544 20.7481C17.0365 20.7493 17.0183 20.75 17 20.75C16.9845 20.75 16.9692 20.7495 16.954 20.7486C16.668 20.75 16.3684 20.75 16.0549 20.75H15.5C15.0858 20.75 14.75 20.4142 14.75 20C14.75 19.5858 15.0858 19.25 15.5 19.25H16C16.0848 19.25 16.1682 19.25 16.25 19.25V4.75004ZM17.75 4.76115V8.25H21.2389C21.2266 7.68097 21.2009 7.2098 21.1469 6.80812C21.0482 6.07434 20.8678 5.68577 20.591 5.40901C20.3142 5.13225 19.9257 4.9518 19.1919 4.85315C18.7902 4.79914 18.319 4.77341 17.75 4.76115ZM21.25 9.75H17.75V14.25H21.25C21.25 14.1682 21.25 14.0848 21.25 14V10C21.25 9.91516 21.25 9.83184 21.25 9.75ZM21.2389 15.75H17.75V19.2389C18.319 19.2266 18.7902 19.2009 19.1919 19.1469C19.9257 19.0482 20.3142 18.8678 20.591 18.591C20.8678 18.3142 21.0482 17.9257 21.1469 17.1919C21.2009 16.7902 21.2266 16.319 21.2389 15.75ZM12 6.75C12.4142 6.75 12.75 7.08579 12.75 7.5V8.5C12.75 8.91421 12.4142 9.25 12 9.25C11.5858 9.25 11.25 8.91421 11.25 8.5V7.5C11.25 7.08579 11.5858 6.75 12 6.75ZM12 10.75C12.4142 10.75 12.75 11.0858 12.75 11.5V12.5C12.75 12.9142 12.4142 13.25 12 13.25C11.5858 13.25 11.25 12.9142 11.25 12.5V11.5C11.25 11.0858 11.5858 10.75 12 10.75ZM12 14.75C12.4142 14.75 12.75 15.0858 12.75 15.5V16.5C12.75 16.9142 12.4142 17.25 12 17.25C11.5858 17.25 11.25 16.9142 11.25 16.5V15.5C11.25 15.0858 11.5858 14.75 12 14.75ZM9.77629 20.8798L10.9147 18.8876C11.3946 18.0478 12.6054 18.0478 13.0853 18.8876L14.2237 20.8798C14.6999 21.7131 14.0982 22.75 13.1384 22.75H10.8616C9.90181 22.75 9.3001 21.7131 9.77629 20.8798ZM12 20.0117L11.2924 21.25H12.7076L12 20.0117Z" fill="black"/>
</svg>
