<svg width="24" height="24" viewBox="0 0 24 24" fill="none" xmlns="http://www.w3.org/2000/svg">
<path fill-rule="evenodd" clip-rule="evenodd" d="M9.45109 3.25H9.54891C11.1512 3.24999 12.4205 3.24998 13.4248 3.36868C14.4557 3.49054 15.3044 3.74638 16.0134 4.3282C16.2539 4.52558 16.4744 4.74612 16.6718 4.98663C17.2536 5.69558 17.5095 6.54428 17.6313 7.57525C17.6587 7.80698 17.6798 8.05283 17.696 8.31364C18.482 7.92192 19.148 7.60005 19.7032 7.41841C20.3546 7.20525 21.0456 7.11922 21.6829 7.51309C22.3202 7.90695 22.5523 8.56347 22.6529 9.24146C22.7501 9.89558 22.75 10.7572 22.75 11.7924V12.2076C22.75 13.2428 22.7501 14.1044 22.6529 14.7585C22.5523 15.4365 22.3202 16.093 21.6829 16.4869C21.0456 16.8808 20.3546 16.7948 19.7032 16.5816C19.148 16.3999 18.482 16.0781 17.696 15.6864C17.6798 15.9472 17.6587 16.193 17.6313 16.4248C17.5095 17.4557 17.2536 18.3044 16.6718 19.0134C16.4744 19.2539 16.2539 19.4744 16.0134 19.6718C15.3044 20.2536 14.4557 20.5095 13.4248 20.6313C12.4205 20.75 11.1512 20.75 9.54895 20.75H9.45105C7.84881 20.75 6.57946 20.75 5.57525 20.6313C4.54428 20.5095 3.69558 20.2536 2.98663 19.6718C2.74612 19.4744 2.52558 19.2539 2.3282 19.0134C1.74638 18.3044 1.49054 17.4557 1.36868 16.4248C1.24998 15.4205 1.24999 14.1512 1.25 12.5489V11.4511C1.24999 9.84882 1.24998 8.57947 1.36868 7.57525C1.49054 6.54428 1.74638 5.69558 2.3282 4.98663C2.52558 4.74612 2.74612 4.52558 2.98663 4.3282C3.69558 3.74638 4.54428 3.49054 5.57525 3.36868C6.57947 3.24998 7.84883 3.24999 9.45109 3.25ZM16.25 12.5V11.5C16.25 9.83789 16.2488 8.65724 16.1417 7.75133C16.0366 6.86197 15.8384 6.33563 15.5123 5.93822C15.3772 5.77366 15.2263 5.62277 15.0618 5.48772C14.6644 5.16158 14.138 4.96344 13.2487 4.85831C12.3428 4.75123 11.1621 4.75 9.5 4.75C7.83789 4.75 6.65724 4.75123 5.75133 4.85831C4.86197 4.96344 4.33563 5.16158 3.93822 5.48772C3.77366 5.62277 3.62277 5.77366 3.48772 5.93822C3.16158 6.33563 2.96344 6.86197 2.85831 7.75133C2.75123 8.65724 2.75 9.83789 2.75 11.5V12.5C2.75 14.1621 2.75123 15.3428 2.85831 16.2487C2.96344 17.138 3.16158 17.6644 3.48772 18.0618C3.62277 18.2263 3.77366 18.3772 3.93822 18.5123C4.33563 18.8384 4.86197 19.0366 5.75133 19.1417C6.65724 19.2488 7.83789 19.25 9.5 19.25C11.1621 19.25 12.3428 19.2488 13.2487 19.1417C14.138 19.0366 14.6644 18.8384 15.0618 18.5123C15.2263 18.3772 15.3772 18.2263 15.5123 18.0618C15.8384 17.6644 16.0366 17.138 16.1417 16.2487C16.2488 15.3428 16.25 14.1621 16.25 12.5ZM17.75 14.0365L17.9938 14.1584C18.9892 14.6561 19.6598 14.9891 20.1697 15.156C20.669 15.3194 20.8202 15.2567 20.8943 15.2109C20.9684 15.1651 21.092 15.0579 21.1692 14.5382C21.248 14.0076 21.25 13.2588 21.25 12.1459V11.8541C21.25 10.7412 21.248 9.99243 21.1692 9.46179C21.092 8.94208 20.9684 8.83487 20.8943 8.78906C20.8202 8.74326 20.669 8.68063 20.1697 8.84403C19.6598 9.01086 18.9892 9.34395 17.9938 9.84164L17.75 9.96353V11.3665C17.75 11.3946 17.75 11.4228 17.75 11.4511V12.5489C17.75 12.5772 17.75 12.6054 17.75 12.6335V14.0365ZM13.0303 7.96967C12.7374 7.67678 12.2626 7.67678 11.9697 7.96967C11.6768 8.26256 11.6768 8.73744 11.9697 9.03033C12.2626 9.32322 12.7374 9.32322 13.0303 9.03033C13.3232 8.73744 13.3232 8.26256 13.0303 7.96967ZM10.909 6.90901C11.7877 6.03033 13.2123 6.03033 14.091 6.90901C14.9697 7.78769 14.9697 9.21231 14.091 10.091C13.2123 10.9697 11.7877 10.9697 10.909 10.091C10.0303 9.21231 10.0303 7.78769 10.909 6.90901Z" fill="black"/>
</svg>
