<svg width="24" height="24" viewBox="0 0 24 24" fill="none" xmlns="http://www.w3.org/2000/svg">
<path fill-rule="evenodd" clip-rule="evenodd" d="M10.9451 1.25H13.0549C14.4225 1.24998 15.5248 1.24996 16.3918 1.36652C17.2919 1.48754 18.0498 1.74643 18.6517 2.34835C19.0519 2.74855 19.3004 3.2177 19.4577 3.75175C19.6692 3.75503 19.8458 3.76426 20.0084 3.79001C21.3991 4.01027 22.4898 5.10094 22.71 6.49159C22.7502 6.74548 22.7501 7.03358 22.75 7.43528C22.75 7.45653 22.75 7.4781 22.75 7.5V16.5C22.75 16.5219 22.75 16.5435 22.75 16.5647C22.7501 16.9664 22.7502 17.2545 22.71 17.5084C22.4898 18.8991 21.3991 19.9897 20.0084 20.21C19.8458 20.2357 19.6692 20.245 19.4577 20.2482C19.3004 20.7823 19.0519 21.2514 18.6517 21.6517C18.0498 22.2536 17.2919 22.5125 16.3918 22.6335C15.5248 22.75 14.4225 22.75 13.0549 22.75H10.9452C9.57756 22.75 8.47524 22.75 7.60827 22.6335C6.70816 22.5125 5.95029 22.2536 5.34837 21.6517C4.94817 21.2514 4.69961 20.7823 4.54238 20.2482C4.33086 20.245 4.15422 20.2357 3.99161 20.21C2.60096 19.9897 1.51029 18.8991 1.29004 17.5084C1.24982 17.2545 1.2499 16.9664 1.25001 16.5647C1.25002 16.5435 1.25002 16.5219 1.25002 16.5V7.5C1.25002 7.4781 1.25002 7.45652 1.25001 7.43527C1.2499 7.03357 1.24982 6.74548 1.29004 6.49159C1.51029 5.10094 2.60096 4.01027 3.99161 3.79001C4.15422 3.76426 4.33086 3.75503 4.54238 3.75175C4.69961 3.2177 4.94817 2.74855 5.34837 2.34835C5.95029 1.74643 6.70816 1.48754 7.60827 1.36652C8.47524 1.24996 9.57756 1.24998 10.9451 1.25ZM4.30193 5.26229C4.27396 5.26483 4.24942 5.26788 4.22626 5.27155C3.47745 5.39015 2.89017 5.97743 2.77157 6.72624C2.75235 6.84758 2.75002 7.00684 2.75002 7.5V16.5C2.75002 16.9932 2.75235 17.1524 2.77157 17.2738C2.89017 18.0226 3.47745 18.6099 4.22626 18.7285C4.24942 18.7321 4.27396 18.7352 4.30193 18.7377C4.24999 17.9893 4.25001 17.0995 4.25002 16.0549L4.25002 14.8166C4.25002 14.8161 4.25002 14.8156 4.25002 14.8151L4.25002 7.94512C4.25001 6.90052 4.24999 6.01069 4.30193 5.26229ZM5.75002 15.1209V16C5.75002 17.4354 5.75162 18.4365 5.85317 19.1919C5.95182 19.9257 6.13227 20.3142 6.40903 20.591C6.6858 20.8678 7.07437 21.0482 7.80814 21.1469C8.56349 21.2484 9.56461 21.25 11 21.25H13C14.4354 21.25 15.4366 21.2484 16.1919 21.1469C16.9257 21.0482 17.3142 20.8678 17.591 20.591C17.743 20.439 17.8659 20.2533 17.9622 19.9952L16.0804 18.0092C15.577 17.478 14.8816 17.4416 14.352 17.8781L14.1322 18.0591C13.216 18.8142 11.9548 18.6658 11.1952 17.7751L8.03435 14.0687C7.68431 13.6583 7.1851 13.6485 6.82776 14.0152L5.75002 15.1209ZM18.2292 18.0961L17.1692 16.9775C16.1406 15.892 14.5546 15.7673 13.398 16.7205L13.1783 16.9016C12.9228 17.1121 12.5897 17.0987 12.3365 16.8018L9.17567 13.0954C8.26393 12.0263 6.73916 11.957 5.75357 12.9682L5.75002 12.9719V8C5.75002 6.56458 5.75162 5.56347 5.85317 4.80812C5.95182 4.07435 6.13227 3.68577 6.40903 3.40901C6.6858 3.13225 7.07437 2.9518 7.80814 2.85315C8.56349 2.75159 9.56461 2.75 11 2.75H13C14.4354 2.75 15.4366 2.75159 16.1919 2.85315C16.9257 2.9518 17.3142 3.13225 17.591 3.40901C17.8678 3.68577 18.0482 4.07435 18.1469 4.80812C18.2484 5.56347 18.25 6.56458 18.25 8V16C18.25 16.8326 18.2495 17.519 18.2292 18.0961ZM19.6981 18.7377C19.7261 18.7352 19.7506 18.7321 19.7738 18.7285C20.5226 18.6099 21.1099 18.0226 21.2285 17.2738C21.2477 17.1524 21.25 16.9932 21.25 16.5V7.5C21.25 7.00684 21.2477 6.84758 21.2285 6.72624C21.1099 5.97743 20.5226 5.39015 19.7738 5.27155C19.7506 5.26788 19.7261 5.26483 19.6981 5.26229C19.7501 6.01069 19.75 6.90053 19.75 7.94513V16.0549C19.75 17.0995 19.7501 17.9893 19.6981 18.7377ZM14.5 5.75C14.0858 5.75 13.75 6.08579 13.75 6.5C13.75 6.91421 14.0858 7.25 14.5 7.25C14.9142 7.25 15.25 6.91421 15.25 6.5C15.25 6.08579 14.9142 5.75 14.5 5.75ZM12.25 6.5C12.25 5.25736 13.2574 4.25 14.5 4.25C15.7427 4.25 16.75 5.25736 16.75 6.5C16.75 7.74264 15.7427 8.75 14.5 8.75C13.2574 8.75 12.25 7.74264 12.25 6.5Z" fill="black"/>
</svg>
