<svg width="24" height="24" viewBox="0 0 24 24" fill="none" xmlns="http://www.w3.org/2000/svg">
<path d="M8.3807 20.5682L3.43157 15.6191C2.52737 14.7149 2.07528 14.2628 2.0108 13.7107C1.9964 13.5874 1.9964 13.4629 2.0108 13.3397C2.07528 12.7876 2.52737 12.3355 3.43156 11.4313C4.33575 10.5271 4.78785 10.075 5.33994 10.0106C5.46318 9.99616 5.58768 9.99616 5.71092 10.0106C6.26301 10.075 6.71511 10.5271 7.6193 11.4313L8.35253 12.1646L12.1648 8.35229L11.4316 7.61906C10.5274 6.71486 10.0753 6.26277 10.0108 5.71068C9.9964 5.58744 9.9964 5.46294 10.0108 5.3397C10.0753 4.78761 10.5274 4.33551 11.4316 3.43132C12.3358 2.52713 12.7879 2.07503 13.3399 2.01055C13.4632 1.99616 13.5877 1.99616 13.7109 2.01055C14.263 2.07503 14.7151 2.52713 15.6193 3.43132L20.5684 8.38046C21.4726 9.28465 21.9247 9.73675 21.9892 10.2888C22.0036 10.4121 22.0036 10.5366 21.9892 10.6598C21.9247 11.2119 21.4726 11.664 20.5684 12.5682C19.6642 13.4724 19.2121 13.9245 18.6601 13.989C18.5368 14.0034 18.4123 14.0034 18.2891 13.989C17.737 13.9245 17.2849 13.4724 16.3807 12.5682L15.2688 11.4563L11.4565 15.2686L12.5684 16.3805C13.4726 17.2847 13.9247 17.7367 13.9892 18.2888C14.0036 18.4121 14.0036 18.5366 13.9892 18.6598C13.9247 19.2119 13.4726 19.664 12.5684 20.5682C11.6642 21.4724 11.2121 21.9245 10.6601 21.989C10.5368 22.0034 10.4123 22.0034 10.2891 21.989C9.73699 21.9245 9.28489 21.4724 8.3807 20.5682Z" fill="black"/>
<path fill-rule="evenodd" clip-rule="evenodd" d="M17.4885 1.96772C17.7814 1.67482 18.2562 1.67482 18.5491 1.96772L21.6531 5.07173C21.946 5.36462 21.946 5.83949 21.6531 6.13239C21.3602 6.42528 20.8854 6.42528 20.5925 6.13239L17.4885 3.02838C17.1956 2.73548 17.1956 2.26061 17.4885 1.96772ZM1.96723 17.4876C2.26012 17.1947 2.735 17.1947 3.02789 17.4876L6.1319 20.5916C6.42479 20.8845 6.42479 21.3594 6.1319 21.6523C5.83901 21.9452 5.36413 21.9452 5.07124 21.6523L1.96723 18.5483C1.67434 18.2554 1.67434 17.7805 1.96723 17.4876Z" fill="black"/>
</svg>
