<svg width="24" height="24" viewBox="0 0 24 24" fill="none" xmlns="http://www.w3.org/2000/svg">
<path d="M14.4999 4.5C14.4999 5.88071 13.3806 7 11.9999 7C10.6192 7 9.49992 5.88071 9.49992 4.5C9.49992 3.11929 10.6192 2 11.9999 2C13.3806 2 14.4999 3.11929 14.4999 4.5Z" fill="black"/>
<path fill-rule="evenodd" clip-rule="evenodd" d="M12.8687 9.82208C12.298 9.72597 11.7018 9.72597 11.1312 9.82208C8.62348 10.2445 6.74992 12.4461 6.74992 15.0196C6.74992 15.5842 6.43424 16.1049 5.92703 16.3612L3.33816 17.6694C2.96847 17.8562 2.51733 17.7079 2.33052 17.3382C2.14371 16.9685 2.29198 16.5174 2.66167 16.3306L5.24917 15.0231L5.24992 15.0196C5.24992 11.7143 7.65175 8.88701 10.882 8.34292C11.6176 8.21903 12.3823 8.21903 13.1178 8.34292C16.3481 8.88701 18.7499 11.7143 18.7499 15.0196L18.7503 15.0224L21.3382 16.3306C21.7079 16.5174 21.8561 16.9685 21.6693 17.3382C21.4825 17.7079 21.0314 17.8562 20.6617 17.6694L18.0728 16.3612C17.5656 16.1049 17.2499 15.5842 17.2499 15.0196C17.2499 12.4461 15.3764 10.2445 12.8687 9.82208ZM9.94992 15.4C10.2813 15.6485 10.3484 16.1186 10.0999 16.45L9.05335 17.8454C9.02619 17.8816 9.00477 17.9102 8.98266 17.9381C8.62095 18.3954 8.1233 18.7258 7.56155 18.8817C7.52718 18.8913 7.49247 18.8999 7.44846 18.9109L7.44084 18.9129L5.95605 19.284C5.2472 19.4613 4.74992 20.0982 4.74992 20.8288C4.74992 21.0614 4.93848 21.25 5.17108 21.25H6.72719C7.34361 21.25 7.59222 21.2488 7.82937 21.2209C8.40755 21.153 8.9656 20.967 9.46892 20.6744C9.67536 20.5544 9.87499 20.4062 10.3681 20.0364L12.5499 18.4C12.8813 18.1515 13.3514 18.2186 13.5999 18.55C13.8484 18.8814 13.7813 19.3515 13.4499 19.6L12.5453 20.2785L13.8029 20.7501C14.4296 20.9851 14.6825 21.0784 14.9394 21.1385C15.0779 21.1709 15.218 21.1963 15.3591 21.2146C15.6207 21.2486 15.8902 21.25 16.5596 21.25H18.8288C19.0614 21.25 19.2499 21.0614 19.2499 20.8288C19.2499 20.0982 18.7526 19.4613 18.0438 19.284L16.5511 18.9109C16.5072 18.8999 16.4726 18.8913 16.4383 18.8817C15.8765 18.7258 15.3789 18.3954 15.0172 17.9381C14.995 17.9102 14.9735 17.8814 14.9463 17.8452L13.8999 16.45C13.6514 16.1186 13.7185 15.6485 14.0499 15.4C14.3813 15.1515 14.8514 15.2186 15.0999 15.55L16.1416 16.939C16.1756 16.9843 16.185 16.9966 16.1936 17.0075C16.358 17.2153 16.5842 17.3655 16.8395 17.4364C16.8529 17.4401 16.8677 17.4439 16.9228 17.4576L18.4076 17.8288C19.7842 18.173 20.7499 19.4099 20.7499 20.8288C20.7499 21.8899 19.8898 22.75 18.8288 22.75L16.5078 22.75C15.906 22.75 15.5351 22.7501 15.1658 22.7021C14.975 22.6773 14.7855 22.6429 14.5981 22.5991C14.2354 22.5144 13.8882 22.3841 13.3247 22.1728L11.1212 21.3465C10.7408 21.6316 10.4897 21.8161 10.2227 21.9713C9.54173 22.3671 8.78671 22.6187 8.00447 22.7107C7.66956 22.7501 7.32885 22.75 6.77536 22.75L5.17108 22.75C4.11005 22.75 3.24992 21.8899 3.24992 20.8288C3.24992 19.4099 4.21564 18.173 5.59225 17.8288L7.07703 17.4576C7.13207 17.4439 7.14695 17.4401 7.16031 17.4364C7.41565 17.3655 7.64187 17.2153 7.80628 17.0075C7.81489 16.9966 7.82411 16.9844 7.85819 16.939L8.89992 15.55C9.14845 15.2186 9.61855 15.1515 9.94992 15.4Z" fill="black"/>
</svg>
