<svg width="24" height="24" viewBox="0 0 24 24" fill="none" xmlns="http://www.w3.org/2000/svg">
<path d="M21 4.5C21 5.88071 19.8807 7 18.5 7C17.1193 7 16 5.88071 16 4.5C16 3.11929 17.1193 2 18.5 2C19.8807 2 21 3.11929 21 4.5Z" fill="black"/>
<path fill-rule="evenodd" clip-rule="evenodd" d="M8.97231 5.81012C9.87486 5.41194 10.8988 5.38942 11.818 5.74754C14.3856 6.74793 15.0063 10.0988 12.9673 11.9524L11.9272 12.898C11.8873 12.9342 11.8756 12.9449 11.868 12.9521C11.3146 13.4759 11.3545 14.3687 11.9525 14.841C11.9608 14.8475 11.9735 14.8572 12.0164 14.8897L12.0198 14.8923C12.0784 14.9367 12.1124 14.9624 12.1449 14.9876C14.0177 16.4378 15.1245 18.6648 15.1496 21.0334C15.15 21.0744 15.15 21.117 15.15 21.1902V22C15.15 22.4142 14.8142 22.75 14.4 22.75C13.9858 22.75 13.65 22.4142 13.65 22V21.195C13.65 21.1156 13.65 21.0813 13.6497 21.0492C13.6295 19.1391 12.7369 17.3431 11.2265 16.1736C11.2012 16.1539 11.1739 16.1332 11.1106 16.0853L11.1042 16.0804C11.0707 16.0551 11.0447 16.0354 11.0229 16.0182C9.70732 14.9792 9.61938 13.0151 10.8368 11.8628C10.8571 11.8436 10.8811 11.8217 10.9125 11.7933L11.9583 10.8425C13.1733 9.73799 12.8034 7.74131 11.2734 7.14521C10.7257 6.93181 10.1156 6.94523 9.57777 7.18249L9.05608 7.41265C8.51083 7.6532 8.25902 7.76449 8.0142 7.88601C7.6014 8.09091 7.2005 8.31894 6.8134 8.56901C6.58381 8.71732 6.35946 8.87688 5.87402 9.22257L4.43505 10.2473C4.09765 10.4876 3.62935 10.4088 3.38908 10.0714C3.1488 9.73401 3.22754 9.26571 3.56495 9.02544L5.02092 7.98861C5.48513 7.65804 5.73806 7.47792 5.99945 7.30906C6.43395 7.02836 6.88394 6.77241 7.34729 6.54242C7.62603 6.40406 7.91012 6.27873 8.43151 6.0487L8.97231 5.81012ZM15.2724 11.8181C15.3729 11.4163 15.7801 11.1719 16.1819 11.2724C17.3756 11.5708 18.6244 11.5708 19.8181 11.2724C20.2199 11.1719 20.6271 11.4163 20.7276 11.8181C20.8281 12.2199 20.5837 12.6271 20.1819 12.7276C18.7493 13.0857 17.2507 13.0857 15.8181 12.7276C15.4163 12.6271 15.1719 12.2199 15.2724 11.8181ZM9.48014 16.4238C9.79835 16.689 9.84134 17.1619 9.57617 17.4801L9.31681 17.7914C7.75456 19.6661 5.44032 20.75 3 20.75C2.58579 20.75 2.25 20.4142 2.25 20C2.25 19.5858 2.58579 19.25 3 19.25C4.99515 19.25 6.88722 18.3638 8.16448 16.8311L8.42383 16.5199C8.68901 16.2017 9.16193 16.1587 9.48014 16.4238Z" fill="black"/>
</svg>
