<svg width="24" height="24" viewBox="0 0 24 24" fill="none" xmlns="http://www.w3.org/2000/svg">
<path fill-rule="evenodd" clip-rule="evenodd" d="M4.56991 17.8657C5.25676 16.7919 6.72737 16.8271 7.45758 17.7618C8.44758 19.0291 9.82953 20.25 12 20.25C14.2087 20.25 15.5698 19.2712 16.505 18.0209C17.225 17.0585 18.7907 16.9013 19.5456 18.0435C20.1707 18.9891 20.8487 19.7306 22.1721 20.0424C22.5752 20.1374 22.8251 20.5412 22.7301 20.9444C22.6351 21.3476 22.2312 21.5974 21.828 21.5024C19.9761 21.066 19.0204 19.9692 18.2943 18.8705C18.2373 18.7844 18.1517 18.7406 18.0407 18.7427C17.9221 18.7449 17.7935 18.8027 17.7061 18.9195C16.5385 20.4804 14.7603 21.75 12 21.75C9.15747 21.75 7.38864 20.1101 6.27553 18.6853C6.2038 18.5934 6.1102 18.5585 6.02969 18.5602C5.95376 18.5619 5.8843 18.5946 5.83353 18.674C5.09404 19.8301 4.13916 21.0389 2.17206 21.5024C1.76889 21.5974 1.36504 21.3476 1.27004 20.9444C1.17504 20.5412 1.42486 20.1374 1.82803 20.0424C3.22898 19.7123 3.90762 18.9011 4.56991 17.8657Z" fill="black"/>
<path d="M22.1721 15.0424C20.8487 14.7306 20.1707 13.9891 19.5456 13.0435C18.8452 11.9837 17.4468 12.0426 16.6735 12.8253L15.5 11.5L9.00079 4.13417C8.45849 3.51957 7.51009 3.48996 6.93051 4.06954C6.40547 4.59458 6.37318 5.43532 6.8564 5.99908L7.84412 7.15142C8.44855 7.85659 7.47698 9.41384 7.47698 9.41384L4.9984 12.3997C4.83675 12.5213 4.69113 12.6762 4.56991 12.8657C3.90762 13.9011 3.22898 14.7123 1.82803 15.0424C1.42486 15.1374 1.17504 15.5412 1.27004 15.9444C1.36504 16.3476 1.76889 16.5974 2.17206 16.5024C4.13916 16.0389 5.09404 14.8301 5.83353 13.674C5.8843 13.5946 5.95376 13.5619 6.02969 13.5602C6.1102 13.5585 6.2038 13.5934 6.27553 13.6853C7.38864 15.1101 9.15747 16.75 12 16.75C14.7603 16.75 16.5385 15.4804 17.7061 13.9195C17.7935 13.8027 17.9221 13.7449 18.0407 13.7427C18.1517 13.7406 18.2373 13.7844 18.2943 13.8705C19.0204 14.9692 19.9761 16.066 21.828 16.5024C22.2312 16.5974 22.6351 16.3476 22.7301 15.9444C22.8251 15.5412 22.5752 15.1374 22.1721 15.0424Z" fill="black"/>
<path d="M17 8C18.3808 8 19.5 6.88071 19.5 5.5C19.5 4.11929 18.3808 3 17 3C15.6193 3 14.5 4.11929 14.5 5.5C14.5 6.88071 15.6193 8 17 8Z" fill="black"/>
</svg>
