<svg width="24" height="24" viewBox="0 0 24 24" fill="none" xmlns="http://www.w3.org/2000/svg">
<path d="M17 4C17 5.10457 16.1046 6 15 6C13.8954 6 13 5.10457 13 4C13 2.89543 13.8954 2 15 2C16.1046 2 17 2.89543 17 4Z" fill="black"/>
<path fill-rule="evenodd" clip-rule="evenodd" d="M6.21002 6.0468C7.60385 5.17566 9.33593 5.04228 10.8467 5.68975C12.0283 6.19616 12.3248 7.73583 11.4158 8.64486L9.76183 10.2988C9.41236 10.6483 9.43841 11.2224 9.81807 11.5388L10.8145 12.3691C11.4073 12.8631 11.75 13.5949 11.75 14.3665V16C11.75 16.4142 11.4142 16.75 11 16.75C10.5858 16.75 10.25 16.4142 10.25 16V14.3665C10.25 14.04 10.105 13.7304 9.85422 13.5215L8.8578 12.6911C7.80052 11.8101 7.728 10.2113 8.70117 9.23817L10.3551 7.5842C10.5138 7.42555 10.462 7.15685 10.2558 7.06847C9.19661 6.61452 7.98224 6.70804 7.00502 7.3188L4.8975 8.636C4.54625 8.85553 4.08353 8.74875 3.864 8.3975C3.64447 8.04625 3.75125 7.58353 4.1025 7.364L6.21002 6.0468ZM11.75 10C11.75 9.58579 12.0858 9.25 12.5 9.25H15.5C15.9142 9.25 16.25 9.58579 16.25 10C16.25 10.4142 15.9142 10.75 15.5 10.75H12.5C12.0858 10.75 11.75 10.4142 11.75 10ZM7.53033 13.4697C7.82322 13.7626 7.82322 14.2374 7.53033 14.5303L7.2019 14.8588C7.17308 14.8876 7.14462 14.9161 7.1165 14.9443C6.62299 15.4387 6.2324 15.8301 5.72395 16.0407C5.2155 16.2513 4.6626 16.2507 3.964 16.2501C3.9242 16.25 3.88392 16.25 3.84315 16.25H3C2.58579 16.25 2.25 15.9142 2.25 15.5C2.25 15.0858 2.58579 14.75 3 14.75H3.84315C4.72184 14.75 4.95226 14.7367 5.14993 14.6549C5.34759 14.573 5.51991 14.4194 6.14124 13.7981L6.46967 13.4697C6.76256 13.1768 7.23744 13.1768 7.53033 13.4697Z" fill="black"/>
<path d="M3.08684 22H19.4888C20.8757 22 22 20.8757 22 19.4888C22 17.9288 20.5926 16.7463 19.0559 17.0152L18.8931 17.0437L20.0333 9.00028L20.0338 8.99741C20.0864 8.64672 20.1179 8.44447 20.1568 8.29849C20.1744 8.23252 20.1885 8.19883 20.1965 8.18288C20.2002 8.17549 20.2029 8.17144 20.2029 8.17144L20.2037 8.17041L20.2047 8.16955C20.2047 8.16955 20.2086 8.1666 20.2159 8.16256C20.2314 8.15385 20.2644 8.13813 20.3294 8.11734C20.4737 8.07123 20.6749 8.02987 21.0244 7.95998L22.1471 7.73544C22.5533 7.6542 22.8167 7.25908 22.7354 6.85291C22.6542 6.44674 22.2591 6.18333 21.8529 6.26456L20.6963 6.49589C20.3927 6.55657 20.1072 6.61364 19.8728 6.68852C19.6117 6.77197 19.3447 6.89746 19.1177 7.13579C18.8906 7.37412 18.7782 7.64686 18.7076 7.91172C18.6441 8.14941 18.601 8.43736 18.5551 8.74354L18.5499 8.77776L17.3395 17.3156L2.89949 19.8426C2.37943 19.9336 2 20.3852 2 20.9132C2 21.5134 2.48659 22 3.08684 22Z" fill="black"/>
</svg>
