<svg width="24" height="24" viewBox="0 0 24 24" fill="none" xmlns="http://www.w3.org/2000/svg">
<path d="M14 4.5C14 5.88071 12.8808 7 11.5 7C10.1193 7 9.00004 5.88071 9.00004 4.5C9.00004 3.11929 10.1193 2 11.5 2C12.8808 2 14 3.11929 14 4.5Z" fill="black"/>
<path fill-rule="evenodd" clip-rule="evenodd" d="M12.5279 10.7532C12.4898 10.7505 12.4421 10.75 12.2699 10.75H11.1788L11.0876 11.6615C10.9136 13.4019 10.8531 14.1013 11.0085 14.7631C11.164 15.4248 11.5297 16.024 12.4605 17.5048L15.0354 21.6008C15.2558 21.9515 15.1503 22.4145 14.7996 22.635C14.4489 22.8554 13.9859 22.7498 13.7655 22.3992L11.1906 18.3031C11.1661 18.2642 11.1419 18.2256 11.1179 18.1875C10.283 16.8599 9.76789 16.0407 9.54831 15.1061C9.32872 14.1715 9.42517 13.2086 9.58147 11.6482C9.58595 11.6034 9.59049 11.5581 9.59507 11.5123L9.67121 10.7509C9.17003 10.7535 8.79929 10.7632 8.49999 10.7995C8.12277 10.8453 7.94684 10.925 7.82222 11.0249C7.6976 11.1249 7.58166 11.2794 7.45514 11.6377C7.32182 12.0153 7.207 12.526 7.03612 13.295L6.73218 14.6627C6.64232 15.067 6.24169 15.322 5.83734 15.2321C5.43299 15.1423 5.17804 14.7417 5.2679 14.3373L5.5816 12.9256C5.7401 12.2123 5.87353 11.6118 6.04073 11.1382C6.21816 10.6357 6.45985 10.1948 6.88363 9.85489C7.30742 9.51494 7.79026 9.37465 8.31927 9.31045C8.81779 9.24995 9.43296 9.24997 10.1637 9.25L12.2699 9.25C12.2782 9.25 12.2864 9.25 12.2945 9.25C12.4306 9.24997 12.5363 9.24995 12.6352 9.25704C13.7491 9.33691 14.7042 10.0826 15.0518 11.1439C15.0827 11.2381 15.1083 11.3407 15.1413 11.4727L15.1473 11.4966C15.2034 11.7211 15.2201 11.7848 15.2356 11.8293C15.4458 12.4354 16.0807 12.7839 16.7049 12.6359C16.7507 12.6251 16.8135 12.6049 17.033 12.5318L17.7629 12.2885C18.1558 12.1575 18.5806 12.3699 18.7116 12.7628C18.8425 13.1558 18.6302 13.5805 18.2372 13.7115L17.5074 13.9548C17.4964 13.9584 17.4856 13.9621 17.4749 13.9656C17.3029 14.023 17.1709 14.067 17.051 14.0955C15.6777 14.4211 14.281 13.6543 13.8184 12.321C13.778 12.2045 13.7443 12.0695 13.7003 11.8936C13.6976 11.8827 13.6949 11.8716 13.6921 11.8604C13.6503 11.6934 13.6383 11.6472 13.6264 11.6109C13.4683 11.1285 13.0342 10.7895 12.5279 10.7532ZM9.41606 16.876C9.76071 17.1057 9.85384 17.5714 9.62408 17.916L6.62408 22.416C6.39431 22.7607 5.92866 22.8538 5.58401 22.624C5.23937 22.3943 5.14624 21.9286 5.376 21.584L8.376 17.084C8.60577 16.7393 9.07142 16.6462 9.41606 16.876Z" fill="black"/>
</svg>
