<svg width="24" height="24" viewBox="0 0 24 24" fill="none" xmlns="http://www.w3.org/2000/svg">
<path fill-rule="evenodd" clip-rule="evenodd" d="M12 1.25C12.4143 1.25 12.75 1.58579 12.75 2V3C12.75 3.41421 12.4143 3.75 12 3.75C11.5858 3.75 11.25 3.41421 11.25 3V2C11.25 1.58579 11.5858 1.25 12 1.25ZM4.39915 4.39861C4.69204 4.10572 5.16691 4.10572 5.45981 4.39861L5.85264 4.79145C6.14554 5.08434 6.14554 5.55921 5.85264 5.85211C5.55975 6.145 5.08488 6.145 4.79198 5.85211L4.39915 5.45927C4.10625 5.16638 4.10625 4.6915 4.39915 4.39861ZM19.6007 4.39887C19.8936 4.69176 19.8936 5.16664 19.6007 5.45953L19.2079 5.85237C18.915 6.14526 18.4401 6.14526 18.1472 5.85237C17.8543 5.55947 17.8543 5.0846 18.1472 4.79171L18.54 4.39887C18.8329 4.10598 19.3078 4.10598 19.6007 4.39887ZM1.25005 12C1.25005 11.5858 1.58583 11.25 2.00005 11.25H3.00005C3.41426 11.25 3.75005 11.5858 3.75005 12C3.75005 12.4142 3.41426 12.75 3.00005 12.75H2.00005C1.58583 12.75 1.25005 12.4142 1.25005 12ZM20.25 12C20.25 11.5858 20.5858 11.25 21 11.25H22C22.4143 11.25 22.75 11.5858 22.75 12C22.75 12.4142 22.4143 12.75 22 12.75H21C20.5858 12.75 20.25 12.4142 20.25 12ZM4.56991 18.8657C5.25676 17.7919 6.72737 17.8271 7.45758 18.7618C8.44758 20.0291 9.82953 21.25 12 21.25C14.2087 21.25 15.5698 20.2712 16.505 19.0209C17.225 18.0585 18.7907 17.9013 19.5456 19.0435C20.1707 19.9891 20.8487 20.7306 22.1721 21.0424C22.5752 21.1374 22.8251 21.5412 22.7301 21.9444C22.6351 22.3476 22.2312 22.5974 21.828 22.5024C19.9761 22.066 19.0204 20.9692 18.2943 19.8705C18.2373 19.7844 18.1517 19.7406 18.0407 19.7427C17.9221 19.7449 17.7935 19.8027 17.7061 19.9195C16.5385 21.4804 14.7603 22.75 12 22.75C9.15747 22.75 7.38864 21.1101 6.27553 19.6853C6.2038 19.5934 6.1102 19.5585 6.02969 19.5602C5.95376 19.5619 5.8843 19.5946 5.83353 19.674C5.09404 20.8301 4.13916 22.0389 2.17206 22.5024C1.76889 22.5974 1.36504 22.3476 1.27004 21.9444C1.17504 21.5412 1.42486 21.1374 1.82803 21.0424C3.22898 20.7123 3.90762 19.9011 4.56991 18.8657Z" fill="black"/>
<path d="M22.1721 16.0424C20.8487 15.7306 20.1707 14.9891 19.5456 14.0435C19.1369 13.425 18.4904 13.1875 17.8691 13.2526C17.9549 12.8486 18 12.4296 18 12C18 8.68629 15.3138 6 12 6C8.68634 6 6.00005 8.68629 6.00005 12C6.00005 12.3623 6.03216 12.7171 6.09368 13.0617C5.51686 13.0396 4.93355 13.2972 4.56991 13.8657C3.90762 14.9011 3.22898 15.7123 1.82803 16.0424C1.42486 16.1374 1.17504 16.5412 1.27004 16.9444C1.36504 17.3476 1.76889 17.5974 2.17206 17.5024C4.13916 17.0389 5.09404 15.8301 5.83353 14.674C5.8843 14.5946 5.95376 14.5619 6.02969 14.5602C6.1102 14.5585 6.2038 14.5934 6.27553 14.6853C7.38864 16.1101 9.15747 17.75 12 17.75C14.7603 17.75 16.5385 16.4804 17.7061 14.9195C17.7935 14.8027 17.9221 14.7449 18.0407 14.7427C18.1517 14.7406 18.2373 14.7844 18.2943 14.8705C19.0204 15.9692 19.9761 17.066 21.828 17.5024C22.2312 17.5974 22.6351 17.3476 22.7301 16.9444C22.8251 16.5412 22.5752 16.1374 22.1721 16.0424Z" fill="black"/>
</svg>
