<svg width="24" height="24" viewBox="0 0 24 24" fill="none" xmlns="http://www.w3.org/2000/svg">
<circle cx="12" cy="6" r="4" fill="black"/>
<path fill-rule="evenodd" clip-rule="evenodd" d="M16.5 22C14.8501 22 14.0251 22 13.5126 21.4874C13 20.9749 13 20.1499 13 18.5C13 16.8501 13 16.0251 13.5126 15.5126C14.0251 15 14.8501 15 16.5 15C18.1499 15 18.9749 15 19.4874 15.5126C20 16.0251 20 16.8501 20 18.5C20 20.1499 20 20.9749 19.4874 21.4874C18.9749 22 18.1499 22 16.5 22ZM18.468 17.7458C18.6958 17.518 18.6958 17.1487 18.468 16.9209C18.2402 16.693 17.8709 16.693 17.6431 16.9209L15.7222 18.8417L15.3569 18.4764C15.1291 18.2486 14.7598 18.2486 14.532 18.4764C14.3042 18.7042 14.3042 19.0736 14.532 19.3014L15.3097 20.0791C15.5375 20.307 15.9069 20.307 16.1347 20.0791L18.468 17.7458Z" fill="black"/>
<path opacity="0.5" d="M18.0947 15.0312C17.6699 15 17.1487 15 16.5 15C14.8501 15 14.0251 15 13.5126 15.5126C13 16.0251 13 16.8501 13 18.5C13 19.6663 13 20.4204 13.1811 20.9433C12.7971 20.9806 12.4025 21 12 21C8.13401 21 5 19.2091 5 17C5 14.7909 8.13401 13 12 13C14.6134 13 16.8924 13.8184 18.0947 15.0312Z" fill="black"/>
</svg>
