<svg width="24" height="24" viewBox="0 0 24 24" fill="none" xmlns="http://www.w3.org/2000/svg">
<path d="M16 6C16 8.20914 14.2091 10 12 10C9.79086 10 8 8.20914 8 6C8 3.79086 9.79086 2 12 2C14.2091 2 16 3.79086 16 6Z" fill="black"/>
<path fill-rule="evenodd" clip-rule="evenodd" d="M16.5 22C14.8501 22 14.0251 22 13.5126 21.4874C13 20.9749 13 20.1499 13 18.5C13 16.8501 13 16.0251 13.5126 15.5126C14.0251 15 14.8501 15 16.5 15C18.1499 15 18.9749 15 19.4874 15.5126C20 16.0251 20 16.8501 20 18.5C20 20.1499 20 20.9749 19.4874 21.4874C18.9749 22 18.1499 22 16.5 22ZM18.468 17.7458C18.6958 17.518 18.6958 17.1487 18.468 16.9209C18.2402 16.693 17.8709 16.693 17.6431 16.9209L15.7222 18.8417L15.3569 18.4764C15.1291 18.2486 14.7598 18.2486 14.532 18.4764C14.3042 18.7042 14.3042 19.0736 14.532 19.3014L15.3097 20.0791C15.5375 20.307 15.9069 20.307 16.1347 20.0791L18.468 17.7458Z" fill="black"/>
<path opacity="0.5" d="M14.4774 21.9208C13.7513 21.9728 12.9296 22 12 22C4 22 4 19.9853 4 17.5C4 15.0147 7.58172 13 12 13C14.8806 13 17.4056 13.8564 18.8142 15.1412C18.298 15 17.5737 15 16.5 15C14.8501 15 14.0251 15 13.5126 15.5126C13 16.0251 13 16.8501 13 18.5C13 20.1499 13 20.9749 13.5126 21.4874C13.7501 21.725 14.0547 21.8524 14.4774 21.9208Z" fill="black"/>
</svg>
