<svg width="24" height="24" viewBox="0 0 24 24" fill="none" xmlns="http://www.w3.org/2000/svg">
<path d="M16 6C16 8.20914 14.2091 10 12 10C9.79086 10 8 8.20914 8 6C8 3.79086 9.79086 2 12 2C14.2091 2 16 3.79086 16 6Z" fill="black"/>
<path opacity="0.5" d="M14.4774 21.9208C13.7513 21.9728 12.9296 22 12 22C4 22 4 19.9853 4 17.5C4 15.0147 7.58172 13 12 13C14.8806 13 17.4056 13.8564 18.8142 15.1412C18.298 15 17.5737 15 16.5 15C14.8501 15 14.0251 15 13.5126 15.5126C13 16.0251 13 16.8501 13 18.5C13 20.1499 13 20.9749 13.5126 21.4874C13.7501 21.725 14.0547 21.8524 14.4774 21.9208Z" fill="black"/>
<path fill-rule="evenodd" clip-rule="evenodd" d="M13.5126 21.4874C14.0251 22 14.8501 22 16.5 22C18.1499 22 18.9749 22 19.4874 21.4874C20 20.9749 20 20.1499 20 18.5C20 16.8501 20 16.0251 19.4874 15.5126C18.9749 15 18.1499 15 16.5 15C14.8501 15 14.0251 15 13.5126 15.5126C13 16.0251 13 16.8501 13 18.5C13 20.1499 13 20.9749 13.5126 21.4874ZM15.9167 17.9167H14.9444C14.6223 17.9167 14.3611 18.1778 14.3611 18.5C14.3611 18.8222 14.6223 19.0833 14.9444 19.0833H15.9167H17.0833H18.0556C18.3777 19.0833 18.6389 18.8222 18.6389 18.5C18.6389 18.1778 18.3777 17.9167 18.0556 17.9167H17.0833H15.9167Z" fill="black"/>
</svg>
