<svg width="24" height="24" viewBox="0 0 24 24" fill="none" xmlns="http://www.w3.org/2000/svg">
<path d="M15.5 7.5C15.5 9.433 13.933 11 12 11C10.067 11 8.5 9.433 8.5 7.5C8.5 5.567 10.067 4 12 4C13.933 4 15.5 5.567 15.5 7.5Z" fill="black"/>
<path opacity="0.4" d="M19.5 7.5C19.5 8.88071 18.3807 10 17 10C15.6193 10 14.5 8.88071 14.5 7.5C14.5 6.11929 15.6193 5 17 5C18.3807 5 19.5 6.11929 19.5 7.5Z" fill="black"/>
<path opacity="0.4" d="M4.5 7.5C4.5 8.88071 5.61929 10 7 10C8.38071 10 9.5 8.88071 9.5 7.5C9.5 6.11929 8.38071 5 7 5C5.61929 5 4.5 6.11929 4.5 7.5Z" fill="black"/>
<path d="M18 16.5C18 18.433 15.3137 20 12 20C8.68629 20 6 18.433 6 16.5C6 14.567 8.68629 13 12 13C15.3137 13 18 14.567 18 16.5Z" fill="black"/>
<path opacity="0.4" d="M22 16.5C22 17.8807 20.2091 19 18 19C15.7909 19 14 17.8807 14 16.5C14 15.1193 15.7909 14 18 14C20.2091 14 22 15.1193 22 16.5Z" fill="black"/>
<path opacity="0.4" d="M2 16.5C2 17.8807 3.79086 19 6 19C8.20914 19 10 17.8807 10 16.5C10 15.1193 8.20914 14 6 14C3.79086 14 2 15.1193 2 16.5Z" fill="black"/>
</svg>
