<svg width="24" height="24" viewBox="0 0 24 24" fill="none" xmlns="http://www.w3.org/2000/svg">
<path fill-rule="evenodd" clip-rule="evenodd" d="M12.4762 2.75C9.7261 2.75 7.5119 4.95083 7.5119 7.64706C7.5119 8.10922 7.5766 8.55551 7.69729 8.97813C8.19449 9.12162 8.65991 9.3389 9.08045 9.61709C9.42592 9.84561 9.52072 10.3109 9.29219 10.6564C9.06366 11.0019 8.59835 11.0967 8.25288 10.8681C7.87207 10.6162 7.43917 10.4355 6.9733 10.3451C6.75147 10.3021 6.52165 10.2794 6.28571 10.2794C4.3246 10.2794 2.75 11.8482 2.75 13.7647C2.75 15.6812 4.3246 17.25 6.28571 17.25C6.69993 17.25 7.03571 17.5858 7.03571 18C7.03571 18.4142 6.69993 18.75 6.28571 18.75C3.51296 18.75 1.25 16.5264 1.25 13.7647C1.25 11.0605 3.41987 8.87207 6.11351 8.78228C6.04673 8.41355 6.0119 8.03413 6.0119 7.64706C6.0119 4.10572 8.91446 1.25 12.4762 1.25C15.6343 1.25 18.2724 3.49369 18.8314 6.47127C21.1313 7.44751 22.75 9.70929 22.75 12.3529C22.75 12.7672 22.4142 13.1029 22 13.1029C21.5858 13.1029 21.25 12.7672 21.25 12.3529C21.25 10.2162 19.8607 8.39087 17.9124 7.72463C17.4038 7.55072 16.8568 7.45588 16.2857 7.45588C15.7031 7.45588 15.1455 7.55458 14.6283 7.73526C14.2372 7.87185 13.8095 7.66557 13.6729 7.27453C13.5363 6.88348 13.7426 6.45575 14.1336 6.31916C14.8079 6.08364 15.5326 5.95588 16.2857 5.95588C16.5812 5.95588 16.8723 5.97555 17.1577 6.01367C16.477 4.11631 14.6422 2.75 12.4762 2.75ZM15.8095 12.75C14.1359 12.75 12.8452 14.03 12.8452 15.5294C12.8452 15.7371 12.8694 15.939 12.9152 16.1331C13.2074 16.2276 13.4829 16.3579 13.7359 16.5188C14.0854 16.7411 14.1885 17.2046 13.9662 17.5542C13.7439 17.9037 13.2803 18.0068 12.9308 17.7845C12.7111 17.6447 12.4598 17.5435 12.1879 17.4928C12.0585 17.4687 11.9241 17.4559 11.7857 17.4559C10.6249 17.4559 9.75 18.3408 9.75 19.3529C9.75 20.365 10.6249 21.25 11.7857 21.25H18.2857C19.9594 21.25 21.25 19.97 21.25 18.4706C21.25 17.2796 20.4429 16.2336 19.2665 15.8468C18.9608 15.7463 18.631 15.6912 18.2857 15.6912C17.9335 15.6912 17.5973 15.7486 17.2864 15.853C16.8937 15.9849 16.4685 15.7735 16.3366 15.3808C16.2048 14.9881 16.4162 14.5629 16.8088 14.431C17.2724 14.2753 17.7697 14.1912 18.2857 14.1912C18.3266 14.1912 18.3674 14.1917 18.408 14.1928C17.9093 13.343 16.9463 12.75 15.8095 12.75ZM20.1656 14.5882C19.7141 12.6544 17.9117 11.25 15.8095 11.25C13.3805 11.25 11.3452 13.1303 11.3452 15.5294C11.3452 15.6813 11.3535 15.8314 11.3697 15.9794C9.64083 16.1759 8.25 17.5813 8.25 19.3529C8.25 21.2647 9.86954 22.75 11.7857 22.75H18.2857C20.7147 22.75 22.75 20.8697 22.75 18.4706C22.75 16.7327 21.6761 15.2619 20.1656 14.5882Z" fill="black"/>
</svg>
