<svg width="24" height="24" viewBox="0 0 24 24" fill="none" xmlns="http://www.w3.org/2000/svg">
<path d="M13 18C13 18.5523 12.5523 19 12 19C11.4477 19 11 18.5523 11 18C11 17.4477 11.4477 17 12 17C12.5523 17 13 17.4477 13 18Z" fill="black"/>
<path d="M13 21C13 21.5523 12.5523 22 12 22C11.4477 22 11 21.5523 11 21C11 20.4477 11.4477 20 12 20C12.5523 20 13 20.4477 13 21Z" fill="black"/>
<path d="M16 19.5C16 20.0523 15.5523 20.5 15 20.5C14.4477 20.5 14 20.0523 14 19.5C14 18.9477 14.4477 18.5 15 18.5C15.5523 18.5 16 18.9477 16 19.5Z" fill="black"/>
<path d="M16 16.5C16 17.0523 15.5523 17.5 15 17.5C14.4477 17.5 14 17.0523 14 16.5C14 15.9477 14.4477 15.5 15 15.5C15.5523 15.5 16 15.9477 16 16.5Z" fill="black"/>
<path d="M10 19.5C10 20.0523 9.55228 20.5 9 20.5C8.44772 20.5 8 20.0523 8 19.5C8 18.9477 8.44772 18.5 9 18.5C9.55228 18.5 10 18.9477 10 19.5Z" fill="black"/>
<path d="M10 16.5C10 17.0523 9.55228 17.5 9 17.5C8.44772 17.5 8 17.0523 8 16.5C8 15.9477 8.44772 15.5 9 15.5C9.55228 15.5 10 15.9477 10 16.5Z" fill="black"/>
<path fill-rule="evenodd" clip-rule="evenodd" d="M12.4762 3.75C9.7261 3.75 7.5119 5.95083 7.5119 8.64706C7.5119 9.10922 7.5766 9.55551 7.69729 9.97813C8.19449 10.1216 8.65991 10.3389 9.08045 10.6171C9.42592 10.8456 9.52072 11.3109 9.29219 11.6564C9.06366 12.0019 8.59835 12.0967 8.25288 11.8681C7.87207 11.6162 7.43917 11.4355 6.97329 11.3451C6.75148 11.3021 6.52165 11.2794 6.28571 11.2794C4.3246 11.2794 2.75 12.8482 2.75 14.7647C2.75 16.6812 4.3246 18.25 6.28571 18.25C6.69993 18.25 7.03571 18.5858 7.03571 19C7.03571 19.4142 6.69993 19.75 6.28571 19.75C3.51296 19.75 1.25 17.5264 1.25 14.7647C1.25 12.0605 3.41987 9.87207 6.11351 9.78228C6.04673 9.41355 6.0119 9.03413 6.0119 8.64706C6.0119 5.10572 8.91446 2.25 12.4762 2.25C15.6343 2.25 18.2724 4.49369 18.8314 7.47127C21.1313 8.44751 22.75 10.7093 22.75 13.3529C22.75 16.4269 20.5623 18.9843 17.6568 19.6057C17.2518 19.6923 16.8532 19.4341 16.7666 19.0291C16.68 18.624 16.9381 18.2254 17.3432 18.1388C19.5829 17.6598 21.25 15.693 21.25 13.3529C21.25 11.2162 19.8607 9.39087 17.9124 8.72463C17.4038 8.55072 16.8568 8.45588 16.2857 8.45588C15.7031 8.45588 15.1455 8.55458 14.6283 8.73526C14.2372 8.87185 13.8095 8.66557 13.6729 8.27453C13.5363 7.88348 13.7426 7.45575 14.1336 7.31916C14.8079 7.08364 15.5326 6.95588 16.2857 6.95588C16.5812 6.95588 16.8723 6.97555 17.1577 7.01367C16.477 5.11631 14.6422 3.75 12.4762 3.75Z" fill="black"/>
</svg>
