<svg width="24" height="24" viewBox="0 0 24 24" fill="none" xmlns="http://www.w3.org/2000/svg">
<path fill-rule="evenodd" clip-rule="evenodd" d="M12.0303 14.9697C12.3232 15.2626 12.3232 15.7374 12.0303 16.0303L10.0303 18.0303C9.73744 18.3232 9.26256 18.3232 8.96967 18.0303C8.67678 17.7374 8.67678 17.2626 8.96967 16.9697L10.9697 14.9697C11.2626 14.6768 11.7374 14.6768 12.0303 14.9697ZM16.5303 14.9697C16.8232 15.2626 16.8232 15.7374 16.5303 16.0303L14.5303 18.0303C14.2374 18.3232 13.7626 18.3232 13.4697 18.0303C13.1768 17.7374 13.1768 17.2626 13.4697 16.9697L15.4697 14.9697C15.7626 14.6768 16.2374 14.6768 16.5303 14.9697ZM8.03033 18.4697C8.32322 18.7626 8.32322 19.2374 8.03033 19.5303L6.03033 21.5303C5.73744 21.8232 5.26256 21.8232 4.96967 21.5303C4.67678 21.2374 4.67678 20.7626 4.96967 20.4697L6.96967 18.4697C7.26256 18.1768 7.73744 18.1768 8.03033 18.4697ZM17.5303 18.4697C17.8232 18.7626 17.8232 19.2374 17.5303 19.5303L15.5303 21.5303C15.2374 21.8232 14.7626 21.8232 14.4697 21.5303C14.1768 21.2374 14.1768 20.7626 14.4697 20.4697L16.4697 18.4697C16.7626 18.1768 17.2374 18.1768 17.5303 18.4697ZM12.5303 19.4697C12.8232 19.7626 12.8232 20.2374 12.5303 20.5303L10.5303 22.5303C10.2374 22.8232 9.76256 22.8232 9.46967 22.5303C9.17678 22.2374 9.17678 21.7626 9.46967 21.4697L11.4697 19.4697C11.7626 19.1768 12.2374 19.1768 12.5303 19.4697Z" fill="black"/>
<path d="M12.4762 3.75C9.7261 3.75 7.5119 5.95083 7.5119 8.64706C7.5119 9.10922 7.5766 9.55551 7.69729 9.97813C8.19449 10.1216 8.65991 10.3389 9.08045 10.6171C9.42592 10.8456 9.52072 11.3109 9.29219 11.6564C9.06366 12.0019 8.59835 12.0967 8.25288 11.8681C7.87207 11.6162 7.43917 11.4355 6.9733 11.3451C6.75147 11.3021 6.52165 11.2794 6.28571 11.2794C4.3246 11.2794 2.75 12.8482 2.75 14.7647C2.75 15.839 3.24244 16.8014 4.02325 17.4432C4.34325 17.7062 4.38946 18.1788 4.12646 18.4988C3.86345 18.8188 3.39083 18.865 3.07083 18.602C1.96112 17.69 1.25 16.3103 1.25 14.7647C1.25 12.0605 3.41987 9.87207 6.11351 9.78228C6.04673 9.41355 6.0119 9.03413 6.0119 8.64706C6.0119 5.10572 8.91446 2.25 12.4762 2.25C15.6343 2.25 18.2724 4.49369 18.8314 7.47127C21.1313 8.44751 22.75 10.7093 22.75 13.3529C22.75 15.5563 21.6241 17.4962 19.919 18.6446C19.5754 18.876 19.1093 18.7851 18.8779 18.4416C18.6465 18.098 18.7375 17.6319 19.081 17.4005C20.3941 16.5161 21.25 15.0315 21.25 13.3529C21.25 11.2162 19.8607 9.39087 17.9124 8.72463C17.4038 8.55072 16.8568 8.45588 16.2857 8.45588C15.7031 8.45588 15.1455 8.55458 14.6283 8.73526C14.2372 8.87185 13.8095 8.66557 13.6729 8.27453C13.5363 7.88348 13.7426 7.45575 14.1336 7.31916C14.8079 7.08364 15.5326 6.95588 16.2857 6.95588C16.5812 6.95588 16.8723 6.97555 17.1577 7.01367C16.477 5.11631 14.6422 3.75 12.4762 3.75Z" fill="black"/>
</svg>
