<svg width="24" height="24" viewBox="0 0 24 24" fill="none" xmlns="http://www.w3.org/2000/svg">
<path fill-rule="evenodd" clip-rule="evenodd" d="M7.5 1.25C7.91421 1.25 8.25 1.58579 8.25 2V2.5C8.25 2.91421 7.91421 3.25 7.5 3.25C7.08579 3.25 6.75 2.91421 6.75 2.5V2C6.75 1.58579 7.08579 1.25 7.5 1.25ZM3.08086 3.08059C3.37375 2.78769 3.84862 2.78769 4.14152 3.08059L4.35758 3.29665C4.65047 3.58954 4.65047 4.06441 4.35758 4.35731C4.06468 4.6502 3.58981 4.6502 3.29692 4.35731L3.08086 4.14125C2.78796 3.84835 2.78796 3.37348 3.08086 3.08059ZM11.919 3.08073C12.2119 3.37362 12.2119 3.8485 11.919 4.14139L11.7029 4.35745C11.41 4.65034 10.9352 4.65034 10.6423 4.35745C10.3494 4.06456 10.3494 3.58968 10.6423 3.29679L10.8583 3.08073C11.1512 2.78784 11.6261 2.78784 11.919 3.08073ZM8 5.25C7.41473 5.25 6.87421 5.43199 6.42907 5.74248C6.30317 5.83031 6.18487 5.92844 6.07543 6.03568C5.56518 6.53569 5.25 7.23036 5.25 8C5.25 8.83258 5.61998 9.57961 6.20595 10.0844C6.68157 8.2083 7.99393 6.66418 9.72404 5.85738C9.67438 5.81735 9.62331 5.77903 9.57093 5.74248C9.12579 5.43199 8.58527 5.25 8 5.25ZM11.324 5.35144C11.2154 5.21529 11.0986 5.08601 10.9744 4.96432C10.8058 4.79908 10.6234 4.64776 10.4291 4.51221C9.74038 4.03182 8.90198 3.75 8 3.75C7.09802 3.75 6.25962 4.03182 5.57093 4.51221C5.3766 4.64776 5.19421 4.79908 5.02558 4.96432C4.23928 5.73483 3.75 6.81095 3.75 8C3.75 9.63052 4.66823 11.0452 6.01285 11.7576C6.01884 12.1064 6.0531 12.4487 6.11351 12.7823C3.41987 12.8721 1.25 15.0605 1.25 17.7647C1.25 20.5264 3.51296 22.75 6.28571 22.75H16.2857C19.8474 22.75 22.75 19.8943 22.75 16.3529C22.75 13.7093 21.1313 11.4475 18.8314 10.4713C18.2724 7.49369 15.6343 5.25 12.4762 5.25C12.0831 5.25 11.698 5.28479 11.324 5.35144ZM17.1577 10.0137C16.477 8.11631 14.6422 6.75 12.4762 6.75C9.7261 6.75 7.5119 8.95083 7.5119 11.6471C7.5119 12.1092 7.5766 12.5555 7.69729 12.9781C8.19448 13.1216 8.65991 13.3389 9.08045 13.6171C9.42592 13.8456 9.52072 14.3109 9.29219 14.6564C9.06366 15.0019 8.59835 15.0967 8.25288 14.8681C7.87207 14.6162 7.43917 14.4355 6.97329 14.3451C6.75147 14.3021 6.52165 14.2794 6.28571 14.2794C4.3246 14.2794 2.75 15.8482 2.75 17.7647C2.75 19.6812 4.3246 21.25 6.28571 21.25H16.2857C19.0358 21.25 21.25 19.0492 21.25 16.3529C21.25 14.2162 19.8607 12.3909 17.9124 11.7246C17.4038 11.5507 16.8568 11.4559 16.2857 11.4559C15.7031 11.4559 15.1455 11.5546 14.6283 11.7353C14.2372 11.8718 13.8095 11.6656 13.6729 11.2745C13.5363 10.8835 13.7426 10.4557 14.1336 10.3192C14.8079 10.0836 15.5326 9.95588 16.2857 9.95588C16.5812 9.95588 16.8723 9.97555 17.1577 10.0137ZM1.25 7.5C1.25 7.08579 1.58579 6.75 2 6.75H2.5C2.91421 6.75 3.25 7.08579 3.25 7.5C3.25 7.91421 2.91421 8.25 2.5 8.25H2C1.58579 8.25 1.25 7.91421 1.25 7.5ZM4.35758 10.6427C4.65047 10.9356 4.65047 11.4105 4.35758 11.7034L4.14152 11.9194C3.84862 12.2123 3.37375 12.2123 3.08086 11.9194C2.78796 11.6265 2.78796 11.1516 3.08086 10.8588L3.29692 10.6427C3.58981 10.3498 4.06468 10.3498 4.35758 10.6427Z" fill="black"/>
</svg>
