<svg width="24" height="24" viewBox="0 0 24 24" fill="none" xmlns="http://www.w3.org/2000/svg">
<path fill-rule="evenodd" clip-rule="evenodd" d="M12.4762 3.75C9.7261 3.75 7.5119 5.95083 7.5119 8.64706C7.5119 9.10922 7.5766 9.55551 7.69729 9.97813C8.19449 10.1216 8.65991 10.3389 9.08045 10.6171C9.42592 10.8456 9.52072 11.3109 9.29219 11.6564C9.06366 12.0019 8.59835 12.0967 8.25288 11.8681C7.87207 11.6162 7.43917 11.4355 6.9733 11.3451C6.75147 11.3021 6.52165 11.2794 6.28571 11.2794C4.3246 11.2794 2.75 12.8482 2.75 14.7647C2.75 16.3183 3.78357 17.6432 5.22233 18.0898C5.61792 18.2126 5.83908 18.6328 5.71629 19.0284C5.5935 19.424 5.17327 19.6452 4.77767 19.5224C2.73891 18.8896 1.25 17.0039 1.25 14.7647C1.25 12.0605 3.41987 9.87207 6.11351 9.78228C6.04673 9.41355 6.0119 9.03413 6.0119 8.64706C6.0119 5.10572 8.91446 2.25 12.4762 2.25C15.6343 2.25 18.2724 4.49369 18.8314 7.47127C21.1313 8.44751 22.75 10.7093 22.75 13.3529C22.75 16.0133 21.1103 18.2874 18.7879 19.2529C18.4055 19.4119 17.9665 19.2308 17.8075 18.8483C17.6485 18.4658 17.8296 18.0269 18.2121 17.8679C20.0022 17.1236 21.25 15.3783 21.25 13.3529C21.25 11.2162 19.8607 9.39087 17.9124 8.72463C17.4038 8.55072 16.8568 8.45588 16.2857 8.45588C15.7031 8.45588 15.1455 8.55458 14.6283 8.73526C14.2372 8.87185 13.8095 8.66557 13.6729 8.27453C13.5363 7.88348 13.7426 7.45575 14.1336 7.31916C14.8079 7.08364 15.5326 6.95588 16.2857 6.95588C16.5812 6.95588 16.8723 6.97555 17.1577 7.01367C16.477 5.11631 14.6422 3.75 12.4762 3.75ZM12 14.1345C11.9822 14.1345 11.9585 14.1407 11.9338 14.1702C11.7451 14.3956 11.5612 14.6423 11.4281 14.8757C11.2845 15.1277 11.25 15.2784 11.25 15.3333C11.25 15.9159 11.6582 16.25 12 16.25C12.3418 16.25 12.75 15.9159 12.75 15.3333C12.75 15.2784 12.7155 15.1277 12.5719 14.8757C12.4388 14.6423 12.2549 14.3956 12.0662 14.1702C12.0415 14.1407 12.0178 14.1345 12 14.1345ZM10.7836 13.2073C11.423 12.4436 12.577 12.4436 13.2164 13.2073C13.4352 13.4687 13.6806 13.7918 13.875 14.1328C14.0589 14.4553 14.25 14.8834 14.25 15.3333C14.25 16.5917 13.315 17.75 12 17.75C10.685 17.75 9.75 16.5917 9.75 15.3333C9.75 14.8834 9.94115 14.4553 10.125 14.1328C10.3194 13.7918 10.5648 13.4687 10.7836 13.2073ZM9.5 19.1345C9.4822 19.1345 9.45851 19.1407 9.43379 19.1702C9.2451 19.3956 9.06117 19.6423 8.92809 19.8757C8.78446 20.1277 8.75 20.2784 8.75 20.3333C8.75 20.9159 9.15816 21.25 9.5 21.25C9.84184 21.25 10.25 20.9159 10.25 20.3333C10.25 20.2784 10.2155 20.1277 10.0719 19.8757C9.93883 19.6423 9.7549 19.3956 9.56621 19.1702C9.54149 19.1407 9.5178 19.1345 9.5 19.1345ZM8.28363 18.2073C8.92302 17.4436 10.077 17.4436 10.7164 18.2073C10.9352 18.4687 11.1806 18.7918 11.375 19.1328C11.5589 19.4553 11.75 19.8834 11.75 20.3333C11.75 21.5917 10.815 22.75 9.5 22.75C8.18498 22.75 7.25 21.5917 7.25 20.3333C7.25 19.8834 7.44115 19.4553 7.62501 19.1328C7.81941 18.7918 8.06482 18.4687 8.28363 18.2073ZM14.5 19.1345C14.4822 19.1345 14.4585 19.1407 14.4338 19.1702C14.2451 19.3956 14.0612 19.6423 13.9281 19.8757C13.7845 20.1277 13.75 20.2784 13.75 20.3333C13.75 20.9159 14.1582 21.25 14.5 21.25C14.8418 21.25 15.25 20.9159 15.25 20.3333C15.25 20.2784 15.2155 20.1277 15.0719 19.8757C14.9388 19.6423 14.7549 19.3956 14.5662 19.1702C14.5415 19.1407 14.5178 19.1345 14.5 19.1345ZM13.2836 18.2073C13.923 17.4436 15.077 17.4436 15.7164 18.2073C15.9352 18.4687 16.1806 18.7918 16.375 19.1328C16.5589 19.4553 16.75 19.8834 16.75 20.3333C16.75 21.5917 15.815 22.75 14.5 22.75C13.185 22.75 12.25 21.5917 12.25 20.3333C12.25 19.8834 12.4411 19.4553 12.625 19.1328C12.8194 18.7918 13.0648 18.4687 13.2836 18.2073Z" fill="black"/>
</svg>
