<svg width="24" height="24" viewBox="0 0 24 24" fill="none" xmlns="http://www.w3.org/2000/svg">
<path fill-rule="evenodd" clip-rule="evenodd" d="M11.0174 2.80157C6.37072 3.29221 2.75 7.22328 2.75 12C2.75 12.9681 2.89847 13.9001 3.17334 14.7753C3.29746 15.1704 3.07772 15.5914 2.68254 15.7155C2.28736 15.8397 1.86638 15.6199 1.74227 15.2247C1.42224 14.2058 1.25 13.1223 1.25 12C1.25 6.06294 6.06294 1.25 12 1.25C12.7166 1.25 13.0754 1.82126 13.1368 2.27627C13.196 2.71398 13.0342 3.27065 12.531 3.57467C10.8627 4.5828 9.75 6.41182 9.75 8.5C9.75 8.91421 9.41421 9.25 9 9.25C8.58579 9.25 8.25 8.91421 8.25 8.5C8.25 6.18738 9.33315 4.1283 11.0174 2.80157ZM21.1984 12.9826C20.881 15.9896 19.123 18.5677 16.6245 20.013C16.2659 20.2204 16.1434 20.6792 16.3508 21.0377C16.5582 21.3963 17.017 21.5188 17.3755 21.3114C20.5868 19.4538 22.75 15.98 22.75 12C22.75 11.2834 22.1787 10.9246 21.7237 10.8632C21.286 10.804 20.7293 10.9658 20.4253 11.469C19.4172 13.1373 17.5882 14.25 15.5 14.25C15.0858 14.25 14.75 14.5858 14.75 15C14.75 15.4142 15.0858 15.75 15.5 15.75C17.8126 15.75 19.8717 14.6668 21.1984 12.9826ZM8.80952 12.75C7.13585 12.75 5.84524 14.03 5.84524 15.5294C5.84524 15.7371 5.86941 15.939 5.91523 16.1331C6.20739 16.2276 6.48289 16.3579 6.73585 16.5188C7.08536 16.7411 7.18847 17.2046 6.96617 17.5542C6.74386 17.9037 6.28032 18.0068 5.93081 17.7845C5.71105 17.6447 5.45983 17.5435 5.18795 17.4928C5.05852 17.4687 4.92409 17.4559 4.78571 17.4559C3.62488 17.4559 2.75 18.3408 2.75 19.3529C2.75 20.365 3.62488 21.25 4.78571 21.25H11.2857C12.9594 21.25 14.25 19.97 14.25 18.4706C14.25 17.2796 13.4429 16.2336 12.2665 15.8468C11.9608 15.7463 11.631 15.6912 11.2857 15.6912C10.9335 15.6912 10.5973 15.7486 10.2864 15.853C9.89374 15.9849 9.46852 15.7735 9.33665 15.3808C9.20477 14.9881 9.41617 14.5629 9.80883 14.431C10.2724 14.2753 10.7697 14.1912 11.2857 14.1912C11.3266 14.1912 11.3674 14.1917 11.408 14.1928C10.9093 13.343 9.94635 12.75 8.80952 12.75ZM13.1656 14.5882C12.7141 12.6544 10.9117 11.25 8.80952 11.25C6.38051 11.25 4.34524 13.1303 4.34524 15.5294C4.34524 15.6813 4.35352 15.8314 4.36968 15.9794C2.64083 16.1759 1.25 17.5813 1.25 19.3529C1.25 21.2647 2.86954 22.75 4.78571 22.75H11.2857C13.7147 22.75 15.75 20.8697 15.75 18.4706C15.75 16.7327 14.6761 15.2619 13.1656 14.5882Z" fill="black"/>
</svg>
