<svg width="24" height="24" viewBox="0 0 24 24" fill="none" xmlns="http://www.w3.org/2000/svg">
<path fill-rule="evenodd" clip-rule="evenodd" d="M12.4762 3.75C9.7261 3.75 7.5119 5.95083 7.5119 8.64706C7.5119 9.10922 7.5766 9.55551 7.69729 9.97813C8.19449 10.1216 8.65991 10.3389 9.08045 10.6171C9.42592 10.8456 9.52072 11.3109 9.29219 11.6564C9.06366 12.0019 8.59835 12.0967 8.25288 11.8681C7.87207 11.6162 7.43917 11.4355 6.9733 11.3451C6.75147 11.3021 6.52165 11.2794 6.28571 11.2794C4.3246 11.2794 2.75 12.8482 2.75 14.7647C2.75 16.6812 4.3246 18.25 6.28571 18.25C6.69993 18.25 7.03571 18.5858 7.03571 19C7.03571 19.4142 6.69993 19.75 6.28571 19.75C3.51296 19.75 1.25 17.5264 1.25 14.7647C1.25 12.0605 3.41987 9.87207 6.11351 9.78228C6.04673 9.41355 6.0119 9.03413 6.0119 8.64706C6.0119 5.10572 8.91446 2.25 12.4762 2.25C15.6343 2.25 18.2724 4.49369 18.8314 7.47127C21.1313 8.44751 22.75 10.7093 22.75 13.3529C22.75 16.4269 20.5623 18.9843 17.6568 19.6057C17.2518 19.6923 16.8532 19.4341 16.7666 19.0291C16.68 18.624 16.9381 18.2254 17.3432 18.1388C19.5829 17.6598 21.25 15.693 21.25 13.3529C21.25 11.2162 19.8607 9.39087 17.9124 8.72463C17.4038 8.55072 16.8568 8.45588 16.2857 8.45588C15.7031 8.45588 15.1455 8.55458 14.6283 8.73526C14.2372 8.87185 13.8095 8.66557 13.6729 8.27453C13.5363 7.88348 13.7426 7.45575 14.1336 7.31916C14.8079 7.08364 15.5326 6.95588 16.2857 6.95588C16.5812 6.95588 16.8723 6.97555 17.1577 7.01367C16.477 5.11631 14.6422 3.75 12.4762 3.75ZM12.6662 16.6465C12.2939 16.2631 11.7061 16.2631 11.3338 16.6465C10.9324 17.06 10.5184 17.5347 10.2096 17.9992C9.88415 18.4887 9.75 18.8578 9.75 19.0833C9.75 20.2602 10.7373 21.25 12 21.25C13.2627 21.25 14.25 20.2602 14.25 19.0833C14.25 18.8578 14.1158 18.4887 13.7904 17.9992C13.4816 17.5347 13.0676 17.06 12.6662 16.6465ZM10.2577 15.6016C11.2191 14.6114 12.7809 14.6114 13.7423 15.6016C14.1752 16.0474 14.6591 16.5965 15.0396 17.1688C15.4034 17.7161 15.75 18.397 15.75 19.0833C15.75 21.1282 14.051 22.75 12 22.75C9.94899 22.75 8.25 21.1282 8.25 19.0833C8.25 18.397 8.59657 17.7161 8.96044 17.1688C9.3409 16.5965 9.8248 16.0474 10.2577 15.6016Z" fill="black"/>
</svg>
