<svg width="24" height="24" viewBox="0 0 24 24" fill="none" xmlns="http://www.w3.org/2000/svg">
<path fill-rule="evenodd" clip-rule="evenodd" d="M12.4762 3.75C9.7261 3.75 7.5119 5.95083 7.5119 8.64706C7.5119 9.10922 7.5766 9.55551 7.69729 9.97813C8.19449 10.1216 8.65991 10.3389 9.08045 10.6171C9.42592 10.8456 9.52072 11.3109 9.29219 11.6564C9.06366 12.0019 8.59835 12.0967 8.25288 11.8681C7.87207 11.6162 7.43917 11.4355 6.9733 11.3451C6.75147 11.3021 6.52165 11.2794 6.28571 11.2794C4.3246 11.2794 2.75 12.8482 2.75 14.7647C2.75 15.839 3.24244 16.8014 4.02325 17.4432C4.34325 17.7062 4.38946 18.1788 4.12646 18.4988C3.86345 18.8188 3.39083 18.865 3.07083 18.602C1.96112 17.69 1.25 16.3103 1.25 14.7647C1.25 12.0605 3.41987 9.87207 6.11351 9.78228C6.04673 9.41355 6.0119 9.03413 6.0119 8.64706C6.0119 5.10572 8.91446 2.25 12.4762 2.25C15.6343 2.25 18.2724 4.49369 18.8314 7.47127C21.1313 8.44751 22.75 10.7093 22.75 13.3529C22.75 15.5563 21.6241 17.4962 19.919 18.6446C19.5754 18.876 19.1093 18.7851 18.8779 18.4416C18.6465 18.098 18.7375 17.6319 19.081 17.4005C20.3941 16.5161 21.25 15.0315 21.25 13.3529C21.25 11.2162 19.8607 9.39087 17.9124 8.72463C17.4038 8.55072 16.8568 8.45588 16.2857 8.45588C15.7031 8.45588 15.1455 8.55458 14.6283 8.73526C14.2372 8.87185 13.8095 8.66557 13.6729 8.27453C13.5363 7.88348 13.7426 7.45575 14.1336 7.31916C14.8079 7.08364 15.5326 6.95588 16.2857 6.95588C16.5812 6.95588 16.8723 6.97555 17.1577 7.01367C16.477 5.11631 14.6422 3.75 12.4762 3.75ZM10.8539 14.5104C11.1243 14.8242 11.0891 15.2978 10.7753 15.5682L8.01947 17.9426H10.2857C10.5992 17.9426 10.8797 18.1376 10.9888 18.4315C11.0979 18.7254 11.0128 19.0562 10.7752 19.2608L6.48953 22.9531C6.17572 23.2235 5.70215 23.1883 5.43179 22.8745C5.16143 22.5606 5.19666 22.0871 5.51047 21.8167L8.26612 19.4426H6C5.6865 19.4426 5.40607 19.2476 5.29692 18.9537C5.18777 18.6598 5.27294 18.3291 5.51044 18.1244L9.79616 14.4318C10.11 14.1614 10.5835 14.1966 10.8539 14.5104ZM15.5303 14.9697C15.8232 15.2626 15.8232 15.7374 15.5303 16.0303L13.5303 18.0303C13.2374 18.3232 12.7626 18.3232 12.4697 18.0303C12.1768 17.7374 12.1768 17.2626 12.4697 16.9697L14.4697 14.9697C14.7626 14.6768 15.2374 14.6768 15.5303 14.9697ZM17.5303 18.4697C17.8232 18.7626 17.8232 19.2374 17.5303 19.5303L15.5303 21.5303C15.2374 21.8232 14.7626 21.8232 14.4697 21.5303C14.1768 21.2374 14.1768 20.7626 14.4697 20.4697L16.4697 18.4697C16.7626 18.1768 17.2374 18.1768 17.5303 18.4697ZM13.5303 19.4697C13.8232 19.7626 13.8232 20.2374 13.5303 20.5303L11.5303 22.5303C11.2374 22.8232 10.7626 22.8232 10.4697 22.5303C10.1768 22.2374 10.1768 21.7626 10.4697 21.4697L12.4697 19.4697C12.7626 19.1768 13.2374 19.1768 13.5303 19.4697Z" fill="black"/>
<path d="M12.4762 3.75C9.7261 3.75 7.5119 5.95083 7.5119 8.64706C7.5119 9.10922 7.5766 9.55551 7.69729 9.97813C8.19449 10.1216 8.65991 10.3389 9.08045 10.6171C9.42592 10.8456 9.52072 11.3109 9.29219 11.6564C9.06366 12.0019 8.59835 12.0967 8.25288 11.8681C7.87207 11.6162 7.43917 11.4355 6.9733 11.3451C6.75147 11.3021 6.52165 11.2794 6.28571 11.2794C4.3246 11.2794 2.75 12.8482 2.75 14.7647C2.75 15.839 3.24244 16.8014 4.02325 17.4432C4.34325 17.7062 4.38946 18.1788 4.12646 18.4988C3.86345 18.8188 3.39083 18.865 3.07083 18.602C1.96112 17.69 1.25 16.3103 1.25 14.7647C1.25 12.0605 3.41987 9.87207 6.11351 9.78228C6.04673 9.41355 6.0119 9.03413 6.0119 8.64706C6.0119 5.10572 8.91446 2.25 12.4762 2.25C15.6343 2.25 18.2724 4.49369 18.8314 7.47127C21.1313 8.44751 22.75 10.7093 22.75 13.3529C22.75 15.5563 21.6241 17.4962 19.919 18.6446C19.5754 18.876 19.1093 18.7851 18.8779 18.4416C18.6465 18.098 18.7375 17.6319 19.081 17.4005C20.3941 16.5161 21.25 15.0315 21.25 13.3529C21.25 11.2162 19.8607 9.39087 17.9124 8.72463C17.4038 8.55072 16.8568 8.45588 16.2857 8.45588C15.7031 8.45588 15.1455 8.55458 14.6283 8.73526C14.2372 8.87185 13.8095 8.66557 13.6729 8.27453C13.5363 7.88348 13.7426 7.45575 14.1336 7.31916C14.8079 7.08364 15.5326 6.95588 16.2857 6.95588C16.5812 6.95588 16.8723 6.97555 17.1577 7.01367C16.477 5.11631 14.6422 3.75 12.4762 3.75Z" fill="black"/>
</svg>
