<svg width="24" height="24" viewBox="0 0 24 24" fill="none" xmlns="http://www.w3.org/2000/svg">
<path fill-rule="evenodd" clip-rule="evenodd" d="M20.3655 2.12433C20.0384 1.29189 18.8624 1.29189 18.5353 2.12433L18.1073 3.21354L17.0227 3.6429C16.1933 3.97121 16.1933 5.14713 17.0227 5.47544L18.1073 5.90481L18.5353 6.99401C18.8624 7.82645 20.0384 7.82646 20.3655 6.99402L20.7935 5.90481L21.8781 5.47544C22.7075 5.14714 22.7075 3.97121 21.8781 3.6429L20.7935 3.21354L20.3655 2.12433ZM19.4504 2.52989L19.8651 3.58533C19.9648 3.83891 20.165 4.04027 20.4188 4.14073L21.4759 4.55917L20.4188 4.97762C20.165 5.07808 19.9648 5.27943 19.8651 5.53301L19.4504 6.58846L19.0357 5.53301C18.936 5.27943 18.7358 5.07808 18.482 4.97762L17.4249 4.55917L18.482 4.14073C18.7358 4.04027 18.936 3.83891 19.0357 3.58533L19.4504 2.52989ZM16.4981 7.94681C16.171 7.11437 14.9951 7.11437 14.668 7.94681L14.5134 8.34008L14.1222 8.49497C13.2928 8.82328 13.2928 9.9992 14.1222 10.3275L14.5134 10.4824L14.668 10.8757C14.9951 11.7081 16.171 11.7081 16.4981 10.8757L16.6526 10.4824L17.0439 10.3275C17.8733 9.9992 17.8733 8.82328 17.0439 8.49497L16.6526 8.34008L16.4981 7.94681ZM15.583 8.35237L15.7243 8.71188C15.824 8.96545 16.0242 9.16681 16.278 9.26727L16.6417 9.41124L16.278 9.55521C16.0242 9.65567 15.824 9.85703 15.7243 10.1106L15.583 10.4701L15.4418 10.1106C15.3421 9.85703 15.1419 9.65567 14.8881 9.55521L14.5244 9.41124L14.8881 9.26727C15.1419 9.16681 15.3421 8.96545 15.4418 8.71188L15.583 8.35237Z" fill="black"/>
<path fill-rule="evenodd" clip-rule="evenodd" d="M11.0174 2.80157C6.37072 3.29221 2.75 7.22328 2.75 12C2.75 17.1086 6.89137 21.25 12 21.25C16.7767 21.25 20.7078 17.6293 21.1984 12.9826C19.8717 14.6669 17.8126 15.75 15.5 15.75C11.4959 15.75 8.25 12.5041 8.25 8.5C8.25 6.18738 9.33315 4.1283 11.0174 2.80157ZM1.25 12C1.25 6.06294 6.06294 1.25 12 1.25C12.7166 1.25 13.0754 1.82126 13.1368 2.27627C13.196 2.71398 13.0342 3.27065 12.531 3.57467C10.8627 4.5828 9.75 6.41182 9.75 8.5C9.75 11.6756 12.3244 14.25 15.5 14.25C17.5882 14.25 19.4172 13.1373 20.4253 11.469C20.7293 10.9658 21.286 10.804 21.7237 10.8632C22.1787 10.9246 22.75 11.2834 22.75 12C22.75 17.9371 17.9371 22.75 12 22.75C6.06294 22.75 1.25 17.9371 1.25 12Z" fill="black"/>
</svg>
