<svg width="24" height="24" viewBox="0 0 24 24" fill="none" xmlns="http://www.w3.org/2000/svg">
<path d="M18.2612 13.4823L18.7915 12.9519L18.2612 13.4823ZM10.5177 5.73885L9.98742 6.26918L10.5177 5.73885ZM13.6151 2.64148L13.0848 3.17181L13.6151 2.64148ZM21.3585 10.3849L21.8888 9.85456L21.3585 10.3849ZM1.46967 21.4697C1.17678 21.7626 1.17678 22.2374 1.46967 22.5303C1.76256 22.8232 2.23744 22.8232 2.53033 22.5303L1.46967 21.4697ZM4.55227 19.4477L4.02194 18.9174L4.02194 18.9174L4.55227 19.4477ZM4.767 18.2052L4.08919 18.5263L4.08919 18.5263L4.767 18.2052ZM3.81775 16.2012L3.13994 16.5223L3.13994 16.5223L3.81775 16.2012ZM4.6061 15.5046L4.20405 16.1377L4.20405 16.1377L4.6061 15.5046ZM11.3132 19.7639L11.7152 19.1307L11.7152 19.1307L11.3132 19.7639ZM12.0559 18.9886L11.4406 19.4174L11.4406 19.4174L12.0559 18.9886ZM6.46344 10.9646L5.84814 11.3934L5.84814 11.3934L6.46344 10.9646ZM7.22572 10.2023L7.65457 9.58699L7.65457 9.58699L7.22572 10.2023ZM12.7735 14.0689L12.3446 14.6842L12.3446 14.6842L12.7735 14.0689ZM13.5529 13.3327L12.9141 13.7258L12.9141 13.7258L13.5529 13.3327ZM12.9069 12.2831L13.5457 11.89L13.5457 11.89L12.9069 12.2831ZM14.9198 10.1409C15.2127 9.84799 15.2127 9.37311 14.9198 9.08022C14.6269 8.78733 14.152 8.78733 13.8591 9.08022L14.9198 10.1409ZM21.8888 9.85456L14.1454 2.11115L13.0848 3.17181L20.8282 10.9152L21.8888 9.85456ZM9.98742 6.26918L17.7308 14.0126L18.7915 12.9519L11.0481 5.20852L9.98742 6.26918ZM17.7308 14.0126C18.879 15.1608 20.7406 15.1608 21.8888 14.0126L20.8282 12.9519C20.2658 13.5143 19.3539 13.5143 18.7915 12.9519L17.7308 14.0126ZM9.98742 2.11115C8.83921 3.25936 8.83921 5.12097 9.98742 6.26918L11.0481 5.20852C10.4857 4.6461 10.4857 3.73423 11.0481 3.17181L9.98742 2.11115ZM14.1454 2.11115C12.9972 0.962948 11.1356 0.962948 9.98742 2.11115L11.0481 3.17181C11.6105 2.6094 12.5224 2.6094 13.0848 3.17181L14.1454 2.11115ZM20.8282 10.9152C21.3906 11.4776 21.3906 12.3895 20.8282 12.9519L21.8888 14.0126C23.0371 12.8644 23.0371 11.0028 21.8888 9.85456L20.8282 10.9152ZM2.53033 22.5303L5.0826 19.9781L4.02194 18.9174L1.46967 21.4697L2.53033 22.5303ZM5.4448 17.8841L4.49555 15.8802L3.13994 16.5223L4.08919 18.5263L5.4448 17.8841ZM4.20405 16.1377L10.9111 20.397L11.7152 19.1307L5.00816 14.8715L4.20405 16.1377ZM12.6712 18.5597L7.07874 10.5357L5.84814 11.3934L11.4406 19.4174L12.6712 18.5597ZM6.79688 10.8176L12.3446 14.6842L13.2023 13.4536L7.65457 9.58699L6.79688 10.8176ZM14.1916 12.9397L13.5457 11.89L12.2682 12.6761L12.9141 13.7258L14.1916 12.9397ZM13.5955 11.4651L14.9198 10.1409L13.8591 9.08022L12.5349 10.4045L13.5955 11.4651ZM13.5457 11.89C13.4619 11.7539 13.4826 11.5781 13.5955 11.4651L12.5349 10.4045C11.9307 11.0086 11.8204 11.9485 12.2682 12.6761L13.5457 11.89ZM12.3446 14.6842C13.499 15.4887 14.929 14.138 14.1916 12.9397L12.9141 13.7258C12.8971 13.6982 12.8811 13.644 12.8916 13.5822C12.9007 13.5291 12.9252 13.4936 12.9475 13.4725C12.9699 13.4514 13.0067 13.429 13.0602 13.423C13.1226 13.4159 13.1757 13.435 13.2023 13.4536L12.3446 14.6842ZM7.07874 10.5357C7.0968 10.5616 7.11677 10.6165 7.10832 10.6815C7.10113 10.7367 7.07711 10.7733 7.0558 10.7947C7.03449 10.816 6.99789 10.84 6.94266 10.8472C6.87765 10.8556 6.82279 10.8356 6.79688 10.8176L7.65457 9.58699C6.46624 8.75876 5.01991 10.2051 5.84814 11.3934L7.07874 10.5357ZM10.9111 20.397C12.1075 21.1567 13.4816 19.7224 12.6712 18.5597L11.4406 19.4174C11.4222 19.3909 11.4028 19.3374 11.4102 19.2744C11.4166 19.2204 11.4393 19.1837 11.4605 19.1616C11.4817 19.1395 11.5174 19.1151 11.5711 19.1065C11.6337 19.0964 11.688 19.1134 11.7152 19.1307L10.9111 20.397ZM4.49555 15.8802C4.51012 15.9109 4.51904 15.9619 4.50603 16.0162C4.49456 16.0642 4.47046 16.0975 4.44664 16.1185C4.42281 16.1396 4.38677 16.1594 4.33777 16.1649C4.28222 16.1711 4.23278 16.156 4.20405 16.1377L5.00816 14.8715C3.91 14.1741 2.58305 15.3466 3.13994 16.5223L4.49555 15.8802ZM5.0826 19.9781C5.63444 19.4262 5.77831 18.5882 5.4448 17.8841L4.08919 18.5263C4.15191 18.6587 4.12458 18.8148 4.02194 18.9174L5.0826 19.9781Z" fill="black"/>
<path d="M22.0002 12C22.0002 13.1874 21.0376 14.15 19.8502 14.15C18.6628 14.15 17.7002 13.1874 17.7002 12C17.7002 10.8126 18.6628 9.85 19.8502 9.85C21.0376 9.85 22.0002 10.8126 22.0002 12Z" stroke="black" stroke-width="1.5"/>
</svg>
