<svg width="24" height="24" viewBox="0 0 24 24" fill="none" xmlns="http://www.w3.org/2000/svg">
<path fill-rule="evenodd" clip-rule="evenodd" d="M6.9469 16.5173L5.6072 16.8973C3.78158 17.4151 2 15.9103 2 13.8504C2 12.6127 2.27659 11.3731 3.08289 10.5032C4.1279 9.37586 6.00015 7.90792 9 7.29205V13.6185C9 14.9826 8.15591 16.1744 6.9469 16.5173ZM15 13.6185C15 14.9826 15.8441 16.1744 17.0531 16.5173L18.3928 16.8973C20.2184 17.4151 22 15.9103 22 13.8504C22 12.6127 21.7234 11.3731 20.9171 10.5032C19.8721 9.37586 17.9998 7.90793 15 7.29205V13.6185Z" fill="black"/>
<path opacity="0.5" d="M9 13.6185C9 13.6185 9 11.9639 12 11.9639C15 11.9639 15 13.6185 15 13.6185V7.29203C14.1034 7.10796 13.1061 7 12 7C10.8939 7 9.8966 7.10796 9 7.29203V13.6185Z" fill="black"/>
</svg>
