<svg width="24" height="24" viewBox="0 0 24 24" fill="none" xmlns="http://www.w3.org/2000/svg">
<path opacity="0.5" d="M3.46447 3.46447C2 4.92893 2 7.28595 2 12C2 16.714 2 19.0711 3.46447 20.5355C4.92893 22 7.28595 22 12 22C16.714 22 19.0711 22 20.5355 20.5355C22 19.0711 22 16.714 22 12C22 7.28595 22 4.92893 20.5355 3.46447C19.0711 2 16.714 2 12 2C7.28595 2 4.92893 2 3.46447 3.46447Z" fill="black"/>
<path fill-rule="evenodd" clip-rule="evenodd" d="M12.75 12C12.75 12.6443 12.9375 13.2449 13.2609 13.75H10.7391C11.0625 13.2449 11.25 12.6443 11.25 12C11.25 10.2051 9.79493 8.75 8 8.75C6.20507 8.75 4.75 10.2051 4.75 12C4.75 13.7949 6.20507 15.25 8 15.25H16C17.7949 15.25 19.25 13.7949 19.25 12C19.25 10.2051 17.7949 8.75 16 8.75C14.2051 8.75 12.75 10.2051 12.75 12ZM14.25 12C14.25 11.0335 15.0335 10.25 16 10.25C16.9665 10.25 17.75 11.0335 17.75 12C17.75 12.9665 16.9665 13.75 16 13.75C15.0335 13.75 14.25 12.9665 14.25 12ZM9.75 12C9.75 12.9665 8.9665 13.75 8 13.75C7.0335 13.75 6.25 12.9665 6.25 12C6.25 11.0335 7.0335 10.25 8 10.25C8.9665 10.25 9.75 11.0335 9.75 12Z" fill="black"/>
</svg>
