<svg width="24" height="24" viewBox="0 0 24 24" fill="none" xmlns="http://www.w3.org/2000/svg">
<path d="M18.2857 22C20.3371 22 22 20.4198 22 18.4706C22 16.9257 20.9554 15.6126 19.5008 15.1344C19.2941 13.3711 17.7203 12 15.8095 12C13.7582 12 12.0952 13.5802 12.0952 15.5294C12.0952 15.9605 12.1766 16.3736 12.3255 16.7555C12.1509 16.723 11.9704 16.7059 11.7857 16.7059C10.2472 16.7059 9 17.891 9 19.3529C9 20.8149 10.2472 22 11.7857 22H18.2857Z" fill="black"/>
<path d="M21.5512 14.5503C21.3158 14.3677 21.0642 14.2048 20.7996 14.0639C20.1404 11.9627 18.114 10.5 15.8095 10.5C13.0557 10.5 10.6861 12.5991 10.5978 15.3691C9.2768 15.7395 8.18723 16.7123 7.73072 18H6.28571C3.91878 18 2 16.1038 2 13.7647C2 11.4256 3.91878 9.52941 6.28571 9.52941C6.56983 9.52941 6.8475 9.55673 7.11616 9.60887C6.88706 8.9978 6.7619 8.33687 6.7619 7.64706C6.7619 4.52827 9.32028 2 12.4762 2C15.4159 2 17.8371 4.19371 18.1551 7.01498C20.393 7.78024 22 9.88113 22 12.3529C22 13.1324 21.8402 13.8749 21.5512 14.5503Z" fill="black"/>
</svg>
