<svg width="24" height="24" viewBox="0 0 24 24" fill="none" xmlns="http://www.w3.org/2000/svg">
<path d="M11.2857 22C13.3371 22 15 20.4198 15 18.4706C15 16.9257 13.9554 15.6126 12.5008 15.1344C12.2941 13.3711 10.7203 12 8.80952 12C6.75818 12 5.09524 13.5802 5.09524 15.5294C5.09524 15.9605 5.17659 16.3736 5.3255 16.7555C5.15087 16.723 4.97039 16.7059 4.78571 16.7059C3.24721 16.7059 2 17.891 2 19.3529C2 20.8149 3.24721 22 4.78571 22H11.2857Z" fill="black"/>
<path d="M2.71605 15.7231C2.99396 15.5747 3.28958 15.4555 3.59779 15.3691C3.68609 12.5991 6.05571 10.5 8.80952 10.5C8.98185 10.5 9.15261 10.5082 9.32137 10.5242C9.1128 9.88716 9 9.20675 9 8.5C9 6.13845 10.2594 4.07105 12.1432 2.93276C12.5392 2.69347 12.4627 2 12 2C6.47715 2 2 6.47715 2 12C2 13.3159 2.25415 14.5724 2.71605 15.7231Z" fill="black"/>
<path d="M22 12C22 16.2658 19.3289 19.9078 15.5681 21.3447C16.1527 20.5383 16.5 19.5527 16.5 18.4706C16.5 17.0996 15.9372 15.8789 15.0434 14.9842C15.1942 14.9947 15.3465 15 15.5 15C17.8615 15 19.9289 13.7406 21.0672 11.8568C21.3065 11.4608 22 11.5373 22 12Z" fill="black"/>
</svg>
