<svg width="24" height="24" viewBox="0 0 24 24" fill="none" xmlns="http://www.w3.org/2000/svg">
<path d="M9.95197 6.25C9.52211 6.24993 9.12024 6.24986 8.79192 6.29891C8.42102 6.35432 8.04 6.4853 7.73542 6.82371C7.44103 7.15082 7.3371 7.54061 7.29204 7.91294C7.24993 8.26096 7.24996 8.69238 7.25 9.17954L7.25 9.75C7.25 10.1642 7.58579 10.5 8 10.5C8.41421 10.5 8.75 10.1642 8.75 9.75V9.22222C8.75 8.67931 8.75129 8.34011 8.78118 8.09313C8.7952 7.97725 8.81273 7.91048 8.8269 7.87221C8.83885 7.83993 8.84739 7.83046 8.85023 7.82731L8.85104 7.82637C8.8524 7.82473 8.8534 7.82353 8.86242 7.8194C8.87904 7.8118 8.92168 7.79617 9.01354 7.78245C9.21765 7.75196 9.50511 7.75 10 7.75H11.25V16.25H9.5C9.08579 16.25 8.75 16.5858 8.75 17C8.75 17.4142 9.08579 17.75 9.5 17.75H15C15.4142 17.75 15.75 17.4142 15.75 17C15.75 16.5858 15.4142 16.25 15 16.25H12.75V7.75H14C14.4949 7.75 14.7824 7.75196 14.9865 7.78245C15.0783 7.79617 15.121 7.8118 15.1376 7.8194C15.1466 7.82353 15.1476 7.82473 15.149 7.82637L15.1496 7.82716C15.1525 7.83031 15.1611 7.83993 15.1731 7.87221C15.1873 7.91048 15.2048 7.97725 15.2188 8.09313C15.2487 8.34011 15.25 8.67931 15.25 9.22222V9.75C15.25 10.1642 15.5858 10.5 16 10.5C16.4142 10.5 16.75 10.1642 16.75 9.75L16.75 9.17953C16.75 8.69238 16.7501 8.26096 16.708 7.91294C16.6629 7.54061 16.559 7.15082 16.2646 6.82371C15.96 6.4853 15.579 6.35432 15.2081 6.29891C14.8798 6.24986 14.4779 6.24993 14.048 6.25H9.95197Z" fill="black"/>
<path fill-rule="evenodd" clip-rule="evenodd" d="M12 1.25C6.06294 1.25 1.25 6.06294 1.25 12C1.25 17.9371 6.06294 22.75 12 22.75C17.9371 22.75 22.75 17.9371 22.75 12C22.75 6.06294 17.9371 1.25 12 1.25ZM2.75 12C2.75 6.89137 6.89137 2.75 12 2.75C17.1086 2.75 21.25 6.89137 21.25 12C21.25 17.1086 17.1086 21.25 12 21.25C6.89137 21.25 2.75 17.1086 2.75 12Z" fill="black"/>
</svg>
