<svg width="24" height="24" viewBox="0 0 24 24" fill="none" xmlns="http://www.w3.org/2000/svg">
<path d="M9.95197 6.25C9.52211 6.24993 9.12024 6.24986 8.79192 6.29891C8.42102 6.35432 8.04 6.4853 7.73542 6.82371C7.44103 7.15082 7.3371 7.54061 7.29204 7.91294C7.24993 8.26096 7.24996 8.69238 7.25 9.17954L7.25 9.22222C7.25 9.63644 7.58579 9.97222 8 9.97222C8.41421 9.97222 8.75 9.63644 8.75 9.22222C8.75 8.67931 8.75129 8.34011 8.78118 8.09313C8.7952 7.97725 8.81273 7.91048 8.8269 7.87221C8.83885 7.83993 8.84739 7.83046 8.85023 7.82731L8.85104 7.82637C8.8524 7.82473 8.8534 7.82353 8.86242 7.8194C8.87904 7.8118 8.92168 7.79617 9.01354 7.78245C9.21765 7.75196 9.50511 7.75 10 7.75H11.25V9.5C11.25 9.91421 11.5858 10.25 12 10.25C12.4142 10.25 12.75 9.91421 12.75 9.5V7.75H14C14.4949 7.75 14.7824 7.75196 14.9865 7.78245C15.0783 7.79617 15.121 7.8118 15.1376 7.8194C15.1466 7.82353 15.1476 7.82473 15.149 7.82637L15.1496 7.82716C15.1525 7.83031 15.1611 7.83993 15.1731 7.87221C15.1873 7.91048 15.2048 7.97725 15.2188 8.09313C15.2487 8.34011 15.25 8.67931 15.25 9.22222C15.25 9.63644 15.5858 9.97222 16 9.97222C16.4142 9.97222 16.75 9.63644 16.75 9.22222L16.75 9.17953C16.75 8.69238 16.7501 8.26096 16.708 7.91294C16.6629 7.54061 16.559 7.15082 16.2646 6.82371C15.96 6.4853 15.579 6.35432 15.2081 6.29891C14.8798 6.24986 14.4779 6.24993 14.048 6.25H9.95197Z" fill="black"/>
<path d="M8 11.25C7.58579 11.25 7.25 11.5858 7.25 12C7.25 12.4142 7.58579 12.75 8 12.75H16C16.4142 12.75 16.75 12.4142 16.75 12C16.75 11.5858 16.4142 11.25 16 11.25H8Z" fill="black"/>
<path d="M12.75 14.5C12.75 14.0858 12.4142 13.75 12 13.75C11.5858 13.75 11.25 14.0858 11.25 14.5V16.25H9.5C9.08579 16.25 8.75 16.5858 8.75 17C8.75 17.4142 9.08579 17.75 9.5 17.75H14.5C14.9142 17.75 15.25 17.4142 15.25 17C15.25 16.5858 14.9142 16.25 14.5 16.25H12.75V14.5Z" fill="black"/>
<path fill-rule="evenodd" clip-rule="evenodd" d="M11.9426 1.25C9.63423 1.24999 7.82519 1.24998 6.41371 1.43975C4.96897 1.63399 3.82895 2.03933 2.93414 2.93414C2.03933 3.82895 1.63399 4.96897 1.43975 6.41371C1.24998 7.82519 1.24999 9.63423 1.25 11.9426V12.0574C1.24999 14.3658 1.24998 16.1748 1.43975 17.5863C1.63399 19.031 2.03933 20.1711 2.93414 21.0659C3.82895 21.9607 4.96897 22.366 6.41371 22.5603C7.82519 22.75 9.63423 22.75 11.9426 22.75H12.0574C14.3658 22.75 16.1748 22.75 17.5863 22.5603C19.031 22.366 20.1711 21.9607 21.0659 21.0659C21.9607 20.1711 22.366 19.031 22.5603 17.5863C22.75 16.1748 22.75 14.3658 22.75 12.0574V11.9426C22.75 9.63423 22.75 7.82519 22.5603 6.41371C22.366 4.96897 21.9607 3.82895 21.0659 2.93414C20.1711 2.03933 19.031 1.63399 17.5863 1.43975C16.1748 1.24998 14.3658 1.24999 12.0574 1.25H11.9426ZM3.9948 3.9948C4.56445 3.42514 5.33517 3.09825 6.61358 2.92637C7.91356 2.75159 9.62178 2.75 12 2.75C14.3782 2.75 16.0864 2.75159 17.3864 2.92637C18.6648 3.09825 19.4355 3.42514 20.0052 3.9948C20.5749 4.56445 20.9018 5.33517 21.0736 6.61358C21.2484 7.91356 21.25 9.62178 21.25 12C21.25 14.3782 21.2484 16.0864 21.0736 17.3864C20.9018 18.6648 20.5749 19.4355 20.0052 20.0052C19.4355 20.5749 18.6648 20.9018 17.3864 21.0736C16.0864 21.2484 14.3782 21.25 12 21.25C9.62178 21.25 7.91356 21.2484 6.61358 21.0736C5.33517 20.9018 4.56445 20.5749 3.9948 20.0052C3.42514 19.4355 3.09825 18.6648 2.92637 17.3864C2.75159 16.0864 2.75 14.3782 2.75 12C2.75 9.62178 2.75159 7.91356 2.92637 6.61358C3.09825 5.33517 3.42514 4.56445 3.9948 3.9948Z" fill="black"/>
</svg>
