<svg width="24" height="24" viewBox="0 0 24 24" fill="none" xmlns="http://www.w3.org/2000/svg">
<path fill-rule="evenodd" clip-rule="evenodd" d="M7.25 7.52174C7.25 6.26709 8.26709 5.25 9.52174 5.25H12C14.0711 5.25 15.75 6.92893 15.75 9C15.75 10.029 15.3356 10.9612 14.6645 11.6387C15.9004 12.2519 16.75 13.5268 16.75 15C16.75 17.0711 15.0711 18.75 13 18.75H9.17647C8.11251 18.75 7.25 17.8875 7.25 16.8235V7.52174ZM8.75 11.25H12C13.2426 11.25 14.25 10.2426 14.25 9C14.25 7.75736 13.2426 6.75 12 6.75H9.52174C9.09552 6.75 8.75 7.09552 8.75 7.52174V11.25ZM8.75 12.75V16.8235C8.75 17.0591 8.94094 17.25 9.17647 17.25H13C14.2426 17.25 15.25 16.2426 15.25 15C15.25 13.7574 14.2426 12.75 13 12.75H8.75Z" fill="black"/>
<path fill-rule="evenodd" clip-rule="evenodd" d="M1.25 12C1.25 6.06294 6.06294 1.25 12 1.25C17.9371 1.25 22.75 6.06294 22.75 12C22.75 17.9371 17.9371 22.75 12 22.75C6.06294 22.75 1.25 17.9371 1.25 12ZM12 2.75C6.89137 2.75 2.75 6.89137 2.75 12C2.75 17.1086 6.89137 21.25 12 21.25C17.1086 21.25 21.25 17.1086 21.25 12C21.25 6.89137 17.1086 2.75 12 2.75Z" fill="black"/>
</svg>
