<svg width="24" height="24" viewBox="0 0 24 24" fill="none" xmlns="http://www.w3.org/2000/svg">
<path fill-rule="evenodd" clip-rule="evenodd" d="M15 1.25C15.4142 1.25 15.75 1.58579 15.75 2V3.2555C16.9594 3.26793 17.9701 3.30925 18.8089 3.45158C19.8369 3.626 20.6807 3.96316 21.3588 4.64124C22.1071 5.38961 22.4392 6.33856 22.5969 7.51098C22.75 8.65018 22.75 10.1058 22.75 11.9435V12.0564C22.75 13.8942 22.75 15.3498 22.5969 16.489C22.4392 17.6614 22.1071 18.6104 21.3588 19.3588C20.6807 20.0368 19.8369 20.374 18.8089 20.5484C17.9701 20.6908 16.9594 20.7321 15.75 20.7445V22C15.75 22.4142 15.4142 22.75 15 22.75C14.5858 22.75 14.25 22.4142 14.25 22V2C14.25 1.58579 14.5858 1.25 15 1.25ZM15.75 19.2443V4.75569C16.9362 4.76835 17.8391 4.80847 18.558 4.93044C19.3998 5.07329 19.9131 5.31689 20.2981 5.7019C20.7213 6.12511 20.975 6.70476 21.1102 7.71085C21.2484 8.73851 21.25 10.0932 21.25 12C21.25 13.9068 21.2484 15.2615 21.1102 16.2892C20.975 17.2952 20.7213 17.8749 20.2981 18.2981C19.9131 18.6831 19.3998 18.9267 18.558 19.0696C17.8391 19.1915 16.9362 19.2316 15.75 19.2443Z" fill="black"/>
<path d="M9.94358 3.25L12 3.25C12.4142 3.25 12.75 3.58579 12.75 4C12.75 4.41421 12.4142 4.75 12 4.75H10C8.09318 4.75 6.73851 4.75159 5.71085 4.88976C4.70476 5.02502 4.12511 5.27869 3.7019 5.7019C3.27869 6.12511 3.02503 6.70476 2.88976 7.71085C2.75159 8.73851 2.75 10.0932 2.75 12C2.75 13.9068 2.75159 15.2615 2.88976 16.2892C3.02503 17.2952 3.27869 17.8749 3.7019 18.2981C4.12511 18.7213 4.70476 18.975 5.71085 19.1102C6.73851 19.2484 8.09318 19.25 10 19.25H12C12.4142 19.25 12.75 19.5858 12.75 20C12.75 20.4142 12.4142 20.75 12 20.75H9.94359C8.10585 20.75 6.65018 20.75 5.51098 20.5969C4.33856 20.4392 3.38961 20.1071 2.64124 19.3588C1.89288 18.6104 1.56076 17.6614 1.40314 16.489C1.24997 15.3498 1.24998 13.8942 1.25 12.0564V11.9436C1.24998 10.1058 1.24997 8.65019 1.40314 7.51098C1.56076 6.33856 1.89288 5.38961 2.64124 4.64124C3.38961 3.89288 4.33856 3.56076 5.51098 3.40314C6.65019 3.24997 8.10582 3.24998 9.94358 3.25Z" fill="black"/>
<path d="M6.81782 7.78733C7.11779 7.74992 7.48429 7.74996 7.88383 7.75H10.1162C10.5157 7.74996 10.8822 7.74992 11.1822 7.78733C11.5109 7.82833 11.8612 7.9242 12.1624 8.19187C12.2138 8.23753 12.2625 8.28618 12.3081 8.33756C12.5758 8.63878 12.6717 8.98915 12.7127 9.31782C12.7501 9.61779 12.7501 9.98428 12.75 10.3838L12.75 10.425C12.75 10.8392 12.4142 11.175 12 11.175C11.5858 11.175 11.25 10.8392 11.25 10.425C11.25 9.97047 11.2486 9.69931 11.2242 9.50348C11.1998 9.30765 10.9965 9.2758 10.9965 9.2758C10.8007 9.25137 10.5295 9.25001 10.075 9.25001H9.75001V14.75H11C11.4142 14.75 11.75 15.0858 11.75 15.5C11.75 15.9142 11.4142 16.25 11 16.25H7.00001C6.58579 16.25 6.25001 15.9142 6.25001 15.5C6.25001 15.0858 6.58579 14.75 7.00001 14.75H8.25001V9.25001H7.92501C7.47047 9.25001 7.19931 9.25137 7.00348 9.2758C7.00348 9.2758 6.80023 9.30765 6.7758 9.50348C6.75138 9.69931 6.75001 9.97047 6.75001 10.425C6.75001 10.8392 6.41422 11.175 6.00001 11.175C5.58579 11.175 5.25001 10.8392 5.25001 10.425L5.25 10.3838C5.24996 9.98428 5.24992 9.61779 5.28733 9.31782C5.32833 8.98915 5.4242 8.63878 5.69187 8.33756C5.73753 8.28618 5.78618 8.23753 5.83757 8.19187C6.13878 7.9242 6.48915 7.82833 6.81782 7.78733Z" fill="black"/>
</svg>
