<svg width="24" height="24" viewBox="0 0 24 24" fill="none" xmlns="http://www.w3.org/2000/svg">
<path fill-rule="evenodd" clip-rule="evenodd" d="M1.60603 6.08085C2.11366 5.8633 2.70154 6.09845 2.9191 6.60608L1.99995 7C2.9191 6.60608 2.91924 6.6064 2.9191 6.60608L2.91858 6.60488C2.91851 6.6047 2.9183 6.60423 2.91858 6.60488L2.9225 6.61374C2.92651 6.62276 2.93339 6.63807 2.94319 6.65928C2.96278 6.7017 2.99397 6.76758 3.03696 6.85356C3.12302 7.02569 3.25594 7.27745 3.43737 7.58226C3.80137 8.19378 4.35439 9.00824 5.10775 9.81955C5.28532 10.0108 5.47324 10.2011 5.67173 10.388C5.68003 10.3956 5.68823 10.4033 5.69633 10.4112C7.18102 11.8014 9.25227 13 12 13C13.2089 13 14.2783 12.7692 15.2209 12.3982C16.4469 11.9156 17.4745 11.1891 18.3156 10.3997C19.2652 9.50838 19.9627 8.55004 20.4232 7.81099C20.6526 7.44291 20.8207 7.13317 20.9299 6.91908C20.9844 6.81215 21.0241 6.72942 21.0491 6.6756C21.0617 6.64871 21.0706 6.62906 21.0758 6.61727L21.0808 6.60608C21.2985 6.09872 21.8864 5.86335 22.3939 6.08085C22.9015 6.29841 23.1367 6.88629 22.9191 7.39392L22 7C22.9191 7.39392 22.9192 7.39369 22.9191 7.39392L22.9169 7.39894L22.9134 7.40716L22.9019 7.433C22.8924 7.45433 22.879 7.48377 22.8618 7.52071C22.8274 7.59457 22.7774 7.69854 22.7115 7.82773C22.5799 8.08589 22.384 8.44607 22.1206 8.86867C21.718 9.51483 21.152 10.3162 20.4096 11.1243L21.2071 11.9217C21.5976 12.3123 21.5976 12.9454 21.2071 13.3359C20.8165 13.7265 20.1834 13.7265 19.7928 13.3359L18.9527 12.4958C18.3884 12.9515 17.7569 13.3814 17.0558 13.7522L17.8381 14.9546C18.1393 15.4175 18.0083 16.037 17.5453 16.3382C17.0824 16.6394 16.463 16.5083 16.1618 16.0454L15.1763 14.5309C14.4973 14.739 13.772 14.8865 13 14.9557V16.5C13 17.0523 12.5522 17.5 12 17.5C11.4477 17.5 11 17.0523 11 16.5V14.9558C10.2253 14.8866 9.50014 14.7388 8.82334 14.5313L7.83814 16.0454C7.53693 16.5083 6.91748 16.6394 6.45457 16.3382C5.99165 16.037 5.86056 15.4175 6.16177 14.9546L6.94417 13.7522C6.24405 13.3816 5.61245 12.9518 5.04746 12.4955L4.20706 13.3359C3.81654 13.7265 3.18337 13.7265 2.79285 13.3359C2.40232 12.9454 2.40232 12.3123 2.79285 11.9217L3.59029 11.1243C2.74529 10.2045 2.12772 9.29223 1.71879 8.60523C1.5096 8.25379 1.35345 7.95868 1.2481 7.74799C1.19539 7.64257 1.15529 7.55806 1.12752 7.49794C1.11363 7.46788 1.10282 7.44389 1.09505 7.42641L1.08566 7.40513L1.08267 7.39824L1.0816 7.39576L1.08117 7.39476C1.08098 7.39432 1.08081 7.39392 1.99995 7L1.08117 7.39476C0.863613 6.88713 1.0984 6.29841 1.60603 6.08085Z" fill="black"/>
</svg>
