<svg width="24" height="24" viewBox="0 0 24 24" fill="none" xmlns="http://www.w3.org/2000/svg">
<path d="M9.62048 18.9802C10.5967 19.0887 11.5693 18.7475 12.2639 18.053L14.9194 15.3975C17.3148 15.8109 19.874 15.094 21.7285 13.2395C21.8217 13.1463 21.912 13.0513 21.9995 12.9547C21.9928 17.0393 21.8976 19.1735 20.5355 20.5355C19.0711 22 16.714 22 12 22C7.28595 22 4.92893 22 3.46447 20.5355C2 19.0711 2 16.714 2 12C2 7.28596 2 4.92894 3.46447 3.46447C4.82655 2.10239 6.96075 2.00716 11.0454 2.0005C10.9487 2.08798 10.8537 2.17833 10.7605 2.27155C8.906 4.12602 8.18914 6.68522 8.60254 9.08066L5.94704 11.7362C5.2525 12.4307 4.91133 13.4033 5.0198 14.3795L5.21319 16.12C5.28396 16.7569 5.56939 17.3508 6.02253 17.804L6.19604 17.9775C6.64919 18.4306 7.24309 18.7161 7.88 18.7868L9.62048 18.9802Z" fill="black"/>
<path fill-rule="evenodd" clip-rule="evenodd" d="M21.9626 8.41233C21.8202 9.6594 21.2708 10.8688 20.3143 11.8253C18.8218 13.3178 16.7136 13.8193 14.8074 13.3297C14.5 13.2508 14.1677 13.3207 13.9433 13.5451L12.4136 15.0748L12.4107 15.0719L10.9532 13.6303C10.6587 13.3391 10.1838 13.3417 9.89256 13.6362C9.60128 13.9307 9.60389 14.4055 9.89839 14.6968L11.3529 16.1355L10.8496 16.6388C10.5847 16.9037 10.2137 17.0338 9.84135 16.9924L8.10086 16.7991C7.9153 16.7784 7.74228 16.6953 7.61026 16.5633L7.43675 16.3898C7.30473 16.2577 7.22157 16.0847 7.20095 15.8992L7.00756 14.1587C6.96619 13.7863 7.09633 13.4153 7.36126 13.1504L10.4547 10.057C10.6791 9.83252 10.7492 9.50004 10.6703 9.1926C10.1808 7.28638 10.6822 5.17821 12.1747 3.68576C13.1312 2.72923 14.3407 2.17976 15.5878 2.03736C16.4945 2.07069 17.2684 2.13373 17.9361 2.25301C18.8063 2.51973 19.6258 2.99731 20.3143 3.68576C21.0027 4.37419 21.4803 5.19363 21.747 6.06383C21.8663 6.73154 21.9293 7.50554 21.9626 8.41233ZM14.9882 6.65491C15.639 6.00403 16.6943 6.00403 17.3452 6.65491C17.9961 7.30578 17.9961 8.36105 17.3452 9.01193C16.6943 9.6628 15.639 9.6628 14.9882 9.01193C14.3373 8.36105 14.3373 7.30578 14.9882 6.65491Z" fill="black"/>
</svg>
