<svg width="24" height="24" viewBox="0 0 24 24" fill="none" xmlns="http://www.w3.org/2000/svg">
<path fill-rule="evenodd" clip-rule="evenodd" d="M22 6.72008C22 9.3269 19.8781 11.4402 17.2606 11.4402C16.7829 11.4402 15.6954 11.3304 15.1664 10.8913L14.505 11.5499C14.1162 11.9372 14.2212 12.0512 14.3942 12.239C14.4664 12.3174 14.5504 12.4086 14.6153 12.5378C14.6153 12.5378 15.1664 13.3062 14.6153 14.0746C14.2846 14.5137 13.3588 15.1284 12.3007 14.0746L12.0802 14.2942C12.0802 14.2942 12.7415 15.0625 12.1904 15.8309C11.8598 16.27 10.978 16.7091 10.2065 15.9407L9.43495 16.7091C8.90589 17.236 8.25929 16.9286 8.00212 16.7091L7.3408 16.0505C6.72357 15.4358 7.08363 14.7698 7.3408 14.5137L13.0722 8.80569C13.0722 8.80569 12.5211 7.92754 12.5211 6.72008C12.5211 4.11325 14.643 2 17.2606 2C19.8781 2 22 4.11325 22 6.72008ZM18.914 6.72003C18.914 7.62938 18.1738 8.36656 17.2607 8.36656C16.3476 8.36656 15.6074 7.62938 15.6074 6.72003C15.6074 5.81067 16.3476 5.07349 17.2607 5.07349C18.1738 5.07349 18.914 5.81067 18.914 6.72003Z" fill="black"/>
<path d="M13.1957 2.00101C11.865 3.14079 11.0211 4.83064 11.0211 6.72008C11.0211 7.40126 11.1482 7.99703 11.2945 8.45906L6.28225 13.4509C5.98373 13.7482 5.6393 14.2521 5.53248 14.9056C5.41029 15.6532 5.627 16.4607 6.28225 17.1133L6.94357 17.7719C6.97075 17.799 6.99897 17.825 7.02815 17.8499C7.32323 18.1018 7.80223 18.3849 8.39718 18.4729C9.06401 18.5714 9.84674 18.4108 10.4855 17.7797C10.8715 17.877 11.2658 17.8846 11.6459 17.8118C12.4 17.6674 13.0186 17.2246 13.3886 16.7333C13.3956 16.724 13.4025 16.7146 13.4093 16.7051C13.5422 16.5199 13.6438 16.3329 13.7196 16.1477C13.8164 16.1397 13.9134 16.1265 14.0102 16.1082C14.872 15.9447 15.4856 15.4122 15.8134 14.977C15.8204 14.9677 15.8273 14.9583 15.8341 14.9488C16.3624 14.2123 16.4169 13.4474 16.3209 12.868C16.6837 12.9207 17.0171 12.9402 17.2605 12.9402C19.1541 12.9402 20.8536 12.0981 21.9989 10.7671C22 11.1592 22 11.5698 22 12C22 16.714 22 19.0711 20.5355 20.5355C19.0711 22 16.714 22 12 22C7.28595 22 4.92893 22 3.46447 20.5355C2 19.0711 2 16.714 2 12C2 7.28595 2 4.92893 3.46447 3.46447C4.92893 2 7.28595 2 12 2C12.4166 2 12.8149 2 13.1957 2.00101Z" fill="black"/>
</svg>
