<svg width="24" height="24" viewBox="0 0 24 24" fill="none" xmlns="http://www.w3.org/2000/svg">
<path fill-rule="evenodd" clip-rule="evenodd" d="M3.37752 5.08241C3 5.62028 3 7.21907 3 10.4167V11.9914C3 17.6294 7.23896 20.3655 9.89856 21.5273C10.62 21.8424 10.9807 22 12 22C13.0193 22 13.38 21.8424 14.1014 21.5273C16.761 20.3655 21 17.6294 21 11.9914V10.4167C21 7.21907 21 5.62028 20.6225 5.08241C20.245 4.54454 18.7417 4.02996 15.7351 3.00079L15.1623 2.80472C13.595 2.26824 12.8114 2 12 2C11.1886 2 10.405 2.26824 8.83772 2.80472L8.26491 3.00079C5.25832 4.02996 3.75503 4.54454 3.37752 5.08241ZM10.8613 8.36335L10.7302 8.59849C10.5862 8.85677 10.5142 8.98591 10.402 9.07112C10.2897 9.15633 10.1499 9.18796 9.87035 9.25122L9.61581 9.30881C8.63194 9.53142 8.14001 9.64273 8.02297 10.0191C7.90593 10.3955 8.2413 10.7876 8.91204 11.572L9.08557 11.7749C9.27617 11.9978 9.37147 12.1092 9.41435 12.2471C9.45722 12.385 9.44281 12.5336 9.41399 12.831L9.38776 13.1018C9.28635 14.1482 9.23565 14.6715 9.54206 14.9041C9.84847 15.1367 10.3091 14.9246 11.2303 14.5005L11.4686 14.3907C11.7304 14.2702 11.8613 14.2099 12 14.2099C12.1387 14.2099 12.2696 14.2702 12.5314 14.3907L12.7697 14.5005C13.6909 14.9246 14.1515 15.1367 14.4579 14.9041C14.7644 14.6715 14.7136 14.1482 14.6122 13.1018L14.586 12.831C14.5572 12.5337 14.5428 12.385 14.5857 12.2471C14.6285 12.1092 14.7238 11.9978 14.9144 11.7749L15.088 11.572C15.7587 10.7876 16.0941 10.3955 15.977 10.0191C15.86 9.64273 15.3681 9.53142 14.3842 9.30881L14.1296 9.25122C13.8501 9.18796 13.7103 9.15633 13.598 9.07112C13.4858 8.98592 13.4138 8.85678 13.2698 8.5985L13.1387 8.36335C12.6321 7.45445 12.3787 7 12 7C11.6213 7 11.3679 7.45445 10.8613 8.36335Z" fill="black"/>
</svg>
