<svg width="24" height="24" viewBox="0 0 24 24" fill="none" xmlns="http://www.w3.org/2000/svg">
<path fill-rule="evenodd" clip-rule="evenodd" d="M3.37752 5.08241C3 5.62028 3 7.21907 3 10.4167V11.9914C3 17.6294 7.23896 20.3655 9.89856 21.5273C10.62 21.8424 10.9807 22 12 22C13.0193 22 13.38 21.8424 14.1014 21.5273C16.761 20.3655 21 17.6294 21 11.9914V10.4167C21 7.21907 21 5.62028 20.6225 5.08241C20.245 4.54454 18.7417 4.02996 15.7351 3.00079L15.1623 2.80472C13.595 2.26824 12.8114 2 12 2C11.1886 2 10.405 2.26824 8.83772 2.80472L8.26491 3.00079C5.25832 4.02996 3.75503 4.54454 3.37752 5.08241ZM12.75 9C12.75 8.58579 12.4142 8.25 12 8.25C11.5858 8.25 11.25 8.58579 11.25 9L11.25 11.25H9C8.58579 11.25 8.25 11.5858 8.25 12C8.25 12.4142 8.58579 12.75 9 12.75H11.25V15C11.25 15.4142 11.5858 15.75 12 15.75C12.4142 15.75 12.75 15.4142 12.75 15V12.75H15C15.4142 12.75 15.75 12.4142 15.75 12C15.75 11.5858 15.4142 11.25 15 11.25H12.75L12.75 9Z" fill="black"/>
</svg>
