<svg width="24" height="24" viewBox="0 0 24 24" fill="none" xmlns="http://www.w3.org/2000/svg">
<path d="M22 12C22 16.714 22 19.0711 20.5355 20.5355C19.0711 22 16.714 22 12 22C7.28595 22 4.92893 22 3.46447 20.5355C2 19.0711 2 16.714 2 12C2 7.28595 2 4.92893 3.46447 3.46447C4.92893 2 7.28595 2 12 2C16.714 2 19.0711 2 20.5355 3.46447C21.5093 4.43821 21.8356 5.80655 21.9449 8" stroke="black" stroke-width="1.5" stroke-linecap="round"/>
<path d="M18 8.49998H14M18 14.5H14M18 17.5H14M10 8.49999H8M8 8.49999L6 8.49999M8 8.49999L8 6.49998M8 8.49999L8 10.5M9.5 14.5L8.00001 16M8.00001 16L6.50001 17.5M8.00001 16L6.5 14.5M8.00001 16L9.49999 17.5" stroke="black" stroke-width="1.5" stroke-linecap="round"/>
</svg>
