<svg width="24" height="24" viewBox="0 0 24 24" fill="none" xmlns="http://www.w3.org/2000/svg">
<path d="M12 21.25C11.5858 21.25 11.25 21.5858 11.25 22C11.25 22.4142 11.5858 22.75 12 22.75V21.25ZM4.31802 20.8284L4.81629 20.2679L4.31802 20.8284ZM19.682 20.8284L19.1837 20.2679L19.1837 20.2679L19.682 20.8284ZM7.95476 22.6837C8.36822 22.7087 8.72365 22.3938 8.74863 21.9804C8.77362 21.5669 8.4587 21.2115 8.04524 21.1865L7.95476 22.6837ZM2.25 12C2.25 13.8741 2.24918 15.8307 2.41875 17.4664C2.50368 18.2856 2.63401 19.0548 2.84074 19.7105C3.04411 20.3557 3.3444 20.9665 3.81975 21.389L4.81629 20.2679C4.63262 20.1046 4.43867 19.7904 4.27134 19.2596C4.10738 18.7394 3.99058 18.0818 3.91075 17.3118C3.75082 15.769 3.75 13.8971 3.75 12H2.25ZM12 22.75C14.1024 22.75 15.7464 22.7513 17.0267 22.5983C18.3204 22.4436 19.3568 22.1209 20.1803 21.389L19.1837 20.2679C18.6891 20.7075 18.0058 20.9706 16.8487 21.1089C15.6782 21.2487 14.1402 21.25 12 21.25V22.75ZM8.04524 21.1865C6.33099 21.0829 5.4315 20.8147 4.81629 20.2679L3.81975 21.389C4.83576 22.2921 6.18271 22.5767 7.95476 22.6837L8.04524 21.1865ZM20.2499 12.3873C20.2492 14.2185 20.2371 16.0032 20.0724 17.4673C19.9902 18.1982 19.8728 18.8201 19.7119 19.3117C19.548 19.8126 19.3605 20.1108 19.1837 20.2679L20.1803 21.389C20.6399 20.9804 20.9352 20.3963 21.1375 19.7783C21.3428 19.1509 21.4751 18.4171 21.563 17.635C21.7387 16.0731 21.7492 14.2032 21.7499 12.3879L20.2499 12.3873Z" fill="black"/>
<path d="M14.6603 14.2019L17.664 13.3008M9.33968 14.2019L3.3324 12.3997C2.7369 12.2211 2.43915 12.1317 2.25021 11.9176C2.21341 11.8759 2.18015 11.8312 2.15078 11.784C2 11.5415 2 11.2307 2 10.6089C2 8.15877 2 6.9337 2.67298 6.10659C2.80233 5.94763 2.94763 5.80233 3.10659 5.67298C3.9337 5 5.15877 5 7.60893 5H16.3911C18.8412 5 20.0663 5 20.8934 5.67298C21.0524 5.80233 21.1977 5.94763 21.327 6.10659C22 6.9337 22 8.15877 22 10.6089C22 11.2307 22 11.5415 21.8492 11.784C21.8199 11.8312 21.7866 11.8759 21.7498 11.9176C21.5999 12.0875 21.3814 12.1789 21 12.2986" stroke="black" stroke-width="1.5" stroke-linecap="round"/>
<path d="M6.5 5C7.32344 4.97913 8.15925 4.45491 8.43944 3.68032C8.44806 3.65649 8.4569 3.62999 8.47457 3.57697L8.50023 3.5C8.54241 3.37344 8.56351 3.31014 8.58608 3.254C8.87427 2.53712 9.54961 2.05037 10.3208 2.00366C10.3812 2 10.4479 2 10.5814 2H13.4191C13.5525 2 13.6192 2 13.6796 2.00366C14.4508 2.05037 15.1262 2.53712 15.4144 3.254C15.4369 3.31014 15.458 3.37343 15.5002 3.5L15.5259 3.57697C15.5435 3.62968 15.5524 3.65656 15.561 3.68032C15.8412 4.45491 16.6766 4.97913 17.5 5" stroke="black" stroke-width="1.5"/>
<path d="M14 12.5H10C9.72386 12.5 9.5 12.7239 9.5 13V15.1615C9.5 15.3659 9.62448 15.5498 9.8143 15.6257L10.5144 15.9058C11.4681 16.2872 12.5319 16.2872 13.4856 15.9058L14.1857 15.6257C14.3755 15.5498 14.5 15.3659 14.5 15.1615V13C14.5 12.7239 14.2761 12.5 14 12.5Z" stroke="black" stroke-width="1.5" stroke-linecap="round"/>
</svg>
