<svg width="24" height="24" viewBox="0 0 24 24" fill="none" xmlns="http://www.w3.org/2000/svg">
<path fill-rule="evenodd" clip-rule="evenodd" d="M18.9553 1.25C18.5224 1.24995 18.1256 1.24991 17.8028 1.29331C17.4473 1.3411 17.0716 1.45355 16.7626 1.76257C16.4535 2.07159 16.3411 2.44732 16.2933 2.8028C16.2499 3.12561 16.25 3.52244 16.25 3.95525V17.0448C16.25 17.4776 16.2499 17.8744 16.2933 18.1972C16.3411 18.5527 16.4535 18.9284 16.7626 19.2374C17.0716 19.5465 17.4473 19.6589 17.8028 19.7067C18.1256 19.7501 18.5224 19.7501 18.9553 19.75H19.0448C19.4776 19.7501 19.8744 19.7501 20.1972 19.7067C20.5527 19.6589 20.9284 19.5465 21.2374 19.2374C21.5465 18.9284 21.6589 18.5527 21.7067 18.1972C21.7501 17.8744 21.7501 17.4776 21.75 17.0448V3.95526C21.7501 3.52245 21.7501 3.12561 21.7067 2.8028C21.6589 2.44732 21.5465 2.07159 21.2374 1.76257C20.9284 1.45355 20.5527 1.3411 20.1972 1.29331C19.8744 1.24991 19.4776 1.24995 19.0448 1.25H18.9553ZM17.8257 2.82187L17.8232 2.82324L17.8219 2.82568C17.8209 2.82761 17.8192 2.83093 17.8172 2.83597C17.8082 2.85775 17.7929 2.90611 17.7799 3.00267C17.7516 3.21339 17.75 3.5074 17.75 4.00001V17C17.75 17.4926 17.7516 17.7866 17.7799 17.9973C17.7929 18.0939 17.8082 18.1423 17.8172 18.164C17.8192 18.1691 17.8209 18.1724 17.8219 18.1743L17.8232 18.1768L17.8257 18.1781C17.8265 18.1786 17.8276 18.1791 17.8289 18.1797C17.8307 18.1806 17.8331 18.1817 17.836 18.1828C17.8578 18.1918 17.9061 18.2071 18.0027 18.2201C18.2134 18.2484 18.5074 18.25 19 18.25C19.4926 18.25 19.7866 18.2484 19.9973 18.2201C20.0939 18.2071 20.1423 18.1918 20.164 18.1828C20.1691 18.1808 20.1724 18.1792 20.1743 18.1781L20.1768 18.1768L20.1781 18.1743C20.1792 18.1724 20.1808 18.1691 20.1828 18.164C20.1918 18.1423 20.2071 18.0939 20.2201 17.9973C20.2484 17.7866 20.25 17.4926 20.25 17V4.00001C20.25 3.5074 20.2484 3.21339 20.2201 3.00267C20.2071 2.90611 20.1918 2.85775 20.1828 2.83597C20.1808 2.83093 20.1792 2.82761 20.1781 2.82568L20.1768 2.82324L20.1743 2.82187C20.1724 2.82086 20.1691 2.81924 20.164 2.81717C20.1423 2.80821 20.0939 2.79291 19.9973 2.77993C19.7866 2.7516 19.4926 2.75001 19 2.75001C18.5074 2.75001 18.2134 2.7516 18.0027 2.77993C17.9061 2.79291 17.8578 2.80821 17.836 2.81717C17.8309 2.81924 17.8276 2.82086 17.8257 2.82187Z" fill="black"/>
<path fill-rule="evenodd" clip-rule="evenodd" d="M11.9553 4.25H12.0448C12.4776 4.24995 12.8744 4.24991 13.1972 4.29331C13.5527 4.3411 13.9284 4.45355 14.2374 4.76257C14.5465 5.07159 14.6589 5.44732 14.7067 5.8028C14.7501 6.12561 14.7501 6.52243 14.75 6.95524V17.0448C14.7501 17.4776 14.7501 17.8744 14.7067 18.1972C14.6589 18.5527 14.5465 18.9284 14.2374 19.2374C13.9284 19.5465 13.5527 19.6589 13.1972 19.7067C12.8744 19.7501 12.4776 19.7501 12.0448 19.75H11.9553C11.5225 19.7501 11.1256 19.7501 10.8028 19.7067C10.4473 19.6589 10.0716 19.5465 9.76257 19.2374C9.45355 18.9284 9.3411 18.5527 9.29331 18.1972C9.24991 17.8744 9.24995 17.4776 9.25 17.0448V6.95526C9.24995 6.52244 9.24991 6.12561 9.29331 5.8028C9.3411 5.44732 9.45355 5.07159 9.76257 4.76257C10.0716 4.45355 10.4473 4.3411 10.8028 4.29331C11.1256 4.24991 11.5224 4.24995 11.9553 4.25ZM10.8232 5.82324L10.8257 5.82187L10.8234 18.1768L10.8219 18.1743C10.8209 18.1724 10.8192 18.1691 10.8172 18.164C10.8082 18.1423 10.7929 18.0939 10.7799 17.9973C10.7516 17.7866 10.75 17.4926 10.75 17V7.00001C10.75 6.5074 10.7516 6.21339 10.7799 6.00267C10.7929 5.90611 10.8082 5.85775 10.8172 5.83597C10.8192 5.83093 10.8209 5.82761 10.8219 5.82568L10.8232 5.82324ZM10.8234 18.1768L10.8257 5.82187L10.8295 5.81999L10.836 5.81717C10.8578 5.80821 10.9061 5.79291 11.0027 5.77993C11.2134 5.7516 11.5074 5.75001 12 5.75001C12.4926 5.75001 12.7866 5.7516 12.9973 5.77993C13.0939 5.79291 13.1423 5.80821 13.164 5.81717C13.1691 5.81924 13.1724 5.82086 13.1743 5.82187L13.1768 5.82324L13.1781 5.82568C13.1792 5.82761 13.1808 5.83093 13.1828 5.83597C13.1918 5.85775 13.2071 5.90611 13.2201 6.00267C13.2484 6.21339 13.25 6.5074 13.25 7.00001V17C13.25 17.4926 13.2484 17.7866 13.2201 17.9973C13.2071 18.0939 13.1918 18.1423 13.1828 18.164C13.1808 18.1691 13.1792 18.1724 13.1781 18.1743L13.1768 18.1768L13.1743 18.1781C13.1731 18.1788 13.1712 18.1797 13.1686 18.1809C13.1673 18.1815 13.1658 18.1821 13.164 18.1828C13.1423 18.1918 13.0939 18.2071 12.9973 18.2201C12.7866 18.2484 12.4926 18.25 12 18.25C11.5074 18.25 11.2134 18.2484 11.0027 18.2201C10.9061 18.2071 10.8578 18.1918 10.836 18.1828C10.8309 18.1808 10.8276 18.1792 10.8257 18.1781L10.8234 18.1768Z" fill="black"/>
<path fill-rule="evenodd" clip-rule="evenodd" d="M4.95526 8.25C4.52244 8.24995 4.12561 8.24991 3.8028 8.29331C3.44732 8.3411 3.07159 8.45355 2.76257 8.76257C2.45355 9.07159 2.3411 9.44732 2.29331 9.8028C2.24991 10.1256 2.24995 10.5224 2.25 10.9553V17.0448C2.24995 17.4776 2.24991 17.8744 2.29331 18.1972C2.3411 18.5527 2.45355 18.9284 2.76257 19.2374C3.07159 19.5465 3.44732 19.6589 3.8028 19.7067C4.12561 19.7501 4.52245 19.7501 4.95526 19.75H5.04475C5.47757 19.7501 5.8744 19.7501 6.19721 19.7067C6.5527 19.6589 6.92842 19.5465 7.23744 19.2374C7.54647 18.9284 7.65891 18.5527 7.70671 18.1972C7.75011 17.8744 7.75006 17.4776 7.75001 17.0448V10.9553C7.75006 10.5224 7.75011 10.1256 7.70671 9.8028C7.65891 9.44732 7.54647 9.07159 7.23744 8.76257C6.92842 8.45355 6.5527 8.3411 6.19721 8.29331C5.8744 8.24991 5.47757 8.24995 5.04476 8.25H4.95526ZM3.82568 9.82187L3.82324 9.82324L3.82187 9.82568C3.82086 9.82761 3.81924 9.83093 3.81717 9.83597C3.80821 9.85775 3.79291 9.90611 3.77993 10.0027C3.7516 10.2134 3.75001 10.5074 3.75001 11V17C3.75001 17.4926 3.7516 17.7866 3.77993 17.9973C3.79291 18.0939 3.80821 18.1423 3.81717 18.164C3.81924 18.1691 3.82086 18.1724 3.82187 18.1743L3.82284 18.1761L3.82568 18.1781C3.82761 18.1792 3.83093 18.1808 3.83597 18.1828C3.85775 18.1918 3.90611 18.2071 4.00267 18.2201C4.21339 18.2484 4.5074 18.25 5.00001 18.25C5.49261 18.25 5.78662 18.2484 5.99734 18.2201C6.0939 18.2071 6.14226 18.1918 6.16404 18.1828C6.16909 18.1808 6.1724 18.1792 6.17434 18.1781L6.17677 18.1768L6.17815 18.1743L6.18036 18.1698L6.18285 18.164C6.19181 18.1423 6.2071 18.0939 6.22008 17.9973C6.24841 17.7866 6.25001 17.4926 6.25001 17V11C6.25001 10.5074 6.24841 10.2134 6.22008 10.0027C6.2071 9.90611 6.19181 9.85775 6.18285 9.83597C6.18077 9.83093 6.17916 9.82761 6.17815 9.82568L6.17677 9.82324L6.17434 9.82187C6.1724 9.82086 6.16909 9.81924 6.16404 9.81717C6.14226 9.8082 6.0939 9.79291 5.99734 9.77993C5.78662 9.7516 5.49261 9.75001 5.00001 9.75001C4.5074 9.75001 4.21339 9.7516 4.00267 9.77993C3.90611 9.79291 3.85775 9.8082 3.83597 9.81717C3.83093 9.81924 3.82761 9.82086 3.82568 9.82187Z" fill="black"/>
<path d="M3.00001 21.25C2.58579 21.25 2.25001 21.5858 2.25001 22C2.25001 22.4142 2.58579 22.75 3.00001 22.75H21C21.4142 22.75 21.75 22.4142 21.75 22C21.75 21.5858 21.4142 21.25 21 21.25H3.00001Z" fill="black"/>
</svg>
