<svg width="24" height="24" viewBox="0 0 24 24" fill="none" xmlns="http://www.w3.org/2000/svg">
<path fill-rule="evenodd" clip-rule="evenodd" d="M14.2544 1.36428C13.1584 1.05835 12.132 1.38907 11.4026 2.0593C10.6845 2.71915 10.25 3.70527 10.25 4.76039V11.4549C10.25 12.7223 11.2775 13.7498 12.5449 13.7498H19.2394C20.2945 13.7498 21.2806 13.3153 21.9405 12.5972C22.6107 11.8678 22.9414 10.8414 22.6355 9.74538C21.5034 5.68978 18.31 2.49638 14.2544 1.36428ZM11.75 4.76039C11.75 4.10907 12.0201 3.52894 12.4175 3.16383C12.8035 2.80911 13.3035 2.65619 13.8511 2.80905C17.4013 3.80006 20.1997 6.59851 21.1907 10.1487C21.3436 10.6963 21.1907 11.1963 20.8359 11.5823C20.4708 11.9797 19.8907 12.2498 19.2394 12.2498H12.5449C12.1059 12.2498 11.75 11.8939 11.75 11.4549V4.76039Z" fill="black"/>
<path d="M8.67232 4.7153C9.0675 4.59118 9.28724 4.17021 9.16312 3.77503C9.039 3.37985 8.61803 3.16011 8.22285 3.28423C4.18231 4.55329 1.25 8.32769 1.25 12.7889C1.25 18.2901 5.70962 22.7498 11.2108 22.7498C15.6721 22.7498 19.4465 19.8175 20.7155 15.7769C20.8397 15.3817 20.6199 14.9608 20.2247 14.8366C19.8296 14.7125 19.4086 14.9323 19.2845 15.3274C18.2061 18.7608 14.9982 21.2498 11.2108 21.2498C6.53805 21.2498 2.75 17.4617 2.75 12.7889C2.75 9.0016 5.23899 5.79365 8.67232 4.7153Z" fill="black"/>
</svg>
