<svg width="24" height="24" viewBox="0 0 24 24" fill="none" xmlns="http://www.w3.org/2000/svg">
<path fill-rule="evenodd" clip-rule="evenodd" d="M11.5195 1.86813C10.9156 1.46779 10.3263 1.35202 9.67724 1.45602C9.1236 1.54473 8.52424 1.7983 7.88107 2.0704L7.81371 2.09889C7.19223 2.36165 6.59398 2.68356 6.02762 3.06199C4.2598 4.24321 2.88194 5.92213 2.0683 7.88643C1.25466 9.85074 1.04177 12.0122 1.45656 14.0975C1.87135 16.1828 2.89519 18.0983 4.39861 19.6017C5.90202 21.1051 7.81749 22.1289 9.90278 22.5437C11.9881 22.9585 14.1495 22.7456 16.1138 21.932C18.0782 21.1183 19.7571 19.7405 20.9383 17.9727C21.3167 17.4063 21.6386 16.8081 21.9014 16.1866L21.9299 16.1192C22.202 15.4761 22.4555 14.8767 22.5443 14.323C22.6483 13.674 22.5325 13.0847 22.1322 12.4808C21.7022 11.8323 21.1171 11.5187 20.4065 11.3767C19.7731 11.2501 18.9813 11.2502 18.0711 11.2503L16 11.2503C15.036 11.2503 14.3884 11.2487 13.9054 11.1837C13.4439 11.1217 13.2464 11.0145 13.1161 10.8842C12.9858 10.7538 12.8786 10.5564 12.8165 10.0949C12.7516 9.61185 12.75 8.96429 12.75 8.00028L12.75 5.9292C12.7501 5.01896 12.7502 4.22719 12.6236 3.59382C12.4816 2.88323 12.168 2.29805 11.5195 1.86813ZM8.39784 3.48049C9.13201 3.17008 9.56231 2.99357 9.91457 2.93712C10.1907 2.89287 10.3996 2.92544 10.6907 3.11837C10.9371 3.28171 11.0709 3.47879 11.1527 3.88777C11.2466 4.35754 11.25 4.9979 11.25 6.00028L11.25 8.05228C11.25 8.95074 11.2499 9.69998 11.3299 10.2948C11.4143 10.9226 11.6 11.4894 12.0555 11.9448C12.5109 12.4003 13.0777 12.586 13.7055 12.6704C14.3003 12.7503 15.0495 12.7503 15.948 12.7503L18 12.7503C19.0024 12.7503 19.6427 12.7537 20.1125 12.8476C20.5215 12.9293 20.7186 13.0632 20.8819 13.3096C21.0748 13.6006 21.1074 13.8095 21.0632 14.0857C21.0067 14.438 20.8302 14.8683 20.5198 15.6024C20.2937 16.1372 20.0167 16.652 19.6911 17.1393C18.6747 18.6605 17.23 19.8461 15.5398 20.5462C13.8496 21.2463 11.9897 21.4295 10.1954 21.0725C8.40109 20.7156 6.7529 19.8347 5.45927 18.541C4.16563 17.2474 3.28465 15.5992 2.92774 13.8049C2.57083 12.0105 2.75401 10.1507 3.45412 8.46046C4.15423 6.77024 5.33982 5.32559 6.86098 4.30919C7.34832 3.98356 7.86308 3.70657 8.39784 3.48049Z" fill="black"/>
<path d="M14.6869 1.58878C14.2858 1.48553 13.8769 1.72702 13.7737 2.12816C13.6704 2.5293 13.9119 2.93819 14.3131 3.04143C17.5624 3.87777 20.1223 6.43762 20.9586 9.68701C21.0619 10.0881 21.4708 10.3296 21.8719 10.2264C22.273 10.1231 22.5145 9.71426 22.4113 9.31312C21.4387 5.53447 18.4656 2.56133 14.6869 1.58878Z" fill="black"/>
</svg>
