<svg width="24" height="24" viewBox="0 0 24 24" fill="none" xmlns="http://www.w3.org/2000/svg">
<path fill-rule="evenodd" clip-rule="evenodd" d="M17.2059 1.85607C16.1431 1.43738 15.116 1.72081 14.389 2.36741C13.6798 2.99812 13.25 3.96977 13.25 4.99991V8.99991C13.25 9.9664 14.0335 10.7499 15 10.7499H19C20.0301 10.7499 21.0018 10.3201 21.6325 9.6109C22.2791 8.88387 22.5625 7.85678 22.1438 6.794C21.2558 4.53979 19.4601 2.74411 17.2059 1.85607ZM14.75 8.99991V4.99991C14.75 4.37318 15.0149 3.81818 15.3858 3.48826C15.7389 3.17423 16.1774 3.06307 16.6561 3.25167C18.5233 3.98725 20.0127 5.47661 20.7482 7.34379C20.9368 7.82255 20.8257 8.26097 20.5117 8.61406C20.1817 8.98502 19.6267 9.24991 19 9.24991H15C14.8619 9.24991 14.75 9.13798 14.75 8.99991Z" fill="black"/>
<path fill-rule="evenodd" clip-rule="evenodd" d="M10.9953 2.86985C10.3847 2.47432 9.79417 2.36045 9.1457 2.47353C8.59499 2.56955 8.00554 2.83371 7.37816 3.11487L7.31056 3.14515C6.78871 3.37886 6.28506 3.65684 5.80541 3.97733C4.11981 5.10362 2.80604 6.70445 2.03024 8.57739C1.25444 10.4503 1.05146 12.5113 1.44696 14.4996C1.84245 16.4879 2.81867 18.3143 4.25216 19.7477C5.68565 21.1812 7.51202 22.1574 9.50033 22.5529C11.4886 22.9484 13.5496 22.7455 15.4225 21.9697C17.2955 21.1939 18.8963 19.8801 20.0226 18.1945C20.3431 17.7148 20.621 17.2112 20.8547 16.6893L20.885 16.6217C21.1662 15.9944 21.4303 15.4049 21.5264 14.8542C21.6394 14.2057 21.5256 13.6152 21.1301 13.0046C20.7036 12.3465 20.1199 12.0248 19.406 11.8791C18.7721 11.7497 17.98 11.7498 17.0722 11.7499L15.5 11.7499C14.536 11.7499 13.8884 11.7483 13.4054 11.6834C12.9439 11.6213 12.7464 11.5141 12.6161 11.3838C12.4858 11.2535 12.3786 11.056 12.3165 10.5945C12.2516 10.1115 12.25 9.46391 12.25 8.49989L12.25 6.92772C12.2501 6.0199 12.2502 5.22783 12.1208 4.59394C11.9751 3.88004 11.6534 3.29625 10.9953 2.86985ZM7.92364 4.51414C8.64284 4.19206 9.05972 4.01115 9.40336 3.95123C9.66896 3.90492 9.87762 3.93306 10.1797 4.12874C10.434 4.29354 10.5687 4.49025 10.6511 4.89395C10.7464 5.36092 10.75 5.99833 10.75 6.99989L10.75 8.55189C10.75 9.45036 10.7499 10.1996 10.8299 10.7944C10.9143 11.4222 11.1 11.989 11.5555 12.4444C12.0109 12.8999 12.5777 13.0856 13.2055 13.17C13.8003 13.2499 14.5495 13.2499 15.448 13.2499L17 13.2499C18.0016 13.2499 18.639 13.2535 19.1059 13.3488C19.5096 13.4312 19.7064 13.5659 19.8712 13.8202C20.0668 14.1223 20.095 14.3309 20.0487 14.5965C19.9887 14.9402 19.8078 15.3571 19.4858 16.0763C19.2863 16.5217 19.049 16.9517 18.7754 17.3611C17.8139 18.8001 16.4473 19.9216 14.8485 20.5838C13.2496 21.2461 11.4903 21.4194 9.79296 21.0818C8.09563 20.7441 6.53653 19.9108 5.31282 18.6871C4.08911 17.4634 3.25575 15.9043 2.91813 14.2069C2.58051 12.5096 2.75379 10.7503 3.41606 9.15141C4.07833 7.55256 5.19983 6.186 6.63876 5.22454C7.04824 4.95093 7.47817 4.71364 7.92364 4.51414Z" fill="black"/>
</svg>
