<svg width="24" height="24" viewBox="0 0 24 24" fill="none" xmlns="http://www.w3.org/2000/svg">
<path d="M14.381 11.0272C14.9767 10.8191 15.6178 10.7059 16.2857 10.7059C16.9404 10.7059 17.5693 10.8147 18.1551 11.015M7.11616 13.6089C6.8475 13.5567 6.56983 13.5294 6.28571 13.5294C3.91878 13.5294 2 15.4256 2 17.7647C2 20.1038 3.91878 22 6.28571 22H16.2857C19.4416 22 22 19.4717 22 16.3529C22 13.8811 20.393 11.7802 18.1551 11.015M7.11616 13.6089C6.88706 12.9978 6.7619 12.3369 6.7619 11.6471C6.7619 8.52827 9.32028 6 12.4762 6C15.4159 6 17.8371 8.19371 18.1551 11.015M7.11616 13.6089C7.68058 13.7184 8.20528 13.9374 8.66667 14.2426" stroke="black" stroke-width="1.5" stroke-linecap="round"/>
<path opacity="0.5" d="M8 4.5C6.067 4.5 4.5 6.067 4.5 8C4.5 9.3962 5.31753 10.6015 6.5 11.1632M8 4.5C8.74362 4.5 9.43308 4.73191 10 5.12734M8 4.5C7.25638 4.5 6.56692 4.73191 6 5.12734M8 4.5C8.95365 4.5 9.81822 4.88141 10.4495 5.5M8 4.5C7.04635 4.5 6.18178 4.88141 5.55051 5.5M8 4.5C9.27316 4.5 10.3876 5.17979 11 6.19621" stroke="black" stroke-width="1.5"/>
<path opacity="0.5" d="M7.5 2V2.5" stroke="black" stroke-width="1.5" stroke-linecap="round"/>
<path opacity="0.5" d="M2.5 7.5L2 7.5" stroke="black" stroke-width="1.5" stroke-linecap="round"/>
<path opacity="0.5" d="M11.3887 3.61084L11.1726 3.8269" stroke="black" stroke-width="1.5" stroke-linecap="round"/>
<path opacity="0.5" d="M3.82727 11.1729L3.61121 11.3889" stroke="black" stroke-width="1.5" stroke-linecap="round"/>
<path opacity="0.5" d="M3.82727 3.82715L3.61121 3.61109" stroke="black" stroke-width="1.5" stroke-linecap="round"/>
</svg>
