<svg width="24" height="24" viewBox="0 0 24 24" fill="none" xmlns="http://www.w3.org/2000/svg">
<path opacity="0.5" d="M3.46447 20.5355C4.92893 22 7.28595 22 12 22C16.714 22 19.0711 22 20.5355 20.5355C22 19.0711 22 16.714 22 12C22 7.28595 22 4.92893 20.5355 3.46447C19.0711 2 16.714 2 12 2C7.28595 2 4.92893 2 3.46447 3.46447C2 4.92893 2 7.28595 2 12C2 16.714 2 19.0711 3.46447 20.5355Z" fill="black"/>
<path d="M12.75 6.5C12.75 6.08579 12.4142 5.75 12 5.75C11.5858 5.75 11.25 6.08579 11.25 6.5V12.5C11.25 14.2949 9.79493 15.75 8 15.75H7.81066L8.03033 15.5303C8.32322 15.2374 8.32322 14.7626 8.03033 14.4697C7.73744 14.1768 7.26256 14.1768 6.96967 14.4697L5.46967 15.9697C5.17678 16.2626 5.17678 16.7374 5.46967 17.0303L6.96967 18.5303C7.26256 18.8232 7.73744 18.8232 8.03033 18.5303C8.32322 18.2374 8.32322 17.7626 8.03033 17.4697L7.81066 17.25H8C9.67947 17.25 11.1554 16.3784 12 15.0628C12.8446 16.3784 14.3205 17.25 16 17.25H16.1893L15.9697 17.4697C15.6768 17.7626 15.6768 18.2374 15.9697 18.5303C16.2626 18.8232 16.7374 18.8232 17.0303 18.5303L18.5303 17.0303C18.8232 16.7374 18.8232 16.2626 18.5303 15.9697L17.0303 14.4697C16.7374 14.1768 16.2626 14.1768 15.9697 14.4697C15.6768 14.7626 15.6768 15.2374 15.9697 15.5303L16.1893 15.75H16C14.2051 15.75 12.75 14.2949 12.75 12.5V6.5Z" fill="black"/>
</svg>
