<svg width="24" height="24" viewBox="0 0 24 24" fill="none" xmlns="http://www.w3.org/2000/svg">
<path opacity="0.5" d="M12 22C17.5228 22 22 17.5228 22 12C22 6.47715 17.5228 2 12 2C6.47715 2 2 6.47715 2 12C2 17.5228 6.47715 22 12 22Z" fill="black"/>
<path d="M13.024 14.5601C13.5166 14.363 13.763 14.2645 13.9562 14.095C14.0055 14.0518 14.0518 14.0055 14.095 13.9562C14.2645 13.763 14.363 13.5166 14.5601 13.024C15.484 10.7142 15.946 9.5593 15.4977 8.89964C15.3914 8.74324 15.2565 8.60834 15.1001 8.50206C14.4405 8.0538 13.2856 8.51575 10.9758 9.43966C10.4831 9.63673 10.2368 9.73527 10.0435 9.90474C9.99429 9.94792 9.94792 9.99429 9.90474 10.0435C9.73527 10.2368 9.63673 10.4831 9.43966 10.9758C8.51575 13.2856 8.0538 14.4405 8.50206 15.1001C8.60834 15.2565 8.74324 15.3914 8.89964 15.4977C9.5593 15.946 10.7142 15.484 13.024 14.5601Z" fill="black"/>
</svg>
