<svg width="24" height="24" viewBox="0 0 24 24" fill="none" xmlns="http://www.w3.org/2000/svg">
<path opacity="0.5" fill-rule="evenodd" clip-rule="evenodd" d="M14.7898 18.9746C8.49749 21.4915 5.35132 22.75 3.55428 21.5288C3.1282 21.2393 2.76071 20.8718 2.47117 20.4457C1.25001 18.6487 2.50848 15.5025 5.02542 9.21017C5.56228 7.86802 5.8307 7.19695 6.29238 6.67048C6.41002 6.53633 6.53633 6.41002 6.67048 6.29238C7.19695 5.8307 7.86802 5.56228 9.21017 5.02542C15.5025 2.50848 18.6487 1.25001 20.4457 2.47117C20.8718 2.7607 21.2393 3.1282 21.5288 3.55428C22.75 5.35132 21.4915 8.49749 18.9746 14.7898C18.4377 16.132 18.1693 16.8031 17.7076 17.3295C17.59 17.4637 17.4637 17.59 17.3295 17.7076C16.8031 18.1693 16.132 18.4377 14.7898 18.9746Z" fill="black"/>
<path d="M12 8.25C9.92893 8.25 8.25 9.92893 8.25 12C8.25 14.0711 9.92893 15.75 12 15.75C14.0711 15.75 15.75 14.0711 15.75 12C15.75 9.92893 14.0711 8.25 12 8.25Z" fill="black"/>
</svg>
