<svg width="24" height="24" viewBox="0 0 24 24" fill="none" xmlns="http://www.w3.org/2000/svg">
<path opacity="0.5" d="M3 13.0368C3 11.9338 3 11.3823 3.39264 11.0607C3.53204 10.9465 3.70147 10.8551 3.89029 10.7922C4.42213 10.6151 5.12109 10.7895 6.51901 11.1383C7.58626 11.4046 8.11989 11.5377 8.6591 11.5239C8.85714 11.5189 9.05401 11.4991 9.24685 11.465C9.77191 11.3721 10.2399 11.1386 11.176 10.6715L12.5583 9.98161C13.7574 9.38327 14.3569 9.0841 15.0451 9.01511C15.7333 8.94613 16.4168 9.11668 17.7839 9.45779L18.9487 9.74842C19.9387 9.99544 20.4337 10.119 20.7169 10.413C21 10.707 21 11.0976 21 11.8788V17.9632C21 19.0662 21 19.6177 20.6074 19.9393C20.468 20.0535 20.2985 20.1449 20.1097 20.2078C19.5779 20.3849 18.8789 20.2105 17.481 19.8617C16.4137 19.5954 15.8801 19.4623 15.3409 19.4761C15.1429 19.4811 14.946 19.5009 14.7532 19.535C14.2281 19.6279 13.7601 19.8614 12.824 20.3285L11.4417 21.0184C10.2426 21.6167 9.64311 21.9159 8.95493 21.9849C8.26674 22.0539 7.58319 21.8833 6.21609 21.5422L5.05132 21.2516C4.06129 21.0046 3.56627 20.881 3.28314 20.587C3 20.293 3 19.9024 3 19.1212V13.0368Z" fill="black"/>
<path fill-rule="evenodd" clip-rule="evenodd" d="M12 2C8.68629 2 6 4.55211 6 7.70031C6 10.8238 7.91499 14.4687 10.9028 15.7721C11.5993 16.076 12.4007 16.076 13.0972 15.7721C16.085 14.4687 18 10.8238 18 7.70031C18 4.55211 15.3137 2 12 2ZM12 10C13.1046 10 14 9.10457 14 8C14 6.89543 13.1046 6 12 6C10.8954 6 10 6.89543 10 8C10 9.10457 10.8954 10 12 10Z" fill="black"/>
</svg>
