<svg width="24" height="24" viewBox="0 0 24 24" fill="none" xmlns="http://www.w3.org/2000/svg">
<path opacity="0.5" fill-rule="evenodd" clip-rule="evenodd" d="M12 2C10.2843 2 8.90356 3.38071 6.14214 6.14214C3.38071 8.90356 2 10.2843 2 12C2 13.7157 3.38071 15.0964 6.14214 17.8579C8.90356 20.6193 10.2843 22 12 22C13.7157 22 15.0964 20.6193 17.8579 17.8579C20.6193 15.0964 22 13.7157 22 12C22 10.2843 20.6193 8.90356 17.8579 6.14214C15.0964 3.38071 13.7157 2 12 2Z" fill="black"/>
<path fill-rule="evenodd" clip-rule="evenodd" d="M12.7862 8.48705C13.0695 8.18486 13.5441 8.16955 13.8463 8.45285L16.513 10.9528C16.6642 11.0946 16.75 11.2927 16.75 11.5C16.75 11.7073 16.6642 11.9054 16.513 12.0472L13.8463 14.5472C13.5441 14.8305 13.0695 14.8151 12.7862 14.513C12.5029 14.2108 12.5182 13.7361 12.8204 13.4528L14.1034 12.25H10.6667C10.3329 12.25 9.8225 12.3497 9.4196 12.6216C9.05681 12.8665 8.75 13.2655 8.75 14C8.75 14.4142 8.41421 14.75 8 14.75C7.58579 14.75 7.25 14.4142 7.25 14C7.25 12.7345 7.83208 11.8835 8.5804 11.3784C9.28861 10.9003 10.1116 10.75 10.6667 10.75L14.1034 10.75L12.8204 9.54716C12.5182 9.26386 12.5029 8.78923 12.7862 8.48705Z" fill="black"/>
</svg>
