<svg width="24" height="24" viewBox="0 0 24 24" fill="none" xmlns="http://www.w3.org/2000/svg">
<path opacity="0.5" fill-rule="evenodd" clip-rule="evenodd" d="M12.75 2C12.75 1.58579 12.4142 1.25 12 1.25C11.5858 1.25 11.25 1.58579 11.25 2V3.5H12.75V2ZM11.25 10.5V12.5H12.75V10.5H11.25ZM11.25 21.25V19.5H12.75V21.25H14C14.4142 21.25 14.75 21.5858 14.75 22C14.75 22.4142 14.4142 22.75 14 22.75H10C9.58579 22.75 9.25 22.4142 9.25 22C9.25 21.5858 9.58579 21.25 10 21.25H11.25Z" fill="black"/>
<path fill-rule="evenodd" clip-rule="evenodd" d="M17.4995 3.5H6.7035C6.04593 3.5 5.71715 3.5 5.41544 3.5982C5.28233 3.64152 5.15414 3.6987 5.03298 3.76879C4.75833 3.92767 4.53866 4.1723 4.09933 4.66156C3.24863 5.60893 2.82327 6.08262 2.72087 6.63619C2.67638 6.87669 2.67638 7.12331 2.72087 7.36381C2.82327 7.91738 3.24862 8.39107 4.09932 9.33844C4.53866 9.8277 4.75833 10.0723 5.03298 10.2312C5.15414 10.3013 5.28233 10.3585 5.41544 10.4018C5.71715 10.5 6.04593 10.5 6.7035 10.5H17.4995C18.904 10.5 19.6062 10.5 20.1106 10.1629C20.329 10.017 20.5165 9.82952 20.6624 9.61114C20.9995 9.10669 20.9995 8.40446 20.9995 7C20.9995 5.59554 20.9995 4.89331 20.6624 4.38886C20.5165 4.17048 20.329 3.98298 20.1106 3.83706C19.6062 3.5 18.904 3.5 17.4995 3.5ZM9 6.25C8.58579 6.25 8.25 6.58579 8.25 7C8.25 7.41421 8.58579 7.75 9 7.75H15C15.4142 7.75 15.75 7.41421 15.75 7C15.75 6.58579 15.4142 6.25 15 6.25H9Z" fill="black"/>
<path fill-rule="evenodd" clip-rule="evenodd" d="M17.2955 12.5H6.49951C5.09505 12.5 4.39282 12.5 3.88837 12.8371C3.66999 12.983 3.48249 13.1705 3.33657 13.3889C2.99951 13.8933 2.99951 14.5955 2.99951 16C2.99951 17.4045 2.99951 18.1067 3.33657 18.6111C3.48249 18.8295 3.66999 19.017 3.88837 19.1629C4.39282 19.5 5.09505 19.5 6.49951 19.5H17.2955C17.9531 19.5 18.2819 19.5 18.5836 19.4018C18.7167 19.3585 18.8449 19.3013 18.966 19.2312C19.2407 19.0723 19.4604 18.8277 19.8997 18.3384C20.7504 17.3911 21.1757 16.9174 21.2781 16.3638C21.3226 16.1233 21.3226 15.8767 21.2781 15.6362C21.1757 15.0826 20.7504 14.6089 19.8997 13.6616C19.4604 13.1723 19.2407 12.9277 18.966 12.7688C18.8449 12.6987 18.7167 12.6415 18.5836 12.5982C18.2819 12.5 17.9531 12.5 17.2955 12.5ZM8.25 16C8.25 15.5858 8.58579 15.25 9 15.25H15C15.4142 15.25 15.75 15.5858 15.75 16C15.75 16.4142 15.4142 16.75 15 16.75H9C8.58579 16.75 8.25 16.4142 8.25 16Z" fill="black"/>
</svg>
