<svg width="24" height="24" viewBox="0 0 24 24" fill="none" xmlns="http://www.w3.org/2000/svg">
<path fill-rule="evenodd" clip-rule="evenodd" d="M12 2C16.714 2 19.0711 2 20.5355 3.46447C21.0394 3.96833 21.3699 4.57786 21.5867 5.3527L5.3527 21.5867C4.57786 21.3699 3.96833 21.0394 3.46447 20.5355C2 19.0711 2 16.714 2 12C2 7.28595 2 4.92893 3.46447 3.46447C4.92893 2 7.28595 2 12 2ZM5.5 8.75732C5.5 10.5422 6.61708 12.625 8.35997 13.3698C8.76626 13.5434 9.23374 13.5434 9.64003 13.3698C11.3829 12.625 12.5 10.5422 12.5 8.75732C12.5 6.95835 10.933 5.5 9 5.5C7.067 5.5 5.5 6.95835 5.5 8.75732Z" fill="black"/>
<path d="M10.5 9C10.5 9.82843 9.82843 10.5 9 10.5C8.17157 10.5 7.5 9.82843 7.5 9C7.5 8.17157 8.17157 7.5 9 7.5C9.82843 7.5 10.5 8.17157 10.5 9Z" fill="black"/>
<g opacity="0.5">
<path d="M21.8893 7.17188C22.0002 8.43338 22.0002 10.0059 22.0002 12.0002C22.0002 16.1339 22.0002 18.4552 21.0128 19.9515L15.0613 14L21.8893 7.17188Z" fill="black"/>
<path d="M19.9523 21.0123L14.0006 15.0607L7.17188 21.8893C8.43338 22.0002 10.0059 22.0002 12.0002 22.0002C16.1346 22.0002 18.4559 22.0002 19.9523 21.0123Z" fill="black"/>
</g>
</svg>
