<svg width="24" height="24" viewBox="0 0 24 24" fill="none" xmlns="http://www.w3.org/2000/svg">
<path fill-rule="evenodd" clip-rule="evenodd" d="M6.85929 1.25001C6.88904 1.25001 6.91919 1.25002 6.94976 1.25002L6.98675 1.25001C7.33818 1.24999 7.56433 1.24998 7.78542 1.27065C8.7367 1.35961 9.63905 1.73337 10.3746 2.34313C10.5456 2.48485 10.7055 2.64477 10.954 2.89329L11.5303 3.46969C12.3761 4.3154 12.7012 4.6311 13.0768 4.84005C13.2948 4.96134 13.526 5.05713 13.766 5.12552C14.1793 5.24333 14.6324 5.25002 15.8284 5.25002L16.253 5.25002C17.526 5.25 18.5521 5.24998 19.364 5.35206C20.2054 5.45784 20.9204 5.68358 21.5077 6.21185C21.6061 6.30032 21.6997 6.39394 21.7882 6.49231C22.3165 7.07965 22.5422 7.79459 22.648 8.63601C22.75 9.4479 22.75 10.4741 22.75 11.747V14.0564C22.75 15.8942 22.75 17.3498 22.5969 18.489C22.4393 19.6615 22.1071 20.6104 21.3588 21.3588C20.6104 22.1071 19.6615 22.4393 18.489 22.5969C17.3498 22.75 15.8942 22.75 14.0564 22.75H9.94361C8.10584 22.75 6.65021 22.75 5.51099 22.5969C4.33857 22.4393 3.38962 22.1071 2.64126 21.3588C1.8929 20.6104 1.56078 19.6615 1.40315 18.489C1.24999 17.3498 1.25 15.8942 1.25002 14.0564L1.25002 6.94976C1.25002 6.91919 1.25001 6.88904 1.25001 6.85929C1.2499 6.06338 1.24982 5.55685 1.33237 5.11935C1.6949 3.19788 3.19788 1.6949 5.11935 1.33237C5.55685 1.24982 6.06338 1.2499 6.85929 1.25001ZM6.94976 2.75002C6.03312 2.75002 5.67873 2.75329 5.39746 2.80636C4.08277 3.05441 3.05441 4.08277 2.80636 5.39746C2.75329 5.67873 2.75002 6.03312 2.75002 6.94976V14C2.75002 15.9068 2.75161 17.2615 2.88978 18.2892C3.02504 19.2953 3.27871 19.8749 3.70192 20.2981C4.12513 20.7213 4.70478 20.975 5.71087 21.1103C6.73853 21.2484 8.0932 21.25 10 21.25H14C15.9068 21.25 17.2615 21.2484 18.2892 21.1103C19.2953 20.975 19.8749 20.7213 20.2981 20.2981C20.7213 19.8749 20.975 19.2953 21.1103 18.2892C21.2484 17.2615 21.25 15.9068 21.25 14V11.7979C21.25 10.4621 21.2486 9.5305 21.1597 8.82312C21.0731 8.13448 20.9141 7.76356 20.6729 7.49539C20.6198 7.43637 20.5637 7.3802 20.5046 7.32712C20.2365 7.08592 19.8656 6.92692 19.1769 6.84034C18.4695 6.75141 17.538 6.75002 16.2021 6.75002H15.8284C15.7912 6.75002 15.7545 6.75002 15.7182 6.75003C14.6702 6.75025 13.9944 6.75038 13.3548 6.56806C13.0041 6.46811 12.6661 6.32811 12.3475 6.15083C11.7663 5.82747 11.2885 5.3495 10.5476 4.60833C10.522 4.58265 10.496 4.55666 10.4697 4.53035L9.91943 3.98009C9.63616 3.69682 9.52778 3.58951 9.41731 3.49793C8.91403 3.08073 8.29664 2.825 7.64576 2.76413C7.50289 2.75077 7.35038 2.75002 6.94976 2.75002ZM12 11.0345C11.9419 11.1352 11.8772 11.251 11.8011 11.3877L11.7027 11.5641C11.6958 11.5765 11.6884 11.5901 11.6804 11.6047C11.6019 11.7483 11.4718 11.9861 11.255 12.1507C11.0336 12.3188 10.7673 12.3766 10.6116 12.4104C10.596 12.4138 10.5815 12.4169 10.5683 12.4199L10.3774 12.4631C10.2022 12.5028 10.0595 12.5351 9.93752 12.5658C10.0169 12.6635 10.12 12.7848 10.254 12.9416L10.3842 13.0937C10.3934 13.1045 10.4035 13.1161 10.4142 13.1284C10.5221 13.2527 10.6964 13.4535 10.7769 13.7126C10.8566 13.9687 10.8291 14.2324 10.8118 14.3988C10.8101 14.4154 10.8084 14.4311 10.807 14.4456L10.7873 14.6487C10.7691 14.8369 10.7549 14.9872 10.7455 15.1094C10.8497 15.0635 10.9682 15.009 11.109 14.9441L11.2878 14.8618C11.3001 14.8561 11.3136 14.8498 11.3282 14.8429C11.4717 14.7752 11.7213 14.6575 12 14.6575C12.2787 14.6575 12.5284 14.7752 12.6719 14.8429C12.6865 14.8498 12.6999 14.8561 12.7122 14.8618L12.891 14.9441C13.0318 15.009 13.1504 15.0635 13.2546 15.1094C13.2451 14.9872 13.2309 14.8369 13.2127 14.6487L13.193 14.4456C13.1916 14.4311 13.19 14.4154 13.1883 14.3988C13.1709 14.2324 13.1435 13.9687 13.2231 13.7126C13.3037 13.4535 13.4779 13.2527 13.5859 13.1284C13.5966 13.1161 13.6066 13.1045 13.6158 13.0937L13.746 12.9416C13.8801 12.7848 13.9832 12.6635 14.0625 12.5658C13.9405 12.5351 13.7978 12.5028 13.6226 12.4631L13.4317 12.4199C13.4185 12.4169 13.404 12.4138 13.3884 12.4104C13.2327 12.3766 12.9664 12.3188 12.745 12.1507C12.5282 11.9861 12.3982 11.7483 12.3196 11.6047C12.3117 11.5901 12.3042 11.5765 12.2973 11.5641L12.199 11.3877C12.1228 11.251 12.0581 11.1352 12 11.0345ZM11.0135 9.79965C11.1857 9.57483 11.4983 9.25002 12 9.25002C12.5017 9.25002 12.8144 9.57483 12.9865 9.79965C13.1508 10.0142 13.3163 10.3113 13.486 10.6158C13.4937 10.6296 13.5014 10.6435 13.5092 10.6574L13.6075 10.8337C13.6303 10.8746 13.6482 10.9068 13.6639 10.9343C13.6912 10.9407 13.723 10.9479 13.7628 10.9569L13.9537 11.0001C13.9693 11.0037 13.9849 11.0072 14.0006 11.0107C14.3284 11.0848 14.6542 11.1584 14.9043 11.257C15.1804 11.3658 15.5547 11.5777 15.699 12.0416C15.8407 12.4974 15.6618 12.8834 15.5057 13.1315C15.3611 13.3611 15.1414 13.6179 14.9165 13.8808C14.9063 13.8926 14.8962 13.9045 14.886 13.9164L14.7558 14.0686C14.7214 14.109 14.6954 14.1394 14.6735 14.1657C14.6765 14.202 14.6805 14.2443 14.686 14.3009L14.7057 14.504C14.7072 14.5195 14.7087 14.535 14.7102 14.5504C14.7444 14.9023 14.7774 15.2424 14.7653 15.5145C14.7526 15.7997 14.6841 16.2315 14.297 16.5255C13.8975 16.8287 13.4564 16.7626 13.1767 16.6824C12.919 16.6086 12.6144 16.4683 12.3077 16.3269C12.293 16.3202 12.2783 16.3134 12.2636 16.3066L12.0849 16.2243C12.0515 16.2089 12.024 16.1963 12 16.1854C11.9761 16.1963 11.9486 16.2089 11.9151 16.2243L11.7364 16.3066C11.7217 16.3134 11.707 16.3202 11.6923 16.3269C11.3856 16.4683 11.0811 16.6086 10.8233 16.6824C10.5436 16.7626 10.1025 16.8287 9.70308 16.5255C9.31591 16.2315 9.24745 15.7997 9.23474 15.5145C9.22262 15.2424 9.25565 14.9023 9.28983 14.5504C9.29133 14.535 9.29283 14.5195 9.29433 14.504L9.31401 14.3009C9.31949 14.2443 9.32358 14.202 9.32656 14.1657C9.30467 14.1394 9.27868 14.109 9.24419 14.0686L9.11405 13.9164C9.10386 13.9045 9.09369 13.8926 9.08352 13.8808C8.85861 13.6179 8.63892 13.3611 8.49437 13.1315C8.33819 12.8834 8.15935 12.4974 8.30107 12.0416C8.44533 11.5777 8.81964 11.3658 9.09578 11.257C9.34586 11.1584 9.67164 11.0848 9.99945 11.0107C10.0151 11.0072 10.0307 11.0037 10.0464 11.0001L10.2373 10.9569C10.277 10.9479 10.3088 10.9407 10.3361 10.9343C10.3518 10.9068 10.3698 10.8746 10.3926 10.8337L10.4909 10.6574C10.4986 10.6435 10.5063 10.6296 10.514 10.6158C10.6837 10.3113 10.8492 10.0142 11.0135 9.79965Z" fill="black"/>
</svg>
