<svg width="24" height="24" viewBox="0 0 24 24" fill="none" xmlns="http://www.w3.org/2000/svg">
<path fill-rule="evenodd" clip-rule="evenodd" d="M8.38787 1.25001C8.41314 1.25002 8.43879 1.25002 8.46482 1.25002L8.49629 1.25002C8.73683 1.24999 8.90281 1.24998 9.06578 1.26413C9.765 1.32484 10.4341 1.58024 10.9846 2.00404C11.1131 2.10295 11.2328 2.21411 11.4016 2.37091L11.8103 2.75043C12.4107 3.30791 12.6127 3.48689 12.8427 3.60572C12.9815 3.67741 13.1296 3.73449 13.2842 3.77539C13.5441 3.8442 13.8327 3.85002 14.6799 3.85002L14.9872 3.85002C15.8696 3.85 16.5971 3.84998 17.1763 3.9176C17.7797 3.98804 18.3261 4.14122 18.7851 4.52453C18.8603 4.58731 18.932 4.65395 19.0001 4.72421C19.4228 5.16067 19.5969 5.69051 19.6759 6.2736C19.7501 6.82141 19.75 7.50567 19.75 8.31767V9.85739C19.75 11.0342 19.7501 11.9985 19.6397 12.7604C19.5237 13.5622 19.2723 14.2476 18.6902 14.7881C18.1161 15.3213 17.4013 15.5447 16.5653 15.6491C15.7563 15.7501 14.7276 15.75 13.4511 15.75H12.75V17.3535C13.6658 17.6126 14.3875 18.3342 14.6465 19.25H22C22.4142 19.25 22.75 19.5858 22.75 20C22.75 20.4142 22.4142 20.75 22 20.75H14.6465C14.32 21.9043 13.2588 22.75 12 22.75C10.7412 22.75 9.67998 21.9043 9.35352 20.75H2C1.58579 20.75 1.25 20.4142 1.25 20C1.25 19.5858 1.58579 19.25 2 19.25H9.35352C9.61255 18.3342 10.3342 17.6126 11.25 17.3535V15.75H10.5489C9.27237 15.75 8.24374 15.7501 7.43473 15.6491C6.59872 15.5447 5.88393 15.3213 5.30976 14.7881C4.7277 14.2476 4.47635 13.5622 4.36025 12.7604C4.24995 11.9986 4.24997 11.0342 4.25 9.85743L4.25 5.21736C4.25 5.18985 4.24999 5.16276 4.24998 5.13606C4.2498 4.64149 4.24967 4.2831 4.31356 3.96863C4.59426 2.58717 5.74344 1.55303 7.15144 1.30635C7.47417 1.24981 7.84431 1.24989 8.38787 1.25001ZM13.4 14.25C14.7397 14.25 15.6743 14.2486 16.3794 14.1606C17.0684 14.0746 17.4236 13.9173 17.6696 13.6889C17.9076 13.4679 18.0663 13.1597 18.1552 12.5455C18.2482 11.9036 18.25 11.0485 18.25 9.80002V8.36866C18.25 7.492 18.2484 6.91016 18.1895 6.47486C18.1337 6.0634 18.0385 5.88744 17.9227 5.76782C17.8916 5.73577 17.8585 5.70504 17.8236 5.67582C17.6836 5.55897 17.47 5.46207 17.0023 5.40748C16.5205 5.35122 15.8811 5.35002 14.9415 5.35002H14.6799C14.648 5.35002 14.6165 5.35003 14.5854 5.35004C13.8689 5.35027 13.3725 5.35043 12.9003 5.22546C12.6415 5.15694 12.3911 5.06075 12.1542 4.93838C11.7198 4.71393 11.363 4.38241 10.8581 3.91318C10.8356 3.89227 10.8128 3.87108 10.7897 3.84962L10.4045 3.49195C10.2031 3.30494 10.1364 3.24405 10.0697 3.19267C9.75305 2.94894 9.35832 2.79517 8.93602 2.7585C8.84587 2.75068 8.74845 2.75002 8.46482 2.75002C7.81528 2.75002 7.58716 2.75286 7.4103 2.78385C6.55299 2.93405 5.93024 3.54527 5.78353 4.26731C5.75378 4.41371 5.75 4.60711 5.75 5.21736V9.80002C5.75 11.0485 5.75184 11.9036 5.84477 12.5455C5.9337 13.1597 6.0924 13.4679 6.33044 13.6889C6.57637 13.9173 6.9316 14.0746 7.62055 14.1606C8.32572 14.2486 9.26034 14.25 10.6 14.25H13.4ZM12.75 7.50002C12.75 7.08581 13.0858 6.75002 13.5 6.75002H16.5C16.9142 6.75002 17.25 7.08581 17.25 7.50002C17.25 7.91424 16.9142 8.25002 16.5 8.25002H13.5C13.0858 8.25002 12.75 7.91424 12.75 7.50002ZM12 18.75C11.3096 18.75 10.75 19.3097 10.75 20C10.75 20.6904 11.3096 21.25 12 21.25C12.6904 21.25 13.25 20.6904 13.25 20C13.25 19.3097 12.6904 18.75 12 18.75Z" fill="black"/>
</svg>
