<svg width="24" height="24" viewBox="0 0 24 24" fill="none" xmlns="http://www.w3.org/2000/svg">
<path fill-rule="evenodd" clip-rule="evenodd" d="M6.85927 1.25001C6.88902 1.25001 6.91918 1.25002 6.94975 1.25002L6.98674 1.25001C7.33817 1.24999 7.56431 1.24998 7.7854 1.27065C8.73668 1.35961 9.63903 1.73337 10.3746 2.34313C10.5455 2.48485 10.7055 2.64477 10.9539 2.89329L11.5303 3.46969C12.376 4.3154 12.7012 4.6311 13.0768 4.84005C13.2948 4.96134 13.526 5.05713 13.7659 5.12552C14.1793 5.24333 14.6324 5.25002 15.8284 5.25002L16.253 5.25002C17.5259 5.25 18.5521 5.24998 19.364 5.35206C20.2054 5.45784 20.9204 5.68358 21.5077 6.21185C21.6061 6.30032 21.6997 6.39394 21.7882 6.49231C22.3164 7.07965 22.5422 7.79459 22.648 8.63601C22.75 9.4479 22.75 10.4741 22.75 11.747V14.0564C22.75 15.8942 22.75 17.3498 22.5969 18.489C22.4392 19.6615 22.1071 20.6104 21.3588 21.3588C20.6104 22.1071 19.6614 22.4393 18.489 22.5969C17.3498 22.75 15.8942 22.75 14.0564 22.75H9.94359C8.10583 22.75 6.65019 22.75 5.51098 22.5969C4.33856 22.4393 3.38961 22.1071 2.64124 21.3588C1.89288 20.6104 1.56076 19.6615 1.40314 18.489C1.24997 17.3498 1.24999 15.8942 1.25 14.0564L1.25 6.94976C1.25 6.91919 1.25 6.88904 1.24999 6.85929C1.24988 6.06338 1.24981 5.55685 1.33235 5.11935C1.69489 3.19788 3.19787 1.6949 5.11933 1.33237C5.55684 1.24982 6.06336 1.2499 6.85927 1.25001ZM6.94975 2.75002C6.03311 2.75002 5.67871 2.75329 5.39744 2.80636C4.08275 3.05441 3.0544 4.08277 2.80635 5.39746C2.75328 5.67873 2.75 6.03312 2.75 6.94976V14C2.75 15.9068 2.75159 17.2615 2.88976 18.2892C3.02503 19.2953 3.27869 19.8749 3.7019 20.2981C4.12511 20.7213 4.70476 20.975 5.71085 21.1103C6.73851 21.2484 8.09318 21.25 10 21.25H14C15.9068 21.25 17.2615 21.2484 18.2892 21.1103C19.2952 20.975 19.8749 20.7213 20.2981 20.2981C20.7213 19.8749 20.975 19.2953 21.1102 18.2892C21.2484 17.2615 21.25 15.9068 21.25 14V11.7979C21.25 10.4621 21.2486 9.5305 21.1597 8.82312C21.0731 8.13448 20.9141 7.76356 20.6729 7.49539C20.6198 7.43637 20.5637 7.3802 20.5046 7.32712C20.2365 7.08592 19.8655 6.92692 19.1769 6.84034C18.4695 6.75141 17.5379 6.75002 16.2021 6.75002H15.8284C15.7912 6.75002 15.7545 6.75002 15.7182 6.75003C14.6702 6.75025 13.9944 6.75038 13.3548 6.56806C13.0041 6.46811 12.6661 6.32811 12.3475 6.15083C11.7663 5.82747 11.2885 5.3495 10.5476 4.60833C10.522 4.58265 10.496 4.55666 10.4697 4.53035L9.91942 3.98009C9.63614 3.69682 9.52776 3.58951 9.41729 3.49793C8.91402 3.08073 8.29662 2.825 7.64574 2.76413C7.50288 2.75077 7.35037 2.75002 6.94975 2.75002ZM12.25 10C12.25 9.5858 12.5858 9.25002 13 9.25002H18C18.4142 9.25002 18.75 9.5858 18.75 10C18.75 10.4142 18.4142 10.75 18 10.75H13C12.5858 10.75 12.25 10.4142 12.25 10Z" fill="black"/>
</svg>
