<svg width="24" height="24" viewBox="0 0 24 24" fill="none" xmlns="http://www.w3.org/2000/svg">
<path fill-rule="evenodd" clip-rule="evenodd" d="M22 6.1875V8.3C22 9.95685 20.5778 11.3 18.8235 11.3C18.2388 11.3 17.7647 11.7477 17.7647 12.3V17.25H13V8.3125C13 8.02234 13 7.87726 13.0064 7.75466C13.14 5.18614 15.3147 3.13221 18.0343 3.00602C18.1642 3 18.3178 3 18.625 3C18.8093 3 18.9015 3 18.9794 3.00361C20.6112 3.07932 21.916 4.31169 21.9962 5.8528C22 5.92634 22 6.01349 22 6.1875ZM20.25 6C20.25 5.58579 19.9142 5.25 19.5 5.25C19.0858 5.25 18.75 5.58579 18.75 6V8.5C18.75 8.91421 19.0858 9.25 19.5 9.25C19.9142 9.25 20.25 8.91421 20.25 8.5V6Z" fill="black"/>
<path d="M15.3824 21C14.0666 21 13 19.9926 13 18.75H17.7647C17.7647 19.9926 16.6981 21 15.3824 21Z" fill="black"/>
<path fill-rule="evenodd" clip-rule="evenodd" d="M2 6.1875V8.3C2 9.95685 3.42215 11.3 5.17647 11.3C5.76124 11.3 6.23529 11.7477 6.23529 12.3V17.25H11V8.3125C11 8.02234 11 7.87726 10.9936 7.75466C10.86 5.18614 8.68526 3.13221 5.96565 3.00602C5.83584 3 5.68223 3 5.375 3C5.19066 3 5.09849 3 5.02061 3.00361C3.38884 3.07932 2.08399 4.31169 2.00383 5.8528C2 5.92634 2 6.01349 2 6.1875ZM3.75 6C3.75 5.58579 4.08579 5.25 4.5 5.25C4.91421 5.25 5.25 5.58579 5.25 6V8.5C5.25 8.91421 4.91421 9.25 4.5 9.25C4.08579 9.25 3.75 8.91421 3.75 8.5V6Z" fill="black"/>
<path d="M8.61765 21C9.93338 21 11 19.9926 11 18.75H6.23529C6.23529 19.9926 7.30191 21 8.61765 21Z" fill="black"/>
</svg>
