<svg width="24" height="24" viewBox="0 0 24 24" fill="none" xmlns="http://www.w3.org/2000/svg">
<path fill-rule="evenodd" clip-rule="evenodd" d="M3.95491 4.06107C3 5.3754 3 7.25027 3 11V13C3 16.7497 3 18.6246 3.95491 19.9389C4.26331 20.3634 4.6366 20.7367 5.06107 21.0451C6.3754 22 8.25027 22 12 22C15.7497 22 17.6246 22 18.9389 21.0451C19.3634 20.7367 19.7367 20.3634 20.0451 19.9389C21 18.6246 21 16.7497 21 13V11C21 7.25027 21 5.3754 20.0451 4.06107C19.7367 3.6366 19.3634 3.26331 18.9389 2.95491C17.6246 2 15.7497 2 12 2C8.25027 2 6.3754 2 5.06107 2.95491C4.6366 3.26331 4.26331 3.6366 3.95491 4.06107ZM7 8.25C6.58579 8.25 6.25 8.58579 6.25 9C6.25 9.41421 6.58579 9.75 7 9.75H17C17.4142 9.75 17.75 9.41421 17.75 9C17.75 8.58579 17.4142 8.25 17 8.25H7Z" fill="black"/>
</svg>
