<svg width="24" height="24" viewBox="0 0 24 24" fill="none" xmlns="http://www.w3.org/2000/svg">
<path fill-rule="evenodd" clip-rule="evenodd" d="M10.735 4.95082C10.8174 5.35675 10.5551 5.75263 10.1492 5.83503C8.48526 6.17279 7.17279 7.48526 6.83503 9.1492C6.75263 9.55513 6.35675 9.81741 5.95082 9.73501C5.54488 9.65261 5.28261 9.25674 5.36501 8.8508C5.82261 6.59648 7.59648 4.82261 9.8508 4.36501C10.2567 4.28261 10.6526 4.54488 10.735 4.95082Z" fill="black"/>
<path fill-rule="evenodd" clip-rule="evenodd" d="M7.5 22C10.5376 22 13 19.5376 13 16.5C13 13.4624 10.5376 11 7.5 11C4.46243 11 2 13.4624 2 16.5C2 19.5376 4.46243 22 7.5 22ZM5.25 14C5.25 13.5858 5.58579 13.25 6 13.25H7.5C8.6088 13.25 9.75 14.0232 9.75 15.25C9.75 16.0358 9.28176 16.6355 8.65373 16.9651L9.64312 18.6141C9.85623 18.9693 9.74106 19.43 9.38587 19.6431C9.03069 19.8562 8.56999 19.7411 8.35688 19.3859L7.07536 17.25H6.75V19C6.75 19.4142 6.41421 19.75 6 19.75C5.58579 19.75 5.25 19.4142 5.25 19V14ZM6.75 15.75V14.75H7.5C8.04806 14.75 8.25 15.0961 8.25 15.25C8.25 15.4039 8.04806 15.75 7.5 15.75H6.75Z" fill="black"/>
<path d="M19.6176 22C20.9334 22 22 20.8807 22 19.5H17.2353C17.2353 20.8807 18.3019 22 19.6176 22Z" fill="black"/>
<path fill-rule="evenodd" clip-rule="evenodd" d="M13 7.88889V5.54167C13 5.34832 13 5.25148 13.0038 5.16977C13.084 3.45743 14.3888 2.08814 16.0206 2.00402C16.0985 2 16.1907 2 16.375 2C16.6822 2 16.8358 2 16.9657 2.00669C19.6853 2.1469 21.86 4.42905 21.9936 7.28296C22 7.41917 22 7.58038 22 7.90278V17.8333H17.2353V12.3333C17.2353 11.7197 16.7612 11.2222 16.1765 11.2222C14.4222 11.2222 13 9.72984 13 7.88889ZM14.6765 5.125C14.6765 4.66476 15.0123 4.29167 15.4265 4.29167C15.8407 4.29167 16.1765 4.66476 16.1765 5.125V7.90278C16.1765 8.36302 15.8407 8.73611 15.4265 8.73611C15.0123 8.73611 14.6765 8.36302 14.6765 7.90278V5.125Z" fill="black"/>
</svg>
