<svg width="24" height="24" viewBox="0 0 24 24" fill="none" xmlns="http://www.w3.org/2000/svg">
<path d="M9.50946 12.0043L13.6086 14.9376C14.1072 15.2944 14.5428 15.6061 14.847 15.8992C15.1707 16.2113 15.4615 16.6104 15.4615 17.1544C15.4615 17.6984 15.1707 18.0975 14.847 18.4095C14.5428 18.7027 14.1072 19.0143 13.6085 19.3712L11.9167 20.5818C11.2434 21.0637 10.6748 21.4706 10.2032 21.713C9.72304 21.9598 9.13683 22.1456 8.55051 21.8433C7.96252 21.5401 7.7715 20.9512 7.69263 20.4146C7.61531 19.8886 7.61535 19.1881 7.61539 18.3596L7.61539 13.3404L4.08938 15.8276C3.77615 16.0486 3.34447 15.9718 3.12521 15.6561C2.90594 15.3405 2.98212 14.9055 3.29535 14.6845L7.10051 12.0004L3.29535 9.31632C2.98212 9.09537 2.90594 8.66037 3.12521 8.34473C3.34447 8.02908 3.77615 7.95232 4.08938 8.17327L7.61539 10.6605L7.61539 5.64039C7.61535 4.8119 7.61531 4.11138 7.69263 3.58538C7.7715 3.04876 7.96252 2.45988 8.55051 2.15673C9.13683 1.85444 9.72304 2.04019 10.2032 2.28702C10.6748 2.52941 11.2434 2.93629 11.9167 3.41819L13.6085 4.62886C14.1073 4.98569 14.5428 5.29734 14.847 5.59045C15.1707 5.90251 15.4615 6.3016 15.4615 6.84562C15.4615 7.38963 15.1707 7.78872 14.847 8.10078C14.5428 8.3939 14.1072 8.70555 13.6085 9.06238L9.50885 11.9961L9.51499 12.0004L9.50946 12.0043Z" fill="black"/>
<path d="M17.9841 4.98391C18.261 4.71819 18.6992 4.72896 18.9629 5.00797L18.964 5.00921L18.9654 5.01064L18.9686 5.01405L18.9769 5.0231C18.9833 5.03013 18.9914 5.03915 19.0011 5.05019C19.0204 5.07227 19.0461 5.1024 19.0772 5.14076C19.1393 5.21748 19.2231 5.32712 19.321 5.471C19.5168 5.75883 19.7691 6.18336 20.0184 6.75479C20.518 7.90005 21 9.62336 21 12.0004C21 14.3774 20.518 16.1007 20.0184 17.246C19.7691 17.8174 19.5168 18.2419 19.321 18.5298C19.2231 18.6736 19.1393 18.7833 19.0772 18.86C19.0461 18.8983 19.0204 18.9285 19.0011 18.9506C18.9914 18.9616 18.9833 18.9706 18.9769 18.9776L18.9686 18.9867L18.9654 18.9901L18.964 18.9915C18.964 18.9915 18.9629 18.9928 18.485 18.5342L18.9629 18.9928C18.6992 19.2718 18.261 19.2826 17.9841 19.0168C17.7084 18.7522 17.6966 18.3132 17.9569 18.034L17.9635 18.0267C17.9712 18.0179 17.9852 18.0016 18.0046 17.9776C18.0434 17.9297 18.1039 17.8512 18.179 17.7407C18.3293 17.5198 18.5386 17.1711 18.7508 16.6845C19.1743 15.7136 19.6154 14.1813 19.6154 12.0004C19.6154 9.81949 19.1743 8.28716 18.7508 7.31625C18.5386 6.82961 18.3293 6.48092 18.179 6.26006C18.1039 6.14959 18.0434 6.07101 18.0046 6.0231C17.9852 5.99915 17.9712 5.98286 17.9635 5.9741L17.9569 5.96673C17.6966 5.68754 17.7084 5.24852 17.9841 4.98391Z" fill="black"/>
<path d="M16.3059 7.65581C16.6479 7.4835 17.0638 7.62318 17.2348 7.9678L17.2354 7.96912L17.2364 7.97113L17.2394 7.97718L17.2491 7.99728C17.2572 8.01418 17.2685 8.03802 17.2826 8.06835C17.3106 8.12897 17.3497 8.21566 17.3961 8.32473C17.4887 8.54253 17.6113 8.8515 17.7339 9.22191C17.9761 9.95437 18.2309 10.9648 18.2309 12.0005C18.2309 13.0362 17.9761 14.0467 17.7339 14.7791C17.6113 15.1496 17.4887 15.4585 17.3961 15.6763C17.3497 15.7854 17.3106 15.8721 17.2826 15.9327C17.2685 15.963 17.2572 15.9869 17.2491 16.0038L17.2394 16.0239L17.2364 16.0299L17.2354 16.0319L17.2349 16.033C17.0639 16.3776 16.6479 16.5176 16.3059 16.3452C15.9641 16.173 15.8255 15.7544 15.996 15.4099L15.997 15.4079L16.0027 15.396C16.0081 15.3848 16.0166 15.3668 16.0278 15.3427C16.0502 15.2943 16.0833 15.2211 16.1234 15.1267C16.2039 14.9375 16.312 14.6651 16.4203 14.3379C16.6395 13.6751 16.8463 12.8252 16.8463 12.0005C16.8463 11.1759 16.6395 10.326 16.4203 9.66314C16.312 9.33591 16.2039 9.06351 16.1234 8.87436C16.0833 8.77996 16.0502 8.70677 16.0278 8.65839C16.0166 8.63421 16.0081 8.61626 16.0027 8.60501L15.997 8.5932L15.9962 8.59157C15.8254 8.24699 15.964 7.82808 16.3059 7.65581Z" fill="black"/>
</svg>
