<svg width="24" height="24" viewBox="0 0 24 24" fill="none" xmlns="http://www.w3.org/2000/svg">
<path d="M11.75 16.0001V13.5001L13.4834 14.8001C13.5878 14.8785 13.6737 14.9429 13.7472 15.0001C13.6737 15.0573 13.5878 15.1217 13.4834 15.2001L12.15 16.2001C11.9904 16.3198 11.8607 16.4166 11.7528 16.4946C11.7504 16.3615 11.75 16.1996 11.75 16.0001Z" fill="black"/>
<path d="M11.7906 16.9603C11.7904 16.9596 11.7901 16.9585 11.7895 16.9571C11.7904 16.9602 11.7909 16.9616 11.7909 16.9615C11.791 16.9614 11.7909 16.9611 11.7906 16.9603Z" fill="black"/>
<path d="M11.75 8.00011V10.5001L13.4834 9.20011C13.5878 9.12175 13.6737 9.05729 13.7472 9.00011C13.6737 8.94293 13.5878 8.87847 13.4834 8.80011L12.15 7.80011C11.9904 7.68043 11.8607 7.58358 11.7528 7.50565C11.7504 7.63874 11.75 7.80064 11.75 8.00011Z" fill="black"/>
<path fill-rule="evenodd" clip-rule="evenodd" d="M3.46447 3.46447C2 4.92893 2 7.28595 2 12C2 16.714 2 19.0711 3.46447 20.5355C4.92893 22 7.28595 22 12 22C16.714 22 19.0711 22 20.5355 20.5355C22 19.0711 22 16.714 22 12C22 7.28595 22 4.92893 20.5355 3.46447C19.0711 2 16.714 2 12 2C7.28595 2 4.92893 2 3.46447 3.46447ZM13.0099 6.57C12.6958 6.33435 12.3963 6.10963 12.1382 5.96935C11.8739 5.82574 11.4222 5.64148 10.941 5.88207C10.4598 6.12267 10.3362 6.59462 10.2925 6.89218C10.2499 7.18285 10.2499 7.55729 10.25 7.94992L10.25 10.3988L8.48016 8.92394C8.16195 8.65877 7.68903 8.70176 7.42385 9.01997C7.15868 9.33818 7.20167 9.8111 7.51988 10.0763L9.82848 12.0001L7.51988 13.9239C7.20167 14.1891 7.15868 14.662 7.42385 14.9802C7.68903 15.2985 8.16195 15.3414 8.48016 15.0763L10.25 13.6014L10.25 16.0503C10.2499 16.4429 10.2499 16.8174 10.2925 17.108C10.3362 17.4056 10.4598 17.8775 10.941 18.1181C11.4222 18.3587 11.8739 18.1745 12.1382 18.0309C12.3963 17.8906 12.6958 17.6659 13.0099 17.4302L14.4167 16.3751C14.6318 16.2139 14.8537 16.0476 15.0152 15.8852C15.1982 15.7011 15.4167 15.4125 15.4167 15.0001C15.4167 14.5877 15.1982 14.2991 15.0152 14.115C14.8537 13.9526 14.6318 13.7863 14.4167 13.6251L12.25 12.0001L14.4167 10.3751C14.6318 10.2139 14.8537 10.0476 15.0152 9.88518C15.1982 9.70108 15.4167 9.41247 15.4167 9.00011C15.4167 8.58774 15.1982 8.29914 15.0152 8.11503C14.8537 7.95263 14.6318 7.7863 14.4167 7.6251L13.0099 6.57Z" fill="black"/>
</svg>
