<svg width="24" height="24" viewBox="0 0 24 24" fill="none" xmlns="http://www.w3.org/2000/svg">
<path d="M6.75 13.75C6.75 12.9216 7.42157 12.25 8.25 12.25C9.07843 12.25 9.75 12.9216 9.75 13.75C9.75 14.5784 9.07843 15.25 8.25 15.25C7.42157 15.25 6.75 14.5784 6.75 13.75Z" fill="black"/>
<path d="M10.8487 15.25H13.1513C12.8961 14.8087 12.75 14.2964 12.75 13.75C12.75 13.2036 12.8961 12.6913 13.1513 12.25H10.8487C11.1039 12.6913 11.25 13.2036 11.25 13.75C11.25 14.2964 11.1039 14.8087 10.8487 15.25Z" fill="black"/>
<path d="M15.75 15.25C16.5784 15.25 17.25 14.5784 17.25 13.75C17.25 12.9216 16.5784 12.25 15.75 12.25C14.9216 12.25 14.25 12.9216 14.25 13.75C14.25 14.5784 14.9216 15.25 15.75 15.25Z" fill="black"/>
<path fill-rule="evenodd" clip-rule="evenodd" d="M18.4311 4.15219L17.6612 6.20537C17.4379 6.8009 17.2489 7.30482 17.0479 7.70069C16.8342 8.12169 16.5762 8.48563 16.1802 8.76006C15.7841 9.0345 15.3528 9.14834 14.8835 9.20064C14.4423 9.24981 13.9042 9.24979 13.2682 9.24977H10.7314C10.0954 9.24979 9.55723 9.24981 9.11601 9.20064C8.64677 9.14834 8.21539 9.0345 7.81938 8.76006C7.42338 8.48563 7.16532 8.12169 6.95159 7.70069C6.75062 7.30483 6.56168 6.80094 6.33839 6.20543L5.56845 4.15225C4.50175 4.30058 3.74972 4.59343 3.17157 5.17157C2 6.34315 2 8.22876 2 12C2 15.7712 2 17.6569 3.17157 18.8284C4.34315 20 6.22876 20 10 20H14C17.7712 20 19.6569 20 20.8284 18.8284C22 17.6569 22 15.7712 22 12C22 8.22876 22 6.34315 20.8284 5.17157C20.2502 4.59335 19.498 4.3005 18.4311 4.15219ZM5.25 13.75C5.25 12.0931 6.59315 10.75 8.25 10.75C8.30598 10.75 8.3616 10.7515 8.41682 10.7546C8.44413 10.7515 8.47189 10.75 8.5 10.75H16C16.0852 10.75 16.1671 10.7642 16.2434 10.7904C17.6655 11.0257 18.75 12.2612 18.75 13.75C18.75 15.2388 17.6655 16.4743 16.2434 16.7096C16.1671 16.7358 16.0852 16.75 16 16.75H8.5C8.47189 16.75 8.44413 16.7485 8.41682 16.7454C8.3616 16.7485 8.30598 16.75 8.25 16.75C6.59315 16.75 5.25 15.4069 5.25 13.75Z" fill="black"/>
<path d="M16.8749 4.03006L16.2708 5.64092C16.0295 6.28438 15.8691 6.70913 15.7104 7.02168C15.5603 7.31746 15.4437 7.44546 15.3258 7.52718C15.2078 7.60889 15.0471 7.67312 14.7174 7.70987C14.369 7.74869 13.915 7.74977 13.2278 7.74977H10.7718C10.0846 7.74977 9.63052 7.74869 9.28215 7.70987C8.95249 7.67312 8.79169 7.60889 8.67378 7.52718C8.55586 7.44546 8.43926 7.31746 8.2891 7.02168C8.13043 6.70913 7.97 6.28438 7.7287 5.64092L7.12464 4.03008C7.93904 4 8.88747 4 10 4H14C15.1123 4 16.0606 4 16.8749 4.03006Z" fill="black"/>
</svg>
