<svg width="24" height="24" viewBox="0 0 24 24" fill="none" xmlns="http://www.w3.org/2000/svg">
<path fill-rule="evenodd" clip-rule="evenodd" d="M9.63166 9.02161C9.32905 9.0623 9.2342 9.12798 9.18109 9.18109C9.12798 9.2342 9.0623 9.32905 9.02161 9.63166C8.97823 9.95434 8.97675 10.3923 8.97675 11.0698V12.9302C8.97675 13.6077 8.97823 14.0457 9.02161 14.3683C9.0623 14.671 9.12798 14.7658 9.18109 14.8189C9.2342 14.872 9.32905 14.9377 9.63166 14.9784C9.95434 15.0218 10.3923 15.0233 11.0698 15.0233H12.9302C13.6077 15.0233 14.0457 15.0218 14.3683 14.9784C14.671 14.9377 14.7658 14.872 14.8189 14.8189C14.872 14.7658 14.9377 14.671 14.9784 14.3683C15.0218 14.0457 15.0233 13.6077 15.0233 12.9302V11.0698C15.0233 10.3923 15.0218 9.95434 14.9784 9.63166C14.9377 9.32905 14.872 9.2342 14.8189 9.18109C14.7658 9.12798 14.671 9.0623 14.3683 9.02161C14.0457 8.97823 13.6077 8.97675 12.9302 8.97675H11.0698C10.3923 8.97675 9.95434 8.97823 9.63166 9.02161ZM12.9664 10.5451C13.1904 10.2316 13.1177 9.79583 12.8042 9.57187C12.4906 9.34791 12.0549 9.42053 11.831 9.73407L10.502 11.5945C10.3501 11.8072 10.3298 12.0869 10.4494 12.3193C10.569 12.5517 10.8084 12.6977 11.0698 12.6977H11.5745L11.0336 13.455C10.8097 13.7685 10.8823 14.2043 11.1958 14.4282C11.5094 14.6522 11.9451 14.5796 12.1691 14.266L13.498 12.4056C13.6499 12.1929 13.6702 11.9132 13.5506 11.6808C13.431 11.4484 13.1916 11.3024 12.9302 11.3024H12.4255L12.9664 10.5451Z" fill="black"/>
<path fill-rule="evenodd" clip-rule="evenodd" d="M12.6977 2.69767C12.6977 2.31236 12.3853 2 12 2C11.6147 2 11.3023 2.31236 11.3023 2.69767V5.48837C10.7916 5.48944 10.3283 5.49342 9.90678 5.50495L9.90698 5.48837V2.69767C9.90698 2.31236 9.59462 2 9.2093 2C8.82399 2 8.51163 2.31236 8.51163 2.69767V5.48837C8.51163 5.52487 8.51443 5.56072 8.51984 5.5957C7.58381 5.71067 6.93517 5.94879 6.44198 6.44198C5.94879 6.93517 5.71067 7.58381 5.5957 8.51984C5.56071 8.51443 5.52487 8.51163 5.48837 8.51163H2.69767C2.31236 8.51163 2 8.82399 2 9.2093C2 9.59462 2.31236 9.90698 2.69767 9.90698H5.48837L5.50495 9.90678C5.49342 10.3283 5.48991 10.7916 5.48884 11.3023L2.69767 11.3023C2.31236 11.3023 2 11.6147 2 12C2 12.3853 2.31236 12.6977 2.69767 12.6977H5.48837C5.48944 13.2084 5.49342 13.6717 5.50495 14.0932L5.48837 14.093H2.69767C2.31236 14.093 2 14.4054 2 14.7907C2 15.176 2.31236 15.4884 2.69767 15.4884H5.48837C5.52487 15.4884 5.56071 15.4856 5.5957 15.4802C5.71067 16.4162 5.94879 17.0648 6.44198 17.558C6.93517 18.0512 7.58381 18.2893 8.51984 18.4043C8.51443 18.4393 8.51163 18.4751 8.51163 18.5116V21.3023C8.51163 21.6876 8.82399 22 9.2093 22C9.59462 22 9.90698 21.6876 9.90698 21.3023V18.5116L9.90678 18.495C10.3283 18.5066 10.7916 18.5101 11.3023 18.5112L11.3023 21.3023C11.3023 21.6876 11.6147 22 12 22C12.3853 22 12.6977 21.6876 12.6977 21.3023V18.5116C13.2084 18.5106 13.6717 18.5066 14.0932 18.495L14.093 18.5116V21.3023C14.093 21.6876 14.4054 22 14.7907 22C15.176 22 15.4884 21.6876 15.4884 21.3023V18.5116C15.4884 18.4751 15.4856 18.4393 15.4802 18.4043C16.4162 18.2893 17.0648 18.0512 17.558 17.558C18.0512 17.0648 18.2893 16.4162 18.4043 15.4802C18.4393 15.4856 18.4751 15.4884 18.5116 15.4884H21.3023C21.6876 15.4884 22 15.176 22 14.7907C22 14.4054 21.6876 14.093 21.3023 14.093H18.5116L18.495 14.0932C18.5066 13.6717 18.5101 13.2084 18.5112 12.6977L21.3023 12.6977C21.6876 12.6977 22 12.3853 22 12C22 11.6147 21.6876 11.3023 21.3023 11.3023H18.5116C18.5106 10.7916 18.5066 10.3283 18.495 9.90678L18.5116 9.90698H21.3023C21.6876 9.90698 22 9.59462 22 9.2093C22 8.82399 21.6876 8.51163 21.3023 8.51163H18.5116C18.4751 8.51163 18.4393 8.51443 18.4043 8.51984C18.2893 7.58381 18.0512 6.93517 17.558 6.44198C17.0648 5.94879 16.4162 5.71067 15.4802 5.5957C15.4856 5.56072 15.4884 5.52487 15.4884 5.48837V2.69767C15.4884 2.31236 15.176 2 14.7907 2C14.4054 2 14.093 2.31236 14.093 2.69767V5.48837L14.0932 5.50495C13.6717 5.49342 13.2084 5.48991 12.6977 5.48884V2.69767ZM9.44573 7.63871C9.87247 7.58133 10.4054 7.58136 11.0238 7.5814H12.9762C13.5947 7.58136 14.1275 7.58133 14.5543 7.63871C15.0116 7.70019 15.45 7.83885 15.8056 8.19443C16.1612 8.55001 16.2998 8.98839 16.3613 9.44573C16.4187 9.87246 16.4186 10.4053 16.4186 11.0238V12.9762C16.4186 13.5946 16.4187 14.1275 16.3613 14.5543C16.2998 15.0116 16.1612 15.45 15.8056 15.8056C15.45 16.1612 15.0116 16.2998 14.5543 16.3613C14.1275 16.4187 13.5947 16.4186 12.9762 16.4186H11.0238C10.4054 16.4186 9.87246 16.4187 9.44573 16.3613C8.98839 16.2998 8.55001 16.1612 8.19443 15.8056C7.83885 15.45 7.70019 15.0116 7.63871 14.5543C7.58133 14.1275 7.58136 13.5946 7.5814 12.9762V11.0238C7.58136 10.4054 7.58133 9.87247 7.63871 9.44573C7.70019 8.98839 7.83885 8.55001 8.19443 8.19443C8.55001 7.83885 8.98839 7.70019 9.44573 7.63871Z" fill="black"/>
</svg>
