<svg width="24" height="24" viewBox="0 0 24 24" fill="none" xmlns="http://www.w3.org/2000/svg">
<path fill-rule="evenodd" clip-rule="evenodd" d="M10.8 8H13.2C15.4627 8 16.5941 8 17.2971 8.69229C18 9.38459 18 10.4988 18 12.7273V15.2727C18 17.5012 18 18.6154 17.2971 19.3077C16.5941 20 15.4627 20 13.2 20H10.8C8.53726 20 7.40589 20 6.70294 19.3077C6 18.6154 6 17.5012 6 15.2727V12.7273C6 10.4988 6 9.38459 6.70294 8.69229C7.40589 8 8.53726 8 10.8 8ZM12.6 12.45C12.8485 12.1186 12.7814 11.6485 12.45 11.4C12.1186 11.1515 11.6485 11.2186 11.4 11.55L9.9 13.55C9.72955 13.7773 9.70214 14.0813 9.82918 14.3354C9.95622 14.5895 10.2159 14.75 10.5 14.75H12L11.4 15.55C11.1515 15.8814 11.2186 16.3515 11.55 16.6C11.8814 16.8485 12.3515 16.7814 12.6 16.45L14.1 14.45C14.2704 14.2227 14.2979 13.9187 14.1708 13.6646C14.0438 13.4105 13.7841 13.25 13.5 13.25H12L12.6 12.45Z" fill="black"/>
<path fill-rule="evenodd" clip-rule="evenodd" d="M10.7327 7C9.87851 6.99997 9.13183 6.99994 8.5 7.04787V5.5C8.5 4.09554 8.5 3.39331 8.83706 2.88886C8.98298 2.67048 9.17048 2.48298 9.38886 2.33706C9.89331 2 10.5955 2 12 2C13.4045 2 14.1067 2 14.6111 2.33706C14.8295 2.48298 15.017 2.67048 15.1629 2.88886C15.5 3.39331 15.5 4.09554 15.5 5.5V7.04787C14.8682 6.99994 14.1215 6.99997 13.2673 7H10.7327ZM11 3.75C10.5858 3.75 10.25 4.08579 10.25 4.5C10.25 4.91421 10.5858 5.25 11 5.25H13C13.4142 5.25 13.75 4.91421 13.75 4.5C13.75 4.08579 13.4142 3.75 13 3.75H11Z" fill="black"/>
<path fill-rule="evenodd" clip-rule="evenodd" d="M13.2 8H10.8C8.53726 8 7.40589 8 6.70294 8.69229C6 9.38459 6 10.4988 6 12.7273V15.2727C6 17.5012 6 18.6154 6.70294 19.3077C7.40589 20 8.53726 20 10.8 20L11.25 20V22C11.25 22.4142 11.5858 22.75 12 22.75C12.4142 22.75 12.75 22.4142 12.75 22V20L13.2 20C15.4627 20 16.5941 20 17.2971 19.3077C18 18.6154 18 17.5012 18 15.2727V12.7273C18 10.4988 18 9.38459 17.2971 8.69229C16.5941 8 15.4627 8 13.2 8ZM12.45 11.4C12.7814 11.6485 12.8485 12.1186 12.6 12.45L12 13.25H13.5C13.7841 13.25 14.0438 13.4105 14.1708 13.6646C14.2979 13.9187 14.2704 14.2227 14.1 14.45L12.6 16.45C12.3515 16.7814 11.8814 16.8485 11.55 16.6C11.2186 16.3515 11.1515 15.8814 11.4 15.55L12 14.75H10.5C10.2159 14.75 9.95622 14.5895 9.82918 14.3354C9.70214 14.0813 9.72955 13.7773 9.9 13.55L11.4 11.55C11.6485 11.2186 12.1186 11.1515 12.45 11.4Z" fill="black"/>
</svg>
