<svg width="24" height="24" viewBox="0 0 24 24" fill="none" xmlns="http://www.w3.org/2000/svg">
<path fill-rule="evenodd" clip-rule="evenodd" d="M11.5 2C7.35786 2 4 5.43595 4 9.67442C4 11.9468 4.96602 13.9892 6.49859 15.3934C7.0094 15.8614 7.38782 16.2082 7.65601 16.4598C7.7901 16.5855 7.89262 16.6838 7.9683 16.7592C8.00601 16.7968 8.03486 16.8266 8.05635 16.8496C8.06699 16.861 8.07499 16.8699 8.0808 16.8766C8.08649 16.8831 8.0892 16.8864 8.0892 16.8864C8.32571 17.1851 8.3769 17.2622 8.40739 17.332C8.43787 17.4018 8.45982 17.4922 8.51949 17.8717C8.54305 18.0216 8.54545 18.2782 8.54545 18.9767L8.54545 19.0067C8.54544 19.4158 8.54543 19.7687 8.57107 20.0583C8.5982 20.3645 8.65825 20.6677 8.81949 20.9535C8.99902 21.2717 9.25723 21.5359 9.56818 21.7196C9.84747 21.8846 10.1438 21.946 10.443 21.9738C10.726 22 11.0709 22 11.4707 22H11.5293C11.9291 22 12.274 22 12.557 21.9738C12.8562 21.946 13.1525 21.8846 13.4318 21.7196C13.7428 21.5359 14.001 21.2717 14.1805 20.9535C14.3418 20.6677 14.4018 20.3645 14.4289 20.0583C14.4546 19.7687 14.4546 19.4158 14.4545 19.0067V18.9767C14.4545 18.2782 14.457 18.0216 14.4805 17.8717C14.5402 17.4922 14.5621 17.4018 14.5926 17.332C14.6231 17.2622 14.6743 17.1851 14.9108 16.8864C14.9108 16.8864 14.9118 16.8852 14.914 16.8826C14.914 16.8826 14.917 16.8791 14.9192 16.8766C14.925 16.8699 14.933 16.861 14.9436 16.8496C14.9651 16.8266 14.994 16.7968 15.0317 16.7592C15.1074 16.6838 15.2099 16.5855 15.344 16.4598C15.6122 16.2082 15.9906 15.8614 16.5014 15.3934C18.034 13.9892 19 11.9468 19 9.67442C19 5.43595 15.6421 2 11.5 2ZM13.0709 19.9323C13.0776 19.8561 13.0821 19.7714 13.0851 19.6744H9.91494C9.91791 19.7714 9.92239 19.8561 9.92914 19.9323C9.9477 20.1418 9.97899 20.2178 10.0004 20.2558C10.0603 20.3619 10.1463 20.4499 10.25 20.5112C10.2871 20.5331 10.3615 20.5651 10.5661 20.5841C10.7802 20.604 11.0626 20.6047 11.5 20.6047C11.9374 20.6047 12.2198 20.604 12.4339 20.5841C12.6385 20.5651 12.7129 20.5331 12.75 20.5112C12.8537 20.4499 12.9397 20.3619 12.9996 20.2558C13.021 20.2178 13.0523 20.1418 13.0709 19.9323Z" fill="black"/>
<path fill-rule="evenodd" clip-rule="evenodd" d="M9.27375 13.3508C9.63229 13.1434 10.0911 13.2659 10.2985 13.6245C10.5158 14 10.92 14.25 11.3817 14.25C11.8435 14.25 12.2477 14 12.465 13.6245C12.6724 13.2659 13.1312 13.1434 13.4897 13.3508C13.8483 13.5582 13.9708 14.017 13.7634 14.3755C13.4101 14.9862 12.8271 15.4496 12.1317 15.6464V17C12.1317 17.4142 11.7959 17.75 11.3817 17.75C10.9675 17.75 10.6317 17.4142 10.6317 17V15.6464C9.93629 15.4496 9.35336 14.9862 9.00009 14.3755C8.79268 14.017 8.9152 13.5582 9.27375 13.3508Z" fill="white"/>
</svg>
