<svg width="24" height="24" viewBox="0 0 24 24" fill="none" xmlns="http://www.w3.org/2000/svg">
<path d="M16 2H15C13.5858 2 12.8787 2 12.4393 2.43934C12 2.87868 12 3.58579 12 5C12 6.41421 12 7.12132 12.4393 7.56066C12.8787 8 13.5858 8 15 8H16C17.4142 8 18.1213 8 18.5607 7.56066C18.8453 7.27601 18.9455 6.87895 18.9808 6.25H19L20.6154 6.92308C21.2416 7.184 21.5547 7.31446 21.7774 7.16603C22 7.01759 22 6.67839 22 6V4C22 3.32161 22 2.98241 21.7774 2.83397C21.5547 2.68554 21.2416 2.816 20.6154 3.07692L19 3.75H18.9808C18.9455 3.12105 18.8453 2.72399 18.5607 2.43934C18.1213 2 17.4142 2 16 2Z" fill="black"/>
<path d="M8 17C5.17157 17 3.75736 17 2.87868 16.1213C2.30938 15.552 2.10893 14.7579 2.03835 13.5H21.9616C21.8911 14.7579 21.6906 15.552 21.1213 16.1213C20.2426 17 18.8284 17 16 17H12.75V21H16C16.4142 21 16.75 21.3358 16.75 21.75C16.75 22.1642 16.4142 22.5 16 22.5H8C7.58579 22.5 7.25 22.1642 7.25 21.75C7.25 21.3358 7.58579 21 8 21H11.25V17H8Z" fill="black"/>
<path d="M22 10V11C22 11.5516 22 12.0494 21.9935 12.5H2.00652C2 12.0494 2 11.5516 2 11V10C2 6.22876 2 4.34315 3.17157 3.17157C4.34315 2 6.22876 2 10 2H10.9181C10.7129 2.38433 10.6178 2.78593 10.5683 3.15422C10.4997 3.66409 10.4999 4.28228 10.5 4.91839L10.5 5L10.5 5.08161C10.4999 5.71772 10.4997 6.33591 10.5683 6.84578C10.6456 7.42058 10.8339 8.0765 11.3787 8.62132C11.9235 9.16614 12.5794 9.35443 13.1542 9.43171C13.6641 9.50026 14.2823 9.50014 14.9184 9.50001L15 9.5H16L16.0816 9.50001C16.7177 9.50014 17.3359 9.50026 17.8458 9.43171C18.4206 9.35443 19.0765 9.16614 19.6213 8.62132C19.7372 8.50545 19.8371 8.38432 19.9233 8.25972L20.0385 8.30769L20.0952 8.33138C20.355 8.43991 20.6841 8.57739 20.9796 8.65219C21.2132 8.71133 21.5857 8.77441 21.9978 8.67938C22 9.09197 22 9.53143 22 10Z" fill="black"/>
</svg>
