<svg width="24" height="24" viewBox="0 0 24 24" fill="none" xmlns="http://www.w3.org/2000/svg">
<path d="M14 2H10C6.22876 2 4.34315 2 3.17157 3.17157C2 4.34315 2 6.22876 2 10V11C2 11.5516 2 12.0494 2.00652 12.5H12.6017C12.7054 11.8207 12.9376 11.1127 13.5251 10.5251C14.1432 9.90708 14.8946 9.68219 15.6056 9.5866C16.2512 9.4998 17.0449 9.49989 17.9105 9.49999H18.0895C18.9551 9.49989 19.7488 9.4998 20.3944 9.5866C20.9315 9.65881 21.4917 9.80481 22 10.1383V10C22 6.22876 22 4.34315 20.8284 3.17157C19.6569 2 17.7712 2 14 2Z" fill="black"/>
<path d="M2.87868 16.1213C3.75736 17 5.17157 17 8 17H11.25V21H8C7.58579 21 7.25 21.3358 7.25 21.75C7.25 22.1642 7.58579 22.5 8 22.5H13.5505L13.5251 22.4749C12.9071 21.8568 12.6822 21.1054 12.5866 20.3944C12.4998 19.7488 12.4999 18.9551 12.5 18.0895V14.9105C12.4999 14.4116 12.4999 13.9365 12.5165 13.5H2.03835C2.10893 14.7579 2.30938 15.552 2.87868 16.1213Z" fill="black"/>
<path fill-rule="evenodd" clip-rule="evenodd" d="M22 15V18C22 19.8856 22 20.8284 21.4142 21.4142C20.8284 22 19.8856 22 18 22C16.1144 22 15.1716 22 14.5858 21.4142C14 20.8284 14 19.8856 14 18V15C14 13.1144 14 12.1716 14.5858 11.5858C15.1716 11 16.1144 11 18 11C19.8856 11 20.8284 11 21.4142 11.5858C22 12.1716 22 13.1144 22 15ZM16.25 20C16.25 19.5858 16.5858 19.25 17 19.25H19C19.4142 19.25 19.75 19.5858 19.75 20C19.75 20.4142 19.4142 20.75 19 20.75H17C16.5858 20.75 16.25 20.4142 16.25 20Z" fill="black"/>
</svg>
