<svg width="24" height="24" viewBox="0 0 24 24" fill="none" xmlns="http://www.w3.org/2000/svg">
<path fill-rule="evenodd" clip-rule="evenodd" d="M4.61413 20.6431C4.96931 20.8562 5.43001 20.7411 5.64312 20.3859L7.07545 17.9986C7.36568 18 7.67341 18 8 18H16C16.3266 18 16.6343 18 16.9245 17.9986L18.3569 20.3859C18.57 20.7411 19.0307 20.8562 19.3859 20.6431C19.7411 20.43 19.8562 19.9693 19.6431 19.6141L18.6463 17.9527C19.82 17.8747 20.5744 17.6682 21.1213 17.1213C22 16.2426 22 14.8284 22 12C22 9.17157 22 7.75736 21.1213 6.87868C20.7951 6.5525 20.3952 6.34741 19.8765 6.21845C20.2763 7.0617 20.5 8.00473 20.5 9C20.5 12.5899 17.5899 15.5 14 15.5C10.4101 15.5 7.5 12.5899 7.5 9C7.5 7.91787 7.76443 6.89751 8.23221 6H8C5.17157 6 3.75736 6 2.87868 6.87868C2 7.75736 2 9.17157 2 12C2 14.8284 2 16.2426 2.87868 17.1213C3.42559 17.6682 4.17999 17.8747 5.35373 17.9527L4.35688 19.6141C4.14377 19.9693 4.25894 20.43 4.61413 20.6431ZM5.4999 8.75C5.91412 8.74995 6.24995 9.08569 6.25 9.4999L6.2502 11C6.25025 11.4142 5.91451 11.75 5.50029 11.7501C5.08608 11.7502 4.75025 11.4144 4.7502 11.0002L4.75 9.5001C4.74995 9.08588 5.08569 8.75005 5.4999 8.75Z" fill="black"/>
<path fill-rule="evenodd" clip-rule="evenodd" d="M14 14C16.7614 14 19 11.7614 19 9C19 6.23858 16.7614 4 14 4C11.2386 4 9 6.23858 9 9C9 11.7614 11.2386 14 14 14ZM13.25 7C13.25 6.58579 13.5858 6.25 14 6.25C15.5188 6.25 16.75 7.48122 16.75 9C16.75 10.5188 15.5188 11.75 14 11.75C12.4812 11.75 11.25 10.5188 11.25 9C11.25 8.58579 11.5858 8.25 12 8.25C12.4142 8.25 12.75 8.58579 12.75 9C12.75 9.69036 13.3096 10.25 14 10.25C14.6904 10.25 15.25 9.69036 15.25 9C15.25 8.30964 14.6904 7.75 14 7.75C13.5858 7.75 13.25 7.41421 13.25 7Z" fill="black"/>
</svg>
