<svg width="24" height="24" viewBox="0 0 24 24" fill="none" xmlns="http://www.w3.org/2000/svg">
<path d="M15.75 12.25V11.5C15.75 11.0858 15.4142 10.75 15 10.75C14.5858 10.75 14.25 11.0858 14.25 11.5V12.25H7C6.30964 12.25 5.75 11.6904 5.75 11C5.75 10.3096 6.30964 9.75 7 9.75H17C17.6904 9.75 18.25 10.3096 18.25 11C18.25 11.6904 17.6904 12.25 17 12.25H15.75Z" fill="black"/>
<path d="M6.75 17C6.75 16.5858 7.08579 16.25 7.5 16.25C7.91421 16.25 8.25 16.5858 8.25 17C8.25 17.4142 7.91421 17.75 7.5 17.75C7.08579 17.75 6.75 17.4142 6.75 17Z" fill="black"/>
<path fill-rule="evenodd" clip-rule="evenodd" d="M15.3195 3.67879C15.6943 3.50242 15.8552 3.05562 15.6788 2.68083C15.5024 2.30604 15.0556 2.14519 14.6808 2.32156L6.76692 6.04575C5.03147 6.13486 3.94566 6.39749 3.17157 7.17157C2 8.34315 2 10.2288 2 14C2 17.7712 2 19.6569 3.17157 20.8284C4.34315 22 6.22876 22 10 22H14C17.7712 22 19.6569 22 20.8284 20.8284C22 19.6569 22 17.7712 22 14C22 10.2288 22 8.34314 20.8284 7.17157C19.6569 6 17.7712 6 14 6H10.387L15.3195 3.67879ZM7 8.25C5.48122 8.25 4.25 9.48122 4.25 11C4.25 12.5188 5.48122 13.75 7 13.75H17C18.5188 13.75 19.75 12.5188 19.75 11C19.75 9.48122 18.5188 8.25 17 8.25H7ZM5.25 17C5.25 15.7574 6.25736 14.75 7.5 14.75C8.74264 14.75 9.75 15.7574 9.75 17C9.75 18.2426 8.74264 19.25 7.5 19.25C6.25736 19.25 5.25 18.2426 5.25 17ZM12.25 17C12.25 16.5858 12.5858 16.25 13 16.25H18C18.4142 16.25 18.75 16.5858 18.75 17C18.75 17.4142 18.4142 17.75 18 17.75H13C12.5858 17.75 12.25 17.4142 12.25 17Z" fill="black"/>
</svg>
