<svg width="24" height="24" viewBox="0 0 24 24" fill="none" xmlns="http://www.w3.org/2000/svg">
<path d="M11.4922 3.21962C13.0968 2.77334 14.5867 2.66198 15.6848 2.81448C16.2354 2.89093 16.6494 3.02843 16.9257 3.19117C17.1969 3.3509 17.2917 3.50572 17.3219 3.62281C17.3529 3.74275 17.3447 3.93434 17.1819 4.22212C17.0174 4.51282 16.7209 4.8504 16.2792 5.20375C15.3979 5.90876 14.0516 6.5861 12.4475 7.03225C10.843 7.47853 9.35305 7.58989 8.25488 7.43739C7.70434 7.36093 7.29032 7.22344 7.014 7.06069C6.74281 6.90097 6.648 6.74614 6.61777 6.62906C6.58681 6.50912 6.59498 6.31752 6.75783 6.02975C6.92233 5.73904 7.2188 5.40147 7.66052 5.04812C8.54184 4.3431 9.88813 3.66577 11.4922 3.21962Z" fill="black"/>
<path d="M18.2103 5.37941C17.9424 5.73253 17.6022 6.06632 17.2162 6.37508C16.1432 7.23341 14.6023 7.98986 12.8494 8.47739C11.097 8.96479 9.39589 9.11023 8.04855 8.92313C7.37633 8.82978 6.75398 8.64838 6.25277 8.35319C6.06018 8.23976 5.87953 8.10551 5.72093 7.94918L5.33284 12.3335L5.77764 12.7802C6.14621 13.1503 7.6062 14.2504 11.9997 14.2504C16.5085 14.2504 17.9278 13.0921 18.2498 12.7513L18.7202 12.2533L18.2103 5.37941Z" fill="black"/>
<path d="M5.15426 14.351L5.16572 14.2215C6.13919 14.93 8.1088 15.7504 11.9997 15.7504C15.9332 15.7504 17.9031 14.9117 18.8646 14.199L18.8825 14.4404C19.0377 17.1794 19.1153 18.5489 18.6162 19.5882C18.2472 20.3564 17.6678 20.9943 16.9506 21.4218C15.9804 22 14.6588 22 12.0156 22C9.34227 22 8.00563 22 7.02989 21.413C6.3088 20.9793 5.72853 20.3324 5.36308 19.5549C4.86856 18.5028 4.9638 17.1189 5.15426 14.351Z" fill="black"/>
</svg>
