<svg width="24" height="24" viewBox="0 0 24 24" fill="none" xmlns="http://www.w3.org/2000/svg">
<path fill-rule="evenodd" clip-rule="evenodd" d="M12.0516 2H11.9484C10.2682 1.99999 8.93732 1.99997 7.89575 2.14245C6.82382 2.28908 5.95621 2.59803 5.27199 3.29418C4.58778 3.99033 4.28413 4.87308 4.14001 5.9637C3.99997 7.02343 3.99999 8.37751 4 10.087V13.9129C3.99999 15.6225 3.99997 16.9766 4.14001 18.0363C4.28413 19.1269 4.58778 20.0097 5.27199 20.7058C5.95621 21.402 6.82382 21.7109 7.89575 21.8575C8.93731 22 10.2682 22 11.9484 22H12.0516C13.7318 22 15.0627 22 16.1043 21.8575C17.1762 21.7109 18.0438 21.402 18.728 20.7058C19.4122 20.0097 19.7159 19.1269 19.86 18.0363C20 16.9766 20 15.6225 20 13.913V10.0871C20 8.37754 20 7.02343 19.86 5.9637C19.7159 4.87308 19.4122 3.99033 18.728 3.29418C18.0438 2.59803 17.1762 2.28908 16.1043 2.14245C15.0627 1.99997 13.7318 1.99999 12.0516 2ZM8.57143 18.5116C8.57143 18.1263 8.87843 17.814 9.25714 17.814H14.7429C15.1216 17.814 15.4286 18.1263 15.4286 18.5116C15.4286 18.8969 15.1216 19.2093 14.7429 19.2093H9.25714C8.87843 19.2093 8.57143 18.8969 8.57143 18.5116Z" fill="black"/>
</svg>
