<svg width="24" height="24" viewBox="0 0 24 24" fill="none" xmlns="http://www.w3.org/2000/svg">
<path fill-rule="evenodd" clip-rule="evenodd" d="M7.23935 2.4614C5.15124 2.85176 3.56225 4.55367 3.32102 6.65818L3.30532 6.79516C3.06668 8.8771 2.96793 10.9709 3.00908 13.0627L3.49291 13.4845C3.92931 13.865 5.1302 14.8664 7.92034 15.4014C8.24108 14.5957 8.6958 13.9426 9.34116 13.4835C10.0791 12.9585 10.9777 12.75 12.0001 12.75C13.0225 12.75 13.9212 12.9585 14.6591 13.4835C15.305 13.943 15.76 14.5968 16.0807 15.4035C16.972 15.2329 17.694 15.0151 18.2763 14.7871C19.5597 14.2847 20.195 13.7214 20.4926 13.4479L20.9902 12.9906C21.0342 10.8401 20.9299 8.68756 20.6774 6.54809C20.4367 4.50764 18.8934 2.86019 16.8681 2.48157L16.5451 2.42119C13.541 1.8596 10.4585 1.8596 7.4544 2.4212L7.23935 2.4614ZM8.48897 4.97983C8.80305 4.70978 8.83874 4.23625 8.56869 3.92217C8.29863 3.6081 7.8251 3.57241 7.51103 3.84246C7.04402 4.244 6.75 4.84191 6.75 5.41115C6.75 6.42483 7.51705 7.12172 8.40313 7.52602C9.31388 7.94158 10.5556 8.16115 12 8.16115C13.4444 8.16115 14.6861 7.94158 15.5969 7.52602C16.483 7.12172 17.25 6.42483 17.25 5.41115C17.25 4.78763 16.9047 4.28849 16.489 3.931C16.1749 3.66094 15.7014 3.69663 15.4313 4.01071C15.1613 4.32479 15.1969 4.79832 15.511 5.06837C15.7359 5.26174 15.75 5.3811 15.75 5.41115C15.75 5.55093 15.6478 5.85404 14.9742 6.16137C14.3253 6.45745 13.317 6.66115 12 6.66115C10.683 6.66115 9.6747 6.45745 9.0258 6.16137C8.35224 5.85404 8.25 5.55093 8.25 5.41115C8.25 5.37939 8.26057 5.30992 8.30437 5.21986C8.34679 5.13261 8.4102 5.04756 8.48897 4.97983Z" fill="black"/>
<path d="M12.0001 15.7501C11.0596 15.7501 10.2165 15.7046 9.46142 15.6261C9.67539 15.2002 9.92674 14.9078 10.2107 14.7057C10.6156 14.4176 11.1758 14.25 12.0001 14.25C12.8244 14.25 13.3846 14.4176 13.7895 14.7057C14.0738 14.9079 14.3253 15.2008 14.5394 15.6272C13.7867 15.7049 12.9436 15.7501 12.0001 15.7501Z" fill="black"/>
<path d="M20.9023 15.0568C20.4436 15.3987 19.7769 15.8105 18.8231 16.1839C17.325 16.7704 15.1505 17.2501 12.0001 17.2501C6.86299 17.2501 4.31022 15.9556 3.09221 15.0802C3.14259 15.8829 3.21363 16.6845 3.30532 17.4844C3.55266 19.6422 5.24868 21.3512 7.41019 21.6206L8.42569 21.7471C8.92051 21.8088 9.16792 21.8396 9.41505 21.8654C11.1335 22.0448 12.866 22.0448 14.5845 21.8654C14.8316 21.8396 15.079 21.8088 15.5738 21.7471L16.48 21.6342C18.7041 21.357 20.4473 19.5951 20.6948 17.3739L20.712 17.2199C20.7922 16.5 20.8556 15.7788 20.9023 15.0568Z" fill="black"/>
</svg>
