<svg width="24" height="24" viewBox="0 0 24 24" fill="none" xmlns="http://www.w3.org/2000/svg">
<path fill-rule="evenodd" clip-rule="evenodd" d="M5.87884 2.87868C5.00016 3.75736 5.00016 5.17157 5.00016 8V16C5.00016 18.8284 5.00016 20.2426 5.87884 21.1213C6.75752 22 8.17174 22 11.0002 22H13.0002C15.8286 22 17.2428 22 18.1215 21.1213C19.0002 20.2426 19.0002 18.8284 19.0002 16V8C19.0002 5.17157 19.0002 3.75736 18.1215 2.87868C17.2428 2 15.8286 2 13.0002 2H11.0002C8.17174 2 6.75752 2 5.87884 2.87868ZM9.50016 18.25C9.08595 18.25 8.75016 18.5858 8.75016 19C8.75016 19.4142 9.08595 19.75 9.50016 19.75H14.5002C14.9144 19.75 15.2502 19.4142 15.2502 19C15.2502 18.5858 14.9144 18.25 14.5002 18.25H9.50016Z" fill="black"/>
<path fill-rule="evenodd" clip-rule="evenodd" d="M1.66475 5.32918C2.03524 5.14394 2.48574 5.29411 2.67098 5.66459L3.44738 7.21738C3.69371 7.71005 3.69371 8.28995 3.44738 8.78262L2.89459 9.8882C2.8594 9.95858 2.8594 10.0414 2.89459 10.1118L3.44738 11.2174C3.69371 11.7101 3.69371 12.29 3.44738 12.7826L2.89459 13.8882C2.8594 13.9586 2.8594 14.0414 2.89459 14.1118L3.44738 15.2174C3.69371 15.71 3.69371 16.29 3.44738 16.7826L2.67098 18.3354C2.48574 18.7059 2.03524 18.8561 1.66475 18.6708C1.29427 18.4856 1.1441 18.0351 1.32934 17.6646L2.10574 16.1118C2.14093 16.0414 2.14093 15.9586 2.10574 15.8882L1.55295 14.7826C1.30661 14.29 1.30661 13.71 1.55295 13.2174L2.10574 12.1118C2.14093 12.0414 2.14093 11.9586 2.10574 11.8882L1.55295 10.7826C1.30661 10.29 1.30661 9.71005 1.55295 9.21738L2.10574 8.1118C2.14093 8.04142 2.14093 7.95858 2.10574 7.8882L1.32934 6.33541C1.1441 5.96493 1.29427 5.51442 1.66475 5.32918ZM22.3356 5.32918C22.7061 5.51442 22.8562 5.96493 22.671 6.33541L21.8946 7.8882C21.8594 7.95858 21.8594 8.04142 21.8946 8.1118L22.4474 9.21738C22.6937 9.71005 22.6937 10.29 22.4474 10.7826L21.8946 11.8882C21.8594 11.9586 21.8594 12.0414 21.8946 12.1118L22.4474 13.2174C22.6937 13.71 22.6937 14.29 22.4474 14.7826L21.8946 15.8882C21.8594 15.9586 21.8594 16.0414 21.8946 16.1118L22.671 17.6646C22.8562 18.0351 22.7061 18.4856 22.3356 18.6708C21.9651 18.8561 21.5146 18.7059 21.3293 18.3354L20.5529 16.7826C20.3066 16.29 20.3066 15.71 20.5529 15.2174L21.1057 14.1118C21.1409 14.0414 21.1409 13.9586 21.1057 13.8882L20.5529 12.7826C20.3066 12.29 20.3066 11.71 20.5529 11.2174L21.1057 10.1118C21.1409 10.0414 21.1409 9.95858 21.1057 9.8882L20.5529 8.78262C20.3066 8.28995 20.3066 7.71005 20.5529 7.21738L21.3293 5.66459C21.5146 5.29411 21.9651 5.14394 22.3356 5.32918Z" fill="black"/>
</svg>
