<svg width="24" height="24" viewBox="0 0 24 24" fill="none" xmlns="http://www.w3.org/2000/svg">
<path fill-rule="evenodd" clip-rule="evenodd" d="M2.79575 5.04479C3.12955 2.79836 4.92351 1 7.1994 1C8.56185 1 9.76608 1.65634 10.5728 2.66024C10.8354 2.98696 10.7827 3.46417 10.4552 3.72612C10.1278 3.98806 9.64943 3.93555 9.38688 3.60882C8.83757 2.92524 8.05316 2.51648 7.1994 2.51648C5.85593 2.51648 4.6458 3.55861 4.33621 5.05001C4.48619 5.06901 4.63199 5.13273 4.75214 5.24214C5.06216 5.52445 5.0841 6.00404 4.80115 6.31334L4.06125 7.12213C3.91725 7.27954 3.71351 7.36922 3.4999 7.36922C3.2863 7.36922 3.08256 7.27954 2.93856 7.12213L2.19866 6.31334C1.9157 6.00404 1.93764 5.52445 2.24766 5.24214C2.40297 5.10073 2.6011 5.03565 2.79575 5.04479ZM11.1401 4.23516C11.3537 4.23516 11.5574 4.32484 11.7014 4.48224L12.4413 5.29103C12.7243 5.60034 12.7024 6.07993 12.3923 6.36223C12.237 6.50365 12.0389 6.56873 11.8443 6.55959C11.5105 8.80601 9.7165 10.6044 7.44061 10.6044C6.17342 10.6044 5.04151 10.036 4.2407 9.14793C3.95998 8.8366 3.98538 8.35718 4.29743 8.07711C4.60948 7.79704 5.09001 7.82238 5.37073 8.1337C5.91177 8.73372 6.64527 9.0879 7.44061 9.0879C8.78408 9.0879 9.99421 8.04577 10.3038 6.55437C10.1538 6.53536 10.008 6.47164 9.88786 6.36223C9.57784 6.07993 9.5559 5.60034 9.83886 5.29103L10.5788 4.48224C10.7228 4.32484 10.9265 4.23516 11.1401 4.23516Z" fill="black"/>
<path fill-rule="evenodd" clip-rule="evenodd" d="M21 11.8682V15.9121C21 19.7248 21 21.6311 19.8128 22.8156C18.6256 24 16.7149 24 12.8933 24C9.07182 24 7.16106 24 5.97386 22.8156C4.78667 21.6311 4.78667 19.7248 4.78667 15.9121V14.1799C4.78667 13.9114 4.78667 13.7772 4.81208 13.6661C4.89869 13.2875 5.19503 12.9918 5.57452 12.9054C5.68583 12.8801 5.82055 12.8801 6.09 12.8801C7.70361 12.8801 8.51042 12.8801 9.17709 12.7286C11.4561 12.2106 13.2357 10.4351 13.7548 8.16146C13.9067 7.49633 13.9067 6.69232 13.9067 5.08431C13.9067 4.81756 13.9067 4.68418 13.9326 4.57196C14.0204 4.19252 14.3301 3.88975 14.7121 3.80987C14.8251 3.78625 14.9546 3.78886 15.2135 3.7941C17.5447 3.84125 18.895 4.04902 19.8128 4.96471C21 6.14915 21 8.05549 21 11.8682ZM9.85334 20.2088C9.4336 20.2088 9.09334 20.5482 9.09334 20.967C9.09334 21.3858 9.4336 21.7252 9.85334 21.7252H15.9333C16.3531 21.7252 16.6933 21.3858 16.6933 20.967C16.6933 20.5482 16.3531 20.2088 15.9333 20.2088H9.85334Z" fill="black"/>
</svg>
