<svg width="24" height="24" viewBox="0 0 24 24" fill="none" xmlns="http://www.w3.org/2000/svg">
<path d="M7.49991 3H16.4999C17.6045 3 18.4999 3.52941 18.9999 5.11765L21.2505 12.8823C20.9286 12.7426 20.5913 12.675 20.2502 12.6383C19.782 12.5878 19.2096 12.5879 18.5508 12.5879H5.44925C4.79042 12.5879 4.21798 12.5878 3.74983 12.6383C3.40865 12.675 3.07125 12.7427 2.74933 12.8824L4.99991 5.11765C5.49991 3.52941 6.39534 3 7.49991 3Z" fill="black"/>
<path fill-rule="evenodd" clip-rule="evenodd" d="M21.6629 14.529C21.74 14.6512 21.7995 14.7844 21.8454 14.9348L21.8514 14.9557C21.9999 15.4616 21.9999 16.1626 21.9999 17.2941C21.9999 18.3241 21.9999 18.9974 21.8879 19.4915C21.8786 19.5324 21.8686 19.5721 21.8577 19.6107C21.8103 19.7786 21.7471 19.9251 21.6629 20.0585C21.517 20.2897 21.3295 20.4883 21.1111 20.6428C20.6067 20.9997 19.9045 20.9997 18.5 20.9997H5.5C4.09554 20.9997 3.39331 20.9997 2.88886 20.6428C2.67048 20.4883 2.48298 20.2897 2.33706 20.0585C2 19.5244 2 18.7809 2 17.2938C2 16.2196 2 15.5333 2.12707 15.0337L2.13491 15.0037C2.13926 14.9875 2.14385 14.9712 2.14849 14.9554L2.14905 14.9535C2.19564 14.7953 2.25679 14.6562 2.33706 14.529C2.48298 14.2978 2.67048 14.0993 2.88886 13.9448C3.39331 13.5879 4.09554 13.5879 5.5 13.5879H18.5C19.9045 13.5879 20.6067 13.5879 21.1111 13.9448C21.3295 14.0993 21.517 14.2978 21.6629 14.529ZM12.25 17C12.25 16.5858 11.9142 16.25 11.5 16.25C11.0858 16.25 10.75 16.5858 10.75 17V18C10.75 18.4142 11.0858 18.75 11.5 18.75C11.9142 18.75 12.25 18.4142 12.25 18V17ZM14 16.25C14.4142 16.25 14.75 16.5858 14.75 17V18C14.75 18.4142 14.4142 18.75 14 18.75C13.5858 18.75 13.25 18.4142 13.25 18V17C13.25 16.5858 13.5858 16.25 14 16.25ZM17.25 17C17.25 16.5858 16.9142 16.25 16.5 16.25C16.0858 16.25 15.75 16.5858 15.75 17V18C15.75 18.4142 16.0858 18.75 16.5 18.75C16.9142 18.75 17.25 18.4142 17.25 18V17ZM19.75 17C19.75 16.5858 19.4142 16.25 19 16.25C18.5858 16.25 18.25 16.5858 18.25 17V18C18.25 18.4142 18.5858 18.75 19 18.75C19.4142 18.75 19.75 18.4142 19.75 18V17Z" fill="black"/>
</svg>
