<svg width="24" height="24" viewBox="0 0 24 24" fill="none" xmlns="http://www.w3.org/2000/svg">
<path fill-rule="evenodd" clip-rule="evenodd" d="M17.7501 2.22165V7.96482C17.7501 8.54993 17.4577 9.09634 16.9708 9.4209L14.4161 11.124C14.0715 11.3538 13.6058 11.2607 13.376 10.916C13.1463 10.5714 13.2394 10.1057 13.5841 9.87596L16.1388 8.17283C16.2083 8.12646 16.2501 8.0484 16.2501 7.96482V2.06874C15.0943 2 13.7005 2 12 2C7.28595 2 4.92893 2 3.46447 3.46447C2 4.92893 2 7.28595 2 12C2 16.714 2 19.0711 3.46447 20.5355C4.92893 22 7.28595 22 12 22C16.714 22 19.0711 22 20.5355 20.5355C22 19.0711 22 16.714 22 12C22 7.28595 22 4.92893 20.5355 3.46447C19.8515 2.78045 18.9728 2.41592 17.7501 2.22165ZM6.25 12C6.25 8.82436 8.82436 6.25 12 6.25C12.5997 6.25 13.1793 6.34206 13.7247 6.51336C14.1199 6.63748 14.3397 7.05846 14.2155 7.45364C14.0914 7.84882 13.6704 8.06856 13.2753 7.94444C12.8736 7.81829 12.4455 7.75 12 7.75C9.65279 7.75 7.75 9.65279 7.75 12C7.75 14.3472 9.65279 16.25 12 16.25C14.3472 16.25 16.25 14.3472 16.25 12C16.25 11.5858 16.5858 11.25 17 11.25C17.4142 11.25 17.75 11.5858 17.75 12C17.75 15.1756 15.1756 17.75 12 17.75C8.82436 17.75 6.25 15.1756 6.25 12ZM10 11.25C10.4142 11.25 10.75 11.5858 10.75 12C10.75 12.6904 11.3096 13.25 12 13.25C12.4142 13.25 12.75 13.5858 12.75 14C12.75 14.4142 12.4142 14.75 12 14.75C10.4812 14.75 9.25 13.5188 9.25 12C9.25 11.5858 9.58579 11.25 10 11.25Z" fill="black"/>
</svg>
