<svg width="24" height="24" viewBox="0 0 24 24" fill="none" xmlns="http://www.w3.org/2000/svg">
<path fill-rule="evenodd" clip-rule="evenodd" d="M12.0646 17.9997C16.4827 18.0354 20.0354 14.4827 19.9997 10.0646C19.9641 5.64642 16.3536 2.03592 11.9354 2.00027C7.51731 1.96461 3.96461 5.51731 4.00027 9.93545C4.03592 14.3536 7.64642 17.9641 12.0646 17.9997ZM13.3739 6.4569C13.6739 6.74256 13.6854 7.2173 13.3998 7.51724L11.7495 9.25H13.9995C14.2996 9.25 14.5707 9.4288 14.6889 9.70456C14.8071 9.98032 14.7495 10.3 14.5426 10.5172L11.6855 13.5172C11.3998 13.8172 10.9251 13.8288 10.6251 13.5431C10.3252 13.2574 10.3136 12.7827 10.5993 12.4828L12.2495 10.75H9.99953C9.69951 10.75 9.42836 10.5712 9.31017 10.2954C9.19199 10.0197 9.24952 9.70002 9.45643 9.48276L12.3136 6.48276C12.5992 6.18281 13.074 6.17123 13.3739 6.4569Z" fill="black"/>
<path d="M11.1173 20.9242C11.1584 20.9412 11.2019 20.9544 11.25 20.9647V22C11.25 22.4142 11.5858 22.75 12 22.75C12.4142 22.75 12.75 22.4142 12.75 22V20.9647C12.7981 20.9544 12.8416 20.9412 12.8827 20.9242C13.1277 20.8227 13.3224 20.628 13.4239 20.383C13.5 20.1992 13.5 19.9663 13.5 19.5003V18.8964C13.0303 18.9685 12.5481 19.004 12.0565 19C11.526 18.9958 11.0059 18.9457 10.5 18.8535V19.5003C10.5 19.9663 10.5 20.1992 10.5761 20.383C10.6776 20.628 10.8723 20.8227 11.1173 20.9242Z" fill="black"/>
</svg>
