<svg width="24" height="24" viewBox="0 0 24 24" fill="none" xmlns="http://www.w3.org/2000/svg">
<path fill-rule="evenodd" clip-rule="evenodd" d="M9.20646 3.18191C8.95433 3.26179 8.70533 3.35257 8.46018 3.45411C7.33792 3.91897 6.3182 4.60032 5.45926 5.45926C4.60032 6.3182 3.91897 7.33792 3.45411 8.46018C3.0852 9.35082 2.85837 10.2922 2.78045 11.25H7.26094C7.29294 10.1541 7.39498 9.0741 7.56457 8.05057C7.7725 6.79558 8.07972 5.63914 8.47522 4.65039C8.69114 4.11057 8.9351 3.61641 9.20646 3.18191ZM12 1.25C10.5883 1.25 9.1904 1.52806 7.88615 2.06829C6.5819 2.60853 5.39683 3.40037 4.3986 4.3986C3.40037 5.39683 2.60853 6.5819 2.0683 7.88615C1.52806 9.1904 1.25 10.5883 1.25 12C1.25 13.4117 1.52806 14.8096 2.06829 16.1138C2.60853 17.4181 3.40037 18.6032 4.3986 19.6014C5.39683 20.5996 6.5819 21.3915 7.88615 21.9317C9.1904 22.4719 10.5883 22.75 12 22.75C13.4117 22.75 14.8096 22.4719 16.1138 21.9317C17.4181 21.3915 18.6032 20.5996 19.6014 19.6014C20.5996 18.6032 21.3915 17.4181 21.9317 16.1138C22.4719 14.8096 22.75 13.4117 22.75 12C22.75 10.5883 22.4719 9.1904 21.9317 7.88615C21.3915 6.5819 20.5996 5.39683 19.6014 4.3986C18.6032 3.40037 17.4181 2.60853 16.1138 2.0683C14.8096 1.52806 13.4117 1.25 12 1.25ZM12 2.75C11.7387 2.75 11.4012 2.87579 11.0088 3.2822C10.6134 3.69161 10.2176 4.33326 9.86793 5.20747C9.52056 6.07589 9.2385 7.12424 9.04439 8.29576C8.88866 9.23569 8.79316 10.2331 8.76162 11.25L15.2384 11.25C15.2068 10.2331 15.1113 9.23569 14.9556 8.29576C14.7615 7.12424 14.4794 6.0759 14.1321 5.20748C13.7824 4.33326 13.3866 3.69161 12.9912 3.2822C12.5988 2.87579 12.2613 2.75 12 2.75ZM16.7391 11.25C16.7071 10.1541 16.605 9.07411 16.4354 8.05057C16.2275 6.79558 15.9203 5.63914 15.5248 4.65039C15.3089 4.11057 15.0649 3.61641 14.7935 3.18191C15.0457 3.26179 15.2947 3.35257 15.5398 3.45411C16.6621 3.91897 17.6818 4.60032 18.5407 5.45926C19.3997 6.31821 20.081 7.33792 20.5459 8.46018C20.9148 9.35082 21.1416 10.2922 21.2195 11.25H16.7391ZM15.2384 12.75L8.76162 12.75C8.79316 13.7669 8.88866 14.7643 9.04439 15.7042C9.2385 16.8758 9.52056 17.9241 9.86793 18.7925C10.2176 19.6667 10.6134 20.3084 11.0088 20.7178C11.4012 21.1242 11.7387 21.25 12 21.25C12.2613 21.25 12.5988 21.1242 12.9912 20.7178C13.3866 20.3084 13.7824 19.6667 14.1321 18.7925C14.4794 17.9241 14.7615 16.8758 14.9556 15.7042C15.1113 14.7643 15.2068 13.7669 15.2384 12.75ZM14.7935 20.8181C15.0649 20.3836 15.3089 19.8894 15.5248 19.3496C15.9203 18.3609 16.2275 17.2044 16.4354 15.9494C16.605 14.9259 16.7071 13.8459 16.7391 12.75H21.2195C21.1416 13.7078 20.9148 14.6492 20.5459 15.5398C20.081 16.6621 19.3997 17.6818 18.5407 18.5407C17.6818 19.3997 16.6621 20.081 15.5398 20.5459C15.2947 20.6474 15.0457 20.7382 14.7935 20.8181ZM9.20646 20.8181C8.9351 20.3836 8.69114 19.8894 8.47521 19.3496C8.07971 18.3609 7.7725 17.2044 7.56457 15.9494C7.39498 14.9259 7.29294 13.8459 7.26094 12.75H2.78045C2.85837 13.7078 3.0852 14.6492 3.45411 15.5398C3.91897 16.6621 4.60032 17.6818 5.45926 18.5407C6.3182 19.3997 7.33792 20.081 8.46018 20.5459C8.70533 20.6474 8.95433 20.7382 9.20646 20.8181Z" fill="black"/>
</svg>
