<svg width="24" height="24" viewBox="0 0 24 24" fill="none" xmlns="http://www.w3.org/2000/svg">
<path fill-rule="evenodd" clip-rule="evenodd" d="M4.25 8.51464C4.25 4.45264 7.77146 1.25 12 1.25C16.2285 1.25 19.75 4.45264 19.75 8.51464C19.75 12.3258 17.3871 16.8 13.5748 18.4292C12.574 18.8569 11.426 18.8569 10.4252 18.4292C6.61289 16.8 4.25 12.3258 4.25 8.51464ZM12 2.75C8.49655 2.75 5.75 5.38076 5.75 8.51464C5.75 11.843 7.85543 15.6998 11.0147 17.0499C11.639 17.3167 12.361 17.3167 12.9853 17.0499C16.1446 15.6998 18.25 11.843 18.25 8.51464C18.25 5.38076 15.5034 2.75 12 2.75ZM12 7.75C11.3096 7.75 10.75 8.30964 10.75 9C10.75 9.69036 11.3096 10.25 12 10.25C12.6904 10.25 13.25 9.69036 13.25 9C13.25 8.30964 12.6904 7.75 12 7.75ZM9.25 9C9.25 7.48122 10.4812 6.25 12 6.25C13.5188 6.25 14.75 7.48122 14.75 9C14.75 10.5188 13.5188 11.75 12 11.75C10.4812 11.75 9.25 10.5188 9.25 9ZM3.59541 14.9966C3.87344 15.3036 3.84992 15.7779 3.54288 16.0559C2.97519 16.57 2.75 17.0621 2.75 17.5C2.75 18.2637 3.47401 19.2048 5.23671 19.998C6.929 20.7596 9.31951 21.25 12 21.25C14.6805 21.25 17.071 20.7596 18.7633 19.998C20.526 19.2048 21.25 18.2637 21.25 17.5C21.25 17.0621 21.0248 16.57 20.4571 16.0559C20.1501 15.7779 20.1266 15.3036 20.4046 14.9966C20.6826 14.6895 21.1569 14.666 21.4639 14.9441C22.227 15.635 22.75 16.5011 22.75 17.5C22.75 19.2216 21.2354 20.5305 19.3788 21.3659C17.4518 22.2331 14.8424 22.75 12 22.75C9.15764 22.75 6.54815 22.2331 4.62116 21.3659C2.76457 20.5305 1.25 19.2216 1.25 17.5C1.25 16.5011 1.77305 15.635 2.53605 14.9441C2.84309 14.666 3.31738 14.6895 3.59541 14.9966Z" fill="black"/>
</svg>
