<svg width="24" height="24" viewBox="0 0 24 24" fill="none" xmlns="http://www.w3.org/2000/svg">
<path fill-rule="evenodd" clip-rule="evenodd" d="M21.0471 1.98744C21.7007 2.67201 21.9872 3.75513 21.52 4.80282L14.1575 21.3125C13.3029 23.229 10.6971 23.229 9.84248 21.3125L2.47998 4.80282C2.01277 3.75513 2.29935 2.67201 2.95289 1.98744C3.61193 1.2971 4.68817 0.978305 5.72013 1.52928L5.36689 2.19088L5.72013 1.52928L11.6238 4.68131L11.2706 5.34291L11.6238 4.68131C11.8623 4.8086 12.1377 4.8086 12.3762 4.68131L18.2799 1.52928L18.6331 2.19088L18.2799 1.52928C19.3118 0.978304 20.3881 1.2971 21.0471 1.98744ZM18.9863 2.85249L18.6357 2.19572L18.9863 2.85249L13.0826 6.00452C12.4027 6.36753 11.5973 6.36753 10.9174 6.00452L5.01366 2.85249C4.65787 2.66253 4.2996 2.74905 4.03785 3.02323C3.77059 3.30317 3.65008 3.74374 3.84993 4.19189L11.2124 20.7016C11.5384 21.4327 12.4616 21.4327 12.7876 20.7016L20.1501 4.19189C20.3499 3.74374 20.2294 3.30317 19.9621 3.02323C19.7004 2.74905 19.3421 2.66253 18.9863 2.85249Z" fill="black"/>
</svg>
