<svg width="24" height="24" viewBox="0 0 24 24" fill="none" xmlns="http://www.w3.org/2000/svg">
<path fill-rule="evenodd" clip-rule="evenodd" d="M3.25 10.1433C3.25 5.24427 7.15501 1.25 12 1.25C16.845 1.25 20.75 5.24427 20.75 10.1433C20.75 12.5084 20.076 15.0479 18.8844 17.2419C17.6944 19.4331 15.9556 21.3372 13.7805 22.3539C12.6506 22.882 11.3494 22.882 10.2195 22.3539C8.04437 21.3372 6.30562 19.4331 5.11556 17.2419C3.92403 15.0479 3.25 12.5084 3.25 10.1433ZM12 2.75C8.00843 2.75 4.75 6.04748 4.75 10.1433C4.75 12.2404 5.35263 14.5354 6.4337 16.526C7.51624 18.5192 9.04602 20.1496 10.8546 20.995C11.5821 21.335 12.4179 21.335 13.1454 20.995C14.954 20.1496 16.4838 18.5192 17.5663 16.526C18.6474 14.5354 19.25 12.2404 19.25 10.1433C19.25 6.04748 15.9916 2.75 12 2.75ZM12 6.75C10.2051 6.75 8.75 8.20507 8.75 10C8.75 11.7949 10.2051 13.25 12 13.25C13.7949 13.25 15.25 11.7949 15.25 10C15.25 8.20507 13.7949 6.75 12 6.75ZM7.25 10C7.25 7.37665 9.37665 5.25 12 5.25C14.6234 5.25 16.75 7.37665 16.75 10C16.75 12.6234 14.6234 14.75 12 14.75C9.37665 14.75 7.25 12.6234 7.25 10ZM12 7.75C12.4142 7.75 12.75 8.08579 12.75 8.5V9.25H13.5C13.9142 9.25 14.25 9.58579 14.25 10C14.25 10.4142 13.9142 10.75 13.5 10.75H12.75V11.5C12.75 11.9142 12.4142 12.25 12 12.25C11.5858 12.25 11.25 11.9142 11.25 11.5V10.75H10.5C10.0858 10.75 9.75 10.4142 9.75 10C9.75 9.58579 10.0858 9.25 10.5 9.25H11.25V8.5C11.25 8.08579 11.5858 7.75 12 7.75Z" fill="black"/>
</svg>
