<svg width="24" height="24" viewBox="0 0 24 24" fill="none" xmlns="http://www.w3.org/2000/svg">
<path fill-rule="evenodd" clip-rule="evenodd" d="M21.0471 22.0126C21.7007 21.328 21.9872 20.2449 21.52 19.1972L14.1575 2.68746C13.3029 0.770992 10.6971 0.770992 9.84248 2.68746L2.47998 19.1972C2.01277 20.2449 2.29935 21.328 2.95289 22.0126C3.61193 22.7029 4.68817 23.0217 5.72013 22.4707L5.36689 21.8091L5.72013 22.4707L11.6238 19.3187L11.2706 18.6571L11.6238 19.3187C11.8623 19.1914 12.1377 19.1914 12.3762 19.3187L18.2799 22.4707L18.6331 21.8091L18.2799 22.4707C19.3118 23.0217 20.3881 22.7029 21.0471 22.0126ZM18.9863 21.1475L18.6357 21.8043L18.9863 21.1475L13.0826 17.9955C12.4027 17.6325 11.5973 17.6325 10.9174 17.9955L5.01366 21.1475C4.65787 21.3375 4.2996 21.2509 4.03785 20.9768C3.77059 20.6968 3.65008 20.2563 3.84993 19.8081L11.2124 3.29838C11.5384 2.56735 12.4616 2.56735 12.7876 3.29838L20.1501 19.8081C20.3499 20.2563 20.2294 20.6968 19.9621 20.9768C19.7004 21.2509 19.3421 21.3375 18.9863 21.1475Z" fill="black"/>
</svg>
