<svg width="24" height="24" viewBox="0 0 24 24" fill="none" xmlns="http://www.w3.org/2000/svg">
<path fill-rule="evenodd" clip-rule="evenodd" d="M14.3941 3.06477C11.9587 2.41221 9.49127 2.79438 7.45538 3.94297C7.09462 4.14651 6.63717 4.01905 6.43364 3.65829C6.23011 3.29753 6.35757 2.84008 6.71833 2.63655C9.08233 1.30284 11.9525 0.857647 14.7823 1.61589C20.5171 3.15251 23.9203 9.04713 22.3837 14.7819C20.8471 20.5167 14.9525 23.9199 9.21769 22.3833C3.48293 20.8467 0.0796705 14.952 1.6163 9.21728C1.92056 8.08176 2.39632 7.03633 3.00874 6.1023C3.58275 5.22684 4.74053 5.15904 5.47378 5.75252L12.4718 11.4166C12.7938 11.6772 12.8436 12.1495 12.583 12.4714C12.3224 12.7934 11.8501 12.8432 11.5281 12.5826L4.53008 6.91847C4.47424 6.87327 4.4114 6.85969 4.36152 6.86572C4.31609 6.87121 4.28533 6.89094 4.26315 6.92477C3.73715 7.727 3.32762 8.62608 3.06518 9.60551C1.74297 14.5401 4.67136 19.6122 9.60592 20.9344C14.5405 22.2566 19.6126 19.3282 20.9348 14.3937C22.257 9.4591 19.3286 4.38699 14.3941 3.06477Z" fill="black"/>
</svg>
