<svg width="24" height="24" viewBox="0 0 24 24" fill="none" xmlns="http://www.w3.org/2000/svg">
<path fill-rule="evenodd" clip-rule="evenodd" d="M6 3.75C5.30964 3.75 4.75 4.30964 4.75 5C4.75 5.69036 5.30964 6.25 6 6.25C6.69036 6.25 7.25 5.69036 7.25 5C7.25 4.30964 6.69036 3.75 6 3.75ZM3.25 5C3.25 3.48122 4.48122 2.25 6 2.25C7.25878 2.25 8.32002 3.09575 8.64648 4.25H16.5C18.8472 4.25 20.75 6.15279 20.75 8.5C20.75 10.8472 18.8472 12.75 16.5 12.75H7.5C5.98122 12.75 4.75 13.9812 4.75 15.5C4.75 17.0188 5.98122 18.25 7.5 18.25H18.1893L17.4697 17.5303C17.1768 17.2374 17.1768 16.7626 17.4697 16.4697C17.7626 16.1768 18.2374 16.1768 18.5303 16.4697L20.5303 18.4697C20.8232 18.7626 20.8232 19.2374 20.5303 19.5303L18.5303 21.5303C18.2374 21.8232 17.7626 21.8232 17.4697 21.5303C17.1768 21.2374 17.1768 20.7626 17.4697 20.4697L18.1893 19.75H7.5C5.15279 19.75 3.25 17.8472 3.25 15.5C3.25 13.1528 5.15279 11.25 7.5 11.25H16.5C18.0188 11.25 19.25 10.0188 19.25 8.5C19.25 6.98122 18.0188 5.75 16.5 5.75H8.64648C8.32002 6.90425 7.25878 7.75 6 7.75C4.48122 7.75 3.25 6.51878 3.25 5Z" fill="black"/>
</svg>
