<svg width="24" height="24" viewBox="0 0 24 24" fill="none" xmlns="http://www.w3.org/2000/svg">
<path d="M8.25 7C8.25 6.58579 8.58579 6.25 9 6.25H15C15.4142 6.25 15.75 6.58579 15.75 7C15.75 7.41421 15.4142 7.75 15 7.75H9C8.58579 7.75 8.25 7.41421 8.25 7Z" fill="black"/>
<path d="M9 15.25C8.58579 15.25 8.25 15.5858 8.25 16C8.25 16.4142 8.58579 16.75 9 16.75H15C15.4142 16.75 15.75 16.4142 15.75 16C15.75 15.5858 15.4142 15.25 15 15.25H9Z" fill="black"/>
<path fill-rule="evenodd" clip-rule="evenodd" d="M12.75 2C12.75 1.58579 12.4142 1.25 12 1.25C11.5858 1.25 11.25 1.58579 11.25 2V2.75L6.60638 2.74995C6.04435 2.74952 5.6012 2.74917 5.1838 2.88503C5.00078 2.9446 4.82452 3.02322 4.65792 3.11959C4.27796 3.33939 3.98214 3.66934 3.60695 4.08781L3.51779 4.18718C3.11286 4.63811 2.77334 5.01618 2.52616 5.35169C2.26641 5.70424 2.0639 6.06715 1.98387 6.49977C1.9227 6.83045 1.9227 7.16955 1.98387 7.50023C2.0639 7.93285 2.26641 8.29576 2.52616 8.64831C2.77334 8.98382 3.11285 9.36189 3.51778 9.81281L3.60695 9.91219C3.98213 10.3307 4.27796 10.6606 4.65792 10.8804C4.82452 10.9768 5.00078 11.0554 5.1838 11.115C5.6012 11.2508 6.04435 11.2505 6.60638 11.25L11.25 11.25V11.75L6.46165 11.75C5.79208 11.75 5.23335 11.75 4.78102 11.796C4.30755 11.8441 3.86818 11.9489 3.47218 12.2135C3.17191 12.4141 2.91409 12.6719 2.71346 12.9722C2.44886 13.3682 2.34415 13.8075 2.29598 14.281C2.24997 14.7334 2.24998 15.2921 2.25 15.9617V16.0383C2.24998 16.7079 2.24997 17.2666 2.29598 17.719C2.34415 18.1925 2.44886 18.6318 2.71346 19.0278C2.91409 19.3281 3.17191 19.5859 3.47218 19.7865C3.86818 20.0511 4.30755 20.1559 4.78102 20.204C5.23335 20.25 5.79208 20.25 6.46166 20.25H11.25V21.25H10C9.58579 21.25 9.25 21.5858 9.25 22C9.25 22.4142 9.58579 22.75 10 22.75H14C14.4142 22.75 14.75 22.4142 14.75 22C14.75 21.5858 14.4142 21.25 14 21.25H12.75V20.25L17.3936 20.25C17.9556 20.2505 18.3988 20.2508 18.8162 20.115C18.9992 20.0554 19.1755 19.9768 19.3421 19.8804C19.722 19.6606 20.0179 19.3307 20.393 18.9122L20.4822 18.8128C20.8872 18.3619 21.2267 17.9838 21.4738 17.6483C21.7336 17.2958 21.9361 16.9328 22.0161 16.5002C22.0773 16.1695 22.0773 15.8305 22.0161 15.4998C21.9361 15.0672 21.7336 14.7042 21.4738 14.3517C21.2266 14.0162 20.8871 13.6381 20.4822 13.1872L20.393 13.0878C20.0179 12.6693 19.722 12.3394 19.3421 12.1196C19.1755 12.0232 18.9992 11.9446 18.8162 11.885C18.3988 11.7492 17.9556 11.7495 17.3936 11.75L12.75 11.75V11.25L17.5383 11.25C18.2079 11.25 18.7666 11.25 19.219 11.204C19.6924 11.1559 20.1318 11.0511 20.5278 10.7865C20.8281 10.5859 21.0859 10.3281 21.2865 10.0278C21.5511 9.63182 21.6558 9.19245 21.704 8.71898C21.75 8.26664 21.75 7.70791 21.75 7.03832V6.96168C21.75 6.29209 21.75 5.73336 21.704 5.28102C21.6558 4.80755 21.5511 4.36818 21.2865 3.97218C21.0859 3.67191 20.8281 3.4141 20.5278 3.21346C20.1318 2.94886 19.6924 2.84415 19.219 2.79598C18.7666 2.74997 18.2079 2.74998 17.5383 2.75L12.75 2.75V2ZM6.70399 4.25C5.99772 4.25 5.81021 4.2586 5.64805 4.31138C5.56486 4.33845 5.48474 4.37419 5.40901 4.418C5.2614 4.50339 5.12972 4.63716 4.65785 5.16266C4.22267 5.64729 3.93269 5.97145 3.73379 6.24142C3.54258 6.50095 3.48122 6.65166 3.45884 6.77262C3.43104 6.92293 3.43104 7.07707 3.45884 7.22738C3.48122 7.34834 3.54258 7.49905 3.73379 7.75858C3.93269 8.02855 4.22267 8.35271 4.65785 8.83735C5.12972 9.36284 5.2614 9.49661 5.40901 9.582C5.48474 9.62581 5.56486 9.66155 5.64805 9.68862C5.81021 9.7414 5.99772 9.75 6.70399 9.75H17.5C18.2178 9.75 18.6998 9.74909 19.0672 9.71172C19.422 9.67562 19.586 9.6118 19.6945 9.53934C19.8309 9.44814 19.9481 9.33095 20.0393 9.19446C20.1118 9.08601 20.1756 8.92204 20.2117 8.56717C20.2491 8.19977 20.25 7.71784 20.25 7C20.25 6.28216 20.2491 5.80023 20.2117 5.43283C20.1756 5.07796 20.1118 4.91399 20.0393 4.80554C19.9481 4.66905 19.8309 4.55186 19.6945 4.46066C19.586 4.3882 19.422 4.32438 19.0672 4.28828C18.6998 4.25091 18.2178 4.25 17.5 4.25H6.70399ZM17.296 13.25C18.0023 13.25 18.1898 13.2586 18.3519 13.3114C18.4351 13.3385 18.5153 13.3742 18.591 13.418C18.7386 13.5034 18.8703 13.6372 19.3421 14.1627C19.7773 14.6473 20.0673 14.9714 20.2662 15.2414C20.4574 15.5009 20.5188 15.6517 20.5411 15.7726C20.569 15.9229 20.569 16.0771 20.5411 16.2274C20.5188 16.3483 20.4574 16.4991 20.2662 16.7586C20.0673 17.0286 19.7773 17.3527 19.3421 17.8373C18.8703 18.3628 18.7386 18.4966 18.591 18.582C18.5153 18.6258 18.4351 18.6615 18.3519 18.6886C18.1898 18.7414 18.0023 18.75 17.296 18.75H6.5C5.78216 18.75 5.30023 18.7491 4.93283 18.7117C4.57796 18.6756 4.41399 18.6118 4.30554 18.5393C4.16905 18.4481 4.05186 18.331 3.96066 18.1945C3.8882 18.086 3.82438 17.922 3.78828 17.5672C3.75091 17.1998 3.75 16.7178 3.75 16C3.75 15.2822 3.75091 14.8002 3.78828 14.4328C3.82438 14.078 3.8882 13.914 3.96066 13.8055C4.05186 13.669 4.16905 13.5519 4.30554 13.4607C4.41399 13.3882 4.57796 13.3244 4.93283 13.2883C5.30023 13.2509 5.78216 13.25 6.5 13.25H17.296Z" fill="black"/>
</svg>
