<svg width="24" height="24" viewBox="0 0 24 24" fill="none" xmlns="http://www.w3.org/2000/svg">
<path fill-rule="evenodd" clip-rule="evenodd" d="M8.55746 4.32787C8.83456 4.63576 8.8096 5.10997 8.50171 5.38707L6.80525 6.91389C6.01737 7.62298 5.48617 8.10338 5.14207 8.51241C4.81182 8.90499 4.73969 9.13417 4.73969 9.3296C4.73969 9.52502 4.81182 9.75421 5.14207 10.1468C5.48617 10.5558 6.01737 11.0362 6.80524 11.7453L8.50171 13.2721C8.8096 13.5492 8.83456 14.0234 8.55746 14.3313C8.28037 14.6392 7.80615 14.6642 7.49827 14.3871L5.76077 12.8233C5.02443 12.1607 4.41363 11.611 3.99422 11.1124C3.55319 10.5882 3.23969 10.0249 3.23969 9.3296C3.23969 8.6343 3.55319 8.07104 3.99422 7.54679C4.41363 7.04822 5.02444 6.49853 5.76078 5.83587C5.77441 5.8236 5.78808 5.81129 5.8018 5.79895L7.49827 4.27213C7.80615 3.99503 8.28037 4.01999 8.55746 4.32787ZM14.1795 4.27517C14.5798 4.38157 14.818 4.79234 14.7116 5.19266L10.7248 20.1927C10.6184 20.593 10.2077 20.8312 9.80734 20.7248C9.40702 20.6184 9.16876 20.2077 9.27516 19.8074L13.262 4.80735C13.3684 4.40704 13.7791 4.16877 14.1795 4.27517ZM15.4425 10.4983C15.7196 10.1904 16.1938 10.1654 16.5017 10.4425L18.2392 12.0063C18.9755 12.6689 19.5863 13.2186 20.0058 13.7172C20.4468 14.2415 20.7603 14.8047 20.7603 15.5C20.7603 16.1953 20.4468 16.7586 20.0058 17.2828C19.5864 17.7814 18.9756 18.3311 18.2392 18.9937L16.5017 20.5575C16.1938 20.8346 15.7196 20.8096 15.4425 20.5017C15.1654 20.1938 15.1904 19.7196 15.4983 19.4425L17.1947 17.9157C17.9826 17.2066 18.5138 16.7262 18.8579 16.3172C19.1882 15.9246 19.2603 15.6954 19.2603 15.5C19.2603 15.3046 19.1882 15.0754 18.8579 14.6828C18.5138 14.2738 17.9826 13.7934 17.1947 13.0843L15.4983 11.5575C15.1904 11.2804 15.1654 10.8062 15.4425 10.4983Z" fill="black"/>
</svg>
