<svg width="24" height="24" viewBox="0 0 24 24" fill="none" xmlns="http://www.w3.org/2000/svg">
<path fill-rule="evenodd" clip-rule="evenodd" d="M10.7226 3.20068C10.8335 2.80158 10.5998 2.38817 10.2007 2.27731C9.80163 2.16645 9.38822 2.40011 9.27736 2.79921L7.76327 8.24995H4C3.58579 8.24995 3.25 8.58573 3.25 8.99995C3.25 9.41416 3.58579 9.74995 4 9.74995H7.3466L5.81882 15.2499H2C1.58579 15.2499 1.25 15.5857 1.25 15.9999C1.25 16.4142 1.58579 16.7499 2 16.7499H5.40216L4.27736 20.7992C4.1665 21.1983 4.40016 21.6117 4.79927 21.7226C5.19837 21.8334 5.61178 21.5998 5.72264 21.2007L6.95895 16.7499H14.4022L13.2774 20.7992C13.1665 21.1983 13.4002 21.6117 13.7993 21.7226C14.1984 21.8334 14.6118 21.5998 14.7226 21.2007L15.959 16.7499H20C20.4142 16.7499 20.75 16.4142 20.75 15.9999C20.75 15.5857 20.4142 15.2499 20 15.2499H16.3756L17.9034 9.74995H22C22.4142 9.74995 22.75 9.41416 22.75 8.99995C22.75 8.58573 22.4142 8.24995 22 8.24995H18.3201L19.7226 3.20068C19.8335 2.80158 19.5998 2.38817 19.2007 2.27731C18.8016 2.16645 18.3882 2.40011 18.2774 2.79921L16.7633 8.24995H9.32006L10.7226 3.20068ZM14.8188 15.2499L16.3466 9.74995H8.9034L7.37562 15.2499H14.8188Z" fill="black"/>
</svg>
