<svg width="24" height="24" viewBox="0 0 24 24" fill="none" xmlns="http://www.w3.org/2000/svg">
<path d="M9.70225 14.2633C9.84769 13.8755 9.65118 13.4432 9.26334 13.2978C8.8755 13.1523 8.44319 13.3488 8.29775 13.7367L6.79775 17.7367C6.65231 18.1245 6.84882 18.5568 7.23666 18.7022C7.6245 18.8477 8.05681 18.6512 8.20225 18.2633L9.70225 14.2633Z" fill="black"/>
<path d="M6.53033 14.5303C6.82322 14.2374 6.82322 13.7626 6.53033 13.4697C6.23744 13.1768 5.76256 13.1768 5.46967 13.4697L4.46967 14.4697C4.17678 14.7626 4.17678 15.2374 4.46967 15.5303L5.46967 16.5303C5.76256 16.8232 6.23744 16.8232 6.53033 16.5303C6.82322 16.2374 6.82322 15.7626 6.53033 15.4697L6.06066 15L6.53033 14.5303Z" fill="black"/>
<path d="M11.0303 15.4697C10.7374 15.1768 10.2626 15.1768 9.96967 15.4697C9.67678 15.7626 9.67678 16.2374 9.96967 16.5303L10.4393 17L9.96967 17.4697C9.67678 17.7626 9.67678 18.2374 9.96967 18.5303C10.2626 18.8232 10.7374 18.8232 11.0303 18.5303L12.0303 17.5303C12.3232 17.2374 12.3232 16.7626 12.0303 16.4697L11.0303 15.4697Z" fill="black"/>
<path fill-rule="evenodd" clip-rule="evenodd" d="M9.94358 2.25H14.0564C14.3707 2.25 14.6737 2.25 14.966 2.25076C14.9773 2.25025 14.9886 2.25 15 2.25C15.0129 2.25 15.0257 2.25032 15.0384 2.25096C16.4224 2.25523 17.5607 2.27833 18.489 2.40314C19.6614 2.56076 20.6104 2.89288 21.3588 3.64124C22.1071 4.38961 22.4392 5.33856 22.5969 6.51098C22.75 7.65018 22.75 9.1058 22.75 10.9435V13.0564C22.75 14.8942 22.75 16.3498 22.5969 17.489C22.4392 18.6614 22.1071 19.6104 21.3588 20.3588C20.6104 21.1071 19.6614 21.4392 18.489 21.5969C17.5607 21.7217 16.4224 21.7448 15.0384 21.749C15.0257 21.7497 15.0129 21.75 15 21.75C14.9886 21.75 14.9773 21.7497 14.966 21.7492C14.6752 21.75 14.3737 21.75 14.0611 21.75H9.94359C8.10585 21.75 6.65018 21.75 5.51098 21.5969C4.33856 21.4392 3.38961 21.1071 2.64124 20.3588C1.89288 19.6104 1.56076 18.6614 1.40314 17.489C1.24997 16.3498 1.24998 14.8942 1.25 13.0564V10.9436C1.24998 9.10583 1.24997 7.65019 1.40314 6.51098C1.56076 5.33856 1.89288 4.38961 2.64124 3.64124C3.38961 2.89288 4.33856 2.56076 5.51098 2.40314C6.65019 2.24997 8.10583 2.24998 9.94358 2.25ZM14.25 3.75002L14.25 20.25L10 20.25C8.09318 20.25 6.73851 20.2484 5.71085 20.1102C4.70476 19.975 4.12511 19.7213 3.7019 19.2981C3.27869 18.8749 3.02503 18.2952 2.88976 17.2892C2.75159 16.2615 2.75 14.9068 2.75 13V11C2.75 9.09318 2.75159 7.73851 2.88976 6.71085C3.02503 5.70476 3.27869 5.12511 3.7019 4.7019C4.12511 4.27869 4.70476 4.02503 5.71085 3.88976C6.73851 3.75159 8.09318 3.75 10 3.75L14.25 3.75002ZM18.2892 20.1102C17.6082 20.2018 16.7836 20.2334 15.75 20.2443L15.75 3.75573C16.7836 3.76662 17.6082 3.79821 18.2892 3.88976C19.2952 4.02503 19.8749 4.27869 20.2981 4.7019C20.7213 5.12511 20.975 5.70476 21.1102 6.71085C21.2484 7.73851 21.25 9.09318 21.25 11V13C21.25 14.9068 21.2484 16.2615 21.1102 17.2892C20.975 18.2952 20.7213 18.8749 20.2981 19.2981C19.8749 19.7213 19.2952 19.975 18.2892 20.1102Z" fill="black"/>
</svg>
