<svg width="24" height="24" viewBox="0 0 24 24" fill="none" xmlns="http://www.w3.org/2000/svg">
<path d="M5.75 9.05473C5.75 5.56721 8.55372 2.75 12 2.75C15.4463 2.75 18.25 5.56721 18.25 9.05473C18.25 10.7638 17.5769 12.3119 16.4833 13.4475C16.196 13.7458 16.2049 14.2206 16.5033 14.5079C16.8016 14.7953 17.2764 14.7863 17.5637 14.488C18.9168 13.083 19.75 11.1656 19.75 9.05473C19.75 4.74981 16.2857 1.25 12 1.25C7.7143 1.25 4.25 4.74981 4.25 9.05473C4.25 11.1836 5.09743 13.1156 6.47088 14.5237C6.76011 14.8202 7.23494 14.8261 7.53146 14.5369C7.82798 14.2477 7.8339 13.7728 7.54467 13.4763C6.43459 12.3382 5.75 10.7783 5.75 9.05473Z" fill="black"/>
<path d="M8.55 9.05473C8.55 7.12569 10.1001 5.57189 12 5.57189C13.8999 5.57189 15.45 7.12569 15.45 9.05473C15.45 9.9873 15.088 10.8321 14.4979 11.4571C14.2135 11.7583 14.2272 12.233 14.5284 12.5173C14.8296 12.8017 15.3043 12.788 15.5886 12.4868C16.4321 11.5933 16.95 10.3837 16.95 9.05473C16.95 6.3083 14.7393 4.07189 12 4.07189C9.26069 4.07189 7.05 6.3083 7.05 9.05473C7.05 10.4028 7.58286 11.628 8.44792 12.5251C8.73545 12.8233 9.21024 12.8319 9.50841 12.5444C9.80657 12.2569 9.8152 11.7821 9.52768 11.4839C8.92249 10.8563 8.55 10.0006 8.55 9.05473Z" fill="black"/>
<path fill-rule="evenodd" clip-rule="evenodd" d="M14 8.75C14 9.50706 13.5794 10.1659 12.9591 10.5055L15.206 17.2462C15.2099 17.2571 15.2136 17.2681 15.217 17.2792L16.7115 21.7628C16.8425 22.1558 16.6301 22.5805 16.2372 22.7115C15.8442 22.8425 15.4195 22.6301 15.2885 22.2372L13.9594 18.25H10.0406L8.71151 22.2372C8.58053 22.6301 8.15579 22.8425 7.76283 22.7115C7.36987 22.5805 7.1575 22.1558 7.28849 21.7628L8.78302 17.2792C8.78644 17.2681 8.79011 17.2571 8.79402 17.2462L11.0409 10.5055C10.4206 10.1659 10 9.50706 10 8.75C10 7.64543 10.8954 6.75 12 6.75C13.1046 6.75 14 7.64543 14 8.75ZM11.5 8.75C11.5 8.47386 11.7239 8.25 12 8.25C12.2761 8.25 12.5 8.47386 12.5 8.75C12.5 9.02614 12.2761 9.25 12 9.25C11.7239 9.25 11.5 9.02614 11.5 8.75ZM10.5406 16.75H13.4594L12 12.3717L10.5406 16.75Z" fill="black"/>
</svg>
