<svg width="24" height="24" viewBox="0 0 24 24" fill="none" xmlns="http://www.w3.org/2000/svg">
<path d="M5.46583 2.53086C5.75902 2.23826 5.75949 1.76338 5.46689 1.4702C5.17429 1.17701 4.69941 1.17654 4.40623 1.46914C2.45721 3.41428 1.25 6.10595 1.25 9.07816C1.25 12.0852 2.48564 14.805 4.47497 16.7552C4.77076 17.0451 5.24561 17.0404 5.53557 16.7446C5.82554 16.4488 5.82082 15.974 5.52503 15.684C3.81163 14.0043 2.75 11.6659 2.75 9.07816C2.75 6.5203 3.78722 4.20612 5.46583 2.53086Z" fill="black"/>
<path d="M19.677 1.55312C19.387 1.25733 18.9122 1.25262 18.6164 1.54258C18.3206 1.83255 18.3159 2.3074 18.6059 2.60319C20.2422 4.27243 21.25 6.55686 21.25 9.07816C21.25 11.6293 20.2182 13.9381 18.5473 15.6123C18.2547 15.9055 18.2552 16.3804 18.5484 16.673C18.8415 16.9656 19.3164 16.9651 19.609 16.6719C21.5491 14.728 22.75 12.0426 22.75 9.07816C22.75 6.14855 21.5771 3.49139 19.677 1.55312Z" fill="black"/>
<path d="M8.27408 5.62574C8.57652 5.34272 8.59226 4.8681 8.30923 4.56566C8.02621 4.26322 7.5516 4.24748 7.24916 4.53051C6.02148 5.67937 5.25 7.28109 5.25 9.06033C5.25 10.8605 6.03967 12.4787 7.29244 13.6303C7.59739 13.9106 8.07185 13.8906 8.35216 13.5857C8.63248 13.2807 8.61251 12.8063 8.30756 12.526C7.33869 11.6354 6.75 10.4078 6.75 9.06033C6.75 7.72833 7.32517 6.51373 8.27408 5.62574Z" fill="black"/>
<path d="M16.8033 4.58011C16.5039 4.2938 16.0292 4.30435 15.7429 4.60369C15.4566 4.90302 15.4671 5.37777 15.7664 5.66408C16.6911 6.54855 17.25 7.74727 17.25 9.06033C17.25 10.3889 16.6778 11.6006 15.7333 12.4879C15.4315 12.7716 15.4167 13.2462 15.7003 13.5481C15.9839 13.85 16.4586 13.8648 16.7604 13.5811C17.9825 12.4329 18.75 10.8349 18.75 9.06033C18.75 7.30668 18.0005 5.72524 16.8033 4.58011Z" fill="black"/>
<path fill-rule="evenodd" clip-rule="evenodd" d="M13.4242 11.4311C14.219 10.949 14.75 10.0756 14.75 9.07812C14.75 7.55934 13.5188 6.32812 12 6.32812C10.4812 6.32812 9.25 7.55934 9.25 9.07812C9.25 10.0756 9.78103 10.949 10.5758 11.4311L7.28531 21.7726C7.17688 22.1134 7.32411 22.4833 7.63704 22.6563C7.94997 22.8294 8.34156 22.7574 8.57254 22.4845L12 18.4338L15.4275 22.4845C15.6584 22.7574 16.05 22.8294 16.363 22.6563C16.6759 22.4833 16.8231 22.1134 16.7147 21.7726L13.4242 11.4311ZM12 7.82812C11.3096 7.82812 10.75 8.38777 10.75 9.07812C10.75 9.61867 11.0931 10.0791 11.5734 10.2534C11.6247 10.2585 11.6763 10.269 11.7274 10.2853C11.7519 10.2931 11.7757 10.302 11.7988 10.312C11.8643 10.3226 11.9315 10.3281 12 10.3281C12.0685 10.3281 12.1357 10.3226 12.2012 10.312C12.2243 10.302 12.2481 10.2931 12.2726 10.2853C12.3237 10.269 12.3753 10.2585 12.4266 10.2534C12.9069 10.0791 13.25 9.61867 13.25 9.07812C13.25 8.38777 12.6904 7.82812 12 7.82812ZM14.1466 18.6485L12.9825 17.2727L13.5103 16.6489L14.1466 18.6485ZM12.9275 15.0155C12.9425 14.9978 12.9582 14.9809 12.9745 14.9648L12 11.9022L11.0255 14.9648C11.0418 14.9809 11.0575 14.9978 11.0725 15.0155L12 16.1116L12.9275 15.0155ZM11.0175 17.2727L10.4897 16.6489L9.85345 18.6485L11.0175 17.2727Z" fill="black"/>
</svg>
