<svg width="24" height="24" viewBox="0 0 24 24" fill="none" xmlns="http://www.w3.org/2000/svg">
<path fill-rule="evenodd" clip-rule="evenodd" d="M4.25 8.67499C2.53832 8.32753 1.25 6.81422 1.25 5C1.25 2.92893 2.92893 1.25 5 1.25C6.81422 1.25 8.32753 2.53832 8.67499 4.25H15.325C15.6725 2.53832 17.1858 1.25 19 1.25C21.0711 1.25 22.75 2.92893 22.75 5C22.75 6.81422 21.4617 8.32753 19.75 8.67499V15.325C21.4617 15.6725 22.75 17.1858 22.75 19C22.75 21.0711 21.0711 22.75 19 22.75C17.1858 22.75 15.6725 21.4617 15.325 19.75H8.67499C8.32753 21.4617 6.81422 22.75 5 22.75C2.92893 22.75 1.25 21.0711 1.25 19C1.25 17.1858 2.53832 15.6725 4.25 15.325L4.25 8.67499ZM2.75 5C2.75 3.75736 3.75736 2.75 5 2.75C6.24264 2.75 7.25 3.75736 7.25 5C7.25 6.24264 6.24264 7.25 5 7.25C3.75736 7.25 2.75 6.24264 2.75 5ZM5.75 15.325L5.75 8.67499C7.21935 8.37673 8.37672 7.21935 8.67499 5.75H15.325C15.6233 7.21935 16.7807 8.37673 18.25 8.67499V15.325C16.7807 15.6233 15.6233 16.7807 15.325 18.25H8.67499C8.37672 16.7807 7.21935 15.6233 5.75 15.325ZM5 16.75C3.75736 16.75 2.75 17.7574 2.75 19C2.75 20.2426 3.75736 21.25 5 21.25C6.24264 21.25 7.25 20.2426 7.25 19C7.25 17.7574 6.24264 16.75 5 16.75ZM21.25 5C21.25 6.24264 20.2426 7.25 19 7.25C17.7574 7.25 16.75 6.24264 16.75 5C16.75 3.75736 17.7574 2.75 19 2.75C20.2426 2.75 21.25 3.75736 21.25 5ZM16.75 19C16.75 17.7574 17.7574 16.75 19 16.75C20.2426 16.75 21.25 17.7574 21.25 19C21.25 20.2426 20.2426 21.25 19 21.25C17.7574 21.25 16.75 20.2426 16.75 19Z" fill="black"/>
</svg>
