<svg width="24" height="24" viewBox="0 0 24 24" fill="none" xmlns="http://www.w3.org/2000/svg">
<path d="M5.46689 4.39207C5.75949 4.68526 5.75902 5.16013 5.46583 5.45273C3.78722 7.128 2.75 9.44218 2.75 12C2.75 14.5878 3.81163 16.9262 5.52503 18.6059C5.82082 18.8959 5.82554 19.3707 5.53557 19.6665C5.24561 19.9623 4.77076 19.967 4.47497 19.677C2.48564 17.7269 1.25 15.0071 1.25 12C1.25 9.02783 2.45721 6.33616 4.40623 4.39102C4.69941 4.09842 5.17429 4.09889 5.46689 4.39207Z" fill="black"/>
<path d="M18.6164 4.46446C18.9122 4.17449 19.387 4.17921 19.677 4.475C21.5771 6.41326 22.75 9.07043 22.75 12C22.75 14.9645 21.5491 17.6499 19.609 19.5938C19.3164 19.887 18.8415 19.8875 18.5484 19.5949C18.2552 19.3023 18.2547 18.8274 18.5473 18.5342C20.2182 16.86 21.25 14.5512 21.25 12C21.25 9.47873 20.2422 7.1943 18.6059 5.52507C18.3159 5.22928 18.3206 4.75443 18.6164 4.46446Z" fill="black"/>
<path d="M8.30923 7.4876C8.59226 7.79004 8.57652 8.26465 8.27408 8.54768C7.32517 9.43567 6.75 10.6503 6.75 11.9823C6.75 13.3297 7.33869 14.5573 8.30756 15.4479C8.61251 15.7282 8.63248 16.2027 8.35216 16.5076C8.07185 16.8126 7.59739 16.8325 7.29244 16.5522C6.03967 15.4007 5.25 13.7824 5.25 11.9823C5.25 10.203 6.02148 8.60131 7.24916 7.45245C7.5516 7.16942 8.02621 7.18516 8.30923 7.4876Z" fill="black"/>
<path d="M15.7429 7.52562C16.0292 7.22629 16.5039 7.21574 16.8033 7.50205C18.0005 8.64717 18.75 10.2286 18.75 11.9823C18.75 13.7568 17.9825 15.3549 16.7604 16.5031C16.4586 16.7867 15.9839 16.7719 15.7003 16.47C15.4167 16.1682 15.4315 15.6935 15.7333 15.4099C16.6778 14.5225 17.25 13.3108 17.25 11.9823C17.25 10.6692 16.6911 9.47049 15.7664 8.58602C15.4671 8.29971 15.4566 7.82495 15.7429 7.52562Z" fill="black"/>
<path fill-rule="evenodd" clip-rule="evenodd" d="M12 9.25006C10.4812 9.25006 9.25 10.4813 9.25 12.0001C9.25 13.5188 10.4812 14.7501 12 14.7501C13.5188 14.7501 14.75 13.5188 14.75 12.0001C14.75 10.4813 13.5188 9.25006 12 9.25006ZM10.75 12.0001C10.75 11.3097 11.3096 10.7501 12 10.7501C12.6904 10.7501 13.25 11.3097 13.25 12.0001C13.25 12.6904 12.6904 13.2501 12 13.2501C11.3096 13.2501 10.75 12.6904 10.75 12.0001Z" fill="black"/>
</svg>
