<svg width="24" height="24" viewBox="0 0 24 24" fill="none" xmlns="http://www.w3.org/2000/svg">
<path d="M12.1089 5.68399C12.8228 3.96031 14.5208 2.75 16.4996 2.75C18.4785 2.75 20.1765 3.96031 20.8904 5.68399C21.0488 6.06668 21.4876 6.24844 21.8702 6.08995C22.2529 5.93146 22.4347 5.49275 22.2762 5.11005C21.3383 2.8454 19.1062 1.25 16.4996 1.25C13.8931 1.25 11.661 2.8454 10.7231 5.11005C10.5646 5.49275 10.7464 5.93146 11.129 6.08995C11.5117 6.24844 11.9505 6.06668 12.1089 5.68399Z" fill="black"/>
<path fill-rule="evenodd" clip-rule="evenodd" d="M7 12.75C5.75736 12.75 4.75 13.7574 4.75 15C4.75 16.2426 5.75736 17.25 7 17.25C8.24264 17.25 9.25 16.2426 9.25 15C9.25 13.7574 8.24264 12.75 7 12.75ZM6.25 15C6.25 14.5858 6.58579 14.25 7 14.25C7.41421 14.25 7.75 14.5858 7.75 15C7.75 15.4142 7.41421 15.75 7 15.75C6.58579 15.75 6.25 15.4142 6.25 15Z" fill="black"/>
<path d="M11.25 15C11.25 14.5858 11.5858 14.25 12 14.25H18.5C18.9142 14.25 19.25 14.5858 19.25 15C19.25 15.4142 18.9142 15.75 18.5 15.75H12C11.5858 15.75 11.25 15.4142 11.25 15Z" fill="black"/>
<path fill-rule="evenodd" clip-rule="evenodd" d="M7 9.25C3.82436 9.25 1.25 11.8244 1.25 15C1.25 17.4613 2.79642 19.5614 4.97065 20.3816L4.32918 21.6646C4.14394 22.0351 4.29411 22.4856 4.66459 22.6708C5.03507 22.8561 5.48558 22.7059 5.67082 22.3354L6.47533 20.7264C6.64813 20.742 6.82313 20.75 7 20.75H17C17.1769 20.75 17.3519 20.742 17.5247 20.7264L18.3292 22.3354C18.5144 22.7059 18.9649 22.8561 19.3354 22.6708C19.7059 22.4856 19.8561 22.0351 19.6708 21.6646L19.0294 20.3816C21.2036 19.5614 22.75 17.4613 22.75 15C22.75 11.8244 20.1756 9.25 17 9.25H7ZM2.75 15C2.75 12.6528 4.65279 10.75 7 10.75H17C19.3472 10.75 21.25 12.6528 21.25 15C21.25 17.3472 19.3472 19.25 17 19.25H7C4.65279 19.25 2.75 17.3472 2.75 15Z" fill="black"/>
<path d="M16.5004 5.25C15.478 5.25 14.6132 5.93244 14.3401 6.8682C14.2241 7.26583 13.8077 7.49411 13.41 7.37808C13.0124 7.26205 12.7841 6.84564 12.9001 6.44801C13.3549 4.88969 14.7936 3.75 16.5004 3.75C18.2072 3.75 19.6459 4.88969 20.1006 6.44801C20.2166 6.84564 19.9884 7.26205 19.5907 7.37808C19.1931 7.49411 18.7767 7.26583 18.6607 6.8682C18.3876 5.93244 17.5227 5.25 16.5004 5.25Z" fill="black"/>
<path d="M16.5 8C17.0523 8 17.5 7.55228 17.5 7C17.5 6.44772 17.0523 6 16.5 6C15.9477 6 15.5 6.44772 15.5 7C15.5 7.55228 15.9477 8 16.5 8Z" fill="black"/>
</svg>
