<svg width="24" height="24" viewBox="0 0 24 24" fill="none" xmlns="http://www.w3.org/2000/svg">
<path opacity="0.5" d="M2 12C2 6.47715 6.47715 2 12 2C17.5228 2 22 6.47715 22 12C22 17.5228 17.5228 22 12 22C6.47715 22 2 17.5228 2 12Z" fill="black"/>
<path d="M15.5303 10.4697C15.8232 10.7626 15.8232 11.2374 15.5303 11.5303C15.2374 11.8232 14.7626 11.8232 14.4697 11.5303L12.75 9.81066L12.75 16C12.75 16.4142 12.4142 16.75 12 16.75C11.5858 16.75 11.25 16.4142 11.25 16L11.25 9.81066L9.53033 11.5303C9.23744 11.8232 8.76256 11.8232 8.46967 11.5303C8.17678 11.2374 8.17678 10.7626 8.46967 10.4697L11.4697 7.46967C11.7626 7.17678 12.2374 7.17678 12.5303 7.46967L15.5303 10.4697Z" fill="black"/>
</svg>
