<svg width="24" height="24" viewBox="0 0 24 24" fill="none" xmlns="http://www.w3.org/2000/svg">
<path opacity="0.5" d="M12 22C6.47715 22 2 17.5228 2 12C2 6.47715 6.47715 2 12 2C17.5228 2 22 6.47715 22 12C22 17.5228 17.5228 22 12 22Z" fill="black"/>
<path d="M10.4697 8.46967C10.7626 8.17678 11.2374 8.17678 11.5303 8.46967C11.8232 8.76256 11.8232 9.23744 11.5303 9.53033L9.81066 11.25H16C16.4142 11.25 16.75 11.5858 16.75 12C16.75 12.4142 16.4142 12.75 16 12.75H9.81066L11.5303 14.4697C11.8232 14.7626 11.8232 15.2374 11.5303 15.5303C11.2374 15.8232 10.7626 15.8232 10.4697 15.5303L7.46967 12.5303C7.17678 12.2374 7.17678 11.7626 7.46967 11.4697L10.4697 8.46967Z" fill="black"/>
</svg>
