<svg width="24" height="24" viewBox="0 0 24 24" fill="none" xmlns="http://www.w3.org/2000/svg">
<path opacity="0.5" d="M22 12C22 6.47715 17.5228 2 12 2C6.47715 2 2 6.47715 2 12C2 17.5228 6.47715 22 12 22C17.5228 22 22 17.5228 22 12Z" fill="black"/>
<path d="M7.56508 13.0693C7.29272 12.7572 6.81894 12.725 6.50686 12.9974C6.19478 13.2698 6.16258 13.7435 6.43494 14.0556L9.43494 17.4931C9.64051 17.7287 9.97063 17.812 10.2634 17.7022C10.5561 17.5924 10.75 17.3126 10.75 17L10.75 6.99997C10.75 6.58575 10.4142 6.24997 10 6.24997C9.5858 6.24997 9.25001 6.58575 9.25001 6.99997L9.25001 15L7.56508 13.0693Z" fill="black"/>
<path d="M14.75 17L14.75 8.99997L16.4349 10.9306C16.7073 11.2427 17.1811 11.2749 17.4932 11.0025C17.8052 10.7302 17.8374 10.2564 17.5651 9.94431L14.5651 6.50681C14.3595 6.27127 14.0294 6.18795 13.7367 6.29772C13.4439 6.40749 13.25 6.68733 13.25 6.99997L13.25 12L13.25 17C13.25 17.4142 13.5858 17.75 14 17.75C14.4142 17.75 14.75 17.4142 14.75 17Z" fill="black"/>
</svg>
