<svg width="24" height="24" viewBox="0 0 24 24" fill="none" xmlns="http://www.w3.org/2000/svg">
<path opacity="0.5" d="M3.46447 20.5355C4.92893 22 7.28595 22 12 22C16.714 22 19.0711 22 20.5355 20.5355C22 19.0711 22 16.714 22 12C22 7.28596 22 4.92893 20.5355 3.46447C19.0711 2 16.714 2 12 2C7.28595 2 4.92893 2 3.46447 3.46447C2 4.92893 2 7.28596 2 12C2 16.714 2 19.0711 3.46447 20.5355Z" fill="black"/>
<path d="M8.42139 14.8278C8.42139 15.242 8.75717 15.5778 9.17139 15.5778L13.414 15.5778C13.8282 15.5778 14.164 15.242 14.164 14.8278C14.164 14.4135 13.8282 14.0778 13.414 14.0778H10.982L15.3586 9.70123C15.6515 9.40834 15.6515 8.93346 15.3586 8.64057C15.0657 8.34768 14.5908 8.34768 14.2979 8.64057L9.92139 13.0171L9.92139 10.5851C9.92139 10.1709 9.5856 9.83511 9.17139 9.83511C8.75717 9.83511 8.42139 10.1709 8.42139 10.5851L8.42139 14.8278Z" fill="black"/>
</svg>
