<svg width="24" height="24" viewBox="0 0 24 24" fill="none" xmlns="http://www.w3.org/2000/svg">
<path opacity="0.5" d="M20.5355 20.5355C19.0711 22 16.714 22 12 22C7.28595 22 4.92893 22 3.46447 20.5355C2 19.0711 2 16.714 2 12C2 7.28595 2 4.92893 3.46447 3.46447C4.92893 2 7.28595 2 12 2C16.714 2 19.0711 2 20.5355 3.46447C22 4.92893 22 7.28595 22 12C22 16.714 22 19.0711 20.5355 20.5355Z" fill="black"/>
<path d="M11.25 8C11.25 7.58579 11.5858 7.25 12 7.25C12.4142 7.25 12.75 7.58579 12.75 8V14.1893L14.4697 12.4697C14.7626 12.1768 15.2374 12.1768 15.5303 12.4697C15.8232 12.7626 15.8232 13.2374 15.5303 13.5303L12.5303 16.5303C12.3897 16.671 12.1989 16.75 12 16.75C11.8011 16.75 11.6103 16.671 11.4697 16.5303L8.46967 13.5303C8.17678 13.2374 8.17678 12.7626 8.46967 12.4697C8.76256 12.1768 9.23744 12.1768 9.53033 12.4697L11.25 14.1893L11.25 8Z" fill="black"/>
</svg>
