<svg width="24" height="24" viewBox="0 0 24 24" fill="none" xmlns="http://www.w3.org/2000/svg">
<path fill-rule="evenodd" clip-rule="evenodd" d="M12 1.25C9.37666 1.25 7.25001 3.37665 7.25001 6C7.25001 8.62335 9.37666 10.75 12 10.75C14.6234 10.75 16.75 8.62335 16.75 6C16.75 3.37665 14.6234 1.25 12 1.25ZM8.75001 6C8.75001 4.20507 10.2051 2.75 12 2.75C13.7949 2.75 15.25 4.20507 15.25 6C15.25 7.79493 13.7949 9.25 12 9.25C10.2051 9.25 8.75001 7.79493 8.75001 6Z" fill="black"/>
<path fill-rule="evenodd" clip-rule="evenodd" d="M8.00001 12.25C5.90898 12.25 4.14894 13.8151 3.90462 15.8918L3.25515 21.4124C3.20675 21.8237 3.501 22.1965 3.91238 22.2449C4.32376 22.2933 4.69648 21.999 4.74487 21.5876L5.39435 16.0671C5.51943 15.0039 6.26887 14.1515 7.25001 13.859L7.25001 18.052C7.24998 18.9505 7.24996 19.6997 7.32992 20.2945C7.41433 20.9223 7.6 21.4891 8.05547 21.9445C8.51094 22.4 9.07774 22.5857 9.70553 22.6701C10.3003 22.7501 11.0495 22.75 11.948 22.75H12.052C12.9505 22.75 13.6997 22.7501 14.2945 22.6701C14.9223 22.5857 15.4891 22.4 15.9446 21.9445C16.4 21.4891 16.5857 20.9223 16.6701 20.2945C16.7501 19.6997 16.75 18.9505 16.75 18.052L16.75 13.859C17.7311 14.1515 18.4806 15.0039 18.6057 16.0671L19.2551 21.5876C19.3035 21.999 19.6763 22.2933 20.0876 22.2449C20.499 22.1965 20.7933 21.8237 20.7449 21.4124L20.0954 15.8918C19.8511 13.8151 18.091 12.25 16 12.25H8.00001ZM8.75001 18V13.75H15.25V18C15.25 18.964 15.2484 19.6116 15.1835 20.0946C15.1214 20.5561 15.0142 20.7536 14.8839 20.8839C14.7536 21.0142 14.5561 21.1214 14.0946 21.1835C13.6116 21.2484 12.964 21.25 12 21.25C11.036 21.25 10.3884 21.2484 9.9054 21.1835C9.44394 21.1214 9.24644 21.0142 9.11613 20.8839C8.98581 20.7536 8.87859 20.5561 8.81655 20.0946C8.7516 19.6116 8.75001 18.964 8.75001 18Z" fill="black"/>
</svg>
