<svg width="24" height="24" viewBox="0 0 24 24" fill="none" xmlns="http://www.w3.org/2000/svg">
<path fill-rule="evenodd" clip-rule="evenodd" d="M5.25001 6C5.25001 3.37665 7.37666 1.25 10 1.25C12.6234 1.25 14.75 3.37665 14.75 6C14.75 8.62335 12.6234 10.75 10 10.75C7.37666 10.75 5.25001 8.62335 5.25001 6ZM10 2.75C8.20509 2.75 6.75001 4.20507 6.75001 6C6.75001 7.79493 8.20509 9.25 10 9.25C11.7949 9.25 13.25 7.79493 13.25 6C13.25 4.20507 11.7949 2.75 10 2.75Z" fill="black"/>
<path fill-rule="evenodd" clip-rule="evenodd" d="M3.97546 13.6643C5.55494 12.7759 7.68646 12.25 10 12.25C12.3136 12.25 14.4451 12.7759 16.0246 13.6643C17.5805 14.5396 18.75 15.8661 18.75 17.5L18.7501 17.602C18.7512 18.7638 18.7526 20.222 17.4736 21.2635C16.8441 21.7761 15.9635 22.1406 14.7738 22.3815C13.5808 22.6229 12.0258 22.75 10 22.75C7.97424 22.75 6.41927 22.6229 5.22622 22.3815C4.03649 22.1406 3.15589 21.7761 2.52642 21.2635C1.2474 20.222 1.24882 18.7638 1.24995 17.602L1.25001 17.5C1.25001 15.8661 2.4195 14.5396 3.97546 13.6643ZM4.71085 14.9717C3.37139 15.7251 2.75001 16.6487 2.75001 17.5C2.75001 18.8078 2.79033 19.544 3.4736 20.1004C3.84413 20.4022 4.46354 20.6967 5.5238 20.9113C6.58075 21.1252 8.02579 21.25 10 21.25C11.9742 21.25 13.4193 21.1252 14.4762 20.9113C15.5365 20.6967 16.1559 20.4022 16.5264 20.1004C17.2097 19.544 17.25 18.8078 17.25 17.5C17.25 16.6487 16.6286 15.7251 15.2892 14.9717C13.9732 14.2315 12.1047 13.75 10 13.75C7.89529 13.75 6.02681 14.2315 4.71085 14.9717Z" fill="black"/>
<path fill-rule="evenodd" clip-rule="evenodd" d="M16.6903 7.44694C17.4109 7.12802 18.2479 7.18847 19 7.67889C19.7522 7.18847 20.5891 7.12802 21.3098 7.44694C22.1648 7.82533 22.75 8.69929 22.75 9.69973C22.75 10.6481 22.3358 11.362 21.8395 11.9031C21.4521 12.3254 20.9729 12.682 20.5945 12.9636C20.5132 13.0241 20.4366 13.0812 20.3665 13.1347L20.3645 13.1362C20.2158 13.2497 20.0235 13.3965 19.8207 13.5111C19.6168 13.6265 19.3344 13.75 19 13.75C18.6657 13.75 18.3832 13.6265 18.1793 13.5111C17.9765 13.3965 17.7842 13.2497 17.6355 13.1362L17.6335 13.1347C17.5635 13.0812 17.4869 13.0242 17.4057 12.9638C17.0273 12.6821 16.5479 12.3254 16.1606 11.9031C15.6642 11.362 15.25 10.6481 15.25 9.69973C15.25 8.69929 15.8352 7.82533 16.6903 7.44694ZM16.75 9.69973C16.75 9.28775 16.9898 8.95469 17.2973 8.81862C17.5635 8.7008 17.9874 8.68874 18.4681 9.17232C18.6089 9.31392 18.8003 9.39354 19 9.39354C19.1997 9.39354 19.3911 9.31392 19.5319 9.17232C20.0126 8.68874 20.4365 8.7008 20.7027 8.81862C21.0102 8.95469 21.25 9.28775 21.25 9.69973C21.25 10.1638 21.0613 10.5324 20.7341 10.8891C20.4521 11.1966 20.1157 11.448 19.7438 11.7259C19.6502 11.7959 19.5543 11.8676 19.4565 11.9423C19.294 12.0663 19.1814 12.1495 19.0821 12.2056C19.0421 12.2283 19.0153 12.2399 19 12.2456C18.9847 12.2399 18.958 12.2283 18.9179 12.2056C18.8187 12.1495 18.7061 12.0663 18.5436 11.9423C18.4457 11.8676 18.3499 11.796 18.2563 11.726C17.8844 11.448 17.548 11.1966 17.266 10.8891C16.9387 10.5324 16.75 10.1638 16.75 9.69973Z" fill="black"/>
</svg>
