<svg width="24" height="24" viewBox="0 0 24 24" fill="none" xmlns="http://www.w3.org/2000/svg">
<path fill-rule="evenodd" clip-rule="evenodd" d="M7.25 6C7.25 3.37665 9.37665 1.25 12 1.25C14.6234 1.25 16.75 3.37665 16.75 6C16.75 8.62335 14.6234 10.75 12 10.75C9.37665 10.75 7.25 8.62335 7.25 6ZM12 2.75C10.2051 2.75 8.75 4.20507 8.75 6C8.75 7.79493 10.2051 9.25 12 9.25C13.7949 9.25 15.25 7.79493 15.25 6C15.25 4.20507 13.7949 2.75 12 2.75Z" fill="black"/>
<path d="M17.75 16.6667C17.75 16.2524 17.4142 15.9167 17 15.9167C16.5858 15.9167 16.25 16.2524 16.25 16.6667V17.25H15.6665C15.2523 17.25 14.9165 17.5858 14.9165 18C14.9165 18.4142 15.2523 18.75 15.6665 18.75H16.25V19.3333C16.25 19.7475 16.5858 20.0833 17 20.0833C17.4142 20.0833 17.75 19.7475 17.75 19.3333V18.75H18.3332C18.7474 18.75 19.0832 18.4142 19.0832 18C19.0832 17.5858 18.7474 17.25 18.3332 17.25H17.75V16.6667Z" fill="black"/>
<path fill-rule="evenodd" clip-rule="evenodd" d="M16.8117 13.2537C16.8742 13.2512 16.937 13.25 17 13.25C19.6234 13.25 21.75 15.3766 21.75 18C21.75 20.6234 19.6234 22.75 17 22.75C15.8204 22.75 14.7413 22.32 13.9107 21.6083C13.2991 21.7009 12.6587 21.75 12 21.75C9.96067 21.75 8.07752 21.2792 6.67815 20.4796C5.3 19.6921 4.25 18.4899 4.25 17C4.25 15.5101 5.3 14.3079 6.67815 13.5204C8.07752 12.7208 9.96067 12.25 12 12.25C13.8045 12.25 15.4825 12.6184 16.8117 13.2537ZM17 14.75C15.2051 14.75 13.75 16.2051 13.75 18C13.75 19.7949 15.2051 21.25 17 21.25C18.7949 21.25 20.25 19.7949 20.25 18C20.25 16.2051 18.7949 14.75 17 14.75ZM12.8009 20.2224C12.4492 19.5593 12.25 18.8029 12.25 18C12.25 16.3289 13.113 14.8593 14.4176 14.0127C13.6767 13.8444 12.8611 13.75 12 13.75C10.1733 13.75 8.55649 14.1747 7.42236 14.8228C6.26701 15.483 5.75 16.2807 5.75 17C5.75 17.7193 6.26701 18.517 7.42236 19.1772C8.55649 19.8253 10.1733 20.25 12 20.25C12.2715 20.25 12.5388 20.2406 12.8009 20.2224Z" fill="black"/>
</svg>
