<svg width="24" height="24" viewBox="0 0 24 24" fill="none" xmlns="http://www.w3.org/2000/svg">
<path d="M9.87864 11.2929C10.2692 11.6834 10.2692 12.3166 9.87864 12.7071C9.48812 13.0976 8.85496 13.0976 8.46443 12.7071C8.07391 12.3166 8.07391 11.6834 8.46443 11.2929C8.85496 10.9024 9.48812 10.9024 9.87864 11.2929Z" fill="black"/>
<path d="M12.7073 15.5355C13.0978 15.145 13.0978 14.5118 12.7073 14.1213C12.3167 13.7307 11.6836 13.7307 11.293 14.1213C10.9025 14.5118 10.9025 15.145 11.293 15.5355C11.6836 15.926 12.3167 15.926 12.7073 15.5355Z" fill="black"/>
<path d="M12.7073 8.46452C13.0978 8.85505 13.0978 9.48821 12.7073 9.87874C12.3167 10.2693 11.6836 10.2693 11.293 9.87874C10.9025 9.48821 10.9025 8.85505 11.293 8.46452C11.6836 8.074 12.3167 8.074 12.7073 8.46452Z" fill="black"/>
<path d="M15.5354 12.7071C15.9259 12.3166 15.9259 11.6834 15.5354 11.2929C15.1449 10.9024 14.5117 10.9024 14.1212 11.2929C13.7306 11.6834 13.7306 12.3166 14.1212 12.7071C14.5117 13.0976 15.1449 13.0976 15.5354 12.7071Z" fill="black"/>
<path fill-rule="evenodd" clip-rule="evenodd" d="M3.05414 3.05414C5.45965 0.648621 9.35977 0.648621 11.7653 3.05414L20.9459 12.2347C23.3514 14.6402 23.3514 18.5403 20.9459 20.9459C18.5403 23.3514 14.6402 23.3514 12.2347 20.9459L3.05414 11.7653C0.648621 9.35977 0.648621 5.45965 3.05414 3.05414ZM10.1318 3.62692C8.31061 2.31298 5.75399 2.4756 4.1148 4.1148C2.4756 5.75399 2.31298 8.31061 3.62692 10.1318L10.1318 3.62692ZM11.235 4.64513L4.64513 11.235L12.765 19.3549L19.3549 12.765L11.235 4.64513ZM20.3731 13.8682L13.8682 20.3731C15.6894 21.687 18.246 21.5244 19.8852 19.8852C21.5244 18.246 21.687 15.6894 20.3731 13.8682Z" fill="black"/>
</svg>
