<svg width="24" height="24" viewBox="0 0 24 24" fill="none" xmlns="http://www.w3.org/2000/svg">
<path d="M16.384 15.1442C16.7398 14.9322 16.8563 14.4718 16.6442 14.116C16.4322 13.7602 15.9718 13.6437 15.616 13.8558L11.616 16.2398C11.2602 16.4519 11.1437 16.9122 11.3557 17.268C11.5678 17.6239 12.0282 17.7404 12.384 17.5283L16.384 15.1442Z" fill="black"/>
<path fill-rule="evenodd" clip-rule="evenodd" d="M10.8394 3.54012C11.2105 3.36702 11.581 3.25 12 3.25C12.4189 3.25 12.7894 3.36702 13.1606 3.54012C13.5091 3.70266 13.9063 3.9388 14.3733 4.21642L17.3927 6.0112C17.86 6.28896 18.2572 6.52502 18.5679 6.75426C18.7182 6.86518 18.8578 6.98113 18.9846 7.10886L21.584 5.37596C21.9286 5.1462 22.3943 5.23933 22.624 5.58397C22.8538 5.92862 22.7607 6.39427 22.416 6.62404L19.668 8.45604C19.6874 8.5653 19.7018 8.6767 19.7127 8.7906C19.75 9.18002 19.75 9.6501 19.75 10.2071V13.7929C19.75 14.3499 19.75 14.82 19.7127 15.2094C19.6732 15.6223 19.5878 16.0023 19.3834 16.3668C19.1784 16.7325 18.8991 17.0013 18.5679 17.2457C18.2572 17.475 17.8601 17.711 17.3927 17.9888L14.3734 19.7836C13.9064 20.0611 13.5091 20.2974 13.1606 20.4599C12.7894 20.633 12.4189 20.75 12 20.75C11.581 20.75 11.2105 20.633 10.8394 20.4599C10.4909 20.2974 10.0937 20.0613 9.62681 19.7837L6.60723 17.9888C6.1399 17.711 5.74278 17.475 5.4321 17.2457C5.28178 17.1348 5.14217 17.0189 5.01535 16.8911L2.41601 18.624C2.07137 18.8538 1.60571 18.7607 1.37595 18.416C1.14619 18.0714 1.23932 17.6057 1.58396 17.376L4.33196 15.544C4.31254 15.4347 4.29815 15.3233 4.28724 15.2094C4.24996 14.82 4.24997 14.3499 4.24999 13.7929V10.2071C4.24997 9.6501 4.24996 9.18001 4.28724 8.7906C4.29815 8.6767 4.31254 8.5653 4.33196 8.45604L1.58396 6.62404C1.23932 6.39427 1.14619 5.92862 1.37595 5.58397C1.60571 5.23933 2.07137 5.1462 2.41601 5.37596L5.01535 7.10885C5.14217 6.98113 5.28178 6.86518 5.4321 6.75426C5.74278 6.52501 6.13991 6.28897 6.60725 6.01119L9.62663 4.21642C10.0936 3.9388 10.4909 3.70266 10.8394 3.54012ZM11.4734 4.89954C11.2011 5.02656 10.8684 5.2233 10.3625 5.52401L7.40394 7.28262C6.89821 7.58323 6.56615 7.78162 6.32273 7.96123C6.09323 8.13058 5.99057 8.24969 5.92488 8.36684C5.85855 8.48512 5.80856 8.63957 5.78042 8.93356C5.75078 9.24308 5.74999 9.64101 5.74999 10.2414V13.7586C5.74999 14.359 5.75078 14.7569 5.78042 15.0664C5.80856 15.3604 5.85855 15.5149 5.92488 15.6332C5.99057 15.7503 6.09323 15.8694 6.32273 16.0388C6.56615 16.2184 6.89821 16.4168 7.40394 16.7174L10.3625 18.476C10.8684 18.7767 11.2011 18.9734 11.4734 19.1005C11.7307 19.2205 11.8775 19.25 12 19.25C12.1225 19.25 12.2693 19.2205 12.5266 19.1005C12.7989 18.9734 13.1316 18.7767 13.6375 18.476L16.596 16.7174C17.1018 16.4168 17.4338 16.2184 17.6772 16.0388C17.9067 15.8694 18.0094 15.7503 18.0751 15.6332C18.1414 15.5149 18.1914 15.3604 18.2196 15.0664C18.2492 14.7569 18.25 14.359 18.25 13.7586V10.2414C18.25 9.64101 18.2492 9.24308 18.2196 8.93356C18.1914 8.63957 18.1414 8.48512 18.0751 8.36684C18.0094 8.24969 17.9067 8.13058 17.6772 7.96123C17.4338 7.78162 17.1018 7.58323 16.596 7.28262L13.6375 5.52401C13.1316 5.2233 12.7989 5.02656 12.5266 4.89954C12.2693 4.77953 12.1225 4.75 12 4.75C11.8775 4.75 11.7307 4.77953 11.4734 4.89954Z" fill="black"/>
</svg>
