<svg width="24" height="24" viewBox="0 0 24 24" fill="none" xmlns="http://www.w3.org/2000/svg">
<path fill-rule="evenodd" clip-rule="evenodd" d="M11.9426 1.25C9.63423 1.24999 7.82519 1.24998 6.41371 1.43975C4.96897 1.63399 3.82895 2.03933 2.93414 2.93414C2.03933 3.82895 1.63399 4.96897 1.43975 6.41371C1.24998 7.82519 1.24999 9.63423 1.25 11.9426V12.0574C1.24999 14.3658 1.24998 16.1748 1.43975 17.5863C1.63399 19.031 2.03933 20.1711 2.93414 21.0659C3.82895 21.9607 4.96897 22.366 6.41371 22.5603C7.25475 22.6733 8.23695 22.719 9.38184 22.7375C9.4263 22.7457 9.47214 22.75 9.51899 22.75C9.55839 22.75 9.59708 22.747 9.63484 22.7411C10.3423 22.75 11.11 22.75 11.9426 22.75H12.0574C12.9176 22.75 13.7085 22.75 14.4354 22.7402C14.4749 22.7466 14.5156 22.75 14.557 22.75C14.6064 22.75 14.6547 22.7452 14.7015 22.7361C15.8108 22.7168 16.7657 22.6706 17.5863 22.5603C19.031 22.366 20.1711 21.9607 21.0659 21.0659C21.9607 20.1711 22.366 19.031 22.5603 17.5863C22.75 16.1748 22.75 14.3658 22.75 12.0574V11.9426C22.75 9.63423 22.75 7.82519 22.5603 6.41371C22.366 4.96897 21.9607 3.82895 21.0659 2.93414C20.1711 2.03933 19.031 1.63399 17.5863 1.43975C16.1748 1.24998 14.3658 1.24999 12.0574 1.25H11.9426ZM15.307 21.2216C16.1036 21.1978 16.7882 21.1541 17.3864 21.0736C18.6648 20.9018 19.4355 20.5749 20.0052 20.0052C20.5749 19.4355 20.9018 18.6648 21.0736 17.3864C21.2484 16.0864 21.25 14.3782 21.25 12C21.25 9.62178 21.2484 7.91356 21.0736 6.61358C20.9018 5.33517 20.5749 4.56445 20.0052 3.9948C19.4355 3.42514 18.6648 3.09825 17.3864 2.92637C16.7787 2.84467 16.0818 2.80081 15.2689 2.77727L15.2689 4.0606C15.2689 4.11323 15.2895 4.19829 15.3924 4.32114C15.4977 4.44677 15.6586 4.57296 15.8491 4.68085C17.0173 5.34267 17.7879 6.79168 17.7879 8.09098C17.7879 9.89639 16.3243 11.36 14.5189 11.36C13.5053 11.36 12.5995 10.8987 11.9999 10.1746C11.4003 10.8987 10.4945 11.36 9.4809 11.36C7.67549 11.36 6.21191 9.89639 6.21191 8.09098C6.21191 6.79168 6.98247 5.34267 8.15071 4.68085C8.34115 4.57296 8.50208 4.44677 8.60734 4.32114C8.71027 4.19829 8.7309 4.11323 8.7309 4.0606V2.77727C7.9181 2.80082 7.22124 2.84467 6.61358 2.92637C5.33517 3.09825 4.56445 3.42514 3.9948 3.9948C3.42514 4.56445 3.09825 5.33517 2.92637 6.61358C2.75159 7.91356 2.75 9.62178 2.75 12C2.75 14.3782 2.75159 16.0864 2.92637 17.3864C3.09825 18.6648 3.42514 19.4355 3.9948 20.0052C4.56445 20.5749 5.33517 20.9018 6.61358 21.0736C7.23071 21.1566 7.93984 21.2005 8.76899 21.2238V19.9848C8.76899 19.9322 8.74836 19.8471 8.64542 19.7243C8.54017 19.5986 8.37924 19.4725 8.18879 19.3646C7.02056 18.7027 6.25 17.2537 6.25 15.9544C6.25 14.149 7.71358 12.6854 9.51899 12.6854C10.5325 12.6854 11.4384 13.1467 12.038 13.8708C12.6376 13.1467 13.5434 12.6854 14.557 12.6854C16.3624 12.6854 17.826 14.149 17.826 15.9544C17.826 17.2537 17.0554 18.7027 15.8872 19.3646C15.6967 19.4725 15.5358 19.5986 15.4305 19.7243C15.3276 19.8471 15.307 19.9322 15.307 19.9848L15.307 21.2216ZM10.269 21.2466C10.8034 21.2499 11.3788 21.25 12 21.25C12.6507 21.25 13.2512 21.2499 13.807 21.2461L13.807 19.9848C13.807 19.481 14.0245 19.0668 14.2808 18.7609C14.5347 18.4578 14.8541 18.2258 15.1478 18.0594C15.809 17.6848 16.326 16.7573 16.326 15.9544C16.326 14.9774 15.5339 14.1854 14.557 14.1854C13.58 14.1854 12.788 14.9774 12.788 15.9544C12.788 16.3686 12.4522 16.7044 12.038 16.7044C11.6238 16.7044 11.288 16.3686 11.288 15.9544C11.288 14.9774 10.496 14.1854 9.51899 14.1854C8.542 14.1854 7.75 14.9774 7.75 15.9544C7.75 16.7573 8.26694 17.6848 8.92816 18.0594C9.2219 18.2258 9.54122 18.4578 9.79518 18.7609C10.0515 19.0668 10.269 19.481 10.269 19.9848V21.2466ZM10.2309 2.75362V4.0606C10.2309 4.56445 10.0134 4.97865 9.75709 5.2845C9.50314 5.58759 9.18381 5.81956 8.89008 5.98597C8.22885 6.36056 7.71191 7.28814 7.71191 8.09098C7.71191 9.06797 8.50392 9.85997 9.4809 9.85997C10.4579 9.85997 11.2499 9.06797 11.2499 8.09098C11.2499 7.67677 11.5857 7.34098 11.9999 7.34098C12.4141 7.34098 12.7499 7.67677 12.7499 8.09098C12.7499 9.06797 13.5419 9.85997 14.5189 9.85997C15.4959 9.85997 16.2879 9.06797 16.2879 8.09098C16.2879 7.28814 15.7709 6.36056 15.1097 5.98597C14.816 5.81956 14.4966 5.5876 14.2427 5.28451C13.9864 4.97865 13.7689 4.56445 13.7689 4.0606L13.7689 2.75362C13.2238 2.75011 12.6359 2.75 12 2.75C11.3641 2.75 10.776 2.75011 10.2309 2.75362Z" fill="black"/>
</svg>
