<svg width="24" height="24" viewBox="0 0 24 24" fill="none" xmlns="http://www.w3.org/2000/svg">
<path fill-rule="evenodd" clip-rule="evenodd" d="M22.75 9.26043C22.75 6.07929 21.2578 3.60642 18.9755 2.65694C16.8461 1.77108 14.2743 2.30955 12 4.43676C9.72568 2.30955 7.15386 1.77113 5.02447 2.65702C2.74218 3.60652 1.25 6.07939 1.25 9.26046C1.25 11.3863 2.37926 13.4794 3.7862 15.2825C5.20736 17.1039 6.99532 18.735 8.48775 19.952L8.62247 20.062C9.82232 21.0418 10.6895 21.75 12 21.75C13.3105 21.75 14.1777 21.0418 15.3775 20.062L15.5123 19.952C17.0047 18.735 18.7926 17.104 20.2138 15.2826C21.6207 13.4794 22.75 11.3863 22.75 9.26043ZM12.5491 6.00969C14.6472 3.75481 16.827 3.38777 18.3994 4.04187C19.9921 4.70447 21.25 6.53048 21.25 9.26043C21.25 9.90535 21.1108 10.5725 20.8589 11.2501H18.6361L18.5241 11.25C17.9784 11.2491 17.4937 11.2483 17.0527 11.4447C16.6116 11.6412 16.2879 12.002 15.9233 12.4084L15.8485 12.4918L14.8192 13.6354C14.7426 13.7206 14.68 13.7901 14.6247 13.8493C14.5723 13.7879 14.5128 13.7159 14.4401 13.6278L10.8889 9.32321C10.7493 9.15394 10.6 8.97284 10.454 8.83843C10.2839 8.68191 10.0325 8.50584 9.68096 8.48473C9.32945 8.46362 9.05875 8.60832 8.87115 8.74336C8.71006 8.85933 8.54016 9.02126 8.38136 9.17261L6.85172 10.6294C6.37995 11.0787 6.28151 11.1553 6.17854 11.1965C6.07557 11.2377 5.9515 11.2501 5.3 11.2501H3.14115C2.88924 10.5725 2.75 9.90536 2.75 9.26046C2.75 6.5306 4.0079 4.70457 5.60065 4.04194C7.17297 3.38781 9.35285 3.75482 11.4509 6.00969C11.5928 6.16218 11.7917 6.2488 12 6.2488C12.2083 6.2488 12.4072 6.16218 12.5491 6.00969ZM3.86493 12.7501C4.18003 13.2875 4.55224 13.8259 4.96881 14.3598C6.29293 16.0568 7.98585 17.6072 9.43571 18.7895C10.8287 19.9255 11.2785 20.25 12 20.25C12.7216 20.25 13.1713 19.9255 14.5643 18.7895C16.0142 17.6072 17.7071 16.0569 19.0312 14.3598C19.4478 13.8259 19.82 13.2875 20.1351 12.7501H18.6361C17.9119 12.7501 17.7746 12.7653 17.6629 12.815C17.5513 12.8647 17.4481 12.9567 16.9634 13.4952L15.9086 14.6672C15.7507 14.8429 15.5839 15.0284 15.4235 15.1628C15.2384 15.318 14.9627 15.4921 14.5896 15.4841C14.2166 15.4761 13.9488 15.2905 13.7704 15.1274C13.616 14.9863 13.4574 14.7939 13.3074 14.6118L9.75487 10.3058C9.68734 10.2239 9.63239 10.1574 9.5839 10.1005C9.52897 10.1511 9.46645 10.2106 9.38961 10.2838L7.81346 11.785C7.4575 12.1251 7.14165 12.4268 6.73563 12.5892C6.32961 12.7516 5.89282 12.7509 5.40054 12.7502L3.86493 12.7501Z" fill="black"/>
</svg>
