<svg width="24" height="24" viewBox="0 0 24 24" fill="none" xmlns="http://www.w3.org/2000/svg">
<path d="M12.75 12C12.75 11.5858 12.4142 11.25 12 11.25C11.5858 11.25 11.25 11.5858 11.25 12V13.25H10C9.58579 13.25 9.25 13.5858 9.25 14C9.25 14.4142 9.58579 14.75 10 14.75H11.25V16C11.25 16.4142 11.5858 16.75 12 16.75C12.4142 16.75 12.75 16.4142 12.75 16V14.75H14C14.4142 14.75 14.75 14.4142 14.75 14C14.75 13.5858 14.4142 13.25 14 13.25H12.75V12Z" fill="black"/>
<path fill-rule="evenodd" clip-rule="evenodd" d="M7.47824 1.25H16.5218C16.736 1.24999 16.9329 1.24998 17.0982 1.26126C17.2759 1.27338 17.4712 1.30099 17.6697 1.38321C18.0985 1.56083 18.4392 1.90151 18.6168 2.33031C18.699 2.52881 18.7266 2.72415 18.7387 2.90179C18.75 3.06711 18.75 3.26395 18.75 3.47821V3.52177C18.75 3.73603 18.75 3.93289 18.7387 4.09821C18.7266 4.27585 18.699 4.4712 18.6168 4.6697C18.4392 5.0985 18.0985 5.43918 17.6697 5.61679C17.4931 5.68994 17.319 5.71987 17.1577 5.73412L18.9887 7.21638C20.1028 8.11824 20.75 9.47494 20.75 10.9083V17.5649C20.75 18.6667 20.367 19.7341 19.6667 20.5845L19.3084 21.0196C18.4061 22.1153 17.0611 22.75 15.6417 22.75L8.90201 22.75C8.38331 22.7501 8.04969 22.7501 7.72758 22.7059C6.77407 22.575 5.88282 22.1576 5.17185 21.5088C4.93168 21.2897 4.71812 21.0334 4.38612 20.6349L4.35095 20.5927C3.63958 19.739 3.25 18.663 3.25 17.5518V10.9225C3.25 9.47953 3.90593 8.11479 5.0327 7.21338L6.87811 5.73705C6.70686 5.72408 6.52003 5.69538 6.3303 5.61679C5.9015 5.43918 5.56083 5.0985 5.38321 4.6697C5.30099 4.4712 5.27338 4.27586 5.26125 4.09821C5.24997 3.93289 5.24999 3.73604 5.25 3.52176V3.47825C5.24999 3.26397 5.24997 3.06712 5.26125 2.90179C5.27338 2.72415 5.30099 2.52881 5.38321 2.33031C5.56083 1.90151 5.9015 1.56083 6.3303 1.38321C6.52881 1.30099 6.72415 1.27338 6.90179 1.26126C7.0671 1.24998 7.26399 1.24999 7.47824 1.25ZM10.4031 5.75H13.6427C14.3954 5.75 14.5936 5.75994 14.7679 5.82167C14.9423 5.8834 15.1025 6.00033 15.6876 6.47396L18.0449 8.38225C18.3481 8.62769 18.6007 8.92237 18.7951 9.25H5.21337C5.40975 8.92277 5.6645 8.62888 5.96974 8.38468L8.37287 6.46218C8.95533 5.99621 9.11476 5.88117 9.2878 5.82047C9.46084 5.75977 9.65721 5.75 10.4031 5.75ZM4.75457 10.75H19.2462C19.2487 10.8026 19.25 10.8554 19.25 10.9083V17.25H4.75V10.9225C4.75 10.8648 4.75153 10.8073 4.75457 10.75ZM4.97894 18.75H19.0262C18.9022 19.0668 18.7283 19.3645 18.5088 19.631L18.1505 20.066C17.5331 20.8157 16.6129 21.25 15.6417 21.25H8.95693C8.36505 21.25 8.13961 21.2484 7.93155 21.2198C7.27915 21.1303 6.66935 20.8446 6.1829 20.4008C6.02777 20.2592 5.88218 20.0871 5.50328 19.6324C5.28119 19.3659 5.10494 19.0677 4.97894 18.75ZM16.5 4.25H13.9418C13.878 4.24984 13.8127 4.24989 13.7459 4.24995L10.3009 4.24995C10.2347 4.24989 10.17 4.24984 10.1068 4.25H7.5C7.25677 4.25 7.1119 4.2496 7.0039 4.24223C6.93707 4.23767 6.90867 4.23157 6.90131 4.2297C6.84248 4.20442 6.79558 4.15753 6.7703 4.09869C6.76844 4.09134 6.76234 4.06294 6.75778 3.9961C6.75041 3.8881 6.75 3.74324 6.75 3.5C6.75 3.25677 6.75041 3.11191 6.75778 3.0039C6.76234 2.93707 6.76844 2.90867 6.7703 2.90131C6.79558 2.84248 6.84248 2.79558 6.90131 2.77031C6.90867 2.76844 6.93707 2.76234 7.0039 2.75778C7.1119 2.75041 7.25677 2.75 7.5 2.75H16.5C16.7432 2.75 16.8881 2.75041 16.9961 2.75778C17.0629 2.76234 17.0913 2.76844 17.0987 2.77031C17.1575 2.79558 17.2044 2.84248 17.2297 2.90131C17.2316 2.90867 17.2377 2.93707 17.2422 3.0039C17.2496 3.11191 17.25 3.25677 17.25 3.5C17.25 3.74324 17.2496 3.8881 17.2422 3.9961C17.2377 4.06293 17.2316 4.09134 17.2297 4.09869C17.2044 4.15753 17.1575 4.20442 17.0987 4.2297C17.0913 4.23157 17.0629 4.23767 16.9961 4.24223C16.8881 4.2496 16.7432 4.25 16.5 4.25Z" fill="black"/>
</svg>
