<svg width="24" height="24" viewBox="0 0 24 24" fill="none" xmlns="http://www.w3.org/2000/svg">
<path d="M13.8876 10.9348C14.9625 11.8117 15.5 12.2501 15.5 13C15.5 13.7499 14.9625 14.1883 13.8876 15.0652C13.5909 15.3073 13.2966 15.5352 13.0261 15.7251C12.7888 15.8917 12.5201 16.064 12.2419 16.2332C11.1695 16.8853 10.6333 17.2114 10.1524 16.8504C9.6715 16.4894 9.62779 15.7336 9.54038 14.2222C9.51566 13.7947 9.5 13.3757 9.5 13C9.5 12.6243 9.51566 12.2053 9.54038 11.7778C9.62779 10.2664 9.6715 9.51061 10.1524 9.1496C10.6333 8.78859 11.1695 9.11466 12.2419 9.76679C12.5201 9.93597 12.7888 10.1083 13.0261 10.2749C13.2966 10.4648 13.5909 10.6927 13.8876 10.9348Z" stroke="black" stroke-width="1.5"/>
<path d="M3.5 4.5L7.50002 2" stroke="black" stroke-width="1.5" stroke-linecap="round" stroke-linejoin="round"/>
<path d="M20.5 4.5L16.5 2" stroke="black" stroke-width="1.5" stroke-linecap="round" stroke-linejoin="round"/>
<path d="M7.5 5.20404C8.82378 4.43827 10.3607 4 12 4C16.9706 4 21 8.02944 21 13C21 17.9706 16.9706 22 12 22C7.02944 22 3 17.9706 3 13C3 11.3607 3.43827 9.82378 4.20404 8.5" stroke="black" stroke-width="1.5" stroke-linecap="round"/>
</svg>
