<svg width="24" height="24" viewBox="0 0 24 24" fill="none" xmlns="http://www.w3.org/2000/svg">
<path opacity="0.5" fill-rule="evenodd" clip-rule="evenodd" d="M6.97746 1.32697C7.31467 1.56751 7.39305 2.03587 7.15252 2.37309L6.76645 2.91434C7.39227 3.3886 7.53097 4.27785 7.07199 4.92132L6.66137 5.49699C6.42084 5.83421 5.95248 5.91258 5.61526 5.67205C5.27804 5.43151 5.19966 4.96315 5.4402 4.62594L5.82627 4.08469C5.20045 3.61042 5.06174 2.72117 5.52072 2.0777L5.93134 1.50203C6.17188 1.16481 6.64024 1.08644 6.97746 1.32697ZM10.9775 1.32697C11.3147 1.56751 11.3931 2.03587 11.1525 2.37309L10.7664 2.91434C11.3923 3.3886 11.531 4.27785 11.072 4.92132L10.6614 5.49699C10.4208 5.83421 9.95248 5.91258 9.61526 5.67205C9.27804 5.43151 9.19966 4.96315 9.4402 4.62594L9.82627 4.08468C9.20045 3.61042 9.06174 2.72117 9.52072 2.0777L9.93134 1.50203C10.1719 1.16481 10.6402 1.08644 10.9775 1.32697ZM14.9775 1.32697C15.3147 1.56751 15.3931 2.03587 15.1525 2.37309L14.7664 2.91434C15.3923 3.3886 15.531 4.27785 15.072 4.92132L14.6614 5.49699C14.4208 5.83421 13.9525 5.91258 13.6153 5.67205C13.278 5.43151 13.1997 4.96315 13.4402 4.62594L13.8263 4.08469C13.2004 3.61042 13.0617 2.72117 13.5207 2.0777L13.9313 1.50203C14.1719 1.16481 14.6402 1.08644 14.9775 1.32697Z" fill="black"/>
<path opacity="0.5" d="M9.6134 22H10.3868C13.0476 22 14.378 22 15.243 21.1907C15.9132 20.5637 16.1172 19.6256 16.2575 18H3.74268C3.88292 19.6256 4.08697 20.5637 4.75719 21.1907C5.6222 22 6.9526 22 9.6134 22Z" fill="black"/>
<path fill-rule="evenodd" clip-rule="evenodd" d="M3.28441 11.2661C3.15113 9.26687 3.08449 8.26726 3.67729 7.63363C4.27009 7 5.27191 7 7.27555 7H12.7245C14.7281 7 15.7299 7 16.3227 7.63363C16.4852 7.80726 16.5981 8.00837 16.6737 8.25H17C19.6234 8.25 21.75 10.3766 21.75 13C21.75 15.6234 19.6234 17.75 17 17.75H16.2781C16.2713 17.8351 16.2645 17.9184 16.2574 18H3.7426C3.70184 17.5275 3.66647 16.997 3.62662 16.3991L3.28441 11.2661ZM16.3833 16.25H17C18.7949 16.25 20.25 14.7949 20.25 13C20.25 11.2051 18.7949 9.75 17 9.75H16.8007C16.788 10.1801 16.7547 10.6802 16.7156 11.2661L16.3833 16.25Z" fill="black"/>
</svg>
