<svg width="24" height="24" viewBox="0 0 24 24" fill="none" xmlns="http://www.w3.org/2000/svg">
<path opacity="0.5" d="M12 2C6.47715 2 2 6.47715 2 12C2 12.3539 2.01839 12.7036 2.05426 13.048C2.40307 13.3523 4.367 15 6 15C7.21199 15 8.60628 14.0924 9.38725 13.5L9.39619 13.4911C9.14413 13.0518 9 12.5427 9 12C9 10.3431 10.3431 9 12 9C13.6569 9 15 10.3431 15 12C15 12.8851 14.6167 13.6807 14.007 14.2298C14.4774 14.6425 15.0911 15 15.8053 15C17.4948 15 17.4948 13 19.1842 13C20.2618 13 21.1102 13.8136 21.5835 14.4029L21.6758 14.5353C21.8874 13.7256 22 12.876 22 12C22 6.47715 17.5228 2 12 2Z" fill="black"/>
<path d="M9.38719 13.5C8.60622 14.0924 7.21193 15 5.99994 15C4.36694 15 2.40301 13.3523 2.0542 13.048C2.57808 18.0783 6.83103 22 11.9999 22C16.6468 22 20.5534 18.8304 21.6757 14.5353L21.5834 14.4029C21.1102 13.8136 20.2617 13 19.1842 13C17.4947 13 17.4947 15 15.8053 15C15.091 15 14.4774 14.6425 14.007 14.2298C13.4754 14.7086 12.7717 15 11.9999 15C10.8858 15 9.91356 14.3927 9.39613 13.4911L9.38719 13.5Z" fill="black"/>
<path d="M19.5279 5.41717C19.5078 5.43348 19.4884 5.45098 19.4697 5.46967L18.4697 6.46967C18.1768 6.76256 18.1768 7.23744 18.4697 7.53033C18.7626 7.82322 19.2374 7.82322 19.5303 7.53033L20.4347 6.62594C20.1627 6.19995 19.8594 5.79594 19.5279 5.41717Z" fill="black"/>
<path d="M5.41717 4.47212C5.43348 4.4922 5.45098 4.51164 5.46967 4.53033L6.46967 5.53033C6.76257 5.82322 7.23744 5.82322 7.53033 5.53033C7.82323 5.23744 7.82323 4.76256 7.53033 4.46967L6.62594 3.56528C6.19995 3.83726 5.79594 4.14062 5.41717 4.47212Z" fill="black"/>
<path d="M10.4697 4.53033C10.1768 4.23744 10.1768 3.76256 10.4697 3.46967C10.7626 3.17678 11.2374 3.17678 11.5303 3.46967L12.5303 4.46967C12.8232 4.76256 12.8232 5.23744 12.5303 5.53033C12.2374 5.82322 11.7626 5.82322 11.4697 5.53033L10.4697 4.53033Z" fill="black"/>
<path d="M16.6 5.45C16.8485 5.11863 16.7814 4.64853 16.45 4.4C16.1186 4.15147 15.6485 4.21863 15.4 4.55L13.9 6.55C13.6515 6.88137 13.7186 7.35147 14.05 7.6C14.3814 7.84853 14.8515 7.78137 15.1 7.45L16.6 5.45Z" fill="black"/>
<path d="M8.40953 7.56014C8.51674 7.96024 8.92799 8.19768 9.32809 8.09047L10.6941 7.72444C11.0942 7.61724 11.3317 7.20599 11.2244 6.80589C11.1172 6.40579 10.706 6.16835 10.3059 6.27556L8.93986 6.64158C8.53976 6.74879 8.30233 7.16004 8.40953 7.56014Z" fill="black"/>
<path d="M17.4653 10.354C17.4847 10.7678 17.1651 11.119 16.7513 11.1384C16.3376 11.1579 15.9864 10.8382 15.967 10.4245L15.9006 9.01181C15.8811 8.59806 16.2008 8.24688 16.6145 8.22743C17.0283 8.20799 17.3795 8.52764 17.3989 8.94139L17.4653 10.354Z" fill="black"/>
<path d="M18.4368 12.0586C18.7106 12.3694 19.1845 12.3995 19.4953 12.1257L21.1734 10.6479C21.4843 10.3741 21.5143 9.90018 21.2406 9.58933C20.9668 9.27848 20.4929 9.24841 20.182 9.52217L18.504 11C18.1931 11.2738 18.163 11.7477 18.4368 12.0586Z" fill="black"/>
<path d="M5.52445 8.16677C5.35304 7.78969 5.51978 7.34505 5.89686 7.17364C6.27394 7.00223 6.71858 7.16896 6.88999 7.54605L7.47522 8.83349C7.64663 9.21058 7.47989 9.65522 7.10281 9.82662C6.72573 9.99803 6.28109 9.8313 6.10968 9.45422L5.52445 8.16677Z" fill="black"/>
<path d="M6.94295 10.895C7.27721 11.1397 7.34986 11.6089 7.10523 11.9432L6.26999 13.0844C6.02536 13.4187 5.55608 13.4913 5.22182 13.2467C4.88756 13.0021 4.81491 12.5328 5.05955 12.1985L5.89478 11.0573C6.13941 10.723 6.6087 10.6504 6.94295 10.895Z" fill="black"/>
<path d="M2.85543 8.97928C2.83239 8.56571 3.14898 8.21177 3.56255 8.18873C3.97612 8.16569 4.33007 8.48228 4.35311 8.89585L4.43177 10.3079C4.45481 10.7214 4.13822 11.0754 3.72465 11.0984C3.31108 11.1215 2.95713 10.8049 2.93409 10.3913L2.85543 8.97928Z" fill="black"/>
</svg>
