<svg width="24" height="24" viewBox="0 0 24 24" fill="none" xmlns="http://www.w3.org/2000/svg">
<path opacity="0.5" fill-rule="evenodd" clip-rule="evenodd" d="M7.58758 20.0262L4.0188 16.5368C2.67293 15.221 2 14.563 2 13.7454C2 13.2089 2.28972 12.7412 2.86916 12.1112C3.46036 11.4685 3.75595 11.1471 3.88968 10.8109C4.02341 10.4748 4.02705 10.0967 4.03433 9.34056L4.06648 5.99923C4.03217 3.81732 5.44093 2.02694 7.21305 2.0003C8.66759 1.97843 9.91482 3.15159 10.3341 4.77929L10.7995 4.32429C13.3618 1.81908 17.516 1.81908 20.0783 4.32429C22.6406 6.82951 22.6406 10.8913 20.0783 13.3965L13.2976 20.0262C11.9518 21.3421 11.2788 22 10.4426 22C9.60638 22 8.93345 21.3421 7.58758 20.0262Z" fill="black"/>
<path d="M7.04093 12.8602C6.74476 12.5706 6.26991 12.576 5.98033 12.8722C5.69076 13.1683 5.6961 13.6432 5.99228 13.9328L10.2748 18.1199C10.571 18.4095 11.0458 18.4041 11.3354 18.108C11.625 17.8118 11.6196 17.337 11.3235 17.0474L7.04093 12.8602Z" fill="black"/>
</svg>
