<svg width="24" height="24" viewBox="0 0 24 24" fill="none" xmlns="http://www.w3.org/2000/svg">
<path opacity="0.5" d="M12 22C17.5228 22 22 17.5228 22 12C22 6.47715 17.5228 2 12 2C6.47715 2 2 6.47715 2 12C2 17.5228 6.47715 22 12 22Z" fill="black"/>
<path fill-rule="evenodd" clip-rule="evenodd" d="M8.75 22C8.75 22.4142 8.41421 22.75 8 22.75H2C1.58579 22.75 1.25 22.4142 1.25 22V16C1.25 15.5858 1.58579 15.25 2 15.25C2.41421 15.25 2.75 15.5858 2.75 16V20.1893L9.46967 13.4697C9.76256 13.1768 10.2374 13.1768 10.5303 13.4697C10.8232 13.7626 10.8232 14.2374 10.5303 14.5303L3.81066 21.25H8C8.41421 21.25 8.75 21.5858 8.75 22Z" fill="black"/>
</svg>
