<svg width="24" height="24" viewBox="0 0 24 24" fill="none" xmlns="http://www.w3.org/2000/svg">
<path opacity="0.5" d="M4 12C4 16.4183 7.58172 20 12 20C16.4183 20 20 16.4183 20 12L4 12Z" fill="black"/>
<path fill-rule="evenodd" clip-rule="evenodd" d="M15.5303 7.53033C15.2374 7.82322 14.7626 7.82322 14.4697 7.53033L12.75 5.81066L12.75 14C12.75 14.4142 12.4142 14.75 12 14.75C11.5858 14.75 11.25 14.4142 11.25 14L11.25 5.81066L9.53033 7.53033C9.23744 7.82322 8.76256 7.82322 8.46967 7.53033C8.17678 7.23744 8.17678 6.76256 8.46967 6.46967L11.4697 3.46967C11.7626 3.17678 12.2374 3.17678 12.5303 3.46967L15.5303 6.46967C15.8232 6.76256 15.8232 7.23744 15.5303 7.53033Z" fill="black"/>
</svg>
