<svg width="24" height="24" viewBox="0 0 24 24" fill="none" xmlns="http://www.w3.org/2000/svg">
<path fill-rule="evenodd" clip-rule="evenodd" d="M10.4697 8.46967C10.1768 8.76256 10.1768 9.23744 10.4697 9.53033L12.1893 11.25H4C3.58579 11.25 3.25 11.5858 3.25 12C3.25 12.4142 3.58579 12.75 4 12.75H12.1893L10.4697 14.4697C10.1768 14.7626 10.1768 15.2374 10.4697 15.5303C10.7626 15.8232 11.2374 15.8232 11.5303 15.5303L14.5303 12.5303C14.8232 12.2374 14.8232 11.7626 14.5303 11.4697L11.5303 8.46967C11.2374 8.17678 10.7626 8.17678 10.4697 8.46967Z" fill="black"/>
<path opacity="0.5" d="M12 20C16.4183 20 20 16.4183 20 12C20 7.58172 16.4183 4 12 4V20Z" fill="black"/>
</svg>
