<svg width="24" height="24" viewBox="0 0 24 24" fill="none" xmlns="http://www.w3.org/2000/svg">
<path opacity="0.5" d="M12 20C7.58172 20 4 16.4183 4 12C4 7.58172 7.58172 4 12 4V20Z" fill="black"/>
<path fill-rule="evenodd" clip-rule="evenodd" d="M16.4697 8.46967C16.1768 8.76256 16.1768 9.23744 16.4697 9.53033L18.1893 11.25H10C9.58579 11.25 9.25 11.5858 9.25 12C9.25 12.4142 9.58579 12.75 10 12.75H18.1893L16.4697 14.4697C16.1768 14.7626 16.1768 15.2374 16.4697 15.5303C16.7626 15.8232 17.2374 15.8232 17.5303 15.5303L20.5303 12.5303C20.8232 12.2374 20.8232 11.7626 20.5303 11.4697L17.5303 8.46967C17.2374 8.17678 16.7626 8.17678 16.4697 8.46967Z" fill="black"/>
</svg>
