<svg width="24" height="24" viewBox="0 0 24 24" fill="none" xmlns="http://www.w3.org/2000/svg">
<path opacity="0.5" d="M2 12C2 7.28595 2 4.92893 3.46447 3.46447C4.92893 2 7.28595 2 12 2C16.714 2 19.0711 2 20.5355 3.46447C22 4.92893 22 7.28595 22 12C22 16.714 22 19.0711 20.5355 20.5355C19.0711 22 16.714 22 12 22C7.28595 22 4.92893 22 3.46447 20.5355C2 19.0711 2 16.714 2 12Z" fill="black"/>
<path fill-rule="evenodd" clip-rule="evenodd" d="M14 7.75C13.5858 7.75 13.25 7.41421 13.25 7C13.25 6.58579 13.5858 6.25 14 6.25H17C17.4142 6.25 17.75 6.58579 17.75 7V10C17.75 10.4142 17.4142 10.75 17 10.75C16.5858 10.75 16.25 10.4142 16.25 10V8.81066L14.0303 11.0303C13.7374 11.3232 13.2626 11.3232 12.9697 11.0303C12.6768 10.7374 12.6768 10.2626 12.9697 9.96967L15.1893 7.75H14ZM11.0303 12.9697C11.3232 13.2626 11.3232 13.7374 11.0303 14.0303L8.81066 16.25H10C10.4142 16.25 10.75 16.5858 10.75 17C10.75 17.4142 10.4142 17.75 10 17.75H7C6.58579 17.75 6.25 17.4142 6.25 17V14C6.25 13.5858 6.58579 13.25 7 13.25C7.41421 13.25 7.75 13.5858 7.75 14V15.1893L9.96967 12.9697C10.2626 12.6768 10.7374 12.6768 11.0303 12.9697Z" fill="black"/>
</svg>
