<svg width="24" height="24" viewBox="0 0 24 24" fill="none" xmlns="http://www.w3.org/2000/svg">
<path opacity="0.5" d="M2 12C2 7.28595 2 4.92893 3.46447 3.46447C4.92893 2 7.28595 2 12 2C16.714 2 19.0711 2 20.5355 3.46447C22 4.92893 22 7.28595 22 12C22 16.714 22 19.0711 20.5355 20.5355C19.0711 22 16.714 22 12 22C7.28595 22 4.92893 22 3.46447 20.5355C2 19.0711 2 16.714 2 12Z" fill="black"/>
<path d="M6.25 8.50002C6.25 8.08581 6.58579 7.75002 7 7.75002L11.9285 7.75002L10.5199 6.57619C10.2017 6.31101 10.1587 5.83809 10.4238 5.51988C10.689 5.20167 11.1619 5.15868 11.4801 5.42385L14.4801 7.92385C14.6511 8.06635 14.75 8.27743 14.75 8.50002C14.75 8.7226 14.6511 8.93369 14.4801 9.07618L11.4801 11.5762C11.1619 11.8414 10.689 11.7984 10.4238 11.4802C10.1587 11.1619 10.2017 10.689 10.5199 10.4239L11.9285 9.25002L7 9.25002C6.58579 9.25002 6.25 8.91423 6.25 8.50002Z" fill="black"/>
<path d="M6.25 15.5C6.25 15.0858 6.58579 14.75 7 14.75H11.9285L10.5199 13.5762C10.2017 13.311 10.1587 12.8381 10.4238 12.5199C10.689 12.2017 11.1619 12.1587 11.4801 12.4239L14.4801 14.9239C14.6511 15.0663 14.75 15.2774 14.75 15.5C14.75 15.7226 14.6511 15.9337 14.4801 16.0762L11.4801 18.5762C11.1619 18.8414 10.689 18.7984 10.4238 18.4802C10.1587 18.162 10.2017 17.689 10.5199 17.4239L11.9285 16.25H7C6.58579 16.25 6.25 15.9142 6.25 15.5Z" fill="black"/>
<path d="M16.25 18C16.25 18.4142 16.5858 18.75 17 18.75C17.4142 18.75 17.75 18.4142 17.75 18V6.00002C17.75 5.58581 17.4142 5.25002 17 5.25002C16.5858 5.25002 16.25 5.58581 16.25 6.00002V18Z" fill="black"/>
</svg>
