<svg width="24" height="24" viewBox="0 0 24 24" fill="none" xmlns="http://www.w3.org/2000/svg">
<path opacity="0.5" d="M8.14114 4.5C8 5.34287 8 6.46249 8 8V16C8 17.5375 8 18.6571 8.14114 19.5H8C5.64298 19.5 4.46447 19.5 3.73223 18.7678C3 18.0355 3 16.857 3 14.5V9.5C3 7.14298 3 5.96447 3.73223 5.23223C4.46447 4.5 5.64298 4.5 8 4.5H8.14114Z" fill="black"/>
<path fill-rule="evenodd" clip-rule="evenodd" d="M8.87868 2.87868C8 3.75736 8 5.17157 8 8V16C8 18.8284 8 20.2426 8.87868 21.1213C9.75736 22 11.1716 22 14 22H15C17.8284 22 19.2426 22 20.1213 21.1213C21 20.2426 21 18.8284 21 16V8C21 5.17157 21 3.75736 20.1213 2.87868C19.2426 2 17.8284 2 15 2H14C11.1716 2 9.75736 2 8.87868 2.87868ZM15.0303 7.46967C14.7374 7.17678 14.2626 7.17678 13.9697 7.46967L11.4697 9.96967C11.1768 10.2626 11.1768 10.7374 11.4697 11.0303C11.7626 11.3232 12.2374 11.3232 12.5303 11.0303L13.75 9.81066V16C13.75 16.4142 14.0858 16.75 14.5 16.75C14.9142 16.75 15.25 16.4142 15.25 16V9.81066L16.4697 11.0303C16.7626 11.3232 17.2374 11.3232 17.5303 11.0303C17.8232 10.7374 17.8232 10.2626 17.5303 9.96967L15.0303 7.46967Z" fill="black"/>
</svg>
