<svg width="24" height="24" viewBox="0 0 24 24" fill="none" xmlns="http://www.w3.org/2000/svg">
<path opacity="0.5" d="M2 12C2 7.28595 2 4.92893 3.46447 3.46447C4.92893 2 7.28595 2 12 2C16.714 2 19.0711 2 20.5355 3.46447C22 4.92893 22 7.28595 22 12C22 16.714 22 19.0711 20.5355 20.5355C19.0711 22 16.714 22 12 22C7.28595 22 4.92893 22 3.46447 20.5355C2 19.0711 2 16.714 2 12Z" fill="black"/>
<path fill-rule="evenodd" clip-rule="evenodd" d="M21.5303 2.46967C21.8232 2.76256 21.8232 3.23744 21.5303 3.53033L13.8107 11.25H17.3438C17.758 11.25 18.0938 11.5858 18.0938 12C18.0938 12.4142 17.758 12.75 17.3438 12.75H12C11.5858 12.75 11.25 12.4142 11.25 12V6.65625C11.25 6.24204 11.5858 5.90625 12 5.90625C12.4142 5.90625 12.75 6.24204 12.75 6.65625V10.1893L20.4697 2.46967C20.7626 2.17678 21.2374 2.17678 21.5303 2.46967Z" fill="black"/>
</svg>
