<svg width="24" height="24" viewBox="0 0 24 24" fill="none" xmlns="http://www.w3.org/2000/svg">
<path opacity="0.5" d="M2 12C2 7.28595 2 4.92893 3.46447 3.46447C4.92893 2 7.28595 2 12 2C16.714 2 19.0711 2 20.5355 3.46447C22 4.92893 22 7.28595 22 12C22 16.714 22 19.0711 20.5355 20.5355C19.0711 22 16.714 22 12 22C7.28595 22 4.92893 22 3.46447 20.5355C2 19.0711 2 16.714 2 12Z" fill="black"/>
<path fill-rule="evenodd" clip-rule="evenodd" d="M14.6989 6.91415C14.9799 6.60978 15.4543 6.5908 15.7587 6.87175L18.0087 8.94868C18.1625 9.09066 18.25 9.29045 18.25 9.49978C18.25 9.7091 18.1625 9.9089 18.0087 10.0509L15.7587 12.1278C15.4543 12.4088 14.9799 12.3898 14.6989 12.0854C14.4179 11.781 14.4369 11.3066 14.7413 11.0256L15.5818 10.2498H9.96155C9.26243 10.2498 8.79309 10.2506 8.43477 10.2862C8.08844 10.3205 7.92764 10.3813 7.82131 10.4501C7.67279 10.5461 7.54633 10.6726 7.4503 10.8211C7.38155 10.9274 7.32075 11.0882 7.2864 11.4345C7.25086 11.7929 7.25 12.2622 7.25 12.9613C7.25 13.6604 7.25086 14.1298 7.2864 14.4881C7.32074 14.8344 7.38155 14.9952 7.45029 15.1015C7.54633 15.2501 7.67278 15.3765 7.82131 15.4726C7.92764 15.5413 8.08844 15.6021 8.43477 15.6365C8.79308 15.672 9.26242 15.6729 9.96154 15.6729H14.5C14.9142 15.6729 15.25 16.0086 15.25 16.4229C15.25 16.8371 14.9142 17.1729 14.5 17.1729H9.92423C9.27208 17.1729 8.72787 17.1729 8.28673 17.1291C7.82522 17.0834 7.39622 16.9839 7.00689 16.7322C6.68013 16.5209 6.40191 16.2427 6.19065 15.916C5.93892 15.5266 5.83949 15.0976 5.79372 14.6361C5.74997 14.195 5.74998 13.6508 5.75 12.9986V12.924C5.74999 12.2718 5.74997 11.7276 5.79372 11.2865C5.8395 10.825 5.93893 10.396 6.19065 10.0067C6.40192 9.6799 6.68013 9.40169 7.00689 9.19043C7.39622 8.9387 7.82522 8.83927 8.28673 8.7935C8.72787 8.74975 9.27207 8.74976 9.92423 8.74978L15.5818 8.74978L14.7413 7.97396C14.4369 7.693 14.4179 7.21851 14.6989 6.91415Z" fill="black"/>
</svg>
