<svg width="24" height="24" viewBox="0 0 24 24" fill="none" xmlns="http://www.w3.org/2000/svg">
<path fill-rule="evenodd" clip-rule="evenodd" d="M7.53033 3.46967C7.82322 3.76256 7.82322 4.23744 7.53033 4.53033L5.06066 7L7.53033 9.46967C7.82322 9.76256 7.82322 10.2374 7.53033 10.5303C7.23744 10.8232 6.76256 10.8232 6.46967 10.5303L3.46967 7.53033C3.17678 7.23744 3.17678 6.76256 3.46967 6.46967L6.46967 3.46967C6.76256 3.17678 7.23744 3.17678 7.53033 3.46967Z" fill="black"/>
<path opacity="0.5" d="M5.06055 7L5.81055 6.25H15.0357C15.9399 6.24999 16.6692 6.24998 17.2575 6.3033C17.8638 6.35826 18.3936 6.47456 18.8749 6.75241C19.445 7.08154 19.9184 7.55492 20.2475 8.12499C20.5253 8.60624 20.6416 9.13604 20.6966 9.74239C20.7499 10.3307 20.7499 11.06 20.7499 11.9643V12.0358C20.7499 12.94 20.7499 13.6693 20.6966 14.2576C20.6416 14.8639 20.5253 15.3938 20.2475 15.875C19.9184 16.4451 19.445 16.9185 18.8749 17.2476C18.3936 17.5254 17.8638 17.6417 17.2575 17.6967C16.6692 17.75 15.9399 17.75 15.0357 17.75H7.99989C7.58568 17.75 7.24989 17.4142 7.24989 17C7.24989 16.5858 7.58568 16.25 7.99989 16.25H14.9999C15.9483 16.25 16.6095 16.2493 17.1221 16.2028C17.6244 16.1573 17.91 16.0726 18.1249 15.9486C18.4669 15.7511 18.751 15.467 18.9485 15.125C19.0725 14.9101 19.1572 14.6245 19.2027 14.1222C19.2492 13.6096 19.2499 12.9484 19.2499 12C19.2499 11.0516 19.2492 10.3904 19.2027 9.87779C19.1572 9.37548 19.0725 9.0899 18.9484 8.87499C18.751 8.53296 18.4669 8.24892 18.1249 8.05145C17.91 7.92737 17.6244 7.84271 17.1221 7.79718C16.6095 7.75072 15.9483 7.75 14.9999 7.75H5.81055L5.06055 7Z" fill="black"/>
</svg>
