<svg width="24" height="24" viewBox="0 0 24 24" fill="none" xmlns="http://www.w3.org/2000/svg">
<path d="M15 12L6 12M6 12L8 14M6 12L8 10" stroke="black" stroke-width="1.5" stroke-linecap="round" stroke-linejoin="round"/>
<path d="M12 21.9827C10.4465 21.9359 9.51995 21.7626 8.87865 21.1213C8.11027 20.3529 8.01382 19.175 8.00171 17M16 21.9983C18.175 21.9862 19.3529 21.8897 20.1213 21.1213C21 20.2426 21 18.8284 21 16V14V10V8C21 5.17157 21 3.75736 20.1213 2.87868C19.2426 2 17.8284 2 15 2H14C11.1715 2 9.75733 2 8.87865 2.87868C8.11027 3.64706 8.01382 4.82497 8.00171 7" stroke="black" stroke-width="1.5" stroke-linecap="round"/>
<path d="M3 9.5V14.5C3 16.857 3 18.0355 3.73223 18.7678C4.46447 19.5 5.64298 19.5 8 19.5M3.73223 5.23223C4.46447 4.5 5.64298 4.5 8 4.5" stroke="black" stroke-width="1.5" stroke-linecap="round"/>
</svg>
