<svg width="24" height="24" viewBox="0 0 24 24" fill="none" xmlns="http://www.w3.org/2000/svg">
<path fill-rule="evenodd" clip-rule="evenodd" d="M15.6679 7C15.6679 6.58579 16.0036 6.25 16.4179 6.25H22C22.4142 6.25 22.75 6.58579 22.75 7V12.5458C22.75 12.96 22.4142 13.2958 22 13.2958C21.5858 13.2958 21.25 12.96 21.25 12.5458V8.80286L15.1142 14.9013C14.6452 15.3674 14.241 15.7692 13.8739 16.0477C13.4804 16.3462 13.0432 16.572 12.505 16.572C11.9668 16.5719 11.5297 16.346 11.1362 16.0474C10.7692 15.7688 10.3651 15.367 9.89629 14.9007L9.62203 14.628C9.10787 14.1167 8.77452 13.7875 8.49695 13.5769C8.23672 13.3794 8.11506 13.3573 8.03449 13.3574C7.95393 13.3574 7.83228 13.3795 7.57219 13.5772C7.29478 13.7881 6.96167 14.1175 6.44789 14.6292L2.52922 18.5314C2.23571 18.8237 1.76084 18.8227 1.46856 18.5292C1.17628 18.2357 1.17728 17.7608 1.47078 17.4686L5.42433 13.5315C5.89326 13.0645 6.29742 12.662 6.66452 12.383C7.05802 12.0839 7.49535 11.8576 8.03395 11.8574C8.57254 11.8572 9.01003 12.0832 9.40375 12.382C9.77105 12.6607 10.1755 13.063 10.6448 13.5296L10.919 13.8024C11.4327 14.3132 11.7658 14.6421 12.0431 14.8526C12.3031 15.0499 12.4247 15.072 12.5052 15.072C12.5857 15.072 12.7073 15.0499 12.9673 14.8527C13.2447 14.6423 13.5778 14.3134 14.0916 13.8027L20.1815 7.75H16.4179C16.0036 7.75 15.6679 7.41421 15.6679 7Z" fill="black"/>
</svg>
