<svg width="24" height="24" viewBox="0 0 24 24" fill="none" xmlns="http://www.w3.org/2000/svg">
<path d="M22 22L2 22" stroke="#1C274C" stroke-width="1.5" stroke-linecap="round"/>
<path d="M3 22.0001V11.3472C3 10.4903 3.36644 9.67432 4.00691 9.10502L10.0069 3.77169C11.1436 2.76133 12.8564 2.76133 13.9931 3.77169L19.9931 9.10502C20.6336 9.67432 21 10.4903 21 11.3472V22.0001" stroke="#1C274C" stroke-width="1.5" stroke-linecap="round"/>
<path d="M10 9H14" stroke="#1C274C" stroke-width="1.5" stroke-linecap="round"/>
<path d="M9 15.5H15" stroke="#1C274C" stroke-width="1.5" stroke-linecap="round"/>
<path d="M9 18.5H15" stroke="#1C274C" stroke-width="1.5" stroke-linecap="round"/>
<path d="M18 22V16C18 14.1144 18 13.1716 17.4142 12.5858C16.8284 12 15.8856 12 14 12H10C8.11438 12 7.17157 12 6.58579 12.5858C6 13.1716 6 14.1144 6 16V22" stroke="#1C274C" stroke-width="1.5"/>
</svg>
