<svg width="24" height="24" viewBox="0 0 24 24" fill="none" xmlns="http://www.w3.org/2000/svg">
<path fill-rule="evenodd" clip-rule="evenodd" d="M8.136 1.6026C8.35553 1.95386 8.24875 2.41657 7.8975 2.6361L3.89748 5.1361C3.54622 5.35563 3.08351 5.24885 2.86398 4.8976C2.64445 4.54634 2.75123 4.08363 3.10248 3.8641L7.1025 1.3641C7.45376 1.14457 7.91647 1.25135 8.136 1.6026ZM15.864 1.6026C16.0835 1.25135 16.5462 1.14457 16.8975 1.3641L20.8975 3.8641C21.2487 4.08363 21.3555 4.54635 21.136 4.8976C20.9164 5.24885 20.4537 5.35563 20.1025 5.1361L16.1025 2.6361C15.7512 2.41657 15.6444 1.95385 15.864 1.6026Z" fill="black"/>
<path fill-rule="evenodd" clip-rule="evenodd" d="M21 13.0001C21 17.9707 16.9705 22.0001 12 22.0001C7.02942 22.0001 2.99998 17.9707 2.99998 13.0001C2.99998 8.02954 7.02942 4.0001 12 4.0001C16.9705 4.0001 21 8.02954 21 13.0001ZM16 15.5001C16 15.966 16 16.199 15.9239 16.3828C15.8224 16.6278 15.6277 16.8225 15.3827 16.924C15.1989 17.0001 14.9659 17.0001 14.5 17.0001C14.034 17.0001 13.8011 17.0001 13.6173 16.924C13.3723 16.8225 13.1776 16.6278 13.0761 16.3828C13 16.199 13 15.966 13 15.5001V10.5001C13 10.0342 13 9.80119 13.0761 9.61742C13.1776 9.37239 13.3723 9.17771 13.6173 9.07622C13.8011 9.0001 14.034 9.0001 14.5 9.0001C14.9659 9.0001 15.1989 9.0001 15.3827 9.07622C15.6277 9.17771 15.8224 9.37239 15.9239 9.61742C16 9.80119 16 10.0342 16 10.5001V15.5001ZM11 15.5001V10.5001C11 10.0342 11 9.80119 10.9239 9.61742C10.8224 9.37239 10.6277 9.17771 10.3827 9.07622C10.1989 9.0001 9.96592 9.0001 9.49998 9.0001C9.03404 9.0001 8.80107 9.0001 8.6173 9.07622C8.37227 9.17771 8.17759 9.37239 8.0761 9.61742C7.99998 9.80119 7.99998 10.0342 7.99998 10.5001V15.5001C7.99998 15.966 7.99998 16.199 8.0761 16.3828C8.17759 16.6278 8.37227 16.8225 8.6173 16.924C8.80107 17.0001 9.03404 17.0001 9.49998 17.0001C9.96592 17.0001 10.1989 17.0001 10.3827 16.924C10.6277 16.8225 10.8224 16.6278 10.9239 16.3828C11 16.199 11 15.966 11 15.5001Z" fill="black"/>
</svg>
