<svg width="24" height="24" viewBox="0 0 24 24" fill="none" xmlns="http://www.w3.org/2000/svg">
<path fill-rule="evenodd" clip-rule="evenodd" d="M12.0001 22.0001C16.9707 22.0001 21.0001 17.9707 21.0001 13.0001C21.0001 8.02954 16.9707 4.0001 12.0001 4.0001C7.02954 4.0001 3.0001 8.02954 3.0001 13.0001C3.0001 17.9707 7.02954 22.0001 12.0001 22.0001ZM14.6518 10.3484C14.9446 10.6413 14.9446 11.1162 14.6518 11.4091L13.0607 13.0001L14.6517 14.5911C14.9446 14.884 14.9446 15.3589 14.6517 15.6518C14.3588 15.9447 13.884 15.9447 13.5911 15.6518L12.0001 14.0608L10.4091 15.6518C10.1162 15.9446 9.64134 15.9446 9.34845 15.6518C9.05556 15.3589 9.05556 14.884 9.34845 14.5911L10.9394 13.0001L9.34843 11.4091C9.05554 11.1162 9.05554 10.6414 9.34843 10.3485C9.64133 10.0556 10.1162 10.0556 10.4091 10.3485L12.0001 11.9395L13.5911 10.3484C13.884 10.0556 14.3589 10.0556 14.6518 10.3484Z" fill="black"/>
<path fill-rule="evenodd" clip-rule="evenodd" d="M8.13612 1.6026C8.35566 1.95386 8.24887 2.41657 7.89762 2.6361L3.8976 5.1361C3.54634 5.35563 3.08363 5.24885 2.8641 4.8976C2.64457 4.54634 2.75135 4.08363 3.1026 3.8641L7.10263 1.3641C7.45388 1.14457 7.91659 1.25135 8.13612 1.6026ZM15.8641 1.6026C16.0836 1.25135 16.5463 1.14457 16.8976 1.3641L20.8976 3.8641C21.2489 4.08363 21.3556 4.54635 21.1361 4.8976C20.9166 5.24885 20.4539 5.35563 20.1026 5.1361L16.1026 2.6361C15.7513 2.41657 15.6446 1.95385 15.8641 1.6026Z" fill="black"/>
</svg>
