<svg width="24" height="24" viewBox="0 0 24 24" fill="none" xmlns="http://www.w3.org/2000/svg">
<path d="M22 15C22 18.7712 22 19.6569 20.8284 20.8284C19.6569 22 17.7712 22 14 22" stroke="black" stroke-width="1.5" stroke-linecap="round"/>
<path d="M10 2C6.22876 2 4.34315 2 3.17157 3.17157C2 4.34315 2 5.22876 2 9" stroke="black" stroke-width="1.5" stroke-linecap="round"/>
<path d="M12 7C9.07268 7 7.08037 8.56222 5.89242 9.94021C5.29747 10.6303 5 10.9754 5 12C5 13.0246 5.29748 13.3697 5.89243 14.0598C7.08038 15.4378 9.07268 17 12 17C14.9273 17 16.9196 15.4378 18.1076 14.0598C18.7025 13.3697 19 13.0246 19 12C19 10.9754 18.7025 10.6303 18.1076 9.94021C17.5723 9.31933 16.8738 8.66106 16 8.12513" stroke="black" stroke-width="1.5" stroke-linecap="round"/>
<circle cx="12" cy="12" r="2" stroke="black" stroke-width="1.5"/>
<path d="M10 22C9.65081 22 9.31779 22 9 21.9991M2 15C2 18.7712 2 19.6569 3.17157 20.8284C3.82475 21.4816 4.69989 21.7706 6 21.8985" stroke="black" stroke-width="1.5" stroke-linecap="round"/>
<path d="M14 2C14.3492 2 14.6822 2 15 2.00093M22 9C22 5.22876 22 4.34315 20.8284 3.17157C20.1752 2.51839 19.3001 2.22937 18 2.10149" stroke="black" stroke-width="1.5" stroke-linecap="round"/>
</svg>
