<svg width="24" height="24" viewBox="0 0 24 24" fill="none" xmlns="http://www.w3.org/2000/svg">
<path d="M3 11L12 8L21 11" stroke="black" stroke-width="1.5"/>
<path d="M12 2V21.5" stroke="black" stroke-width="1.5"/>
<path d="M3.19284 14C4.05026 18.2984 7.57641 20.5129 9.89856 21.5273C10.62 21.8424 10.9807 22 12 22C13.0193 22 13.38 21.8424 14.1014 21.5273C14.6796 21.2747 15.3324 20.9478 16 20.5328M19 17.9041C20.1632 16.4284 21 14.4963 21 11.9914C21 11.4234 21 10.8996 21 10.4167C21 7.21907 21 5.62028 20.6225 5.08241C20.245 4.54454 18.7417 4.02996 15.7351 3.00079L15.1623 2.80472C13.595 2.26824 12.8114 2 12 2C11.1886 2 10.405 2.26824 8.83772 2.80472L8.26491 3.00079C5.25832 4.02996 3.75503 4.54454 3.37752 5.08241C3 5.62028 3 7.21907 3 10.4167V11" stroke="black" stroke-width="1.5" stroke-linecap="round"/>
</svg>
