<svg width="24" height="24" viewBox="0 0 24 24" fill="none" xmlns="http://www.w3.org/2000/svg">
<circle cx="12" cy="9" r="2" stroke="black" stroke-width="1.5"/>
<path d="M16 15C16 16.1046 16 17 12 17C8 17 8 16.1046 8 15C8 13.8954 9.79086 13 12 13C14.2091 13 16 13.8954 16 15Z" stroke="black" stroke-width="1.5"/>
<path d="M3 10.4167C3 7.21907 3 5.62028 3.37752 5.08241C3.75503 4.54454 5.25832 4.02996 8.26491 3.00079L8.83772 2.80472C10.405 2.26824 11.1886 2 12 2C12.8114 2 13.595 2.26824 15.1623 2.80472L15.7351 3.00079C18.7417 4.02996 20.245 4.54454 20.6225 5.08241C21 5.62028 21 7.21907 21 10.4167C21 10.8996 21 11.4234 21 11.9914C21 14.4963 20.1632 16.4284 19 17.9041M3.19284 14C4.05026 18.2984 7.57641 20.5129 9.89856 21.5273C10.62 21.8424 10.9807 22 12 22C13.0193 22 13.38 21.8424 14.1014 21.5273C14.6796 21.2747 15.3324 20.9478 16 20.5328" stroke="black" stroke-width="1.5" stroke-linecap="round"/>
</svg>
