<svg width="24" height="24" viewBox="0 0 24 24" fill="none" xmlns="http://www.w3.org/2000/svg">
<path d="M14.5562 15.5477L14.1007 16.0272C14.1007 16.0272 13.0181 17.167 10.0631 14.0559C7.10812 10.9448 8.1907 9.80507 8.1907 9.80507L8.47752 9.50311C9.18407 8.75924 9.25068 7.56497 8.63424 6.6931L7.37326 4.90961C6.61028 3.8305 5.13596 3.68795 4.26145 4.60864L2.69185 6.26114C2.25823 6.71766 1.96765 7.30945 2.00289 7.96594C2.09304 9.64546 2.81071 13.259 6.81536 17.4752C11.0621 21.9462 15.0468 22.1239 16.6763 21.9631C17.1917 21.9122 17.6399 21.6343 18.0011 21.254L19.4217 19.7584C20.3806 18.7489 20.1102 17.0182 18.8833 16.312L16.9728 15.2123C16.1672 14.7486 15.1858 14.8848 14.5562 15.5477Z" fill="black"/>
<path d="M17 12C19.7614 12 22 9.76142 22 7C22 4.23858 19.7614 2 17 2C14.2386 2 12 4.23858 12 7C12 7.79984 12.1878 8.55582 12.5217 9.22624C12.6105 9.4044 12.64 9.60803 12.5886 9.80031L12.2908 10.9133C12.1615 11.3965 12.6035 11.8385 13.0867 11.7092L14.1997 11.4114C14.392 11.36 14.5956 11.3895 14.7738 11.4783C15.4442 11.8122 16.2002 12 17 12Z" fill="black"/>
</svg>
