<svg width="24" height="24" viewBox="0 0 24 24" fill="none" xmlns="http://www.w3.org/2000/svg">
<path d="M14.25 12C14.25 11.0335 15.0335 10.25 16 10.25C16.9665 10.25 17.75 11.0335 17.75 12C17.75 12.9665 16.9665 13.75 16 13.75C15.0335 13.75 14.25 12.9665 14.25 12Z" fill="black"/>
<path d="M8 13.75C8.9665 13.75 9.75 12.9665 9.75 12C9.75 11.0335 8.9665 10.25 8 10.25C7.0335 10.25 6.25 11.0335 6.25 12C6.25 12.9665 7.0335 13.75 8 13.75Z" fill="black"/>
<path fill-rule="evenodd" clip-rule="evenodd" d="M12 22C17.5228 22 22 17.5228 22 12C22 6.47715 17.5228 2 12 2C6.47715 2 2 6.47715 2 12C2 17.5228 6.47715 22 12 22ZM13.2609 13.75C12.9375 13.2449 12.75 12.6443 12.75 12C12.75 10.2051 14.2051 8.75 16 8.75C17.7949 8.75 19.25 10.2051 19.25 12C19.25 13.7949 17.7949 15.25 16 15.25H8C6.20507 15.25 4.75 13.7949 4.75 12C4.75 10.2051 6.20507 8.75 8 8.75C9.79493 8.75 11.25 10.2051 11.25 12C11.25 12.6443 11.0625 13.2449 10.7391 13.75H13.2609Z" fill="black"/>
</svg>
