<svg width="24" height="24" viewBox="0 0 24 24" fill="none" xmlns="http://www.w3.org/2000/svg">
<path d="M11.1459 11.0225C11.5259 10.3408 11.7159 10 12 10C12.2841 10 12.4741 10.3408 12.8541 11.0225L12.9524 11.1989C13.0603 11.3926 13.1143 11.4894 13.1985 11.5533C13.2827 11.6172 13.3875 11.641 13.5972 11.6884L13.7881 11.7316C14.526 11.8986 14.895 11.982 14.9828 12.2643C15.0706 12.5466 14.819 12.8407 14.316 13.429L14.1858 13.5812C14.0429 13.7483 13.9714 13.8319 13.9392 13.9353C13.9071 14.0387 13.9179 14.1502 13.9395 14.3733L13.9592 14.5763C14.0352 15.3612 14.0733 15.7536 13.8435 15.9281C13.6136 16.1025 13.2682 15.9435 12.5773 15.6254L12.3986 15.5431C12.2022 15.4527 12.1041 15.4075 12 15.4075C11.8959 15.4075 11.7978 15.4527 11.6014 15.5431L11.4227 15.6254C10.7318 15.9435 10.3864 16.1025 10.1565 15.9281C9.92674 15.7536 9.96476 15.3612 10.0408 14.5763L10.0605 14.3733C10.0821 14.1502 10.0929 14.0387 10.0608 13.9353C10.0286 13.8319 9.95713 13.7483 9.81418 13.5812L9.68403 13.429C9.18097 12.8407 8.92945 12.5466 9.01723 12.2643C9.10501 11.982 9.47396 11.8986 10.2119 11.7316L10.4028 11.6884C10.6125 11.641 10.7173 11.6172 10.8015 11.5533C10.8857 11.4894 10.9397 11.3926 11.0476 11.1989L11.1459 11.0225Z" stroke="black" stroke-width="1.5"/>
<path d="M2 6.94975C2 6.06722 2 5.62595 2.06935 5.25839C2.37464 3.64031 3.64031 2.37464 5.25839 2.06935C5.62595 2 6.06722 2 6.94975 2C7.33642 2 7.52976 2 7.71557 2.01738C8.51665 2.09229 9.27652 2.40704 9.89594 2.92051C10.0396 3.03961 10.1763 3.17633 10.4497 3.44975L11 4C11.8158 4.81578 12.2237 5.22367 12.7121 5.49543C12.9804 5.64471 13.2651 5.7626 13.5604 5.84678C14.0979 6 14.6747 6 15.8284 6H16.2021C18.8345 6 20.1506 6 21.0062 6.76946C21.0849 6.84024 21.1598 6.91514 21.2305 6.99383C22 7.84935 22 9.16554 22 11.7979V14C22 17.7712 22 19.6569 20.8284 20.8284C19.6569 22 17.7712 22 14 22H10C6.22876 22 4.34315 22 3.17157 20.8284C2 19.6569 2 17.7712 2 14V6.94975Z" stroke="black" stroke-width="1.5"/>
</svg>
