<svg width="24" height="24" viewBox="0 0 24 24" fill="none" xmlns="http://www.w3.org/2000/svg">
<path fill-rule="evenodd" clip-rule="evenodd" d="M7.26279 3.25871C7.38317 2.12953 8.33887 1.25 9.5 1.25H14.5C15.6611 1.25 16.6168 2.12953 16.7372 3.25871C17.5004 3.27425 18.1602 3.31372 18.7236 3.41721C19.4816 3.55644 20.1267 3.82168 20.6517 4.34661C21.2536 4.94853 21.5125 5.7064 21.6335 6.60651C21.75 7.47348 21.75 8.5758 21.75 9.94339V16.0531C21.75 17.4207 21.75 18.523 21.6335 19.39C21.5125 20.2901 21.2536 21.048 20.6517 21.6499C20.0497 22.2518 19.2919 22.5107 18.3918 22.6317C17.5248 22.7483 16.4225 22.7483 15.0549 22.7483H8.94513C7.57754 22.7483 6.47522 22.7483 5.60825 22.6317C4.70814 22.5107 3.95027 22.2518 3.34835 21.6499C2.74643 21.048 2.48754 20.2901 2.36652 19.39C2.24996 18.523 2.24998 17.4207 2.25 16.0531V9.94339C2.24998 8.5758 2.24996 7.47348 2.36652 6.60651C2.48754 5.7064 2.74643 4.94853 3.34835 4.34661C3.87328 3.82168 4.51836 3.55644 5.27635 3.41721C5.83977 3.31372 6.49963 3.27425 7.26279 3.25871ZM7.26476 4.75913C6.54668 4.77447 5.99332 4.81061 5.54735 4.89253C4.98054 4.99664 4.65246 5.16382 4.40901 5.40727C4.13225 5.68403 3.9518 6.07261 3.85315 6.80638C3.75159 7.56173 3.75 8.56285 3.75 9.99826V15.9983C3.75 17.4337 3.75159 18.4348 3.85315 19.1901C3.9518 19.9239 4.13225 20.3125 4.40901 20.5893C4.68577 20.866 5.07435 21.0465 5.80812 21.1451C6.56347 21.2467 7.56458 21.2483 9 21.2483H15C16.4354 21.2483 17.4365 21.2467 18.1919 21.1451C18.9257 21.0465 19.3142 20.866 19.591 20.5893C19.8678 20.3125 20.0482 19.9239 20.1469 19.1901C20.2484 18.4348 20.25 17.4337 20.25 15.9983V9.99826C20.25 8.56285 20.2484 7.56173 20.1469 6.80638C20.0482 6.07261 19.8678 5.68403 19.591 5.40727C19.3475 5.16382 19.0195 4.99664 18.4527 4.89253C18.0067 4.81061 17.4533 4.77447 16.7352 4.75913C16.6067 5.87972 15.655 6.75 14.5 6.75H9.5C8.345 6.75 7.39326 5.87972 7.26476 4.75913ZM9.5 2.75C9.08579 2.75 8.75 3.08579 8.75 3.5V4.5C8.75 4.91421 9.08579 5.25 9.5 5.25H14.5C14.9142 5.25 15.25 4.91421 15.25 4.5V3.5C15.25 3.08579 14.9142 2.75 14.5 2.75H9.5ZM10.2419 11.7896C10.0126 11.87 9.75 12.1207 9.75 12.6967C9.75 12.9113 9.89122 13.2423 10.2595 13.6681C10.6081 14.0712 11.0686 14.4542 11.4865 14.7609C11.7128 14.9269 11.8202 15.0034 11.9061 15.0488C11.9605 15.0775 11.9756 15.0776 12 15.0776C12.0244 15.0776 12.0395 15.0775 12.0939 15.0488C12.1798 15.0034 12.2872 14.9269 12.5135 14.7609C12.9314 14.4542 13.3919 14.0713 13.7405 13.6681C14.1088 13.2423 14.25 12.9113 14.25 12.6967C14.25 12.1207 13.9874 11.87 13.7581 11.7896C13.5078 11.7019 13.0442 11.7299 12.5187 12.2331C12.2287 12.5108 11.7713 12.5108 11.4813 12.2331C10.9558 11.7299 10.4922 11.7019 10.2419 11.7896ZM12 10.7343C11.2837 10.2628 10.475 10.1184 9.74566 10.3741C8.81246 10.7012 8.25 11.5995 8.25 12.6967C8.25 13.4666 8.6912 14.1479 9.1249 14.6493C9.57819 15.1735 10.1391 15.6327 10.5992 15.9703C10.6225 15.9874 10.646 16.0047 10.6697 16.0223C11.021 16.282 11.4207 16.5775 12 16.5776C12.5793 16.5776 12.9791 16.282 13.3303 16.0223C13.354 16.0047 13.3775 15.9874 13.4008 15.9703C13.8609 15.6327 14.4218 15.1735 14.8751 14.6493C15.3088 14.1479 15.75 13.4666 15.75 12.6967C15.75 11.5995 15.1875 10.7012 14.2543 10.3741C13.525 10.1184 12.7163 10.2628 12 10.7343Z" fill="black"/>
</svg>
