<svg width="24" height="24" viewBox="0 0 24 24" fill="none" xmlns="http://www.w3.org/2000/svg">
<path fill-rule="evenodd" clip-rule="evenodd" d="M10.9436 1.25H13.0564C14.8942 1.24998 16.3498 1.24997 17.489 1.40314C18.6614 1.56076 19.6104 1.89288 20.3588 2.64124C20.6516 2.93414 20.6516 3.40901 20.3588 3.7019C20.0659 3.9948 19.591 3.9948 19.2981 3.7019C18.8749 3.27869 18.2952 3.02502 17.2892 2.88976C16.2615 2.75159 14.9068 2.75 13 2.75H11C9.09318 2.75 7.73851 2.75159 6.71085 2.88976C5.70476 3.02502 5.12511 3.27869 4.7019 3.7019C4.27869 4.12511 4.02502 4.70476 3.88976 5.71085C3.75159 6.73851 3.75 8.09318 3.75 10V14C3.75 15.9068 3.75159 17.2615 3.88976 18.2892C4.02502 19.2952 4.27869 19.8749 4.7019 20.2981C5.12511 20.7213 5.70476 20.975 6.71085 21.1102C7.73851 21.2484 9.09318 21.25 11 21.25H13C14.9068 21.25 16.2615 21.2484 17.2892 21.1102C18.2952 20.975 18.8749 20.7213 19.2981 20.2981C19.994 19.6022 20.2048 18.5208 20.2414 15.9892C20.2474 15.575 20.588 15.2441 21.0022 15.2501C21.4163 15.2561 21.7472 15.5967 21.7412 16.0108C21.7061 18.4383 21.549 20.1685 20.3588 21.3588C19.6104 22.1071 18.6614 22.4392 17.489 22.5969C16.3498 22.75 14.8942 22.75 13.0564 22.75H10.9436C9.10583 22.75 7.65019 22.75 6.51098 22.5969C5.33856 22.4392 4.38961 22.1071 3.64124 21.3588C2.89288 20.6104 2.56076 19.6614 2.40314 18.489C2.24997 17.3498 2.24998 15.8942 2.25 14.0564V9.94358C2.24998 8.10582 2.24997 6.65019 2.40314 5.51098C2.56076 4.33856 2.89288 3.38961 3.64124 2.64124C4.38961 1.89288 5.33856 1.56076 6.51098 1.40314C7.65019 1.24997 9.10582 1.24998 10.9436 1.25ZM18.1131 7.04556C19.1739 5.98481 20.8937 5.98481 21.9544 7.04556C23.0152 8.1063 23.0152 9.82611 21.9544 10.8869L17.1991 15.6422C16.9404 15.901 16.7654 16.076 16.5693 16.2289C16.3387 16.4088 16.0892 16.563 15.8252 16.6889C15.6007 16.7958 15.3659 16.8741 15.0187 16.9897L12.9351 17.6843C12.4751 17.8376 11.9679 17.7179 11.625 17.375C11.2821 17.0321 11.1624 16.5249 11.3157 16.0649L11.9963 14.0232C12.001 14.0091 12.0056 13.9951 12.0102 13.9813C12.1259 13.6342 12.2042 13.3993 12.3111 13.1748C12.437 12.9108 12.5912 12.6613 12.7711 12.4307C12.924 12.2346 13.099 12.0596 13.3578 11.8009C13.3681 11.7906 13.3785 11.7802 13.3891 11.7696L18.1131 7.04556ZM20.8938 8.10622C20.4188 7.63126 19.6488 7.63126 19.1738 8.10622L18.992 8.288C19.0019 8.32149 19.0132 8.3571 19.0262 8.39452C19.1202 8.66565 19.2988 9.02427 19.6372 9.36276C19.9757 9.70125 20.3343 9.87975 20.6055 9.97382C20.6429 9.9868 20.6785 9.99812 20.712 10.008L20.8938 9.8262C21.3687 9.35124 21.3687 8.58118 20.8938 8.10622ZM19.5664 11.1536C19.2485 10.9866 18.9053 10.7521 18.5766 10.4234C18.2479 10.0947 18.0134 9.75146 17.8464 9.43357L14.4497 12.8303C14.1487 13.1314 14.043 13.2388 13.9538 13.3532C13.841 13.4979 13.7442 13.6545 13.6652 13.8202C13.6028 13.9511 13.5539 14.0936 13.4193 14.4976L13.019 15.6985L13.3015 15.981L14.5024 15.5807C14.9064 15.4461 15.0489 15.3972 15.1798 15.3348C15.3455 15.2558 15.5021 15.159 15.6468 15.0462C15.7612 14.957 15.8686 14.8513 16.1697 14.5503L19.5664 11.1536ZM7.25 9C7.25 8.58579 7.58579 8.25 8 8.25H14.5C14.9142 8.25 15.25 8.58579 15.25 9C15.25 9.41421 14.9142 9.75 14.5 9.75H8C7.58579 9.75 7.25 9.41421 7.25 9ZM7.25 13C7.25 12.5858 7.58579 12.25 8 12.25H10.5C10.9142 12.25 11.25 12.5858 11.25 13C11.25 13.4142 10.9142 13.75 10.5 13.75H8C7.58579 13.75 7.25 13.4142 7.25 13ZM7.25 17C7.25 16.5858 7.58579 16.25 8 16.25H9.5C9.91421 16.25 10.25 16.5858 10.25 17C10.25 17.4142 9.91421 17.75 9.5 17.75H8C7.58579 17.75 7.25 17.4142 7.25 17Z" fill="black"/>
</svg>
