<svg width="24" height="24" viewBox="0 0 24 24" fill="none" xmlns="http://www.w3.org/2000/svg">
<path fill-rule="evenodd" clip-rule="evenodd" d="M16.3939 2.02121L16.4604 2.03904C17.5598 2.33361 18.431 2.56704 19.1162 2.81458C19.8172 3.06779 20.3888 3.35744 20.8597 3.79847C21.5453 4.44068 22.0252 5.27179 22.2385 6.18671C22.385 6.81503 22.3501 7.45486 22.2189 8.18849C22.0906 8.90573 21.8572 9.77697 21.5626 10.8764L21.0271 12.8747C20.7326 13.974 20.4991 14.8452 20.2516 15.5305C19.9984 16.2314 19.7087 16.803 19.2677 17.2739C18.6459 17.9377 17.8471 18.4087 16.9665 18.6316C16.7093 19.2213 16.3336 19.7554 15.8597 20.1993C15.3888 20.6403 14.8172 20.9299 14.1162 21.1832C13.431 21.4307 12.5598 21.6641 11.4605 21.9587L11.394 21.9765C10.2946 22.2711 9.42337 22.5045 8.70613 22.6328C7.9725 22.764 7.33266 22.7989 6.70435 22.6524C5.78943 22.4391 4.95832 21.9592 4.31611 21.2736C3.87508 20.8027 3.58542 20.2311 3.33222 19.5302C3.08468 18.8449 2.85124 17.9737 2.55667 16.8743L2.02122 14.876C1.72664 13.7766 1.4932 12.9054 1.36495 12.1882C1.23376 11.4546 1.19881 10.8147 1.34531 10.1864C1.55864 9.27149 2.03849 8.44038 2.72417 7.79817C3.19505 7.35714 3.76664 7.06749 4.46758 6.81428C5.15283 6.56674 6.02404 6.3333 7.12341 6.03873L7.15665 6.02983C7.42112 5.95896 7.67134 5.89203 7.90825 5.82944C8.29986 4.43031 8.64448 3.44126 9.31611 2.72417C9.95832 2.03849 10.7894 1.55864 11.7043 1.34531C12.3327 1.19881 12.9725 1.23376 13.7061 1.36495C14.4233 1.49319 15.2945 1.72664 16.3939 2.02121ZM7.45502 7.5028C6.36214 7.79571 5.57905 8.00764 4.9772 8.22505C4.36778 8.4452 4.00995 8.64907 3.74955 8.89296C3.2804 9.33237 2.95209 9.90103 2.80613 10.527C2.72511 10.8745 2.72747 11.2863 2.84152 11.9242C2.95723 12.5712 3.17355 13.381 3.47902 14.521L3.99666 16.4529C4.30212 17.5929 4.51967 18.4023 4.74299 19.0205C4.96314 19.63 5.16701 19.9878 5.4109 20.2482C5.85031 20.7173 6.41897 21.0456 7.04496 21.1916C7.39242 21.2726 7.80425 21.2703 8.4421 21.1562C9.08915 21.0405 9.89893 20.8242 11.0389 20.5187C12.1789 20.2132 12.9884 19.9957 13.6066 19.7724C14.216 19.5522 14.5739 19.3484 14.8343 19.1045C14.9719 18.9756 15.0973 18.8357 15.2096 18.6865C15.0306 18.6612 14.8463 18.629 14.6557 18.5911C13.9839 18.4575 13.1769 18.2413 12.1808 17.9744L12.1234 17.959C11.024 17.6644 10.1528 17.431 9.46758 17.1835C8.76664 16.9302 8.19505 16.6406 7.72416 16.1996C7.03849 15.5574 6.55864 14.7262 6.34531 13.8113C6.19881 13.183 6.23376 12.5432 6.36494 11.8095C6.4932 11.0923 6.72664 10.2211 7.02122 9.12174L7.45502 7.5028ZM13.4421 2.84152C12.8042 2.72747 12.3924 2.72511 12.045 2.80613C11.419 2.95209 10.8503 3.2804 10.4109 3.74955C9.97479 4.21518 9.70642 4.93452 9.2397 6.64323C9.16384 6.92093 9.08365 7.22023 8.99665 7.54488L8.47902 9.47673C8.17355 10.6167 7.95723 11.4265 7.84152 12.0736C7.72747 12.7114 7.72511 13.1232 7.80613 13.4707C7.95209 14.0967 8.2804 14.6654 8.74955 15.1048C9.00995 15.3487 9.36778 15.5525 9.9772 15.7727C10.5954 15.996 11.4049 16.2136 12.5449 16.519C13.5703 16.7938 14.3303 16.997 14.9482 17.1199C15.5635 17.2422 15.981 17.2723 16.3232 17.23C16.3976 17.2209 16.4691 17.2082 16.5389 17.1919C17.1649 17.0459 17.7335 16.7176 18.1729 16.2485C18.4168 15.9881 18.6207 15.6303 18.8408 15.0208C19.0642 14.4026 19.2817 13.5932 19.5872 12.4532L20.1048 10.5213C20.4103 9.38129 20.6266 8.57151 20.7423 7.92446C20.8564 7.28661 20.8587 6.87479 20.7777 6.52733C20.6317 5.90133 20.3034 5.33267 19.8343 4.89327C19.5739 4.64937 19.216 4.4455 18.6066 4.22535C17.9884 4.00203 17.1789 3.78448 16.0389 3.47902C14.8989 3.17355 14.0892 2.95723 13.4421 2.84152Z" fill="black"/>
</svg>
