<svg width="24" height="24" viewBox="0 0 24 24" fill="none" xmlns="http://www.w3.org/2000/svg">
<path d="M16.5 20.5001L17 15.0001L13.857 13.7429C12.6649 13.266 11.3351 13.266 10.143 13.7429L7 15.0001L7.5 20.5001" stroke="black" stroke-width="1.5" stroke-linecap="round"/>
<path d="M7 15L2.5 13" stroke="black" stroke-width="1.5" stroke-linecap="round"/>
<path d="M17 15L21.5 13" stroke="black" stroke-width="1.5" stroke-linecap="round"/>
<ellipse cx="15" cy="10.5" rx="1" ry="1.5" fill="black"/>
<ellipse cx="9" cy="10.5" rx="1" ry="1.5" fill="black"/>
<path d="M7 3.33782C8.47087 2.48697 10.1786 2 12 2C17.5228 2 22 6.47715 22 12C22 17.5228 17.5228 22 12 22C6.47715 22 2 17.5228 2 12C2 10.1786 2.48697 8.47087 3.33782 7" stroke="black" stroke-width="1.5" stroke-linecap="round"/>
</svg>
