<svg width="24" height="24" viewBox="0 0 24 24" fill="none" xmlns="http://www.w3.org/2000/svg">
<path d="M16.4013 20.5L6 2M22 19C22 20.6569 20.6569 22 19 22C17.3431 22 16 20.6569 16 19C16 17.3431 17.3431 16 19 16C20.6569 16 22 17.3431 22 19Z" stroke="black" stroke-width="1.5" stroke-linecap="round"/>
<path d="M5 21.25C5.41421 21.25 5.75 21.5858 5.75 22C5.75 22.4142 5.41421 22.75 5 22.75V21.25ZM8.75 19V19.75H7.25V19H8.75ZM8.25241 20.8676C8.04941 21.2286 7.59215 21.3568 7.23109 21.1538C6.87003 20.9508 6.7419 20.4935 6.9449 20.1324L8.25241 20.8676ZM17.3462 1.63244C17.5492 1.27138 18.0065 1.14324 18.3676 1.34624C18.7286 1.54924 18.8568 2.0065 18.6538 2.36756L17.3462 1.63244ZM2.75 19C2.75 20.2426 3.75736 21.25 5 21.25V22.75C2.92893 22.75 1.25 21.0711 1.25 19H2.75ZM7.25 19C7.25 17.7574 6.24264 16.75 5 16.75V15.25C7.07107 15.25 8.75 16.9289 8.75 19H7.25ZM5 16.75C3.75736 16.75 2.75 17.7574 2.75 19H1.25C1.25 16.9289 2.92893 15.25 5 15.25V16.75ZM6.9449 20.1324L17.3462 1.63244L18.6538 2.36756L8.25241 20.8676L6.9449 20.1324Z" fill="black"/>
</svg>
