<svg width="24" height="24" viewBox="0 0 24 24" fill="none" xmlns="http://www.w3.org/2000/svg">
<path d="M2.08066 17.9529L1.36263 17.7362L1.36263 17.7362L2.08066 17.9529ZM21.9193 17.9529L22.6374 17.7362L22.6374 17.7362L21.9193 17.9529ZM2.7345 19.8293L3.12037 19.1862L3.12036 19.1862L2.7345 19.8293ZM21.2655 19.8293L20.8796 19.1862L20.8796 19.1862L21.2655 19.8293ZM10.5656 6.09266C10.6168 5.68161 10.3251 5.30692 9.91401 5.25575C9.50297 5.20457 9.12828 5.4963 9.0771 5.90734L10.5656 6.09266ZM7.14745 21.4073C7.09628 21.8184 7.38801 22.1931 7.79905 22.2443C8.21009 22.2954 8.58479 22.0037 8.63596 21.5927L7.14745 21.4073ZM14.9229 5.90734C14.8717 5.4963 14.497 5.20457 14.086 5.25575C13.6749 5.30692 13.3832 5.68161 13.4344 6.09266L14.9229 5.90734ZM15.364 21.5927C15.4152 22.0037 15.7899 22.2954 16.2009 22.2443C16.612 22.1931 16.9037 21.8184 16.8525 21.4073L15.364 21.5927ZM19.9364 8.78338C19.8168 8.38682 19.3983 8.16233 19.0017 8.28196C18.6052 8.4016 18.3807 8.82006 18.5003 9.21662L19.9364 8.78338ZM3.08617 17.2166C3.20581 16.8201 2.98132 16.4016 2.58476 16.282C2.1882 16.1623 1.76974 16.3868 1.6501 16.7834L3.08617 17.2166ZM2.85685 12.7834C2.73722 13.1799 2.96171 13.5984 3.35827 13.718C3.75483 13.8377 4.17329 13.6132 4.29292 13.2166L2.85685 12.7834ZM7.8917 2.75H16.1083V1.25H7.8917V2.75ZM17.4124 4V5H18.9124V4H17.4124ZM17.6624 4.75H5.83756V6.25H17.6624V4.75ZM6.58756 5.5V4H5.08756V5.5H6.58756ZM16.1083 2.75C16.6131 2.75 16.9183 2.75151 17.1379 2.78027C17.2393 2.79353 17.2922 2.80944 17.318 2.81979C17.3298 2.8245 17.335 2.82769 17.3361 2.82843C17.3371 2.82901 17.3374 2.82927 17.3384 2.83026L18.3848 1.75553C18.0711 1.4501 17.6919 1.33998 17.3326 1.29296C16.9929 1.24849 16.5718 1.25 16.1083 1.25V2.75ZM18.9124 4C18.9124 3.55036 18.9141 3.13566 18.8678 2.80014C18.8182 2.44094 18.7013 2.06368 18.3848 1.75553L17.3384 2.83026C17.3391 2.83096 17.3393 2.83117 17.3391 2.83094C17.3389 2.8307 17.3388 2.8305 17.3388 2.83052C17.3388 2.83056 17.3393 2.83128 17.3402 2.83299C17.3411 2.83473 17.3427 2.83779 17.3447 2.84253C17.3533 2.86298 17.3687 2.9099 17.3819 3.00532C17.4108 3.21442 17.4124 3.50683 17.4124 4H18.9124ZM7.8917 1.25C7.4282 1.25 7.00708 1.24849 6.66738 1.29296C6.30811 1.33998 5.92887 1.4501 5.61518 1.75553L6.66158 2.83026C6.66259 2.82927 6.66294 2.82901 6.66386 2.82843C6.66502 2.82769 6.67018 2.8245 6.68196 2.81979C6.7078 2.80944 6.76072 2.79353 6.86207 2.78027C7.08175 2.75151 7.38688 2.75 7.8917 2.75V1.25ZM6.58756 4C6.58756 3.50684 6.58924 3.21442 6.61811 3.00532C6.63129 2.9099 6.64668 2.86298 6.65532 2.84253C6.65733 2.83779 6.65886 2.83473 6.65979 2.83299C6.66071 2.83128 6.6612 2.83056 6.66123 2.83052C6.66124 2.8305 6.6611 2.8307 6.6609 2.83094C6.66071 2.83117 6.66086 2.83096 6.66158 2.83026L5.61518 1.75553C5.29869 2.06367 5.18181 2.44094 5.13221 2.80014C5.08588 3.13566 5.08756 3.55036 5.08756 4H6.58756ZM2.34864 20.4724C3.88127 21.392 6.9965 22.75 12 22.75V21.25C7.28315 21.25 4.4329 19.9736 3.12037 19.1862L2.34864 20.4724ZM12 22.75C17.0035 22.75 20.1187 21.392 21.6514 20.4724L20.8796 19.1862C19.5671 19.9736 16.7168 21.25 12 21.25V22.75ZM21.2013 18.1695C21.3371 18.6197 21.1843 19.0034 20.8796 19.1862L21.6514 20.4724C22.6513 19.8725 22.9334 18.7175 22.6374 17.7362L21.2013 18.1695ZM1.36263 17.7362C1.06659 18.7175 1.34869 19.8725 2.34864 20.4724L3.12036 19.1862C2.81574 19.0034 2.66287 18.6197 2.7987 18.1695L1.36263 17.7362ZM9.0771 5.90734L7.14745 21.4073L8.63596 21.5927L10.5656 6.09266L9.0771 5.90734ZM13.4344 6.09266L15.364 21.5927L16.8525 21.4073L14.9229 5.90734L13.4344 6.09266ZM22.6374 17.7362L19.9364 8.78338L18.5003 9.21662L21.2013 18.1695L22.6374 17.7362ZM1.6501 16.7834L1.36263 17.7362L2.7987 18.1695L3.08617 17.2166L1.6501 16.7834ZM5.11952 5.28338L2.85685 12.7834L4.29292 13.2166L6.55559 5.71662L5.11952 5.28338ZM17.4124 5C17.4124 4.86193 17.5244 4.75 17.6624 4.75V6.25C18.3528 6.25 18.9124 5.69036 18.9124 5H17.4124Z" fill="black"/>
</svg>
