<svg width="24" height="24" viewBox="0 0 24 24" fill="none" xmlns="http://www.w3.org/2000/svg">
<path d="M4.5 3L19.5 3" stroke="black" stroke-width="1.5" stroke-linecap="round"/>
<path d="M4.5 21L19.5 21" stroke="black" stroke-width="1.5" stroke-linecap="round"/>
<path d="M8 6C5.17157 6 3.75736 6 2.87868 6.87868C2 7.75736 2 9.17157 2 12C2 14.8284 2 16.2426 2.87868 17.1213C3.75736 18 5.17157 18 8 18L16 18C18.8284 18 20.2426 18 21.1213 17.1213C22 16.2426 22 14.8284 22 12C22 9.17157 22 7.75736 21.1213 6.87868C20.2426 6 18.8284 6 16 6L12 6" stroke="black" stroke-width="1.5" stroke-linecap="round"/>
</svg>
