<svg width="24" height="24" viewBox="0 0 24 24" fill="none" xmlns="http://www.w3.org/2000/svg">
<path d="M6 8V7.25C5.58579 7.25 5.25 7.58579 5.25 8H6ZM10 8.75C10.4142 8.75 10.75 8.41421 10.75 8C10.75 7.58579 10.4142 7.25 10 7.25V8.75ZM10 12.75C10.4142 12.75 10.75 12.4142 10.75 12C10.75 11.5858 10.4142 11.25 10 11.25V12.75ZM18.6 8.45C18.8485 8.11863 18.7814 7.64853 18.45 7.4C18.1186 7.15147 17.6485 7.21863 17.4 7.55L18.6 8.45ZM11.4 15.55C11.1515 15.8814 11.2186 16.3515 11.55 16.6C11.8814 16.8485 12.3515 16.7814 12.6 16.45L11.4 15.55ZM12.6 7.55C12.3515 7.21863 11.8814 7.15147 11.55 7.4C11.2186 7.64853 11.1515 8.11863 11.4 8.45L12.6 7.55ZM17.4 16.45C17.6485 16.7814 18.1186 16.8485 18.45 16.6C18.7814 16.3515 18.8485 15.8814 18.6 15.55L17.4 16.45ZM5.25 16C5.25 16.4142 5.58579 16.75 6 16.75C6.41421 16.75 6.75 16.4142 6.75 16H5.25ZM6 8.75H10V7.25H6V8.75ZM6 12.75H10V11.25H6V12.75ZM17.4 7.55L14.4 11.55L15.6 12.45L18.6 8.45L17.4 7.55ZM14.4 11.55L11.4 15.55L12.6 16.45L15.6 12.45L14.4 11.55ZM11.4 8.45L14.4 12.45L15.6 11.55L12.6 7.55L11.4 8.45ZM14.4 12.45L17.4 16.45L18.6 15.55L15.6 11.55L14.4 12.45ZM5.25 8V12H6.75V8H5.25ZM5.25 12V16H6.75V12H5.25Z" fill="black"/>
<path d="M22 12C22 16.714 22 19.0711 20.5355 20.5355C19.0711 22 16.714 22 12 22C7.28595 22 4.92893 22 3.46447 20.5355C2 19.0711 2 16.714 2 12C2 7.28595 2 4.92893 3.46447 3.46447C4.92893 2 7.28595 2 12 2C16.714 2 19.0711 2 20.5355 3.46447C21.5093 4.43821 21.8356 5.80655 21.9449 8" stroke="black" stroke-width="1.5" stroke-linecap="round"/>
</svg>
