<svg width="24" height="24" viewBox="0 0 24 24" fill="none" xmlns="http://www.w3.org/2000/svg">
<path opacity="0.5" d="M22 18C22 20.2091 20.2091 22 18 22C15.7909 22 14 20.2091 14 18C14 15.7909 15.7909 14 18 14C20.2091 14 22 15.7909 22 18Z" fill="black"/>
<path d="M20.0117 17.5483C20.3146 17.2657 20.3309 16.7911 20.0483 16.4883C19.7657 16.1855 19.2911 16.1691 18.9883 16.4517L17.3571 17.9741L17.0117 17.6517C16.7089 17.3691 16.2343 17.3855 15.9517 17.6883C15.6691 17.9911 15.6855 18.4657 15.9883 18.7483L16.8454 19.5483C17.1336 19.8172 17.5807 19.8172 17.8689 19.5483L20.0117 17.5483Z" fill="black"/>
<path fill-rule="evenodd" clip-rule="evenodd" d="M22 7.3V5.1875C22 5.01349 22 4.92634 21.9962 4.8528C21.916 3.31169 20.6112 2.07932 18.9794 2.00361C18.9015 2 18.8093 2 18.625 2C18.3178 2 18.1642 2 18.0343 2.00602C15.3147 2.13221 13.14 4.18614 13.0064 6.75466C13 6.87726 13 7.02234 13 7.3125V15.7055C13.8387 13.8808 15.6469 12.5941 17.7647 12.5049V11.3C17.7647 10.7477 18.2388 10.3 18.8235 10.3C20.5778 10.3 22 8.95685 22 7.3ZM20.25 5C20.25 4.58579 19.9142 4.25 19.5 4.25C19.0858 4.25 18.75 4.58579 18.75 5V7.5C18.75 7.91421 19.0858 8.25 19.5 8.25C19.9142 8.25 20.25 7.91421 20.25 7.5V5Z" fill="black"/>
<path opacity="0.5" d="M2 9.3V7.1875C2 7.01349 2 6.92634 2.00383 6.8528C2.08399 5.31169 3.38884 4.07932 5.02061 4.00361C5.09849 4 5.19066 4 5.375 4C5.68223 4 5.83584 4 5.96565 4.00602C8.68526 4.13221 10.86 6.18614 10.9936 8.75466C11 8.87726 11 9.02234 11 9.3125V18.25V19.75C11 20.9926 9.93338 22 8.61765 22C7.30191 22 6.23529 20.9926 6.23529 19.75V18.25V13.3C6.23529 12.7477 5.76124 12.3 5.17647 12.3C3.42215 12.3 2 10.9569 2 9.3Z" fill="black"/>
<path d="M11.0001 18.25H6.23535V19.75H11.0001V18.25Z" fill="black"/>
<path d="M4.5 6.25C4.08579 6.25 3.75 6.58579 3.75 7V9.5C3.75 9.91421 4.08579 10.25 4.5 10.25C4.91421 10.25 5.25 9.91421 5.25 9.5V7C5.25 6.58579 4.91421 6.25 4.5 6.25Z" fill="black"/>
</svg>
