<svg width="24" height="24" viewBox="0 0 24 24" fill="none" xmlns="http://www.w3.org/2000/svg">
<path opacity="0.5" d="M12 22C17.5228 22 22 17.5228 22 12C22 6.47715 17.5228 2 12 2C6.47715 2 2 6.47715 2 12C2 17.5228 6.47715 22 12 22Z" fill="black"/>
<path d="M11.4142 17.2561C11.4113 17.2571 11.41 17.2574 11.41 17.2574L11.4142 17.2561Z" fill="black"/>
<path d="M11.7969 17.4467C11.798 17.4493 11.7984 17.4509 11.7984 17.4509L11.7969 17.4467Z" fill="black"/>
<path d="M11.7969 6.55283C11.798 6.55016 11.7984 6.54859 11.7984 6.54859L11.7978 6.55024L11.7969 6.55283Z" fill="black"/>
<path fill-rule="evenodd" clip-rule="evenodd" d="M12.2099 5.46374C12.487 5.61477 12.8101 5.85791 13.155 6.1174L14.6854 7.26864C14.9218 7.44634 15.1601 7.62552 15.3326 7.79951C15.5269 7.99546 15.75 8.29403 15.75 8.71733C15.75 9.14063 15.5269 9.43921 15.3326 9.63516C15.1601 9.80914 14.9218 9.98833 14.6854 10.166L12.2477 11.9997L14.6854 13.8335C14.9218 14.0112 15.1601 14.1904 15.3326 14.3643C15.5269 14.5603 15.75 14.8589 15.75 15.2822C15.75 15.7055 15.5269 16.004 15.3326 16.2C15.1601 16.374 14.9218 16.5532 14.6854 16.7309L13.155 17.8821C12.8101 18.1416 12.487 18.3847 12.2099 18.5357C11.9267 18.6901 11.4599 18.8782 10.9653 18.6302C10.4717 18.3826 10.3423 17.8969 10.2956 17.578C10.2499 17.2654 10.2499 16.8605 10.25 16.4279L10.25 13.601L8.48016 15.0759C8.16195 15.3411 7.68903 15.2981 7.42385 14.9799C7.15868 14.6617 7.20167 14.1888 7.51988 13.9236L9.82848 11.9997L7.51988 10.0759C7.20167 9.81074 7.15868 9.33782 7.42385 9.01961C7.68903 8.7014 8.16195 8.65841 8.48016 8.92358L10.25 10.3985L10.25 7.57157C10.2499 7.13896 10.2499 6.73413 10.2956 6.42154C10.3423 6.10257 10.4717 5.61686 10.9653 5.36932C11.4599 5.1213 11.9267 5.30939 12.2099 5.46374ZM11.75 16.3763V13.5024L13.7492 15.0062C13.8849 15.1083 13.9928 15.1895 14.0833 15.2615L14.1091 15.2822L14.0833 15.3028C13.9928 15.3748 13.8849 15.456 13.7492 15.5581L12.2946 16.6522C12.0676 16.823 11.8944 16.9525 11.7563 17.0494C11.7507 16.8799 11.75 16.6623 11.75 16.3763ZM11.4142 17.2561C11.4113 17.2571 11.41 17.2574 11.41 17.2574L11.4142 17.2561ZM11.7969 17.4467C11.798 17.4493 11.7984 17.4509 11.7984 17.4509L11.7969 17.4467ZM11.75 7.62319V10.4971L13.7492 8.99328C13.8849 8.89119 13.9928 8.80997 14.0833 8.738L14.1091 8.71733L14.0833 8.69667C13.9928 8.6247 13.8849 8.54348 13.7492 8.44138L12.2946 7.34725C12.0676 7.17651 11.8944 7.04698 11.7563 6.9501C11.7507 7.1196 11.75 7.3372 11.75 7.62319ZM11.7969 6.55283C11.798 6.55016 11.7984 6.54859 11.7984 6.54859L11.7978 6.55024L11.7969 6.55283Z" fill="black"/>
</svg>
