<svg width="24" height="24" viewBox="0 0 24 24" fill="none" xmlns="http://www.w3.org/2000/svg">
<path opacity="0.4" fill-rule="evenodd" clip-rule="evenodd" d="M12 4V8H10.772C9.43116 8 8.76073 8 8.24681 7.64385C7.73289 7.2877 7.49749 6.65997 7.02669 5.40449L6.5 4H12Z" fill="black"/>
<path opacity="0.6" d="M16.9733 5.40449L17.5 4H12V8H13.228C14.5688 8 15.2393 8 15.7532 7.64385C16.2671 7.2877 16.5025 6.65997 16.9733 5.40449Z" fill="black"/>
<path fill-rule="evenodd" clip-rule="evenodd" d="M3.17157 5.17138C2 6.34295 2 8.22857 2 11.9998C2 15.771 2 17.6567 3.17157 18.8282C4.34315 19.9998 6.22876 19.9998 10 19.9998H14C17.7712 19.9998 19.6569 19.9998 20.8284 18.8282C22 17.6567 22 15.771 22 11.9998C22 8.22857 22 6.34295 20.8284 5.17138C20.0914 4.43431 19.0717 4.16095 17.4776 4.05957L16.9733 5.4043C16.5025 6.65977 16.2671 7.28751 15.7532 7.64366C15.2393 7.99981 14.5688 7.99981 13.228 7.99981H10.772C9.43116 7.99981 8.76073 7.99981 8.24681 7.64366C7.73289 7.28751 7.49749 6.65978 7.02669 5.40431L6.52241 4.05957C4.92835 4.16095 3.90865 4.43431 3.17157 5.17138ZM8.25 11.5C7.00736 11.5 6 12.5074 6 13.75C6 14.9926 7.00736 16 8.25 16C9.49264 16 10.5 14.9926 10.5 13.75C10.5 12.5074 9.49264 11.5 8.25 11.5ZM15.75 11.5C14.5074 11.5 13.5 12.5074 13.5 13.75C13.5 14.9926 14.5074 16 15.75 16C16.9926 16 18 14.9926 18 13.75C18 12.5074 16.9926 11.5 15.75 11.5Z" fill="black"/>
</svg>
