<svg width="24" height="24" viewBox="0 0 24 24" fill="none" xmlns="http://www.w3.org/2000/svg">
<path opacity="0.5" fill-rule="evenodd" clip-rule="evenodd" d="M2.25 12C2.25 6.61522 6.61522 2.25 12 2.25C17.3848 2.25 21.75 6.61522 21.75 12V14.7927C21.8282 14.765 21.9123 14.75 22 14.75C22.4142 14.75 22.75 15.0858 22.75 15.5V17.5C22.75 17.9142 22.4142 18.25 22 18.25C21.5858 18.25 21.25 17.9142 21.25 17.5V17H20.25V12C20.25 7.44365 16.5563 3.75 12 3.75C7.44365 3.75 3.75 7.44365 3.75 12V17H2.75V17.5C2.75 17.9142 2.41421 18.25 2 18.25C1.58579 18.25 1.25 17.9142 1.25 17.5V15.5C1.25 15.0858 1.58579 14.75 2 14.75C2.08766 14.75 2.17181 14.765 2.25 14.7927V12Z" fill="black"/>
<path d="M8 14.0496C8 13.2003 8 12.7756 7.79032 12.4803C7.6848 12.3317 7.54473 12.2089 7.38127 12.1217C7.05645 11.9484 6.61775 11.9884 5.74033 12.0685C4.26185 12.2035 3.5226 12.271 2.99285 12.6405C2.72473 12.8275 2.49965 13.0659 2.33175 13.3408C2 13.8839 2 14.5995 2 16.0307V17.7703C2 19.1872 2 19.8957 2.33837 20.4428C2.46502 20.6476 2.62377 20.8323 2.80899 20.9904C3.30383 21.4126 4.02613 21.5445 5.47073 21.8083C6.48732 21.9939 6.99562 22.0867 7.37077 21.8912C7.5092 21.8191 7.63155 21.7214 7.73086 21.6038C8 21.285 8 20.7864 8 19.7893V14.0496Z" fill="black"/>
<path d="M16 14.0496C16 13.2003 16 12.7756 16.2097 12.4803C16.3152 12.3317 16.4553 12.2089 16.6187 12.1217C16.9435 11.9484 17.3823 11.9884 18.2597 12.0685C19.7382 12.2035 20.4774 12.271 21.0072 12.6405C21.2753 12.8275 21.5003 13.0659 21.6682 13.3408C22 13.8839 22 14.5995 22 16.0307V17.7703C22 19.1872 22 19.8957 21.6616 20.4428C21.535 20.6476 21.3762 20.8323 21.191 20.9904C20.6962 21.4126 19.9739 21.5445 18.5293 21.8083C17.5127 21.9939 17.0044 22.0867 16.6292 21.8912C16.4908 21.8191 16.3685 21.7214 16.2691 21.6038C16 21.285 16 20.7864 16 19.7893V14.0496Z" fill="black"/>
</svg>
