<svg width="24" height="24" viewBox="0 0 24 24" fill="none" xmlns="http://www.w3.org/2000/svg">
<path opacity="0.5" d="M4 9.67442C4 5.43595 7.35786 2 11.5 2C15.6421 2 19 5.43595 19 9.67442C19 11.9468 18.034 13.9892 16.5014 15.3934C15.9906 15.8614 15.6122 16.2082 15.344 16.4598C15.2099 16.5855 15.1074 16.6838 15.0317 16.7592C14.994 16.7968 14.9651 16.8266 14.9436 16.8496C14.933 16.861 14.925 16.8699 14.9192 16.8766L14.914 16.8826L14.9108 16.8864C14.6743 17.1851 14.6231 17.2622 14.5926 17.332C14.5621 17.4018 14.5402 17.4922 14.4805 17.8717C14.457 18.0216 14.4545 18.2782 14.4545 18.9767V19.0067C14.4546 19.4158 14.4546 19.7687 14.4289 20.0583C14.4018 20.3645 14.3418 20.6677 14.1805 20.9535C14.001 21.2717 13.7428 21.5359 13.4318 21.7196C13.1525 21.8846 12.8562 21.946 12.557 21.9738C12.274 22 11.9292 22 11.5294 22H11.5293H11.4707H11.4706C11.0708 22 10.726 22 10.443 21.9738C10.1438 21.946 9.84747 21.8846 9.56818 21.7196C9.25723 21.5359 8.99902 21.2717 8.81949 20.9535C8.65825 20.6677 8.5982 20.3645 8.57107 20.0583C8.54543 19.7687 8.54544 19.4158 8.54545 19.0067L8.54545 18.9767C8.54545 18.2782 8.54305 18.0216 8.51949 17.8717C8.45982 17.4922 8.43787 17.4018 8.40739 17.332C8.3769 17.2622 8.32571 17.1851 8.0892 16.8864L8.08591 16.8825L8.0808 16.8766C8.07499 16.8699 8.06699 16.861 8.05635 16.8496C8.03486 16.8266 8.00601 16.7968 7.9683 16.7592C7.89262 16.6838 7.7901 16.5855 7.65601 16.4598C7.38782 16.2082 7.0094 15.8614 6.49859 15.3934C4.96602 13.9892 4 11.9468 4 9.67442Z" fill="black"/>
<path d="M10.2983 13.6246C10.0908 13.266 9.63205 13.1435 9.27351 13.3509C8.91496 13.5583 8.79244 14.0171 8.99985 14.3757C9.35312 14.9864 9.93605 15.4498 10.6315 15.6465V17.0001C10.6315 17.4143 10.9673 17.7501 11.3815 17.7501C11.7957 17.7501 12.1315 17.4143 12.1315 17.0001V15.6466C12.8269 15.4498 13.4099 14.9864 13.7631 14.3757C13.9705 14.0171 13.848 13.5583 13.4895 13.3509C13.1309 13.1435 12.6721 13.266 12.4647 13.6246C12.2475 14.0002 11.8432 14.2501 11.3815 14.2501C10.9197 14.2501 10.5155 14.0002 10.2983 13.6246Z" fill="black"/>
<path d="M9.9147 19.6745H13.0848C13.0819 19.7715 13.0774 19.8562 13.0706 19.9325C13.0521 20.1419 13.0208 20.2179 12.9993 20.2559C12.9395 20.362 12.8534 20.4501 12.7498 20.5113C12.7126 20.5333 12.6383 20.5653 12.4336 20.5843C12.2196 20.6041 11.9371 20.6048 11.4998 20.6048C11.0624 20.6048 10.7799 20.6041 10.5659 20.5843C10.3612 20.5653 10.2869 20.5333 10.2498 20.5113C10.1461 20.4501 10.06 20.362 10.0002 20.2559C9.97875 20.2179 9.94745 20.1419 9.9289 19.9325C9.92215 19.8562 9.91767 19.7715 9.9147 19.6745Z" fill="black"/>
</svg>
