<svg width="24" height="24" viewBox="0 0 24 24" fill="none" xmlns="http://www.w3.org/2000/svg">
<path opacity="0.5" d="M19 8.97414V14.986C19 18.8597 15.866 21.9999 12 21.9999C8.13401 21.9999 5 18.8597 5 14.986V8.97414C5 5.35433 7.73668 2.37497 11.25 2V5.38542C10.6588 5.66685 10.25 6.27067 10.25 6.97016V8.97414C10.25 9.94256 11.0335 10.7276 12 10.7276C12.9665 10.7276 13.75 9.94256 13.75 8.97414V6.97016C13.75 6.27067 13.3412 5.66685 12.75 5.38542V2C16.2633 2.37497 19 5.35433 19 8.97414Z" fill="black"/>
<path d="M13.75 8.97385V6.96987C13.75 6.27038 13.3412 5.66656 12.75 5.38513V1.99971C12.5036 1.97341 12.2534 1.95996 12 1.95996C11.7466 1.95996 11.4964 1.97341 11.25 1.99971V5.38513C10.6588 5.66656 10.25 6.27038 10.25 6.96987V8.97385C10.25 9.94227 11.0335 10.7273 12 10.7273C12.9665 10.7273 13.75 9.94227 13.75 8.97385Z" fill="black"/>
</svg>
