<svg width="24" height="24" viewBox="0 0 24 24" fill="none" xmlns="http://www.w3.org/2000/svg">
<path d="M17.1211 2.87868C16.2424 2 14.8282 2 11.9998 2C9.17134 2 7.75712 2 6.87844 2.87868C6.38608 3.37105 6.16961 4.03157 6.07444 5.01484C6.63368 4.99996 7.25183 4.99998 7.92943 5H16.0706C16.748 4.99998 17.366 4.99996 17.9251 5.01483C17.8299 4.03156 17.6135 3.37105 17.1211 2.87868Z" fill="black"/>
<path fill-rule="evenodd" clip-rule="evenodd" d="M18 14.5C18 17.3284 18 20.2426 17.1213 21.1213C16.2426 22 14.8284 22 12 22C9.17158 22 7.75736 22 6.87868 21.1213C6 20.2426 6 17.3284 6 14.5H18ZM15.75 16.75C15.75 17.1642 15.4142 17.5 15 17.5H9C8.58579 17.5 8.25 17.1642 8.25 16.75C8.25 16.3358 8.58579 16 9 16H15C15.4142 16 15.75 16.3358 15.75 16.75ZM13.75 19.75C13.75 20.1642 13.4142 20.5 13 20.5H9C8.58579 20.5 8.25 20.1642 8.25 19.75C8.25 19.3358 8.58579 19 9 19H13C13.4142 19 13.75 19.3358 13.75 19.75Z" fill="black"/>
<g opacity="0.5">
<path d="M15 17.5C15.4142 17.5 15.75 17.1642 15.75 16.75C15.75 16.3358 15.4142 16 15 16H9C8.58579 16 8.25 16.3358 8.25 16.75C8.25 17.1642 8.58579 17.5 9 17.5H15Z" fill="black"/>
<path d="M13 20.5C13.4142 20.5 13.75 20.1642 13.75 19.75C13.75 19.3358 13.4142 19 13 19H9C8.58579 19 8.25 19.3358 8.25 19.75C8.25 20.1642 8.58579 20.5 9 20.5H13Z" fill="black"/>
</g>
<path opacity="0.5" d="M16 6H8C5.17157 6 3.75736 6 2.87868 6.87868C2 7.75736 2 9.17157 2 12C2 14.8284 2 16.2426 2.87868 17.1213C3.37323 17.6159 4.03743 17.8321 5.02795 17.9266C4.99998 17.2038 4.99999 15.3522 5 14.5C4.72386 14.5 4.5 14.2761 4.5 14C4.5 13.7239 4.72386 13.5 5 13.5H19C19.2761 13.5 19.5 13.7239 19.5 14C19.5 14.2761 19.2761 14.5003 19 14.5003C19 15.3525 19 17.2039 18.9721 17.9266C19.9626 17.8321 20.6268 17.6159 21.1213 17.1213C22 16.2426 22 14.8284 22 12C22 9.17157 22 7.75736 21.1213 6.87868C20.2426 6 18.8284 6 16 6Z" fill="black"/>
<path d="M9 10.75C9.41421 10.75 9.75 10.4142 9.75 10C9.75 9.58579 9.41421 9.25 9 9.25H6C5.58579 9.25 5.25 9.58579 5.25 10C5.25 10.4142 5.58579 10.75 6 10.75H9Z" fill="black"/>
<path d="M18 10C18 10.5523 17.5523 11 17 11C16.4477 11 16 10.5523 16 10C16 9.44772 16.4477 9 17 9C17.5523 9 18 9.44772 18 10Z" fill="black"/>
</svg>
