<svg width="24" height="24" viewBox="0 0 24 24" fill="none" xmlns="http://www.w3.org/2000/svg">
<g opacity="0.5">
<path d="M3.17157 19.8284C4.34315 21 6.22876 21 10 21H13.8895C13.3269 20.1372 13 19.1068 13 18C13 17.6988 13.0242 17.4032 13.0708 17.1151C12.8769 16.9796 12.75 16.7546 12.75 16.5C12.75 16.0926 13.0749 15.761 13.4797 15.7503C14.1193 14.3251 15.3479 13.2218 16.8557 12.75H2V13C2 16.7712 2 18.6569 3.17157 19.8284Z" fill="black"/>
<path d="M3.17157 4.17157C2 5.34315 2 7.22876 2 11V11.25H22V11C22 7.22876 22 5.34315 20.8284 4.17157C19.6569 3 17.7712 3 14 3H10C6.22876 3 4.34315 3 3.17157 4.17157Z" fill="black"/>
</g>
<path opacity="0.5" d="M14.9286 16.7534C15.3176 15.2559 16.8529 14.25 18.5048 14.25C19.782 14.25 20.945 14.8304 21.6108 15.7648C21.8512 16.1021 21.7726 16.5704 21.4353 16.8108C21.0979 17.0512 20.6296 16.9726 20.3892 16.6352C20.0295 16.1304 19.3411 15.75 18.5048 15.75C17.5383 15.75 16.8181 16.2319 16.5056 16.8299C16.592 16.8734 16.6713 16.9343 16.738 17.0123C17.0074 17.327 16.9707 17.8004 16.656 18.0698L16.0719 18.5698C15.7911 18.8101 15.3772 18.8101 15.0964 18.5698L14.5123 18.0698C14.1976 17.8004 14.1609 17.327 14.4302 17.0123C14.5618 16.8586 14.742 16.7712 14.9286 16.7534Z" fill="black"/>
<path fill-rule="evenodd" clip-rule="evenodd" d="M20.9282 17.4302C21.209 17.1899 21.6229 17.1899 21.9036 17.4302L22.4878 17.9302C22.8024 18.1996 22.8392 18.673 22.5698 18.9877C22.4383 19.1414 22.2581 19.2288 22.0714 19.2466C21.6825 20.7441 20.1472 21.75 18.4953 21.75C17.218 21.75 16.0551 21.1696 15.3893 20.2352C15.1489 19.8979 15.2275 19.4296 15.5648 19.1892C15.9021 18.9488 16.3705 19.0274 16.6108 19.3648C16.9706 19.8696 17.659 20.25 18.4953 20.25C19.4618 20.25 20.1819 19.7681 20.4944 19.1701C20.4081 19.1266 20.3288 19.0657 20.262 18.9877C19.9927 18.673 20.0294 18.1996 20.3441 17.9302L20.9282 17.4302Z" fill="black"/>
<path d="M5.25 17.5C5.25 17.9142 5.58579 18.25 6 18.25C6.41421 18.25 6.75 17.9142 6.75 17.5V15.5C6.75 15.0858 6.41421 14.75 6 14.75C5.58579 14.75 5.25 15.0858 5.25 15.5V17.5Z" fill="black"/>
<path d="M8.25 17.5C8.25 17.9142 8.58579 18.25 9 18.25C9.41421 18.25 9.75 17.9142 9.75 17.5V15.5C9.75 15.0858 9.41421 14.75 9 14.75C8.58579 14.75 8.25 15.0858 8.25 15.5V17.5Z" fill="black"/>
<path d="M8.25 8.5C8.25 8.91421 8.58579 9.25 9 9.25C9.41421 9.25 9.75 8.91421 9.75 8.5V6.5C9.75 6.08579 9.41421 5.75 9 5.75C8.58579 5.75 8.25 6.08579 8.25 6.5V8.5Z" fill="black"/>
<path d="M6 9.25C5.58579 9.25 5.25 8.91421 5.25 8.5V6.5C5.25 6.08579 5.58579 5.75 6 5.75C6.41421 5.75 6.75 6.08579 6.75 6.5V8.5C6.75 8.91421 6.41421 9.25 6 9.25Z" fill="black"/>
<path d="M13.5 6.75C13.0858 6.75 12.75 7.08579 12.75 7.5C12.75 7.91421 13.0858 8.25 13.5 8.25H18C18.4142 8.25 18.75 7.91421 18.75 7.5C18.75 7.08579 18.4142 6.75 18 6.75H13.5Z" fill="black"/>
<path fill-rule="evenodd" clip-rule="evenodd" d="M20.1443 12.75H22V11.25H2V12.75H16.8557C17.3749 12.5876 17.9272 12.5 18.5 12.5C19.0728 12.5 19.6251 12.5876 20.1443 12.75Z" fill="black"/>
</svg>
