<svg width="24" height="24" viewBox="0 0 24 24" fill="none" xmlns="http://www.w3.org/2000/svg">
<path fill-rule="evenodd" clip-rule="evenodd" d="M3.17157 20.8284C4.34315 22 6.22876 22 10 22C13.7712 22 15.6569 22 16.8284 20.8284C18 19.6569 18 17.7712 18 14C18 12.9746 17.5895 11.9937 16.8644 11.2686L12.7314 7.13555C12.0063 6.41048 11.0254 6 10 6C6.22876 6 4.34315 6 3.17157 7.17157C2 8.34315 2 10.2288 2 14C2 17.7712 2 19.6569 3.17157 20.8284ZM11 14C11.9428 14 12.4142 14 12.7071 14.2929C13 14.5858 13 15.0572 13 16H10.5V14H11ZM9.5 19H9C8.05719 19 7.58579 19 7.29289 18.7071C7 18.4142 7 17.9428 7 17V16C7 15.0572 7 14.5858 7.29289 14.2929C7.58579 14 8.05719 14 9 14H9.5V19ZM11 19H10.5V17H13C13 17.9428 13 18.4142 12.7071 18.7071C12.4142 19 11.9428 19 11 19Z" fill="black"/>
<path opacity="0.5" d="M6.09277 6.09271C6.21601 4.74129 6.50305 3.84016 7.17164 3.17157C8.34321 2 10.2288 2 14.0001 2C15.0255 2 16.0064 2.41048 16.7314 3.13555L20.8645 7.26862C21.5896 7.99369 22.0001 8.9746 22.0001 10C22.0001 13.7712 22.0001 15.6569 20.8285 16.8284C20.1599 17.497 19.2588 17.7841 17.9074 17.9073C18.0001 16.8906 18.0001 15.6191 18.0001 14C18.0001 12.9746 17.5896 11.9937 16.8645 11.2686L12.7314 7.13555C12.0064 6.41048 11.0255 6 10.0001 6C8.38098 6 7.10945 6 6.09277 6.09271Z" fill="black"/>
</svg>
