<svg width="24" height="24" viewBox="0 0 24 24" fill="none" xmlns="http://www.w3.org/2000/svg">
<path opacity="0.5" d="M20.4301 21.1528C21.277 20.3059 21.277 18.9428 21.277 16.2167C21.277 13.4905 21.277 12.1274 20.4301 11.2805C19.979 10.8293 18.7483 10.6212 17.4479 10.5245C16.556 10.4582 16.11 10.4251 15.802 10.7111C15.4939 10.9971 15.4939 11.4653 15.4939 12.4018V20.0439C15.4939 20.9804 15.4939 21.4487 15.8029 21.7348C16.112 22.021 16.5572 21.9866 17.4477 21.9179C18.7482 21.8175 19.979 21.604 20.4301 21.1528Z" fill="black"/>
<path d="M19.1089 14.2893C19.1089 13.8901 18.7852 13.5664 18.386 13.5664C17.9867 13.5664 17.6631 13.8901 17.6631 14.2893V18.1447C17.6631 18.5439 17.9867 18.8676 18.386 18.8676C18.7852 18.8676 19.1089 18.5439 19.1089 18.1447V14.2893Z" fill="black"/>
<path opacity="0.5" d="M2 8.50575C2 5.77958 2 4.41649 2.84692 3.56957C3.69384 2.72266 5.05694 2.72266 7.78313 2.72266H8.74699C11.4732 2.72266 12.8363 2.72266 13.6832 3.56957C14.5301 4.41649 14.5301 5.77958 14.5301 8.50575V16.2166C14.5301 18.9427 14.5301 20.3058 13.6832 21.1527C12.8363 21.9997 11.4732 21.9997 8.74699 21.9997H7.78313C5.05694 21.9997 3.69384 21.9997 2.84692 21.1527C2 20.3058 2 18.9427 2 16.2166V8.50575Z" fill="black"/>
<path d="M5.8557 4.8916C5.45646 4.8916 5.13281 5.21525 5.13281 5.61449C5.13281 6.01373 5.45646 6.33738 5.8557 6.33738H10.675C11.0742 6.33738 11.3979 6.01373 11.3979 5.61449C11.3979 5.21525 11.0742 4.8916 10.675 4.8916H5.8557Z" fill="black"/>
<path d="M8.26534 19.1084C9.06383 19.1084 9.71113 18.4611 9.71113 17.6626C9.71113 16.8641 9.06383 16.2168 8.26534 16.2168C7.46686 16.2168 6.81956 16.8641 6.81956 17.6626C6.81956 18.4611 7.46686 19.1084 8.26534 19.1084Z" fill="black"/>
<path fill-rule="evenodd" clip-rule="evenodd" d="M15.7447 2.60177C15.8117 2.20818 16.185 1.9434 16.5786 2.01035C19.6626 2.535 21.9996 5.24933 21.9996 8.5061C21.9996 8.77354 21.8519 9.01912 21.6157 9.14455C21.3795 9.26998 21.0934 9.25476 20.8718 9.10498L19.426 8.12762C19.0953 7.90403 19.0084 7.45464 19.232 7.12389C19.4556 6.79313 19.905 6.70626 20.2357 6.92986L20.3317 6.99474C19.7756 5.1544 18.2308 3.75797 16.3361 3.43565C15.9426 3.36869 15.6778 2.99535 15.7447 2.60177Z" fill="black"/>
</svg>
