<svg width="24" height="24" viewBox="0 0 24 24" fill="none" xmlns="http://www.w3.org/2000/svg">
<path opacity="0.5" d="M5.87892 2.87868C5.00024 3.75736 5.00024 5.17157 5.00024 8V16C5.00024 18.8284 5.00024 20.2426 5.87892 21.1213C6.7576 22 8.17182 22 11.0002 22H13.0002C15.8287 22 17.2429 22 18.1216 21.1213C19.0002 20.2426 19.0002 18.8284 19.0002 16V8C19.0002 5.17157 19.0002 3.75736 18.1216 2.87868C17.2429 2 15.8287 2 13.0002 2H11.0002C8.17182 2 6.7576 2 5.87892 2.87868Z" fill="black"/>
<path d="M9.5 18.25C9.08579 18.25 8.75 18.5858 8.75 19C8.75 19.4142 9.08579 19.75 9.5 19.75H14.5C14.9142 19.75 15.25 19.4142 15.25 19C15.25 18.5858 14.9142 18.25 14.5 18.25H9.5Z" fill="black"/>
<path fill-rule="evenodd" clip-rule="evenodd" d="M1.66475 5.32934C2.03524 5.1441 2.48574 5.29427 2.67098 5.66475L3.44738 7.21754C3.69371 7.71021 3.69371 8.29012 3.44738 8.78279L2.89459 9.88836C2.8594 9.95874 2.8594 10.0416 2.89459 10.112L3.44738 11.2175C3.69371 11.7102 3.69371 12.2901 3.44738 12.7828L2.89459 13.8884C2.8594 13.9587 2.8594 14.0416 2.89459 14.112L3.44738 15.2175C3.69371 15.7102 3.69371 16.2901 3.44738 16.7828L2.67098 18.3356C2.48574 18.7061 2.03524 18.8562 1.66475 18.671C1.29427 18.4857 1.1441 18.0352 1.32934 17.6648L2.10574 16.112C2.14093 16.0416 2.14093 15.9587 2.10574 15.8884L1.55295 14.7828C1.30661 14.2901 1.30661 13.7102 1.55295 13.2175L2.10574 12.112C2.14093 12.0416 2.14093 11.9587 2.10574 11.8884L1.55295 10.7828C1.30661 10.2901 1.30661 9.71021 1.55295 9.21754L2.10574 8.11197C2.14093 8.04159 2.14093 7.95874 2.10574 7.88836L1.32934 6.33557C1.1441 5.96509 1.29427 5.51459 1.66475 5.32934ZM22.3356 5.32934C22.7061 5.51459 22.8562 5.96509 22.671 6.33557L21.8946 7.88836C21.8594 7.95874 21.8594 8.04159 21.8946 8.11197L22.4474 9.21754C22.6937 9.71021 22.6937 10.2901 22.4474 10.7828L21.8946 11.8884C21.8594 11.9587 21.8594 12.0416 21.8946 12.112L22.4474 13.2175C22.6937 13.7102 22.6937 14.2901 22.4474 14.7828L21.8946 15.8884C21.8594 15.9587 21.8594 16.0416 21.8946 16.112L22.671 17.6648C22.8562 18.0352 22.7061 18.4857 22.3356 18.671C21.9651 18.8562 21.5146 18.7061 21.3293 18.3356L20.5529 16.7828C20.3066 16.2901 20.3066 15.7102 20.5529 15.2175L21.1057 14.112C21.1409 14.0416 21.1409 13.9587 21.1057 13.8884L20.5529 12.7828C20.3066 12.2901 20.3066 11.7102 20.5529 11.2175L21.1057 10.112C21.1409 10.0416 21.1409 9.95874 21.1057 9.88836L20.5529 8.78279C20.3066 8.29012 20.3066 7.71021 20.5529 7.21754L21.3293 5.66475C21.5146 5.29427 21.9651 5.1441 22.3356 5.32934Z" fill="black"/>
</svg>
