<svg width="24" height="24" viewBox="0 0 24 24" fill="none" xmlns="http://www.w3.org/2000/svg">
<path opacity="0.4" d="M12 2C13.7005 2 15.0943 2 16.2501 2.06874L17.7501 2.22165C18.9728 2.41592 19.8515 2.78045 20.5355 3.46447C22 4.92893 22 7.28595 22 12C22 16.714 22 19.0711 20.5355 20.5355C19.0711 22 16.714 22 12 22C7.28595 22 4.92893 22 3.46447 20.5355C2 19.0711 2 16.714 2 12C2 7.28595 2 4.92893 3.46447 3.46447C4.92893 2 7.28595 2 12 2Z" fill="black"/>
<path d="M12 6.25C8.82436 6.25 6.25 8.82436 6.25 12C6.25 15.1756 8.82436 17.75 12 17.75C15.1756 17.75 17.75 15.1756 17.75 12C17.75 11.5858 17.4142 11.25 17 11.25C16.5858 11.25 16.25 11.5858 16.25 12C16.25 14.3472 14.3472 16.25 12 16.25C9.65279 16.25 7.75 14.3472 7.75 12C7.75 9.65279 9.65279 7.75 12 7.75C12.4455 7.75 12.8736 7.81829 13.2753 7.94444C13.6704 8.06856 14.0914 7.84882 14.2155 7.45364C14.3397 7.05846 14.1199 6.63748 13.7247 6.51336C13.1793 6.34206 12.5997 6.25 12 6.25Z" fill="black"/>
<path d="M10.75 12C10.75 11.5858 10.4142 11.25 10 11.25C9.58579 11.25 9.25 11.5858 9.25 12C9.25 13.5188 10.4812 14.75 12 14.75C12.4142 14.75 12.75 14.4142 12.75 14C12.75 13.5858 12.4142 13.25 12 13.25C11.3096 13.25 10.75 12.6904 10.75 12Z" fill="black"/>
<path d="M17.7501 7.96443V2.22127L16.2501 2.06836V7.96443C16.2501 8.04802 16.2083 8.12608 16.1388 8.17245L13.5841 9.87558C13.2394 10.1053 13.1463 10.571 13.376 10.9156C13.6058 11.2603 14.0715 11.3534 14.4161 11.1237L16.9708 9.42052C17.4577 9.09596 17.7501 8.54955 17.7501 7.96443Z" fill="black"/>
</svg>
