<svg width="24" height="24" viewBox="0 0 24 24" fill="none" xmlns="http://www.w3.org/2000/svg">
<path opacity="0.5" d="M3.17157 3.46447C2 4.92893 2 7.28595 2 12C2 16.714 2 19.0711 3.17157 20.5355C4.34315 22 6.22876 22 10 22H13.3759C13.1344 21.4663 13 20.8739 13 20.25C13 17.9867 14.7692 16.1366 17 16.0072V12.25C17 11.0074 18.0074 10 19.25 10C20.4926 10 21.5 11.0074 21.5 12.25C21.5 12.5764 21.7085 12.8541 21.9996 12.9572C22 12.6494 22 12.3305 22 12C22 7.28595 22 4.92893 20.8284 3.46447C19.6569 2 17.7712 2 14 2H10C6.22876 2 4.34315 2 3.17157 3.46447Z" fill="black"/>
<path fill-rule="evenodd" clip-rule="evenodd" d="M8.25 12C8.25 9.92893 9.92893 8.25 12 8.25C14.0711 8.25 15.75 9.92893 15.75 12C15.75 14.0711 14.0711 15.75 12 15.75C9.92893 15.75 8.25 14.0711 8.25 12ZM12 9.75C10.7574 9.75 9.75 10.7574 9.75 12C9.75 13.2426 10.7574 14.25 12 14.25C13.2426 14.25 14.25 13.2426 14.25 12C14.25 10.7574 13.2426 9.75 12 9.75Z" fill="black"/>
<path fill-rule="evenodd" clip-rule="evenodd" d="M19.25 11.5C19.6642 11.5 20 11.8358 20 12.25C20 13.4926 21.0074 14.5 22.25 14.5C22.6642 14.5 23 14.8358 23 15.25C23 15.6642 22.6642 16 22.25 16C21.4058 16 20.6267 15.721 20 15.2503V20.25C20 21.7688 18.7688 23 17.25 23C15.7312 23 14.5 21.7688 14.5 20.25C14.5 18.7312 15.7312 17.5 17.25 17.5C17.7001 17.5 18.125 17.6081 18.5 17.7999V12.25C18.5 11.8358 18.8358 11.5 19.25 11.5ZM18.5 20.25C18.5 19.5596 17.9404 19 17.25 19C16.5596 19 16 19.5596 16 20.25C16 20.9404 16.5596 21.5 17.25 21.5C17.9404 21.5 18.5 20.9404 18.5 20.25Z" fill="black"/>
</svg>
