<svg width="24" height="24" viewBox="0 0 24 24" fill="none" xmlns="http://www.w3.org/2000/svg">
<path fill-rule="evenodd" clip-rule="evenodd" d="M16 6H13.4163H10.5837H8C5.17157 6 3.75736 6 2.87868 6.87868C2 7.75736 2 9.17157 2 12V16C2 18.8284 2 20.2426 2.87868 21.1213C3.75736 22 5.17157 22 8 22L16 22V6Z" fill="black"/>
<path opacity="0.5" d="M22 11.9998V15.9998C22 18.8282 22 20.2424 21.1213 21.1211C20.296 21.9464 18.9983 21.9966 16.5 21.9996H16V6H16.5C18.9983 6.00305 20.296 6.05318 21.1213 6.87848C22 7.75716 22 9.17138 22 11.9998Z" fill="black"/>
<path opacity="0.5" d="M13.4163 6.00011L15.5695 3.48811C15.839 3.17361 15.8026 2.70014 15.4881 2.43057C15.1736 2.161 14.7001 2.19743 14.4306 2.51192L12 5.34757L9.56946 2.51192C9.29989 2.19743 8.82641 2.16101 8.51192 2.43057C8.19743 2.70014 8.161 3.17361 8.43057 3.48811L10.5837 6.00011H13.4163Z" fill="black"/>
<path d="M19 11C19.5523 11 20 11.4477 20 12C20 12.5523 19.5523 13 19 13C18.4477 13 18 12.5523 18 12C18 11.4477 18.4477 11 19 11Z" fill="black"/>
<path d="M19 15C19.5523 15 20 15.4477 20 16C20 16.5523 19.5523 17 19 17C18.4477 17 18 16.5523 18 16C18 15.4477 18.4477 15 19 15Z" fill="black"/>
</svg>
