<svg width="24" height="24" viewBox="0 0 24 24" fill="none" xmlns="http://www.w3.org/2000/svg">
<path d="M8.50573 10.7144C8.50573 9.79392 9.2609 9.04772 10.1924 9.04772C11.124 9.04772 11.8792 9.79392 11.8792 10.7144C11.8792 11.6349 11.124 12.3811 10.1924 12.3811C9.2609 12.3811 8.50573 11.6349 8.50573 10.7144Z" fill="black"/>
<path fill-rule="evenodd" clip-rule="evenodd" d="M2 10.7143C2 8.02057 2 6.67369 2.84691 5.83684C3.69381 5 5.05688 5 7.78303 5H12.6022C15.3284 5 16.6914 5 17.5384 5.83684C18.3853 6.67369 18.3853 8.02057 18.3853 10.7143C18.3853 13.4081 18.3853 14.755 17.5384 15.5918C16.6914 16.4287 15.3284 16.4287 12.6022 16.4287H7.78303C5.05688 16.4287 3.69381 16.4287 2.84691 15.5918C2 14.755 2 13.4081 2 10.7143ZM7.05997 10.7144C7.05997 9.00494 8.46243 7.61914 10.1924 7.61914C11.9225 7.61914 13.3249 9.00494 13.3249 10.7144C13.3249 12.4239 11.9225 13.8097 10.1924 13.8097C8.46243 13.8097 7.05997 12.4239 7.05997 10.7144ZM4.16846 12.6192C4.16846 13.0137 4.4921 13.3335 4.89134 13.3335C5.29057 13.3335 5.61422 13.0137 5.61422 12.6192L5.61421 8.80963C5.61421 8.41513 5.29057 8.09534 4.89134 8.09534C4.4921 8.09534 4.16846 8.41513 4.16846 8.80963L4.16846 12.6192ZM15.4936 13.3335C15.0943 13.3335 14.7707 13.0137 14.7707 12.6192V8.80963C14.7707 8.41513 15.0943 8.09534 15.4936 8.09534C15.8928 8.09534 16.2164 8.41513 16.2164 8.80963V12.6192C16.2164 13.0137 15.8928 13.3335 15.4936 13.3335Z" fill="black"/>
<path opacity="0.5" d="M4.06519 16.225C4.07822 16.3759 4.09388 16.5205 4.1127 16.6587C4.22934 17.516 4.47887 18.2378 5.05902 18.811C5.14161 18.8926 5.22725 18.9676 5.3159 19.0366C5.88128 19.5505 6.5817 19.7785 7.40583 19.888C8.24145 19.999 9.30391 19.999 10.622 19.999H15.547C16.8651 19.999 17.9276 19.999 18.7632 19.888C19.6308 19.7727 20.3613 19.5262 20.9414 18.9529C21.5216 18.3796 21.7711 17.6579 21.8877 16.8006C22.0001 15.9749 22.0001 14.9251 22 13.6226V13.5181C22.0001 12.2156 22.0001 11.1658 21.8877 10.3401C21.7711 9.48282 21.5216 8.76103 20.9414 8.18777C20.8588 8.10616 20.7732 8.03117 20.6845 7.96223C20.1192 7.44827 19.4187 7.22028 18.5946 7.1108C18.4638 7.09342 18.3275 7.07877 18.1854 7.06641C18.3852 7.8998 18.3852 9.04993 18.3852 10.7142C18.3852 13.4079 18.3852 14.7548 17.5382 15.5916C16.6913 16.4285 15.3283 16.4285 12.6021 16.4285H7.78293C6.08123 16.4285 4.91064 16.4285 4.06519 16.225Z" fill="black"/>
</svg>
