<svg width="24" height="24" viewBox="0 0 24 24" fill="none" xmlns="http://www.w3.org/2000/svg">
<path opacity="0.5" d="M14 20H10C6.22876 20 4.34315 20 3.17157 18.8284C2 17.6569 2 15.7712 2 12C2 11.5581 2.00188 10.392 2.00377 10H22C22.0019 10.392 22 11.5581 22 12C22 12.6595 22 13.2613 21.9937 13.8118L20.591 12.409C19.7123 11.5303 18.2877 11.5303 17.409 12.409L15.409 14.409C14.5303 15.2877 14.5303 16.7123 15.409 17.591C15.7847 17.9666 16.2601 18.1817 16.75 18.2362V19.9743C15.964 20 15.0559 20 14 20Z" fill="black"/>
<path fill-rule="evenodd" clip-rule="evenodd" d="M18.4697 13.4697C18.7626 13.1768 19.2374 13.1768 19.5303 13.4697L21.5303 15.4697C21.8232 15.7626 21.8232 16.2374 21.5303 16.5303C21.2374 16.8232 20.7626 16.8232 20.4697 16.5303L19.75 15.8107V20C19.75 20.4142 19.4142 20.75 19 20.75C18.5858 20.75 18.25 20.4142 18.25 20V15.8107L17.5303 16.5303C17.2374 16.8232 16.7626 16.8232 16.4697 16.5303C16.1768 16.2374 16.1768 15.7626 16.4697 15.4697L18.4697 13.4697Z" fill="black"/>
<path d="M12.5 15.25C12.0858 15.25 11.75 15.5858 11.75 16C11.75 16.4142 12.0858 16.75 12.5 16.75H14C14.4142 16.75 14.75 16.4142 14.75 16C14.75 15.5858 14.4142 15.25 14 15.25H12.5Z" fill="black"/>
<path d="M6 15.25C5.58579 15.25 5.25 15.5858 5.25 16C5.25 16.4142 5.58579 16.75 6 16.75H10C10.4142 16.75 10.75 16.4142 10.75 16C10.75 15.5858 10.4142 15.25 10 15.25H6Z" fill="black"/>
<path d="M9.99484 4H14.0052C17.7861 4 19.6766 4 20.8512 5.11578C21.6969 5.91916 21.9337 7.07507 22 9V10H2V9C2.0663 7.07507 2.3031 5.91916 3.14881 5.11578C4.3234 4 6.21388 4 9.99484 4Z" fill="black"/>
</svg>
