<svg width="24" height="24" viewBox="0 0 24 24" fill="none" xmlns="http://www.w3.org/2000/svg">
<path d="M12.75 8.83697V9.87803C13.6239 10.1869 14.25 11.0203 14.25 12C14.25 12.0492 14.2484 12.0979 14.2453 12.1463L15.2025 12.5565C15.2337 12.3757 15.25 12.1898 15.25 12C15.25 10.4632 14.1833 9.17555 12.75 8.83697Z" fill="black"/>
<path d="M11.25 8.83697C9.81665 9.17555 8.75 10.4632 8.75 12C8.75 12.1898 8.76626 12.3757 8.79747 12.5565L9.75468 12.1463C9.75158 12.0979 9.75 12.0492 9.75 12C9.75 11.0203 10.3761 10.1869 11.25 9.87803V8.83697Z" fill="black"/>
<path d="M14.6113 13.9351L13.6544 13.525C13.2432 13.9708 12.6542 14.25 12 14.25C11.3458 14.25 10.7568 13.9708 10.3456 13.525L9.38865 13.9351C9.98087 14.733 10.9301 15.25 12 15.25C13.0699 15.25 14.0191 14.733 14.6113 13.9351Z" fill="black"/>
<path fill-rule="evenodd" clip-rule="evenodd" d="M13.0549 4.25H10.9451C9.57755 4.24998 8.47521 4.24996 7.60825 4.36652C6.70814 4.48754 5.95027 4.74643 5.34835 5.34835C5.07033 5.62637 4.8655 5.93766 4.71362 6.28086C4.64592 6.26078 4.57422 6.25 4.5 6.25C4.08579 6.25 3.75 6.58579 3.75 7V10C3.75 10.3266 3.95871 10.6044 4.25002 10.7073V13.2927C3.95871 13.3956 3.75 13.6734 3.75 14V17C3.75 17.4142 4.08579 17.75 4.5 17.75C4.57422 17.75 4.64592 17.7392 4.71362 17.7191C4.8655 18.0623 5.07033 18.3736 5.34835 18.6517C5.95027 19.2536 6.70814 19.5125 7.60825 19.6335C8.47522 19.75 9.57754 19.75 10.9451 19.75H13.0549C14.4225 19.75 15.5248 19.75 16.3918 19.6335C17.2919 19.5125 18.0497 19.2536 18.6516 18.6517C19.2536 18.0497 19.5125 17.2919 19.6335 16.3918C19.75 15.5248 19.75 14.4225 19.75 13.0549V10.9451C19.75 9.57754 19.75 8.47522 19.6335 7.60825C19.5125 6.70814 19.2536 5.95027 18.6516 5.34835C18.0497 4.74643 17.2919 4.48754 16.3918 4.36652C15.5248 4.24996 14.4225 4.24998 13.0549 4.25ZM7.25 12C7.25 9.37665 9.37665 7.25 12 7.25C14.6234 7.25 16.75 9.37665 16.75 12C16.75 14.6234 14.6234 16.75 12 16.75C9.37665 16.75 7.25 14.6234 7.25 12Z" fill="black"/>
<path opacity="0.5" fill-rule="evenodd" clip-rule="evenodd" d="M3.46447 3.46447C2 4.92893 2 7.28595 2 12C2 16.714 2 19.0711 3.46447 20.5355C4.92893 22 7.28595 22 12 22C16.714 22 19.0711 22 20.5355 20.5355C22 19.0711 22 16.714 22 12C22 7.28595 22 4.92893 20.5355 3.46447C19.0711 2 16.714 2 12 2C7.28595 2 4.92893 2 3.46447 3.46447ZM10.9451 4.25H13.0549C14.4225 4.24998 15.5248 4.24996 16.3918 4.36652C17.2919 4.48754 18.0497 4.74643 18.6516 5.34835C19.2536 5.95027 19.5125 6.70814 19.6335 7.60825C19.75 8.47522 19.75 9.57754 19.75 10.9451V13.0549C19.75 14.4225 19.75 15.5248 19.6335 16.3918C19.5125 17.2919 19.2536 18.0497 18.6516 18.6517C18.0497 19.2536 17.2919 19.5125 16.3918 19.6335C15.5248 19.75 14.4225 19.75 13.0549 19.75H10.9451C9.57754 19.75 8.47522 19.75 7.60825 19.6335C6.70814 19.5125 5.95027 19.2536 5.34835 18.6517C5.07033 18.3736 4.8655 18.0623 4.71362 17.7191C4.64592 17.7392 4.57422 17.75 4.5 17.75C4.08579 17.75 3.75 17.4142 3.75 17V14C3.75 13.6734 3.95871 13.3956 4.25002 13.2927V10.7073C3.95871 10.6044 3.75 10.3266 3.75 10V7C3.75 6.58579 4.08579 6.25 4.5 6.25C4.57422 6.25 4.64592 6.26078 4.71362 6.28086C4.8655 5.93766 5.07033 5.62637 5.34835 5.34835C5.95027 4.74643 6.70814 4.48754 7.60825 4.36652C8.47521 4.24996 9.57755 4.24998 10.9451 4.25Z" fill="black"/>
</svg>
