<svg width="24" height="24" viewBox="0 0 24 24" fill="none" xmlns="http://www.w3.org/2000/svg">
<path opacity="0.5" d="M14.0037 4H9.9963C6.21809 4 4.32899 4 3.15525 5.17157C2.27661 6.04858 2.0557 7.32572 2.00016 9.49444C1.99304 9.77248 2.22121 9.99467 2.49076 10.0652C3.35074 10.2901 3.98521 11.0711 3.98521 12C3.98521 12.9289 3.35074 13.7099 2.49076 13.9348C2.22121 14.0053 1.99304 14.2275 2.00016 14.5056C2.0557 16.6743 2.27661 17.9514 3.15525 18.8284C4.32899 20 6.21809 20 9.9963 20H14.0037C17.7819 20 19.671 20 20.8448 18.8284C21.7234 17.9514 21.9443 16.6743 21.9998 14.5056C22.007 14.2275 21.7788 14.0053 21.5092 13.9348C20.6493 13.7099 20.0148 12.9289 20.0148 12C20.0148 11.0711 20.6493 10.2901 21.5092 10.0652C21.7788 9.99467 22.007 9.77248 21.9998 9.49444C21.9443 7.32572 21.7234 6.04858 20.8448 5.17157C19.671 4 17.7819 4 14.0037 4Z" fill="black"/>
<path d="M12.9543 10.1989L12.8558 10.0225C12.4751 9.34084 12.2848 9 12.0002 9C11.7156 9 11.5252 9.34084 11.1445 10.0225L11.1445 10.0225L11.0461 10.1989C10.9379 10.3926 10.8838 10.4894 10.7994 10.5533C10.7151 10.6172 10.6101 10.641 10.4 10.6884L10.2087 10.7316C9.46946 10.8986 9.09983 10.982 9.01189 11.2643C8.92395 11.5466 9.17594 11.8407 9.67992 12.429L9.81031 12.5812C9.95353 12.7483 10.0251 12.8319 10.0573 12.9353C10.0896 13.0387 10.0787 13.1502 10.0571 13.3733L10.0374 13.5763C9.96118 14.3612 9.92308 14.7536 10.1533 14.9281C10.3835 15.1025 10.7296 14.9435 11.4218 14.6254L11.6009 14.5431C11.7976 14.4527 11.8959 14.4075 12.0002 14.4075C12.1044 14.4075 12.2028 14.4527 12.3995 14.5431L12.5785 14.6254L12.5785 14.6254C13.2707 14.9435 13.6168 15.1025 13.847 14.9281C14.0773 14.7536 14.0392 14.3612 13.963 13.5763V13.5763L13.9433 13.3733V13.3733C13.9216 13.1502 13.9108 13.0387 13.943 12.9353C13.9752 12.8319 14.0468 12.7483 14.19 12.5812L14.3204 12.429C14.8244 11.8407 15.0764 11.5466 14.9885 11.2643C14.9005 10.982 14.5309 10.8986 13.7916 10.7316L13.6004 10.6884C13.3903 10.641 13.2852 10.6172 13.2009 10.5533C13.1166 10.4894 13.0625 10.3926 12.9543 10.1989Z" fill="black"/>
</svg>
