<svg width="24" height="24" viewBox="0 0 24 24" fill="none" xmlns="http://www.w3.org/2000/svg">
<path d="M15.5 9L15.5 15C15.5 15.465 15.5 15.6975 15.5511 15.8882C15.6898 16.4059 16.0941 16.8102 16.6118 16.9489C16.8025 17 17.035 17 17.5 17C17.965 17 18.1975 17 18.3882 16.9489C18.9059 16.8102 19.3102 16.4059 19.4489 15.8882C19.5 15.6975 19.5 15.465 19.5 15V9C19.5 8.53501 19.5 8.30252 19.4489 8.11177C19.3102 7.59413 18.9059 7.18981 18.3882 7.05111C18.1975 7 17.965 7 17.5 7C17.035 7 16.8025 7 16.6118 7.05111C16.0941 7.18981 15.6898 7.59413 15.5511 8.11177C15.5 8.30252 15.5 8.53501 15.5 9Z" stroke="black" stroke-width="1.5"/>
<path d="M4.5 9L4.5 15C4.5 15.465 4.5 15.6975 4.55111 15.8882C4.68981 16.4059 5.09413 16.8102 5.61177 16.9489C5.80252 17 6.03501 17 6.5 17C6.96499 17 7.19748 17 7.38823 16.9489C7.90587 16.8102 8.31019 16.4059 8.44889 15.8882C8.5 15.6975 8.5 15.465 8.5 15V9C8.5 8.53501 8.5 8.30252 8.44889 8.11177C8.31019 7.59413 7.90587 7.18981 7.38823 7.05111C7.19748 7 6.96499 7 6.5 7C6.03501 7 5.80252 7 5.61177 7.05111C5.09413 7.18981 4.68981 7.59413 4.55111 8.11177C4.5 8.30252 4.5 8.53501 4.5 9Z" stroke="black" stroke-width="1.5"/>
<path d="M2 12L1.25 12L2 12ZM22 12L21.25 12L22 12ZM11 12.75C11.4142 12.75 11.75 12.4142 11.75 12C11.75 11.5858 11.4142 11.25 11 11.25V12.75ZM14 11.25C13.5858 11.25 13.25 11.5858 13.25 12C13.25 12.4142 13.5858 12.75 14 12.75V11.25ZM4 13.25C3.30964 13.25 2.75 12.6904 2.75 12L1.25 12C1.25 13.5188 2.48122 14.75 4 14.75V13.25ZM20 14.75C21.5188 14.75 22.75 13.5188 22.75 12L21.25 12C21.25 12.6904 20.6904 13.25 20 13.25V14.75ZM20 10.75C20.6904 10.75 21.25 11.3096 21.25 12L22.75 12C22.75 10.4812 21.5188 9.25 20 9.25V10.75ZM4 9.25C2.48122 9.25 1.25 10.4812 1.25 12L2.75 12C2.75 11.3096 3.30964 10.75 4 10.75V9.25ZM4 10.75H5V9.25H4V10.75ZM5 13.25H4V14.75H5V13.25ZM20 13.25H19V14.75H20V13.25ZM19 10.75H20V9.25H19V10.75ZM9 12.75H11V11.25H9V12.75ZM14 12.75H15V11.25H14V12.75Z" fill="black"/>
</svg>
