<svg width="24" height="24" viewBox="0 0 24 24" fill="none" xmlns="http://www.w3.org/2000/svg">
<circle cx="11.5" cy="5.5" r="2.5" stroke="black" stroke-width="1.5"/>
<path d="M9 16.5C9 16.5 8.57441 18.1192 8 19C7.39661 19.9252 6 21 6 21" stroke="black" stroke-width="1.5" stroke-linecap="round"/>
<path d="M10.2099 11.901L10.9561 11.9756L10.9561 11.9756L10.2099 11.901ZM10.1413 12.5871L9.39498 12.5125L9.39498 12.5125L10.1413 12.5871ZM18.5767 9.85275L18.0965 9.27658L18.0965 9.27658L18.5767 9.85275ZM19.4801 10.0762C19.7983 9.81099 19.8413 9.33807 19.5761 9.01986C19.311 8.70165 18.838 8.65866 18.5198 8.92383L19.4801 10.0762ZM11.2041 14.7526L10.8066 15.3886L10.8066 15.3886L11.2041 14.7526ZM11.5374 14.9609L11.9349 14.3249L11.9349 14.3249L11.5374 14.9609ZM14.2573 19.3926L15.0044 19.3261L15.0044 19.3261L14.2573 19.3926ZM13.6533 21.0665C13.69 21.4791 14.0542 21.7838 14.4668 21.747C14.8794 21.7103 15.1841 21.3461 15.1474 20.9335L13.6533 21.0665ZM13 10.5L12.6141 11.1431C12.6306 11.153 12.6474 11.1622 12.6646 11.1708L13 10.5ZM9.46359 11.8264L9.39498 12.5125L10.8875 12.6617L10.9561 11.9756L9.46359 11.8264ZM19.0568 10.4289L19.4801 10.0762L18.5198 8.92383L18.0965 9.27658L19.0568 10.4289ZM10.8066 15.3886L11.1399 15.5969L11.9349 14.3249L11.6016 14.1166L10.8066 15.3886ZM13.5103 19.4591L13.6533 21.0665L15.1474 20.9335L15.0044 19.3261L13.5103 19.4591ZM12.6646 11.1708C14.7535 12.2153 17.2626 11.9241 19.0568 10.4289L18.0965 9.27658C16.7602 10.3902 14.8913 10.6071 13.3354 9.82916L12.6646 11.1708ZM11.1399 15.5969C12.4916 16.4417 13.369 17.8713 13.5103 19.4591L15.0044 19.3261C14.8215 17.2701 13.6852 15.4188 11.9349 14.3249L11.1399 15.5969ZM9.39498 12.5125C9.28007 13.6616 9.82723 14.7765 10.8066 15.3886L11.6016 14.1166C11.1062 13.807 10.8294 13.243 10.8875 12.6617L9.39498 12.5125ZM10.9561 11.9756C11.0363 11.1741 11.9234 10.7287 12.6141 11.1431L13.3858 9.85685C11.7518 8.87643 9.65321 9.9302 9.46359 11.8264L10.9561 11.9756Z" fill="black"/>
<path d="M19 14V7M19 21V18" stroke="black" stroke-width="1.5" stroke-linecap="round"/>
</svg>
