<svg width="24" height="24" viewBox="0 0 24 24" fill="none" xmlns="http://www.w3.org/2000/svg">
<path d="M11.5697 12.5532L12.1617 13.0137L12.1617 13.0137L11.5697 12.5532ZM11.3142 3.64586L12.0065 3.93432L12.0065 3.93432L11.3142 3.64586ZM21.2426 10.7426L21.7773 10.2166L21.773 10.2123L21.2426 10.7426ZM21.4531 12.026C21.7436 12.3213 22.2184 12.3251 22.5137 12.0346C22.809 11.7442 22.8129 11.2693 22.5224 10.974L21.4531 12.026ZM5.7327 19.0428C5.31848 19.0428 4.9827 19.3786 4.9827 19.7928C4.9827 20.207 5.31848 20.5428 5.7327 20.5428V19.0428ZM3.5 15.75C3.08579 15.75 2.75 16.0858 2.75 16.5C2.75 16.9142 3.08579 17.25 3.5 17.25V15.75ZM8.19231 3.35575C8.35162 2.9734 8.17081 2.5343 7.78846 2.37498C7.40611 2.21567 6.96701 2.39648 6.80769 2.77883L8.19231 3.35575ZM19.876 16.916C20.1057 17.2607 20.5714 17.3538 20.916 17.124C21.2607 16.8943 21.3538 16.4286 21.124 16.084L19.876 16.916ZM5.85306 12.1446C5.93291 12.551 6.32712 12.8158 6.73357 12.7359C7.14001 12.6561 7.40477 12.2619 7.32492 11.8554L5.85306 12.1446ZM15.4334 17.3225C15.7715 17.0831 15.8515 16.615 15.6121 16.277C15.3727 15.9389 14.9046 15.8589 14.5666 16.0983L15.4334 17.3225ZM14.1553 6.08027C13.7501 5.99448 13.3521 6.25343 13.2663 6.65867C13.1805 7.0639 13.4394 7.46195 13.8447 7.54774L14.1553 6.08027ZM12 12.75H12.0917V11.25H12V12.75ZM11.408 11.5395L10.9777 12.0928L12.1617 13.0137L12.592 12.4605L11.408 11.5395ZM11.3077 1.71154L10.6219 3.35739L12.0065 3.93432L12.6923 2.28846L11.3077 1.71154ZM20.708 11.2686L21.4531 12.026L22.5224 10.974L21.7773 10.2167L20.708 11.2686ZM10.6219 3.35739C9.39039 6.31308 9.66695 9.68222 11.364 12.3975L12.636 11.6025C11.1965 9.29929 10.9619 6.44145 12.0065 3.93432L10.6219 3.35739ZM10.9777 12.0928C9.18293 14.4003 6.42334 15.75 3.5 15.75V17.25C6.88622 17.25 10.0828 15.6866 12.1617 13.0137L10.9777 12.0928ZM12.0917 12.75C15.2197 12.75 18.1408 14.3133 19.876 16.916L21.124 16.084C19.1107 13.064 15.7213 11.25 12.0917 11.25V12.75ZM6.80769 2.77883C5.55819 5.77764 5.23917 9.01983 5.85306 12.1446L7.32492 11.8554C6.76831 9.0222 7.05663 6.08137 8.19231 3.35575L6.80769 2.77883ZM14.5666 16.0983C11.9692 17.9377 8.82244 19.0428 5.7327 19.0428V20.5428C9.1695 20.5428 12.6141 19.319 15.4334 17.3225L14.5666 16.0983ZM13.8447 7.54774C16.4265 8.09437 18.8177 9.37835 20.7123 11.273L21.773 10.2123C19.6714 8.11074 17.0191 6.68657 14.1553 6.08027L13.8447 7.54774Z" fill="black"/>
<path d="M3.33874 6.99854C4.18713 5.52625 5.42255 4.25067 6.99996 3.33995C11.7829 0.578527 17.8988 2.21728 20.6602 7.00021C23.4216 11.7831 21.7829 17.899 17 20.6605C12.217 23.4219 6.10113 21.7831 3.33971 17.0002C2.42899 15.4228 1.99687 13.7004 1.99829 12.0012" stroke="black" stroke-width="1.5" stroke-linecap="round"/>
</svg>
