<svg width="24" height="24" viewBox="0 0 24 24" fill="none" xmlns="http://www.w3.org/2000/svg">
<path d="M22 16.7723C20.4123 16.3982 19.5955 15.4791 18.9199 14.4569C18.4965 13.8163 17.5655 13.8553 17.1055 14.4701C16.0541 15.8757 14.4844 16.9999 12 16.9999C9.49345 16.9999 7.91806 15.5695 6.86651 14.2234C6.42721 13.6611 5.58617 13.6686 5.20168 14.2697C4.50078 15.3655 3.68402 16.3755 2 16.7723" stroke="black" stroke-width="1.5" stroke-linecap="round" stroke-linejoin="round"/>
<path d="M17.9171 11C17.441 8.16229 14.973 6 12 6C9.02705 6 6.55909 8.16229 6.08301 11" stroke="black" stroke-width="1.5" stroke-linecap="round"/>
<path d="M12 2V3" stroke="black" stroke-width="1.5" stroke-linecap="round"/>
<path d="M22 12L21 12" stroke="black" stroke-width="1.5" stroke-linecap="round"/>
<path d="M3 12L2 12" stroke="black" stroke-width="1.5" stroke-linecap="round"/>
<path d="M19.0703 4.9292L18.6775 5.32204" stroke="black" stroke-width="1.5" stroke-linecap="round"/>
<path d="M5.32227 5.32178L4.92943 4.92894" stroke="black" stroke-width="1.5" stroke-linecap="round"/>
<path d="M12 22C9.49345 22 7.91806 20.6547 6.86651 19.3888C6.42721 18.8599 5.58617 18.867 5.20168 19.4323C4.50078 20.4629 3.68402 21.4127 2 21.7859M22 21.7859C20.4123 21.4341 19.5955 20.5697 18.9199 19.6083C18.4965 19.0059 17.5655 19.0425 17.1055 19.6208C16.6953 20.1365 16.2063 20.6119 15.6148 21" stroke="black" stroke-width="1.5" stroke-linecap="round" stroke-linejoin="round"/>
</svg>
