<svg width="24" height="24" viewBox="0 0 24 24" fill="none" xmlns="http://www.w3.org/2000/svg">
<path opacity="0.5" d="M4.72848 16.1369C3.18295 14.5914 2.41018 13.8186 2.12264 12.816C1.83509 11.8134 2.08083 10.7485 2.57231 8.61875L2.85574 7.39057C3.26922 5.59881 3.47597 4.70292 4.08944 4.08944C4.70292 3.47597 5.5988 3.26922 7.39057 2.85574L8.61875 2.57231C10.7485 2.08083 11.8134 1.83509 12.816 2.12264C13.8186 2.41018 14.5914 3.18295 16.1369 4.72848L17.9665 6.55812C20.6555 9.24711 22 10.5916 22 12.2623C22 13.933 20.6555 15.2775 17.9665 17.9665C15.2775 20.6555 13.933 22 12.2623 22C10.5916 22 9.24711 20.6555 6.55812 17.9665L4.72848 16.1369Z" stroke="black" stroke-width="1.5"/>
<path d="M15.3893 15.3891C15.9751 14.8033 16.0542 13.9327 15.5661 13.4445C15.0779 12.9564 14.2073 13.0355 13.6215 13.6213C13.0358 14.2071 12.1652 14.2863 11.677 13.7981C11.1888 13.3099 11.268 12.4393 11.8538 11.8536M15.3893 15.3891L15.7429 15.7426M15.3893 15.3891C14.9883 15.7901 14.4539 15.9537 14 15.8604M11.5002 11.5L11.8538 11.8536M11.8538 11.8536C12.185 11.5223 12.6073 11.3531 13 11.3568" stroke="black" stroke-width="1.5" stroke-linecap="round"/>
<circle cx="8.60699" cy="8.87891" r="2" transform="rotate(-45 8.60699 8.87891)" stroke="black" stroke-width="1.5"/>
</svg>
