<svg width="24" height="24" viewBox="0 0 24 24" fill="none" xmlns="http://www.w3.org/2000/svg">
<path fill-rule="evenodd" clip-rule="evenodd" d="M8.48505 2.74998C7.51304 2.75147 6.52866 2.99987 5.62555 3.52128C4.786 4.00599 4.11497 4.67048 3.63299 5.43804C3.67009 5.46263 3.71048 5.48999 3.75389 5.52021C3.98365 5.68014 4.2988 5.92048 4.66101 6.25341C5.38583 6.91963 6.29906 7.95663 7.09167 9.45942C7.64104 10.501 7.98307 11.4831 8.19543 12.3238C8.5796 11.4173 9.11003 10.5622 9.83612 9.83611C10.1426 9.52962 10.4721 9.258 10.8187 9.01752C10.5091 8.58522 10.2005 8.09447 9.90833 7.54056C9.11622 6.03873 8.75515 4.66054 8.59234 3.6518C8.53634 3.30481 8.50369 3.00094 8.48505 2.74998ZM10.0102 2.95294C10.0259 3.09286 10.0464 3.24666 10.0732 3.41279C10.2149 4.2907 10.5321 5.50786 11.2351 6.84078C11.5252 7.39079 11.832 7.86761 12.1354 8.2777C12.7968 7.97992 13.489 7.76316 14.181 7.60775C14.0746 6.92897 13.8436 6.2576 13.4787 5.62553C12.6893 4.25818 11.4234 3.33756 10.0102 2.95294ZM15.6606 7.36056C15.5251 6.5082 15.2342 5.66616 14.7777 4.87553C13.5917 2.82126 11.5513 1.56749 9.36738 1.30277C7.86308 1.12043 6.28805 1.40673 4.87555 2.22224C1.40844 4.22398 0.220526 8.65734 2.22226 12.1244C3.359 14.0933 5.28009 15.3266 7.36075 15.659C7.34965 15.7559 7.33951 15.8523 7.33028 15.9482C7.21261 17.1713 7.23968 18.3428 7.31326 19.3052C7.4528 21.1301 8.8699 22.5472 10.6948 22.6867C11.6572 22.7603 12.8286 22.7874 14.0518 22.6697C16.1428 22.4685 18.4943 21.8335 20.1639 20.1639C21.8335 18.4943 22.4686 16.1428 22.6697 14.0518C22.7874 12.8286 22.7603 11.6572 22.6867 10.6948C22.5472 8.86988 21.1301 7.45278 19.3052 7.31325C18.3428 7.23967 17.1714 7.2126 15.9482 7.33027C15.8529 7.33944 15.7569 7.34952 15.6606 7.36056ZM6.98977 14.0471C5.57669 13.6625 4.31067 12.7417 3.5213 11.3744C2.69257 9.93905 2.5532 8.29483 3.00045 6.82513C3.17104 6.94962 3.39282 7.12512 3.64593 7.35777C4.26147 7.92354 5.06239 8.82723 5.7649 10.1592C6.46793 11.4921 6.78514 12.7093 6.92683 13.5872C6.95365 13.7533 6.97414 13.9071 6.98977 14.0471ZM17.754 8.75014L21.2499 12.246C21.2478 11.7354 21.2249 11.2508 21.1911 10.8092C21.108 9.72245 20.2775 8.89197 19.1908 8.80888C18.7492 8.77512 18.2645 8.75218 17.754 8.75014ZM21.1389 14.2563L15.7437 8.86112C13.9169 9.08189 12.1293 9.6643 10.8968 10.8968C9.66431 12.1292 9.0819 13.9169 8.86113 15.7437L14.2563 21.1389C16.0831 20.9181 17.8708 20.3357 19.1032 19.1032C20.3357 17.8707 20.9181 16.0831 21.1389 14.2563ZM12.246 21.2498L8.75015 17.754C8.75219 18.2645 8.77513 18.7492 8.8089 19.1908C8.89199 20.2775 9.72247 21.108 10.8092 21.1911C11.2508 21.2249 11.7355 21.2478 12.246 21.2498ZM14.9697 11.9697C15.2626 11.6768 15.7374 11.6768 16.0303 11.9697L16.5 12.4393L16.9697 11.9697C17.2626 11.6768 17.7374 11.6768 18.0303 11.9697C18.3232 12.2626 18.3232 12.7374 18.0303 13.0303L17.5607 13.5L18.0303 13.9697C18.3232 14.2626 18.3232 14.7374 18.0303 15.0303C17.7374 15.3232 17.2626 15.3232 16.9697 15.0303L16.5 14.5606L16.0607 15L16.5303 15.4697C16.8232 15.7626 16.8232 16.2374 16.5303 16.5303C16.2374 16.8232 15.7626 16.8232 15.4697 16.5303L15 16.0606L14.5607 16.5L15.0303 16.9697C15.3232 17.2626 15.3232 17.7374 15.0303 18.0303C14.7374 18.3232 14.2626 18.3232 13.9697 18.0303L13.5 17.5606L13.0303 18.0303C12.7374 18.3232 12.2626 18.3232 11.9697 18.0303C11.6768 17.7374 11.6768 17.2626 11.9697 16.9697L12.4393 16.5L11.9697 16.0303C11.6768 15.7374 11.6768 15.2626 11.9697 14.9697C12.2626 14.6768 12.7374 14.6768 13.0303 14.9697L13.5 15.4393L13.9393 15L13.4697 14.5303C13.1768 14.2374 13.1768 13.7626 13.4697 13.4697C13.7626 13.1768 14.2374 13.1768 14.5303 13.4697L15 13.9393L15.4393 13.5L14.9697 13.0303C14.6768 12.7374 14.6768 12.2626 14.9697 11.9697Z" fill="black"/>
</svg>
