<svg width="24" height="24" viewBox="0 0 24 24" fill="none" xmlns="http://www.w3.org/2000/svg">
<path fill-rule="evenodd" clip-rule="evenodd" d="M15 2.75C14.3096 2.75 13.75 3.30964 13.75 4C13.75 4.69036 14.3096 5.25 15 5.25C15.6904 5.25 16.25 4.69036 16.25 4C16.25 3.30964 15.6904 2.75 15 2.75ZM12.25 4C12.25 2.48122 13.4812 1.25 15 1.25C16.5188 1.25 17.75 2.48122 17.75 4C17.75 5.51878 16.5188 6.75 15 6.75C13.4812 6.75 12.25 5.51878 12.25 4ZM12.161 7.11489C12.1727 7.12655 12.1845 7.13825 12.1963 7.14997L12.7736 7.72376C13.6829 8.62742 13.9992 8.92328 14.3794 9.08006C14.7595 9.23683 15.1925 9.25 16.4744 9.25H18.5C18.9142 9.25 19.25 9.58579 19.25 10C19.25 10.4142 18.9142 10.75 18.5 10.75H16.4744C16.4265 10.75 16.3792 10.75 16.3324 10.75C15.2493 10.7506 14.4965 10.7509 13.8075 10.4668C13.1185 10.1826 12.5848 9.65173 11.8169 8.8878C11.7838 8.85487 11.7502 8.8215 11.7162 8.78769L11.1389 8.21391C10.7302 7.80771 10.4796 7.56126 10.2782 7.41096C10.1848 7.34129 10.1308 7.31506 10.1052 7.30549C10.0999 7.3035 10.0961 7.30237 10.0938 7.30175C10.0917 7.30278 10.0882 7.30456 10.0833 7.30748C10.0599 7.32153 10.0115 7.35708 9.93226 7.44248C9.76128 7.62672 9.55941 7.9144 9.23085 8.38777L8.00422 10.155C7.66981 10.6368 7.46682 10.9325 7.35203 11.1615C7.29874 11.2678 7.28215 11.3267 7.2772 11.3541C7.27625 11.3594 7.27579 11.3631 7.27558 11.3656C7.27703 11.3675 7.27939 11.3705 7.28298 11.3745C7.30157 11.3952 7.34661 11.4366 7.44777 11.4991C7.66569 11.6338 7.99366 11.7789 8.5312 12.0135L10.0471 12.6749C10.6948 12.9575 11.2408 13.1957 11.6615 13.4422C12.1082 13.7038 12.4856 14.0143 12.739 14.4775C12.9924 14.9407 13.0502 15.4259 13.0295 15.9432C13.0101 16.4304 12.9162 17.0186 12.8048 17.7165L12.7406 18.1182C12.6753 18.5273 12.2908 18.8059 11.8818 18.7406C11.4727 18.6753 11.1941 18.2908 11.2594 17.8818L11.3166 17.5233C11.4368 16.7706 11.5153 16.271 11.5307 15.8835C11.5454 15.516 11.4978 15.334 11.423 15.1973C11.3483 15.0606 11.2206 14.9223 10.9033 14.7364C10.5687 14.5404 10.1056 14.337 9.40701 14.0322L7.88521 13.3682C7.40861 13.1603 6.97956 12.9731 6.65926 12.7752C6.31117 12.5601 5.96957 12.2603 5.83193 11.7749C5.69429 11.2895 5.82771 10.8551 6.01107 10.4893C6.1798 10.1527 6.44675 9.76818 6.74328 9.34105C6.75281 9.32732 6.76237 9.31355 6.77196 9.29973L7.99858 7.53248C8.00807 7.51881 8.01752 7.50519 8.02694 7.49161C8.31791 7.07231 8.58036 6.6941 8.83281 6.42209C9.10761 6.126 9.46229 5.85262 9.95766 5.80748C10.453 5.76234 10.8513 5.96711 11.1751 6.20865C11.4725 6.43055 11.799 6.75509 12.161 7.11489ZM6 15.75C4.75736 15.75 3.75 16.7574 3.75 18C3.75 19.2426 4.75736 20.25 6 20.25C7.24264 20.25 8.25 19.2426 8.25 18C8.25 16.7574 7.24264 15.75 6 15.75ZM2.25 18C2.25 15.9289 3.92893 14.25 6 14.25C8.07107 14.25 9.75 15.9289 9.75 18C9.75 20.0711 8.07107 21.75 6 21.75C3.92893 21.75 2.25 20.0711 2.25 18ZM18 15.75C16.7574 15.75 15.75 16.7574 15.75 18C15.75 19.2426 16.7574 20.25 18 20.25C19.2426 20.25 20.25 19.2426 20.25 18C20.25 16.7574 19.2426 15.75 18 15.75ZM14.25 18C14.25 15.9289 15.9289 14.25 18 14.25C20.0711 14.25 21.75 15.9289 21.75 18C21.75 20.0711 20.0711 21.75 18 21.75C15.9289 21.75 14.25 20.0711 14.25 18Z" fill="black"/>
</svg>
