<svg width="24" height="24" viewBox="0 0 24 24" fill="none" xmlns="http://www.w3.org/2000/svg">
<path fill-rule="evenodd" clip-rule="evenodd" d="M4.92908 1.53064L4.97786 1.53743C5.26591 1.5775 5.52072 1.61295 5.73095 1.65796C5.95496 1.70593 6.18281 1.77509 6.40061 1.90924C6.88292 2.20634 7.22125 2.68679 7.35882 3.233C7.42804 3.50781 7.40909 3.86953 7.38832 4.13989C7.38196 4.22264 7.3742 4.30872 7.36549 4.39669L12.022 5.04466C12.0334 4.9663 12.0452 4.88976 12.0574 4.81614C12.1016 4.55035 12.1697 4.19301 12.3041 3.94272C12.5712 3.44531 13.0208 3.06623 13.5674 2.90828C13.814 2.83701 14.0532 2.83281 14.2809 2.84772C14.495 2.86174 14.7499 2.89722 15.0378 2.9373L15.0866 2.94409C15.3747 2.98416 15.6295 3.01961 15.8397 3.06462C16.0637 3.11259 16.2916 3.18175 16.5094 3.3159C16.9917 3.613 17.33 4.09345 17.4676 4.63966C17.5286 4.88201 17.533 5.11907 17.5196 5.35433C17.5068 5.5782 17.4742 5.8465 17.4364 6.15826L17.0865 9.0431C17.0487 9.3548 17.0162 9.62317 16.9751 9.84324C16.9321 10.0741 16.871 10.304 16.7526 10.5246C16.4855 11.022 16.0359 11.4011 15.4893 11.559C15.2427 11.6303 15.0035 11.6345 14.7758 11.6196C14.5617 11.6056 14.3068 11.5701 14.0189 11.53L13.9701 11.5232C13.682 11.4831 13.4272 11.4477 13.217 11.4027C12.993 11.3547 12.7651 11.2856 12.5473 11.1514C12.065 10.8543 11.7267 10.3739 11.5891 9.82765C11.5199 9.55283 11.5388 9.19112 11.5596 8.92076C11.566 8.83801 11.5737 8.75192 11.5824 8.66396L6.92592 8.01599C6.91452 8.09434 6.90273 8.17088 6.89049 8.24451C6.84629 8.51029 6.7782 8.86764 6.64382 9.11793C6.37677 9.61534 5.92711 9.99442 5.38055 10.1524C5.13391 10.2236 4.89473 10.2278 4.66703 10.2129C4.4529 10.1989 4.19803 10.1634 3.9101 10.1233L3.86133 10.1166C3.57328 10.0765 3.31847 10.041 3.10824 9.99602C2.88423 9.94806 2.65638 9.8789 2.43858 9.74474C1.95627 9.44765 1.61794 8.9672 1.48037 8.42099C1.41933 8.17863 1.41493 7.94158 1.42836 7.70632C1.44114 7.48244 1.47369 7.21413 1.51151 6.90234L1.86139 4.0175C1.89919 3.70581 1.93173 3.43745 1.9728 3.2174C2.01588 2.98656 2.07692 2.75668 2.19537 2.53606C2.46242 2.03865 2.91208 1.65957 3.45864 1.50163C3.70528 1.43035 3.94446 1.42615 4.17215 1.44106C4.38629 1.45509 4.64115 1.49056 4.92908 1.53064ZM4.07413 2.93786C3.92878 2.92834 3.88517 2.93974 3.87506 2.94266C3.73697 2.98257 3.60341 3.08455 3.51695 3.24559C3.50282 3.27189 3.47752 3.33088 3.44734 3.4926C3.41612 3.65985 3.38905 3.88014 3.34776 4.22053L3.00331 7.06062C2.96203 7.40095 2.93565 7.62142 2.92592 7.7918C2.91654 7.95611 2.92672 8.02198 2.93494 8.05463C2.98207 8.24177 3.09286 8.38603 3.22528 8.46759C3.238 8.47543 3.27984 8.49876 3.42232 8.52927C3.57268 8.56147 3.77272 8.58977 4.09239 8.63426C4.41214 8.67875 4.61219 8.70612 4.76506 8.71613C4.91041 8.72565 4.95403 8.71424 4.96413 8.71132C5.10012 8.67203 5.23172 8.57253 5.31827 8.4157C5.31879 8.41353 5.3299 8.38582 5.34688 8.31879C5.36744 8.2376 5.38883 8.1306 5.41081 7.99845C5.45495 7.73302 5.4938 7.41388 5.53448 7.07844C5.55871 6.87871 5.66217 6.69709 5.82161 6.57438C5.98106 6.45167 6.18312 6.39817 6.3824 6.4259L12.5139 7.27912C12.9191 7.3355 13.2044 7.70616 13.1551 8.11227C13.1144 8.44767 13.0759 8.76689 13.0552 9.03566C13.0449 9.16945 13.0401 9.27895 13.0406 9.36342C13.041 9.43774 13.0457 9.46774 13.0454 9.4678C13.0934 9.65178 13.2031 9.79364 13.334 9.87425C13.3467 9.88209 13.3886 9.90542 13.5311 9.93593C13.6814 9.96813 13.8815 9.99643 14.2011 10.0409C14.5209 10.0854 14.7209 10.1128 14.8738 10.1228C15.0192 10.1323 15.0628 10.1209 15.0729 10.118C15.211 10.0781 15.3445 9.9761 15.431 9.81505C15.4451 9.78875 15.4704 9.72976 15.5006 9.56804C15.5318 9.40079 15.5589 9.1805 15.6002 8.84011L15.9446 6.00003C15.9859 5.6597 16.0123 5.43923 16.022 5.26885C16.0314 5.10453 16.0212 5.03867 16.013 5.00602C15.9659 4.81888 15.8551 4.67462 15.7227 4.59305C15.7099 4.58521 15.6681 4.56188 15.5256 4.53137C15.3753 4.49917 15.1752 4.47087 14.8555 4.42639C14.5358 4.38189 14.3357 4.35453 14.1829 4.34452C14.0375 4.335 13.9939 4.3464 13.9838 4.34932C13.8478 4.38862 13.7162 4.48812 13.6297 4.64494C13.6292 4.6471 13.618 4.67481 13.6011 4.74186C13.5805 4.82305 13.5591 4.93004 13.5371 5.06219C13.493 5.32762 13.4541 5.64677 13.4134 5.9822C13.3892 6.18193 13.2858 6.36356 13.1263 6.48627C12.9669 6.60897 12.7648 6.66247 12.5655 6.63474L6.434 5.78152C6.02883 5.72514 5.74357 5.35448 5.79283 4.94838C5.83351 4.61297 5.87208 4.29375 5.89272 4.02499C5.903 3.8912 5.90786 3.78169 5.90734 3.69722C5.90689 3.62324 5.90225 3.59317 5.90258 3.59285C5.85453 3.40887 5.74479 3.26701 5.61391 3.18639C5.60119 3.17856 5.55935 3.15522 5.41687 3.12471C5.26651 3.09252 5.06647 3.06421 4.7468 3.01973C4.42705 2.97524 4.227 2.94787 4.07413 2.93786ZM19.1975 12.2465C19.0469 12.2781 18.8517 12.3337 18.5403 12.423C18.2291 12.5124 18.0339 12.5689 17.8884 12.6222C17.7506 12.6728 17.7101 12.7025 17.6962 12.714C17.5717 12.8163 17.4787 12.9773 17.4535 13.1689C17.4539 13.1689 17.4529 13.1993 17.4617 13.2733C17.4716 13.357 17.4899 13.4647 17.5166 13.5958C17.5702 13.8591 17.6478 14.1699 17.7295 14.4966C17.8276 14.8887 17.5974 15.288 17.2089 15.3996L11.2365 17.1137C11.041 17.1698 10.8311 17.1441 10.6549 17.0425C10.4787 16.9409 10.3514 16.7721 10.302 16.5748C10.2203 16.248 10.1424 15.9374 10.0659 15.6807C10.0279 15.5529 9.99355 15.4502 9.96331 15.3731C9.9395 15.3123 9.92555 15.2866 9.92409 15.2834C9.82228 15.1454 9.68466 15.0681 9.54852 15.0489C9.53916 15.0476 9.4947 15.0423 9.35112 15.0725C9.20056 15.1041 9.00535 15.1597 8.69398 15.249C8.38275 15.3384 8.18758 15.3949 8.04209 15.4482C7.90426 15.4988 7.86376 15.5285 7.84981 15.54C7.72395 15.6434 7.63027 15.8069 7.60638 16.0012C7.60217 16.0355 7.60032 16.1024 7.62981 16.2634C7.66044 16.4307 7.71374 16.6453 7.79669 16.9768L8.48871 19.7432C8.57168 20.0749 8.62564 20.2891 8.67711 20.4501C8.72692 20.6059 8.75879 20.6592 8.77454 20.6812C8.87686 20.824 9.01705 20.9037 9.15568 20.9233C9.16504 20.9246 9.2095 20.9299 9.35308 20.8997C9.50365 20.8681 9.69886 20.8125 10.0102 20.7232C10.3214 20.6338 10.5166 20.5773 10.6621 20.524C10.7999 20.4734 10.8405 20.4437 10.8544 20.4322C10.9789 20.3299 11.0719 20.1689 11.097 19.9773C11.0966 19.9773 11.0976 19.9469 11.0889 19.8729C11.0789 19.7892 11.0606 19.6815 11.034 19.5504C10.9803 19.2871 10.9028 18.9763 10.821 18.6496C10.7229 18.2575 10.9532 17.8582 11.3417 17.7467L17.3141 16.0325C17.5096 15.9764 17.7195 16.0021 17.8956 16.1037C18.0718 16.2053 18.1992 16.3741 18.2486 16.5714C18.3303 16.8982 18.4082 17.2089 18.4846 17.4655C18.5227 17.5933 18.557 17.696 18.5872 17.7731C18.611 17.8339 18.625 17.8596 18.6265 17.8628C18.7283 18.0008 18.8659 18.0781 19.002 18.0973C19.0114 18.0986 19.0559 18.1039 19.1994 18.0737C19.35 18.0421 19.5452 17.9865 19.8566 17.8972C20.1678 17.8078 20.363 17.7514 20.5085 17.698C20.6463 17.6474 20.6868 17.6177 20.7007 17.6062C20.8266 17.5028 20.9203 17.3394 20.9442 17.145C20.9484 17.1107 20.9502 17.0438 20.9207 16.8828C20.8901 16.7155 20.8368 16.5009 20.7539 16.1694L20.0618 13.403C19.9789 13.0713 19.9249 12.8571 19.8734 12.6961C19.8236 12.5403 19.7918 12.487 19.776 12.4651C19.6737 12.3222 19.5335 12.2425 19.3949 12.223C19.3855 12.2216 19.341 12.2163 19.1975 12.2465ZM18.8891 10.7785C19.1123 10.7317 19.35 10.7018 19.6043 10.7376C20.1687 10.8172 20.666 11.1318 20.9954 11.5915C21.1415 11.7955 21.2309 12.0164 21.3022 12.2393C21.3702 12.4519 21.4356 12.7135 21.5115 13.0169L22.2145 15.8272C22.2905 16.1308 22.3559 16.3923 22.3962 16.6126C22.4387 16.8444 22.4635 17.0799 22.433 17.328C22.3643 17.8867 22.0899 18.4061 21.6532 18.765C21.4562 18.927 21.2408 19.0271 21.025 19.1062C20.8225 19.1805 20.5746 19.2516 20.2938 19.3322L20.2467 19.3458C19.9661 19.4263 19.7181 19.4975 19.5078 19.5417C19.2846 19.5886 19.0469 19.6184 18.7926 19.5826C18.2282 19.503 17.7309 19.1885 17.4015 18.7287C17.2356 18.4971 17.1234 18.1502 17.047 17.8937C17.0272 17.827 17.0074 17.7577 16.9877 17.6868L12.4472 18.9899C12.4676 19.0793 12.4867 19.1669 12.5038 19.2512C12.5579 19.5167 12.6212 19.8725 12.5866 20.154C12.5179 20.7127 12.2436 21.2321 11.8068 21.591C11.6098 21.753 11.3944 21.8531 11.1787 21.9322C10.9762 22.0065 10.7283 22.0776 10.4476 22.1582L10.4003 22.1718C10.1198 22.2523 9.87177 22.3235 9.66148 22.3677C9.4383 22.4145 9.20051 22.4444 8.94623 22.4086C8.38181 22.329 7.8845 22.0145 7.55514 21.5547C7.40901 21.3507 7.31962 21.1298 7.24835 20.9069C7.18039 20.6943 7.11495 20.4327 7.03906 20.1293L6.33606 17.319C6.2601 17.0154 6.19467 16.7539 6.15434 16.5336C6.11189 16.3018 6.0871 16.0663 6.11759 15.8182C6.18626 15.2595 6.46064 14.7401 6.89737 14.3812C7.09439 14.2192 7.30979 14.1191 7.52554 14.04C7.72802 13.9657 7.97595 13.8946 8.25676 13.814L8.30381 13.8005C8.5844 13.7199 8.83243 13.6487 9.04273 13.6045C9.26591 13.5577 9.50369 13.5278 9.75797 13.5636C10.3224 13.6432 10.8197 13.9577 11.1491 14.4175C11.315 14.6492 11.4271 14.996 11.5035 15.2525C11.5234 15.3192 11.5432 15.3885 11.5628 15.4595L16.1033 14.1563C16.083 14.0669 16.0639 13.9793 16.0467 13.895C15.9927 13.6295 15.9293 13.2737 15.9639 12.9922C16.0326 12.4335 16.307 11.9141 16.7437 11.5552C16.9407 11.3932 17.1561 11.2931 17.3719 11.214C17.5744 11.1397 17.8223 11.0686 18.1031 10.988L18.1502 10.9744C18.4308 10.8939 18.6788 10.8227 18.8891 10.7785Z" fill="black"/>
</svg>
