<svg width="24" height="24" viewBox="0 0 24 24" fill="none" xmlns="http://www.w3.org/2000/svg">
<path fill-rule="evenodd" clip-rule="evenodd" d="M12.576 2.77751C12.4391 2.74083 12.295 2.74083 12.1581 2.77751C12.1051 2.79171 12.0161 2.82932 11.8343 2.98091C11.6445 3.13912 11.4149 3.36778 11.062 3.72061C10.7092 4.07344 10.4806 4.30312 10.3223 4.49287C10.1708 4.67467 10.1331 4.76368 10.1189 4.81668C10.0823 4.95357 10.0823 5.0977 10.1189 5.2346C10.1331 5.2876 10.1708 5.37661 10.3223 5.55841C10.4806 5.74816 10.7092 5.97784 11.062 6.33067L17.6693 12.938C18.0222 13.2908 18.2518 13.5194 18.4416 13.6777C18.6234 13.8292 18.7124 13.8669 18.7654 13.8811C18.9023 13.9177 19.0464 13.9177 19.1833 13.8811C19.2363 13.8669 19.3253 13.8292 19.5071 13.6777C19.6969 13.5194 19.9266 13.2908 20.2794 12.938C20.6322 12.5851 20.8609 12.3555 21.0191 12.1657C21.1707 11.9839 21.2083 11.8949 21.2225 11.8419C21.2592 11.705 21.2592 11.5609 21.2225 11.424C21.2083 11.371 21.1707 11.282 21.0191 11.1002C20.8609 10.9104 20.6322 10.6807 20.2794 10.3279L19.5452 9.59376C19.0496 9.09814 19.0496 8.29458 19.5452 7.79895C19.9063 7.43788 20.1226 7.2193 20.258 7.04191C20.3203 6.96028 20.346 6.9114 20.3567 6.88584C20.3643 6.86766 20.3639 6.86251 20.3638 6.86123C20.3639 6.85995 20.3643 6.85433 20.3567 6.83615C20.346 6.8106 20.3203 6.76171 20.258 6.68008C20.1226 6.50269 19.9063 6.28411 19.5452 5.92304L18.077 4.45475C17.7159 4.09368 17.4973 3.87736 17.3199 3.74201C17.2383 3.67973 17.1894 3.65396 17.1638 3.6433C17.1457 3.63572 17.1405 3.63609 17.1392 3.63618C17.1391 3.63618 17.1393 3.63618 17.1392 3.63618C17.1384 3.63618 17.1337 3.63513 17.1142 3.6433C17.0886 3.65396 17.0397 3.67973 16.9581 3.74201C16.8092 3.85561 16.6313 4.02626 16.3645 4.29166L18.0364 5.9636C18.3293 6.25649 18.3293 6.73136 18.0364 7.02426C17.7435 7.31715 17.2686 7.31715 16.9757 7.02426L13.6721 3.72061C13.3193 3.36778 13.0896 3.13912 12.8998 2.98091C12.718 2.82932 12.629 2.79171 12.576 2.77751ZM15.3037 3.2309L14.7098 2.63701C14.3864 2.31352 14.1087 2.03582 13.8604 1.82884C13.5984 1.61035 13.3143 1.42242 12.9643 1.32862C12.573 1.22379 12.1611 1.22379 11.7699 1.32862C11.4198 1.42242 11.1357 1.61035 10.8737 1.82884C10.6255 2.03582 10.3478 2.31352 10.0243 2.63702L9.97843 2.68291C9.65494 3.00637 9.37724 3.28405 9.17027 3.53228C8.95178 3.79432 8.76386 4.07838 8.67005 4.42845C8.56523 4.81968 8.56523 5.2316 8.67005 5.62283C8.76386 5.9729 8.95178 6.25696 9.17027 6.519C9.37724 6.76723 9.65493 7.0449 9.97842 7.36836L10.5723 7.96221L7.96221 10.5723L7.36836 9.97842C7.0449 9.65493 6.76723 9.37724 6.519 9.17027C6.25696 8.95178 5.9729 8.76386 5.62283 8.67005C5.2316 8.56523 4.81968 8.56522 4.42845 8.67005C4.07838 8.76385 3.79432 8.95178 3.53228 9.17027C3.28404 9.37725 3.00636 9.65495 2.68289 9.97844L2.63702 10.0243C2.31352 10.3478 2.03582 10.6255 1.82884 10.8737C1.61035 11.1357 1.42242 11.4198 1.32862 11.7699C1.22379 12.1611 1.22379 12.573 1.32862 12.9643C1.42242 13.3143 1.61035 13.5984 1.82884 13.8604C2.03581 14.1087 2.3135 14.3863 2.63698 14.7098L2.65995 14.7328L3.2309 15.3037C2.96446 15.5712 2.72503 15.8181 2.54948 16.0482C2.32554 16.3417 2.13619 16.6941 2.13619 17.139C2.13619 17.5839 2.32554 17.9363 2.54948 18.2298C2.75341 18.4971 3.04353 18.7871 3.36209 19.1056L4.89437 20.6379C5.21286 20.9565 5.50293 21.2466 5.77021 21.4505C6.06372 21.6745 6.41605 21.8638 6.861 21.8638C7.30594 21.8638 7.65828 21.6745 7.95179 21.4505C8.18187 21.275 8.42884 21.0355 8.69629 20.7691L9.29024 21.3631C9.61369 21.6865 9.89135 21.9642 10.1396 22.1712C10.4016 22.3896 10.6857 22.5776 11.0357 22.6714C11.427 22.7762 11.8389 22.7762 12.2301 22.6714C12.5802 22.5776 12.8643 22.3896 13.1263 22.1712C13.3745 21.9642 13.6522 21.6865 13.9756 21.363L14.0216 21.3171C14.3451 20.9936 14.6228 20.716 14.8297 20.4677C15.0482 20.2057 15.2361 19.9216 15.3299 19.5716C15.4348 19.1803 15.4348 18.7684 15.3299 18.3772C15.2361 18.0271 15.0482 17.743 14.8297 17.481C14.6228 17.2328 14.345 16.9551 14.0215 16.6316L13.4277 16.0378L16.0378 13.4277L16.6316 14.0216C16.9551 14.3451 17.2328 14.6228 17.481 14.8297C17.743 15.0482 18.0271 15.2361 18.3772 15.3299C18.7684 15.4348 19.1803 15.4348 19.5715 15.3299C19.9216 15.2361 20.2057 15.0482 20.4677 14.8297C20.716 14.6228 20.9936 14.3451 21.3171 14.0216L21.363 13.9757C21.6865 13.6522 21.9642 13.3745 22.1712 13.1263C22.3896 12.8643 22.5776 12.5802 22.6714 12.2301C22.7762 11.8389 22.7762 11.427 22.6714 11.0357C22.5776 10.6857 22.3896 10.4016 22.1712 10.1396C21.9642 9.89133 21.6865 9.61364 21.363 9.29016L20.7691 8.69629C21.0355 8.42884 21.275 8.18187 21.4505 7.95179C21.6745 7.65828 21.8638 7.30594 21.8638 6.861C21.8638 6.41605 21.6745 6.06372 21.4505 5.77021C21.2466 5.50293 20.9565 5.21286 20.6379 4.89437L19.1056 3.36208C18.7871 3.04353 18.4971 2.75341 18.2298 2.54948C17.9363 2.32554 17.5839 2.13619 17.139 2.13619C16.6941 2.13619 16.3417 2.32554 16.0482 2.54948C15.8181 2.72503 15.5712 2.96446 15.3037 3.2309ZM20.6059 8.5331C20.6058 8.533 20.606 8.53319 20.6059 8.5331ZM14.9771 12.3671L11.6329 9.02287L9.02287 11.6329L12.3671 14.9771L14.9771 12.3671ZM4.29166 16.3645C4.02626 16.6313 3.85561 16.8092 3.74201 16.9581C3.67973 17.0397 3.65396 17.0886 3.6433 17.1142C3.63572 17.1323 3.63609 17.1375 3.63618 17.1388C3.63609 17.1401 3.63572 17.1457 3.6433 17.1638C3.65396 17.1894 3.67973 17.2383 3.74201 17.3199C3.87736 17.4973 4.09368 17.7159 4.45476 18.077L5.92304 19.5452C6.28411 19.9063 6.50269 20.1226 6.68008 20.258C6.76171 20.3203 6.8106 20.346 6.83615 20.3567C6.85574 20.3649 6.8602 20.3638 6.861 20.3638C6.86106 20.3638 6.8609 20.3638 6.861 20.3638C6.86228 20.3639 6.86766 20.3643 6.88584 20.3567C6.9114 20.346 6.96028 20.3203 7.04191 20.258C7.2193 20.1226 7.43788 19.9063 7.79895 19.5452C8.29458 19.0496 9.09814 19.0496 9.59376 19.5452L10.3279 20.2794C10.6807 20.6322 10.9104 20.8609 11.1002 21.0191C11.282 21.1707 11.371 21.2083 11.424 21.2225C11.5609 21.2592 11.705 21.2592 11.8419 21.2225C11.8949 21.2083 11.9839 21.1707 12.1657 21.0191C12.3555 20.8609 12.5851 20.6322 12.938 20.2794C13.2908 19.9266 13.5194 19.6969 13.6777 19.5071C13.8293 19.3253 13.8669 19.2363 13.8811 19.1833C13.9177 19.0464 13.9177 18.9023 13.8811 18.7654C13.8669 18.7124 13.8292 18.6234 13.6777 18.4416C13.5194 18.2518 13.2908 18.0222 12.938 17.6693L6.33067 11.062C5.97784 10.7092 5.74816 10.4806 5.55841 10.3223C5.37661 10.1708 5.2876 10.1331 5.2346 10.1189C5.09771 10.0823 4.95357 10.0823 4.81668 10.1189C4.76368 10.1331 4.67467 10.1708 4.49287 10.3223C4.30312 10.4806 4.07344 10.7092 3.72061 11.062C3.36778 11.4149 3.13912 11.6445 2.98091 11.8343C2.82932 12.0161 2.79171 12.1051 2.77751 12.1581C2.74083 12.295 2.74083 12.4391 2.77751 12.576C2.79171 12.629 2.82932 12.718 2.98091 12.8998C3.13912 13.0896 3.36778 13.3193 3.72061 13.6721L7.02426 16.9757C7.31715 17.2686 7.31715 17.7435 7.02426 18.0364C6.73136 18.3293 6.25649 18.3293 5.9636 18.0364L4.29166 16.3645Z" fill="black"/>
</svg>
