<svg width="24" height="24" viewBox="0 0 24 24" fill="none" xmlns="http://www.w3.org/2000/svg">
<path fill-rule="evenodd" clip-rule="evenodd" d="M11.5 3.75C10.5335 3.75 9.74998 4.5335 9.74998 5.5C9.74998 6.4665 10.5335 7.25 11.5 7.25C12.4665 7.25 13.25 6.4665 13.25 5.5C13.25 4.5335 12.4665 3.75 11.5 3.75ZM8.24998 5.5C8.24998 3.70507 9.70505 2.25 11.5 2.25C13.2949 2.25 14.75 3.70507 14.75 5.5C14.75 7.29493 13.2949 8.75 11.5 8.75C9.70505 8.75 8.24998 7.29493 8.24998 5.5ZM19 6.25C19.4142 6.25 19.75 6.58579 19.75 7V21C19.75 21.4142 19.4142 21.75 19 21.75C18.5858 21.75 18.25 21.4142 18.25 21V10.9941C16.5564 11.9799 14.456 12.0665 12.6645 11.1708C12.6474 11.1622 12.6305 11.153 12.6141 11.1431C11.9233 10.7287 11.0363 11.1741 10.9561 11.9756L10.8875 12.6617C10.8294 13.243 11.1062 13.807 11.6016 14.1166L11.9348 14.3249C13.6852 15.4188 14.8214 17.2701 15.0044 19.3261L15.1474 20.9335C15.1841 21.3461 14.8794 21.7103 14.4668 21.747C14.0542 21.7838 13.69 21.4791 13.6533 21.0665L13.5103 19.4591C13.369 17.8713 12.4915 16.4417 11.1398 15.5969L10.8066 15.3886C9.82721 14.7765 9.28004 13.6616 9.39496 12.5125L9.46357 11.8264C9.65212 9.9409 11.7281 8.88835 13.3581 9.84044C14.9094 10.605 16.7666 10.3848 18.0965 9.27658L18.25 9.14869V7C18.25 6.58579 18.5858 6.25 19 6.25ZM9.19063 15.7746C9.59123 15.8799 9.83063 16.29 9.72534 16.6906L8.99998 16.5C9.72534 16.6906 9.72536 16.6906 9.72534 16.6906L9.72473 16.693L9.72349 16.6976L9.71917 16.7137L9.70328 16.7718C9.68953 16.8213 9.66953 16.892 9.64382 16.9791C9.59249 17.153 9.51784 17.3942 9.42414 17.665C9.2425 18.1898 8.96834 18.8881 8.62818 19.4097C8.2708 19.9577 7.70972 20.5113 7.27704 20.903C7.05379 21.1051 6.85085 21.2763 6.70349 21.3973C6.62965 21.4579 6.56937 21.5062 6.52697 21.5398L6.47724 21.579L6.46338 21.5897L6.45938 21.5928L6.45813 21.5938C6.45806 21.5939 6.45739 21.5944 5.99998 21L6.45813 21.5938C6.12987 21.8464 5.65823 21.7857 5.40561 21.4574C5.15304 21.1292 5.21428 20.6584 5.54236 20.4058C5.54239 20.4058 5.54233 20.4058 5.54236 20.4058L5.54462 20.404L5.55438 20.3964L5.59536 20.3642C5.6317 20.3354 5.68524 20.2925 5.75176 20.2379C5.88512 20.1284 6.06904 19.9732 6.27037 19.7909C6.68684 19.4139 7.12576 18.9675 7.37177 18.5903C7.60602 18.2311 7.83186 17.6794 8.00662 17.1744C8.09111 16.9303 8.15876 16.7117 8.20519 16.5544C8.22835 16.476 8.24608 16.4133 8.25786 16.3708L8.27094 16.3231L8.27398 16.3117L8.2746 16.3094C8.27461 16.3094 8.27459 16.3094 8.2746 16.3094C8.37999 15.9089 8.79009 15.6694 9.19063 15.7746Z" fill="black"/>
</svg>
