<svg width="24" height="24" viewBox="0 0 24 24" fill="none" xmlns="http://www.w3.org/2000/svg">
<path fill-rule="evenodd" clip-rule="evenodd" d="M12 2.75C11.0335 2.75 10.25 3.5335 10.25 4.5C10.25 5.4665 11.0335 6.25 12 6.25C12.9665 6.25 13.75 5.4665 13.75 4.5C13.75 3.5335 12.9665 2.75 12 2.75ZM8.75002 4.5C8.75002 2.70507 10.2051 1.25 12 1.25C13.7949 1.25 15.25 2.70507 15.25 4.5C15.25 6.29493 13.7949 7.75 12 7.75C10.2051 7.75 8.75002 6.29493 8.75002 4.5ZM12.0001 9.7706C11.6439 9.77062 11.3209 9.7911 11.139 9.82194L10.2474 9.97209C8.23488 10.311 6.75002 12.0736 6.75002 14.1502C6.75002 15.231 6.21551 16.2435 5.32049 16.8464L5.21926 16.9146C4.96449 17.0862 4.68802 17.2229 4.39712 17.3208L3.23942 17.7108C2.84687 17.843 2.42147 17.6319 2.28925 17.2394C2.15704 16.8469 2.36808 16.4214 2.76062 16.2892L3.91832 15.8993C4.08179 15.8442 4.23748 15.7673 4.38122 15.6705L4.48245 15.6023C4.96005 15.2806 5.25002 14.7364 5.25002 14.1502C5.25002 11.3526 7.25263 8.95532 9.99831 8.49292L10.8883 8.34304C10.8884 8.34302 10.8882 8.34305 10.8883 8.34304C11.1927 8.29147 11.6131 8.27062 12 8.2706C12.3868 8.27058 12.807 8.29133 13.1116 8.34301C13.1117 8.34303 13.1115 8.34299 13.1116 8.34301L14.0017 8.49292C16.7474 8.95532 18.75 11.3526 18.75 14.1502C18.75 14.7364 19.04 15.2806 19.5176 15.6023L19.6188 15.6705C19.7626 15.7673 19.9182 15.8442 20.0817 15.8993L21.2394 16.2892C21.632 16.4214 21.843 16.8469 21.7108 17.2394C21.5786 17.6319 21.1532 17.843 20.7606 17.7108L19.6029 17.3208C19.312 17.2229 19.0356 17.0862 18.7808 16.9146L18.6795 16.8464C17.7845 16.2435 17.25 15.231 17.25 14.1502C17.25 12.0736 15.7652 10.311 13.7526 9.97209L12.8609 9.82191C12.6791 9.79104 12.3563 9.77058 12.0001 9.7706ZM8.90002 15.55C9.14855 15.2186 9.61865 15.1515 9.95002 15.4C10.2814 15.6485 10.3485 16.1186 10.1 16.45L9.17551 17.6827C9.16817 17.6925 9.16091 17.7022 9.15375 17.7117C9.02732 17.8804 8.92791 18.013 8.81335 18.1328C8.53152 18.4274 8.1877 18.6557 7.80677 18.8011C7.65194 18.8602 7.49111 18.9004 7.2866 18.9514C7.27501 18.9543 7.26328 18.9573 7.2514 18.9602L5.45799 19.4086C5.04191 19.5126 4.75002 19.8865 4.75002 20.3153C4.75002 20.8315 5.16848 21.25 5.68468 21.25H6.36844C7.91435 21.25 9.41856 20.7486 10.6553 19.8211L12.55 18.4C12.8814 18.1515 13.3515 18.2186 13.6 18.55C13.8485 18.8814 13.7814 19.3515 13.45 19.6L12.5454 20.2785L13.0371 20.4629C13.571 20.6631 13.8118 20.7531 14.0538 20.8288C14.782 21.0564 15.5355 21.193 16.2973 21.2356C16.5504 21.2497 16.8074 21.25 17.3777 21.25H18.3154C18.8316 21.25 19.25 20.8315 19.25 20.3153C19.25 19.8865 18.9581 19.5126 18.5421 19.4086L17.0685 19.0402C17.0408 19.0333 17.0136 19.0265 16.9866 19.0198C16.511 18.9012 16.1357 18.8076 15.8003 18.6143C15.7001 18.5565 15.6036 18.4924 15.5114 18.4224C15.203 18.1884 14.9712 17.8788 14.6773 17.4864C14.6607 17.4642 14.6438 17.4417 14.6267 17.4189L13.9 16.45C13.6515 16.1186 13.7186 15.6485 14.05 15.4C14.3814 15.1515 14.8515 15.2186 15.1 15.55L15.8267 16.5189C16.1952 17.0103 16.2982 17.1365 16.4182 17.2276C16.4601 17.2594 16.504 17.2885 16.5496 17.3148C16.6801 17.3901 16.8364 17.436 17.4323 17.585L18.9059 17.9534C19.9897 18.2243 20.75 19.1982 20.75 20.3153C20.75 21.66 19.66 22.75 18.3154 22.75H17.3523C16.8139 22.75 16.5133 22.75 16.2136 22.7333C15.3283 22.6838 14.4525 22.525 13.6063 22.2605C13.3197 22.1709 13.0383 22.0654 12.5342 21.8763L11.1016 21.3391C9.69808 22.2575 8.05374 22.75 6.36844 22.75H5.68468C4.34005 22.75 3.25002 21.66 3.25002 20.3153C3.25002 19.1982 4.01036 18.2243 5.09419 17.9534L6.8876 17.505C7.14328 17.4411 7.21159 17.4227 7.27184 17.3997C7.44499 17.3337 7.60128 17.2299 7.72938 17.096C7.77396 17.0493 7.81738 16.9935 7.97551 16.7827L8.90002 15.55Z" fill="black"/>
</svg>
