<svg width="24" height="24" viewBox="0 0 24 24" fill="none" xmlns="http://www.w3.org/2000/svg">
<path fill-rule="evenodd" clip-rule="evenodd" d="M12 3.03449C11.9419 3.13513 11.8772 3.25103 11.801 3.38769L11.7027 3.56405C11.6958 3.5765 11.6884 3.59009 11.6804 3.60466C11.6019 3.74827 11.4718 3.9861 11.255 4.15071C11.0336 4.31877 10.7673 4.37659 10.6116 4.4104C10.596 4.41379 10.5815 4.41693 10.5683 4.41992L10.3774 4.46312C10.2022 4.50275 10.0595 4.53509 9.9375 4.56575C10.0169 4.66345 10.1199 4.78474 10.254 4.94154L10.3842 5.09372C10.3934 5.10452 10.4035 5.11609 10.4141 5.1284C10.5221 5.25273 10.6963 5.45346 10.7769 5.71261C10.8566 5.96869 10.8291 6.23243 10.8118 6.39882C10.81 6.41542 10.8084 6.43105 10.807 6.4456L10.7873 6.64866C10.7691 6.83692 10.7549 6.98718 10.7455 7.10937C10.8497 7.06347 10.9682 7.00894 11.109 6.9441L11.2878 6.8618C11.3001 6.85613 11.3136 6.84977 11.3281 6.8429C11.4716 6.77522 11.7213 6.65745 12 6.65745C12.2787 6.65745 12.5284 6.77522 12.6719 6.8429C12.6864 6.84977 12.6999 6.85613 12.7122 6.8618L12.891 6.9441C13.0318 7.00894 13.1503 7.06347 13.2546 7.10937C13.2451 6.98718 13.2309 6.83692 13.2127 6.64866L13.193 6.4456C13.1916 6.43105 13.19 6.41542 13.1882 6.39882C13.1709 6.23243 13.1434 5.96869 13.2231 5.71261C13.3037 5.45346 13.4779 5.25273 13.5859 5.1284C13.5966 5.11609 13.6066 5.10452 13.6158 5.09372L13.746 4.94153C13.8801 4.78474 13.9831 4.66345 14.0625 4.56575C13.9405 4.53509 13.7978 4.50275 13.6226 4.46312L13.4317 4.41992C13.4185 4.41693 13.404 4.41379 13.3884 4.4104C13.2327 4.37659 12.9664 4.31877 12.745 4.15071C12.5282 3.9861 12.3981 3.74827 12.3196 3.60466C12.3116 3.59009 12.3042 3.5765 12.2973 3.56405L12.199 3.38769C12.1228 3.25103 12.0581 3.13513 12 3.03449ZM11.0135 1.79963C11.1857 1.57481 11.4983 1.25 12 1.25C12.5017 1.25 12.8143 1.57481 12.9865 1.79963C13.1508 2.01421 13.3163 2.31124 13.486 2.61576C13.4937 2.62961 13.5014 2.64347 13.5091 2.65734L13.6075 2.83369C13.6303 2.87459 13.6482 2.90677 13.6639 2.93429C13.6912 2.94071 13.723 2.94792 13.7627 2.95691L13.9537 3.0001C13.9693 3.00364 13.9849 3.00717 14.0006 3.0107C14.3284 3.08478 14.6542 3.15839 14.9042 3.25695C15.1804 3.36577 15.5547 3.5777 15.6989 4.04161C15.8407 4.49734 15.6618 4.88336 15.5056 5.13146C15.3611 5.36108 15.1414 5.61786 14.9165 5.88075C14.9063 5.89263 14.8962 5.90452 14.886 5.91642L14.7558 6.06861C14.7213 6.10894 14.6954 6.13935 14.6735 6.16566C14.6764 6.202 14.6805 6.24433 14.686 6.30093L14.7057 6.50398C14.7072 6.51947 14.7087 6.53494 14.7102 6.55039C14.7444 6.90232 14.7774 7.24242 14.7653 7.51447C14.7526 7.79972 14.6841 8.23152 14.2969 8.52544C13.8975 8.82864 13.4564 8.76256 13.1767 8.68241C12.919 8.60856 12.6144 8.46823 12.3077 8.3269C12.293 8.32014 12.2783 8.31337 12.2636 8.30661L12.0849 8.22431C12.0514 8.20891 12.024 8.19626 12 8.18542C11.9761 8.19626 11.9486 8.20891 11.9151 8.22431L11.7364 8.30661C11.7217 8.31337 11.707 8.32014 11.6923 8.3269C11.3856 8.46823 11.0811 8.60856 10.8233 8.68241C10.5436 8.76256 10.1025 8.82864 9.70306 8.52544C9.3159 8.23153 9.24744 7.79972 9.23473 7.51447C9.22261 7.24242 9.25564 6.90232 9.28982 6.55039C9.29132 6.53494 9.29282 6.51947 9.29432 6.50398L9.314 6.30093C9.31948 6.24433 9.32356 6.202 9.32655 6.16567C9.30465 6.13935 9.27867 6.10894 9.24418 6.06861L9.11403 5.91642C9.10385 5.90452 9.09368 5.89262 9.08351 5.88074C8.8586 5.61786 8.63891 5.36108 8.49436 5.13146C8.33818 4.88336 8.15934 4.49734 8.30106 4.04161C8.44532 3.5777 8.81962 3.36577 9.09577 3.25695C9.34585 3.1584 9.67164 3.08478 9.99945 3.0107C10.0151 3.00717 10.0307 3.00364 10.0464 3.0001L10.2373 2.95691C10.277 2.94792 10.3088 2.94071 10.3361 2.9343C10.3518 2.90677 10.3698 2.87459 10.3926 2.83369L10.4909 2.65734C10.4986 2.64347 10.5063 2.62961 10.514 2.61576C10.6837 2.31124 10.8492 2.01421 11.0135 1.79963ZM10.9506 9.25H13.0494C13.7142 9.24996 14.2871 9.24993 14.7458 9.31161C15.2375 9.3777 15.7087 9.52676 16.091 9.90901C16.4732 10.2913 16.6223 10.7625 16.6884 11.2542C16.7501 11.7129 16.75 12.2858 16.75 12.9506L16.75 15.4174C16.9136 15.3678 17.0827 15.3347 17.2542 15.3116C17.7129 15.2499 18.2858 15.25 18.9506 15.25H19.0494C19.7142 15.25 20.2871 15.2499 20.7458 15.3116C21.2375 15.3777 21.7087 15.5268 22.091 15.909C22.4732 16.2913 22.6223 16.7625 22.6884 17.2542C22.7501 17.7129 22.75 18.2858 22.75 18.9506V22C22.75 22.4142 22.4142 22.75 22 22.75C21.5858 22.75 21.25 22.4142 21.25 22V19C21.25 18.2717 21.2484 17.8009 21.2018 17.454C21.158 17.1287 21.0874 17.0268 21.0303 16.9697C20.9732 16.9126 20.8713 16.842 20.546 16.7982C20.1991 16.7516 19.7283 16.75 19 16.75C18.2717 16.75 17.8009 16.7516 17.454 16.7982C17.1287 16.842 17.0268 16.9126 16.9697 16.9697C16.9126 17.0268 16.842 17.1287 16.7982 17.454C16.7516 17.8009 16.75 18.2717 16.75 19V22C16.75 22.4142 16.4142 22.75 16 22.75C15.5858 22.75 15.25 22.4142 15.25 22L15.25 18.9506C15.25 18.9179 15.25 18.8854 15.25 18.8531V13C15.25 12.2717 15.2484 11.8009 15.2018 11.454C15.158 11.1287 15.0874 11.0268 15.0303 10.9697C14.9732 10.9126 14.8713 10.842 14.546 10.7982C14.1991 10.7516 13.7283 10.75 13 10.75H11C10.2717 10.75 9.80091 10.7516 9.45403 10.7982C9.12873 10.842 9.02677 10.9126 8.96967 10.9697C8.91258 11.0268 8.84197 11.1287 8.79823 11.454C8.7516 11.8009 8.75 12.2717 8.75 13V21.8531C8.75001 21.8854 8.75001 21.9179 8.75001 21.9506L8.75 22C8.75 22.4142 8.41422 22.75 8 22.75C7.58579 22.75 7.25 22.4142 7.25 22C7.25 21.2717 7.24841 20.8009 7.20177 20.454C7.15804 20.1287 7.08743 20.0268 7.03033 19.9697C6.97324 19.9126 6.87128 19.842 6.54598 19.7982C6.1991 19.7516 5.72831 19.75 5 19.75C4.27169 19.75 3.80091 19.7516 3.45403 19.7982C3.12873 19.842 3.02677 19.9126 2.96967 19.9697C2.91258 20.0268 2.84197 20.1287 2.79823 20.454C2.7516 20.8009 2.75 21.2717 2.75 22C2.75 22.4142 2.41422 22.75 2 22.75C1.58579 22.75 1.25 22.4142 1.25 22L1.25 21.9506C1.24996 21.2858 1.24993 20.7129 1.31161 20.2542C1.37771 19.7625 1.52677 19.2913 1.90901 18.909C2.29126 18.5268 2.76252 18.3777 3.25416 18.3116C3.71291 18.2499 4.28577 18.25 4.95064 18.25H5.04937C5.71424 18.25 6.2871 18.2499 6.74585 18.3116C6.91735 18.3347 7.08637 18.3678 7.25 18.4174L7.25 12.9506C7.24996 12.2858 7.24993 11.7129 7.31161 11.2542C7.37771 10.7625 7.52677 10.2913 7.90901 9.90901C8.29126 9.52676 8.76252 9.3777 9.25416 9.31161C9.71291 9.24993 10.2858 9.24996 10.9506 9.25Z" fill="black"/>
</svg>
