<svg width="24" height="24" viewBox="0 0 24 24" fill="none" xmlns="http://www.w3.org/2000/svg">
<path fill-rule="evenodd" clip-rule="evenodd" d="M18.5 2.75C17.5335 2.75 16.75 3.5335 16.75 4.5C16.75 5.4665 17.5335 6.25 18.5 6.25C19.4665 6.25 20.25 5.4665 20.25 4.5C20.25 3.5335 19.4665 2.75 18.5 2.75ZM15.25 4.5C15.25 2.70507 16.7051 1.25 18.5 1.25C20.2949 1.25 21.75 2.70507 21.75 4.5C21.75 6.29493 20.2949 7.75 18.5 7.75C16.7051 7.75 15.25 6.29493 15.25 4.5ZM13.6866 6.66132L13.6921 6.66359C14.8765 7.15114 15.8611 8.04505 16.4389 9.20077C17.0669 10.4567 18.3505 11.25 19.7546 11.25H21C21.4142 11.25 21.75 11.5858 21.75 12C21.75 12.4142 21.4142 12.75 21 12.75H19.7546C17.7823 12.75 15.9793 11.6357 15.0973 9.87158C14.6864 9.04988 13.9811 8.40468 13.1211 8.05068C11.7575 7.48938 11.3248 7.33098 10.5011 7.39087C9.35849 7.47396 8.30813 8.05116 5.80619 9.47272L4.37051 10.2884C4.01037 10.4931 3.55253 10.367 3.34791 10.0069C3.14328 9.64671 3.26935 9.18888 3.62949 8.98426L5.06517 8.16853C5.12315 8.13559 5.18054 8.10297 5.23736 8.07067C7.51106 6.77833 8.87084 6.00546 10.3924 5.89482C11.6095 5.80631 12.346 6.10952 13.6866 6.66132ZM13.5546 10.4956C13.8333 10.8021 13.8107 11.2765 13.5042 11.5551C13.3246 11.7184 13.1455 11.8778 12.9703 12.0338C12.6896 12.2837 12.4189 12.5247 12.1723 12.7582C11.9768 12.9432 11.8172 13.1045 11.7008 13.2386C11.6068 13.3469 11.5689 13.4064 11.5577 13.424C11.5532 13.431 11.553 13.4313 11.5552 13.4254C11.4378 13.742 11.4535 14.0927 11.5987 14.3976C11.6411 14.4866 11.7285 14.6084 11.962 14.8163C12.1997 15.0279 12.53 15.2787 13.0174 15.6481C13.0425 15.6671 13.0673 15.6858 13.0917 15.7043C13.6528 16.1291 14.0408 16.4228 14.3362 16.7946C14.6641 17.2075 14.9014 17.6848 15.0324 18.1955C15.1504 18.6555 15.1502 19.1421 15.15 19.8459C15.15 19.8765 15.15 19.9076 15.15 19.939V22C15.15 22.4142 14.8142 22.75 14.4 22.75C13.9858 22.75 13.65 22.4142 13.65 22V19.939C13.65 19.1064 13.6445 18.8218 13.5794 18.5682C13.5008 18.2618 13.3585 17.9754 13.1617 17.7277C12.9989 17.5228 12.7753 17.3465 12.1117 16.8437L12.0875 16.8254C11.6303 16.479 11.2521 16.1925 10.9647 15.9367C10.668 15.6727 10.4117 15.3936 10.2446 15.0428C9.92501 14.372 9.89047 13.6005 10.1488 12.9038C10.2412 12.6546 10.4193 12.4267 10.5678 12.2556C10.7314 12.067 10.9318 11.8669 11.1412 11.6688C11.4004 11.4234 11.7063 11.1508 12.0024 10.8871C12.1735 10.7345 12.3414 10.5849 12.4952 10.4452C12.8017 10.1666 13.276 10.1891 13.5546 10.4956ZM9.48014 16.4238C9.79835 16.689 9.84134 17.1619 9.57617 17.4801L8.5754 18.6811C8.5428 18.7202 8.51066 18.7588 8.47895 18.7969C7.83688 19.5685 7.36554 20.135 6.70757 20.4432C6.04959 20.7513 5.31269 20.7508 4.30887 20.7501C4.25928 20.75 4.20904 20.75 4.15813 20.75H3C2.58579 20.75 2.25 20.4142 2.25 20C2.25 19.5858 2.58579 19.25 3 19.25H4.15813C5.37975 19.25 5.75396 19.2334 6.07133 19.0848C6.3887 18.9361 6.641 18.6593 7.42306 17.7208L8.42383 16.5199C8.68901 16.2017 9.16193 16.1587 9.48014 16.4238Z" fill="black"/>
</svg>
