<svg width="24" height="24" viewBox="0 0 24 24" fill="none" xmlns="http://www.w3.org/2000/svg">
<path fill-rule="evenodd" clip-rule="evenodd" d="M14.5 2.75C13.5335 2.75 12.75 3.5335 12.75 4.5C12.75 5.4665 13.5335 6.25 14.5 6.25C15.4665 6.25 16.25 5.4665 16.25 4.5C16.25 3.5335 15.4665 2.75 14.5 2.75ZM11.25 4.5C11.25 2.70507 12.7051 1.25 14.5 1.25C16.2949 1.25 17.75 2.70507 17.75 4.5C17.75 6.29493 16.2949 7.75 14.5 7.75C12.7051 7.75 11.25 6.29493 11.25 4.5ZM10.5026 9.20673C11.9873 8.57043 13.6389 9.6595 13.6389 11.2748V13.8953C13.6389 14.3654 13.5184 14.8276 13.2889 15.2379L10.5766 20.0861C10.2517 20.6668 9.72728 21.11 9.10054 21.3336L5.25199 22.7064C4.86185 22.8456 4.43277 22.6421 4.2936 22.252C4.15444 21.8618 4.35789 21.4328 4.74803 21.2936L8.59658 19.9208C8.88146 19.8192 9.11984 19.6177 9.26751 19.3537L11.9798 14.5055C12.0841 14.3191 12.1389 14.1089 12.1389 13.8953V11.2748C12.1389 10.7364 11.5884 10.3733 11.0935 10.5854L8.63766 11.6379C8.14623 11.8485 8.02671 12.491 8.40952 12.8643L9.02358 13.463C9.32016 13.7522 9.32617 14.227 9.03701 14.5236C8.74784 14.8202 8.27301 14.8262 7.97643 14.537L7.36237 13.9383C6.21392 12.8186 6.57249 10.8911 8.04678 10.2592L10.5026 9.20673ZM16.5589 14.0535C18.2318 13.7817 19.75 15.0731 19.75 16.7679V22C19.75 22.4142 19.4142 22.75 19 22.75C18.5858 22.75 18.25 22.4142 18.25 22V16.7679C18.25 15.9975 17.5599 15.4105 16.7995 15.5341L15.787 15.6986C15.3781 15.7651 14.9928 15.4875 14.9264 15.0786C14.8599 14.6698 15.1375 14.2845 15.5464 14.218L16.5589 14.0535Z" fill="black"/>
</svg>
