<svg width="24" height="24" viewBox="0 0 24 24" fill="none" xmlns="http://www.w3.org/2000/svg">
<path fill-rule="evenodd" clip-rule="evenodd" d="M12.4507 2.75996C10.7344 2.67452 8.97502 3.06581 7.37521 3.98946C5.77616 4.91267 4.55703 6.24123 3.77269 7.77041C4.13789 8.00388 4.63834 8.35388 5.21448 8.83765C6.39083 9.8254 7.88497 11.3728 9.18542 13.6252C10.4859 15.8777 11.0789 17.9453 11.3461 19.458C11.477 20.1989 11.5299 20.8073 11.5495 21.2403C13.266 21.3257 15.0261 20.9342 16.6252 20.0109C18.225 19.0873 19.4436 17.7593 20.2277 16.2302C19.8625 15.9967 19.3619 15.6467 18.7856 15.1628C17.6092 14.1751 16.115 12.6277 14.8146 10.3752C13.5141 8.12277 12.9212 6.0551 12.654 4.54246C12.5231 3.80148 12.4702 3.19299 12.4507 2.75996ZM13.9649 2.96115C13.9898 3.31027 14.0385 3.75699 14.1311 4.28154C14.373 5.6508 14.9141 7.54757 16.1136 9.62523C17.3132 11.7029 18.6853 13.1199 19.7502 14.014C20.1581 14.3566 20.5207 14.6221 20.8106 14.8182C21.5766 12.4212 21.3673 9.72455 20.0109 7.37519C18.6545 5.02584 16.4237 3.4963 13.9649 2.96115ZM10.0353 21.0391C10.0103 20.6901 9.96166 20.2434 9.869 19.7189C9.62708 18.3497 9.08593 16.4529 7.88638 14.3752C6.68684 12.2976 5.31476 10.8805 4.24991 9.98639C3.84208 9.64394 3.47964 9.37848 3.18979 9.18235C2.42434 11.5781 2.63289 14.2755 3.98947 16.6252C5.34605 18.9748 7.57781 20.5042 10.0353 21.0391ZM6.62521 2.69042C8.72029 1.48083 11.0554 1.0564 13.2862 1.32681C16.526 1.71951 19.5512 3.57896 21.31 6.62519C23.0687 9.67143 23.1664 13.2211 21.8867 16.2231C21.0054 18.2903 19.4703 20.1004 17.3752 21.31C12.2336 24.2785 5.65897 22.5168 2.69043 17.3752C-0.278096 12.2335 1.48356 5.65895 6.62521 2.69042Z" fill="black"/>
</svg>
