<svg width="24" height="24" viewBox="0 0 24 24" fill="none" xmlns="http://www.w3.org/2000/svg">
<path fill-rule="evenodd" clip-rule="evenodd" d="M4.58152 6.01037C5.27229 4.99469 6.71514 5.03259 7.44344 5.90937C8.42541 7.09155 9.80978 8.24983 12 8.24983C14.2278 8.24983 15.5909 7.31995 16.5186 6.15371C17.24 5.24674 18.7774 5.10103 19.5335 6.17693C20.152 7.05691 20.8279 7.75783 22.1623 8.05353C22.5667 8.14315 22.8219 8.54363 22.7322 8.94803C22.6426 9.35244 22.2421 9.60762 21.8377 9.518C19.9967 9.11001 19.0391 8.08213 18.3063 7.0394C18.2577 6.97023 18.1708 6.91916 18.0398 6.9215C17.9038 6.92393 17.773 6.98622 17.6925 7.08746C16.5172 8.56506 14.7411 9.74983 12 9.74983C9.17715 9.74983 7.41072 8.21753 6.28959 6.86782L6.86651 6.3886L6.28959 6.86782C6.22434 6.78928 6.12735 6.7479 6.02869 6.74989C5.93334 6.75182 5.86397 6.79199 5.82185 6.85393C5.07568 7.95107 4.11841 9.0845 2.16228 9.518C1.75788 9.60762 1.35739 9.35244 1.26777 8.94803C1.17815 8.54363 1.43333 8.14315 1.83774 8.05353C3.24965 7.74064 3.92591 6.97435 4.58152 6.01037ZM4.58152 11.0104C5.27229 9.99469 6.71514 10.0326 7.44344 10.9094C8.42541 12.0915 9.80978 13.2498 12 13.2498C14.2278 13.2498 15.5909 12.3199 16.5186 11.1537C17.24 10.2467 18.7774 10.101 19.5335 11.1769C20.152 12.0569 20.8279 12.7578 22.1623 13.0535C22.5667 13.1431 22.8219 13.5436 22.7322 13.948C22.6426 14.3524 22.2421 14.6076 21.8377 14.518C19.9967 14.11 19.0391 13.0821 18.3063 12.0394C18.2577 11.9702 18.1708 11.9192 18.0398 11.9215C17.9038 11.9239 17.773 11.9862 17.6925 12.0875C16.5172 13.5651 14.7411 14.7498 12 14.7498C9.17715 14.7498 7.41072 13.2175 6.28959 11.8678C6.22435 11.7893 6.12735 11.7479 6.02869 11.7499C5.93334 11.7518 5.86397 11.792 5.82185 11.8539C5.07568 12.9511 4.11841 14.0845 2.16228 14.518C1.75788 14.6076 1.35739 14.3524 1.26777 13.948C1.17815 13.5436 1.43333 13.1431 1.83774 13.0535C3.24965 12.7406 3.92591 11.9744 4.58152 11.0104ZM4.58152 16.0104C5.27229 14.9947 6.71514 15.0326 7.44344 15.9094C8.42541 17.0915 9.80978 18.2498 12 18.2498C14.2278 18.2498 15.5909 17.3199 16.5186 16.1537C17.24 15.2467 18.7774 15.101 19.5335 16.1769C20.152 17.0569 20.8279 17.7578 22.1623 18.0535C22.5667 18.1431 22.8219 18.5436 22.7322 18.948C22.6426 19.3524 22.2421 19.6076 21.8377 19.518C19.9967 19.11 19.0391 18.0821 18.3063 17.0394C18.2577 16.9702 18.1708 16.9192 18.0398 16.9215C17.9038 16.9239 17.773 16.9862 17.6925 17.0875C16.5172 18.5651 14.7411 19.7498 12 19.7498C9.17715 19.7498 7.41072 18.2175 6.28959 16.8678C6.22435 16.7893 6.12735 16.7479 6.02869 16.7499C5.93334 16.7518 5.86397 16.792 5.82185 16.8539C5.07568 17.9511 4.11841 19.0845 2.16228 19.518C1.75788 19.6076 1.35739 19.3524 1.26777 18.948C1.17815 18.5436 1.43333 18.1431 1.83774 18.0535C3.24965 17.7406 3.92591 16.9744 4.58152 16.0104Z" fill="black"/>
</svg>
