<svg width="24" height="24" viewBox="0 0 24 24" fill="none" xmlns="http://www.w3.org/2000/svg">
<path d="M14 20C17.7712 20 19.6569 20 20.8284 18.8284C22 17.6569 22 15.7712 22 12C22 11.6508 22 11.3178 21.9991 11M2 8.5C2 8.03566 2 7.80349 2.01926 7.60793C2.20631 5.70882 3.70882 4.20631 5.60793 4.01926C5.80349 4 6.03566 4 6.5 4H14C17.7712 4 19.6569 4 20.8284 5.17157C21.298 5.64118 21.5794 6.2255 21.748 7" stroke="black" stroke-width="1.5" stroke-linecap="round" stroke-linejoin="round"/>
<path d="M11 20C11 15.0294 6.97056 11 2 11" stroke="black" stroke-width="1.5" stroke-linecap="round"/>
<path d="M8 20C8 16.6863 5.31371 14 2 14" stroke="black" stroke-width="1.5" stroke-linecap="round"/>
<path d="M5 20C5 18.3431 3.65685 17 2 17" stroke="black" stroke-width="1.5" stroke-linecap="round"/>
</svg>
