<svg width="24" height="24" viewBox="0 0 24 24" fill="none" xmlns="http://www.w3.org/2000/svg">
<circle cx="12" cy="20" r="2" stroke="black" stroke-width="1.5"/>
<circle cx="6" cy="6" r="1" stroke="black" stroke-width="1.5"/>
<path d="M11.25 18C11.25 18.4142 11.5858 18.75 12 18.75C12.4142 18.75 12.75 18.4142 12.75 18H11.25ZM12 2L12.624 1.58397C12.4849 1.37533 12.2508 1.25 12 1.25C11.7492 1.25 11.5151 1.37533 11.376 1.58397L12 2ZM13.376 5.41603C13.6057 5.76067 14.0714 5.8538 14.416 5.62404C14.7607 5.39427 14.8538 4.92862 14.624 4.58397L13.376 5.41603ZM9.37596 4.58397C9.1462 4.92862 9.23933 5.39427 9.58397 5.62404C9.92862 5.8538 10.3943 5.76067 10.624 5.41603L9.37596 4.58397ZM11.25 6.5C11.25 6.91421 11.5858 7.25 12 7.25C12.4142 7.25 12.75 6.91421 12.75 6.5H11.25ZM12.75 9.75C12.75 9.33579 12.4142 9 12 9C11.5858 9 11.25 9.33579 11.25 9.75H12.75ZM11.376 2.41603L13.376 5.41603L14.624 4.58397L12.624 1.58397L11.376 2.41603ZM11.376 1.58397L9.37596 4.58397L10.624 5.41603L12.624 2.41603L11.376 1.58397ZM12.75 18V15H11.25V18H12.75ZM12.75 6.5V2H11.25V6.5H12.75ZM12.75 15V9.75H11.25V15H12.75Z" fill="black"/>
<path d="M6 7V9.55848C6 10.4193 6.55086 11.1836 7.36754 11.4558L10.6325 12.5442C11.4491 12.8164 12 13.5807 12 14.4415V15" stroke="black" stroke-width="1.5" stroke-linecap="round"/>
<path d="M18 10V12.5585C18 13.4193 17.4491 14.1836 16.6325 14.4558L13.3675 15.5442C12.5509 15.8164 12 16.5807 12 17.4415V18" stroke="black" stroke-width="1.5" stroke-linecap="round"/>
<path d="M17 9C17 8.5286 17 8.29289 17.1464 8.14645C17.2929 8 17.5286 8 18 8C18.4714 8 18.7071 8 18.8536 8.14645C19 8.29289 19 8.5286 19 9C19 9.4714 19 9.70711 18.8536 9.85355C18.7071 10 18.4714 10 18 10C17.5286 10 17.2929 10 17.1464 9.85355C17 9.70711 17 9.4714 17 9Z" stroke="black" stroke-width="1.5"/>
</svg>
