<svg width="24" height="24" viewBox="0 0 24 24" fill="none" xmlns="http://www.w3.org/2000/svg">
<path fill-rule="evenodd" clip-rule="evenodd" d="M8 2.25C4.27208 2.25 1.25 5.27208 1.25 9C1.25 10.7283 1.90054 12.3065 2.96894 13.5002C3.24518 13.8088 3.71933 13.8351 4.02797 13.5589C4.33662 13.2826 4.36288 12.8085 4.08664 12.4998C3.25487 11.5705 2.75 10.3451 2.75 9C2.75 6.10051 5.10051 3.75 8 3.75H12C14.8995 3.75 17.25 6.10051 17.25 9C17.25 11.8995 14.8995 14.25 12 14.25H10C9.58579 14.25 9.25 14.5858 9.25 15C9.25 15.4142 9.58579 15.75 10 15.75H12C15.7279 15.75 18.75 12.7279 18.75 9C18.75 5.27208 15.7279 2.25 12 2.25H8Z" fill="black"/>
<path opacity="0.5" d="M6.75 15C6.75 12.1005 9.10051 9.75 12 9.75H14C14.4142 9.75 14.75 9.41421 14.75 9C14.75 8.58579 14.4142 8.25 14 8.25H12C8.27208 8.25 5.25 11.2721 5.25 15C5.25 18.7279 8.27208 21.75 12 21.75H16C19.7279 21.75 22.75 18.7279 22.75 15C22.75 13.2717 22.0995 11.6935 21.0311 10.4998C20.7548 10.1912 20.2807 10.1649 19.972 10.4411C19.6634 10.7174 19.6371 11.1915 19.9134 11.5002C20.7451 12.4295 21.25 13.6549 21.25 15C21.25 17.8995 18.8995 20.25 16 20.25H12C9.10051 20.25 6.75 17.8995 6.75 15Z" fill="black"/>
</svg>
