<svg width="24" height="24" viewBox="0 0 24 24" fill="none" xmlns="http://www.w3.org/2000/svg">
<path opacity="0.5" d="M3.46447 20.5355C4.92893 22 7.28595 22 12 22C16.714 22 19.0711 22 20.5355 20.5355C22 19.0711 22 16.714 22 12C22 7.28595 22 4.92893 20.5355 3.46447C19.0711 2 16.714 2 12 2C7.28595 2 4.92893 2 3.46447 3.46447C2 4.92893 2 7.28595 2 12C2 16.714 2 19.0711 3.46447 20.5355Z" fill="black"/>
<path d="M9.5 8.75C7.70507 8.75 6.25 10.2051 6.25 12C6.25 13.7949 7.70507 15.25 9.5 15.25C11.2949 15.25 12.75 13.7949 12.75 12C12.75 11.5858 13.0858 11.25 13.5 11.25C13.9142 11.25 14.25 11.5858 14.25 12C14.25 14.6234 12.1234 16.75 9.5 16.75C6.87665 16.75 4.75 14.6234 4.75 12C4.75 9.37665 6.87665 7.25 9.5 7.25C9.91421 7.25 10.25 7.58579 10.25 8C10.25 8.41421 9.91421 8.75 9.5 8.75Z" fill="black"/>
<path d="M17.75 12C17.75 13.7949 16.2949 15.25 14.5 15.25C14.0858 15.25 13.75 15.5858 13.75 16C13.75 16.4142 14.0858 16.75 14.5 16.75C17.1234 16.75 19.25 14.6234 19.25 12C19.25 9.37665 17.1234 7.25 14.5 7.25C11.8766 7.25 9.75 9.37665 9.75 12C9.75 12.4142 10.0858 12.75 10.5 12.75C10.9142 12.75 11.25 12.4142 11.25 12C11.25 10.2051 12.7051 8.75 14.5 8.75C16.2949 8.75 17.75 10.2051 17.75 12Z" fill="black"/>
</svg>
