<svg width="24" height="24" viewBox="0 0 24 24" fill="none" xmlns="http://www.w3.org/2000/svg">
<path opacity="0.5" d="M2 12C2 7.28595 2 4.92893 3.46447 3.46447C4.92893 2 7.28595 2 12 2C16.714 2 19.0711 2 20.5355 3.46447C22 4.92893 22 7.28595 22 12C22 16.714 22 19.0711 20.5355 20.5355C19.0711 22 16.714 22 12 22C7.28595 22 4.92893 22 3.46447 20.5355C2 19.0711 2 16.714 2 12Z" fill="black"/>
<path d="M10.6667 6.25019H13.3162C13.3273 6.24994 13.3384 6.24994 13.3495 6.25019H16C16.4142 6.25019 16.75 6.58597 16.75 7.00019C16.75 7.4144 16.4142 7.75019 16 7.75019H13.9095L11.6429 16.2502H13.3333C13.7475 16.2502 14.0833 16.586 14.0833 17.0002C14.0833 17.4144 13.7475 17.7502 13.3333 17.7502H10.6838C10.6727 17.7504 10.6616 17.7504 10.6505 17.7502H8C7.58579 17.7502 7.25 17.4144 7.25 17.0002C7.25 16.586 7.58579 16.2502 8 16.2502H10.0905L12.3571 7.75019H10.6667C10.2525 7.75019 9.91667 7.4144 9.91667 7.00019C9.91667 6.58597 10.2525 6.25019 10.6667 6.25019Z" fill="black"/>
</svg>
