<svg width="24" height="24" viewBox="0 0 24 24" fill="none" xmlns="http://www.w3.org/2000/svg">
<path d="M16 19.9972C14.8233 20.635 13.4571 21 12 21C7.58172 21 4 17.6439 4 13.504C4 12.3727 4.14916 11.3124 4.40527 10.3284M19.1761 16.8211C19.7036 15.8211 20 14.695 20 13.504C20 9.76257 17.9654 6.83811 16.562 5.44436C16.3017 5.18584 15.8683 5.30006 15.7212 5.63288C14.9742 7.3229 13.4178 9.75607 11.4286 9.75607C10.1975 9.92086 8.31688 8.86844 9.83483 3.64868C9.97151 3.17868 9.46972 2.80113 9.08645 3.11539C8.09335 3.92966 6.95052 5.1206 6 6.64741" stroke="black" stroke-width="1.5" stroke-linecap="round"/>
</svg>
