<svg width="24" height="24" viewBox="0 0 24 24" fill="none" xmlns="http://www.w3.org/2000/svg">
<path d="M7.37087 8C8.36197 6.47562 9.34354 4.90969 9.95605 3.37712C10.2157 2.72733 11.0161 2.42199 11.5727 2.84603C14.9439 5.41409 20 10.3783 20 15.0002C20 16.1738 19.8008 17.1656 19.4698 18M5.46561 11C4.61333 12.4539 4 13.8133 4 15.0002C4 18.1071 6.24558 20.309 8.08142 21.3717C8.50204 21.6152 8.91147 21.1073 8.69077 20.6743C8.20479 19.7208 7.73333 18.4894 7.73333 17.5002C7.73333 16.1288 8.77825 15.0267 9.52461 14.32C9.71604 14.1388 10.016 14.1416 10.182 14.3464C10.4901 14.7267 10.7982 15.208 11.1063 15.5977C11.2872 15.8264 11.6241 15.8062 11.7828 15.5616C12.7689 14.042 12.9976 12.1031 13.0507 10.6539C13.0667 10.2164 13.5786 10.0016 13.8721 10.3263C15.1559 11.7467 16.8 14.0496 16.8 16.0002C16.8 17.8161 15.7823 19.7464 14.9019 21.0116C14.6438 21.3825 14.9274 21.8854 15.3588 21.7512C15.8734 21.5911 16.4265 21.3508 16.9653 21.0116" stroke="black" stroke-width="1.5" stroke-linecap="round"/>
</svg>
