<svg width="24" height="24" viewBox="0 0 24 24" fill="none" xmlns="http://www.w3.org/2000/svg">
<path opacity="0.5" fill-rule="evenodd" clip-rule="evenodd" d="M22 11.9999C22 17.5228 17.5228 21.9999 12 21.9999C10.8358 21.9999 9.71801 21.801 8.67887 21.4352C8.24138 20.3767 8 19.2165 8 17.9999C8 15.7787 8.80467 13.7454 10.1384 12.1757C11.31 13.8813 13.2744 14.9999 15.5 14.9999C17.8615 14.9999 19.9289 13.7405 21.0672 11.8568C21.3065 11.4607 22 11.5372 22 11.9999Z" fill="black"/>
<path d="M2 12C2 16.3586 4.78852 20.0659 8.67887 21.4353C8.24138 20.3768 8 19.2166 8 18C8 15.7788 8.80467 13.7455 10.1384 12.1758C9.42027 11.1303 9 9.86422 9 8.5C9 6.13845 10.2594 4.07105 12.1432 2.93276C12.5392 2.69347 12.4627 2 12 2C6.47715 2 2 6.47715 2 12Z" fill="black"/>
</svg>
