<svg width="24" height="24" viewBox="0 0 24 24" fill="none" xmlns="http://www.w3.org/2000/svg">
<path fill-rule="evenodd" clip-rule="evenodd" d="M7.25 22C7.25 21.5858 7.58579 21.25 8 21.25H16C16.4142 21.25 16.75 21.5858 16.75 22C16.75 22.4142 16.4142 22.75 16 22.75H8C7.58579 22.75 7.25 22.4142 7.25 22Z" fill="black"/>
<path fill-rule="evenodd" clip-rule="evenodd" d="M12 1.25C12.4142 1.25 12.75 1.58579 12.75 2V3C12.75 3.41421 12.4142 3.75 12 3.75C11.5858 3.75 11.25 3.41421 11.25 3V2C11.25 1.58579 11.5858 1.25 12 1.25ZM1.25 12C1.25 11.5858 1.58579 11.25 2 11.25H3C3.41421 11.25 3.75 11.5858 3.75 12C3.75 12.4142 3.41421 12.75 3 12.75H2C1.58579 12.75 1.25 12.4142 1.25 12ZM20.25 12C20.25 11.5858 20.5858 11.25 21 11.25H22C22.4142 11.25 22.75 11.5858 22.75 12C22.75 12.4142 22.4142 12.75 22 12.75H21C20.5858 12.75 20.25 12.4142 20.25 12Z" fill="black"/>
<path opacity="0.5" d="M5.25 12C5.25 13.1778 5.5521 14.2858 6.08267 15.25H2C1.58579 15.25 1.25 15.5858 1.25 16C1.25 16.4142 1.58579 16.75 2 16.75H11.25V11.8107L10.5303 12.5303C10.2374 12.8232 9.76256 12.8232 9.46967 12.5303C9.17678 12.2374 9.17678 11.7626 9.46967 11.4697L11.4697 9.46967C11.7626 9.17678 12.2374 9.17678 12.5303 9.46967L14.5303 11.4697C14.8232 11.7626 14.8232 12.2374 14.5303 12.5303C14.2374 12.8232 13.7626 12.8232 13.4697 12.5303L12.75 11.8107V16.75H22C22.4142 16.75 22.75 16.4142 22.75 16C22.75 15.5858 22.4142 15.25 22 15.25H17.9173C18.4479 14.2858 18.75 13.1778 18.75 12C18.75 8.27208 15.7279 5.25 12 5.25C8.27208 5.25 5.25 8.27208 5.25 12Z" fill="black"/>
<path d="M12.5303 9.46967C12.2374 9.17678 11.7626 9.17678 11.4697 9.46967L9.46967 11.4697C9.17678 11.7626 9.17678 12.2374 9.46967 12.5303C9.76256 12.8232 10.2374 12.8232 10.5303 12.5303L11.25 11.8107V16.75H12.75V11.8107L13.4697 12.5303C13.7626 12.8232 14.2374 12.8232 14.5303 12.5303C14.8232 12.2374 14.8232 11.7626 14.5303 11.4697L12.5303 9.46967Z" fill="black"/>
<path d="M4.25 19C4.25 18.5858 4.58579 18.25 5 18.25H19C19.4142 18.25 19.75 18.5858 19.75 19C19.75 19.4142 19.4142 19.75 19 19.75H5C4.58579 19.75 4.25 19.4142 4.25 19Z" fill="black"/>
<g opacity="0.5">
<path d="M4.39838 4.39838C4.69127 4.10549 5.16615 4.10549 5.45904 4.39838L5.85188 4.79122C6.14477 5.08411 6.14477 5.55898 5.85188 5.85188C5.55898 6.14477 5.08411 6.14477 4.79122 5.85188L4.39838 5.45904C4.10549 5.16615 4.10549 4.69127 4.39838 4.39838Z" fill="black"/>
<path d="M19.6009 4.39864C19.8938 4.69153 19.8938 5.16641 19.6009 5.4593L19.2081 5.85214C18.9152 6.14503 18.4403 6.14503 18.1474 5.85214C17.8545 5.55924 17.8545 5.08437 18.1474 4.79148L18.5402 4.39864C18.8331 4.10575 19.308 4.10575 19.6009 4.39864Z" fill="black"/>
</g>
</svg>
