<svg width="24" height="24" viewBox="0 0 24 24" fill="none" xmlns="http://www.w3.org/2000/svg">
<path fill-rule="evenodd" clip-rule="evenodd" d="M15.668 7C15.668 6.58579 16.0038 6.25 16.418 6.25H22.0001C22.4143 6.25 22.7501 6.58579 22.7501 7V12.5458C22.7501 12.96 22.4143 13.2958 22.0001 13.2958C21.5859 13.2958 21.2501 12.96 21.2501 12.5458V7.75H16.418C16.0038 7.75 15.668 7.41421 15.668 7Z" fill="black"/>
<path opacity="0.5" d="M20.1873 7.75L14.0916 13.8027C13.5778 14.3134 13.2447 14.6423 12.9673 14.8527C12.7073 15.0499 12.5857 15.072 12.5052 15.072C12.4247 15.072 12.3031 15.0499 12.0431 14.8526C11.7658 14.6421 11.4327 14.3132 10.919 13.8024L10.6448 13.5296C10.1755 13.063 9.77105 12.6607 9.40375 12.382C9.01003 12.0832 8.57254 11.8572 8.03395 11.8574C7.49535 11.8576 7.05802 12.0839 6.66452 12.383C6.29742 12.662 5.89326 13.0645 5.42433 13.5315L1.47078 17.4686C1.17728 17.7608 1.17628 18.2357 1.46856 18.5292C1.76084 18.8227 2.23571 18.8237 2.52922 18.5314L6.44789 14.6292C6.96167 14.1175 7.29478 13.7881 7.57219 13.5772C7.83228 13.3795 7.95393 13.3574 8.03449 13.3574C8.11506 13.3573 8.23672 13.3794 8.49695 13.5769C8.77452 13.7875 9.10787 14.1167 9.62203 14.628L9.89627 14.9007C10.3651 15.367 10.7692 15.7688 11.1362 16.0474C11.5297 16.346 11.9668 16.5719 12.505 16.572C13.0432 16.572 13.4804 16.3462 13.8739 16.0477C14.241 15.7692 14.6452 15.3674 15.1142 14.9013L21.2501 8.80858V7.75H20.1873Z" fill="black"/>
</svg>
