<svg width="24" height="24" viewBox="0 0 24 24" fill="none" xmlns="http://www.w3.org/2000/svg">
<path fill-rule="evenodd" clip-rule="evenodd" d="M15.668 17.9999C15.668 18.4141 16.0038 18.7499 16.418 18.7499H22.0001C22.4143 18.7499 22.7501 18.4141 22.7501 17.9999V12.4541C22.7501 12.0399 22.4143 11.7041 22.0001 11.7041C21.5859 11.7041 21.2501 12.0399 21.2501 12.4541V17.2499H16.418C16.0038 17.2499 15.668 17.5857 15.668 17.9999Z" fill="black"/>
<path opacity="0.5" d="M20.1873 17.25L14.0916 11.1973C13.5778 10.6866 13.2447 10.3577 12.9673 10.1473C12.7073 9.95006 12.5857 9.92801 12.5052 9.92802C12.4247 9.92803 12.3031 9.95011 12.0431 10.1474C11.7658 10.3579 11.4327 10.6868 10.919 11.1976L10.6448 11.4704C10.1755 11.937 9.77105 12.3393 9.40375 12.618C9.01003 12.9168 8.57254 13.1428 8.03395 13.1426C7.49535 13.1424 7.05802 12.9161 6.66452 12.617C6.29742 12.338 5.89326 11.9355 5.42433 11.4685L1.47078 7.53144C1.17728 7.23916 1.17628 6.76429 1.46856 6.47078C1.76084 6.17728 2.23571 6.17628 2.52922 6.46856L6.44789 10.3708C6.96167 10.8825 7.29478 11.2119 7.57219 11.4228C7.83228 11.6205 7.95393 11.6426 8.03449 11.6426C8.11506 11.6427 8.23672 11.6206 8.49695 11.4231C8.77452 11.2125 9.10787 10.8833 9.62203 10.372L9.89627 10.0993C10.3651 9.63304 10.7692 9.23116 11.1362 8.9526C11.5297 8.654 11.9668 8.42808 12.505 8.42802C13.0432 8.42796 13.4804 8.65377 13.8739 8.95229C14.241 9.23077 14.6452 9.63256 15.1142 10.0987L21.2501 16.1914V17.25H20.1873Z" fill="black"/>
</svg>
