<svg width="24" height="24" viewBox="0 0 24 24" fill="none" xmlns="http://www.w3.org/2000/svg">
<path opacity="0.5" d="M2 12C2 7.28595 2 4.92893 3.46447 3.46447C4.92893 2 7.28595 2 12 2C16.714 2 19.0711 2 20.5355 3.46447C22 4.92893 22 7.28595 22 12C22 16.714 22 19.0711 20.5355 20.5355C19.0711 22 16.714 22 12 22C7.28595 22 4.92893 22 3.46447 20.5355C2 19.0711 2 16.714 2 12Z" fill="black"/>
<path d="M22 5C22 6.65685 20.6569 8 19 8C17.3431 8 16 6.65685 16 5C16 3.34315 17.3431 2 19 2C20.6569 2 22 3.34315 22 5Z" fill="black"/>
<path d="M14.5 13.25C14.0858 13.25 13.75 13.5858 13.75 14C13.75 14.4142 14.0858 14.75 14.5 14.75H17C17.4142 14.75 17.75 14.4142 17.75 14V11.5C17.75 11.0858 17.4142 10.75 17 10.75C16.5858 10.75 16.25 11.0858 16.25 11.5V12.1893L14.2374 10.1768C13.554 9.49336 12.446 9.49336 11.7626 10.1768L10.1768 11.7626C10.0791 11.8602 9.92085 11.8602 9.82322 11.7626L7.53033 9.46967C7.23744 9.17678 6.76256 9.17678 6.46967 9.46967C6.17678 9.76256 6.17678 10.2374 6.46967 10.5303L8.76256 12.8232C9.44598 13.5066 10.554 13.5066 11.2374 12.8232L12.8232 11.2374C12.9209 11.1398 13.0791 11.1398 13.1768 11.2374L15.1893 13.25H14.5Z" fill="black"/>
</svg>
