<svg width="24" height="24" viewBox="0 0 24 24" fill="none" xmlns="http://www.w3.org/2000/svg">
<path opacity="0.5" d="M12.7949 2H10.7949C8.9093 2 7.96649 2 7.38071 2.58579C6.79492 3.17157 6.79492 4.11438 6.79492 6V8V9.5H16.7949V8V6C16.7949 4.11438 16.7949 3.17157 16.2091 2.58579C15.6233 2 14.6805 2 12.7949 2Z" fill="black"/>
<path fill-rule="evenodd" clip-rule="evenodd" d="M13.2304 5.78311C12.3352 5.29495 11.2533 5.29495 10.358 5.78311L5.56381 8.39728C4.59982 8.92292 4 9.93319 4 11.0312V15.9688C4 17.0668 4.59982 18.0771 5.56381 18.6027L10.358 21.2169C11.2533 21.705 12.3352 21.705 13.2304 21.2169L18.0246 18.6027C18.9886 18.0771 19.5885 17.0668 19.5885 15.9688V11.0312C19.5885 9.93319 18.9886 8.92292 18.0246 8.39728L13.2304 5.78311ZM11.7944 10.5C11.5104 10.5 11.3204 10.8408 10.9404 11.5225L10.8421 11.6989C10.7341 11.8926 10.6801 11.9894 10.5959 12.0533C10.5117 12.1172 10.4069 12.141 10.1972 12.1884L10.0063 12.2316C9.26839 12.3986 8.89944 12.482 8.81166 12.7643C8.72388 13.0466 8.97541 13.3407 9.47846 13.929L9.60861 14.0812C9.75156 14.2483 9.82304 14.3319 9.85519 14.4353C9.88735 14.5387 9.87654 14.6502 9.85493 14.8733L9.83525 15.0763C9.7592 15.8612 9.72117 16.2536 9.95098 16.4281C10.1808 16.6025 10.5262 16.4435 11.2171 16.1254L11.3959 16.0431C11.5922 15.9527 11.6904 15.9075 11.7944 15.9075C11.8985 15.9075 11.9967 15.9527 12.193 16.0431L12.3717 16.1254C13.0626 16.4435 13.4081 16.6025 13.6379 16.4281C13.8677 16.2536 13.8297 15.8612 13.7536 15.0763L13.7339 14.8733C13.7123 14.6502 13.7015 14.5387 13.7337 14.4353C13.7658 14.3319 13.8373 14.2483 13.9802 14.0812L14.1104 13.929C14.6135 13.3407 14.865 13.0466 14.7772 12.7643C14.6894 12.482 14.3205 12.3986 13.5826 12.2316L13.3917 12.1884C13.182 12.141 13.0771 12.1172 12.993 12.0533C12.9088 11.9894 12.8548 11.8926 12.7468 11.6989L12.6485 11.5225C12.2685 10.8408 12.0785 10.5 11.7944 10.5Z" fill="black"/>
</svg>
