<svg width="24" height="24" viewBox="0 0 24 24" fill="none" xmlns="http://www.w3.org/2000/svg">
<path d="M16.5332 18H6.88633C6.82438 18 6.7934 18 6.76531 17.9996C6.76021 17.9995 6.7551 17.9995 6.75 17.9994V18.9995V20C6.75 20.4143 6.41421 20.75 6 20.75C5.58579 20.75 5.25 20.4143 5.25 20V17.6756C4.42121 17.3138 3.76073 16.6712 3.44197 15.8594C3.43268 15.8357 3.42288 15.8095 3.4033 15.757L2.10028 12.2643C1.68469 11.1504 2.61268 10 3.92689 10C4.7372 10 5.46079 10.4533 5.73699 11.1339L6.83511 13.84C6.93505 14.0863 6.98502 14.2094 7.05744 14.3101C7.22656 14.5452 7.49217 14.7116 7.79716 14.7735C7.92777 14.8 8.07437 14.8 8.36757 14.8H15.3467C15.9158 14.8 16.2004 14.8 16.4383 14.7019C16.5683 14.6484 16.6864 14.5744 16.787 14.4835C16.9713 14.317 17.0683 14.078 17.2623 13.6L18.263 11.1339C18.5392 10.4533 19.2628 10 20.0731 10C21.3873 10 22.3153 11.1504 21.8997 12.2643L20.7803 15.2649C20.5852 15.7879 20.4876 16.0494 20.3588 16.2717C20.0008 16.8892 19.4328 17.3776 18.75 17.6755V20C18.75 20.4143 18.4142 20.75 18 20.75C17.5858 20.75 17.25 20.4143 17.25 20V17.9954C17.0633 18 16.8352 18 16.5332 18Z" fill="black"/>
<path d="M13.2357 3.5H10.7643C9.66322 3.49999 8.78836 3.49998 8.10305 3.58773C7.39835 3.67797 6.81875 3.86871 6.35812 4.3074C5.89405 4.74937 5.68912 5.31102 5.59278 5.99349C5.49998 6.65087 5.49999 7.48809 5.5 8.53272V9.41279L5.71048 9.56228C6.12613 9.85748 6.46195 10.2607 6.66373 10.7579L7.89815 13.7999L15.3468 13.8C15.4911 13.8 15.6081 13.8 15.7101 13.7986L15.7122 13.7985L16.1 13.7916L16.2263 13.4912C16.2577 13.4164 16.2928 13.33 16.3358 13.224L17.3365 10.7579C17.5383 10.2607 17.874 9.85762 18.2896 9.56243L18.5 9.41294V8.53275C18.5 7.48811 18.5 6.65088 18.4072 5.99349C18.3109 5.31102 18.1059 4.74937 17.6419 4.3074C17.1813 3.86871 16.6017 3.67797 15.897 3.58773C15.2116 3.49998 14.3368 3.49999 13.2357 3.5Z" fill="black"/>
</svg>
