<svg width="24" height="24" viewBox="0 0 24 24" fill="none" xmlns="http://www.w3.org/2000/svg">
<path d="M11.25 10.5V7.25H9.50003C8.53602 7.25 7.88846 7.2516 7.40542 7.31654C6.94396 7.37858 6.74646 7.4858 6.61615 7.61612C6.48583 7.74644 6.37861 7.94393 6.31656 8.40539C6.25162 8.88843 6.25003 9.53599 6.25003 10.5L11.25 10.5Z" fill="black"/>
<path d="M17.75 10.5C17.75 9.53599 17.7484 8.88843 17.6835 8.40539C17.6215 7.94393 17.5142 7.74644 17.3839 7.61612C17.2536 7.4858 17.0561 7.37858 16.5946 7.31654C16.1116 7.2516 15.464 7.25 14.5 7.25H12.75V10.5L17.75 10.5Z" fill="black"/>
<path fill-rule="evenodd" clip-rule="evenodd" d="M13 4H11C7.22879 4 5.34317 4 4.1716 5.17157C3.14913 6.19404 3.019 7.76038 3.00244 10.6494V12.2665C2.6221 12.4854 2.322 12.8248 2.15224 13.2346C2 13.6022 2 14.0681 2 15C2 15.9319 2 16.3978 2.15224 16.7654C2.35523 17.2554 2.74458 17.6448 3.23463 17.8478C3.48702 17.9523 3.78581 17.9851 4.25 17.9953V20C4.25 20.4142 4.58579 20.75 5 20.75C5.41421 20.75 5.75 20.4142 5.75 20V18H18.25V20C18.25 20.4142 18.5858 20.75 19 20.75C19.4142 20.75 19.75 20.4142 19.75 20V17.9953C20.2142 17.9851 20.513 17.9523 20.7654 17.8478C21.2554 17.6448 21.6448 17.2554 21.8478 16.7654C22 16.3978 22 15.9319 22 15C22 14.0681 22 13.6022 21.8478 13.2346C21.678 12.8248 21.3779 12.4854 20.9976 12.2666V10.6494C20.9811 7.76038 20.8509 6.19404 19.8285 5.17157C18.6569 4 16.7713 4 13 4ZM19.25 12.0001V10.448C19.2501 9.54955 19.2501 8.80028 19.1701 8.20552C19.0857 7.57773 18.9 7.01093 18.4446 6.55546C17.9891 6.09999 17.4223 5.91432 16.7945 5.82991C16.1997 5.74995 15.4505 5.74997 14.552 5.75H9.44803C8.54955 5.74997 7.80033 5.74995 7.20555 5.82991C6.57776 5.91432 6.01095 6.09999 5.55549 6.55546C5.10002 7.01093 4.91434 7.57773 4.82994 8.20552C4.74997 8.8003 4.75 9.54952 4.75003 10.448V12.0001C4.82946 12 4.91269 12 5 12H19C19.0873 12 19.1706 12 19.25 12.0001Z" fill="black"/>
</svg>
