<svg width="24" height="24" viewBox="0 0 24 24" fill="none" xmlns="http://www.w3.org/2000/svg">
<path d="M7.57198 3.06161C6.9903 3.74872 6.86962 4.75442 6.62825 6.76581L6.53734 7.52342C6.28684 9.61087 6.1616 10.6546 6.7584 11.3273C7.35521 12 8.40642 12 10.5088 12H11.25V13.75H7C6.67904 13.75 6.37825 13.8364 6.11965 13.9872L5.84069 13.1504C5.77196 12.9441 5.72347 12.7986 5.63468 12.6071C5.5488 12.4218 5.50507 12.3485 5.43659 12.2359C5.15168 11.7674 4.78052 11.3604 4.17911 11.0952C3.61274 10.8454 2.90513 10.75 2 10.75C1.58579 10.75 1.25 11.0858 1.25 11.5C1.25 11.9142 1.58579 12.25 2 12.25C2.82738 12.25 3.28947 12.3422 3.57378 12.4676C3.82305 12.5776 3.98353 12.7334 4.15499 13.0153C4.18539 13.0653 4.19799 13.0863 4.21147 13.111C4.22448 13.135 4.24208 13.1695 4.2738 13.2379C4.32447 13.3472 4.34889 13.4184 4.42333 13.6417L5.28849 16.2372C5.32093 16.3345 5.37138 16.4207 5.43491 16.4934C5.83324 17.5212 6.83152 18.25 8 18.25H11.25V19.416C10.0934 19.741 9.16984 20.6188 8.78849 21.7628C8.6575 22.1558 8.86987 22.5805 9.26283 22.7115C9.65579 22.8425 10.0805 22.6301 10.2115 22.2372C10.3885 21.7061 10.7646 21.2729 11.25 21.0206V22C11.25 22.4142 11.5858 22.75 12 22.75C12.4142 22.75 12.75 22.4142 12.75 22V21.0206C13.2354 21.2729 13.6115 21.7061 13.7885 22.2372C13.9195 22.6301 14.3442 22.8425 14.7372 22.7115C15.1301 22.5805 15.3425 22.1558 15.2115 21.7628C14.8302 20.6188 13.9066 19.741 12.75 19.416V18.25H16C17.1685 18.25 18.1668 17.5212 18.5651 16.4934C18.6286 16.4207 18.6791 16.3345 18.7115 16.2372L19.5767 13.6417C19.6511 13.4184 19.6755 13.3472 19.7262 13.2379C19.7579 13.1695 19.7755 13.135 19.7885 13.111C19.802 13.0863 19.8146 13.0653 19.845 13.0153C20.0165 12.7334 20.177 12.5776 20.4262 12.4676C20.7105 12.3422 21.1726 12.25 22 12.25C22.4142 12.25 22.75 11.9142 22.75 11.5C22.75 11.0858 22.4142 10.75 22 10.75C21.0949 10.75 20.3873 10.8454 19.8209 11.0952C19.2195 11.3604 18.8483 11.7674 18.5634 12.2359C18.4949 12.3485 18.4512 12.4218 18.3653 12.6071C18.2765 12.7986 18.228 12.9441 18.1593 13.1504L17.8804 13.9872C17.6217 13.8364 17.321 13.75 17 13.75H12.75V12H13.4914C15.5939 12 16.6451 12 17.2419 11.3273C17.8387 10.6546 17.7134 9.61087 17.463 7.52342L17.372 6.76581C17.1307 4.75442 17.01 3.74872 16.4283 3.06161C16.2437 2.84355 16.0289 2.65298 15.7904 2.49567C15.0389 2 14.026 2 12.0001 2C9.97432 2 8.96141 2 8.2099 2.49567C7.97139 2.65298 7.75659 2.84355 7.57198 3.06161Z" fill="black"/>
</svg>
