<svg width="24" height="24" viewBox="0 0 24 24" fill="none" xmlns="http://www.w3.org/2000/svg">
<path fill-rule="evenodd" clip-rule="evenodd" d="M6.83521 16.8293C7.20569 17.0146 7.35586 17.4651 7.17062 17.8356L6.98684 18.2031C6.94237 18.2921 6.9598 18.3995 7.03013 18.4698C7.55699 18.9967 7.68761 19.8016 7.35439 20.468L7.17062 20.8356C6.98537 21.2061 6.53487 21.3562 6.16439 21.171C5.7939 20.9857 5.64373 20.5352 5.82897 20.1648L6.01275 19.7972C6.05722 19.7083 6.03979 19.6008 5.96947 19.5305C5.4426 19.0036 5.31198 18.1987 5.6452 17.5323L5.82897 17.1648C6.01422 16.7943 6.46472 16.6441 6.83521 16.8293Z" fill="black"/>
<path fill-rule="evenodd" clip-rule="evenodd" d="M17.8352 16.8293C18.2057 17.0146 18.3559 17.4651 18.1706 17.8356L17.9868 18.2031C17.9424 18.2921 17.9598 18.3995 18.0301 18.4698C18.557 18.9967 18.6876 19.8016 18.3544 20.468L18.1706 20.8356C17.9854 21.2061 17.5349 21.3562 17.1644 21.171C16.7939 20.9857 16.6437 20.5352 16.829 20.1648L17.0127 19.7972C17.0572 19.7083 17.0398 19.6008 16.9695 19.5305C16.4426 19.0036 16.312 18.1987 16.6452 17.5323L16.829 17.1648C17.0142 16.7943 17.4647 16.6441 17.8352 16.8293Z" fill="black"/>
<path fill-rule="evenodd" clip-rule="evenodd" d="M12.4159 16.876C12.7606 17.1058 12.8537 17.5715 12.6239 17.9161L12.3173 18.376C12.1491 18.6284 12.2073 18.9681 12.4499 19.1501C13.3294 19.8097 13.5404 21.0415 12.9305 21.9562L12.6239 22.4161C12.3942 22.7608 11.9285 22.8539 11.5839 22.6241C11.2392 22.3944 11.1461 21.9287 11.3758 21.5841L11.6825 21.1241C11.8507 20.8718 11.7925 20.532 11.5499 20.3501C10.6704 19.6905 10.4594 18.4587 11.0692 17.544L11.3758 17.0841C11.6056 16.7394 12.0713 16.6463 12.4159 16.876Z" fill="black"/>
<path fill-rule="evenodd" clip-rule="evenodd" d="M6 2H18C19.8856 2 20.8284 2 21.4142 2.58579C22 3.17157 22 4.11438 22 6V9C22 11.8284 22 13.2426 21.1213 14.1213C20.5902 14.6524 19.8634 14.8625 18.7469 14.9456C18.7417 14.2769 18.7273 13.5437 18.6884 13.2542C18.6223 12.7625 18.4732 12.2913 18.091 11.909C17.7087 11.5268 17.2375 11.3777 16.7458 11.3116C16.2871 11.2499 15.7142 11.25 15.0494 11.25H8.95063C8.28576 11.25 7.7129 11.2499 7.25416 11.3116C6.76252 11.3777 6.29126 11.5268 5.90901 11.909C5.52676 12.2913 5.37771 12.7625 5.31161 13.2542C5.27268 13.5437 5.25834 14.2769 5.25306 14.9456C4.13657 14.8625 3.4098 14.6524 2.87868 14.1213C2 13.2426 2 11.8284 2 9V6C2 4.11438 2 3.17157 2.58579 2.58579C3.17157 2 4.11438 2 6 2ZM5.25 8.5C5.25 8.08579 5.58579 7.75 6 7.75H18C18.4142 7.75 18.75 8.08579 18.75 8.5C18.75 8.91421 18.4142 9.25 18 9.25H6C5.58579 9.25 5.25 8.91421 5.25 8.5ZM5.25 6C5.25 5.58579 5.58579 5.25 6 5.25H18C18.4142 5.25 18.75 5.58579 18.75 6C18.75 6.41422 18.4142 6.75 18 6.75H6C5.58579 6.75 5.25 6.41422 5.25 6Z" fill="black"/>
<path d="M16 15H8C7.54957 15 7.135 15 6.75275 14.9965C6.75717 14.3477 6.76862 13.6743 6.79823 13.454C6.84197 13.1287 6.91258 13.0268 6.96967 12.9697C7.02676 12.9126 7.12872 12.842 7.45403 12.7982C7.80091 12.7516 8.27169 12.75 9 12.75H15C15.7283 12.75 16.1991 12.7516 16.546 12.7982C16.8713 12.842 16.9732 12.9126 17.0303 12.9697C17.0874 13.0268 17.158 13.1287 17.2018 13.454C17.2314 13.6743 17.2428 14.3477 17.2473 14.9965C16.865 15 16.4504 15 16 15Z" fill="black"/>
</svg>
