<svg width="24" height="24" viewBox="0 0 24 24" fill="none" xmlns="http://www.w3.org/2000/svg">
<path d="M9.75 15.5C9.75 14.2574 10.7574 13.25 12 13.25C13.2426 13.25 14.25 14.2574 14.25 15.5C14.25 16.7426 13.2426 17.75 12 17.75C10.7574 17.75 9.75 16.7426 9.75 15.5Z" fill="black"/>
<path fill-rule="evenodd" clip-rule="evenodd" d="M5.67412 3.77772C5 4.78661 5 6.19108 5 9V15C5 17.8089 5 19.2134 5.67412 20.2223C5.96596 20.659 6.34096 21.034 6.77772 21.3259C7.78661 22 9.19108 22 12 22C14.8089 22 16.2134 22 17.2223 21.3259C17.659 21.034 18.034 20.659 18.3259 20.2223C19 19.2134 19 17.8089 19 15V9C19 6.19108 19 4.78661 18.3259 3.77772C18.034 3.34096 17.659 2.96596 17.2223 2.67412C16.2134 2 14.8089 2 12 2C9.19108 2 7.78661 2 6.77772 2.67412C6.34096 2.96596 5.96596 3.34096 5.67412 3.77772ZM12 11.75C9.92893 11.75 8.25 13.4289 8.25 15.5C8.25 17.5711 9.92893 19.25 12 19.25C14.0711 19.25 15.75 17.5711 15.75 15.5C15.75 13.4289 14.0711 11.75 12 11.75ZM11 9.5C11 10.0523 10.5523 10.5 10 10.5C9.44772 10.5 9 10.0523 9 9.5C9 8.94772 9.44772 8.5 10 8.5C10.5523 8.5 11 8.94772 11 9.5ZM10 7C10.5523 7 11 6.55228 11 6C11 5.44772 10.5523 5 10 5C9.44772 5 9 5.44772 9 6C9 6.55228 9.44772 7 10 7ZM15 9.5C15 10.0523 14.5523 10.5 14 10.5C13.4477 10.5 13 10.0523 13 9.5C13 8.94772 13.4477 8.5 14 8.5C14.5523 8.5 15 8.94772 15 9.5ZM14 7C14.5523 7 15 6.55228 15 6C15 5.44772 14.5523 5 14 5C13.4477 5 13 5.44772 13 6C13 6.55228 13.4477 7 14 7Z" fill="black"/>
</svg>
