<svg width="24" height="24" viewBox="0 0 24 24" fill="none" xmlns="http://www.w3.org/2000/svg">
<path d="M12 6.5C10.7574 6.5 9.75 7.50736 9.75 8.75C9.75 9.99264 10.7574 11 12 11C13.2426 11 14.25 9.99264 14.25 8.75C14.25 7.50736 13.2426 6.5 12 6.5Z" fill="black"/>
<path fill-rule="evenodd" clip-rule="evenodd" d="M18.5209 19.3316C16.7701 20.8389 14.4915 21.75 12 21.75C9.50853 21.75 7.22987 20.8389 5.47906 19.3316L2.53033 22.2803C2.23744 22.5732 1.76256 22.5732 1.46967 22.2803C1.17678 21.9874 1.17678 21.5126 1.46967 21.2197L4.4184 18.2709C2.91114 16.5201 2 14.2415 2 11.75C2 6.22715 6.47715 1.75 12 1.75C17.5228 1.75 22 6.22715 22 11.75C22 14.2415 21.0889 16.5201 19.5816 18.2709L22.5303 21.2197C22.8232 21.5126 22.8232 21.9874 22.5303 22.2803C22.2374 22.5732 21.7626 22.5732 21.4697 22.2803L18.5209 19.3316ZM8.25 8.75C8.25 6.67893 9.92893 5 12 5C14.0711 5 15.75 6.67893 15.75 8.75C15.75 10.8211 14.0711 12.5 12 12.5C9.92893 12.5 8.25 10.8211 8.25 8.75ZM12.75 15.75C12.75 15.3358 12.4142 15 12 15C11.5858 15 11.25 15.3358 11.25 15.75V17.75C11.25 18.1642 11.5858 18.5 12 18.5C12.4142 18.5 12.75 18.1642 12.75 17.75V15.75Z" fill="black"/>
</svg>
