<svg width="24" height="24" viewBox="0 0 24 24" fill="none" xmlns="http://www.w3.org/2000/svg">
<path d="M9.75 9C9.75 7.75736 10.7574 6.75 12 6.75C13.2426 6.75 14.25 7.75736 14.25 9C14.25 10.2426 13.2426 11.25 12 11.25C10.7574 11.25 9.75 10.2426 9.75 9Z" fill="black"/>
<path fill-rule="evenodd" clip-rule="evenodd" d="M21.2093 15.904C21.7184 14.7045 22 13.3852 22 12C22 6.47715 17.5228 2 12 2C6.47715 2 2 6.47715 2 12C2 13.385 2.28157 14.7043 2.79059 15.9036L2.70455 15.9998C2.1112 16.6627 1.74951 17.54 1.74951 18.5C1.74951 20.571 3.42844 22.25 5.49951 22.25C6.45947 22.25 7.33675 21.8883 7.9997 21.2949L8.09559 21.2091C9.29517 21.7183 10.6147 22 12 22C13.3852 22 14.7046 21.7184 15.9041 21.2092L15.9998 21.2949C16.6628 21.8883 17.54 22.25 18.5 22.25C20.5711 22.25 22.25 20.571 22.25 18.5C22.25 17.54 21.8883 16.6627 21.295 15.9998L21.2093 15.904ZM20.442 17.3627C19.6539 18.6008 18.6008 19.6538 17.3627 20.442C17.6964 20.6379 18.0846 20.75 18.5 20.75C19.7426 20.75 20.75 19.7426 20.75 18.5C20.75 18.0846 20.638 17.6963 20.442 17.3627ZM6.63705 20.4418C5.39891 19.6536 4.34587 18.6005 3.55776 17.3623C3.36165 17.696 3.24951 18.0844 3.24951 18.5C3.24951 19.7426 4.25687 20.75 5.49951 20.75C5.91499 20.75 6.30335 20.6379 6.63705 20.4418ZM12 5.25C9.92893 5.25 8.25 6.92893 8.25 9C8.25 11.0711 9.92893 12.75 12 12.75C14.0711 12.75 15.75 11.0711 15.75 9C15.75 6.92893 14.0711 5.25 12 5.25ZM12 15.25C12.4142 15.25 12.75 15.5858 12.75 16V18C12.75 18.4142 12.4142 18.75 12 18.75C11.5858 18.75 11.25 18.4142 11.25 18V16C11.25 15.5858 11.5858 15.25 12 15.25Z" fill="black"/>
</svg>
