<svg width="24" height="24" viewBox="0 0 24 24" fill="none" xmlns="http://www.w3.org/2000/svg">
<path fill-rule="evenodd" clip-rule="evenodd" d="M9.94513 1.25H14.0549C15.4225 1.24998 16.5248 1.24996 17.3918 1.36652C18.2919 1.48754 19.0497 1.74643 19.6517 2.34835C20.2536 2.95027 20.5125 3.70814 20.6335 4.60825C20.75 5.47522 20.75 6.57754 20.75 7.94513V16.0549C20.75 17.4225 20.75 18.5248 20.6335 19.3918C20.5125 20.2919 20.2536 21.0497 19.6517 21.6517C19.0497 22.2536 18.2919 22.5125 17.3918 22.6335C16.5248 22.75 15.4225 22.75 14.0549 22.75H9.94513C8.57754 22.75 7.47522 22.75 6.60825 22.6335C5.70814 22.5125 4.95027 22.2536 4.34835 21.6517C3.74644 21.0497 3.48754 20.2919 3.36653 19.3918C3.32783 19.1039 3.30198 18.7902 3.28472 18.4494C3.24564 18.326 3.23803 18.1912 3.26876 18.0568C3.24998 17.4649 3.24999 16.7991 3.25 16.0549V7.94513C3.24998 6.57754 3.24997 5.47522 3.36653 4.60825C3.48754 3.70814 3.74644 2.95027 4.34835 2.34835C4.95027 1.74643 5.70814 1.48754 6.60825 1.36652C7.47522 1.24996 8.57754 1.24998 9.94513 1.25ZM4.77676 18.2491C4.79196 18.6029 4.81579 18.914 4.85315 19.1919C4.9518 19.9257 5.13225 20.3142 5.40901 20.591C5.68578 20.8678 6.07435 21.0482 6.80812 21.1469C7.56347 21.2484 8.56459 21.25 10 21.25H14C15.4354 21.25 16.4365 21.2484 17.1919 21.1469C17.9257 21.0482 18.3142 20.8678 18.591 20.591C18.7873 20.3947 18.9352 20.1421 19.0397 19.75H8C7.58579 19.75 7.25 19.4142 7.25 19C7.25 18.5858 7.58579 18.25 8 18.25H19.2232C19.2417 17.819 19.2475 17.3246 19.2492 16.75H7.89778C6.91952 16.75 6.57752 16.7564 6.31544 16.8267C5.59612 17.0194 5.02268 17.5541 4.77676 18.2491ZM19.25 15.25H7.89778C7.85861 15.25 7.82001 15.25 7.78198 15.25C6.96402 15.2497 6.40587 15.2495 5.92721 15.3778C5.49923 15.4925 5.10224 15.6798 4.75 15.9259V8C4.75 6.56458 4.7516 5.56347 4.85315 4.80812C4.9518 4.07435 5.13225 3.68577 5.40901 3.40901C5.68578 3.13225 6.07435 2.9518 6.80812 2.85315C7.56347 2.75159 8.56459 2.75 10 2.75H14C15.4354 2.75 16.4365 2.75159 17.1919 2.85315C17.9257 2.9518 18.3142 3.13225 18.591 3.40901C18.8678 3.68577 19.0482 4.07435 19.1469 4.80812C19.2484 5.56347 19.25 6.56458 19.25 8V15.25ZM7.25 7C7.25 6.58579 7.58579 6.25 8 6.25H16C16.4142 6.25 16.75 6.58579 16.75 7C16.75 7.41421 16.4142 7.75 16 7.75H8C7.58579 7.75 7.25 7.41421 7.25 7ZM7.25 10.5C7.25 10.0858 7.58579 9.75 8 9.75H13C13.4142 9.75 13.75 10.0858 13.75 10.5C13.75 10.9142 13.4142 11.25 13 11.25H8C7.58579 11.25 7.25 10.9142 7.25 10.5Z" fill="black"/>
</svg>
