<svg width="24" height="24" viewBox="0 0 24 24" fill="none" xmlns="http://www.w3.org/2000/svg">
<path d="M7.25 7C7.25 6.58579 7.58579 6.25 8 6.25H16C16.4142 6.25 16.75 6.58579 16.75 7C16.75 7.41422 16.4142 7.75 16 7.75H8C7.58579 7.75 7.25 7.41422 7.25 7Z" fill="black"/>
<path d="M8 9.75C7.58579 9.75 7.25 10.0858 7.25 10.5C7.25 10.9142 7.58579 11.25 8 11.25H13C13.4142 11.25 13.75 10.9142 13.75 10.5C13.75 10.0858 13.4142 9.75 13 9.75H8Z" fill="black"/>
<path fill-rule="evenodd" clip-rule="evenodd" d="M9.94513 1.25C8.57754 1.24998 7.47521 1.24996 6.60825 1.36652C5.70814 1.48754 4.95027 1.74643 4.34835 2.34835C3.74643 2.95027 3.48754 3.70814 3.36652 4.60825C3.24996 5.47521 3.24998 6.57753 3.25 7.94512V16.0549C3.24998 17.4225 3.24996 18.5248 3.36652 19.3918C3.48754 20.2919 3.74643 21.0497 4.34835 21.6517C4.95027 22.2536 5.70814 22.5125 6.60825 22.6335C7.47522 22.75 8.57754 22.75 9.94513 22.75H14.0549C15.4225 22.75 16.5248 22.75 17.3918 22.6335C18.2919 22.5125 19.0497 22.2536 19.6517 21.6517C20.2536 21.0497 20.5125 20.2919 20.6335 19.3918C20.75 18.5248 20.75 17.4225 20.75 16.0549V7.94513C20.75 6.57754 20.75 5.47522 20.6335 4.60825C20.5125 3.70814 20.2536 2.95027 19.6517 2.34835C19.0497 1.74643 18.2919 1.48754 17.3918 1.36652C16.5248 1.24996 15.4225 1.24998 14.0549 1.25H9.94513ZM5.40901 3.40901C5.68577 3.13225 6.07435 2.9518 6.80812 2.85315C7.56347 2.75159 8.56459 2.75 10 2.75H14C15.4354 2.75 16.4365 2.75159 17.1919 2.85315C17.9257 2.9518 18.3142 3.13225 18.591 3.40901C18.8678 3.68577 19.0482 4.07435 19.1469 4.80812C19.2484 5.56347 19.25 6.56459 19.25 8V15.25L7.78198 15.25C6.96402 15.2497 6.40587 15.2495 5.92721 15.3778C5.49923 15.4925 5.10224 15.6798 4.75 15.9259V8C4.75 6.56459 4.75159 5.56347 4.85315 4.80812C4.9518 4.07435 5.13225 3.68577 5.40901 3.40901ZM4.77676 18.2491C4.79196 18.6029 4.81579 18.914 4.85315 19.1919C4.9518 19.9257 5.13225 20.3142 5.40901 20.591C5.68577 20.8678 6.07435 21.0482 6.80812 21.1469C7.56347 21.2484 8.56459 21.25 10 21.25H14C15.4354 21.25 16.4365 21.2484 17.1919 21.1469C17.9257 21.0482 18.3142 20.8678 18.591 20.591C18.8678 20.3142 19.0482 19.9257 19.1469 19.1919C19.2297 18.5756 19.246 17.7958 19.2492 16.75H7.89778C6.91952 16.75 6.57752 16.7564 6.31544 16.8267C5.59612 17.0194 5.02268 17.5541 4.77676 18.2491Z" fill="black"/>
</svg>
