<svg width="24" height="24" viewBox="0 0 24 24" fill="none" xmlns="http://www.w3.org/2000/svg">
<path fill-rule="evenodd" clip-rule="evenodd" d="M11.9426 1.25C9.63423 1.24999 7.82519 1.24998 6.41371 1.43975C4.96897 1.63399 3.82895 2.03933 2.93414 2.93414C2.03933 3.82895 1.63399 4.96897 1.43975 6.41371C1.24998 7.82519 1.24999 9.63423 1.25 11.9426V12.0574C1.24999 14.3658 1.24998 16.1748 1.43975 17.5863C1.63399 19.031 2.03933 20.1711 2.93414 21.0659C3.82895 21.9607 4.96897 22.366 6.41371 22.5603C7.82519 22.75 9.63423 22.75 11.9426 22.75H12.0574C14.3658 22.75 16.1748 22.75 17.5863 22.5603C19.031 22.366 20.1711 21.9607 21.0659 21.0659C21.9607 20.1711 22.366 19.031 22.5603 17.5863C22.75 16.1748 22.75 14.3658 22.75 12.0574V11.9426C22.75 9.63423 22.75 7.82519 22.5603 6.41371C22.366 4.96897 21.9607 3.82895 21.0659 2.93414C20.1711 2.03933 19.031 1.63399 17.5863 1.43975C16.1748 1.24998 14.3658 1.24999 12.0574 1.25H11.9426ZM6.25 2.98181C5.18517 3.16506 4.50829 3.4813 3.9948 3.9948C3.42514 4.56445 3.09825 5.33517 2.92637 6.61358C2.75159 7.91356 2.75 9.62177 2.75 12C2.75 14.3782 2.75159 16.0864 2.92637 17.3864C3.09825 18.6648 3.42514 19.4355 3.9948 20.0052C4.56445 20.5749 5.33517 20.9018 6.61358 21.0736C7.91356 21.2484 9.62177 21.25 12 21.25C14.3782 21.25 16.0864 21.2484 17.3864 21.0736C18.6648 20.9018 19.4355 20.5749 20.0052 20.0052C20.5749 19.4355 20.9018 18.6648 21.0736 17.3864C21.2484 16.0864 21.25 14.3782 21.25 12C21.25 9.62177 21.2484 7.91356 21.0736 6.61358C20.9018 5.33517 20.5749 4.56445 20.0052 3.9948C19.4917 3.4813 18.8148 3.16506 17.75 2.98181V8.83102C17.75 9.29856 17.75 9.68212 17.7326 9.98389C17.7155 10.2816 17.6786 10.5899 17.5563 10.8652C17.1149 11.859 16.0259 12.3949 14.9691 12.1383C14.6764 12.0673 14.4096 11.9084 14.1633 11.7404C13.9136 11.57 13.6097 11.336 13.2392 11.0508L13.2207 11.0365C12.7513 10.6751 12.6192 10.5804 12.4981 10.5277C12.1804 10.3897 11.8196 10.3897 11.5019 10.5277C11.3808 10.5804 11.2487 10.6751 10.7793 11.0365L10.7608 11.0508C10.3903 11.336 10.0864 11.57 9.83672 11.7404C9.59039 11.9084 9.32356 12.0673 9.03086 12.1383C7.97413 12.3949 6.88513 11.859 6.44371 10.8652C6.32145 10.5899 6.28454 10.2816 6.26739 9.98389C6.24999 9.68211 6.25 9.29859 6.25 8.83103V2.98181ZM16.25 2.81997C15.1242 2.75085 13.7418 2.75 12 2.75C10.2582 2.75 8.87584 2.75085 7.75 2.81997V8.8076C7.75 9.30433 7.7503 9.64424 7.7649 9.89758C7.78003 10.1601 7.80769 10.2408 7.81457 10.2563C7.96171 10.5876 8.32471 10.7662 8.67695 10.6807C8.69342 10.6767 8.77428 10.6493 8.99148 10.5012C9.20112 10.3582 9.47062 10.151 9.86419 9.84799L9.9312 9.79636C10.3014 9.51094 10.5899 9.28851 10.9042 9.15196C11.6032 8.84828 12.3968 8.84828 13.0958 9.15196C13.4101 9.28851 13.6986 9.51094 14.0688 9.79636L14.1358 9.84799C14.5294 10.151 14.7989 10.3582 15.0085 10.5012C15.2257 10.6493 15.3066 10.6767 15.323 10.6807C15.6753 10.7662 16.0383 10.5876 16.1854 10.2563C16.1923 10.2408 16.22 10.1601 16.2351 9.89758C16.2497 9.64424 16.25 9.30433 16.25 8.8076V2.81997Z" fill="black"/>
</svg>
