<svg width="24" height="24" viewBox="0 0 24 24" fill="none" xmlns="http://www.w3.org/2000/svg">
<path fill-rule="evenodd" clip-rule="evenodd" d="M8.25 14.0001C8.25 11.9291 9.92893 10.2501 12 10.2501C14.0711 10.2501 15.75 11.9291 15.75 14.0001C15.75 16.0712 14.0711 17.7501 12 17.7501C9.92893 17.7501 8.25 16.0712 8.25 14.0001ZM12 11.7501C10.7574 11.7501 9.75 12.7575 9.75 14.0001C9.75 15.2428 10.7574 16.2501 12 16.2501C13.2426 16.2501 14.25 15.2428 14.25 14.0001C14.25 12.7575 13.2426 11.7501 12 11.7501Z" fill="black"/>
<path fill-rule="evenodd" clip-rule="evenodd" d="M18.75 4.30618C18.75 2.63267 17.2678 1.34715 15.6111 1.58382L4.81353 3.12633C3.91638 3.25449 3.25 4.02284 3.25 4.92909C3.25 4.95289 3.25046 4.97657 3.25136 5.00014H3.25V19.0001C3.25 21.0712 4.92893 22.7501 7 22.7501H17C19.0711 22.7501 20.75 21.0712 20.75 19.0001V9.00014C20.75 7.56112 19.9395 6.31141 18.75 5.68266V4.30618ZM5.06244 6.75014C5.06531 6.75015 5.06819 6.75016 5.07107 6.75016H17.0096C18.2478 6.75533 19.25 7.7607 19.25 9.00014V19.0001C19.25 20.2428 18.2426 21.2501 17 21.2501H7C5.75736 21.2501 4.75 20.2428 4.75 19.0001V6.75014H5.06244ZM17.0125 5.25016H17.25V4.30618C17.25 3.54549 16.5763 2.96117 15.8232 3.06874L5.02566 4.61125C4.86749 4.63385 4.75 4.76931 4.75 4.92909C4.75 5.10519 4.89177 5.24818 5.0674 5.25014H17C17.0042 5.25014 17.0084 5.25015 17.0125 5.25016Z" fill="black"/>
</svg>
