<svg width="24" height="24" viewBox="0 0 24 24" fill="none" xmlns="http://www.w3.org/2000/svg">
<path fill-rule="evenodd" clip-rule="evenodd" d="M3.46447 3.46447C2 4.92893 2 7.28595 2 12C2 16.714 2 19.0711 3.46447 20.5355C4.92893 22 7.28595 22 12 22C16.714 22 19.0711 22 20.5355 20.5355C22 19.0711 22 16.714 22 12C22 7.28595 22 4.92893 20.5355 3.46447C19.0711 2 16.714 2 12 2C7.28595 2 4.92893 2 3.46447 3.46447ZM10.5431 7.51724C10.8288 7.2173 10.8172 6.74256 10.5172 6.4569C10.2173 6.17123 9.74256 6.18281 9.4569 6.48276L7.14286 8.9125L6.5431 8.28276C6.25744 7.98281 5.78271 7.97123 5.48276 8.2569C5.18281 8.54256 5.17123 9.01729 5.4569 9.31724L6.59976 10.5172C6.74131 10.6659 6.9376 10.75 7.14286 10.75C7.34812 10.75 7.5444 10.6659 7.68596 10.5172L10.5431 7.51724ZM13 8.25C12.5858 8.25 12.25 8.58579 12.25 9C12.25 9.41422 12.5858 9.75 13 9.75H18C18.4142 9.75 18.75 9.41422 18.75 9C18.75 8.58579 18.4142 8.25 18 8.25H13ZM10.5431 14.5172C10.8288 14.2173 10.8172 13.7426 10.5172 13.4569C10.2173 13.1712 9.74256 13.1828 9.4569 13.4828L7.14286 15.9125L6.5431 15.2828C6.25744 14.9828 5.78271 14.9712 5.48276 15.2569C5.18281 15.5426 5.17123 16.0173 5.4569 16.3172L6.59976 17.5172C6.74131 17.6659 6.9376 17.75 7.14286 17.75C7.34812 17.75 7.5444 17.6659 7.68596 17.5172L10.5431 14.5172ZM13 15.25C12.5858 15.25 12.25 15.5858 12.25 16C12.25 16.4142 12.5858 16.75 13 16.75H18C18.4142 16.75 18.75 16.4142 18.75 16C18.75 15.5858 18.4142 15.25 18 15.25H13Z" fill="black"/>
</svg>
