<svg width="24" height="24" viewBox="0 0 24 24" fill="none" xmlns="http://www.w3.org/2000/svg">
<path fill-rule="evenodd" clip-rule="evenodd" d="M2.25 4C2.25 3.58579 2.58579 3.25 3 3.25H20C20.4142 3.25 20.75 3.58579 20.75 4C20.75 4.41421 20.4142 4.75 20 4.75H3C2.58579 4.75 2.25 4.41421 2.25 4ZM2.25 9C2.25 8.58579 2.58579 8.25 3 8.25H12C12.4142 8.25 12.75 8.58579 12.75 9C12.75 9.41421 12.4142 9.75 12 9.75H3C2.58579 9.75 2.25 9.41421 2.25 9ZM2.25 14C2.25 13.5858 2.58579 13.25 3 13.25H8C8.41421 13.25 8.75 13.5858 8.75 14C8.75 14.4142 8.41421 14.75 8 14.75H3C2.58579 14.75 2.25 14.4142 2.25 14Z" fill="black"/>
<path d="M19.3446 6.99286C19.6232 6.8902 19.9559 6.80212 20.3149 6.8678C20.7572 6.9487 21.1513 7.19672 21.4156 7.56043C21.6302 7.8557 21.6948 8.19367 21.7228 8.48928C21.75 8.77699 21.75 9.13579 21.75 9.5446L21.75 9.57892L21.7501 9.65454C21.7509 9.95464 21.7518 10.2752 21.644 10.5704C21.559 10.8035 21.4254 11.0159 21.252 11.1934C21.0324 11.4183 20.7431 11.5562 20.4722 11.6854L20.404 11.718L18.6185 12.575C18.25 12.752 17.9266 12.9072 17.6554 13.0071C17.3936 13.1036 17.0842 13.1872 16.75 13.1425V17.4286C16.75 19.2429 15.3147 20.75 13.5 20.75C11.6853 20.75 10.25 19.2429 10.25 17.4286C10.25 15.6143 11.6853 14.1071 13.5 14.1071C14.1477 14.1071 14.747 14.2991 15.25 14.6285V11H15.2529C15.25 10.8312 15.25 10.6489 15.25 10.4554L15.25 10.4211L15.2499 10.3455C15.2491 10.0454 15.2482 9.72485 15.356 9.42957C15.441 9.19646 15.5746 8.98411 15.748 8.80658C15.9676 8.5817 16.2569 8.44376 16.5278 8.31461L16.596 8.282L18.3814 7.42498C18.75 7.24806 19.0734 7.09278 19.3446 6.99286Z" fill="black"/>
</svg>
