<svg width="24" height="24" viewBox="0 0 24 24" fill="none" xmlns="http://www.w3.org/2000/svg">
<path fill-rule="evenodd" clip-rule="evenodd" d="M16.7628 3.28854C17.0691 3.18645 17.4063 3.29179 17.6 3.55005L20.6 7.55005C20.8485 7.88142 20.7814 8.35152 20.45 8.60005C20.1186 8.84858 19.6485 8.78142 19.4 8.45005L17.75 6.25005V20C17.75 20.4143 17.4142 20.75 17 20.75C16.5858 20.75 16.25 20.4143 16.25 20V4.00005C16.25 3.67723 16.4566 3.39062 16.7628 3.28854ZM3.25 8.00005C3.25 7.58583 3.58579 7.25005 4 7.25005H13C13.4142 7.25005 13.75 7.58583 13.75 8.00005C13.75 8.41426 13.4142 8.75005 13 8.75005H4C3.58579 8.75005 3.25 8.41426 3.25 8.00005ZM5.25 13C5.25 12.5858 5.58579 12.25 6 12.25H13C13.4142 12.25 13.75 12.5858 13.75 13C13.75 13.4143 13.4142 13.75 13 13.75H6C5.58579 13.75 5.25 13.4143 5.25 13ZM7.25 18C7.25 17.5858 7.58579 17.25 8 17.25H13C13.4142 17.25 13.75 17.5858 13.75 18C13.75 18.4143 13.4142 18.75 13 18.75H8C7.58579 18.75 7.25 18.4143 7.25 18Z" fill="black"/>
</svg>
