<svg width="24" height="24" viewBox="0 0 24 24" fill="none" xmlns="http://www.w3.org/2000/svg">
<path fill-rule="evenodd" clip-rule="evenodd" d="M18.4697 13.4697C18.7626 13.1768 19.2374 13.1768 19.5303 13.4697L21.5303 15.4697C21.8232 15.7626 21.8232 16.2374 21.5303 16.5303C21.2374 16.8232 20.7626 16.8232 20.4697 16.5303L19.75 15.8107V20C19.75 20.4142 19.4142 20.75 19 20.75C18.5858 20.75 18.25 20.4142 18.25 20V15.8107L17.5303 16.5303C17.2374 16.8232 16.7626 16.8232 16.4697 16.5303C16.1768 16.2374 16.1768 15.7626 16.4697 15.4697L18.4697 13.4697Z" fill="black"/>
<path d="M10 4H14C17.7712 4 19.6569 4 20.8284 5.17157C21.672 6.01511 21.9082 7.22882 21.9743 9.25H2.02572C2.09185 7.22882 2.32803 6.01511 3.17157 5.17157C4.34315 4 6.22876 4 10 4Z" fill="black"/>
<path fill-rule="evenodd" clip-rule="evenodd" d="M10 20H14C15.0559 20 15.964 20 16.75 19.9743V18.2362C16.2601 18.1817 15.7847 17.9666 15.409 17.591C14.5303 16.7123 14.5303 15.2877 15.409 14.409L17.409 12.409C18.2877 11.5303 19.7123 11.5303 20.591 12.409L21.9937 13.8118C22 13.2613 22 12.6595 22 12C22 11.5581 22 11.142 21.9981 10.75H2.00189C2 11.142 2 11.5581 2 12C2 15.7712 2 17.6569 3.17157 18.8284C4.34315 20 6.22876 20 10 20ZM5.25 16C5.25 15.5858 5.58579 15.25 6 15.25H10C10.4142 15.25 10.75 15.5858 10.75 16C10.75 16.4142 10.4142 16.75 10 16.75H6C5.58579 16.75 5.25 16.4142 5.25 16ZM12.5 15.25C12.0858 15.25 11.75 15.5858 11.75 16C11.75 16.4142 12.0858 16.75 12.5 16.75H14C14.4142 16.75 14.75 16.4142 14.75 16C14.75 15.5858 14.4142 15.25 14 15.25H12.5Z" fill="black"/>
</svg>
