<svg width="24" height="24" viewBox="0 0 24 24" fill="none" xmlns="http://www.w3.org/2000/svg">
<path fill-rule="evenodd" clip-rule="evenodd" d="M17.75 14.5C16.5074 14.5 15.5 15.5074 15.5 16.75C15.5 17.9926 16.5074 19 17.75 19C18.9926 19 20 17.9926 20 16.75C20 15.5074 18.9926 14.5 17.75 14.5ZM14 16.75C14 14.6789 15.6789 13 17.75 13C19.8211 13 21.5 14.6789 21.5 16.75C21.5 17.5143 21.2713 18.2252 20.8787 18.818L21.7803 19.7197C22.0732 20.0126 22.0732 20.4874 21.7803 20.7803C21.4874 21.0732 21.0126 21.0732 20.7197 20.7803L19.818 19.8787C19.2252 20.2713 18.5143 20.5 17.75 20.5C15.6789 20.5 14 18.8211 14 16.75Z" fill="black"/>
<path d="M10 4H14C17.7712 4 19.6569 4 20.8284 5.17157C21.672 6.01511 21.9082 7.22882 21.9743 9.25H2.02572C2.09185 7.22882 2.32803 6.01511 3.17157 5.17157C4.34315 4 6.22876 4 10 4Z" fill="black"/>
<path d="M10 20H13.6266C12.9211 19.1061 12.5 17.9772 12.5 16.75C12.5 13.8505 14.8505 11.5 17.75 11.5C19.4947 11.5 21.0406 12.3511 21.9953 13.6607C22 13.1517 22 12.5997 22 12C22 11.5581 22 11.142 21.9981 10.75H2.00189C2 11.142 2 11.5581 2 12C2 15.7712 2 17.6569 3.17157 18.8284C4.34315 20 6.22876 20 10 20Z" fill="black"/>
<path d="M5.25 16C5.25 15.5858 5.58579 15.25 6 15.25H10C10.4142 15.25 10.75 15.5858 10.75 16C10.75 16.4142 10.4142 16.75 10 16.75H6C5.58579 16.75 5.25 16.4142 5.25 16Z" fill="black"/>
</svg>
