<svg width="24" height="24" viewBox="0 0 24 24" fill="none" xmlns="http://www.w3.org/2000/svg">
<path d="M11.25 6H9C7.11438 6 6.17157 6 5.58579 6.58579C5 7.17157 5 8.11438 5 10L5.00005 16.25H18.9999L19 10C19 8.11438 19 7.17157 18.4142 6.58579C17.8284 6 16.8856 6 15 6H12.75V10.9726L13.4306 10.1786C13.7001 9.86408 14.1736 9.82766 14.4881 10.0972C14.8026 10.3668 14.839 10.8403 14.5695 11.1548L12.5695 13.4881C12.427 13.6543 12.219 13.75 12 13.75C11.7811 13.75 11.5731 13.6543 11.4306 13.4881L9.43057 11.1548C9.161 10.8403 9.19743 10.3668 9.51192 10.0972C9.82641 9.82766 10.2999 9.86408 10.5695 10.1786L11.25 10.9726V6Z" fill="black"/>
<path d="M5.0306 17.75H18.9694C18.9181 18.5406 18.781 19.0474 18.4142 19.4142C17.8284 20 16.8856 20 15 20H9C7.11438 20 6.17157 20 5.58579 19.4142C5.21898 19.0474 5.08186 18.5406 5.0306 17.75Z" fill="black"/>
<path d="M5.88889 3H18.1111C20.2589 3 22 4.79998 22 7.02036C22 8.30971 21.4129 9.45731 20.5 10.193L20.5 9.91053C20.5001 9.0449 20.5002 8.25122 20.4134 7.6056C20.3178 6.89464 20.0929 6.14319 19.4748 5.52514C18.8568 4.90709 18.1054 4.6822 17.3944 4.58661C16.7488 4.49981 15.9551 4.4999 15.0895 4.50001H8.91048C8.04485 4.4999 7.25118 4.49981 6.60556 4.58661C5.8946 4.6822 5.14315 4.90709 4.5251 5.52514C3.90706 6.14319 3.68216 6.89464 3.58657 7.6056C3.49977 8.25122 3.49987 9.04488 3.49997 9.91052L3.49998 10.193C2.58709 9.45727 2 8.30969 2 7.02036C2 4.79998 3.74112 3 5.88889 3Z" fill="black"/>
</svg>
