<svg width="24" height="24" viewBox="0 0 24 24" fill="none" xmlns="http://www.w3.org/2000/svg">
<path fill-rule="evenodd" clip-rule="evenodd" d="M12 22C17.5228 22 22 17.5228 22 12C22 6.47715 17.5228 2 12 2C6.47715 2 2 6.47715 2 12C2 17.5228 6.47715 22 12 22ZM12.75 6C12.75 5.58579 12.4142 5.25 12 5.25C11.5858 5.25 11.25 5.58579 11.25 6V6.31673C9.61957 6.60867 8.25 7.83361 8.25 9.5C8.25 11.4172 10.0628 12.75 12 12.75C13.3765 12.75 14.25 13.6557 14.25 14.5C14.25 15.3443 13.3765 16.25 12 16.25C10.6235 16.25 9.75 15.3443 9.75 14.5C9.75 14.0858 9.41421 13.75 9 13.75C8.58579 13.75 8.25 14.0858 8.25 14.5C8.25 16.1664 9.61957 17.3913 11.25 17.6833V18C11.25 18.4142 11.5858 18.75 12 18.75C12.4142 18.75 12.75 18.4142 12.75 18V17.6833C14.3804 17.3913 15.75 16.1664 15.75 14.5C15.75 12.5828 13.9372 11.25 12 11.25C10.6235 11.25 9.75 10.3443 9.75 9.5C9.75 8.65573 10.6235 7.75 12 7.75C13.3765 7.75 14.25 8.65573 14.25 9.5C14.25 9.91421 14.5858 10.25 15 10.25C15.4142 10.25 15.75 9.91421 15.75 9.5C15.75 7.83361 14.3804 6.60867 12.75 6.31673V6Z" fill="black"/>
</svg>
