<svg width="24" height="24" viewBox="0 0 24 24" fill="none" xmlns="http://www.w3.org/2000/svg">
<path fill-rule="evenodd" clip-rule="evenodd" d="M3.46447 3.46447C2 4.92893 2 7.28595 2 12C2 16.714 2 19.0711 3.46447 20.5355C4.92893 22 7.28595 22 12 22C16.714 22 19.0711 22 20.5355 20.5355C22 19.0711 22 16.714 22 12C22 7.28595 22 4.92893 20.5355 3.46447C19.0711 2 16.714 2 12 2C7.28595 2 4.92893 2 3.46447 3.46447ZM15.5303 8.46967C15.8232 8.76256 15.8232 9.23744 15.5303 9.53033L9.53033 15.5303C9.23744 15.8232 8.76256 15.8232 8.46967 15.5303C8.17678 15.2374 8.17678 14.7626 8.46967 14.4697L14.4697 8.46967C14.7626 8.17678 15.2374 8.17678 15.5303 8.46967ZM10.5 9.5C10.5 10.0523 10.0523 10.5 9.5 10.5C8.94772 10.5 8.5 10.0523 8.5 9.5C8.5 8.94772 8.94772 8.5 9.5 8.5C10.0523 8.5 10.5 8.94772 10.5 9.5ZM14.5 15.5C15.0523 15.5 15.5 15.0523 15.5 14.5C15.5 13.9477 15.0523 13.5 14.5 13.5C13.9477 13.5 13.5 13.9477 13.5 14.5C13.5 15.0523 13.9477 15.5 14.5 15.5Z" fill="black"/>
</svg>
