<svg width="24" height="24" viewBox="0 0 24 24" fill="none" xmlns="http://www.w3.org/2000/svg">
<path fill-rule="evenodd" clip-rule="evenodd" d="M12.858 20H10.221C6.3456 20 4.40789 20 3.20394 18.8284C2 17.6569 2 15.7712 2 12C2 8.22876 2 6.34315 3.20394 5.17157C4.40789 4 6.34561 4 10.221 4H12.858C15.0854 4 16.1992 4 17.1289 4.50143C18.0586 5.00286 18.6488 5.92191 19.8294 7.76001L20.5102 8.82001C21.5034 10.3664 22 11.1396 22 12C22 12.8604 21.5034 13.6336 20.5102 15.18L19.8294 16.24C18.6488 18.0781 18.0586 18.9971 17.1289 19.4986C16.1992 20 15.0854 20 12.858 20ZM7 7.05423C7.41421 7.05423 7.75 7.37026 7.75 7.76011V16.2353C7.75 16.6251 7.41421 16.9412 7 16.9412C6.58579 16.9412 6.25 16.6251 6.25 16.2353V7.76011C6.25 7.37026 6.58579 7.05423 7 7.05423Z" fill="black"/>
</svg>
