<svg width="24" height="24" viewBox="0 0 24 24" fill="none" xmlns="http://www.w3.org/2000/svg">
<path fill-rule="evenodd" clip-rule="evenodd" d="M14.0079 19.0029L14.0137 17C14.0137 16.4477 14.4625 16 15.0162 16C15.5698 16 16.0187 16.4477 16.0187 17V18.9765C16.0187 19.458 16.0187 19.6988 16.1731 19.8464C16.3275 19.9941 16.5637 19.984 17.0362 19.964C18.8991 19.8852 20.0437 19.6332 20.8504 18.8284C21.6591 18.0218 21.911 16.8766 21.9894 15.0105C22.005 14.6405 22.0128 14.4554 21.9437 14.332C21.8746 14.2085 21.5987 14.0545 21.0469 13.7463C20.4341 13.4041 20.0199 12.7503 20.0199 12C20.0199 11.2497 20.4341 10.5959 21.0469 10.2537C21.5987 9.94554 21.8746 9.79147 21.9437 9.66803C22.0128 9.54458 22.005 9.35954 21.9894 8.98947C21.911 7.12339 21.6591 5.97823 20.8504 5.17157C19.9727 4.29604 18.6952 4.0748 16.5278 4.0189C16.2482 4.01169 16.0187 4.23718 16.0187 4.51618V7C16.0187 7.55228 15.5698 8 15.0162 8C14.4625 8 14.0137 7.55228 14.0137 7L14.0064 4.49855C14.0056 4.22298 13.7814 4 13.5052 4H9.99502C6.21439 4 4.32407 4 3.14958 5.17157C2.34091 5.97823 2.08903 7.12339 2.01058 8.98947C1.99502 9.35954 1.98724 9.54458 2.05634 9.66802C2.12545 9.79147 2.40133 9.94554 2.95308 10.2537C3.56586 10.5959 3.98007 11.2497 3.98007 12C3.98007 12.7503 3.56586 13.4041 2.95308 13.7463C2.40133 14.0545 2.12545 14.2085 2.05634 14.332C1.98724 14.4554 1.99502 14.6405 2.01058 15.0105C2.08903 16.8766 2.34091 18.0218 3.14958 18.8284C4.32407 20 6.21438 20 9.99502 20H13.0054C13.4767 20 13.7124 20 13.8591 19.8541C14.0058 19.7081 14.0065 19.4731 14.0079 19.0029ZM16.0187 13V11C16.0187 10.4477 15.5698 10 15.0162 10C14.4625 10 14.0137 10.4477 14.0137 11V13C14.0137 13.5523 14.4625 14 15.0162 14C15.5698 14 16.0187 13.5523 16.0187 13Z" fill="black"/>
</svg>
