<svg width="24" height="24" viewBox="0 0 24 24" fill="none" xmlns="http://www.w3.org/2000/svg">
<path fill-rule="evenodd" clip-rule="evenodd" d="M20.4105 9.86058C20.3559 9.8571 20.2964 9.85712 20.2348 9.85715L20.2194 9.85715H17.8015C15.8086 9.85715 14.1033 11.4382 14.1033 13.5C14.1033 15.5618 15.8086 17.1429 17.8015 17.1429H20.2194L20.2348 17.1429C20.2964 17.1429 20.3559 17.1429 20.4105 17.1394C21.22 17.0879 21.9359 16.4495 21.9961 15.5577C22.0001 15.4992 22 15.4362 22 15.3778L22 15.3619V11.6381L22 11.6222C22 11.5638 22.0001 11.5008 21.9961 11.4423C21.9359 10.5506 21.22 9.91209 20.4105 9.86058ZM17.5872 14.4714C18.1002 14.4714 18.5162 14.0365 18.5162 13.5C18.5162 12.9635 18.1002 12.5286 17.5872 12.5286C17.0741 12.5286 16.6581 12.9635 16.6581 13.5C16.6581 14.0365 17.0741 14.4714 17.5872 14.4714Z" fill="black"/>
<path fill-rule="evenodd" clip-rule="evenodd" d="M20.2341 18.6C20.3778 18.5963 20.4866 18.7304 20.4476 18.8699C20.2541 19.562 19.947 20.1518 19.4542 20.6485C18.7329 21.3755 17.8183 21.6981 16.6882 21.8512C15.5902 22 14.1872 22 12.4158 22H10.3794C8.60803 22 7.20501 22 6.10697 21.8512C4.97692 21.6981 4.06227 21.3755 3.34096 20.6485C2.61964 19.9215 2.29953 18.9997 2.1476 17.8608C1.99997 16.7541 1.99999 15.3401 2 13.5548V13.4452C1.99998 11.6599 1.99997 10.2459 2.1476 9.13924C2.29953 8.00031 2.61964 7.07848 3.34096 6.35149C4.06227 5.62451 4.97692 5.30188 6.10697 5.14876C7.205 4.99997 8.60802 4.99999 10.3794 5L12.4158 5C14.1872 4.99998 15.5902 4.99997 16.6882 5.14876C17.8183 5.30188 18.7329 5.62451 19.4542 6.35149C19.947 6.84817 20.2541 7.43804 20.4476 8.13012C20.4866 8.26959 20.3778 8.40376 20.2341 8.4L17.8015 8.40001C15.0673 8.40001 12.6575 10.5769 12.6575 13.5C12.6575 16.4231 15.0673 18.6 17.8015 18.6L20.2341 18.6ZM5.61446 8.88572C5.21522 8.88572 4.89157 9.21191 4.89157 9.61429C4.89157 10.0167 5.21522 10.3429 5.61446 10.3429H9.46988C9.86912 10.3429 10.1928 10.0167 10.1928 9.61429C10.1928 9.21191 9.86912 8.88572 9.46988 8.88572H5.61446Z" fill="black"/>
<path d="M7.77668 4.02439L9.73549 2.58126C10.7874 1.80625 12.2126 1.80625 13.2645 2.58126L15.2336 4.03197C14.4103 3.99995 13.4909 3.99998 12.4829 4H10.3123C9.39123 3.99998 8.5441 3.99996 7.77668 4.02439Z" fill="black"/>
</svg>
