<svg width="24" height="24" viewBox="0 0 24 24" fill="none" xmlns="http://www.w3.org/2000/svg">
<path d="M11.0002 2C6.94512 2.0073 4.82168 2.10686 3.46465 3.46389C2.00018 4.92835 2.00018 7.28538 2.00018 11.9994C2.00018 16.7135 2.00018 19.0705 3.46465 20.535C4.92912 21.9994 7.28614 21.9994 12.0002 21.9994C16.7142 21.9994 19.0713 21.9994 20.5357 20.535C21.8927 19.1779 21.9923 17.0545 21.9996 12.9994" stroke="black" stroke-width="1.5" stroke-linecap="round"/>
<path d="M13 11L22 2M22 2H16.6562M22 2V7.34375M21 3L12 12M12 12H16M12 12V8" stroke="black" stroke-width="1.5" stroke-linecap="round" stroke-linejoin="round"/>
</svg>
