<svg width="24" height="24" viewBox="0 0 24 24" fill="none" xmlns="http://www.w3.org/2000/svg">
<path d="M8 12.8618L7.25 12.8618L7.25 12.8618L8 12.8618ZM8 13.4783L8.75 13.4783L8.75 13.4783L8 13.4783ZM6.57997 15.3296L6.36905 14.6099L6.36905 14.6099L6.57997 15.3296ZM4.57997 15.9157L4.36905 15.196L4.36905 15.196L4.57997 15.9157ZM2 14.0645L2.75 14.0645L2 14.0645ZM2 12.1416L2.75 12.1416L2 12.1416ZM2.44083 10.789L1.86331 10.3105L1.86331 10.3105L2.44083 10.789ZM12 7.00012L12 7.75012L12 7.00012ZM21.3703 9.85613L21.8699 9.29673L21.8699 9.29673L21.3703 9.85613ZM16 13.2501L15.25 13.2501L15.25 13.2501L16 13.2501ZM17.7004 15.1626L17.5916 15.9047L17.5916 15.9047L17.7004 15.1626ZM19.7004 15.4557L19.8091 14.7136L19.8091 14.7136L19.7004 15.4557ZM22 13.5431L21.25 13.5431L21.25 13.5431L22 13.5431ZM22 11.4184L22.75 11.4184L22.75 11.4184L22 11.4184ZM12 11.3964L12 10.6464L12 11.3964ZM7.25 12.8618L7.25 13.4783L8.75 13.4783L8.75 12.8618L7.25 12.8618ZM6.36905 14.6099L4.36905 15.196L4.7909 16.6354L6.7909 16.0493L6.36905 14.6099ZM2.75 14.0645L2.75 12.1416L1.25 12.1416L1.25 14.0645L2.75 14.0645ZM3.01834 11.2675C3.90179 10.2013 6.51318 7.75012 12 7.75012L12 6.25012C5.98964 6.25012 2.97874 8.96431 1.86331 10.3105L3.01834 11.2675ZM12 7.75012C17.233 7.75012 19.8648 9.5172 20.8708 10.4155L21.8699 9.29673C20.5944 8.15768 17.6087 6.25012 12 6.25012L12 7.75012ZM15.25 12.8618V13.2501H16.75V12.8618H15.25ZM17.5916 15.9047L19.5916 16.1978L19.8091 14.7136L17.8091 14.4205L17.5916 15.9047ZM22.75 13.5431V11.4184H21.25V13.5431H22.75ZM16 12.8618C16.75 12.8618 16.75 12.8608 16.75 12.8598C16.75 12.8595 16.75 12.8584 16.75 12.8578C16.75 12.8564 16.75 12.855 16.75 12.8535C16.7499 12.8506 16.7499 12.8476 16.7498 12.8445C16.7497 12.8383 16.7495 12.8317 16.7492 12.8246C16.7485 12.8105 16.7475 12.7948 16.7459 12.7774C16.7428 12.7427 16.7374 12.7017 16.7283 12.6553C16.7102 12.5624 16.6776 12.4485 16.6202 12.3223C16.503 12.0647 16.2941 11.7812 15.9433 11.5241C15.2573 11.0215 14.0694 10.6464 12 10.6464L12 12.1464C13.9306 12.1464 14.7427 12.504 15.0567 12.7341C15.2059 12.8434 15.247 12.9263 15.2548 12.9434C15.2599 12.9546 15.2586 12.9552 15.256 12.9424C15.2548 12.9361 15.2533 12.9266 15.2521 12.9133C15.2515 12.9067 15.251 12.8992 15.2506 12.8906C15.2504 12.8863 15.2503 12.8818 15.2502 12.877C15.2501 12.8746 15.2501 12.8722 15.25 12.8696C15.25 12.8684 15.25 12.8671 15.25 12.8658C15.25 12.8651 15.25 12.8641 15.25 12.8638C15.25 12.8628 15.25 12.8618 16 12.8618ZM12 10.6464C9.93056 10.6464 8.74267 11.0215 8.05672 11.5241C7.7059 11.7812 7.49703 12.0647 7.37982 12.3223C7.32239 12.4485 7.2898 12.5624 7.27167 12.6553C7.26263 12.7017 7.25722 12.7427 7.25406 12.7774C7.25248 12.7948 7.25147 12.8105 7.25085 12.8246C7.25054 12.8317 7.25032 12.8383 7.25019 12.8445C7.25012 12.8476 7.25008 12.8506 7.25004 12.8535C7.25003 12.855 7.25002 12.8564 7.25001 12.8578C7.25001 12.8585 7.25 12.8595 7.25 12.8598C7.25 12.8608 7.25 12.8618 8 12.8618C8.75 12.8618 8.75 12.8628 8.75 12.8638C8.75 12.8641 8.74999 12.8651 8.74999 12.8658C8.74998 12.8671 8.74997 12.8684 8.74996 12.8696C8.74993 12.8722 8.74989 12.8746 8.74984 12.877C8.74973 12.8818 8.74958 12.8863 8.7494 12.8906C8.74902 12.8992 8.74849 12.9067 8.74789 12.9133C8.74669 12.9266 8.74518 12.9361 8.74395 12.9424C8.74145 12.9552 8.74011 12.9546 8.74518 12.9434C8.75297 12.9263 8.7941 12.8434 8.94328 12.7341C9.25733 12.504 10.0694 12.1464 12 12.1464L12 10.6464ZM19.5916 16.1978C21.2257 16.4372 22.75 15.2129 22.75 13.5431L21.25 13.5431C21.25 14.2407 20.5953 14.8288 19.8091 14.7136L19.5916 16.1978ZM20.8708 10.4155C21.1133 10.6321 21.25 10.9779 21.25 11.4184L22.75 11.4184C22.75 10.6849 22.5191 9.8765 21.8699 9.29673L20.8708 10.4155ZM2.75 12.1416C2.75 11.7742 2.84345 11.4786 3.01834 11.2675L1.86331 10.3105C1.40595 10.8625 1.25 11.531 1.25 12.1416L2.75 12.1416ZM15.25 13.2501C15.25 14.5972 16.2642 15.7102 17.5916 15.9047L17.8091 14.4205C17.1811 14.3285 16.75 13.8158 16.75 13.2501L15.25 13.2501ZM4.36905 15.196C3.5319 15.4413 2.75 14.8282 2.75 14.0645L1.25 14.0645C1.25 15.8967 3.05932 17.1429 4.7909 16.6354L4.36905 15.196ZM7.25 13.4783C7.25 13.9834 6.90669 14.4523 6.36905 14.6099L6.7909 16.0493C7.93988 15.7126 8.75 14.6778 8.75 13.4783L7.25 13.4783Z" fill="black"/>
</svg>
