<svg width="24" height="24" viewBox="0 0 24 24" fill="none" xmlns="http://www.w3.org/2000/svg">
<path fill-rule="evenodd" clip-rule="evenodd" d="M5.45974 6.73344C5.20239 4.6158 6.65212 2.66883 8.75467 2.30839L9.12781 2.24442C11.0289 1.91853 12.9715 1.91853 14.8726 2.24442L15.2457 2.30839C17.3483 2.66883 18.798 4.6158 18.5406 6.73344L18.5237 6.87265C18.4627 7.37459 18.0367 7.75201 17.531 7.75201H15.7672H14.25H9.75031H8.2331H6.46936C5.96373 7.75201 5.53766 7.37459 5.47666 6.87265L5.45974 6.73344Z" fill="black"/>
<path opacity="0.5" d="M8.2331 7.75195L5.2668 21.5947C5.18001 21.9997 5.43799 22.3984 5.84301 22.4852C6.24803 22.5719 6.64672 22.314 6.73351 21.909L7.6779 17.5018H16.3224L17.2668 21.909C17.3536 22.314 17.7523 22.5719 18.1573 22.4852C18.5623 22.3984 18.8203 21.9997 18.7335 21.5947L15.7672 7.75195H14.25C14.2501 7.80373 14.2555 7.85629 14.2668 7.90895L16.001 16.0018H7.99932L9.73351 7.90895C9.74479 7.85629 9.75025 7.80373 9.75031 7.75195H8.2331Z" fill="black"/>
</svg>
