<svg width="24" height="24" viewBox="0 0 24 24" fill="none" xmlns="http://www.w3.org/2000/svg">
<g opacity="0.6">
<path d="M2 9.75C2 9.30807 2 8.39203 2.00189 8H11.2386V19.75L10 19.75C8.19364 19.75 6.81989 19.75 5.75 19.6213V21.75C5.75 22.1642 5.41421 22.5 5 22.5C4.58579 22.5 4.25 22.1642 4.25 21.75V19.2749C3.82861 19.1082 3.47599 18.8828 3.17157 18.5784C2 17.4069 2 15.5212 2 11.75V9.75Z" fill="black"/>
<path d="M22 8C22.0019 8.39203 22 9.30807 22 9.75V11.75C22 15.5212 22 17.4069 20.8284 18.5784C20.524 18.8828 20.1714 19.1082 19.75 19.2749V21.75C19.75 22.1642 19.4142 22.5 19 22.5C18.5858 22.5 18.25 22.1642 18.25 21.75V19.6213C17.1801 19.75 15.545 19.75 13.7387 19.75H13.7386L12.7386 19.75V8H22Z" fill="black"/>
</g>
<path d="M15.75 11.75C15.75 11.3358 15.4142 11 15 11C14.5858 11 14.25 11.3358 14.25 11.75V14.75C14.25 15.1642 14.5858 15.5 15 15.5C15.4142 15.5 15.75 15.1642 15.75 14.75V11.75Z" fill="black"/>
<path d="M9.75 11.75C9.75 11.3358 9.41421 11 9 11C8.58579 11 8.25 11.3358 8.25 11.75V14.75C8.25 15.1642 8.58579 15.5 9 15.5C9.41421 15.5 9.75 15.1642 9.75 14.75V11.75Z" fill="black"/>
<path d="M3.17125 2.92157C2.32771 3.76511 2.09152 4.97882 2.02539 7V8H11.25V19.749H12.75V8H21.974V7C21.9078 4.97882 21.6716 3.76511 20.8281 2.92157C19.6565 1.75 17.7709 1.75 13.9997 1.75H9.99967C6.22844 1.75 4.34282 1.75 3.17125 2.92157Z" fill="black"/>
</svg>
