<svg width="24" height="24" viewBox="0 0 24 24" fill="none" xmlns="http://www.w3.org/2000/svg">
<path opacity="0.5" fill-rule="evenodd" clip-rule="evenodd" d="M2 10C2 9.55807 2.00189 8.39203 2.00377 8H22C22.0019 8.39203 22 9.55807 22 10V12C22 12.4419 22 13.608 21.9981 14H2.00189C2 13.608 2 12.4419 2 12V10Z" fill="black"/>
<path d="M13 11C13 11.5523 12.5523 12 12 12C11.4477 12 11 11.5523 11 11C11 10.4477 11.4477 10 12 10C12.5523 10 13 10.4477 13 11Z" fill="black"/>
<path fill-rule="evenodd" clip-rule="evenodd" d="M2.02588 7.25C2.09201 5.22882 2.32819 4.01511 3.17174 3.17157C4.34331 2 6.22893 2 10.0002 2H14.0002C17.7714 2 19.657 2 20.8286 3.17157C21.6721 4.01511 21.9083 5.22882 21.9744 7.25L22 8H2L2.02588 7.25ZM12 6C12.5523 6 13 5.55228 13 5C13 4.44771 12.5523 4 12 4C11.4477 4 11 4.44771 11 5C11 5.55228 11.4477 6 12 6Z" fill="black"/>
<path fill-rule="evenodd" clip-rule="evenodd" d="M2.02588 14.75C2.09201 16.7712 2.32819 17.9849 3.17174 18.8284C3.47615 19.1328 3.82878 19.3582 4.25016 19.5249V22C4.25016 22.4142 4.58595 22.75 5.00016 22.75C5.41438 22.75 5.75016 22.4142 5.75016 22V19.8713C6.82005 20 8.1938 20 10.0002 20H14.0002C15.8065 20 17.1803 20 18.2502 19.8713V22C18.2502 22.4142 18.5859 22.75 19.0002 22.75C19.4144 22.75 19.7502 22.4142 19.7502 22V19.5249C20.1715 19.3582 20.5242 19.1328 20.8286 18.8284C21.6721 17.9849 21.9083 16.7712 21.9744 14.75V14H2L2.02588 14.75ZM12.0002 18C12.5524 18 13.0002 17.5523 13.0002 17C13.0002 16.4477 12.5524 16 12.0002 16C11.4479 16 11.0002 16.4477 11.0002 17C11.0002 17.5523 11.4479 18 12.0002 18Z" fill="black"/>
</svg>
