<svg width="24" height="24" viewBox="0 0 24 24" fill="none" xmlns="http://www.w3.org/2000/svg">
<path fill-rule="evenodd" clip-rule="evenodd" d="M3.17149 18.8284C2.32795 17.9849 2.09176 16.7712 2.02563 14.75L1.99976 14H21.9742V14.75C21.9081 16.7712 21.6719 17.9849 20.8283 18.8284C20.5239 19.1328 20.1713 19.3582 19.7499 19.5249V22C19.7499 22.4142 19.4141 22.75 18.9999 22.75C18.5857 22.75 18.2499 22.4142 18.2499 22V19.8713C17.18 20 15.8063 20 13.9999 20H9.99992C8.19356 20 6.81981 20 5.74992 19.8713V22C5.74992 22.4142 5.41413 22.75 4.99992 22.75C4.5857 22.75 4.24992 22.4142 4.24992 22V19.5249C3.82853 19.3582 3.47591 19.1328 3.17149 18.8284ZM12.9999 17C12.9999 17.5523 12.5522 18 11.9999 18C11.4476 18 10.9999 17.5523 10.9999 17C10.9999 16.4477 11.4476 16 11.9999 16C12.5522 16 12.9999 16.4477 12.9999 17Z" fill="black"/>
<path d="M3.17149 3.17157C2.32795 4.01511 2.09177 5.22882 2.02563 7.25L1.99976 8H21.9998L21.9742 7.25C21.9081 5.22882 21.6719 4.01511 20.8283 3.17157C19.6568 2 17.7712 2 13.9999 2H9.99992C6.22868 2 4.34306 2 3.17149 3.17157Z" fill="black"/>
<path opacity="0.5" fill-rule="evenodd" clip-rule="evenodd" d="M2 10C2 9.55807 2.00189 8.39203 2.00377 8H22C22.0019 8.39203 22 9.55807 22 10V12C22 12.4419 22 13.608 21.9981 14H2.00189C2 13.608 2 12.4419 2 12V10Z" fill="black"/>
</svg>
