<svg width="24" height="24" viewBox="0 0 24 24" fill="none" xmlns="http://www.w3.org/2000/svg">
<path d="M5.25 15.5C5.25 14.5335 6.0335 13.75 7 13.75H17C17.9665 13.75 18.75 14.5335 18.75 15.5C18.75 17.0188 17.5188 18.25 16 18.25H8C6.48122 18.25 5.25 17.0188 5.25 15.5Z" fill="black"/>
<path d="M6.628 6.76581C6.86937 4.75442 6.99006 3.74872 7.57174 3.06161C7.75634 2.84355 7.97115 2.65298 8.20965 2.49567C8.96117 2 9.97408 2 11.9999 2C14.0257 2 15.0386 2 15.7902 2.49567C16.0287 2.65298 16.2435 2.84355 16.4281 3.06161C17.0097 3.74872 17.1304 4.75442 17.3718 6.76581L17.4627 7.52342C17.7132 9.61087 17.8385 10.6546 17.2416 11.3273C16.6448 12 15.5936 12 13.4912 12H10.5086C8.40618 12 7.35497 12 6.75816 11.3273C6.16135 10.6546 6.2866 9.61087 6.53709 7.52342L6.628 6.76581Z" fill="black"/>
<g opacity="0.5">
<path d="M2 10.75C1.58579 10.75 1.25 11.0858 1.25 11.5C1.25 11.9142 1.58579 12.25 2 12.25C2.82738 12.25 3.28947 12.3422 3.57378 12.4676C3.82305 12.5776 3.98353 12.7334 4.15499 13.0153C4.18539 13.0653 4.19799 13.0863 4.21147 13.111C4.22448 13.135 4.24208 13.1695 4.2738 13.2379C4.32447 13.3472 4.34889 13.4184 4.42333 13.6417L5.28849 16.2372C5.32093 16.3345 5.37138 16.4207 5.43491 16.4934C5.3155 16.1853 5.25 15.8503 5.25 15.5C5.25 14.8545 5.59952 14.2906 6.11965 13.9872L5.84069 13.1504C5.77196 12.9441 5.72347 12.7986 5.63468 12.6071C5.5488 12.4218 5.50507 12.3485 5.43659 12.2359C5.15168 11.7674 4.78052 11.3604 4.17911 11.0952C3.61274 10.8454 2.90513 10.75 2 10.75Z" fill="black"/>
<path d="M12.75 13.75H11.25V12H12.75V13.75Z" fill="black"/>
<path d="M18.5651 16.4934C18.6845 16.1853 18.75 15.8503 18.75 15.5C18.75 14.8545 18.4005 14.2906 17.8804 13.9872L18.1593 13.1504C18.228 12.9442 18.2765 12.7986 18.3653 12.6071C18.4512 12.4218 18.4949 12.3485 18.5634 12.2359C18.8483 11.7674 19.2195 11.3604 19.8209 11.0952C20.3873 10.8454 21.0949 10.75 22 10.75C22.4142 10.75 22.75 11.0858 22.75 11.5C22.75 11.9142 22.4142 12.25 22 12.25C21.1726 12.25 20.7105 12.3422 20.4262 12.4676C20.177 12.5776 20.0165 12.7334 19.845 13.0153C19.8146 13.0653 19.802 13.0863 19.7885 13.111C19.7755 13.135 19.7579 13.1695 19.7262 13.2379C19.6755 13.3472 19.6511 13.4184 19.5767 13.6417L18.7115 16.2372C18.6791 16.3345 18.6286 16.4207 18.5651 16.4934Z" fill="black"/>
<path d="M11.25 18.25H12.75V19.416C13.9066 19.741 14.8302 20.6188 15.2115 21.7628C15.3425 22.1558 15.1301 22.5805 14.7372 22.7115C14.3442 22.8425 13.9195 22.6301 13.7885 22.2372C13.6115 21.7061 13.2354 21.2729 12.75 21.0206V22C12.75 22.4142 12.4142 22.75 12 22.75C11.5858 22.75 11.25 22.4142 11.25 22V21.0206C10.7646 21.2729 10.3885 21.7061 10.2115 22.2372C10.0805 22.6301 9.65579 22.8425 9.26283 22.7115C8.86987 22.5805 8.6575 22.1558 8.78849 21.7628C9.16984 20.6188 10.0934 19.741 11.25 19.416V18.25Z" fill="black"/>
</g>
</svg>
