<svg width="24" height="24" viewBox="0 0 24 24" fill="none" xmlns="http://www.w3.org/2000/svg">
<path fill-rule="evenodd" clip-rule="evenodd" d="M8.25 22C8.25 21.5858 8.58579 21.25 9 21.25H15C15.4142 21.25 15.75 21.5858 15.75 22C15.75 22.4142 15.4142 22.75 15 22.75H9C8.58579 22.75 8.25 22.4142 8.25 22Z" fill="black"/>
<path d="M12.0001 8C14.3369 8 16.2992 6.71758 16.8475 4.98449C17.0141 4.45792 16.5524 4 16.0001 4H8.00009C7.4478 4 6.98608 4.45792 7.15266 4.98449C7.70094 6.71758 9.66331 8 12.0001 8Z" fill="black"/>
<path opacity="0.5" d="M12 2C13.6569 2 15 2.89543 15 4H9C9 2.89543 10.3431 2 12 2Z" fill="black"/>
<path d="M6.45475 11.9798C6.4777 11.9505 6.50003 11.9208 6.52175 11.8909C7.28695 10.8365 7.29596 9.44297 6.62892 8.39297C6.32414 7.91321 5.66094 7.99544 5.31133 8.44299L2.77924 11.6844C2.42963 12.132 2.50535 12.8018 3.03889 12.9888C4.23974 13.4094 5.62361 13.0438 6.45475 11.9798Z" fill="black"/>
<path opacity="0.5" d="M12.0001 8.00004C12.2549 8.00004 12.5053 7.98479 12.7499 7.95536V17.8966L12.7501 17.9369V19.0001L12.7499 19.0159V21.25H11.2499V17.9033C11.2398 16.8694 10.7617 15.8984 9.95481 15.2667L6.05469 12.4035C6.19843 12.2776 6.33256 12.1363 6.45475 11.9798C6.47769 11.9505 6.50002 11.9208 6.52174 11.8909C6.68607 11.6644 6.81552 11.4224 6.9109 11.1714L10.8517 14.064L10.8634 14.073C10.9987 14.1781 11.1277 14.2896 11.2499 14.407V7.95532C11.4946 7.98478 11.7451 8.00004 12.0001 8.00004Z" fill="black"/>
<path opacity="0.5" d="M2.43904 8.7863C3.13826 7.8912 4.42425 7.73749 5.31139 8.44298L2.7793 11.6844C1.89216 10.9789 1.73982 9.6814 2.43904 8.7863Z" fill="black"/>
</svg>
