<svg width="24" height="24" viewBox="0 0 24 24" fill="none" xmlns="http://www.w3.org/2000/svg">
<path fill-rule="evenodd" clip-rule="evenodd" d="M4 11.5V13C4 16.7712 4 18.6569 5.17157 19.8284C5.47599 20.1328 5.82861 20.3582 6.25 20.5249V22C6.25 22.4142 6.58579 22.75 7 22.75H8C8.41421 22.75 8.75 22.4142 8.75 22V20.9534C9.64461 21 10.7124 21 12 21C13.2876 21 14.3554 21 15.25 20.9534V22C15.25 22.4142 15.5858 22.75 16 22.75H17C17.4142 22.75 17.75 22.4142 17.75 22V20.5249C18.1714 20.3582 18.524 20.1328 18.8284 19.8284C20 18.6569 20 16.7712 20 13V11.5H4ZM17 13.25C17.4142 13.25 17.75 13.5858 17.75 14V16C17.75 16.4142 17.4142 16.75 17 16.75C16.5858 16.75 16.25 16.4142 16.25 16V14C16.25 13.5858 16.5858 13.25 17 13.25Z" fill="black"/>
<path opacity="0.5" d="M4 10C4 6.22876 4 4.34315 5.17157 3.17157C6.34315 2 8.22876 2 12 2C15.7712 2 17.6569 2 18.8284 3.17157C20 4.34315 20 6.22876 20 10V11.5H4V10Z" fill="black"/>
<path d="M17.75 7C17.75 6.58579 17.4142 6.25 17 6.25C16.5858 6.25 16.25 6.58579 16.25 7V9C16.25 9.41421 16.5858 9.75 17 9.75C17.4142 9.75 17.75 9.41421 17.75 9V7Z" fill="black"/>
</svg>
