<svg width="24" height="24" viewBox="0 0 24 24" fill="none" xmlns="http://www.w3.org/2000/svg">
<path fill-rule="evenodd" clip-rule="evenodd" d="M4.96802 7.44451C5.57692 5.0991 5.88138 3.9264 6.66749 3.15144C6.89538 2.92678 7.14941 2.73028 7.42412 2.56616C8.37176 2 9.58334 2 12.0065 2C14.4297 2 15.6412 2 16.5889 2.56616C16.8636 2.73028 17.1176 2.92678 17.3455 3.15144C18.1316 3.9264 18.4361 5.0991 19.045 7.44451L19.1292 7.76898C19.957 10.9576 20.3709 12.5519 19.6191 13.6719C19.5441 13.7837 19.4617 13.8902 19.3724 13.9909C19.0866 14.3131 18.7241 14.5324 18.2559 14.6817C17.6605 14.827 17.0097 14.9112 16.7586 14.9352C15.9102 15 14.8551 15 13.5358 15H12.7559H11.2559H10.4772C7.18295 15 5.5358 15 4.64058 13.9909C4.55129 13.8902 4.46887 13.7837 4.39389 13.6719C3.64207 12.5519 4.05598 10.9576 4.88378 7.76897L4.96802 7.44451Z" fill="black"/>
<path opacity="0.5" d="M16.7586 14.9351C16.7568 14.9565 16.7559 14.9781 16.7559 15V17C16.7559 17.4142 17.0916 17.75 17.5059 17.75C17.9201 17.75 18.2559 17.4142 18.2559 17V15V14.6816C17.6605 14.827 17.0097 14.9112 16.7586 14.9351Z" fill="black"/>
<path opacity="0.5" fill-rule="evenodd" clip-rule="evenodd" d="M11.2559 21.25V15H12.7559V21.25H11.2559Z" fill="black"/>
<path d="M11.2559 21.25H9.00586C8.59165 21.25 8.25586 21.5858 8.25586 22C8.25586 22.4142 8.59165 22.75 9.00586 22.75H15.0059C15.4201 22.75 15.7559 22.4142 15.7559 22C15.7559 21.5858 15.4201 21.25 15.0059 21.25H12.7559H11.2559Z" fill="black"/>
</svg>
