<svg width="24" height="24" viewBox="0 0 24 24" fill="none" xmlns="http://www.w3.org/2000/svg">
<path opacity="0.5" d="M5.67412 3.77772C5 4.78661 5 6.19108 5 9V15C5 17.8089 5 19.2134 5.67412 20.2223C5.96596 20.659 6.34096 21.034 6.77772 21.3259C7.78661 22 9.19108 22 12 22C14.8089 22 16.2134 22 17.2223 21.3259C17.659 21.034 18.034 20.659 18.3259 20.2223C19 19.2134 19 17.8089 19 15V9C19 6.19108 19 4.78661 18.3259 3.77772C18.034 3.34096 17.659 2.96596 17.2223 2.67412C16.2134 2 14.8089 2 12 2C9.19108 2 7.78661 2 6.77772 2.67412C6.34096 2.96596 5.96596 3.34096 5.67412 3.77772Z" fill="black"/>
<path fill-rule="evenodd" clip-rule="evenodd" d="M8.25 15.5C8.25 13.4289 9.92893 11.75 12 11.75C14.0711 11.75 15.75 13.4289 15.75 15.5C15.75 17.5711 14.0711 19.25 12 19.25C9.92893 19.25 8.25 17.5711 8.25 15.5ZM9.75 15.5C9.75 14.2574 10.7574 13.25 12 13.25C13.2426 13.25 14.25 14.2574 14.25 15.5C14.25 16.7426 13.2426 17.75 12 17.75C10.7574 17.75 9.75 16.7426 9.75 15.5Z" fill="black"/>
<path d="M16 9C16 9.55228 15.5523 10 15 10C14.4477 10 14 9.55228 14 9C14 8.44772 14.4477 8 15 8C15.5523 8 16 8.44772 16 9Z" fill="black"/>
<path d="M12 10C12.5523 10 13 9.55228 13 9C13 8.44772 12.5523 8 12 8C11.4477 8 11 8.44772 11 9C11 9.55228 11.4477 10 12 10Z" fill="black"/>
<path d="M10 9C10 9.55228 9.55228 10 9 10C8.44772 10 8 9.55228 8 9C8 8.44772 8.44772 8 9 8C9.55228 8 10 8.44772 10 9Z" fill="black"/>
<path d="M9 4.75C8.58579 4.75 8.25 5.08579 8.25 5.5C8.25 5.91421 8.58579 6.25 9 6.25H15C15.4142 6.25 15.75 5.91421 15.75 5.5C15.75 5.08579 15.4142 4.75 15 4.75H9Z" fill="black"/>
</svg>
