<svg width="24" height="24" viewBox="0 0 24 24" fill="none" xmlns="http://www.w3.org/2000/svg">
<path opacity="0.5" d="M16.4413 19.427L15.441 20.5447L15.9998 21.0449C16.6628 21.6383 17.54 22 18.5 22C20.5711 22 22.25 20.321 22.25 18.25C22.25 17.29 21.8883 16.4127 21.295 15.7498L20.7948 15.1909L19.6771 16.1913L16.4413 19.427Z" fill="black"/>
<path opacity="0.5" d="M7.55818 19.427L8.55855 20.5447L7.9997 21.0449C7.33675 21.6383 6.45947 22 5.49951 22C3.42844 22 1.74951 20.321 1.74951 18.25C1.74951 17.29 2.1112 16.4127 2.70455 15.7498L3.20474 15.1909L4.32244 16.1913L7.55818 19.427Z" fill="black"/>
<path d="M12 6.5C10.7574 6.5 9.75 7.50736 9.75 8.75C9.75 9.99264 10.7574 11 12 11C13.2426 11 14.25 9.99264 14.25 8.75C14.25 7.50736 13.2426 6.5 12 6.5Z" fill="black"/>
<path fill-rule="evenodd" clip-rule="evenodd" d="M22 11.75C22 17.2728 17.5228 21.75 12 21.75C6.47715 21.75 2 17.2728 2 11.75C2 6.22715 6.47715 1.75 12 1.75C17.5228 1.75 22 6.22715 22 11.75ZM8.25 8.75C8.25 6.67893 9.92893 5 12 5C14.0711 5 15.75 6.67893 15.75 8.75C15.75 10.8211 14.0711 12.5 12 12.5C9.92893 12.5 8.25 10.8211 8.25 8.75ZM12.75 15.75C12.75 15.3358 12.4142 15 12 15C11.5858 15 11.25 15.3358 11.25 15.75V17.75C11.25 18.1642 11.5858 18.5 12 18.5C12.4142 18.5 12.75 18.1642 12.75 17.75V15.75Z" fill="black"/>
</svg>
