<svg width="24" height="24" viewBox="0 0 24 24" fill="none" xmlns="http://www.w3.org/2000/svg">
<path d="M4.75 17.75V19.75C4.75 20.1642 4.41421 20.5 4 20.5C3.58579 20.5 3.25 20.1642 3.25 19.75V17.6046C2.51704 17.3079 2 16.5893 2 15.75C2 14.6454 2.89543 13.75 4 13.75H20C21.1046 13.75 22 14.6454 22 15.75C22 16.5893 21.483 17.3079 20.75 17.6046V19.75C20.75 20.1642 20.4142 20.5 20 20.5C19.5858 20.5 19.25 20.1642 19.25 19.75V17.75H4.75Z" fill="black"/>
<path opacity="0.5" d="M19.7497 12.75C20.7166 8.86578 21.1456 6.84737 20.134 5.42821C20.0665 5.33345 19.9948 5.24169 19.9193 5.15317C18.7216 3.75 16.4811 3.75 11.9999 3.75C7.5188 3.75 5.27824 3.75 4.08059 5.15317C4.00504 5.24169 3.93339 5.33345 3.86584 5.42821C2.85424 6.84737 3.28329 8.86578 4.25017 12.75L4.45003 13.75H19.5499L19.7497 12.75Z" fill="black"/>
</svg>
