<svg width="24" height="24" viewBox="0 0 24 24" fill="none" xmlns="http://www.w3.org/2000/svg">
<path d="M12 1.25C12.4142 1.25 12.75 1.58579 12.75 2V4C12.75 4.41421 12.4142 4.75 12 4.75C11.5858 4.75 11.25 4.41421 11.25 4V2C11.25 1.58579 11.5858 1.25 12 1.25Z" fill="black"/>
<path fill-rule="evenodd" clip-rule="evenodd" d="M12 8.89866C11.0286 8.17514 9.93707 8.07448 9.00898 8.50573C7.95333 8.99626 7.25 10.1171 7.25 11.3796C7.25 12.5983 7.75413 13.5245 8.38618 14.248C8.8836 14.8174 9.49698 15.297 10.0018 15.6917C10.1123 15.7782 10.2179 15.8608 10.3157 15.9391C10.5164 16.0999 10.7605 16.2953 11.0151 16.4465C11.269 16.5974 11.6065 16.75 12 16.75C12.3935 16.75 12.731 16.5974 12.9849 16.4465C13.2395 16.2953 13.4836 16.0999 13.6843 15.9391C13.7822 15.8607 13.8876 15.7783 13.9982 15.6917C14.503 15.297 15.1164 14.8174 15.6138 14.248C16.2459 13.5245 16.75 12.5983 16.75 11.3796C16.75 10.1171 16.0467 8.99626 14.991 8.50573C14.0629 8.07448 12.9714 8.17514 12 8.89866ZM9.64107 9.86605C9.14671 10.0958 8.75 10.6647 8.75 11.3796C8.75 12.1383 9.04976 12.7276 9.51582 13.2611C9.91036 13.7127 10.3834 14.0838 10.8818 14.4747C11.0044 14.5709 11.1288 14.6685 11.2537 14.7686C11.4683 14.9406 11.6318 15.0682 11.7811 15.1569C11.931 15.2459 11.9935 15.25 12 15.25C12.0065 15.25 12.069 15.2459 12.2189 15.1569C12.3682 15.0682 12.5317 14.9406 12.7463 14.7686C12.8713 14.6684 12.9955 14.571 13.1182 14.4747C13.6166 14.0838 14.0896 13.7127 14.4842 13.2611C14.9502 12.7276 15.25 12.1383 15.25 11.3796C15.25 10.6647 14.8533 10.0958 14.3589 9.86605C13.9153 9.65992 13.2539 9.66744 12.5446 10.4166C12.403 10.5662 12.206 10.651 12 10.651C11.794 10.651 11.597 10.5662 11.4554 10.4166C10.7461 9.66744 10.0847 9.65992 9.64107 9.86605Z" fill="black"/>
<path d="M12.75 20C12.75 19.5858 12.4142 19.25 12 19.25C11.5858 19.25 11.25 19.5858 11.25 20V22C11.25 22.4142 11.5858 22.75 12 22.75C12.4142 22.75 12.75 22.4142 12.75 22V20Z" fill="black"/>
<path d="M1.25 12C1.25 11.5858 1.58579 11.25 2 11.25H4C4.41421 11.25 4.75 11.5858 4.75 12C4.75 12.4142 4.41421 12.75 4 12.75H2C1.58579 12.75 1.25 12.4142 1.25 12Z" fill="black"/>
<path d="M20 11.25C19.5858 11.25 19.25 11.5858 19.25 12C19.25 12.4142 19.5858 12.75 20 12.75H22C22.4142 12.75 22.75 12.4142 22.75 12C22.75 11.5858 22.4142 11.25 22 11.25H20Z" fill="black"/>
<path d="M5.46967 18.5303C5.17678 18.2374 5.17678 17.7626 5.46967 17.4697L5.81272 17.1266C6.10561 16.8337 6.58048 16.8337 6.87338 17.1266C7.16627 17.4195 7.16627 17.8944 6.87338 18.1873L6.53033 18.5303C6.23744 18.8232 5.76256 18.8232 5.46967 18.5303Z" fill="black"/>
<path d="M17.1264 5.81293C16.8335 6.10582 16.8335 6.5807 17.1264 6.87359C17.4193 7.16648 17.8942 7.16648 18.1871 6.87359L18.5303 6.53033C18.8232 6.23744 18.8232 5.76256 18.5303 5.46967C18.2374 5.17678 17.7626 5.17678 17.4697 5.46967L17.1264 5.81293Z" fill="black"/>
<path d="M18.5303 18.5303C18.8232 18.2374 18.8232 17.7626 18.5303 17.4697L18.1873 17.1266C17.8944 16.8337 17.4195 16.8337 17.1266 17.1266C16.8337 17.4195 16.8337 17.8944 17.1266 18.1873L17.4697 18.5303C17.7626 18.8232 18.2374 18.8232 18.5303 18.5303Z" fill="black"/>
<path d="M6.87359 5.81293C7.16648 6.10582 7.16648 6.5807 6.87359 6.87359C6.5807 7.16648 6.10582 7.16648 5.81293 6.87359L5.46967 6.53033C5.17678 6.23744 5.17678 5.76256 5.46967 5.46967C5.76256 5.17678 6.23744 5.17678 6.53033 5.46967L6.87359 5.81293Z" fill="black"/>
</svg>
