<svg width="24" height="24" viewBox="0 0 24 24" fill="none" xmlns="http://www.w3.org/2000/svg">
<path fill-rule="evenodd" clip-rule="evenodd" d="M5.63598 4.15458C3.98228 4.94496 2.75 6.83887 2.75 9.1189C2.75 13.3458 5.74875 15.771 8.58725 18.0666C8.8738 18.2983 9.15873 18.5287 9.43876 18.7596C9.96496 19.1933 10.4342 19.5738 10.8862 19.85C11.3394 20.1269 11.699 20.2499 12 20.2499C12.3238 20.2499 12.6889 20.1114 13.1269 19.8414C11.7649 18.7935 10.25 17.3408 10.25 15.0594C10.25 13.4862 11.1866 12.1317 12.523 11.551C13.7325 11.0255 15.191 11.1604 16.4999 12.1641C17.3135 11.5397 18.1916 11.2456 19.0473 11.2499C19.6921 11.2532 20.2987 11.4262 20.8263 11.7255C21.0953 10.9389 21.25 10.0769 21.25 9.1189C21.25 6.83887 20.0177 4.94496 18.364 4.15458C16.7677 3.39163 14.6136 3.58478 12.5518 5.82458C12.4098 5.97885 12.2097 6.06663 12 6.06663C11.7903 6.06663 11.5902 5.97885 11.4482 5.82458C9.3864 3.58478 7.2323 3.39163 5.63598 4.15458ZM22.0221 12.7991C22.4792 13.4316 22.75 14.2138 22.75 15.0594C22.75 16.5774 22.0803 17.7259 21.2404 18.6249C20.5743 19.3379 19.756 19.9365 19.0621 20.444C18.9078 20.5569 18.7597 20.6652 18.6208 20.7693C18.342 20.9782 18.0215 21.2175 17.6918 21.4006C17.3615 21.5841 16.956 21.7499 16.5 21.7499C16.044 21.7499 15.6385 21.5841 15.3082 21.4006C14.9892 21.2234 14.6789 20.9937 14.4066 20.7898C13.7012 21.2973 12.8842 21.7499 12 21.7499C11.301 21.7499 10.6606 21.47 10.1042 21.13C9.54665 20.7894 8.99677 20.3391 8.4847 19.9171C8.2135 19.6935 7.92786 19.4643 7.63303 19.2278C4.85059 16.9952 1.25 14.1061 1.25 9.1189C1.25 6.31427 2.7678 3.86289 4.98914 2.80121C7.09794 1.79332 9.69249 2.10188 12 4.25262C14.3075 2.10188 16.9021 1.79332 19.0109 2.80121C21.2322 3.86289 22.75 6.31427 22.75 9.1189C22.75 10.4898 22.4789 11.7073 22.0221 12.7991ZM13.1208 12.9268C12.3259 13.2721 11.75 14.0903 11.75 15.0594C11.75 16.9422 13.2191 18.0577 14.845 19.2487C14.9905 19.3552 15.1364 19.4623 15.2787 19.5689C15.5709 19.7879 15.811 19.964 16.0365 20.0893C16.2615 20.2143 16.406 20.2499 16.5 20.2499C16.594 20.2499 16.7385 20.2143 16.9635 20.0893C17.189 19.964 17.4291 19.7879 17.7213 19.5689C17.888 19.444 18.0555 19.3212 18.2222 19.199C18.9097 18.6949 19.5844 18.2002 20.1443 17.6009C20.8143 16.8838 21.25 16.0837 21.25 15.0594C21.25 14.4229 21.0019 13.8514 20.6048 13.4354C20.1988 13.0101 19.6433 12.753 19.0398 12.7499C18.4445 12.7469 17.7361 12.9916 17.027 13.6919C16.7349 13.9804 16.2651 13.9804 15.973 13.6919C14.9309 12.6627 13.8774 12.598 13.1208 12.9268Z" fill="black"/>
</svg>
