<svg width="24" height="24" viewBox="0 0 24 24" fill="none" xmlns="http://www.w3.org/2000/svg">
<path fill-rule="evenodd" clip-rule="evenodd" d="M10.948 1.25H13.052C13.9505 1.24997 14.6997 1.24995 15.2945 1.32991C15.9223 1.41432 16.4891 1.59999 16.9445 2.05546C17.4 2.51093 17.5857 3.07773 17.6701 3.70552C17.7501 4.30031 17.75 5.04953 17.75 5.94801L17.75 7.40438C19.5884 9.00842 20.75 11.3686 20.75 14C20.75 18.8325 16.8325 22.75 12 22.75C7.16751 22.75 3.25 18.8325 3.25 14C3.25 11.3686 4.4116 9.00842 6.25 7.40438L6.25 5.948C6.24997 5.04952 6.24994 4.3003 6.32991 3.70552C6.41432 3.07773 6.59999 2.51093 7.05546 2.05546C7.51093 1.59999 8.07773 1.41432 8.70552 1.32991C9.3003 1.24995 10.0495 1.24997 10.948 1.25ZM7.75 6.34965C9.00837 5.6491 10.4576 5.25 12 5.25C13.5424 5.25 14.9916 5.6491 16.25 6.34965V6C16.25 5.03599 16.2484 4.38843 16.1835 3.90539C16.1214 3.44393 16.0142 3.24644 15.8839 3.11612C15.7536 2.9858 15.5561 2.87858 15.0946 2.81654C14.6116 2.7516 13.964 2.75 13 2.75H11C10.036 2.75 9.38843 2.7516 8.90539 2.81654C8.44393 2.87858 8.24643 2.9858 8.11612 3.11612C7.9858 3.24644 7.87858 3.44393 7.81653 3.90539C7.75159 4.38843 7.75 5.03599 7.75 6V6.34965ZM12 6.75C7.99594 6.75 4.75 9.99594 4.75 14C4.75 18.0041 7.99594 21.25 12 21.25C16.0041 21.25 19.25 18.0041 19.25 14C19.25 9.99594 16.0041 6.75 12 6.75ZM12 12.0345C11.9419 12.1351 11.8772 12.251 11.801 12.3877L11.7027 12.564C11.6958 12.5765 11.6884 12.5901 11.6804 12.6047C11.6019 12.7483 11.4718 12.9861 11.255 13.1507C11.0336 13.3188 10.7673 13.3766 10.6116 13.4104C10.596 13.4138 10.5815 13.4169 10.5683 13.4199L10.3774 13.4631C10.2022 13.5028 10.0595 13.5351 9.9375 13.5658C10.0169 13.6634 10.1199 13.7847 10.254 13.9415L10.3842 14.0937C10.3934 14.1045 10.4035 14.1161 10.4141 14.1284C10.5221 14.2527 10.6963 14.4535 10.7769 14.7126C10.8566 14.9687 10.8291 15.2324 10.8118 15.3988C10.81 15.4154 10.8084 15.431 10.807 15.4456L10.7873 15.6487C10.7691 15.8369 10.7549 15.9872 10.7455 16.1094C10.8497 16.0635 10.9682 16.0089 11.109 15.9441L11.2878 15.8618C11.3001 15.8561 11.3136 15.8498 11.3281 15.8429C11.4716 15.7752 11.7213 15.6575 12 15.6575C12.2787 15.6575 12.5284 15.7752 12.6719 15.8429C12.6864 15.8498 12.6999 15.8561 12.7122 15.8618L12.891 15.9441C13.0318 16.0089 13.1503 16.0635 13.2545 16.1094C13.2451 15.9872 13.2309 15.8369 13.2127 15.6487L13.193 15.4456C13.1916 15.4311 13.19 15.4154 13.1882 15.3988C13.1709 15.2324 13.1434 14.9687 13.2231 14.7126C13.3037 14.4535 13.4779 14.2527 13.5859 14.1284C13.5965 14.1161 13.6066 14.1045 13.6158 14.0937L13.746 13.9415C13.8801 13.7847 13.9831 13.6634 14.0625 13.5658C13.9405 13.5351 13.7978 13.5028 13.6226 13.4631L13.4317 13.4199C13.4185 13.4169 13.404 13.4138 13.3884 13.4104C13.2327 13.3766 12.9664 13.3188 12.745 13.1507C12.5282 12.9861 12.3981 12.7483 12.3196 12.6047C12.3116 12.5901 12.3042 12.5765 12.2973 12.564L12.199 12.3877C12.1228 12.251 12.0581 12.1351 12 12.0345ZM11.0135 10.7996C11.1857 10.5748 11.4983 10.25 12 10.25C12.5017 10.25 12.8143 10.5748 12.9865 10.7996C13.1508 11.0142 13.3163 11.3112 13.486 11.6158C13.4937 11.6296 13.5014 11.6435 13.5091 11.6573L13.6075 11.8337C13.6303 11.8746 13.6482 11.9068 13.6639 11.9343C13.6912 11.9407 13.723 11.9479 13.7627 11.9569L13.9536 12.0001C13.9693 12.0036 13.9849 12.0072 14.0006 12.0107C14.3284 12.0848 14.6542 12.1584 14.9042 12.257C15.1804 12.3658 15.5547 12.5777 15.6989 13.0416C15.8407 13.4973 15.6618 13.8834 15.5056 14.1315C15.3611 14.3611 15.1414 14.6179 14.9165 14.8808C14.9063 14.8926 14.8961 14.9045 14.886 14.9164L14.7558 15.0686C14.7213 15.1089 14.6953 15.1394 14.6735 15.1657C14.6764 15.202 14.6805 15.2443 14.686 15.3009L14.7057 15.504C14.7072 15.5195 14.7087 15.5349 14.7102 15.5504C14.7444 15.9023 14.7774 16.2424 14.7653 16.5145C14.7526 16.7997 14.6841 17.2315 14.2969 17.5254C13.8975 17.8286 13.4564 17.7626 13.1767 17.6824C12.9189 17.6086 12.6144 17.4682 12.3077 17.3269C12.293 17.3201 12.2783 17.3134 12.2636 17.3066L12.0849 17.2243C12.0514 17.2089 12.024 17.1963 12 17.1854C11.976 17.1963 11.9486 17.2089 11.9151 17.2243L11.7364 17.3066C11.7217 17.3134 11.707 17.3201 11.6923 17.3269C11.3856 17.4682 11.081 17.6086 10.8233 17.6824C10.5436 17.7626 10.1025 17.8286 9.70306 17.5254C9.31589 17.2315 9.24743 16.7997 9.23473 16.5145C9.22261 16.2424 9.25563 15.9023 9.28981 15.5504C9.29131 15.5349 9.29281 15.5195 9.29432 15.504L9.31399 15.3009C9.31948 15.2443 9.32356 15.202 9.32655 15.1657C9.30465 15.1394 9.27866 15.1089 9.24418 15.0686L9.11403 14.9164C9.10385 14.9045 9.09367 14.8926 9.08351 14.8807C8.85859 14.6179 8.63891 14.3611 8.49436 14.1315C8.33817 13.8834 8.15934 13.4973 8.30105 13.0416C8.44532 12.5777 8.81962 12.3658 9.09576 12.257C9.34584 12.1584 9.67163 12.0848 9.99943 12.0107C10.0151 12.0072 10.0307 12.0036 10.0463 12.0001L10.2373 11.9569C10.277 11.9479 10.3088 11.9407 10.3361 11.9343C10.3518 11.9068 10.3697 11.8746 10.3925 11.8337L10.4909 11.6573C10.4986 11.6435 10.5063 11.6296 10.514 11.6158C10.6837 11.3112 10.8492 11.0142 11.0135 10.7996Z" fill="black"/>
</svg>
