<svg width="24" height="24" viewBox="0 0 24 24" fill="none" xmlns="http://www.w3.org/2000/svg">
<path fill-rule="evenodd" clip-rule="evenodd" d="M12 1.25C12.4142 1.25 12.75 1.58579 12.75 2V4C12.75 4.41421 12.4142 4.75 12 4.75C11.5858 4.75 11.25 4.41421 11.25 4V2C11.25 1.58579 11.5858 1.25 12 1.25ZM18.5304 5.46955C18.8233 5.76245 18.8233 6.23732 18.5304 6.53021L18.1872 6.87348C17.8943 7.16637 17.4194 7.16637 17.1265 6.87348C16.8336 6.58058 16.8336 6.10571 17.1265 5.81282L17.4698 5.46955C17.7627 5.17666 18.2376 5.17666 18.5304 5.46955ZM5.46967 5.46967C5.76256 5.17678 6.23744 5.17678 6.53033 5.46967L6.87359 5.81293C7.16648 6.10582 7.16648 6.5807 6.87359 6.87359C6.5807 7.16648 6.10582 7.16648 5.81293 6.87359L5.46967 6.53033C5.17678 6.23744 5.17678 5.76256 5.46967 5.46967ZM11.9437 7.88204C11.7675 8.11216 11.5606 8.47938 11.2317 9.06936L11.0678 9.36329C11.0557 9.38498 11.0435 9.40714 11.0311 9.42967C10.8918 9.68183 10.7267 9.98073 10.456 10.1863C10.1807 10.3952 9.84803 10.469 9.57478 10.5296C9.55051 10.535 9.52671 10.5403 9.50345 10.5455L9.18528 10.6175C8.54488 10.7624 8.15208 10.8535 7.89289 10.9556C7.83731 10.9775 7.79792 10.9961 7.77056 11.0107C7.78524 11.0432 7.80965 11.0898 7.84982 11.1536C8.00484 11.3999 8.27473 11.7185 8.71005 12.2275L8.92696 12.4812C8.94268 12.4995 8.95872 12.5182 8.97499 12.5371C9.16347 12.7559 9.38284 13.0105 9.4841 13.3361C9.58443 13.6588 9.55079 13.9938 9.52144 14.2861C9.51889 14.3115 9.51638 14.3365 9.514 14.3611L9.4812 14.6995C9.41549 15.3777 9.37598 15.8044 9.38923 16.1018C9.39179 16.1592 9.39608 16.2034 9.40075 16.237C9.4246 16.2318 9.45345 16.2246 9.48794 16.2147C9.75505 16.1382 10.1245 15.9704 10.7242 15.6943L11.0221 15.5572C11.0441 15.547 11.0666 15.5366 11.0895 15.5259C11.3428 15.4079 11.655 15.2624 12 15.2624C12.345 15.2624 12.6572 15.4079 12.9105 15.5259C12.9334 15.5366 12.9559 15.547 12.9779 15.5572L13.2758 15.6943C13.8755 15.9704 14.2449 16.1382 14.5121 16.2147C14.5466 16.2246 14.5754 16.2318 14.5993 16.237C14.6039 16.2034 14.6082 16.1592 14.6108 16.1018C14.624 15.8044 14.5845 15.3777 14.5188 14.6995L14.486 14.3611C14.4836 14.3365 14.4811 14.3115 14.4786 14.2861C14.4492 13.9938 14.4156 13.6588 14.5159 13.3361C14.6172 13.0105 14.8365 12.7559 15.025 12.5371C15.0413 12.5182 15.0573 12.4995 15.073 12.4812L15.29 12.2275C15.7253 11.7185 15.9952 11.3999 16.1502 11.1536C16.1904 11.0898 16.2148 11.0432 16.2294 11.0107C16.2021 10.9961 16.1627 10.9775 16.1071 10.9556C15.8479 10.8535 15.4551 10.7624 14.8147 10.6175L14.4965 10.5455C14.4733 10.5403 14.4495 10.535 14.4252 10.5296C14.152 10.469 13.8193 10.3952 13.544 10.1863C13.2733 9.98072 13.1082 9.68182 12.9689 9.42966C12.9565 9.40713 12.9443 9.38498 12.9322 9.36329L12.7683 9.06936C12.4394 8.47938 12.2325 8.11216 12.0563 7.88204C12.035 7.85429 12.0163 7.83131 12 7.81236C11.9837 7.83131 11.965 7.85429 11.9437 7.88204ZM16.2854 11.0478C16.285 11.0479 16.2821 11.0456 16.278 11.0408C16.2838 11.0453 16.2859 11.0477 16.2854 11.0478ZM16.2492 10.958C16.2494 10.9521 16.2502 10.9488 16.2505 10.9486C16.2509 10.9484 16.2508 10.9513 16.2492 10.958ZM14.5774 16.3308C14.5772 16.3306 14.5782 16.3281 14.5805 16.3241C14.5787 16.329 14.5775 16.331 14.5774 16.3308ZM14.6891 16.2502C14.6943 16.2494 14.6974 16.2494 14.6976 16.2497C14.6978 16.2499 14.6952 16.2503 14.6891 16.2502ZM9.30242 16.2497C9.30263 16.2494 9.30567 16.2494 9.31091 16.2502C9.30482 16.2503 9.30221 16.2499 9.30242 16.2497ZM9.41951 16.3241C9.42184 16.3281 9.42276 16.3306 9.42264 16.3308C9.42251 16.331 9.42135 16.329 9.41951 16.3241ZM7.74947 10.9486C7.74983 10.9488 7.75065 10.9521 7.75084 10.958C7.7492 10.9513 7.7491 10.9484 7.74947 10.9486ZM7.72196 11.0408C7.71793 11.0456 7.71503 11.0479 7.71458 11.0478C7.71414 11.0477 7.71616 11.0453 7.72196 11.0408ZM10.7528 6.97005C11.012 6.63162 11.4036 6.25 12 6.25C12.5964 6.25 12.988 6.63162 13.2472 6.97005C13.4983 7.29792 13.7581 7.7641 14.0514 8.29035L14.2424 8.63294C14.3379 8.80436 14.3893 8.89541 14.4318 8.95932C14.4402 8.97204 14.4469 8.98138 14.4518 8.98805C14.4581 8.99032 14.4663 8.99314 14.4769 8.99647C14.5453 9.01804 14.6411 9.04032 14.8276 9.08251L15.2012 9.16704C15.7683 9.2953 16.2771 9.41035 16.6571 9.5601C17.0635 9.72027 17.5139 9.99316 17.6875 10.5512C17.8584 11.101 17.6523 11.5831 17.4196 11.9527C17.1987 12.3036 16.8542 12.7064 16.4657 13.1606L16.213 13.4561C16.0865 13.604 16.0199 13.6828 15.975 13.7445C15.9616 13.7629 15.9537 13.7752 15.9493 13.7825C15.9486 13.7916 15.948 13.8079 15.9485 13.8339C15.9501 13.9131 15.9599 14.0195 15.979 14.2164L16.017 14.6089C16.076 15.2165 16.1279 15.7515 16.1093 16.1685C16.0901 16.5991 15.9897 17.1254 15.5259 17.4775C15.0499 17.8388 14.5129 17.7753 14.0989 17.6567C13.7073 17.5445 13.2314 17.3253 12.7006 17.0808L12.6485 17.0568L12.3506 16.9197C12.176 16.8393 12.0857 16.7983 12.0179 16.7737C12.011 16.7712 12.0051 16.7691 12 16.7674C11.9949 16.7691 11.989 16.7712 11.9821 16.7737C11.9143 16.7983 11.824 16.8393 11.6494 16.9197L11.2994 17.0808C10.7686 17.3253 10.2927 17.5445 9.90111 17.6567C9.48708 17.7753 8.9501 17.8388 8.47409 17.4775C8.01032 17.1254 7.9099 16.5991 7.89071 16.1685C7.87214 15.7515 7.92402 15.2165 7.98296 14.6089L8.02099 14.2164C8.04007 14.0195 8.04987 13.9131 8.05147 13.8339C8.05199 13.8079 8.05135 13.7916 8.05069 13.7825C8.04629 13.7752 8.03836 13.7629 8.02495 13.7445C7.98014 13.6828 7.91352 13.604 7.78696 13.4561L7.53434 13.1607C7.14579 12.7064 6.80127 12.3036 6.5804 11.9527C6.34769 11.5831 6.14156 11.101 6.31254 10.5512C6.48606 9.99316 6.93649 9.72027 7.34293 9.5601C7.7229 9.41035 8.23166 9.2953 8.79884 9.16704C8.81725 9.16288 8.83573 9.1587 8.85426 9.1545L9.17243 9.08251C9.3589 9.04032 9.45469 9.01804 9.52309 8.99647C9.53366 8.99314 9.5419 8.99032 9.54816 8.98804C9.55312 8.98138 9.55976 8.97204 9.56822 8.95932C9.61072 8.89541 9.66208 8.80436 9.75764 8.63294L9.92149 8.33901C9.93056 8.32274 9.9396 8.30652 9.94861 8.29035C10.2419 7.7641 10.5017 7.29793 10.7528 6.97005ZM8.04994 13.7746C8.0497 13.7734 8.04962 13.7728 8.04963 13.7727ZM14.4631 9.00218C14.4636 9.00268 14.4631 9.0022 14.4631 9.00218ZM1.25 12C1.25 11.5858 1.58579 11.25 2 11.25H4C4.41421 11.25 4.75 11.5858 4.75 12C4.75 12.4142 4.41421 12.75 4 12.75H2C1.58579 12.75 1.25 12.4142 1.25 12ZM19.25 12C19.25 11.5858 19.5858 11.25 20 11.25H22C22.4142 11.25 22.75 11.5858 22.75 12C22.75 12.4142 22.4142 12.75 22 12.75H20C19.5858 12.75 19.25 12.4142 19.25 12ZM6.87348 17.1265C7.16637 17.4194 7.16637 17.8943 6.87348 18.1872L6.53043 18.5302C6.23754 18.8231 5.76266 18.8231 5.46977 18.5302C5.17688 18.2373 5.17688 17.7625 5.46977 17.4696L5.81282 17.1265C6.10571 16.8336 6.58058 16.8336 6.87348 17.1265ZM17.1265 17.1267C17.4194 16.8339 17.8943 16.8339 18.1872 17.1267L18.5302 17.4698C18.8231 17.7627 18.8231 18.2376 18.5302 18.5305C18.2373 18.8233 17.7624 18.8233 17.4695 18.5305L17.1265 18.1874C16.8336 17.8945 16.8336 17.4196 17.1265 17.1267ZM12 19.25C12.4142 19.25 12.75 19.5858 12.75 20V22C12.75 22.4142 12.4142 22.75 12 22.75C11.5858 22.75 11.25 22.4142 11.25 22V20C11.25 19.5858 11.5858 19.25 12 19.25Z" fill="black"/>
</svg>
