<svg width="24" height="24" viewBox="0 0 24 24" fill="none" xmlns="http://www.w3.org/2000/svg">
<path d="M2 5C2 4.05719 2 3.58579 2.29289 3.29289C2.58579 3 3.05719 3 4 3H20C20.9428 3 21.4142 3 21.7071 3.29289C22 3.58579 22 4.05719 22 5C22 5.94281 22 6.41421 21.7071 6.70711C21.4142 7 20.9428 7 20 7H4C3.05719 7 2.58579 7 2.29289 6.70711C2 6.41421 2 5.94281 2 5Z" fill="black"/>
<path fill-rule="evenodd" clip-rule="evenodd" d="M20.0689 8.49993C20.2101 8.49999 20.3551 8.50005 20.5 8.49805V12.9999C20.5 16.7711 20.5 18.6568 19.3284 19.8283C18.1569 20.9999 16.2712 20.9999 12.5 20.9999H11.5C7.72876 20.9999 5.84315 20.9999 4.67157 19.8283C3.5 18.6568 3.5 16.7711 3.5 12.9999V8.49805C3.64488 8.50005 3.78999 8.49999 3.93114 8.49993H20.0689ZM14.9995 12.1906C15.3085 12.4664 15.3353 12.9405 15.0595 13.2495L11.488 17.2495C11.3457 17.4089 11.1422 17.5 10.9286 17.5C10.7149 17.5 10.5114 17.4089 10.3691 17.2495L8.94055 15.6495C8.66468 15.3405 8.69152 14.8664 9.0005 14.5906C9.30947 14.3147 9.78359 14.3415 10.0595 14.6505L10.9286 15.6239L13.9406 12.2505C14.2164 11.9415 14.6905 11.9147 14.9995 12.1906Z" fill="black"/>
</svg>
