<svg width="24" height="24" viewBox="0 0 24 24" fill="none" xmlns="http://www.w3.org/2000/svg">
<path d="M8 3.5C8 2.67157 8.67157 2 9.5 2H14.5C15.3284 2 16 2.67157 16 3.5V4.5C16 5.32843 15.3284 6 14.5 6H9.5C8.67157 6 8 5.32843 8 4.5V3.5Z" fill="black"/>
<path fill-rule="evenodd" clip-rule="evenodd" d="M6.5 4.03662C5.24209 4.10719 4.44798 4.30764 3.87868 4.87694C3 5.75562 3 7.16983 3 9.99826V15.9983C3 18.8267 3 20.2409 3.87868 21.1196C4.75736 21.9983 6.17157 21.9983 9 21.9983H15C17.8284 21.9983 19.2426 21.9983 20.1213 21.1196C21 20.2409 21 18.8267 21 15.9983V9.99826C21 7.16983 21 5.75562 20.1213 4.87694C19.552 4.30764 18.7579 4.10719 17.5 4.03662V4.5C17.5 6.15685 16.1569 7.5 14.5 7.5H9.5C7.84315 7.5 6.5 6.15685 6.5 4.5V4.03662ZM6.25 10.5C6.25 10.0858 6.58579 9.75 7 9.75H17C17.4142 9.75 17.75 10.0858 17.75 10.5C17.75 10.9142 17.4142 11.25 17 11.25H7C6.58579 11.25 6.25 10.9142 6.25 10.5ZM7.25 14C7.25 13.5858 7.58579 13.25 8 13.25H16C16.4142 13.25 16.75 13.5858 16.75 14C16.75 14.4142 16.4142 14.75 16 14.75H8C7.58579 14.75 7.25 14.4142 7.25 14ZM8.25 17.5C8.25 17.0858 8.58579 16.75 9 16.75H15C15.4142 16.75 15.75 17.0858 15.75 17.5C15.75 17.9142 15.4142 18.25 15 18.25H9C8.58579 18.25 8.25 17.9142 8.25 17.5Z" fill="black"/>
</svg>
