<svg width="24" height="24" viewBox="0 0 24 24" fill="none" xmlns="http://www.w3.org/2000/svg">
<path d="M9.5 2C8.67157 2 8 2.67157 8 3.5V4.5C8 5.32843 8.67157 6 9.5 6H14.5C15.3284 6 16 5.32843 16 4.5V3.5C16 2.67157 15.3284 2 14.5 2H9.5Z" fill="black"/>
<path fill-rule="evenodd" clip-rule="evenodd" d="M6.5 4.03662C5.24209 4.10719 4.44798 4.30764 3.87868 4.87694C3 5.75562 3 7.16983 3 9.99826V15.9983C3 18.8267 3 20.2409 3.87868 21.1196C4.75736 21.9983 6.17157 21.9983 9 21.9983H15C17.8284 21.9983 19.2426 21.9983 20.1213 21.1196C21 20.2409 21 18.8267 21 15.9983V9.99826C21 7.16983 21 5.75562 20.1213 4.87694C19.552 4.30764 18.7579 4.10719 17.5 4.03662V4.5C17.5 6.15685 16.1569 7.5 14.5 7.5H9.5C7.84315 7.5 6.5 6.15685 6.5 4.5V4.03662ZM7 13.75C6.58579 13.75 6.25 14.0858 6.25 14.5C6.25 14.9142 6.58579 15.25 7 15.25H15C15.4142 15.25 15.75 14.9142 15.75 14.5C15.75 14.0858 15.4142 13.75 15 13.75H7ZM7 17.25C6.58579 17.25 6.25 17.5858 6.25 18C6.25 18.4142 6.58579 18.75 7 18.75H12.5C12.9142 18.75 13.25 18.4142 13.25 18C13.25 17.5858 12.9142 17.25 12.5 17.25H7Z" fill="black"/>
</svg>
