<svg width="24" height="24" viewBox="0 0 24 24" fill="none" xmlns="http://www.w3.org/2000/svg">
<path d="M2.75458 14.716L3.27222 16.6479C3.87647 18.9029 4.17859 20.0305 4.86351 20.7618C5.40432 21.3392 6.10421 21.7433 6.87466 21.9229C7.85044 22.1504 8.97798 21.8483 11.2331 21.244C13.4881 20.6398 14.6157 20.3377 15.347 19.6528C15.4077 19.5959 15.4664 19.5373 15.5233 19.477C15.1891 19.449 14.852 19.3952 14.5094 19.3271C13.8133 19.1887 12.9862 18.967 12.008 18.7049L11.9012 18.6763L11.8764 18.6697C10.8121 18.3845 9.92281 18.1457 9.21277 17.8892C8.46607 17.6195 7.7876 17.287 7.21148 16.7474C6.41753 16.0038 5.86193 15.0414 5.61491 13.982C5.43567 13.2133 5.48691 12.4594 5.62666 11.6779C5.76058 10.929 6.00109 10.0315 6.28926 8.95613L6.28926 8.95611L6.82365 6.96174L6.84245 6.8916C4.9219 7.40896 3.91101 7.71505 3.23687 8.34646C2.65945 8.88726 2.25537 9.58715 2.07573 10.3576C1.84821 11.3334 2.15033 12.4609 2.75458 14.716Z" fill="black"/>
<path fill-rule="evenodd" clip-rule="evenodd" d="M20.8293 10.7154L20.3116 12.6473C19.7074 14.9024 19.4052 16.0299 18.7203 16.7612C18.1795 17.3386 17.4796 17.7427 16.7092 17.9223C16.6129 17.9448 16.5152 17.9621 16.415 17.9744C15.4999 18.0873 14.3834 17.7881 12.3508 17.2435C10.0957 16.6392 8.96815 16.3371 8.23687 15.6522C7.65945 15.1114 7.25537 14.4115 7.07573 13.641C6.84821 12.6652 7.15033 11.5377 7.75458 9.28263L8.27222 7.35077C8.3591 7.02654 8.43979 6.7254 8.51621 6.44561C8.97128 4.77957 9.27709 3.86298 9.86351 3.23687C10.4043 2.65945 11.1042 2.25537 11.8747 2.07573C12.8504 1.84821 13.978 2.15033 16.2331 2.75458C18.4881 3.35883 19.6157 3.66095 20.347 4.34587C20.9244 4.88668 21.3285 5.58657 21.5081 6.35703C21.7356 7.3328 21.4335 8.46034 20.8293 10.7154ZM11.0524 9.80589C11.1596 9.40579 11.5709 9.16835 11.971 9.27556L16.8006 10.5697C17.2007 10.6769 17.4381 11.0881 17.3309 11.4882C17.2237 11.8883 16.8125 12.1257 16.4124 12.0185L11.5827 10.7244C11.1826 10.6172 10.9452 10.206 11.0524 9.80589ZM10.2756 12.7033C10.3828 12.3032 10.794 12.0658 11.1941 12.173L14.0919 12.9495C14.492 13.0567 14.7294 13.4679 14.6222 13.868C14.515 14.2681 14.1038 14.5056 13.7037 14.3984L10.8059 13.6219C10.4058 13.5147 10.1683 13.1034 10.2756 12.7033Z" fill="black"/>
</svg>
