<svg width="24" height="24" viewBox="0 0 24 24" fill="none" xmlns="http://www.w3.org/2000/svg">
<path d="M13.2895 5.7897C13.0092 4.77646 13.3942 3.48102 14.1374 2.73779C15.1212 1.75407 16.7161 1.75407 17.6998 2.73779C18.6835 3.72152 18.6835 5.31646 17.6998 6.30018C18.6835 5.31646 20.2785 5.31646 21.2622 6.30018C22.2459 7.28391 22.2459 8.87884 21.2622 9.86257C20.519 10.6058 19.2235 10.9908 18.2103 10.7105C17.674 10.562 17.0246 10.5378 16.6311 10.9313L15.7886 11.7738L13.1037 12.1866V11.6465C13.1037 11.4054 12.9879 11.179 12.7923 11.0381C12.5967 10.8971 12.3453 10.8587 12.1166 10.935L10.9824 11.313V9.45519L13.0687 7.3689C13.4622 6.97541 13.438 6.32603 13.2895 5.7897Z" fill="black"/>
<path d="M9.48242 10.9552L7.3689 13.0687C6.97541 13.4622 6.32603 13.438 5.7897 13.2895C4.77646 13.0092 3.48101 13.3942 2.73779 14.1374C1.75407 15.1212 1.75407 16.7161 2.73779 17.6998C3.72152 18.6835 5.31646 18.6835 6.30018 17.6998C5.31646 18.6835 5.31645 20.2785 6.30018 21.2622C7.28391 22.2459 8.87884 22.2459 9.86257 21.2622C10.6058 20.519 10.9908 19.2235 10.7105 18.2103C10.562 17.674 10.5378 17.0246 10.9313 16.6311L13.9953 13.5671L12.4677 13.802C12.2514 13.8352 12.0314 13.7724 11.8654 13.6299C11.6993 13.4874 11.6037 13.2795 11.6037 13.0607V12.6871L10.4696 13.0651C10.2409 13.1413 9.98947 13.103 9.79389 12.962C9.59831 12.8211 9.48242 12.5947 9.48242 12.3536V10.9552Z" fill="black"/>
</svg>
