<svg width="24" height="24" viewBox="0 0 24 24" fill="none" xmlns="http://www.w3.org/2000/svg">
<path fill-rule="evenodd" clip-rule="evenodd" d="M8.96173 18.4687C6.01943 16.2137 2 12.4886 2 8.96653C2 3.08262 7.50016 0.885859 12 5.43111C16.4998 0.885859 22 3.08262 22 8.9665C22 12.4887 17.9806 16.2137 15.0383 18.4687C13.7063 19.4896 13.0403 20 12 20C10.9597 20 10.2937 19.4896 8.96173 18.4687ZM16.5 6.25C16.9142 6.25 17.25 6.58579 17.25 7V8.25002H18.5C18.9142 8.25002 19.25 8.5858 19.25 9.00002C19.25 9.41423 18.9142 9.75002 18.5 9.75002H17.25V11C17.25 11.4142 16.9142 11.75 16.5 11.75C16.0858 11.75 15.75 11.4142 15.75 11V9.75002L14.5 9.75002C14.0858 9.75002 13.75 9.41423 13.75 9.00002C13.75 8.5858 14.0858 8.25002 14.5 8.25002H15.75V7C15.75 6.58579 16.0858 6.25 16.5 6.25Z" fill="black"/>
</svg>
