<svg width="24" height="24" viewBox="0 0 24 24" fill="none" xmlns="http://www.w3.org/2000/svg">
<path fill-rule="evenodd" clip-rule="evenodd" d="M8.96173 19.3707C6.01943 16.9714 2 13.0079 2 9.26044C2 3.3495 7.50016 0.662637 12 5.49877C16.4998 0.662637 22 3.34931 22 9.2604C22 13.008 17.9806 16.9714 15.0383 19.3707C13.7063 20.4569 13.0403 21 12 21C10.9597 21 10.2937 20.4569 8.96173 19.3707ZM10.0932 10.7463C10.1827 10.6184 10.2571 10.5122 10.3233 10.4213C10.3793 10.5188 10.4418 10.6324 10.517 10.7692L12.2273 13.8787C12.3933 14.1808 12.5562 14.4771 12.7197 14.6921C12.8947 14.9221 13.2023 15.2374 13.6954 15.2466C14.1884 15.2559 14.5077 14.9524 14.6912 14.7291C14.8627 14.5204 15.0365 14.2305 15.2138 13.9349L15.2692 13.8425C15.49 13.4745 15.629 13.2444 15.752 13.0782C15.8654 12.9251 15.9309 12.8751 15.9798 12.8475C16.0286 12.8198 16.1052 12.7894 16.2948 12.7709C16.5006 12.7509 16.7694 12.7501 17.1986 12.7501H18C18.4142 12.7501 18.75 12.4143 18.75 12.0001C18.75 11.5859 18.4142 11.2501 18 11.2501L17.1662 11.2501C16.7791 11.2501 16.4367 11.2501 16.1497 11.278C15.8385 11.3082 15.5357 11.3751 15.2407 11.5422C14.9457 11.7092 14.7325 11.9344 14.5465 12.1857C14.3749 12.4174 14.1988 12.711 13.9996 13.043L13.9521 13.1222C13.8654 13.2668 13.793 13.3872 13.7284 13.4906C13.6676 13.3849 13.5999 13.2618 13.5186 13.1141L11.8092 10.006C11.6551 9.7256 11.5015 9.44626 11.3458 9.24147C11.1756 9.01775 10.8839 8.72194 10.4164 8.6967C9.94887 8.67146 9.62698 8.93414 9.43373 9.13823C9.25683 9.32506 9.0741 9.58625 8.89069 9.84841L8.58131 10.2904C8.35416 10.6149 8.21175 10.8171 8.08848 10.9629C7.975 11.0971 7.91193 11.1411 7.86538 11.1653C7.81882 11.1896 7.74663 11.216 7.57159 11.232C7.38144 11.2494 7.13413 11.2501 6.73803 11.2501H6C5.58579 11.2501 5.25 11.5859 5.25 12.0001C5.25 12.4143 5.58579 12.7501 6 12.7501L6.76812 12.7501C7.12509 12.7501 7.44153 12.7501 7.70801 12.7258C7.99707 12.6994 8.27904 12.6411 8.55809 12.4958C8.83714 12.3505 9.04661 12.153 9.234 11.9313C9.40676 11.7269 9.58821 11.4677 9.79291 11.1752L10.0932 10.7463Z" fill="black"/>
</svg>
