<svg width="24" height="24" viewBox="0 0 24 24" fill="none" xmlns="http://www.w3.org/2000/svg">
<path d="M6.07612 2.61732C6 2.80109 6 3.03406 6 3.5C6 3.96594 6 4.19891 6.07612 4.38268C6.17761 4.62771 6.37229 4.82239 6.61732 4.92388C6.80109 5 7.03406 5 7.5 5H9H15H16.5C16.9659 5 17.1989 5 17.3827 4.92388C17.6277 4.82239 17.8224 4.62771 17.9239 4.38268C18 4.19891 18 3.96594 18 3.5C18 3.03406 18 2.80109 17.9239 2.61732C17.8224 2.37229 17.6277 2.17761 17.3827 2.07612C17.1989 2 16.9659 2 16.5 2H7.5C7.03406 2 6.80109 2 6.61732 2.07612C6.37229 2.17761 6.17761 2.37229 6.07612 2.61732Z" fill="black"/>
<path d="M7.74997 6L5.50122 7.79896C5.00902 8.19272 4.62351 8.69147 4.36644 9.24994H19.6401C19.3862 8.69266 19.0046 8.19417 18.5168 7.79925L16.2942 6H7.74997Z" fill="black"/>
<path fill-rule="evenodd" clip-rule="evenodd" d="M20 10.9082C20 10.8553 19.999 10.8026 19.9969 10.7499H4.00371C4.00124 10.8073 4 10.8648 4 10.9224V17.2499H20V10.9082ZM12.75 13.2499V11.9999C12.75 11.5857 12.4142 11.2499 12 11.2499C11.5858 11.2499 11.25 11.5857 11.25 11.9999V13.2499H10C9.58579 13.2499 9.25 13.5857 9.25 13.9999C9.25 14.4141 9.58579 14.7499 10 14.7499H11.25V15.9999C11.25 16.4141 11.5858 16.7499 12 16.7499C12.4142 16.7499 12.75 16.4141 12.75 15.9999V14.7499H14C14.4142 14.7499 14.75 14.4141 14.75 13.9999C14.75 13.5857 14.4142 13.2499 14 13.2499H12.75Z" fill="black"/>
<path d="M4.92711 20.1125C4.5902 19.7082 4.33901 19.2447 4.18368 18.7499H19.8204C19.6677 19.2422 19.4202 19.704 19.0877 20.1077L18.7294 20.5428C17.9696 21.4654 16.837 21.9999 15.6417 21.9999H8.95693C8.38582 21.9999 8.10026 21.9999 7.82957 21.9628C7.02661 21.8526 6.27608 21.501 5.67738 20.9548C5.47554 20.7706 5.29272 20.5512 4.92711 20.1125Z" fill="black"/>
</svg>
