<svg width="24" height="24" viewBox="0 0 24 24" fill="none" xmlns="http://www.w3.org/2000/svg">
<path fill-rule="evenodd" clip-rule="evenodd" d="M22 16.5069V10C22 8.11438 22 7.17157 21.4142 6.58579C20.8284 6 19.8856 6 18 6H14C12.1144 6 11.1716 6 10.5858 6.58579C10 7.17157 10 8.11438 10 10V16.5069C10 17.1639 10.277 17.7906 10.7629 18.2329C13.7315 20.935 18.2685 20.935 21.2371 18.2329C21.723 17.7906 22 17.1639 22 16.5069ZM13.25 16C13.25 15.5858 13.5858 15.25 14 15.25H18C18.4142 15.25 18.75 15.5858 18.75 16C18.75 16.4142 18.4142 16.75 18 16.75H14C13.5858 16.75 13.25 16.4142 13.25 16ZM16 13.4999C17.1046 13.4999 18 12.5672 18 11.4166C18 10.6967 17.217 9.73582 16.6309 9.11737C16.2839 8.75124 15.7161 8.75124 15.3691 9.11737C14.783 9.73582 14 10.6967 14 11.4166C14 12.5672 14.8954 13.4999 16 13.4999Z" fill="black"/>
<path opacity="0.5" d="M14.2937 2.10195C13.6301 1.55699 12.7996 1.25627 11.9409 1.25009L11.8927 1.25H7.94513C6.57755 1.24998 5.47521 1.24997 4.60825 1.36653C3.70814 1.48754 2.95027 1.74644 2.34835 2.34835C1.74644 2.95027 1.48754 3.70814 1.36653 4.60825C1.24997 5.47521 1.24998 6.57752 1.25 7.9451L1.25 22.25C1.25 22.6642 1.58579 23 2 23C2.41422 23 2.75 22.6642 2.75 22.25V8C2.75 6.56459 2.7516 5.56347 2.85315 4.80812C2.9518 4.07435 3.13225 3.68577 3.40901 3.40901C3.68577 3.13225 4.07435 2.9518 4.80812 2.85315L8 2.75H11.8907L11.9301 2.75006L11.932 2.75007C12.4459 2.75421 12.9429 2.93416 13.3403 3.26L13.3418 3.26117L13.3726 3.28677L13.3767 3.2902C13.4124 3.31999 13.4373 3.34073 13.4597 3.35879C13.9929 3.78944 14.6125 4.05173 15.25 4.14872V6H16.75V4.07349C17.3633 3.91609 17.9437 3.60173 18.4266 3.13349C18.4473 3.11334 18.47 3.09066 18.5033 3.05738L19.0303 2.53033C19.3232 2.23744 19.3232 1.76257 19.0303 1.46967C18.7374 1.17678 18.2626 1.17678 17.9697 1.46967L17.4471 1.99228C17.4075 2.03182 17.3937 2.04566 17.3823 2.05668C17.1927 2.24051 16.9785 2.38474 16.75 2.48894V2C16.75 1.58579 16.4142 1.25 16 1.25C15.5858 1.25 15.25 1.58579 15.25 2V2.61957C14.9482 2.54134 14.6588 2.39908 14.4022 2.19186L14.3318 2.13359L14.2969 2.10454L14.2937 2.10195Z" fill="black"/>
<path opacity="0.5" d="M15.25 20.2234V21.25C15.25 21.6642 15.5858 22 16 22C16.4142 22 16.75 21.6642 16.75 21.25V20.2234C16.2512 20.2715 15.7488 20.2715 15.25 20.2234Z" fill="black"/>
</svg>
