<svg width="24" height="24" viewBox="0 0 24 24" fill="none" xmlns="http://www.w3.org/2000/svg">
<path opacity="0.5" d="M2 9.3175C2 13.0468 6.01943 16.991 8.96173 19.3786C10.2937 20.4595 10.9597 21 12 21C13.0403 21 13.7063 20.4596 15.0383 19.3787C17.9806 16.991 22 13.0468 22 9.31747C22 3.08748 16.4998 0.761498 12 5.57412C7.50016 0.761498 2 3.08748 2 9.3175Z" fill="black"/>
<path fill-rule="evenodd" clip-rule="evenodd" d="M16.5 6.25C16.9142 6.25 17.25 6.58579 17.25 7L17.25 8.25002H18.5C18.9142 8.25002 19.25 8.5858 19.25 9.00002C19.25 9.41423 18.9142 9.75002 18.5 9.75002H17.25V11C17.25 11.4142 16.9142 11.75 16.5 11.75C16.0858 11.75 15.75 11.4142 15.75 11L15.75 9.75002L14.5 9.75002C14.0858 9.75002 13.75 9.41423 13.75 9.00002C13.75 8.5858 14.0858 8.25002 14.5 8.25002H15.75L15.75 7C15.75 6.58579 16.0858 6.25 16.5 6.25Z" fill="black"/>
</svg>
