<svg width="24" height="24" viewBox="0 0 24 24" fill="none" xmlns="http://www.w3.org/2000/svg">
<path d="M2 14C2 10.2288 2 8.34315 3.17157 7.17157C4.34315 6 6.22876 6 10 6H14C17.7712 6 19.6569 6 20.8284 7.17157C22 8.34315 22 10.2288 22 14C22 17.7712 22 19.6569 20.8284 20.8284C19.6569 22 17.7712 22 14 22H10C6.22876 22 4.34315 22 3.17157 20.8284C2 19.6569 2 17.7712 2 14Z" stroke="black" stroke-width="1.5"/>
<path opacity="0.5" d="M21.6618 8.71973C18.6519 10.6761 17.147 11.6543 15.5605 12.1472C13.2416 12.8677 10.7586 12.8677 8.43963 12.1472C6.85313 11.6543 5.34822 10.6761 2.33838 8.71973" stroke="black" stroke-width="1.5" stroke-linecap="round"/>
<path d="M8 11V13" stroke="black" stroke-width="1.5" stroke-linecap="round"/>
<path d="M16 11V13" stroke="black" stroke-width="1.5" stroke-linecap="round"/>
<path opacity="0.5" d="M9.17065 4C9.58249 2.83481 10.6937 2 11.9999 2C13.3062 2 14.4174 2.83481 14.8292 4" stroke="black" stroke-width="1.5" stroke-linecap="round"/>
</svg>
