<svg width="24" height="24" viewBox="0 0 24 24" fill="none" xmlns="http://www.w3.org/2000/svg">
<path fill-rule="evenodd" clip-rule="evenodd" d="M12.052 1.25H11.948C11.0495 1.24997 10.3003 1.24995 9.70552 1.32991C9.07773 1.41432 8.51093 1.59999 8.05546 2.05546C7.59999 2.51093 7.41432 3.07773 7.32991 3.70552C7.24995 4.3003 7.24997 5.04951 7.25 5.94799V6.02572C5.22882 6.09185 4.01511 6.32803 3.17157 7.17157C2 8.34315 2 10.2288 2 14C2 17.7712 2 19.6569 3.17157 20.8284C4.34315 22 6.22876 22 10 22H14C17.7712 22 19.6569 22 20.8284 20.8284C22 19.6569 22 17.7712 22 14C22 10.2288 22 8.34315 20.8284 7.17157C19.9849 6.32803 18.7712 6.09185 16.75 6.02572V5.94801C16.75 5.04954 16.7501 4.3003 16.6701 3.70552C16.5857 3.07773 16.4 2.51093 15.9445 2.05546C15.4891 1.59999 14.9223 1.41432 14.2945 1.32991C13.6997 1.24995 12.9505 1.24997 12.052 1.25ZM15.25 6.00189V6C15.25 5.03599 15.2484 4.38843 15.1835 3.9054C15.1214 3.44393 15.0142 3.24644 14.8839 3.11612C14.7536 2.9858 14.5561 2.87858 14.0946 2.81654C13.6116 2.7516 12.964 2.75 12 2.75C11.036 2.75 10.3884 2.7516 9.90539 2.81654C9.44393 2.87858 9.24644 2.9858 9.11612 3.11612C8.9858 3.24644 8.87858 3.44393 8.81654 3.9054C8.7516 4.38843 8.75 5.03599 8.75 6V6.00189C9.14203 6 9.55807 6 10 6H14C14.4419 6 14.858 6 15.25 6.00189ZM17 9C17 9.55229 16.5523 10 16 10C15.4477 10 15 9.55229 15 9C15 8.44772 15.4477 8 16 8C16.5523 8 17 8.44772 17 9ZM8 10C8.55228 10 9 9.55229 9 9C9 8.44772 8.55228 8 8 8C7.44772 8 7 8.44772 7 9C7 9.55229 7.44772 10 8 10Z" fill="black"/>
</svg>
