<svg width="24" height="24" viewBox="0 0 24 24" fill="none" xmlns="http://www.w3.org/2000/svg">
<path d="M13.7522 14.4995C13.7522 12.8427 15.0953 11.4995 16.7522 11.4995C18.4091 11.4995 19.7522 12.8427 19.7522 14.4995C19.7522 16.1564 18.4091 17.4995 16.7522 17.4995C15.0953 17.4995 13.7522 16.1564 13.7522 14.4995Z" fill="black"/>
<path d="M3.7522 9.49951C3.7522 11.1564 5.09534 12.4995 6.7522 12.4995C8.40905 12.4995 9.7522 11.1564 9.7522 9.49951C9.7522 7.84266 8.40905 6.49951 6.7522 6.49951C5.09534 6.49951 3.7522 7.84266 3.7522 9.49951Z" fill="black"/>
<g opacity="0.5">
<path d="M7.46167 6.58367C7.2345 6.52866 6.99722 6.49951 6.75314 6.49951C6.47919 6.49951 6.21382 6.53623 5.96167 6.60502L5.96167 1.99951C5.96167 1.5853 6.29746 1.24951 6.71167 1.24951C7.12588 1.24951 7.46167 1.5853 7.46167 1.99951L7.46167 6.58367Z" fill="black"/>
<path d="M5.96167 12.394C6.21382 12.4628 6.47919 12.4995 6.75314 12.4995C6.99722 12.4995 7.2345 12.4704 7.46167 12.4154L7.46167 21.9995C7.46167 22.4137 7.12588 22.7495 6.71167 22.7495C6.29746 22.7495 5.96167 22.4137 5.96167 21.9995L5.96167 12.394Z" fill="black"/>
<path d="M15.9617 17.394V21.9995C15.9617 22.4137 16.2975 22.7495 16.7117 22.7495C17.1259 22.7495 17.4617 22.4137 17.4617 21.9995V17.4154C17.2345 17.4704 16.9972 17.4995 16.7531 17.4995C16.4792 17.4995 16.2138 17.4628 15.9617 17.394Z" fill="black"/>
<path d="M17.4617 11.5837V1.99951C17.4617 1.5853 17.1259 1.24951 16.7117 1.24951C16.2975 1.24951 15.9617 1.5853 15.9617 1.99951V11.605C16.2138 11.5362 16.4792 11.4995 16.7531 11.4995C16.9972 11.4995 17.2345 11.5287 17.4617 11.5837Z" fill="black"/>
</g>
</svg>
