<svg width="24" height="24" viewBox="0 0 24 24" fill="none" xmlns="http://www.w3.org/2000/svg">
<path d="M9.25 14C10.9069 14 12.25 15.3431 12.25 17C12.25 18.6569 10.9069 20 9.25 20C7.59315 20 6.25 18.6569 6.25 17C6.25 15.3431 7.59315 14 9.25 14Z" fill="black"/>
<path d="M14.25 4C12.5931 4 11.25 5.34315 11.25 7C11.25 8.65685 12.5931 10 14.25 10C15.9069 10 17.25 8.65685 17.25 7C17.25 5.34315 15.9069 4 14.25 4Z" fill="black"/>
<g opacity="0.5">
<path d="M17.1658 7.7085C17.2208 7.48132 17.25 7.24405 17.25 6.99997C17.25 6.72602 17.2133 6.46064 17.1445 6.2085H21.75C22.1642 6.2085 22.5 6.54428 22.5 6.9585C22.5 7.37271 22.1642 7.7085 21.75 7.7085L17.1658 7.7085Z" fill="black"/>
<path d="M11.3555 6.2085C11.2867 6.46064 11.25 6.72602 11.25 6.99997C11.25 7.24405 11.2791 7.48132 11.3342 7.7085L1.75 7.7085C1.33579 7.7085 1 7.37271 1 6.9585C1 6.54428 1.33579 6.2085 1.75 6.2085H11.3555Z" fill="black"/>
<path d="M6.35551 16.2085H1.75C1.33579 16.2085 1 16.5443 1 16.9585C1 17.3727 1.33579 17.7085 1.75 17.7085H6.33416C6.27915 17.4813 6.25 17.2441 6.25 17C6.25 16.726 6.28672 16.4606 6.35551 16.2085Z" fill="black"/>
<path d="M12.1658 17.7085H21.75C22.1642 17.7085 22.5 17.3727 22.5 16.9585C22.5 16.5443 22.1642 16.2085 21.75 16.2085H12.1445C12.2133 16.4606 12.25 16.726 12.25 17C12.25 17.2441 12.2209 17.4813 12.1658 17.7085Z" fill="black"/>
</g>
</svg>
