<svg width="24" height="24" viewBox="0 0 24 24" fill="none" xmlns="http://www.w3.org/2000/svg">
<path fill-rule="evenodd" clip-rule="evenodd" d="M9.25 7C9.25 5.48122 10.4812 4.25 12 4.25C13.5188 4.25 14.75 5.48122 14.75 7C14.75 8.51878 13.5188 9.75 12 9.75C10.4812 9.75 9.25 8.51878 9.25 7ZM12 5.75C11.3096 5.75 10.75 6.30964 10.75 7C10.75 7.69036 11.3096 8.25 12 8.25C12.6904 8.25 13.25 7.69036 13.25 7C13.25 6.30964 12.6904 5.75 12 5.75Z" fill="black"/>
<path d="M5.30952 9.70721C5.47121 9.32592 5.91134 9.14786 6.29265 9.30946L6.29401 9.31004L6.30026 9.31267L6.32747 9.324C6.35201 9.33417 6.38913 9.34943 6.43772 9.36906C6.53493 9.40833 6.67786 9.46501 6.85757 9.53329C7.21744 9.67003 7.72245 9.85242 8.30152 10.0346C9.47972 10.4052 10.8888 10.75 12 10.75C13.1112 10.75 14.5203 10.4052 15.6985 10.0346C16.2775 9.85242 16.7826 9.67003 17.1424 9.53329C17.3221 9.46501 17.4651 9.40833 17.5623 9.36906C17.6109 9.34943 17.648 9.33417 17.6725 9.324L17.6997 9.31267L17.706 9.31004L17.7072 9.30953C18.0885 9.14791 18.5288 9.32591 18.6905 9.70721C18.8522 10.0886 18.6739 10.5289 18.2926 10.6906L18.2889 10.6922L18.2798 10.696L18.2468 10.7097C18.2183 10.7215 18.1771 10.7385 18.1241 10.7599C18.0183 10.8026 17.8656 10.8631 17.6752 10.9355C17.2949 11.08 16.7617 11.2726 16.1486 11.4655C15.1597 11.7765 13.9122 12.1049 12.75 12.2131V13.4522C12.75 13.8837 12.874 14.306 13.1073 14.6689L15.6309 18.5944C15.8549 18.9429 15.754 19.4069 15.4056 19.6309C15.0571 19.8549 14.5931 19.754 14.3691 19.4056L12 15.7203L9.63088 19.4056C9.40689 19.754 8.94286 19.8549 8.59443 19.6309C8.246 19.4069 8.14513 18.9429 8.36912 18.5944L10.8927 14.6689C11.126 14.306 11.25 13.8837 11.25 13.4522V12.2131C10.0878 12.1049 8.84029 11.7765 7.85143 11.4655C7.23834 11.2726 6.70512 11.08 6.32479 10.9355C6.1344 10.8631 5.98174 10.8026 5.87588 10.7599C5.82294 10.7385 5.78166 10.7215 5.75318 10.7097L5.72018 10.696L5.71114 10.6922L5.70741 10.6906C5.32606 10.5289 5.14781 10.0886 5.30952 9.70721Z" fill="black"/>
<path fill-rule="evenodd" clip-rule="evenodd" d="M1.25 12C1.25 6.06294 6.06294 1.25 12 1.25C17.9371 1.25 22.75 6.06294 22.75 12C22.75 17.9371 17.9371 22.75 12 22.75C6.06294 22.75 1.25 17.9371 1.25 12ZM12 2.75C6.89137 2.75 2.75 6.89137 2.75 12C2.75 17.1086 6.89137 21.25 12 21.25C17.1086 21.25 21.25 17.1086 21.25 12C21.25 6.89137 17.1086 2.75 12 2.75Z" fill="black"/>
</svg>
