<svg width="24" height="24" viewBox="0 0 24 24" fill="none" xmlns="http://www.w3.org/2000/svg">
<path d="M12.0762 9.48014C12.3413 9.16193 12.2983 8.68901 11.9801 8.42384C11.6619 8.15867 11.189 8.20166 10.9238 8.51987L8.42383 11.5199C8.23753 11.7434 8.19737 12.0546 8.3208 12.3181C8.44424 12.5817 8.70898 12.75 8.99999 12.75H10.8987L9.42383 14.5199C9.15865 14.8381 9.20165 15.311 9.51986 15.5762C9.83806 15.8413 10.311 15.7983 10.5762 15.4801L13.0762 12.4801C13.2625 12.2566 13.3026 11.9454 13.1792 11.6819C13.0558 11.4183 12.791 11.25 12.5 11.25H10.6013L12.0762 9.48014Z" fill="black"/>
<path fill-rule="evenodd" clip-rule="evenodd" d="M9.94358 3.25H11.5564C13.3942 3.24998 14.8498 3.24997 15.989 3.40314C17.1614 3.56076 18.1104 3.89288 18.8588 4.64124C19.6071 5.38961 19.9392 6.33856 20.0969 7.51098C20.25 8.65018 20.25 10.1058 20.25 11.9435V12.0564C20.25 13.8942 20.25 15.3498 20.0969 16.489C19.9392 17.6614 19.6071 18.6104 18.8588 19.3588C18.1104 20.1071 17.1614 20.4392 15.989 20.5969C14.8498 20.75 13.3942 20.75 11.5565 20.75H9.94359C8.10585 20.75 6.65018 20.75 5.51098 20.5969C4.33856 20.4392 3.38961 20.1071 2.64124 19.3588C1.89288 18.6104 1.56076 17.6614 1.40314 16.489C1.24997 15.3498 1.24998 13.8942 1.25 12.0564V11.9436C1.24998 10.1058 1.24997 8.65019 1.40314 7.51098C1.56076 6.33856 1.89288 5.38961 2.64124 4.64124C3.38961 3.89288 4.33856 3.56076 5.51098 3.40314C6.65019 3.24997 8.10583 3.24998 9.94358 3.25ZM5.71085 4.88976C4.70476 5.02502 4.12511 5.27869 3.7019 5.7019C3.27869 6.12511 3.02502 6.70476 2.88976 7.71085C2.75159 8.73851 2.75 10.0932 2.75 12C2.75 13.9068 2.75159 15.2615 2.88976 16.2892C3.02502 17.2952 3.27869 17.8749 3.7019 18.2981C4.12511 18.7213 4.70476 18.975 5.71085 19.1102C6.73851 19.2484 8.09318 19.25 10 19.25H11.5C13.4068 19.25 14.7615 19.2484 15.7892 19.1102C16.7952 18.975 17.3749 18.7213 17.7981 18.2981C18.2213 17.8749 18.475 17.2952 18.6102 16.2892C18.7484 15.2615 18.75 13.9068 18.75 12C18.75 10.0932 18.7484 8.73851 18.6102 7.71085C18.475 6.70476 18.2213 6.12511 17.7981 5.7019C17.3749 5.27869 16.7952 5.02502 15.7892 4.88976C14.7615 4.75159 13.4068 4.75 11.5 4.75H10C8.09318 4.75 6.73851 4.75159 5.71085 4.88976Z" fill="black"/>
<path d="M22 14.75C21.5858 14.75 21.25 14.4142 21.25 14L21.25 10C21.25 9.58579 21.5858 9.25 22 9.25C22.4142 9.25 22.75 9.58579 22.75 10L22.75 14C22.75 14.4142 22.4142 14.75 22 14.75Z" fill="black"/>
</svg>
