<svg width="24" height="24" viewBox="0 0 24 24" fill="none" xmlns="http://www.w3.org/2000/svg">
<path d="M7.65562 8.63577C7.45446 8.27368 6.99786 8.14322 6.63577 8.34438C6.27675 8.54383 6.14545 8.99441 6.33933 9.35499L6.34434 9.36522C6.35119 9.37962 6.36431 9.40834 6.38177 9.45198C6.41665 9.53919 6.46907 9.6865 6.5235 9.89878C6.63224 10.3228 6.75 11.0101 6.75 12C6.75 12.9899 6.63224 13.6772 6.5235 14.1012C6.46907 14.3135 6.41665 14.4608 6.38177 14.548C6.36431 14.5917 6.35119 14.6204 6.34434 14.6348L6.33933 14.645C6.14545 15.0056 6.27675 15.4562 6.63577 15.6556C6.99786 15.8568 7.45446 15.7263 7.65562 15.3642L7 15C7.65562 15.3642 7.65544 15.3646 7.65562 15.3642L7.65634 15.3629L7.65711 15.3615L7.65878 15.3585L7.66263 15.3514L7.67226 15.333C7.67951 15.3189 7.68839 15.3012 7.69863 15.2797C7.71912 15.2367 7.74506 15.1787 7.77448 15.1051C7.83335 14.9579 7.90593 14.749 7.9765 14.4738C8.11776 13.9228 8.25 13.1101 8.25 12C8.25 10.8899 8.11776 10.0772 7.9765 9.52622C7.90593 9.251 7.83335 9.04206 7.77448 8.89489C7.74506 8.82135 7.71912 8.76335 7.69863 8.72032C7.68839 8.69881 7.67951 8.68106 7.67226 8.66699L7.66263 8.64864L7.65878 8.64152L7.65711 8.63847L7.65634 8.63708C7.65616 8.63675 7.65562 8.63577 7 9L7.65562 8.63577Z" fill="black"/>
<path d="M10.1358 8.34438C10.4979 8.14322 10.9545 8.27368 11.1556 8.63577L10.5 9C11.1556 8.63577 11.1554 8.63544 11.1556 8.63577L11.1563 8.63708L11.1571 8.63847L11.1588 8.64152L11.1626 8.64864L11.1723 8.66699C11.1795 8.68106 11.1884 8.69881 11.1986 8.72032C11.2191 8.76335 11.2451 8.82135 11.2745 8.89489C11.3333 9.04206 11.4059 9.251 11.4765 9.52622C11.6178 10.0772 11.75 10.8899 11.75 12C11.75 13.1101 11.6178 13.9228 11.4765 14.4738C11.4059 14.749 11.3333 14.9579 11.2745 15.1051C11.2451 15.1787 11.2191 15.2367 11.1986 15.2797C11.1884 15.3012 11.1795 15.3189 11.1723 15.333L11.1626 15.3514L11.1588 15.3585L11.1571 15.3615L11.1563 15.3629C11.1562 15.3632 11.1556 15.3642 10.5 15L11.1556 15.3642C10.9545 15.7263 10.4979 15.8568 10.1358 15.6556C9.77675 15.4562 9.64545 15.0056 9.83933 14.645L9.84434 14.6348C9.85119 14.6204 9.86431 14.5917 9.88177 14.548C9.91665 14.4608 9.96907 14.3135 10.0235 14.1012C10.1322 13.6772 10.25 12.9899 10.25 12C10.25 11.0101 10.1322 10.3228 10.0235 9.89878C9.96907 9.6865 9.91665 9.53919 9.88177 9.45198C9.86431 9.40834 9.85119 9.37962 9.84434 9.36522L9.83933 9.35499C9.64545 8.99441 9.77675 8.54383 10.1358 8.34438Z" fill="black"/>
<path fill-rule="evenodd" clip-rule="evenodd" d="M11.5564 3.25H9.94358C8.10583 3.24998 6.65019 3.24997 5.51098 3.40314C4.33856 3.56076 3.38961 3.89288 2.64124 4.64124C1.89288 5.38961 1.56076 6.33856 1.40314 7.51098C1.24997 8.65019 1.24998 10.1058 1.25 11.9436V12.0564C1.24998 13.8942 1.24997 15.3498 1.40314 16.489C1.56076 17.6614 1.89288 18.6104 2.64124 19.3588C3.38961 20.1071 4.33856 20.4392 5.51098 20.5969C6.65018 20.75 8.1058 20.75 9.94354 20.75H11.5564C13.3942 20.75 14.8498 20.75 15.989 20.5969C17.1614 20.4392 18.1104 20.1071 18.8588 19.3588C19.6071 18.6104 19.9392 17.6614 20.0969 16.489C20.25 15.3498 20.25 13.8942 20.25 12.0565V11.9436C20.25 10.1059 20.25 8.65018 20.0969 7.51098C19.9392 6.33856 19.6071 5.38961 18.8588 4.64124C18.1104 3.89288 17.1614 3.56076 15.989 3.40314C14.8498 3.24997 13.3942 3.24998 11.5564 3.25ZM3.7019 5.7019C4.12511 5.27869 4.70476 5.02502 5.71085 4.88976C6.73851 4.75159 8.09318 4.75 10 4.75H11.5C13.4068 4.75 14.7615 4.75159 15.7892 4.88976C16.7952 5.02502 17.3749 5.27869 17.7981 5.7019C18.2213 6.12511 18.475 6.70476 18.6102 7.71085C18.7484 8.73851 18.75 10.0932 18.75 12C18.75 13.9068 18.7484 15.2615 18.6102 16.2892C18.475 17.2952 18.2213 17.8749 17.7981 18.2981C17.3749 18.7213 16.7952 18.975 15.7892 19.1102C14.7615 19.2484 13.4068 19.25 11.5 19.25H10C8.09318 19.25 6.73851 19.2484 5.71085 19.1102C4.70476 18.975 4.12511 18.7213 3.7019 18.2981C3.27869 17.8749 3.02502 17.2952 2.88976 16.2892C2.75159 15.2615 2.75 13.9068 2.75 12C2.75 10.0932 2.75159 8.73851 2.88976 7.71085C3.02502 6.70476 3.27869 6.12511 3.7019 5.7019Z" fill="black"/>
<path d="M21.25 14C21.25 14.4142 21.5858 14.75 22 14.75C22.4142 14.75 22.75 14.4142 22.75 14L22.75 10C22.75 9.58579 22.4142 9.25 22 9.25C21.5858 9.25 21.25 9.58579 21.25 10L21.25 14Z" fill="black"/>
</svg>
