<svg width="24" height="24" viewBox="0 0 24 24" fill="none" xmlns="http://www.w3.org/2000/svg">
<path d="M6.63577 8.34438C6.99786 8.14322 7.45446 8.27368 7.65562 8.63577L7 9C7.65562 8.63577 7.65544 8.63544 7.65562 8.63577L7.65634 8.63708L7.65711 8.63847L7.65878 8.64152L7.66263 8.64864L7.67226 8.66699C7.67951 8.68106 7.68839 8.69881 7.69863 8.72032C7.71912 8.76335 7.74506 8.82135 7.77448 8.89489C7.83335 9.04206 7.90593 9.251 7.9765 9.52622C8.11776 10.0772 8.25 10.8899 8.25 12C8.25 13.1101 8.11776 13.9228 7.9765 14.4738C7.90593 14.749 7.83335 14.9579 7.77448 15.1051C7.74506 15.1787 7.71912 15.2367 7.69863 15.2797C7.68839 15.3012 7.67951 15.3189 7.67226 15.333L7.66263 15.3514L7.65878 15.3585L7.65711 15.3615L7.65634 15.3629C7.65616 15.3632 7.65562 15.3642 7 15L7.65562 15.3642C7.45446 15.7263 6.99786 15.8568 6.63577 15.6556C6.27675 15.4562 6.14545 15.0056 6.33933 14.645L6.34434 14.6348C6.35119 14.6204 6.36431 14.5917 6.38177 14.548C6.41665 14.4608 6.46907 14.3135 6.5235 14.1012C6.63224 13.6772 6.75 12.9899 6.75 12C6.75 11.0101 6.63224 10.3228 6.5235 9.89878C6.46907 9.6865 6.41665 9.53919 6.38177 9.45198C6.36431 9.40834 6.35119 9.37962 6.34434 9.36522L6.33933 9.35499C6.14545 8.99441 6.27675 8.54383 6.63577 8.34438Z" fill="black"/>
<path d="M11.1556 8.63577C10.9545 8.27368 10.4979 8.14322 10.1358 8.34438C9.77675 8.54383 9.64545 8.99441 9.83933 9.35499L9.84434 9.36522C9.85119 9.37962 9.86431 9.40834 9.88177 9.45198C9.91665 9.53919 9.96907 9.6865 10.0235 9.89878C10.1322 10.3228 10.25 11.0101 10.25 12C10.25 12.9899 10.1322 13.6772 10.0235 14.1012C9.96907 14.3135 9.91665 14.4608 9.88177 14.548C9.86431 14.5917 9.85119 14.6204 9.84434 14.6348L9.83933 14.645C9.64545 15.0056 9.77675 15.4562 10.1358 15.6556C10.4979 15.8568 10.9545 15.7263 11.1556 15.3642L10.5 15C11.1556 15.3642 11.1554 15.3646 11.1556 15.3642L11.1563 15.3629L11.1571 15.3615L11.1588 15.3585L11.1626 15.3514L11.1723 15.333C11.1795 15.3189 11.1884 15.3012 11.1986 15.2797C11.2191 15.2367 11.2451 15.1787 11.2745 15.1051C11.3333 14.9579 11.4059 14.749 11.4765 14.4738C11.6178 13.9228 11.75 13.1101 11.75 12C11.75 10.8899 11.6178 10.0772 11.4765 9.52622C11.4059 9.251 11.3333 9.04206 11.2745 8.89489C11.2451 8.82135 11.2191 8.76335 11.1986 8.72032C11.1884 8.69881 11.1795 8.68106 11.1723 8.66699L11.1626 8.64864L11.1588 8.64152L11.1571 8.63847L11.1563 8.63708C11.1562 8.63675 11.1556 8.63577 10.5 9L11.1556 8.63577Z" fill="black"/>
<path d="M13.6358 8.34438C13.9979 8.14322 14.4545 8.27368 14.6556 8.63577L14 9C14.6556 8.63577 14.6554 8.63544 14.6556 8.63577L14.6563 8.63708L14.6571 8.63847L14.6588 8.64152L14.6626 8.64864L14.6723 8.66699C14.6795 8.68106 14.6884 8.69881 14.6986 8.72032C14.7191 8.76335 14.7451 8.82135 14.7745 8.89489C14.8333 9.04206 14.9059 9.251 14.9765 9.52622C15.1178 10.0772 15.25 10.8899 15.25 12C15.25 13.1101 15.1178 13.9228 14.9765 14.4738C14.9059 14.749 14.8333 14.9579 14.7745 15.1051C14.7451 15.1787 14.7191 15.2367 14.6986 15.2797C14.6884 15.3012 14.6795 15.3189 14.6723 15.333L14.6626 15.3514L14.6588 15.3585L14.6571 15.3615L14.6563 15.3629C14.6562 15.3632 14.6556 15.3642 14 15L14.6556 15.3642C14.4545 15.7263 13.9979 15.8568 13.6358 15.6556C13.2768 15.4562 13.1455 15.0056 13.3393 14.645L13.3443 14.6348C13.3512 14.6204 13.3643 14.5917 13.3818 14.548C13.4167 14.4608 13.4691 14.3135 13.5235 14.1012C13.6322 13.6772 13.75 12.9899 13.75 12C13.75 11.0101 13.6322 10.3228 13.5235 9.89878C13.4691 9.6865 13.4167 9.53919 13.3818 9.45198C13.3643 9.40834 13.3512 9.37962 13.3443 9.36522L13.3393 9.35499C13.1455 8.99441 13.2768 8.54383 13.6358 8.34438Z" fill="black"/>
<path fill-rule="evenodd" clip-rule="evenodd" d="M9.94358 3.25H11.5564C13.3942 3.24998 14.8498 3.24997 15.989 3.40314C17.1614 3.56076 18.1104 3.89288 18.8588 4.64124C19.6071 5.38961 19.9392 6.33856 20.0969 7.51098C20.1659 8.02441 20.2038 8.60211 20.2246 9.25009C20.5874 9.25079 20.9197 9.25599 21.1972 9.2933C21.5527 9.34109 21.9284 9.45354 22.2374 9.76256C22.5465 10.0716 22.6589 10.4473 22.7067 10.8028C22.7501 11.1256 22.7501 11.5224 22.75 11.9552V12.0447C22.7501 12.4776 22.7501 12.8744 22.7067 13.1972C22.6589 13.5527 22.5465 13.9284 22.2374 14.2374C21.9284 14.5465 21.5527 14.6589 21.1972 14.7067C20.9197 14.744 20.5874 14.7492 20.2246 14.7499C20.2038 15.3979 20.1659 15.9756 20.0969 16.489C19.9392 17.6614 19.6071 18.6104 18.8588 19.3588C18.1104 20.1071 17.1614 20.4392 15.989 20.5969C14.8498 20.75 13.3942 20.75 11.5565 20.75H9.94359C8.10585 20.75 6.65018 20.75 5.51098 20.5969C4.33856 20.4392 3.38961 20.1071 2.64124 19.3588C1.89288 18.6104 1.56076 17.6614 1.40314 16.489C1.24997 15.3498 1.24998 13.8942 1.25 12.0564V11.9436C1.24998 10.1058 1.24997 8.65019 1.40314 7.51098C1.56076 6.33856 1.89288 5.38961 2.64124 4.64124C3.38961 3.89288 4.33856 3.56076 5.51098 3.40314C6.65019 3.24997 8.10583 3.24998 9.94358 3.25ZM5.71085 4.88976C4.70476 5.02502 4.12511 5.27869 3.7019 5.7019C3.27869 6.12511 3.02502 6.70476 2.88976 7.71085C2.75159 8.73851 2.75 10.0932 2.75 12C2.75 13.9068 2.75159 15.2615 2.88976 16.2892C3.02502 17.2952 3.27869 17.8749 3.7019 18.2981C4.12511 18.7213 4.70476 18.975 5.71085 19.1102C6.73851 19.2484 8.09318 19.25 10 19.25H11.5C13.4068 19.25 14.7615 19.2484 15.7892 19.1102C16.7952 18.975 17.3749 18.7213 17.7981 18.2981C18.2213 17.8749 18.475 17.2952 18.6102 16.2892C18.7484 15.2615 18.75 13.9068 18.75 12C18.75 10.0932 18.7484 8.73851 18.6102 7.71085C18.475 6.70476 18.2213 6.12511 17.7981 5.7019C17.3749 5.27869 16.7952 5.02502 15.7892 4.88976C14.7615 4.75159 13.4068 4.75 11.5 4.75H10C8.09318 4.75 6.73851 4.75159 5.71085 4.88976ZM20.75 13.2406V10.7594C20.845 10.7638 20.9259 10.7703 20.9973 10.7799C21.0939 10.7929 21.1423 10.8082 21.164 10.8172C21.1691 10.8192 21.1724 10.8209 21.1743 10.8219L21.1768 10.8232L21.1781 10.8257C21.1791 10.8276 21.1808 10.8309 21.1828 10.836C21.1918 10.8577 21.2071 10.9061 21.2201 11.0027C21.2484 11.2134 21.25 11.5074 21.25 12C21.25 12.4926 21.2484 12.7866 21.2201 12.9973C21.2071 13.0939 21.1918 13.1423 21.1828 13.164C21.1808 13.1691 21.1791 13.1724 21.1781 13.1743L21.1768 13.1768L21.1743 13.1781C21.1724 13.1791 21.1691 13.1808 21.164 13.1828C21.1423 13.1918 21.0939 13.2071 20.9973 13.2201C20.9259 13.2297 20.845 13.2362 20.75 13.2406Z" fill="black"/>
</svg>
