<svg width="24" height="24" viewBox="0 0 24 24" fill="none" xmlns="http://www.w3.org/2000/svg">
<path fill-rule="evenodd" clip-rule="evenodd" d="M12.3567 6.79173C12.7267 6.56855 13.3708 6.24675 13.9885 6.63333C14.621 7.02911 14.5877 7.76061 14.5333 8.18375C14.4717 8.66282 14.3017 9.29745 14.102 10.0425L14.0468 10.2485C14.0077 10.3943 13.977 10.5092 13.9531 10.6087C13.9409 10.6592 13.9318 10.7009 13.9249 10.7358C14.036 10.7768 14.1989 10.8232 14.4614 10.8935L14.5117 10.907C15.0041 11.0389 15.4487 11.158 15.7772 11.2971C16.1032 11.4352 16.5469 11.6869 16.6905 12.2181L16.6926 12.2258L16.6949 12.2343L16.6969 12.2423L16.6988 12.2502L16.7006 12.2582L16.7024 12.2663L16.7042 12.2749L16.7058 12.2829C16.8158 12.8294 16.5226 13.2517 16.281 13.5173C16.0319 13.7914 15.6621 14.0888 15.2547 14.4132L13.1952 16.0532C12.5818 16.5417 12.0622 16.9555 11.6433 17.2083C11.2733 17.4314 10.6292 17.7532 10.0114 17.3666C9.37896 16.9709 9.41224 16.2394 9.46664 15.8162C9.52824 15.3371 9.69834 14.7025 9.89803 13.9574L9.9532 13.7515C9.99228 13.6057 10.023 13.4908 10.0469 13.3913C10.0578 13.3462 10.0663 13.3081 10.0728 13.2756C9.96145 13.2288 9.79443 13.175 9.53863 13.1065C9.02039 12.9676 8.55593 12.8407 8.21199 12.6899C7.88373 12.5459 7.44693 12.2881 7.30504 11.7632L7.30294 11.7555L7.30071 11.747L7.29871 11.739L7.29681 11.7311L7.29498 11.7232L7.29321 11.7152L7.29141 11.7066L7.28984 11.6986C7.17835 11.1451 7.48144 10.7253 7.72358 10.466C7.96296 10.2096 8.3168 9.92793 8.70292 9.62054L10.8047 7.94679C11.4181 7.45826 11.9377 7.04446 12.3567 6.79173ZM11.6948 9.15552C12.2924 8.67962 12.709 8.34951 13.0223 8.14483C12.9602 8.50318 12.8283 9.00044 12.638 9.71067L12.5879 9.89758C12.5199 10.1509 12.4506 10.4095 12.4225 10.6334C12.3901 10.8924 12.397 11.21 12.5811 11.5221L12.5852 11.529L12.5894 11.5358C12.7747 11.8352 13.0461 11.9945 13.2842 12.0951C13.5095 12.1904 13.7886 12.2662 14.0731 12.3424C14.5276 12.4642 14.8372 12.5484 15.0552 12.6256C14.897 12.7756 14.6622 12.9675 14.3203 13.2398L12.3052 14.8445C11.7076 15.3204 11.291 15.6505 10.9776 15.8551C11.0398 15.4968 11.1717 14.9995 11.362 14.2893L11.4121 14.1025C11.4801 13.8492 11.5494 13.5905 11.5775 13.3666C11.6099 13.1076 11.603 12.79 11.4189 12.478L11.4161 12.4795C11.239 12.2074 10.9846 12.0448 10.7517 11.936C10.5148 11.8254 10.2304 11.7389 9.92686 11.6576C9.47254 11.5359 9.16106 11.4482 8.94371 11.3679C9.10378 11.2204 9.33829 11.0321 9.67973 10.7602L11.6948 9.15552Z" fill="black"/>
<path fill-rule="evenodd" clip-rule="evenodd" d="M12 1.25C6.06294 1.25 1.25 6.06294 1.25 12C1.25 17.9371 6.06294 22.75 12 22.75C17.9371 22.75 22.75 17.9371 22.75 12C22.75 6.06294 17.9371 1.25 12 1.25ZM2.75 12C2.75 6.89137 6.89137 2.75 12 2.75C17.1086 2.75 21.25 6.89137 21.25 12C21.25 17.1086 17.1086 21.25 12 21.25C6.89137 21.25 2.75 17.1086 2.75 12Z" fill="black"/>
</svg>
