<svg width="24" height="24" viewBox="0 0 24 24" fill="none" xmlns="http://www.w3.org/2000/svg">
<path fill-rule="evenodd" clip-rule="evenodd" d="M15.6014 2.40043C15.3816 2.18066 15.1051 2.19033 14.9534 2.21044C14.8101 2.22946 14.6383 2.27833 14.4747 2.32489L14.3487 2.36069L14.2463 2.29606C14.1077 2.20853 13.9589 2.1145 13.8264 2.05694C13.6771 1.99202 13.425 1.91816 13.1601 2.05738C12.9002 2.19394 12.8147 2.43841 12.7794 2.59398C12.7472 2.73553 12.7334 2.91255 12.7203 3.08089L12.7104 3.20839L12.7095 3.21902L12.598 3.31087C12.4647 3.42054 12.3264 3.53435 12.2282 3.6416C12.1243 3.75522 11.9641 3.9687 12.0048 4.26594C12.0469 4.57333 12.2695 4.73272 12.4086 4.80986C12.5345 4.87971 12.7003 4.94088 12.8548 4.99789L12.9637 5.0381L13.0039 5.14696C13.0609 5.30146 13.1221 5.46726 13.1919 5.59322C13.2691 5.73232 13.4285 5.95492 13.7359 5.99701C14.0331 6.03771 14.2466 5.87748 14.3602 5.77355C14.4674 5.67544 14.5813 5.53711 14.6909 5.40381L14.7828 5.29224L14.7934 5.2914L14.9209 5.28146C15.0892 5.26838 15.2663 5.25463 15.4078 5.22244C15.5634 5.18707 15.8079 5.10156 15.9444 4.84173C16.0836 4.57684 16.0098 4.32472 15.9449 4.17536C15.8873 4.04294 15.7933 3.89408 15.7058 3.75551L15.6411 3.65305L15.6769 3.52704C15.7235 3.36344 15.7723 3.1917 15.7914 3.04836C15.8115 2.89668 15.8211 2.62019 15.6014 2.40043ZM14.7018 3.29995L14.6239 3.3221L14.6033 3.32814C14.5279 3.35054 14.3708 3.39723 14.2071 3.37481C14.0395 3.35187 13.9008 3.26183 13.8365 3.22013L13.8193 3.20908L13.7184 3.14536L13.7074 3.28623L13.7058 3.30775C13.7005 3.38704 13.6898 3.54701 13.6134 3.69232C13.5381 3.83572 13.4138 3.93583 13.351 3.98647L13.3337 4.00045L13.2429 4.0752L13.3204 4.10382L13.3395 4.11066C13.4112 4.13604 13.5694 4.19206 13.6895 4.31225C13.8097 4.43244 13.8658 4.59064 13.8911 4.66229L13.898 4.68138L13.9266 4.75886L14.0013 4.66808L14.0153 4.65083C14.066 4.58798 14.1661 4.46372 14.3095 4.38836C14.4548 4.31198 14.6148 4.30126 14.694 4.29595L14.7156 4.29444L14.8564 4.28343L14.7927 4.18245L14.7817 4.16528C14.74 4.10103 14.6499 3.9623 14.627 3.79474C14.6046 3.63098 14.6513 3.47388 14.6737 3.39848L14.6797 3.37789L14.7018 3.29995Z" fill="black"/>
<path d="M10.435 3.1704C10.6511 2.81699 10.5397 2.35536 10.1863 2.13931C9.8329 1.92326 9.37126 2.03462 9.15522 2.38802C8.63701 3.23569 8.76689 4.32799 9.46941 5.03051L9.56729 5.12839C9.76495 5.32606 9.83784 5.61644 9.75696 5.88402C9.63711 6.28052 9.86137 6.6991 10.2579 6.81895C10.6544 6.9388 11.0729 6.71454 11.1928 6.31804C11.4337 5.52117 11.2166 4.65639 10.6279 4.06773L10.5301 3.96985C10.3175 3.75731 10.2782 3.42685 10.435 3.1704Z" fill="black"/>
<path d="M7.68616 3.94081C7.47669 3.73134 7.13708 3.73134 6.92761 3.94081C6.71814 4.15028 6.71814 4.48989 6.92761 4.69936C7.13708 4.90883 7.47669 4.90883 7.68616 4.69936C7.89563 4.48989 7.89563 4.15028 7.68616 3.94081Z" fill="black"/>
<path d="M18.2774 5.60415C18.3587 5.19798 18.0953 4.80286 17.6891 4.72163C17.2829 4.64039 16.8878 4.9038 16.8066 5.30997L16.6626 6.02991C16.57 6.49289 16.2364 6.87076 15.7885 7.02007C14.8299 7.3396 14.116 8.14827 13.9179 9.13908L13.7739 9.85902C13.6926 10.2652 13.9561 10.6603 14.3622 10.7415C14.7684 10.8228 15.1635 10.5594 15.2447 10.1532L15.3887 9.43326C15.4813 8.97027 15.8149 8.5924 16.2628 8.4431C17.2214 8.12357 17.9353 7.3149 18.1335 6.32408L18.2774 5.60415Z" fill="black"/>
<path fill-rule="evenodd" clip-rule="evenodd" d="M22.5235 8.84228C22.7793 9.39619 22.6067 10.025 22.1395 10.4922C21.8687 10.7631 21.5056 10.8858 21.1824 10.9432C20.8517 11.0021 20.5021 11.0032 20.1959 10.9836C19.8866 10.9638 19.603 10.9215 19.398 10.8847C19.295 10.8662 19.2104 10.8488 19.1509 10.8358L19.1045 10.8255L19.0807 10.8201L19.061 10.8154L19.0552 10.814L19.0533 10.8135C19.0532 10.8135 19.0522 10.8133 19.1723 10.3279L19.0522 10.8133C18.8721 10.7687 18.7315 10.6279 18.6869 10.4478L18.6862 10.4451L18.6848 10.4393L18.6802 10.4195C18.6763 10.4028 18.6709 10.3792 18.6644 10.3494C18.6514 10.2898 18.634 10.2052 18.6155 10.1022C18.5787 9.89718 18.5364 9.61361 18.5166 9.30437C18.497 8.99812 18.4982 8.64856 18.557 8.31786C18.6145 7.99459 18.7372 7.63158 19.0081 7.3607C19.4752 6.89356 20.104 6.7209 20.6579 6.97675C21.0781 7.17083 21.3514 7.56361 21.4543 8.0459C21.9366 8.14883 22.3294 8.42211 22.5235 8.84228ZM19.596 9.90423C19.774 9.93562 20.0094 9.96961 20.2597 9.98564C20.5231 10.0025 20.7851 9.99821 21.0073 9.95869C21.2369 9.91785 21.3682 9.84932 21.4324 9.78506C21.6752 9.54231 21.6566 9.35033 21.6156 9.26161C21.5711 9.16523 21.4115 8.99879 21.0017 8.99989C20.8686 9.00024 20.7409 8.94754 20.6468 8.85344C20.5527 8.75935 20.5 8.63162 20.5003 8.49855C20.5014 8.08875 20.335 7.9291 20.2386 7.88458C20.1499 7.84361 19.9579 7.82505 19.7152 8.06781C19.6509 8.13206 19.5824 8.26332 19.5415 8.49295C19.502 8.71514 19.4977 8.9771 19.5146 9.24048C19.5306 9.49084 19.5646 9.7262 19.596 9.90423Z" fill="black"/>
<path d="M20.3308 13.7297C20.6262 13.4678 21.0468 13.4014 21.4085 13.5595L21.7 13.687C22.0795 13.8529 22.5217 13.6798 22.6877 13.3002C22.8536 12.9207 22.6805 12.4785 22.3009 12.3126L22.0094 12.1851C21.112 11.7928 20.0684 11.9576 19.3356 12.6074C19.0094 12.8966 18.5347 12.9447 18.1572 12.7267L17.9443 12.6039C17.5856 12.3967 17.1269 12.5197 16.9198 12.8784C16.7127 13.2371 16.8356 13.6958 17.1943 13.9029L17.4072 14.0258C18.3439 14.5666 19.5215 14.4473 20.3308 13.7297Z" fill="black"/>
<path d="M19.0582 15.3134C19.2677 15.1039 19.6073 15.1039 19.8168 15.3134C20.0263 15.5229 20.0263 15.8625 19.8168 16.0719C19.6073 16.2814 19.2677 16.2814 19.0582 16.0719C18.8488 15.8625 18.8488 15.5229 19.0582 15.3134Z" fill="black"/>
<path d="M12.9157 7.15713C12.7062 6.94766 12.3666 6.94766 12.1571 7.15713C11.9476 7.3666 11.9476 7.70622 12.1571 7.91569C12.3666 8.12515 12.7062 8.12515 12.9157 7.91569C13.1251 7.70622 13.1251 7.3666 12.9157 7.15713Z" fill="black"/>
<path d="M17.1571 10.1571C17.3666 9.94766 17.7062 9.94766 17.9157 10.1571C18.1251 10.3666 18.1251 10.7062 17.9157 10.9157C17.7062 11.1252 17.3666 11.1252 17.1571 10.9157C16.9476 10.7062 16.9476 10.3666 17.1571 10.1571Z" fill="black"/>
<path fill-rule="evenodd" clip-rule="evenodd" d="M9.63883 6.88498C10.2252 7.31969 10.8997 7.99431 11.7184 8.813L15.1861 12.2807C16.0048 13.0993 16.6794 13.7739 17.1141 14.3602C17.5632 14.966 17.8797 15.6392 17.6967 16.4145C17.5137 17.1898 16.9295 17.6504 16.2569 17.9914C15.6059 18.3214 14.7007 18.6231 13.6024 18.9892L8.41216 20.7193C7.08228 21.1626 6.0031 21.5223 5.16628 21.6712C4.32188 21.8214 3.46502 21.8063 2.82892 21.1702C2.19282 20.534 2.17766 19.6772 2.32788 18.8328C2.47674 17.9959 2.83651 16.9167 3.27986 15.5868L5.0099 10.3967C5.37598 9.29828 5.67764 8.39322 6.00766 7.74218C6.34863 7.06956 6.80924 6.48541 7.58454 6.30239C8.35984 6.11937 9.03306 6.43585 9.63883 6.88498ZM8.74547 8.08993C8.72799 8.07696 8.71087 8.06447 8.69409 8.05243C8.68258 8.11469 8.67035 8.18162 8.65751 8.25286C8.57252 8.72448 8.46116 9.38398 8.35587 10.1344C8.14324 11.6497 7.96341 13.4816 8.05547 14.8854C8.1112 15.7353 8.29321 16.8348 8.46696 17.7418C8.55301 18.1911 8.63548 18.5852 8.69641 18.8669C8.70942 18.9271 8.72145 18.9821 8.73231 19.0314L11.367 18.1532C11.2977 17.9477 11.2147 17.683 11.1319 17.3749C10.9329 16.6351 10.727 15.6175 10.727 14.5554C10.727 13.4401 10.932 12.4229 11.1328 11.6907C11.2338 11.3228 11.3351 11.0219 11.4122 10.8108C11.4301 10.7615 11.4468 10.7171 11.4619 10.6778L10.7021 9.91801C9.82789 9.04383 9.23158 8.45033 8.74547 8.08993ZM6.41309 10.9305C6.62205 10.3036 6.79587 9.78394 6.9542 9.35355C6.92625 9.53709 6.89814 9.72843 6.87042 9.92594C6.65529 11.4592 6.45603 13.4181 6.55868 14.9836C6.62079 15.9308 6.81787 17.1059 6.99374 18.024C7.08251 18.4874 7.16748 18.8936 7.2303 19.184C7.25934 19.3183 7.2837 19.428 7.30156 19.5076C6.26074 19.8512 5.49397 20.0894 4.90357 20.1944C4.1828 20.3226 3.98336 20.2033 3.88958 20.1095C3.7958 20.0157 3.67647 19.8163 3.80469 19.0955C3.93194 18.3802 4.25462 17.4059 4.72359 15.999L6.41309 10.9305ZM13.0686 17.586L12.79 17.6788C12.7291 17.4983 12.6548 17.2619 12.5804 16.9853C12.5265 16.7851 12.4733 16.5663 12.4251 16.3343C12.3122 15.7904 12.227 15.174 12.227 14.5554C12.227 13.6153 12.4012 12.7371 12.5794 12.0877C12.6012 12.0081 12.623 11.9322 12.6445 11.8604L14.0811 13.297C14.9552 14.1712 15.5487 14.7675 15.9091 15.2536C16.263 15.7308 16.2677 15.9389 16.2368 16.0699C16.2059 16.2009 16.1086 16.3849 15.5787 16.6535C15.0389 16.9271 14.2414 17.195 13.0686 17.586Z" fill="black"/>
</svg>
