<svg width="24" height="24" viewBox="0 0 24 24" fill="none" xmlns="http://www.w3.org/2000/svg">
<path d="M10.9263 2.36009C11.2797 2.57613 11.3911 3.03777 11.175 3.39117C11.0183 3.64763 11.0576 3.97809 11.2701 4.19063L11.368 4.28851C11.9566 4.87716 12.1737 5.74194 11.9328 6.53882C11.813 6.93531 11.3944 7.15957 10.9979 7.03972C10.6014 6.91987 10.3771 6.50129 10.497 6.10479C10.5779 5.83721 10.505 5.54683 10.3073 5.34917L10.2094 5.25129C9.50692 4.54877 9.37704 3.45646 9.89525 2.6088C10.1113 2.25539 10.5729 2.14404 10.9263 2.36009Z" fill="black"/>
<path d="M17.6891 4.72158C18.0953 4.80282 18.3587 5.19793 18.2774 5.6041L18.1335 6.32404C17.9353 7.31485 17.2214 8.12352 16.2628 8.44305C15.8149 8.59236 15.4813 8.97023 15.3887 9.43321L15.2447 10.1531C15.1635 10.5593 14.7684 10.8227 14.3622 10.7415C13.9561 10.6603 13.6926 10.2651 13.7739 9.85897L13.9179 9.13904C14.116 8.14822 14.8299 7.33955 15.7885 7.02003C16.2364 6.87072 16.57 6.49285 16.6626 6.02987L16.8066 5.30993C16.8878 4.90376 17.2829 4.64035 17.6891 4.72158Z" fill="black"/>
<path fill-rule="evenodd" clip-rule="evenodd" d="M11.7184 8.81296C10.8997 7.99427 10.2252 7.31964 9.63883 6.88493C9.03306 6.43581 8.35984 6.11932 7.58454 6.30234C6.80924 6.48537 6.34863 7.06952 6.00766 7.74214C5.67764 8.39317 5.37598 9.29823 5.0099 10.3966L3.27986 15.5867C2.83651 16.9167 2.47674 17.9959 2.32788 18.8327C2.17766 19.6771 2.19282 20.534 2.82892 21.1701C3.46502 21.8062 4.32188 21.8214 5.16628 21.6712C6.0031 21.5223 7.08228 21.1625 8.41216 20.7192L13.6024 18.9891C14.7007 18.6231 15.6059 18.3214 16.2569 17.9914C16.9295 17.6504 17.5137 17.1898 17.6967 16.4145C17.8797 15.6392 17.5632 14.966 17.1141 14.3602C16.6794 13.7739 16.0048 13.0993 15.1861 12.2806L11.7184 8.81296ZM8.69409 8.05238C8.71087 8.06442 8.72799 8.07692 8.74547 8.08988C9.23158 8.45028 9.82789 9.04378 10.7021 9.91796L11.4619 10.6777C11.4468 10.7171 11.4301 10.7615 11.4122 10.8107C11.3351 11.0219 11.2338 11.3227 11.1328 11.6907C10.932 12.4228 10.727 13.4401 10.727 14.5554C10.727 15.6175 10.9329 16.635 11.1319 17.3748C11.2147 17.6829 11.2977 17.9476 11.367 18.1531L8.73231 19.0314C8.72145 18.9821 8.70942 18.9271 8.69641 18.8669C8.63548 18.5852 8.55301 18.191 8.46696 17.7418C8.29321 16.8347 8.1112 15.7353 8.05547 14.8854C7.96341 13.4816 8.14324 11.6497 8.35587 10.1343C8.46116 9.38393 8.57252 8.72443 8.65751 8.25282C8.67035 8.18157 8.68258 8.11465 8.69409 8.05238ZM6.9542 9.35351C6.79587 9.78389 6.62205 10.3036 6.41309 10.9305L4.72359 15.9989C4.25462 17.4059 3.93194 18.3801 3.80469 19.0955C3.67647 19.8162 3.7958 20.0157 3.88958 20.1094C3.98336 20.2032 4.1828 20.3226 4.90357 20.1943C5.49397 20.0893 6.26074 19.8512 7.30156 19.5075C7.2837 19.428 7.25934 19.3182 7.2303 19.184C7.16748 18.8935 7.08251 18.4874 6.99374 18.024C6.81787 17.1058 6.62079 15.9308 6.55868 14.9835C6.45603 13.4181 6.65529 11.4591 6.87042 9.92589C6.89814 9.72838 6.92625 9.53704 6.9542 9.35351ZM12.79 17.6788L13.0686 17.5859C14.2414 17.195 15.0389 16.9271 15.5787 16.6534C16.1086 16.3848 16.2059 16.2008 16.2368 16.0699C16.2677 15.9389 16.263 15.7308 15.9091 15.2536C15.5487 14.7675 14.9552 14.1711 14.0811 13.297L12.6445 11.8604C12.623 11.9322 12.6012 12.008 12.5794 12.0876C12.4012 12.7371 12.227 13.6152 12.227 14.5554C12.227 15.174 12.3122 15.7903 12.4251 16.3342C12.4733 16.5662 12.5265 16.785 12.5804 16.9852C12.6548 17.2618 12.7291 17.4982 12.79 17.6788Z" fill="black"/>
<path d="M20.3304 12.7299C20.6258 12.4679 21.0465 12.4015 21.4082 12.5597L21.6997 12.6871C22.0792 12.8531 22.5214 12.6799 22.6873 12.3004C22.8533 11.9209 22.6801 11.4787 22.3006 11.3127L22.0091 11.1853C21.1117 10.7929 20.0681 10.9577 19.3352 11.6076C19.0091 11.8968 18.5344 11.9449 18.1568 11.7269L17.944 11.604C17.5853 11.3969 17.1266 11.5198 16.9195 11.8785C16.7124 12.2372 16.8353 12.6959 17.194 12.903L17.4068 13.0259C18.3435 13.5667 19.5212 13.4475 20.3304 12.7299Z" fill="black"/>
<path d="M13.9788 4.05788C13.8626 4.09472 13.762 4.19525 13.561 4.39631C13.3599 4.59737 13.2594 4.69789 13.2225 4.81413C13.1914 4.91245 13.1914 5.018 13.2225 5.11632C13.2594 5.23255 13.3599 5.33308 13.561 5.53414C13.762 5.7352 13.8626 5.83572 13.9788 5.87257C14.0771 5.90374 14.1827 5.90374 14.281 5.87257C14.3972 5.83572 14.4977 5.7352 14.6988 5.53414C14.8999 5.33308 15.0004 5.23255 15.0372 5.11632C15.0684 5.018 15.0684 4.91245 15.0372 4.81413C15.0004 4.69789 14.8999 4.59737 14.6988 4.39631C14.4977 4.19525 14.3972 4.09472 14.281 4.05788C14.1827 4.02671 14.0771 4.02671 13.9788 4.05788Z" fill="black"/>
<path d="M19.4682 7.46821C19.7136 7.22282 19.8363 7.10012 19.9747 7.04679C20.1367 6.98438 20.3161 6.98438 20.4781 7.04679C20.6165 7.10012 20.7392 7.22282 20.9846 7.46821C21.23 7.7136 21.3527 7.8363 21.406 7.97471C21.4684 8.13669 21.4684 8.31608 21.406 8.47806C21.3527 8.61647 21.23 8.73917 20.9846 8.98456C20.7392 9.22995 20.6165 9.35264 20.4781 9.40598C20.3161 9.46839 20.1367 9.46839 19.9747 9.40598C19.8363 9.35264 19.7136 9.22995 19.4682 8.98456C19.2228 8.73917 19.1001 8.61647 19.0468 8.47806C18.9844 8.31608 18.9844 8.13669 19.0468 7.97471C19.1001 7.8363 19.2228 7.7136 19.4682 7.46821Z" fill="black"/>
<path d="M7.68592 3.94078C7.47645 3.73131 7.13683 3.73131 6.92737 3.94078C6.7179 4.15025 6.7179 4.48986 6.92737 4.69933C7.13683 4.9088 7.47645 4.9088 7.68592 4.69933C7.89539 4.48986 7.89539 4.15025 7.68592 3.94078Z" fill="black"/>
<path d="M19.0582 15.3133C19.2677 15.1039 19.6073 15.1039 19.8168 15.3133C20.0262 15.5228 20.0262 15.8624 19.8168 16.0719C19.6073 16.2814 19.2677 16.2814 19.0582 16.0719C18.8488 15.8624 18.8488 15.5228 19.0582 15.3133Z" fill="black"/>
<path d="M18.2586 9.74143C18.0491 9.53196 17.7095 9.53196 17.5 9.74143C17.2905 9.9509 17.2905 10.2905 17.5 10.5C17.7095 10.7095 18.0491 10.7095 18.2586 10.5C18.468 10.2905 18.468 9.9509 18.2586 9.74143Z" fill="black"/>
</svg>
