<svg width="24" height="24" viewBox="0 0 24 24" fill="none" xmlns="http://www.w3.org/2000/svg">
<path fill-rule="evenodd" clip-rule="evenodd" d="M3.25 6C3.25 4.45831 4.48029 3.26447 6.00774 2.50075C7.58004 1.7146 9.69967 1.25 12 1.25C14.3003 1.25 16.42 1.7146 17.9923 2.50075C19.5197 3.26447 20.75 4.45831 20.75 6V18C20.75 19.5417 19.5197 20.7355 17.9923 21.4992C16.42 22.2854 14.3003 22.75 12 22.75C9.69967 22.75 7.58004 22.2854 6.00774 21.4992C4.48029 20.7355 3.25 19.5417 3.25 18V6ZM4.75 6C4.75 5.33255 5.31057 4.52639 6.67856 3.84239C8.00168 3.18083 9.88205 2.75 12 2.75C14.118 2.75 15.9983 3.18083 17.3214 3.84239C18.6894 4.52639 19.25 5.33255 19.25 6C19.25 6.66745 18.6894 7.47361 17.3214 8.15761C15.9983 8.81917 14.118 9.25 12 9.25C9.88205 9.25 8.00168 8.81917 6.67856 8.15761C5.31057 7.47361 4.75 6.66745 4.75 6ZM4.75 18C4.75 18.6674 5.31057 19.4736 6.67856 20.1576C8.00168 20.8192 9.88205 21.25 12 21.25C14.118 21.25 15.9983 20.8192 17.3214 20.1576C18.6894 19.4736 19.25 18.6674 19.25 18V14.7072C18.8733 15.0077 18.4459 15.2724 17.9923 15.4992C16.42 16.2854 14.3003 16.75 12 16.75C9.69967 16.75 7.58004 16.2854 6.00774 15.4992C5.55414 15.2724 5.12675 15.0077 4.75 14.7072V18ZM19.25 8.70722V12C19.25 12.6674 18.6894 13.4736 17.3214 14.1576C15.9983 14.8192 14.118 15.25 12 15.25C9.88205 15.25 8.00168 14.8192 6.67856 14.1576C5.31057 13.4736 4.75 12.6674 4.75 12V8.70722C5.12675 9.00772 5.55414 9.27245 6.00774 9.49925C7.58004 10.2854 9.69967 10.75 12 10.75C14.3003 10.75 16.42 10.2854 17.9923 9.49925C18.4459 9.27245 18.8733 9.00772 19.25 8.70722Z" fill="black"/>
</svg>
