<svg width="24" height="24" viewBox="0 0 24 24" fill="none" xmlns="http://www.w3.org/2000/svg">
<path fill-rule="evenodd" clip-rule="evenodd" d="M18.0907 2.54877C17.5383 2.23946 16.9502 2.20831 16.3286 2.286C15.7381 2.3598 15.0198 2.54651 14.1565 2.7709L12.1382 3.2954C11.2753 3.51963 10.5568 3.70634 10.007 3.92891C9.42902 4.16293 8.92925 4.47736 8.60507 5.02195C8.27884 5.56998 8.24645 6.15584 8.32775 6.76777C8.40441 7.34473 8.59787 8.04488 8.82834 8.87901L9.3709 10.8429C9.60143 11.6775 9.7948 12.3775 10.0257 12.9139C10.2708 13.4835 10.5983 13.9684 11.1539 14.2795C11.7062 14.5888 12.2943 14.62 12.916 14.5423C13.5064 14.4685 14.2248 14.2818 15.0881 14.0574L17.1064 13.5329C17.9693 13.3086 18.6878 13.1219 19.2375 12.8994C19.8155 12.6653 20.3153 12.3509 20.6395 11.8063C20.9657 11.2583 20.9981 10.6724 20.9168 10.0605C20.8402 9.48355 20.6467 8.7834 20.4162 7.94926L19.8737 5.98536C19.6431 5.1508 19.4498 4.45076 19.2189 3.91434C18.9737 3.34477 18.6463 2.85989 18.0907 2.54877ZM14.4848 4.2354C15.4097 3.99503 16.0329 3.83463 16.5146 3.77442C16.9762 3.71673 17.1972 3.7676 17.3578 3.85754C17.5152 3.94567 17.6655 4.09931 17.8411 4.50734C18.0263 4.93768 18.1936 5.53684 18.4418 6.43548L18.9562 8.29754C19.2046 9.19641 19.3685 9.79611 19.4299 10.2581C19.4882 10.6968 19.436 10.8956 19.3506 11.0391C19.2631 11.186 19.1045 11.3349 18.6746 11.509C18.2269 11.6903 17.6048 11.8535 16.6796 12.0939L14.7598 12.5929C13.8348 12.8333 13.2117 12.9937 12.73 13.0539C12.2683 13.1116 12.0474 13.0607 11.8868 12.9707C11.7294 12.8826 11.5791 12.729 11.4035 12.3209C11.2183 11.8906 11.051 11.2914 10.8027 10.3928L10.2883 8.53074C10.04 7.63187 9.87606 7.03217 9.81469 6.57022C9.7564 6.13148 9.80858 5.93269 9.89399 5.78921C9.98146 5.64227 10.14 5.49334 10.57 5.31928C11.0177 5.138 11.6398 4.97476 12.5649 4.73434L14.4848 4.2354Z" fill="black"/>
<path fill-rule="evenodd" clip-rule="evenodd" d="M3.20052 4.72469C2.80138 4.61396 2.38805 4.84775 2.27731 5.24688C2.16657 5.64602 2.40036 6.05936 2.7995 6.17009L4.50319 6.64278C4.92879 6.76086 5.24573 7.08236 5.35401 7.47427L7.30531 14.5374C7.23035 14.5521 7.15542 14.5692 7.08061 14.5887C5.10356 15.1025 3.89545 17.0913 4.43818 19.0558C4.97829 21.0108 7.03197 22.1384 9.00118 21.6266C10.7245 21.1788 11.8636 19.6102 11.7681 17.9139L20.1887 15.7256C20.5896 15.6214 20.8301 15.2119 20.7259 14.811C20.6217 14.4101 20.2123 14.1696 19.8114 14.2738L11.3732 16.4667C10.8649 15.4794 9.93127 14.7927 8.8667 14.5562L6.79985 7.07483C6.54672 6.1586 5.8211 5.45177 4.90422 5.19738L3.20052 4.72469ZM7.4579 16.0404C8.66963 15.7255 9.88557 16.4288 10.1978 17.5589C10.5074 18.6796 9.82779 19.862 8.62389 20.1748C7.41217 20.4897 6.19623 19.7864 5.88402 18.6563C5.57441 17.5357 6.25401 16.3533 7.4579 16.0404Z" fill="black"/>
</svg>
