<svg width="24" height="24" viewBox="0 0 24 24" fill="none" xmlns="http://www.w3.org/2000/svg">
<path fill-rule="evenodd" clip-rule="evenodd" d="M4.95301 2.25C4.96862 2.25 4.98429 2.25 5.00001 2.25L19.047 2.25C19.7139 2.24997 20.2841 2.24994 20.7398 2.30742C21.2231 2.36839 21.6902 2.50529 22.0738 2.86524C22.4643 3.23154 22.6194 3.68856 22.6875 4.16405C22.7501 4.60084 22.7501 5.14397 22.75 5.76358L22.75 6.54012C22.75 7.02863 22.75 7.45095 22.7136 7.80311C22.6743 8.18206 22.5885 8.5376 22.3825 8.87893C22.1781 9.2177 21.9028 9.4636 21.5854 9.68404C21.2865 9.8917 20.9045 10.1067 20.4553 10.3596L17.5129 12.0159C16.8431 12.393 16.6099 12.5288 16.4542 12.6639C16.0966 12.9744 15.8918 13.3188 15.7956 13.7504C15.7545 13.9349 15.75 14.1672 15.75 14.8729L15.75 17.605C15.7501 18.5062 15.7501 19.2714 15.6574 19.8596C15.5587 20.4851 15.3298 21.0849 14.7298 21.4602C14.1434 21.827 13.4975 21.7933 12.8698 21.6442C12.2653 21.5007 11.5203 21.2094 10.6264 20.8599L10.5395 20.826C10.1208 20.6623 9.75411 20.519 9.46385 20.3691C9.1519 20.208 8.8622 20.0076 8.64055 19.6957C8.41641 19.3803 8.32655 19.042 8.28648 18.6963C8.24994 18.381 8.24997 18.0026 8.25 17.5806L8.25 14.8729C8.25 14.1672 8.24555 13.9349 8.20442 13.7504C8.1082 13.3188 7.90342 12.9744 7.54584 12.6639C7.39014 12.5288 7.15692 12.393 6.48714 12.0159L3.54471 10.3596C3.09549 10.1067 2.71353 9.8917 2.41458 9.68404C2.09724 9.4636 1.82191 9.2177 1.61747 8.87893C1.41148 8.5376 1.32571 8.18206 1.28645 7.80311C1.24996 7.45094 1.24998 7.02863 1.25 6.54012L1.25001 5.81466C1.25001 5.79757 1.25 5.78054 1.25 5.76357C1.24996 5.14396 1.24991 4.60084 1.31251 4.16405C1.38064 3.68856 1.53576 3.23154 1.92618 2.86524C2.30983 2.50529 2.77695 2.36839 3.26024 2.30742C3.71592 2.24994 4.28607 2.24997 4.95301 2.25ZM3.44796 3.79563C3.1143 3.83772 3.0082 3.90691 2.95251 3.95916C2.90359 4.00505 2.83904 4.08585 2.79734 4.37683C2.75181 4.69454 2.75001 5.12868 2.75001 5.81466V6.50448C2.75001 7.03869 2.75093 7.38278 2.77846 7.64854C2.8041 7.89605 2.84813 8.01507 2.90174 8.10391C2.9569 8.19532 3.0485 8.298 3.27034 8.45209C3.50406 8.61444 3.82336 8.79508 4.30993 9.06899L7.22296 10.7088C7.25024 10.7242 7.2771 10.7393 7.30357 10.7542C7.86227 11.0685 8.24278 11.2826 8.5292 11.5312C9.12056 12.0446 9.49997 12.6682 9.66847 13.424C9.75036 13.7913 9.75022 14.2031 9.75002 14.7845C9.75001 14.8135 9.75 14.843 9.75 14.8729V17.5424C9.75 18.0146 9.75117 18.305 9.77651 18.5236C9.79942 18.7213 9.83552 18.7878 9.8633 18.8269C9.89359 18.8695 9.95357 18.9338 10.152 19.0363C10.3644 19.146 10.6571 19.2614 11.1192 19.442C12.0802 19.8177 12.7266 20.0685 13.2164 20.1848C13.695 20.2985 13.8527 20.2396 13.9343 20.1885C14.0023 20.146 14.1073 20.0597 14.1757 19.626C14.2478 19.1686 14.25 18.5234 14.25 17.5424V14.8729C14.25 14.843 14.25 14.8135 14.25 14.7845C14.2498 14.2031 14.2496 13.7913 14.3315 13.424C14.5 12.6682 14.8794 12.0446 15.4708 11.5312C15.7572 11.2826 16.1377 11.0685 16.6964 10.7542C16.7229 10.7393 16.7498 10.7242 16.7771 10.7088L19.6901 9.06899C20.1767 8.79508 20.496 8.61444 20.7297 8.45209C20.9515 8.298 21.0431 8.19532 21.0983 8.10391C21.1519 8.01507 21.1959 7.89605 21.2215 7.64854C21.2491 7.38278 21.25 7.03869 21.25 6.50448V5.81466C21.25 5.12868 21.2482 4.69454 21.2027 4.37683C21.161 4.08585 21.0964 4.00505 21.0475 3.95916C20.9918 3.90691 20.8857 3.83772 20.5521 3.79563C20.2015 3.75141 19.727 3.75 19 3.75H5.00001C4.27297 3.75 3.79854 3.75141 3.44796 3.79563Z" fill="black"/>
</svg>
