<svg width="24" height="24" viewBox="0 0 24 24" fill="none" xmlns="http://www.w3.org/2000/svg">
<path fill-rule="evenodd" clip-rule="evenodd" d="M5 1.25C5.41421 1.25 5.75 1.58579 5.75 2V3.08515L7.32358 2.77043C9.11678 2.41179 10.9756 2.58245 12.6735 3.26161L12.8771 3.34307C14.2919 3.90898 15.849 4.01466 17.3273 3.64509C18.5579 3.33744 19.75 4.2682 19.75 5.53669V12.9037C19.75 13.8922 19.0773 14.7538 18.1183 14.9935L17.9039 15.0471C15.9814 15.5277 13.9563 15.3903 12.1164 14.6543C10.6886 14.0832 9.12562 13.9397 7.61776 14.2413L5.75 14.6149V22C5.75 22.4142 5.41421 22.75 5 22.75C4.58579 22.75 4.25 22.4142 4.25 22V2C4.25 1.58579 4.58579 1.25 5 1.25ZM5.75 13.0851L7.32358 12.7704C9.11678 12.4118 10.9756 12.5825 12.6735 13.2616C14.2206 13.8805 15.9235 13.996 17.5401 13.5919L17.7545 13.5383C18.0457 13.4655 18.25 13.2039 18.25 12.9037V5.53669C18.25 5.24405 17.975 5.02933 17.6911 5.10031C15.9069 5.54635 14.0276 5.4188 12.32 4.73578L12.1164 4.65433C10.6886 4.08323 9.12562 3.93973 7.61776 4.2413L5.75 4.61485V13.0851Z" fill="black"/>
</svg>
