<svg width="24" height="24" viewBox="0 0 24 24" fill="none" xmlns="http://www.w3.org/2000/svg">
<path fill-rule="evenodd" clip-rule="evenodd" d="M12 1.25C6.06294 1.25 1.25 6.06294 1.25 12C1.25 17.9371 6.06294 22.75 12 22.75C17.9371 22.75 22.75 17.9371 22.75 12C22.75 6.06294 17.9371 1.25 12 1.25ZM2.75 12C2.75 6.89137 6.89137 2.75 12 2.75C14.2845 2.75 16.3756 3.57817 17.9894 4.95066C17.9827 4.95685 17.9762 4.96319 17.9697 4.96967L4.96969 17.9694C4.96317 17.976 4.95679 17.9826 4.95056 17.9893C3.57813 16.3755 2.75 14.2845 2.75 12ZM6.0105 19.0492C7.62432 20.4218 9.71544 21.25 12 21.25C17.1086 21.25 21.25 17.1086 21.25 12C21.25 9.7155 20.4218 7.62442 19.0493 6.01062C19.0431 6.01728 19.0368 6.02386 19.0303 6.03034L6.03034 19.0301C6.02382 19.0366 6.0172 19.043 6.0105 19.0492Z" fill="black"/>
</svg>
