<svg width="24" height="24" viewBox="0 0 24 24" fill="none" xmlns="http://www.w3.org/2000/svg">
<path fill-rule="evenodd" clip-rule="evenodd" d="M11.9506 10.25H12.0494C12.7142 10.2499 13.2871 10.2499 13.7458 10.3116C13.9888 10.3443 14.2268 10.3972 14.4515 10.4885C14.4574 10.4821 14.4635 10.4759 14.4697 10.4697L15.4697 9.46965C15.7626 9.17676 16.2374 9.17676 16.5303 9.46965C16.8232 9.76255 16.8232 10.2374 16.5303 10.5303L15.5303 11.5303C15.5241 11.5365 15.5179 11.5426 15.5115 11.5485C15.6028 11.7732 15.6557 12.0112 15.6884 12.2541C15.7501 12.7129 15.75 13.2858 15.75 13.9506V14.0494C15.75 14.7142 15.7501 15.2871 15.6884 15.7458C15.6557 15.9888 15.6028 16.2268 15.5115 16.4515C15.5179 16.4574 15.5241 16.4635 15.5303 16.4697L16.5303 17.4697C16.8232 17.7625 16.8232 18.2374 16.5303 18.5303C16.2374 18.8232 15.7626 18.8232 15.4697 18.5303L14.4697 17.5303L14.4626 17.5232L14.4515 17.5115C14.2268 17.6028 13.9888 17.6557 13.7458 17.6884C13.2871 17.7501 12.7142 17.75 12.0494 17.75H11.9506C11.2858 17.75 10.7129 17.7501 10.2542 17.6884C10.0112 17.6557 9.77323 17.6028 9.54852 17.5115C9.54258 17.5178 9.53652 17.5241 9.53033 17.5303L8.53033 18.5303C8.23744 18.8232 7.76256 18.8232 7.46967 18.5303C7.17678 18.2374 7.17678 17.7625 7.46967 17.4697L8.46967 16.4697C8.47587 16.4635 8.48214 16.4574 8.4885 16.4515C8.39719 16.2268 8.34427 15.9888 8.31161 15.7458C8.24993 15.2871 8.24996 14.7142 8.25 14.0494V13.9506C8.24996 13.2858 8.24993 12.7129 8.31161 12.2541C8.34427 12.0112 8.39719 11.7732 8.4885 11.5485C8.48214 11.5426 8.47587 11.5365 8.46967 11.5303L7.46967 10.5303C7.17678 10.2374 7.17678 9.76255 7.46967 9.46965C7.76256 9.17676 8.23744 9.17676 8.53033 9.46965L9.53033 10.4697C9.53653 10.4759 9.54259 10.4821 9.54852 10.4885C9.77324 10.3972 10.0112 10.3443 10.2542 10.3116C10.7129 10.2499 11.2858 10.2499 11.9506 10.25ZM10.454 11.7982C10.1287 11.842 10.0268 11.9126 9.96967 11.9697C9.91258 12.0268 9.84197 12.1287 9.79823 12.454C9.75159 12.8009 9.75 13.2717 9.75 14C9.75 14.7283 9.75159 15.1991 9.79823 15.546C9.84197 15.8713 9.91258 15.9732 9.96967 16.0303C10.0268 16.0874 10.1287 16.158 10.454 16.2018C10.8009 16.2484 11.2717 16.25 12 16.25C12.7283 16.25 13.1991 16.2484 13.546 16.2018C13.8713 16.158 13.9732 16.0874 14.0303 16.0303C14.0874 15.9732 14.158 15.8713 14.2018 15.546C14.2484 15.1991 14.25 14.7283 14.25 14C14.25 13.2717 14.2484 12.8009 14.2018 12.454C14.158 12.1287 14.0874 12.0268 14.0303 11.9697C13.9732 11.9126 13.8713 11.842 13.546 11.7982C13.1991 11.7516 12.7283 11.75 12 11.75C11.2717 11.75 10.8009 11.7516 10.454 11.7982Z" fill="black"/>
<path fill-rule="evenodd" clip-rule="evenodd" d="M18.1215 2.37818C19.2746 2.15118 20.2973 2.18471 21.1755 2.81984C22.0497 3.45214 22.4147 4.4164 22.5843 5.59319C22.75 6.74274 22.75 8.25932 22.75 10.1691V15.9374C22.75 17.3332 22.75 18.4553 22.6337 19.3372C22.5133 20.2506 22.2561 21.0184 21.6567 21.6294C21.0554 22.2424 20.2964 22.5073 19.3937 22.6311C18.5257 22.75 17.4226 22.75 16.0558 22.75H7.94423C6.57742 22.75 5.47426 22.75 4.60634 22.6311C3.70357 22.5073 2.94457 22.2424 2.34327 21.6294C1.74394 21.0184 1.48674 20.2506 1.36627 19.3372C1.24997 18.4553 1.24998 17.3332 1.25 15.9375V13.0439C1.24999 12.0323 1.24997 11.2114 1.32373 10.5465C1.40054 9.85402 1.56346 9.2567 1.93766 8.71902C2.31266 8.18018 2.81458 7.82371 3.43435 7.51907C3.67957 7.39854 3.95362 7.28138 4.25685 7.16183C4.25233 7.12855 4.25 7.09458 4.25 7.06007L4.25 7.0192C4.24998 6.40157 4.24996 5.87723 4.29681 5.45333C4.34625 5.00595 4.4555 4.57875 4.7388 4.20215C4.86504 4.03433 5.01262 3.8837 5.17795 3.7543C5.55101 3.4623 5.97608 3.34904 6.4199 3.29801C6.83796 3.24993 7.35416 3.24996 7.95798 3.24998L8.90696 3.24993C9.32558 3.24952 9.67679 3.24918 9.98489 3.33339C10.6457 3.514 11.1854 3.96846 11.4874 4.56584L13.8275 3.73087C15.5932 3.10086 16.9995 2.59905 18.1215 2.37818ZM18.4112 3.84993C17.4122 4.0466 16.1113 4.50864 14.2699 5.16564L6.26994 8.02007C5.28321 8.37214 4.60299 8.61605 4.09604 8.86524C3.60704 9.1056 3.34709 9.31974 3.16885 9.57586C2.9898 9.83313 2.87609 10.1574 2.81459 10.7118C2.75107 11.2844 2.75 12.022 2.75 13.0869V15.8834C2.75 17.3459 2.75154 18.3687 2.8534 19.1411C2.95261 19.8934 3.13474 20.2943 3.41409 20.579C3.69147 20.8618 4.07892 21.0448 4.81003 21.145C5.56422 21.2483 6.56418 21.25 8 21.25H16C17.4358 21.25 18.4358 21.2483 19.19 21.145C19.9211 21.0448 20.3085 20.8618 20.5859 20.579C20.8653 20.2943 21.0474 19.8934 21.1466 19.1411C21.2485 18.3687 21.25 17.3459 21.25 15.8834V10.2325C21.25 8.24504 21.2481 6.83711 21.0997 5.80722C20.9533 4.79188 20.6862 4.31723 20.2964 4.03526C19.9104 3.75612 19.3921 3.65684 18.4112 3.84993ZM10.0445 5.08067C9.92734 4.93504 9.76844 4.82925 9.58942 4.78032C9.50288 4.75667 9.3746 4.74998 8.81818 4.74998H8C7.34251 4.74998 6.91342 4.75114 6.59127 4.78819C6.28522 4.82338 6.17009 4.88258 6.10247 4.93551C6.04089 4.98371 5.98536 5.04025 5.9375 5.10388C5.88265 5.17679 5.82282 5.30061 5.78773 5.61811C5.75994 5.86957 5.7526 6.18368 5.75068 6.61272L10.0445 5.08067Z" fill="black"/>
</svg>
