<svg width="24" height="24" viewBox="0 0 24 24" fill="none" xmlns="http://www.w3.org/2000/svg">
<path fill-rule="evenodd" clip-rule="evenodd" d="M6.23717 4.71153C6.63012 4.58055 6.84249 4.15581 6.71151 3.76285C6.58052 3.36989 6.15578 3.15752 5.76282 3.28851L5.20803 3.47344C4.63714 3.66371 4.15321 3.825 3.76907 4.00059C3.36027 4.18745 3.00244 4.41671 2.7176 4.77636C2.43275 5.13601 2.29154 5.53683 2.20328 5.97756C2.12035 6.39171 2.07418 6.89971 2.01972 7.49901L1.32246 15.1689C1.27528 15.4362 1.25046 15.7113 1.25 15.992C1.25544 18.6107 3.38 20.75 5.99999 20.75C8.36324 20.75 10.3234 19.0242 10.6889 16.7641L10.9079 16.6859C11.6142 16.434 12.3858 16.434 13.0921 16.686L13.3111 16.7641C13.6766 19.0242 15.6367 20.75 18 20.75C20.62 20.75 22.7445 18.6107 22.75 15.992C22.7495 15.7112 22.7247 15.4362 22.6775 15.1689L21.9803 7.499C21.9258 6.89971 21.8796 6.39171 21.7967 5.97756C21.7084 5.53683 21.5672 5.13601 21.2824 4.77636C20.9975 4.41671 20.6397 4.18745 20.2309 4.00059C19.8468 3.825 19.3629 3.66371 18.792 3.47344L18.2372 3.28851C17.8442 3.15752 17.4195 3.36989 17.2885 3.76285C17.1575 4.15581 17.3699 4.58055 17.7628 4.71153L18.281 4.88426C18.8984 5.09004 19.3051 5.22667 19.6073 5.36483C19.8931 5.49547 20.0214 5.60014 20.1065 5.70766C20.1917 5.81518 20.2642 5.96397 20.3259 6.27209C20.3912 6.59796 20.431 7.02517 20.4899 7.67324L20.9052 12.2418C20.1021 11.62 19.0943 11.25 18 11.25C15.6549 11.25 13.7067 12.9495 13.3198 15.184C12.4577 14.9346 11.5423 14.9346 10.6802 15.184C10.2933 12.9495 8.34511 11.25 5.99999 11.25C4.90572 11.25 3.89787 11.62 3.09474 12.2418L3.14309 11.71L3.51007 7.67324C3.56898 7.02517 3.60882 6.59796 3.67408 6.27209C3.73579 5.96397 3.80831 5.81518 3.89347 5.70766C3.97863 5.60014 4.10684 5.49547 4.39264 5.36483C4.69491 5.22667 5.10163 5.09004 5.71898 4.88426L6.23717 4.71153ZM21.1902 15.3762L21.2498 16.0323C21.2325 17.8124 19.7841 19.25 18 19.25C16.2051 19.25 14.75 17.7949 14.75 16C14.75 14.2051 16.2051 12.75 18 12.75C19.5816 12.75 20.8993 13.8797 21.1902 15.3762ZM2.8098 15.3762L2.75015 16.0323C2.76749 17.8124 4.21585 19.25 5.99999 19.25C7.79492 19.25 9.24999 17.7949 9.24999 16C9.24999 14.2051 7.79492 12.75 5.99999 12.75C4.41842 12.75 3.10071 13.8797 2.8098 15.3762Z" fill="black"/>
</svg>
