<svg width="24" height="24" viewBox="0 0 24 24" fill="none" xmlns="http://www.w3.org/2000/svg">
<path fill-rule="evenodd" clip-rule="evenodd" d="M11.9426 1.25H12.0574C14.3658 1.24999 16.1748 1.24998 17.5863 1.43975C19.031 1.63399 20.1711 2.03933 21.0659 2.93414C21.9607 3.82895 22.366 4.96897 22.5603 6.41371C22.75 7.82519 22.75 9.63423 22.75 11.9426V12.0574C22.75 14.3658 22.75 16.1748 22.5603 17.5863C22.366 19.031 21.9607 20.1711 21.0659 21.0659C20.1711 21.9607 19.031 22.366 17.5863 22.5603C16.1748 22.75 14.3658 22.75 12.0574 22.75H11.9426C9.63423 22.75 7.82519 22.75 6.41371 22.5603C4.96897 22.366 3.82895 21.9607 2.93414 21.0659C2.03933 20.1711 1.63399 19.031 1.43975 17.5863C1.24998 16.1748 1.24999 14.3658 1.25 12.0574V11.9426C1.24999 9.63423 1.24998 7.82519 1.43975 6.41371C1.63399 4.96897 2.03933 3.82895 2.93414 2.93414C3.82895 2.03933 4.96897 1.63399 6.41371 1.43975C7.82519 1.24998 9.63423 1.24999 11.9426 1.25ZM6.61358 2.92637C5.33517 3.09825 4.56445 3.42514 3.9948 3.9948C3.42514 4.56445 3.09825 5.33517 2.92637 6.61358C2.75159 7.91356 2.75 9.62178 2.75 12C2.75 14.3782 2.75159 16.0864 2.92637 17.3864C3.09825 18.6648 3.42514 19.4355 3.9948 20.0052C4.56445 20.5749 5.33517 20.9018 6.61358 21.0736C7.91356 21.2484 9.62178 21.25 12 21.25C14.3782 21.25 16.0864 21.2484 17.3864 21.0736C18.6648 20.9018 19.4355 20.5749 20.0052 20.0052C20.5749 19.4355 20.9018 18.6648 21.0736 17.3864C21.2484 16.0864 21.25 14.3782 21.25 12C21.25 9.62178 21.2484 7.91356 21.0736 6.61358C20.9018 5.33517 20.5749 4.56445 20.0052 3.9948C19.4355 3.42514 18.6648 3.09825 17.3864 2.92637C16.0864 2.75159 14.3782 2.75 12 2.75C9.62178 2.75 7.91356 2.75159 6.61358 2.92637Z" fill="black"/>
<path fill-rule="evenodd" clip-rule="evenodd" d="M5.5 7.25C5.91421 7.25 6.25 7.58579 6.25 8V11.25H9.56482V8C9.56482 7.58579 9.9006 7.25 10.3148 7.25C10.729 7.25 11.0648 7.58579 11.0648 8V16C11.0648 16.4142 10.729 16.75 10.3148 16.75C9.9006 16.75 9.56482 16.4142 9.56482 16V12.75H6.25V16C6.25 16.4142 5.91421 16.75 5.5 16.75C5.08579 16.75 4.75 16.4142 4.75 16V8C4.75 7.58579 5.08579 7.25 5.5 7.25ZM11.9722 8.8C11.9722 7.81979 12.8753 7.25 13.6852 7.25C16.6224 7.25 19.25 9.25248 19.25 12C19.25 14.7475 16.6224 16.75 13.6852 16.75C12.8753 16.75 11.9722 16.1802 11.9722 15.2V8.8ZM13.4722 8.82154C13.4749 8.81881 13.4785 8.81535 13.4835 8.81121C13.5161 8.78415 13.585 8.75 13.6852 8.75C16.0663 8.75 17.75 10.3292 17.75 12C17.75 13.6708 16.0663 15.25 13.6852 15.25C13.585 15.25 13.5161 15.2159 13.4835 15.1888C13.4785 15.1847 13.4749 15.1812 13.4722 15.1785V8.82154Z" fill="black"/>
</svg>
