<svg width="24" height="24" viewBox="0 0 24 24" fill="none" xmlns="http://www.w3.org/2000/svg">
<path d="M9.4466 15.3975C9.11383 15.1508 8.64412 15.2207 8.39746 15.5534C8.1508 15.8862 8.22061 16.3559 8.55337 16.6026C9.52578 17.3233 10.715 17.75 12 17.75C13.285 17.75 14.4742 17.3233 15.4466 16.6026C15.7794 16.3559 15.8492 15.8862 15.6025 15.5534C15.3559 15.2207 14.8861 15.1508 14.5534 15.3975C13.825 15.9374 12.9459 16.25 12 16.25C11.0541 16.25 10.1749 15.9374 9.4466 15.3975Z" fill="black"/>
<path fill-rule="evenodd" clip-rule="evenodd" d="M11.9999 1.25024C11.2749 1.25024 10.6133 1.44936 9.88919 1.78735C9.18823 2.11453 8.37763 2.5974 7.36174 3.20257L5.90613 4.06967C4.78702 4.73631 3.89526 5.26751 3.22006 5.77549C2.52304 6.29987 1.9999 6.83985 1.65898 7.55096C1.31789 8.26243 1.22545 9.00704 1.2551 9.87609C1.2838 10.7173 1.43096 11.7399 1.61547 13.0221L1.90783 15.0539C2.14522 16.7038 2.33359 18.0131 2.61503 19.0324C2.90514 20.0832 3.31676 20.9172 4.05956 21.5568C4.80174 22.1958 5.68975 22.4817 6.77625 22.6179C7.83145 22.7503 9.16271 22.7503 10.8422 22.7502H13.1576C14.8371 22.7503 16.1684 22.7503 17.2236 22.6179C18.3101 22.4817 19.1981 22.1958 19.9403 21.5568C20.6831 20.9172 21.0947 20.0832 21.3848 19.0324C21.6662 18.0131 21.8546 16.7038 22.092 15.054L22.3844 13.0221C22.5689 11.7399 22.716 10.7173 22.7447 9.87609C22.7744 9.00704 22.6819 8.26243 22.3408 7.55096C21.9999 6.83985 21.4768 6.29987 20.7798 5.77549C20.1046 5.26751 19.2128 4.73631 18.0937 4.06967L16.6381 3.20257C15.6222 2.5974 14.8116 2.11453 14.1106 1.78735C13.3865 1.44936 12.725 1.25024 11.9999 1.25024ZM8.09549 4.51146C9.153 3.88151 9.89914 3.43805 10.5236 3.14658C11.1327 2.86228 11.5707 2.75024 11.9999 2.75024C12.4292 2.75024 12.8671 2.86228 13.4762 3.14658C14.1007 3.43805 14.8468 3.8815 15.9043 4.51145L17.2892 5.33639C18.4535 6.02997 19.2751 6.52058 19.878 6.97415C20.4664 7.41686 20.7887 7.78319 20.9882 8.19941C21.1876 8.61529 21.2705 9.09361 21.2456 9.82493C21.22 10.5748 21.0855 11.5166 20.8935 12.8513L20.6147 14.7887C20.3682 16.5018 20.192 17.7165 19.9389 18.6332C19.6915 19.5291 19.3938 20.0479 18.9615 20.4201C18.5286 20.7928 17.9675 21.0129 17.0369 21.1296C16.0859 21.2489 14.8487 21.2502 13.106 21.2502H10.8938C9.15115 21.2502 7.91396 21.2489 6.9629 21.1296C6.03236 21.0129 5.4712 20.7928 5.03832 20.4201C4.60605 20.0479 4.30829 19.5291 4.06093 18.6332C3.80781 17.7165 3.63161 16.5018 3.3851 14.7886L3.10634 12.8513C2.91428 11.5165 2.77982 10.5748 2.75423 9.82493C2.72928 9.09361 2.8122 8.61529 3.01158 8.19941C3.21112 7.78319 3.53338 7.41686 4.12184 6.97415C4.72472 6.52058 5.54634 6.02997 6.71065 5.33639L8.09549 4.51146Z" fill="black"/>
</svg>
