<svg width="24" height="24" viewBox="0 0 24 24" fill="none" xmlns="http://www.w3.org/2000/svg">
<path d="M6.55016 12.1923C9.56705 8.93595 14.4329 8.93595 17.4498 12.1923C17.7313 12.4961 18.2059 12.5142 18.5097 12.2327C18.8136 11.9512 18.8317 11.4767 18.5502 11.1728C14.9396 7.27576 9.06035 7.27576 5.44982 11.1728C5.16831 11.4767 5.18642 11.9512 5.49027 12.2327C5.79412 12.5142 6.26865 12.4961 6.55016 12.1923Z" fill="black"/>
<path d="M8.55017 14.3508C10.4625 12.2867 13.5375 12.2867 15.4498 14.3508C15.7313 14.6546 16.2059 14.6727 16.5097 14.3912C16.8136 14.1097 16.8317 13.6352 16.5502 13.3313C14.0442 10.6265 9.95579 10.6265 7.44983 13.3313C7.16832 13.6352 7.18644 14.1097 7.49029 14.3912C7.79414 14.6727 8.26867 14.6546 8.55017 14.3508Z" fill="black"/>
<path d="M10.5502 16.5097C11.3579 15.6379 12.6421 15.6379 13.4499 16.5097C13.7314 16.8136 14.2059 16.8317 14.5097 16.5502C14.8136 16.2687 14.8317 15.7942 14.5502 15.4903C13.1488 13.9777 10.8512 13.9777 9.44985 15.4903C9.16834 15.7942 9.18645 16.2687 9.4903 16.5502C9.79415 16.8317 10.2687 16.8136 10.5502 16.5097Z" fill="black"/>
<path fill-rule="evenodd" clip-rule="evenodd" d="M11.9999 1.25024C11.2748 1.25024 10.6133 1.44936 9.88916 1.78735C9.18819 2.11453 8.3776 2.5974 7.36171 3.20257L5.9061 4.06967C4.78699 4.73631 3.89523 5.26751 3.22003 5.77549C2.52301 6.29987 1.99987 6.83985 1.65895 7.55096C1.31786 8.26243 1.22542 9.00704 1.25507 9.87609C1.28377 10.7173 1.43093 11.7399 1.61544 13.0221L1.9078 15.0539C2.14518 16.7038 2.33356 18.0131 2.61499 19.0324C2.90511 20.0832 3.31673 20.9172 4.05953 21.5568C4.80171 22.1958 5.68972 22.4817 6.77622 22.6179C7.83142 22.7503 9.16268 22.7503 10.8422 22.7502H13.1575C14.837 22.7503 16.1683 22.7503 17.2235 22.6179C18.31 22.4817 19.198 22.1958 19.9402 21.5568C20.683 20.9172 21.0947 20.0832 21.3848 19.0324C21.6662 18.0131 21.8546 16.7038 22.092 15.054L22.3843 13.0221C22.5688 11.7399 22.716 10.7173 22.7447 9.87609C22.7743 9.00704 22.6819 8.26243 22.3408 7.55096C21.9999 6.83985 21.4767 6.29987 20.7797 5.77549C20.1045 5.26751 19.2128 4.73631 18.0937 4.06967L16.6381 3.20257C15.6222 2.5974 14.8116 2.11453 14.1106 1.78735C13.3865 1.44936 12.7249 1.25024 11.9999 1.25024ZM8.09546 4.51146C9.15296 3.88151 9.89911 3.43805 10.5236 3.14658C11.1327 2.86228 11.5706 2.75024 11.9999 2.75024C12.4291 2.75024 12.8671 2.86228 13.4762 3.14658C14.1007 3.43805 14.8468 3.8815 15.9043 4.51145L17.2891 5.33639C18.4535 6.02997 19.2751 6.52058 19.8779 6.97415C20.4664 7.41686 20.7887 7.78319 20.9882 8.19941C21.1876 8.61529 21.2705 9.09361 21.2456 9.82493C21.22 10.5748 21.0855 11.5166 20.8935 12.8513L20.6147 14.7887C20.3682 16.5018 20.192 17.7165 19.9389 18.6332C19.6915 19.5291 19.3937 20.0479 18.9615 20.4201C18.5286 20.7928 17.9674 21.0129 17.0369 21.1296C16.0858 21.2489 14.8486 21.2502 13.106 21.2502H10.8938C9.15112 21.2502 7.91393 21.2489 6.96287 21.1296C6.03233 21.0129 5.47117 20.7928 5.03829 20.4201C4.60602 20.0479 4.30826 19.5291 4.0609 18.6332C3.80778 17.7165 3.63158 16.5018 3.38507 14.7886L3.10631 12.8513C2.91425 11.5165 2.77979 10.5748 2.7542 9.82493C2.72925 9.09361 2.81217 8.61529 3.01154 8.19941C3.21109 7.78319 3.53335 7.41686 4.12181 6.97415C4.72469 6.52058 5.54631 6.02997 6.71062 5.33639L8.09546 4.51146Z" fill="black"/>
</svg>
