<svg width="24" height="24" viewBox="0 0 24 24" fill="none" xmlns="http://www.w3.org/2000/svg">
<path fill-rule="evenodd" clip-rule="evenodd" d="M1.25 12C1.25 6.61522 5.61522 2.25 11 2.25H16.5C17.7426 2.25 18.75 3.25736 18.75 4.5V6C18.75 7.24264 17.7426 8.25 16.5 8.25H10.9444C8.87338 8.25 7.19444 9.92893 7.19444 12C7.19444 14.0711 8.87338 15.75 10.9444 15.75H16.5C17.7426 15.75 18.75 16.7574 18.75 18V19.5C18.75 20.7426 17.7426 21.75 16.5 21.75H11C5.61522 21.75 1.25 17.3848 1.25 12ZM11 3.75C6.44365 3.75 2.75 7.44365 2.75 12C2.75 16.5563 6.44365 20.25 11 20.25H13.6944V17.25H10.9444C8.04495 17.25 5.69444 14.8995 5.69444 12C5.69444 9.1005 8.04495 6.75 10.9444 6.75H13.6944V3.75H11ZM15.1944 3.75V6.75H16.5C16.9142 6.75 17.25 6.41421 17.25 6V4.5C17.25 4.08579 16.9142 3.75 16.5 3.75H15.1944ZM15.1944 17.25V20.25H16.5C16.9142 20.25 17.25 19.9142 17.25 19.5V18C17.25 17.5858 16.9142 17.25 16.5 17.25H15.1944Z" fill="black"/>
<path d="M21.0199 5.42382C21.3381 5.15865 21.811 5.20164 22.0762 5.51985L21.5 5.99999C22.0762 5.51985 22.0759 5.51951 22.0762 5.51985L22.0773 5.52123L22.0786 5.52277L22.0816 5.52638L22.0891 5.53565C22.0948 5.54275 22.1018 5.55168 22.1102 5.56247C22.1269 5.58404 22.1486 5.61304 22.1748 5.64961C22.227 5.72274 22.2966 5.82614 22.3775 5.96099C22.5394 6.23081 22.7463 6.62597 22.95 7.15575C23.3582 8.21712 23.75 9.80842 23.75 12C23.75 14.1916 23.3582 15.7829 22.95 16.8442C22.7463 17.374 22.5394 17.7692 22.3775 18.039C22.2966 18.1738 22.227 18.2772 22.1748 18.3504C22.1486 18.3869 22.1269 18.4159 22.1102 18.4375C22.1018 18.4483 22.0948 18.4572 22.0891 18.4643L22.0816 18.4736L22.0786 18.4772L22.0773 18.4788C22.077 18.4791 22.0762 18.4801 21.5 18L22.0762 18.4801C21.811 18.7983 21.3381 18.8413 21.0199 18.5762C20.7032 18.3123 20.6591 17.8426 20.92 17.5244L20.9235 17.52L20.9339 17.5063C20.9393 17.4991 20.9461 17.4898 20.9542 17.4785C20.9839 17.4368 21.0315 17.3668 21.0913 17.2672C21.2106 17.0683 21.3788 16.751 21.55 16.3058C21.8918 15.4171 22.25 14.0084 22.25 12C22.25 9.99156 21.8918 8.58285 21.55 7.69422C21.3788 7.249 21.2106 6.93167 21.0913 6.73274C21.0315 6.63321 20.9839 6.56317 20.9542 6.52146C20.9393 6.50061 20.9288 6.48683 20.9235 6.47999L20.92 6.47552L21.0199 5.42382Z" fill="black"/>
<path d="M20.1556 8.63578C19.9545 8.27369 19.4979 8.14324 19.1358 8.3444C18.7768 8.54385 18.6455 8.99442 18.8393 9.355L18.8443 9.36524C18.8512 9.37963 18.8643 9.40835 18.8818 9.45199C18.9167 9.53921 18.9691 9.68652 19.0235 9.8988C19.1322 10.3229 19.25 11.0101 19.25 12C19.25 12.9899 19.1322 13.6772 19.0235 14.1012C18.9691 14.3135 18.9167 14.4608 18.8818 14.548C18.8643 14.5917 18.8512 14.6204 18.8443 14.6348L18.8393 14.645C18.6455 15.0056 18.7768 15.4562 19.1358 15.6556C19.4979 15.8568 19.9545 15.7263 20.1556 15.3642L20.1563 15.3629L20.1571 15.3615L20.1588 15.3585L20.1626 15.3514L20.1723 15.333C20.1795 15.319 20.1884 15.3012 20.1986 15.2797C20.2191 15.2367 20.2451 15.1787 20.2745 15.1051C20.3333 14.958 20.4059 14.749 20.4765 14.4738C20.6178 13.9229 20.75 13.1101 20.75 12C20.75 10.8899 20.6178 10.0772 20.4765 9.52623C20.4059 9.25101 20.3333 9.04207 20.2745 8.89491C20.2451 8.82136 20.2191 8.76336 20.1986 8.72034C20.1884 8.69883 20.1795 8.68107 20.1723 8.667L20.1626 8.64865L20.1588 8.64154L20.1571 8.63849L20.1563 8.63709L20.1556 8.63578Z" fill="black"/>
</svg>
