<svg width="24" height="24" viewBox="0 0 24 24" fill="none" xmlns="http://www.w3.org/2000/svg">
<path d="M6.00532 13.368C6.03405 13.072 6.2643 12.7673 6.64301 12.6658C7.02172 12.5644 7.37346 12.7131 7.54636 12.9551C7.78716 13.2921 8.25558 13.3701 8.59261 13.1293C8.92964 12.8885 9.00765 12.4201 8.76685 12.0831C8.21637 11.3126 7.21391 10.96 6.25478 11.217C5.29565 11.4739 4.60383 12.2806 4.51234 13.2231C4.47231 13.6354 4.77408 14.002 5.18636 14.042C5.59864 14.0821 5.9653 13.7803 6.00532 13.368Z" fill="black"/>
<path d="M11.8012 11.8148C11.83 11.5188 12.0602 11.2141 12.4389 11.1126C12.8176 11.0111 13.1694 11.1599 13.3423 11.4019C13.5831 11.7389 14.0515 11.8169 14.3885 11.5761C14.7255 11.3353 14.8035 10.8669 14.5627 10.5299C14.0123 9.75939 13.0098 9.40673 12.0507 9.66373C11.0916 9.92073 10.3997 10.7274 10.3082 11.6699C10.2682 12.0821 10.57 12.4488 10.9823 12.4888C11.3945 12.5288 11.7612 12.2271 11.8012 11.8148Z" fill="black"/>
<path d="M13.2006 16.231L13.6476 15.6287C13.9802 15.8756 14.0497 16.3454 13.8029 16.678C13.5583 17.0075 13.0949 17.0788 12.7629 16.84L12.7532 16.8337C12.7389 16.8247 12.7107 16.8078 12.6693 16.7865C12.5865 16.7438 12.4515 16.6841 12.2682 16.6343C11.9066 16.536 11.3386 16.4711 10.5824 16.6737C9.82625 16.8763 9.36691 17.2165 9.10287 17.4824C8.96899 17.6172 8.88197 17.7364 8.83153 17.8148C8.80634 17.8539 8.79044 17.8826 8.78254 17.8976L8.77727 17.9079C8.60913 18.2807 8.1722 18.4507 7.79561 18.2876C7.41551 18.123 7.24083 17.6814 7.40544 17.3013L8.09367 17.5994C7.40544 17.3013 7.40527 17.3017 7.40544 17.3013L7.40613 17.2997L7.40687 17.298L7.40851 17.2943L7.41245 17.2856L7.42299 17.263C7.43123 17.2457 7.44196 17.2241 7.45538 17.1986C7.4822 17.1477 7.51989 17.0811 7.57018 17.003C7.67071 16.8468 7.82221 16.6433 8.03856 16.4254C8.475 15.986 9.16298 15.5011 10.1942 15.2248C11.2255 14.9485 12.0637 15.0244 12.6614 15.1867C12.9577 15.2672 13.1906 15.3677 13.3558 15.4527C13.4384 15.4953 13.5043 15.5341 13.553 15.5647C13.5774 15.5801 13.5975 15.5935 13.6133 15.6043L13.6337 15.6186L13.6415 15.6242L13.6448 15.6266L13.6462 15.6277L13.6476 15.6287C13.648 15.629 13.6476 15.6287 13.2006 16.231Z" fill="black"/>
<path fill-rule="evenodd" clip-rule="evenodd" d="M13.2525 2.25075L13.2939 2.27016C14.4615 2.81696 14.9862 3.06106 15.5292 3.2334C15.7216 3.29448 15.9159 3.34889 16.1116 3.39656C16.6637 3.53097 17.234 3.59375 18.5069 3.73055L18.5524 3.73544C19.3605 3.82227 20.0326 3.89449 20.562 4.01559C21.1159 4.14232 21.6163 4.34322 22.0104 4.75771C22.2395 4.99873 22.424 5.27931 22.5563 5.58545C22.781 6.10568 22.7825 6.64939 22.7 7.22438C22.6205 7.77908 22.4468 8.45664 22.2356 9.28077L21.3798 12.6196C20.6637 15.4133 18.8467 16.9655 17.0235 17.8086C16.298 19.3831 15.1596 20.5897 14.2193 21.3923L14.198 21.4105C13.9475 21.6244 13.7013 21.8347 13.3782 22.0194C13.0425 22.2113 12.654 22.36 12.1093 22.5126C11.565 22.665 11.1564 22.7397 10.7715 22.749C10.4006 22.758 10.0841 22.7042 9.76496 22.6499L9.73729 22.6452C7.41585 22.2507 3.72541 20.9314 2.62023 16.6196L1.76444 13.2807C1.5532 12.4566 1.37951 11.7791 1.29999 11.2244C1.21756 10.6494 1.21903 10.1057 1.44376 9.58545C1.57601 9.27931 1.76051 8.99873 1.98967 8.75771C2.38377 8.34322 2.8841 8.14232 3.43805 8.01559C3.9674 7.89449 4.63948 7.82227 5.44765 7.73544L5.49315 7.73055C6.01209 7.67477 6.41425 7.6313 6.74602 7.59027L7.3712 5.15109C7.58232 4.32737 7.756 3.64968 7.95257 3.12737C8.15581 2.58732 8.41933 2.1097 8.87263 1.76922C9.1383 1.56968 9.43762 1.42051 9.75667 1.33005C10.3069 1.17407 10.8414 1.26443 11.3789 1.44328C11.8948 1.61493 12.5108 1.90341 13.2525 2.25075ZM19.9268 12.2472C19.5147 13.8549 18.6663 14.9481 17.6642 15.697C17.8134 14.7225 17.7824 13.6519 17.4847 12.4904L16.5537 8.85834C16.6853 8.80733 16.804 8.71865 16.8921 8.59523C17.065 8.35324 17.4168 8.2045 17.7955 8.30598C18.1742 8.40745 18.4045 8.71213 18.4332 9.00815C18.4732 9.42043 18.8399 9.7222 19.2521 9.68218C19.6644 9.64215 19.9662 9.2755 19.9262 8.86322C19.8347 7.92073 19.1429 7.11409 18.1837 6.85709C17.4379 6.65723 16.6658 6.82607 16.1004 7.27337C16.0829 7.22343 16.0653 7.17476 16.0475 7.12737C15.8442 6.58732 15.5807 6.1097 15.1274 5.76922C14.8617 5.56968 14.5624 5.42051 14.2434 5.33005C13.7234 5.18265 13.2175 5.25523 12.7098 5.41458C12.6065 5.37078 12.499 5.33367 12.3878 5.30387C11.4287 5.04687 10.4262 5.39954 9.87575 6.17001C9.75787 6.33499 9.7164 6.53147 9.7443 6.71731C9.1936 6.96884 8.83636 7.11738 8.47085 7.2334C8.44015 7.24314 8.4094 7.25272 8.37861 7.26212L8.81347 5.56551C9.03805 4.68933 9.19224 4.09201 9.35644 3.65571C9.51729 3.22831 9.65153 3.06018 9.77347 2.96859C9.8935 2.87844 10.0265 2.81267 10.1658 2.77318C10.2992 2.73535 10.495 2.73001 10.9054 2.86656C11.3278 3.00713 11.864 3.25687 12.6578 3.62859L12.7112 3.65361C13.8114 4.16884 14.428 4.45761 15.0754 4.6631C15.3004 4.73454 15.5277 4.7982 15.7568 4.85399C16.4162 5.01453 17.0891 5.08684 18.288 5.21567L18.3466 5.22196C19.2119 5.31496 19.7949 5.37887 20.2274 5.47781C20.6453 5.5734 20.8181 5.68061 20.9233 5.79129C21.0289 5.90241 21.116 6.03394 21.1792 6.18029C21.246 6.33491 21.2802 6.55835 21.2152 7.01151C21.1487 7.47569 20.9964 8.07386 20.7719 8.94983L19.9268 12.2472ZM13.0947 6.86656C12.6722 7.00713 12.136 7.25687 11.3423 7.62859L11.2888 7.65361C10.1887 8.16883 9.57204 8.45761 8.92467 8.6631C8.69962 8.73454 8.47235 8.7982 8.24321 8.85399C7.58379 9.01453 6.91091 9.08683 5.712 9.21567L5.65344 9.22196C4.78807 9.31496 4.20508 9.37887 3.77258 9.47781C3.35477 9.5734 3.18197 9.68061 3.07674 9.79129C2.97109 9.90241 2.884 10.0339 2.82078 10.1803C2.75398 10.3349 2.71984 10.5583 2.78481 11.0115C2.85136 11.4757 3.00359 12.0739 3.22812 12.9498L4.07326 16.2472C4.95501 19.6873 7.87073 20.8065 9.98859 21.1664C10.3372 21.2256 10.521 21.2547 10.7351 21.2495C10.9459 21.2443 11.2207 21.2037 11.7047 21.0682C12.1882 20.9327 12.4468 20.824 12.6338 20.7171C12.8244 20.6082 12.972 20.4849 13.2455 20.2515C14.9144 18.8268 16.9167 16.3157 16.0317 12.8628L15.1866 9.56551C14.962 8.68933 14.8078 8.09201 14.6436 7.65571C14.4827 7.22831 14.3485 7.06018 14.2266 6.96859C14.1065 6.87844 13.9735 6.81267 13.8342 6.77318C13.7008 6.73535 13.505 6.73001 13.0947 6.86656Z" fill="black"/>
</svg>
