<svg width="24" height="24" viewBox="0 0 24 24" fill="none" xmlns="http://www.w3.org/2000/svg">
<path d="M7.1709 9.33522C7.29437 9.08813 7.75678 8.74997 8.5 8.74997C9.24321 8.74997 9.70562 9.08813 9.8291 9.33522C10.0142 9.70575 10.4647 9.85602 10.8352 9.67087C11.2058 9.48572 11.3561 9.03525 11.1709 8.66472C10.7121 7.74662 9.60349 7.24997 8.5 7.24997C7.39651 7.24997 6.28787 7.74662 5.8291 8.66472C5.64394 9.03525 5.79422 9.48572 6.16475 9.67087C6.53528 9.85602 6.98575 9.70575 7.1709 9.33522Z" fill="black"/>
<path d="M15.5 8.74997C14.7568 8.74997 14.2944 9.08813 14.1709 9.33522C13.9857 9.70575 13.5353 9.85602 13.1647 9.67087C12.7942 9.48572 12.6439 9.03525 12.8291 8.66472C13.2879 7.74662 14.3965 7.24997 15.5 7.24997C16.6035 7.24997 17.7121 7.74662 18.1709 8.66472C18.3561 9.03525 18.2058 9.48572 17.8352 9.67087C17.4647 9.85602 17.0142 9.70575 16.8291 9.33522C16.7056 9.08813 16.2432 8.74997 15.5 8.74997Z" fill="black"/>
<path fill-rule="evenodd" clip-rule="evenodd" d="M8.83532 2.21219L7.72475 2.02709C6.69156 1.85487 5.83727 1.71246 5.15499 1.69597C4.43942 1.67869 3.77599 1.7937 3.22247 2.2626C2.66908 2.73139 2.44648 3.3665 2.34586 4.07485C2.24995 4.75009 2.24997 5.61547 2.25 6.66189L2.25 12C2.25 17.9642 6.87373 20.8143 9.60498 21.9762L9.63161 21.9875C9.97181 22.1323 10.2904 22.2678 10.6562 22.359C11.0418 22.4551 11.4518 22.4964 12 22.4964C12.5482 22.4964 12.9582 22.4551 13.3438 22.359C13.7096 22.2678 14.0282 22.1323 14.3684 21.9875L14.395 21.9762C17.1263 20.8143 21.75 17.9642 21.75 12V6.66192C21.75 5.61548 21.7501 4.7501 21.6541 4.07485C21.5535 3.3665 21.3309 2.73139 20.7775 2.2626C20.224 1.7937 19.5606 1.67869 18.845 1.69597C18.1627 1.71246 17.3084 1.85487 16.2753 2.02709L15.1647 2.21219C13.5012 2.48944 12.7514 2.61205 12 2.61205C11.2486 2.61205 10.4988 2.48944 8.83532 2.21219ZM4.19203 3.40713C4.34577 3.2769 4.57647 3.18243 5.11876 3.19554C5.682 3.20914 6.43066 3.33211 7.5343 3.51605L8.66226 3.70404C10.2329 3.96585 11.11 4.11205 12 4.11205C12.89 4.11205 13.7671 3.96585 15.3377 3.70404L16.4657 3.51604C17.5693 3.33211 18.318 3.20914 18.8813 3.19554C19.4235 3.18243 19.6542 3.2769 19.808 3.40713C19.9618 3.53747 20.0929 3.7494 20.1691 4.2858C20.2482 4.84308 20.25 5.60098 20.25 6.71887V12C20.25 17.0165 16.3958 19.495 13.8079 20.5959C13.4367 20.7538 13.2212 20.8437 12.981 20.9035C12.7511 20.9608 12.4711 20.9964 12 20.9964C11.5289 20.9964 11.2489 20.9608 11.019 20.9035C10.7788 20.8437 10.5633 20.7538 10.1921 20.5959C7.6042 19.495 3.75 17.0165 3.75 12V6.71887C3.75 5.60098 3.7518 4.84308 3.83096 4.2858C3.90715 3.7494 4.03818 3.53747 4.19203 3.40713Z" fill="black"/>
<path d="M7.9569 13.4827C7.67123 13.7827 7.68549 14.2599 7.98544 14.5456L8.01577 14.5732C8.03121 14.5869 8.05113 14.6039 8.07562 14.6239C8.12461 14.6639 8.19189 14.7156 8.2782 14.7748C8.45092 14.8932 8.6995 15.0415 9.02945 15.1866C9.69192 15.4778 10.6696 15.75 12 15.75C13.3304 15.75 14.3081 15.4778 14.9706 15.1866C15.3005 15.0415 15.5491 14.8932 15.7218 14.7748C15.8081 14.7156 15.8754 14.6639 15.9244 14.6239C15.9489 14.6039 15.9688 14.5869 15.9842 14.5732L16.0041 14.5554L16.0115 14.5485L16.0146 14.5456L16.016 14.5443L16.0172 14.5431C16.3172 14.2574 16.3288 13.7827 16.0431 13.4827C15.76 13.1855 15.2913 13.1714 14.991 13.4492L14.9902 13.4498L14.9854 13.454L14.9758 13.4619C14.9578 13.4766 14.9239 13.5031 14.8735 13.5377C14.7728 13.6067 14.6058 13.7084 14.367 13.8134C13.8919 14.0222 13.1196 14.25 12 14.25C10.8804 14.25 10.1081 14.0222 9.63305 13.8134C9.39425 13.7084 9.22721 13.6067 9.12649 13.5377C9.09073 13.5132 9.06328 13.4927 9.04392 13.4776C9.03605 13.4715 9.02939 13.4662 9.02419 13.4619C9.01651 13.4557 9.01172 13.4515 9.00977 13.4498C8.70947 13.1714 8.2402 13.1853 7.9569 13.4827Z" fill="black"/>
</svg>
