<svg width="24" height="24" viewBox="0 0 24 24" fill="none" xmlns="http://www.w3.org/2000/svg">
<path fill-rule="evenodd" clip-rule="evenodd" d="M9.29607 1.99061C9.88897 2.54349 10.3472 3.35771 10.5824 4.28892C10.8177 5.22085 10.8026 6.16209 10.5537 6.94277C10.3089 7.71048 9.79206 8.43498 8.95076 8.67417C8.09989 8.91608 7.29085 8.55672 6.70392 8.00941C6.11102 7.45654 5.65276 6.64232 5.4176 5.7111C5.18226 4.77917 5.19743 3.83793 5.44633 3.05725C5.69109 2.28954 6.20793 1.56504 7.04923 1.32585C7.9001 1.08394 8.70914 1.4433 9.29607 1.99061ZM8.27309 3.08766C7.91868 2.75718 7.63319 2.71927 7.45944 2.76867C7.27612 2.82079 7.03227 3.02101 6.87545 3.51289C6.72276 3.9918 6.69546 4.64501 6.87194 5.34384C7.0486 6.04338 7.37847 6.58746 7.7269 6.91237C8.08131 7.24285 8.3668 7.28075 8.54055 7.23135C8.72387 7.17923 8.96772 6.97901 9.12454 6.48713C9.27723 6.00822 9.30453 5.35502 9.12805 4.65619C8.95139 3.95664 8.62152 3.41256 8.27309 3.08766Z" fill="black"/>
<path fill-rule="evenodd" clip-rule="evenodd" d="M10.8509 9.43858C11.5969 9.18716 12.4031 9.18716 13.1491 9.43858C13.9775 9.71776 14.579 10.4109 15.1373 11.2965C15.6976 12.1854 16.3064 13.4249 17.0814 15.0026L17.9884 16.8492C18.1872 17.2538 18.346 17.5771 18.4603 17.8343C18.5725 18.0866 18.6694 18.334 18.7104 18.5741C18.9857 20.1872 17.7927 21.7014 16.1473 21.7493C15.9028 21.7564 15.6417 21.7081 15.3763 21.6465C15.1054 21.5836 14.762 21.4895 14.3333 21.372L14.3173 21.3676C13.8025 21.2265 13.578 21.1654 13.3559 21.1205C12.4607 20.9393 11.5393 20.9393 10.6441 21.1205C10.422 21.1654 10.1976 21.2265 9.68269 21.3676L9.66669 21.372C9.23828 21.4894 8.89457 21.5836 8.6237 21.6465C8.35835 21.7081 8.09718 21.7564 7.85276 21.7493C6.20729 21.7014 5.01432 20.1872 5.28967 18.5741C5.33066 18.334 5.42753 18.0866 5.53969 17.8343C5.65402 17.5772 5.81283 17.2538 6.01158 16.8492L6.9186 15.0026C7.69357 13.4249 8.30241 12.1854 8.86277 11.2965C9.42101 10.4109 10.0225 9.71776 10.8509 9.43858ZM12.6701 10.86C12.2348 10.7133 11.7652 10.7133 11.33 10.86C11.0171 10.9655 10.6516 11.2717 10.1317 12.0964C9.61896 12.9097 9.04449 14.0769 8.24384 15.707L7.36508 17.496C7.15755 17.9185 7.01159 18.2159 6.91035 18.4437C6.80557 18.6794 6.77579 18.7826 6.76828 18.8265C6.64122 19.5709 7.19233 20.2294 7.89643 20.2499C7.9352 20.2511 8.03674 20.2429 8.28441 20.1854C8.5231 20.13 8.83788 20.0438 9.28623 19.921L9.31517 19.913C9.79319 19.782 10.0688 19.7065 10.3466 19.6503C11.4382 19.4294 12.5619 19.4294 13.6534 19.6503C13.9313 19.7065 14.2068 19.782 14.6849 19.913L14.7138 19.921C15.1621 20.0438 15.4769 20.13 15.7156 20.1854C15.9633 20.2429 16.0648 20.2511 16.1036 20.2499C16.8077 20.2294 17.3588 19.5709 17.2318 18.8265C17.2242 18.7826 17.1945 18.6794 17.0897 18.4437C16.9884 18.2159 16.8425 17.9185 16.6349 17.496L15.7562 15.707C14.9555 14.0769 14.3811 12.9097 13.8683 12.0964C13.3484 11.2717 12.9829 10.9655 12.6701 10.86Z" fill="black"/>
<path fill-rule="evenodd" clip-rule="evenodd" d="M13.4176 4.28892C13.6528 3.35771 14.111 2.54349 14.7039 1.99061C15.2909 1.4433 16.0999 1.08394 16.9508 1.32585C17.7921 1.56504 18.3089 2.28954 18.5537 3.05725C18.8026 3.83793 18.8177 4.77917 18.5824 5.7111C18.3472 6.64232 17.889 7.45654 17.2961 8.00941C16.7091 8.55672 15.9001 8.91608 15.0492 8.67417C14.2079 8.43498 13.6911 7.71048 13.4463 6.94277C13.1974 6.16209 13.1823 5.22085 13.4176 4.28892ZM16.5406 2.76867C16.3668 2.71927 16.0813 2.75718 15.7269 3.08766C15.3785 3.41256 15.0486 3.95664 14.872 4.65619C14.6955 5.35502 14.7228 6.00822 14.8755 6.48713C15.0323 6.97901 15.2761 7.17923 15.4594 7.23135C15.6332 7.28075 15.9187 7.24285 16.2731 6.91237C16.6215 6.58746 16.9514 6.04338 17.1281 5.34384C17.3045 4.64501 17.2772 3.9918 17.1245 3.51289C16.9677 3.02101 16.7239 2.82079 16.5406 2.76867Z" fill="black"/>
<path fill-rule="evenodd" clip-rule="evenodd" d="M4.69539 9.20352C4.13171 8.81357 3.40257 8.60751 2.68533 8.86095C1.96397 9.11584 1.53274 9.73702 1.35471 10.3994C1.17645 11.0626 1.22648 11.8296 1.49905 12.5595C1.77173 13.2897 2.2377 13.9043 2.80461 14.2965C3.36829 14.6865 4.09743 14.8925 4.81467 14.6391C5.53603 14.3842 5.96726 13.763 6.14529 13.1007C6.32355 12.4375 6.27352 11.6704 6.00095 10.9405C5.72827 10.2103 5.26229 9.5957 4.69539 9.20352ZM3.842 10.4371C4.13038 10.6366 4.41841 10.9905 4.59573 11.4653C4.77316 11.9404 4.78393 12.3868 4.6967 12.7113C4.60924 13.0367 4.44869 13.1775 4.31493 13.2248C4.17705 13.2735 3.94962 13.2647 3.658 13.0629C3.36962 12.8634 3.08159 12.5096 2.90427 12.0348C2.72683 11.5596 2.71607 11.1132 2.8033 10.7887C2.89076 10.4633 3.05131 10.3225 3.18507 10.2753C3.32295 10.2265 3.55038 10.2354 3.842 10.4371Z" fill="black"/>
<path fill-rule="evenodd" clip-rule="evenodd" d="M21.3147 8.86095C20.5974 8.60751 19.8683 8.81357 19.3046 9.20352C18.7377 9.5957 18.2717 10.2103 17.9991 10.9405C17.7265 11.6704 17.6764 12.4375 17.8547 13.1007C18.0327 13.763 18.464 14.3842 19.1853 14.6391C19.9026 14.8925 20.6317 14.6865 21.1954 14.2965C21.7623 13.9043 22.2283 13.2897 22.5009 12.5595C22.7735 11.8296 22.8236 11.0626 22.6453 10.3994C22.4673 9.73702 22.036 9.11584 21.3147 8.86095ZM19.4043 11.4653C19.5816 10.9905 19.8696 10.6366 20.158 10.4371C20.4496 10.2354 20.677 10.2265 20.8149 10.2753C20.9487 10.3225 21.1092 10.4633 21.1967 10.7887C21.2839 11.1132 21.2732 11.5596 21.0957 12.0348C20.9184 12.5096 20.6304 12.8634 20.342 13.0629C20.0504 13.2647 19.823 13.2735 19.6851 13.2248C19.5513 13.1775 19.3908 13.0367 19.3033 12.7113C19.2161 12.3868 19.2268 11.9404 19.4043 11.4653Z" fill="black"/>
</svg>
