<svg width="24" height="24" viewBox="0 0 24 24" fill="none" xmlns="http://www.w3.org/2000/svg">
<path d="M10.6847 1.52643C10.9754 1.23133 10.9718 0.756467 10.6767 0.465797C10.3816 0.175127 9.90675 0.178718 9.61609 0.473817L7.86568 2.2509C7.5781 2.54286 7.57811 3.01158 7.86569 3.30353L9.6161 5.08049C9.90678 5.37558 10.3816 5.37916 10.6767 5.08848C10.9718 4.7978 10.9754 4.32294 10.6847 4.02785L10.1472 3.48213C10.7108 3.47691 11.3258 3.47686 12 3.47686C14.1428 3.47686 15.6734 3.4785 16.8363 3.63722C17.9765 3.79284 18.6508 4.08676 19.1477 4.5912C19.6461 5.09721 19.9377 5.78636 20.0917 6.94924C20.2485 8.13255 20.25 9.68902 20.25 11.8634C20.25 14.0378 20.2485 15.5943 20.0917 16.7776C19.9377 17.9405 19.6461 18.6296 19.1477 19.1356C18.6508 19.6401 17.9765 19.934 16.8363 20.0896C15.6734 20.2483 14.1428 20.25 12 20.25C9.85717 20.25 8.32662 20.2483 7.1637 20.0896C6.02354 19.934 5.34923 19.6401 4.85233 19.1356C4.35388 18.6296 4.06227 17.9405 3.90826 16.7776C3.75155 15.5943 3.75 14.0378 3.75 11.8634C3.75 9.68902 3.75155 8.13255 3.90826 6.94924C4.06227 5.78636 4.35388 5.09721 4.85233 4.5912C5.14301 4.29611 5.13943 3.82125 4.84434 3.53057C4.54925 3.23989 4.07439 3.24347 3.78371 3.53856C2.96414 4.37056 2.59674 5.42717 2.42124 6.75231C2.24998 8.04552 2.24999 9.70135 2.25 11.8072V11.9197C2.24999 14.0255 2.24998 15.6813 2.42124 16.9745C2.59674 18.2997 2.96414 19.3563 3.78371 20.1883C4.60483 21.0218 5.65019 21.3969 6.96085 21.5758C8.23694 21.75 9.86991 21.75 11.9423 21.75H12.0577C14.1301 21.75 15.7631 21.75 17.0391 21.5758C18.3498 21.3969 19.3952 21.0218 20.2163 20.1883C21.0359 19.3563 21.4033 18.2997 21.5788 16.9745C21.75 15.6813 21.75 14.0255 21.75 11.9197V11.8072C21.75 9.70135 21.75 8.04551 21.5788 6.75231C21.4033 5.42717 21.0359 4.37056 20.2163 3.53856C19.3952 2.70498 18.3498 2.32989 17.0391 2.151C15.7631 1.97683 14.1301 1.97685 12.0577 1.97686L11.9829 1.97686C11.3608 1.97686 10.7794 1.97686 10.2367 1.98129L10.6847 1.52643Z" fill="black"/>
<path d="M16.0303 10.0303C16.3232 9.73741 16.3232 9.26253 16.0303 8.96964C15.7374 8.67675 15.2626 8.67675 14.9697 8.96964L10.5 13.4393L9.03033 11.9696C8.73744 11.6767 8.26256 11.6767 7.96967 11.9696C7.67678 12.2625 7.67678 12.7374 7.96967 13.0303L9.96967 15.0303C10.2626 15.3232 10.7374 15.3232 11.0303 15.0303L16.0303 10.0303Z" fill="black"/>
</svg>
