<svg width="24" height="24" viewBox="0 0 24 24" fill="none" xmlns="http://www.w3.org/2000/svg">
<path fill-rule="evenodd" clip-rule="evenodd" d="M17.3462 1.63245C17.5492 1.27139 18.0065 1.14326 18.3676 1.34626C18.7286 1.54926 18.8568 2.00652 18.6538 2.36758L12.8604 12.6717L15.5677 17.487C16.1494 16.1695 17.4673 15.25 19 15.25C21.0711 15.25 22.75 16.9289 22.75 19C22.75 21.0711 21.0711 22.75 19 22.75C17.5771 22.75 16.3394 21.9576 15.7039 20.7899L12 14.2021L8.29606 20.7899C7.66064 21.9576 6.42286 22.75 5 22.75C2.92893 22.75 1.25 21.0711 1.25 19C1.25 16.9289 2.92893 15.25 5 15.25C6.5327 15.25 7.85064 16.1695 8.43226 17.487L11.1396 12.6717L5.34624 2.36758C5.14324 2.00652 5.27138 1.54926 5.63244 1.34626C5.99349 1.14326 6.45076 1.27139 6.65376 1.63245L12 11.1414L17.3462 1.63245ZM5 21.25C5.83538 21.25 6.56442 20.7948 6.95257 20.1188L6.97252 20.0833C7.14938 19.762 7.25 19.3927 7.25 19C7.25 17.7574 6.24264 16.75 5 16.75C3.75736 16.75 2.75 17.7574 2.75 19C2.75 20.2427 3.75736 21.25 5 21.25ZM19 21.25C18.1646 21.25 17.4356 20.7948 17.0474 20.1188L17.0275 20.0833C16.8506 19.762 16.75 19.3927 16.75 19C16.75 17.7574 17.7574 16.75 19 16.75C20.2426 16.75 21.25 17.7574 21.25 19C21.25 20.2427 20.2426 21.25 19 21.25Z" fill="black"/>
</svg>
