<svg width="24" height="24" viewBox="0 0 24 24" fill="none" xmlns="http://www.w3.org/2000/svg">
<path fill-rule="evenodd" clip-rule="evenodd" d="M5.11677 7.75164C5.53007 7.72409 5.88744 8.03679 5.915 8.45009L6.37494 15.3492C6.4648 16.6971 6.52882 17.6349 6.66939 18.3405C6.80574 19.0249 6.99607 19.3872 7.26949 19.643C7.5429 19.8988 7.91706 20.0646 8.60906 20.1552C9.32246 20.2485 10.2625 20.25 11.6133 20.25H12.3867C13.7375 20.25 14.6775 20.2485 15.3909 20.1552C16.0829 20.0646 16.4571 19.8988 16.7305 19.643C17.0039 19.3872 17.1942 19.0249 17.3306 18.3405C17.4712 17.6349 17.5352 16.6971 17.625 15.3492L18.085 8.45009C18.1125 8.03679 18.4699 7.72409 18.8832 7.75164C19.2965 7.77919 19.6092 8.13657 19.5817 8.54987L19.1182 15.5016C19.0327 16.7844 18.9637 17.8205 18.8017 18.6336C18.6333 19.4789 18.3469 20.1849 17.7553 20.7384C17.1637 21.2919 16.4401 21.5307 15.5855 21.6425C14.7634 21.75 13.725 21.75 12.4394 21.75H11.5606C10.275 21.75 9.23654 21.75 8.41451 21.6425C7.55985 21.5307 6.83631 21.2919 6.24471 20.7384C5.65312 20.1849 5.3667 19.4789 5.1983 18.6336C5.03632 17.8205 4.96727 16.7843 4.88177 15.5016L4.41832 8.54987C4.39077 8.13657 4.70347 7.77919 5.11677 7.75164Z" fill="black"/>
<path fill-rule="evenodd" clip-rule="evenodd" d="M10.3553 2.24998L10.3093 2.24996C10.0929 2.24982 9.90436 2.2497 9.72634 2.27813C9.02304 2.39043 8.41444 2.82909 8.08549 3.46078C8.00223 3.62067 7.94272 3.79957 7.87443 4.0049L7.85991 4.04852L7.76282 4.33978C7.74383 4.39675 7.73854 4.41245 7.73393 4.42518C7.55881 4.90929 7.10479 5.23653 6.59014 5.24958C6.57661 5.24992 6.56004 5.24998 6.49999 5.24998H3.49991C3.08569 5.24998 2.74991 5.58576 2.74991 5.99998C2.74991 6.41419 3.08569 6.74998 3.49991 6.74998L6.50856 6.74998L6.5253 6.74998H17.4747L17.4914 6.74998L20.5 6.74998C20.9142 6.74998 21.25 6.41419 21.25 5.99998C21.25 5.58576 20.9142 5.24998 20.5 5.24998H17.5C17.4399 5.24998 17.4234 5.24992 17.4098 5.24958C16.8952 5.23653 16.4412 4.90927 16.266 4.42516C16.2615 4.41252 16.2561 4.39647 16.2372 4.33978L16.1401 4.04852L16.1256 4.00488C16.0573 3.79955 15.9978 3.62067 15.9145 3.46078C15.5855 2.82909 14.9769 2.39043 14.2736 2.27813C14.0956 2.2497 13.9071 2.24982 13.6907 2.24996L13.6447 2.24998H10.3553ZM9.14448 4.93542C9.10521 5.04398 9.05957 5.14895 9.00806 5.24998H14.9919C14.9404 5.14896 14.8948 5.04399 14.8555 4.93544L14.8168 4.8221L14.7171 4.52286C14.6259 4.24934 14.6049 4.19357 14.5841 4.15358C14.4744 3.94301 14.2716 3.7968 14.0371 3.75936C13.9926 3.75225 13.933 3.74998 13.6447 3.74998H10.3553C10.0669 3.74998 10.0074 3.75225 9.96287 3.75936C9.72843 3.7968 9.52557 3.94301 9.41592 4.15358C9.39509 4.19357 9.3741 4.24935 9.28293 4.52286L9.18313 4.82228C9.1681 4.86736 9.15641 4.90245 9.14448 4.93542Z" fill="black"/>
</svg>
