<svg width="24" height="24" viewBox="0 0 24 24" fill="none" xmlns="http://www.w3.org/2000/svg">
<path d="M15.75 11C15.75 10.5858 15.4142 10.25 15 10.25C14.5858 10.25 14.25 10.5858 14.25 11V13C14.25 13.4142 14.5858 13.75 15 13.75C15.4142 13.75 15.75 13.4142 15.75 13V11Z" fill="black"/>
<path fill-rule="evenodd" clip-rule="evenodd" d="M15.0253 1.25H14.9748C14.5303 1.24999 14.1592 1.24999 13.8546 1.27077C13.5375 1.29241 13.238 1.33905 12.9476 1.45933C12.5282 1.63307 12.1624 1.9061 11.8787 2.25L4.97475 2.25C4.53029 2.24999 4.15925 2.24999 3.85464 2.27077C3.53754 2.29241 3.23801 2.33905 2.94762 2.45933C2.27379 2.73844 1.73844 3.27379 1.45933 3.94762C1.33905 4.23801 1.29241 4.53754 1.27077 4.85464C1.24999 5.15925 1.24999 5.53029 1.25 5.97475V6.02525C1.24999 6.46971 1.24999 6.84075 1.27077 7.14537C1.29241 7.46247 1.33905 7.76199 1.45933 8.05238C1.60924 8.41428 1.83305 8.73623 2.11254 9C1.83305 9.26377 1.60924 9.58572 1.45933 9.94762C1.33905 10.238 1.29241 10.5375 1.27077 10.8546C1.24999 11.1592 1.24999 11.5303 1.25 11.9748V12.0253C1.24999 12.4697 1.24999 12.8408 1.27077 13.1454C1.29241 13.4625 1.33905 13.762 1.45933 14.0524C1.60924 14.4143 1.83305 14.7362 2.11254 15C1.83305 15.2638 1.60924 15.5857 1.45933 15.9476C1.33905 16.238 1.29241 16.5375 1.27077 16.8546C1.24999 17.1592 1.24999 17.5303 1.25 17.9748V18.0253C1.24999 18.4697 1.24999 18.8408 1.27077 19.1454C1.29241 19.4625 1.33905 19.762 1.45933 20.0524C1.73844 20.7262 2.27379 21.2616 2.94762 21.5407C3.23801 21.661 3.53754 21.7076 3.85464 21.7292C4.15925 21.75 4.53028 21.75 4.97474 21.75H11.8787C12.1624 22.0939 12.5282 22.3669 12.9476 22.5407C13.238 22.661 13.5375 22.7076 13.8546 22.7292C14.1592 22.75 14.5303 22.75 14.9747 22.75H15.0253C15.4697 22.75 15.8408 22.75 16.1454 22.7292C16.4625 22.7076 16.762 22.661 17.0524 22.5407C17.4718 22.3669 17.8376 22.0939 18.1213 21.75H19.0253C19.4697 21.75 19.8408 21.75 20.1454 21.7292C20.4625 21.7076 20.762 21.661 21.0524 21.5407C21.7262 21.2616 22.2616 20.7262 22.5407 20.0524C22.661 19.762 22.7076 19.4625 22.7292 19.1454C22.75 18.8408 22.75 18.4697 22.75 18.0253V17.9747C22.75 17.5303 22.75 17.1592 22.7292 16.8546C22.7076 16.5375 22.661 16.238 22.5407 15.9476C22.3908 15.5857 22.1669 15.2638 21.8875 15C22.1669 14.7362 22.3908 14.4143 22.5407 14.0524C22.661 13.762 22.7076 13.4625 22.7292 13.1454C22.75 12.8408 22.75 12.4697 22.75 12.0253V11.9747C22.75 11.5303 22.75 11.1592 22.7292 10.8546C22.7076 10.5375 22.661 10.238 22.5407 9.94762C22.3908 9.58572 22.1669 9.26377 21.8875 9C22.1669 8.73624 22.3908 8.41428 22.5407 8.05238C22.661 7.76199 22.7076 7.46247 22.7292 7.14537C22.75 6.84075 22.75 6.46972 22.75 6.02526V5.97474C22.75 5.53028 22.75 5.15925 22.7292 4.85464C22.7076 4.53754 22.661 4.23801 22.5407 3.94762C22.2616 3.27379 21.7262 2.73844 21.0524 2.45933C20.762 2.33905 20.4625 2.29241 20.1454 2.27077C19.8408 2.24999 19.4697 2.24999 19.0253 2.25L18.1213 2.25C17.8376 1.9061 17.4718 1.63307 17.0524 1.45933C16.762 1.33905 16.4625 1.29241 16.1454 1.27077C15.8408 1.24999 15.4697 1.24999 15.0253 1.25ZM5 3.75H11.2789C11.2759 3.78467 11.2732 3.81955 11.2708 3.85464C11.25 4.15925 11.25 4.53028 11.25 4.97474V8.25H5C4.5238 8.25 4.20421 8.24959 3.95674 8.23271C3.71602 8.21629 3.5988 8.18681 3.52165 8.15485C3.21536 8.02798 2.97202 7.78464 2.84515 7.47836C2.81319 7.4012 2.78372 7.28399 2.76729 7.04326C2.75041 6.7958 2.75 6.4762 2.75 6C2.75 5.5238 2.75041 5.20421 2.76729 4.95674C2.78372 4.71602 2.81319 4.5988 2.84515 4.52165C2.97202 4.21536 3.21536 3.97202 3.52165 3.84515C3.5988 3.81319 3.71602 3.78372 3.95674 3.76729C4.20421 3.75041 4.5238 3.75 5 3.75ZM5 9.75H11.25V14.25H5C4.5238 14.25 4.20421 14.2496 3.95674 14.2327C3.71602 14.2163 3.5988 14.1868 3.52165 14.1549C3.21536 14.028 2.97202 13.7846 2.84515 13.4784C2.81319 13.4012 2.78372 13.284 2.76729 13.0433C2.75041 12.7958 2.75 12.4762 2.75 12C2.75 11.5238 2.75041 11.2042 2.76729 10.9567C2.78372 10.716 2.81319 10.5988 2.84515 10.5216C2.97202 10.2154 3.21536 9.97202 3.52165 9.84515C3.5988 9.81319 3.71602 9.78372 3.95674 9.76729C4.20421 9.75041 4.5238 9.75 5 9.75ZM5 15.75H11.25L11.25 19.0253C11.25 19.4697 11.25 19.8408 11.2708 20.1454C11.2732 20.1805 11.2759 20.2153 11.2789 20.25H5C4.5238 20.25 4.20421 20.2496 3.95674 20.2327C3.71602 20.2163 3.5988 20.1868 3.52165 20.1549C3.21536 20.028 2.97202 19.7846 2.84515 19.4784C2.81319 19.4012 2.78372 19.284 2.76729 19.0433C2.75041 18.7958 2.75 18.4762 2.75 18C2.75 17.5238 2.75041 17.2042 2.76729 16.9567C2.78372 16.716 2.81319 16.5988 2.84515 16.5216C2.97202 16.2154 3.21536 15.972 3.52165 15.8452C3.5988 15.8132 3.71602 15.7837 3.95674 15.7673C4.20421 15.7504 4.5238 15.75 5 15.75ZM19 20.25H18.7211C18.7241 20.2153 18.7268 20.1805 18.7292 20.1454C18.75 19.8407 18.75 19.4697 18.75 19.0251V15.75H19C19.4762 15.75 19.7958 15.7504 20.0433 15.7673C20.284 15.7837 20.4012 15.8132 20.4784 15.8452C20.7846 15.972 21.028 16.2154 21.1549 16.5216C21.1868 16.5988 21.2163 16.716 21.2327 16.9567C21.2496 17.2042 21.25 17.5238 21.25 18C21.25 18.4762 21.2496 18.7958 21.2327 19.0433C21.2163 19.284 21.1868 19.4012 21.1549 19.4784C21.028 19.7846 20.7846 20.028 20.4784 20.1549C20.4012 20.1868 20.284 20.2163 20.0433 20.2327C19.7958 20.2496 19.4762 20.25 19 20.25ZM19 14.25H18.75L18.75 9.75H19C19.4762 9.75 19.7958 9.75041 20.0433 9.76729C20.284 9.78372 20.4012 9.81319 20.4784 9.84515C20.7846 9.97202 21.028 10.2154 21.1549 10.5216C21.1868 10.5988 21.2163 10.716 21.2327 10.9567C21.2496 11.2042 21.25 11.5238 21.25 12C21.25 12.4762 21.2496 12.7958 21.2327 13.0433C21.2163 13.284 21.1868 13.4012 21.1549 13.4784C21.028 13.7846 20.7846 14.028 20.4784 14.1549C20.4012 14.1868 20.284 14.2163 20.0433 14.2327C19.7958 14.2496 19.4762 14.25 19 14.25ZM19 8.25H18.75V4.97474C18.75 4.53028 18.75 4.15925 18.7292 3.85464C18.7268 3.81955 18.7241 3.78467 18.7211 3.75H19C19.4762 3.75 19.7958 3.75041 20.0433 3.76729C20.284 3.78372 20.4012 3.81319 20.4784 3.84515C20.7846 3.97202 21.028 4.21536 21.1549 4.52165C21.1868 4.5988 21.2163 4.71602 21.2327 4.95674C21.2496 5.20421 21.25 5.5238 21.25 6C21.25 6.4762 21.2496 6.7958 21.2327 7.04326C21.2163 7.28399 21.1868 7.4012 21.1549 7.47836C21.028 7.78464 20.7846 8.02798 20.4784 8.15485C20.4012 8.18681 20.284 8.21629 20.0433 8.23271C19.7958 8.24959 19.4762 8.25 19 8.25ZM16.4784 21.1549C16.7339 21.049 16.9457 20.862 17.0825 20.625C17.1096 20.578 17.1338 20.5291 17.1548 20.4784C17.1868 20.4012 17.2163 20.284 17.2327 20.0433C17.2496 19.7958 17.25 19.4762 17.25 19V5C17.25 4.5238 17.2496 4.20421 17.2327 3.95674C17.2163 3.71602 17.1868 3.5988 17.1549 3.52165C17.1338 3.47092 17.1097 3.42196 17.0825 3.37499C16.9457 3.138 16.7339 2.95101 16.4784 2.84515C16.4012 2.81319 16.284 2.78372 16.0433 2.76729C15.7958 2.75041 15.4762 2.75 15 2.75C14.5238 2.75 14.2042 2.75041 13.9567 2.76729C13.716 2.78372 13.5988 2.81319 13.5216 2.84515C13.2661 2.95101 13.0543 3.138 12.9175 3.37499C12.8903 3.42196 12.8662 3.47092 12.8452 3.52165C12.8132 3.5988 12.7837 3.71602 12.7673 3.95674C12.7504 4.20421 12.75 4.5238 12.75 5L12.75 19C12.75 19.4762 12.7504 19.7958 12.7673 20.0433C12.7837 20.284 12.8132 20.4012 12.8452 20.4784C12.8662 20.5291 12.8903 20.578 12.9175 20.625C13.0543 20.862 13.2661 21.049 13.5216 21.1549C13.5988 21.1868 13.716 21.2163 13.9567 21.2327C14.2042 21.2496 14.5238 21.25 15 21.25C15.4762 21.25 15.7958 21.2496 16.0433 21.2327C16.284 21.2163 16.4012 21.1868 16.4784 21.1549Z" fill="black"/>
</svg>
