<svg width="24" height="24" viewBox="0 0 24 24" fill="none" xmlns="http://www.w3.org/2000/svg">
<path opacity="0.5" d="M17 8V6C17 4.11438 17 3.17157 16.4142 2.58579C15.8284 2 14.8856 2 13 2H11C9.11438 2 8.17157 2 7.58579 2.58579C7 3.17157 7 4.11438 7 6V8" stroke="black" stroke-width="1.5"/>
<path d="M10.5638 5.78311C11.4591 5.29495 12.541 5.29495 13.4362 5.78311L18.2305 8.39728C19.1944 8.92292 19.7943 9.93319 19.7943 11.0312V15.9688C19.7943 17.0668 19.1944 18.0771 18.2305 18.6027L13.4362 21.2169C12.541 21.705 11.4591 21.705 10.5638 21.2169L5.76962 18.6027C4.80563 18.0771 4.20581 17.0668 4.20581 15.9688V11.0312C4.20581 9.93318 4.80563 8.92292 5.76962 8.39728L10.5638 5.78311Z" stroke="black" stroke-width="1.5"/>
<path opacity="0.5" d="M11.1459 11.5225C11.5259 10.8408 11.7159 10.5 12 10.5C12.2841 10.5 12.4741 10.8408 12.8541 11.5225L12.9524 11.6989C13.0603 11.8926 13.1143 11.9894 13.1985 12.0533C13.2827 12.1172 13.3875 12.141 13.5972 12.1884L13.7881 12.2316C14.526 12.3986 14.895 12.482 14.9828 12.7643C15.0706 13.0466 14.819 13.3407 14.316 13.929L14.1858 14.0812C14.0429 14.2483 13.9714 14.3319 13.9392 14.4353C13.9071 14.5387 13.9179 14.6502 13.9395 14.8733L13.9592 15.0763C14.0352 15.8612 14.0733 16.2536 13.8435 16.4281C13.6136 16.6025 13.2682 16.4435 12.5773 16.1254L12.3986 16.0431C12.2022 15.9527 12.1041 15.9075 12 15.9075C11.8959 15.9075 11.7978 15.9527 11.6014 16.0431L11.4227 16.1254C10.7318 16.4435 10.3864 16.6025 10.1565 16.4281C9.92674 16.2536 9.96476 15.8612 10.0408 15.0763L10.0605 14.8733C10.0821 14.6502 10.0929 14.5387 10.0608 14.4353C10.0286 14.3319 9.95713 14.2483 9.81418 14.0812L9.68403 13.929C9.18097 13.3407 8.92945 13.0466 9.01723 12.7643C9.10501 12.482 9.47396 12.3986 10.2119 12.2316L10.4028 12.1884C10.6125 12.141 10.7173 12.1172 10.8015 12.0533C10.8857 11.9894 10.9397 11.8926 11.0476 11.6989L11.1459 11.5225Z" stroke="black" stroke-width="1.5"/>
</svg>
