<svg width="24" height="24" viewBox="0 0 24 24" fill="none" xmlns="http://www.w3.org/2000/svg">
<path fill-rule="evenodd" clip-rule="evenodd" d="M10.422 3.1787L7.38587 1.35699C7.03069 1.14388 6.56999 1.25906 6.35688 1.61424C6.14377 1.96943 6.25894 2.43012 6.61413 2.64323L8.63912 3.85823C7.33296 4.57449 6.28013 5.69528 5.64925 7.05199L3.77867 6.30376C3.39408 6.14992 2.9576 6.33698 2.80376 6.72157C2.64993 7.10616 2.83699 7.54264 3.22158 7.69647L5.16673 8.47453C5.05757 8.96563 5 9.47615 5 10.0001V12.2501H2C1.58579 12.2501 1.25 12.5859 1.25 13.0001C1.25 13.4143 1.58579 13.7501 2 13.7501H5V15.0001C5 15.8509 5.15179 16.6663 5.42978 17.4206L3.22146 18.304C2.83687 18.4578 2.64981 18.8943 2.80364 19.2789C2.95748 19.6634 3.39396 19.8505 3.77854 19.6967L6.09969 18.7682C7.34348 20.7118 9.52129 22.0001 12 22.0001C14.4787 22.0001 16.6565 20.7118 17.9003 18.7682L20.2215 19.6967C20.606 19.8505 21.0425 19.6634 21.1964 19.2789C21.3502 18.8943 21.1631 18.4578 20.7785 18.304L18.5702 17.4206C18.8482 16.6663 19 15.8509 19 15.0001V13.7501H22C22.4142 13.7501 22.75 13.4143 22.75 13.0001C22.75 12.5859 22.4142 12.2501 22 12.2501H19V10.0001C19 9.47616 18.9424 8.96565 18.8333 8.47457L20.7784 7.69647C21.163 7.54262 21.3501 7.10614 21.1962 6.72156C21.0424 6.33697 20.6059 6.14992 20.2213 6.30376L18.3508 7.05202C17.7199 5.6953 16.6671 4.57449 15.3609 3.85823L17.3859 2.64323C17.7411 2.43012 17.8562 1.96943 17.6431 1.61424C17.43 1.25906 16.9693 1.14388 16.6141 1.35699L13.578 3.1787C13.0708 3.06186 12.5426 3.00012 12 3.00012C11.4574 3.00012 10.9292 3.06186 10.422 3.1787ZM10.5 9.75012C10.0858 9.75012 9.75 10.0859 9.75 10.5001C9.75 10.9143 10.0858 11.2501 10.5 11.2501H13.5C13.9142 11.2501 14.25 10.9143 14.25 10.5001C14.25 10.0859 13.9142 9.75012 13.5 9.75012H10.5ZM9.75 15.5001C9.75 15.0859 10.0858 14.7501 10.5 14.7501H13.5C13.9142 14.7501 14.25 15.0859 14.25 15.5001C14.25 15.9143 13.9142 16.2501 13.5 16.2501H10.5C10.0858 16.2501 9.75 15.9143 9.75 15.5001Z" fill="black"/>
</svg>
