<svg width="24" height="24" viewBox="0 0 24 24" fill="none" xmlns="http://www.w3.org/2000/svg">
<path fill-rule="evenodd" clip-rule="evenodd" d="M3.46447 3.46447C2 4.92893 2 7.28595 2 12C2 16.714 2 19.0711 3.46447 20.5355C4.92893 22 7.28595 22 12 22C16.714 22 19.0711 22 20.5355 20.5355C22 19.0711 22 16.714 22 12C22 7.28595 22 4.92893 20.5355 3.46447C19.0711 2 16.714 2 12 2C7.28595 2 4.92893 2 3.46447 3.46447ZM6.42385 9.51988C6.68903 9.20167 7.16195 9.15868 7.48016 9.42385L7.75658 9.6542C8.36153 10.1583 8.87653 10.5874 9.23295 10.9821C9.61151 11.4013 9.90694 11.8834 9.90694 12.5C9.90694 13.1166 9.61151 13.5987 9.23295 14.0179C8.87653 14.4126 8.36153 14.8418 7.75658 15.3458L7.48016 15.5762C7.16195 15.8414 6.68903 15.7984 6.42385 15.4802C6.15868 15.1619 6.20167 14.689 6.51988 14.4239L6.75428 14.2285C7.41285 13.6797 7.84348 13.3185 8.11968 13.0126C8.38196 12.7222 8.40694 12.586 8.40694 12.5C8.40694 12.414 8.38196 12.2779 8.11968 11.9874C7.84348 11.6815 7.41285 11.3203 6.75429 10.7715L6.51988 10.5762C6.20167 10.311 6.15868 9.83809 6.42385 9.51988ZM17.75 15C17.75 15.4142 17.4142 15.75 17 15.75H12C11.5858 15.75 11.25 15.4142 11.25 15C11.25 14.5858 11.5858 14.25 12 14.25H17C17.4142 14.25 17.75 14.5858 17.75 15Z" fill="black"/>
</svg>
