<svg width="24" height="24" viewBox="0 0 24 24" fill="none" xmlns="http://www.w3.org/2000/svg">
<path fill-rule="evenodd" clip-rule="evenodd" d="M12 22C17.5228 22 22 17.5228 22 12C22 6.47715 17.5228 2 12 2C6.47715 2 2 6.47715 2 12C2 17.5228 6.47715 22 12 22ZM13.5303 6.46967L12.5303 5.46967C12.2374 5.17678 11.7626 5.17678 11.4697 5.46967L10.4697 6.46967C10.1768 6.76256 10.1768 7.23744 10.4697 7.53033C10.6807 7.74135 10.9862 7.80034 11.25 7.70729V12.7415C11.1787 12.7115 11.1055 12.6847 11.0306 12.6613L9.62716 12.2227C9.10531 12.0596 8.75 11.5763 8.75 11.0296V10.5816C9.34124 10.3007 9.75 9.6981 9.75 9C9.75 8.0335 8.9665 7.25 8 7.25C7.0335 7.25 6.25 8.0335 6.25 9C6.25 9.6981 6.65876 10.3007 7.25 10.5816V11.0296C7.25 12.2324 8.03169 13.2957 9.17974 13.6544L10.5832 14.093C10.9799 14.217 11.25 14.5844 11.25 15V15.4184C10.6588 15.6993 10.25 16.3019 10.25 17C10.25 17.9665 11.0335 18.75 12 18.75C12.9665 18.75 13.75 17.9665 13.75 17C13.75 16.3605 13.4069 15.8011 12.8948 15.4958C13.0124 15.3081 13.1948 15.1624 13.4168 15.093L14.8203 14.6544C15.9683 14.2957 16.75 13.2324 16.75 12.0296V11.7084C16.9502 11.6695 17.1831 11.5847 17.3839 11.3839C17.6197 11.1481 17.6955 10.8679 17.725 10.6486C17.7502 10.4614 17.7501 10.2396 17.75 10.0345V9.96555C17.7501 9.76045 17.7502 9.53864 17.725 9.35143C17.6955 9.1321 17.6197 8.85192 17.3839 8.61612C17.1481 8.38032 16.8679 8.30448 16.6486 8.27499C16.4614 8.24982 16.2396 8.24991 16.0345 8.24999H15.9656C15.7604 8.24991 15.5386 8.24982 15.3514 8.27499C15.1321 8.30448 14.8519 8.38032 14.6161 8.61612C14.3803 8.85192 14.3045 9.1321 14.275 9.35143C14.2498 9.53864 14.2499 9.76042 14.25 9.96553V10.0344C14.2499 10.2396 14.2498 10.4614 14.275 10.6486C14.3045 10.8679 14.3803 11.1481 14.6161 11.3839C14.8169 11.5847 15.0498 11.6695 15.25 11.7084V12.0296C15.25 12.5763 14.8947 13.0596 14.3728 13.2227L12.9694 13.6613C12.8945 13.6847 12.8213 13.7115 12.75 13.7415V7.70729C13.0138 7.80034 13.3193 7.74135 13.5303 7.53033C13.8232 7.23744 13.8232 6.76256 13.5303 6.46967Z" fill="black"/>
</svg>
