<svg width="24" height="24" viewBox="0 0 24 24" fill="none" xmlns="http://www.w3.org/2000/svg">
<path d="M12.75 21C16.3552 20.9994 18.183 20.9738 19.3284 19.8284C20.5 18.6569 20.5 16.7713 20.5 13V6.99805C20.3548 7.00008 20.1509 7.00005 20 7.00002H4C3.84905 7.00005 3.6452 7.00008 3.5 6.99805V13C3.5 16.7713 3.5 18.6569 4.67157 19.8284C5.81697 20.9738 7.64485 20.9994 11.25 21L11.25 13.9545L9.55748 15.8351C9.28038 16.1429 8.80617 16.1679 8.49828 15.8908C8.1904 15.6137 8.16544 15.1395 8.44254 14.8316L11.4425 11.4983C11.5848 11.3402 11.7874 11.25 12 11.25C12.2126 11.25 12.4152 11.3402 12.5575 11.4983L15.5575 14.8316C15.8346 15.1395 15.8096 15.6137 15.5017 15.8908C15.1938 16.1679 14.7196 16.1429 14.4425 15.8351L12.75 13.9545L12.75 21Z" fill="black"/>
<path opacity="0.5" d="M2 5C2 4.05719 2 3.58579 2.29289 3.29289C2.58579 3 3.05719 3 4 3H20C20.9428 3 21.4142 3 21.7071 3.29289C22 3.58579 22 4.05719 22 5C22 5.94281 22 6.41421 21.7071 6.70711C21.4142 7 20.9428 7 20 7H4C3.05719 7 2.58579 7 2.29289 6.70711C2 6.41421 2 5.94281 2 5Z" fill="black"/>
</svg>
