<svg width="24" height="24" viewBox="0 0 24 24" fill="none" xmlns="http://www.w3.org/2000/svg">
<path d="M12.5575 17.5017C12.4152 17.6598 12.2126 17.75 12 17.75C11.7874 17.75 11.5848 17.6598 11.4425 17.5017L8.44254 14.1684C8.16544 13.8605 8.1904 13.3863 8.49828 13.1092C8.80617 12.8321 9.28038 12.8571 9.55748 13.1649L11.25 15.0455L11.25 7.00002H4C3.84905 7.00005 3.6452 7.00008 3.5 6.99805V13C3.5 16.7713 3.5 18.6569 4.67157 19.8284C5.84315 21 7.72876 21 11.5 21H12.5C16.2712 21 18.1569 21 19.3284 19.8284C20.5 18.6569 20.5 16.7713 20.5 13V6.99805C20.3548 7.00008 20.1509 7.00005 20 7.00002H12.75L12.75 15.0455L14.4425 13.1649C14.7196 12.8571 15.1938 12.8321 15.5017 13.1092C15.8096 13.3863 15.8346 13.8605 15.5575 14.1684L12.5575 17.5017Z" fill="black"/>
<path opacity="0.5" d="M2 5C2 4.05719 2 3.58579 2.29289 3.29289C2.58579 3 3.05719 3 4 3H20C20.9428 3 21.4142 3 21.7071 3.29289C22 3.58579 22 4.05719 22 5C22 5.94281 22 6.41421 21.7071 6.70711C21.4142 7 20.9428 7 20 7H4C3.05719 7 2.58579 7 2.29289 6.70711C2 6.41421 2 5.94281 2 5Z" fill="black"/>
</svg>
