<svg width="24" height="24" viewBox="0 0 24 24" fill="none" xmlns="http://www.w3.org/2000/svg">
<path opacity="0.5" d="M11.9993 2C16.7133 2 19.0704 2 20.5348 3.46447C21.2923 4.22195 21.658 5.21824 21.8345 6.65598V10H2.16406V6.65598C2.3406 5.21824 2.70628 4.22195 3.46377 3.46447C4.92823 2 7.28525 2 11.9993 2Z" fill="black"/>
<path fill-rule="evenodd" clip-rule="evenodd" d="M2 14C2 11.1997 2 9.79961 2.54497 8.73005C3.02433 7.78924 3.78924 7.02433 4.73005 6.54497C5.79961 6 7.19974 6 10 6H14C16.8003 6 18.2004 6 19.27 6.54497C20.2108 7.02433 20.9757 7.78924 21.455 8.73005C22 9.79961 22 11.1997 22 14C22 16.8003 22 18.2004 21.455 19.27C20.9757 20.2108 20.2108 20.9757 19.27 21.455C18.2004 22 16.8003 22 14 22H10C7.19974 22 5.79961 22 4.73005 21.455C3.78924 20.9757 3.02433 20.2108 2.54497 19.27C2 18.2004 2 16.8003 2 14ZM12.75 11C12.75 10.5858 12.4142 10.25 12 10.25C11.5858 10.25 11.25 10.5858 11.25 11V15.1893L10.0303 13.9697C9.73744 13.6768 9.26256 13.6768 8.96967 13.9697C8.67678 14.2626 8.67678 14.7374 8.96967 15.0303L11.4697 17.5303C11.6103 17.671 11.8011 17.75 12 17.75C12.1989 17.75 12.3897 17.671 12.5303 17.5303L15.0303 15.0303C15.3232 14.7374 15.3232 14.2626 15.0303 13.9697C14.7374 13.6768 14.2626 13.6768 13.9697 13.9697L12.75 15.1893V11Z" fill="black"/>
</svg>
