<svg width="24" height="24" viewBox="0 0 24 24" fill="none" xmlns="http://www.w3.org/2000/svg">
<path opacity="0.5" d="M21 15.9983V9.99826C21 7.16983 21 5.75562 20.1213 4.87694C19.3529 4.10856 18.175 4.01211 16 4H8C5.82497 4.01211 4.64706 4.10856 3.87868 4.87694C3 5.75562 3 7.16983 3 9.99826V15.9983C3 18.8267 3 20.2409 3.87868 21.1196C4.75736 21.9983 6.17157 21.9983 9 21.9983H15C17.8284 21.9983 19.2426 21.9983 20.1213 21.1196C21 20.2409 21 18.8267 21 15.9983Z" fill="black"/>
<path d="M8 3.5C8 2.67157 8.67157 2 9.5 2H14.5C15.3284 2 16 2.67157 16 3.5V4.5C16 5.32843 15.3284 6 14.5 6H9.5C8.67157 6 8 5.32843 8 4.5V3.5Z" fill="black"/>
<path fill-rule="evenodd" clip-rule="evenodd" d="M15.5483 10.4883C15.8309 10.7911 15.8146 11.2657 15.5117 11.5483L11.226 15.5483C10.9379 15.8172 10.4907 15.8172 10.2025 15.5483L8.48826 13.9483C8.18545 13.6657 8.16909 13.1911 8.45171 12.8883C8.73434 12.5855 9.20893 12.5691 9.51174 12.8517L10.7143 13.9741L14.4883 10.4517C14.7911 10.1691 15.2657 10.1855 15.5483 10.4883Z" fill="black"/>
</svg>
