<svg width="24" height="24" viewBox="0 0 24 24" fill="none" xmlns="http://www.w3.org/2000/svg">
<path fill-rule="evenodd" clip-rule="evenodd" d="M5.87868 2.87868C5 3.75736 5 5.17157 5 8V16C5 18.8284 5 20.2426 5.87868 21.1213C6.75736 22 8.17157 22 11 22H13C15.8284 22 17.2426 22 18.1213 21.1213C19 20.2426 19 18.8284 19 16V8C19 5.17157 19 3.75736 18.1213 2.87868C17.2426 2 15.8284 2 13 2H11C8.17157 2 6.75736 2 5.87868 2.87868ZM8.25 17C8.25 16.5858 8.58579 16.25 9 16.25H12C12.4142 16.25 12.75 16.5858 12.75 17C12.75 17.4142 12.4142 17.75 12 17.75H9C8.58579 17.75 8.25 17.4142 8.25 17ZM9 12.25C8.58579 12.25 8.25 12.5858 8.25 13C8.25 13.4142 8.58579 13.75 9 13.75H15C15.4142 13.75 15.75 13.4142 15.75 13C15.75 12.5858 15.4142 12.25 15 12.25H9ZM8.25 9C8.25 8.58579 8.58579 8.25 9 8.25H15C15.4142 8.25 15.75 8.58579 15.75 9C15.75 9.41421 15.4142 9.75 15 9.75H9C8.58579 9.75 8.25 9.41421 8.25 9Z" fill="black"/>
<path opacity="0.5" d="M5.23525 4.05859C5 4.94188 5 6.17738 5 8.00034V16.0003C5 17.8234 5 19.0589 5.23527 19.9422L5 19.9243C4.02491 19.8284 3.36857 19.6116 2.87868 19.1217C2 18.243 2 16.8288 2 14.0004V10.0004C2 7.17197 2 5.75775 2.87868 4.87907C3.36857 4.38919 4.02491 4.17242 5 4.07651L5.23525 4.05859Z" fill="black"/>
<path opacity="0.5" d="M18.7646 19.9422C18.9999 19.0589 18.9999 17.8234 18.9999 16.0003V8.00034C18.9999 6.17738 18.9999 4.94188 18.7647 4.05859L18.9999 4.07651C19.975 4.17242 20.6314 4.38919 21.1212 4.87907C21.9999 5.75775 21.9999 7.17197 21.9999 10.0004V14.0004C21.9999 16.8288 21.9999 18.243 21.1212 19.1217C20.6314 19.6116 19.975 19.8284 18.9999 19.9243L18.7646 19.9422Z" fill="black"/>
</svg>
