<svg width="24" height="24" viewBox="0 0 24 24" fill="none" xmlns="http://www.w3.org/2000/svg">
<path d="M22 12C22 15.7712 22 17.6569 20.7961 18.8284C19.5921 20 17.6544 20 13.779 20H11.142C8.91458 20 7.80085 20 6.87114 19.4986C5.94144 18.9971 5.35117 18.0781 4.17061 16.24L3.48981 15.18C2.4966 13.6336 2 12.8604 2 12C2 11.1396 2.4966 10.3664 3.48981 8.82001L4.17061 7.76001C5.35117 5.92191 5.94144 5.00286 6.87114 4.50143C7.80085 4 8.91458 4 11.142 4L13.779 4C17.6544 4 19.5921 4 20.7961 5.17157C21.4673 5.82475 21.7643 6.69989 21.8957 8" stroke="black" stroke-width="1.5" stroke-linecap="round"/>
<path d="M15.5 9.50002L10.5 14.5M10.5 9.5L15.5 14.5" stroke="black" stroke-width="1.5" stroke-linecap="round"/>
</svg>
