<svg width="24" height="24" viewBox="0 0 24 24" fill="none" xmlns="http://www.w3.org/2000/svg">
<path d="M8 7.52174C8 6.68131 8.68131 6 9.52174 6H12C13.6569 6 15 7.34315 15 9C15 10.6569 13.6569 12 12 12H8V7.52174Z" stroke="black" stroke-width="1.5"/>
<path d="M8 12H13C14.6569 12 16 13.3431 16 15C16 16.6569 14.6569 18 13 18H9.17647C8.52672 18 8 17.4733 8 16.8235V12Z" stroke="black" stroke-width="1.5"/>
<path d="M7 3.33782C8.47087 2.48697 10.1786 2 12 2C17.5228 2 22 6.47715 22 12C22 17.5228 17.5228 22 12 22C6.47715 22 2 17.5228 2 12C2 10.1786 2.48697 8.47087 3.33782 7" stroke="black" stroke-width="1.5" stroke-linecap="round"/>
</svg>
