<svg width="24" height="24" viewBox="0 0 24 24" fill="none" xmlns="http://www.w3.org/2000/svg">
<path d="M15.25 9.22222C15.25 9.63644 15.5858 9.97222 16 9.97222C16.4142 9.97222 16.75 9.63644 16.75 9.22222H15.25ZM7.25 9.22222C7.25 9.63644 7.58579 9.97222 8 9.97222C8.41421 9.97222 8.75 9.63644 8.75 9.22222H7.25ZM11.25 9.5C11.25 9.91421 11.5858 10.25 12 10.25C12.4142 10.25 12.75 9.91421 12.75 9.5H11.25ZM11.25 17C11.25 17.4142 11.5858 17.75 12 17.75C12.4142 17.75 12.75 17.4142 12.75 17H11.25ZM12.75 14.5C12.75 14.0858 12.4142 13.75 12 13.75C11.5858 13.75 11.25 14.0858 11.25 14.5H12.75ZM15.7071 7.32544L15.1496 7.82716L15.1496 7.82716L15.7071 7.32544ZM9.5 16.25C9.08579 16.25 8.75 16.5858 8.75 17C8.75 17.4142 9.08579 17.75 9.5 17.75V16.25ZM14.5 17.75C14.9142 17.75 15.25 17.4142 15.25 17C15.25 16.5858 14.9142 16.25 14.5 16.25V17.75ZM8 11.25C7.58579 11.25 7.25 11.5858 7.25 12C7.25 12.4142 7.58579 12.75 8 12.75V11.25ZM16 12.75C16.4142 12.75 16.75 12.4142 16.75 12C16.75 11.5858 16.4142 11.25 16 11.25V12.75ZM10 7.75H12V6.25H10V7.75ZM12 7.75H14V6.25H12V7.75ZM12.75 9.5V7H11.25V9.5H12.75ZM12.75 17V14.5H11.25V17H12.75ZM14 7.75C14.4949 7.75 14.7824 7.75196 14.9865 7.78245C15.0783 7.79617 15.121 7.8118 15.1376 7.8194C15.148 7.82415 15.1477 7.82503 15.1496 7.82716L16.2646 6.82371C15.96 6.4853 15.579 6.35432 15.2081 6.29891C14.8676 6.24804 14.4479 6.25 14 6.25V7.75ZM16.75 9.22222C16.75 8.71757 16.7513 8.27109 16.708 7.91294C16.6629 7.54061 16.559 7.15082 16.2646 6.82371L15.1496 7.82716C15.1523 7.83015 15.1609 7.83939 15.1731 7.87221C15.1873 7.91048 15.2048 7.97725 15.2188 8.09313C15.2487 8.34011 15.25 8.67931 15.25 9.22222H16.75ZM10 6.25C9.55208 6.25 9.13244 6.24804 8.79192 6.29891C8.42102 6.35432 8.04 6.4853 7.73542 6.82371L8.85036 7.82716C8.85228 7.82503 8.85204 7.82415 8.86242 7.8194C8.87904 7.8118 8.92168 7.79617 9.01354 7.78245C9.21765 7.75196 9.50511 7.75 10 7.75V6.25ZM8.75 9.22222C8.75 8.67931 8.75129 8.34011 8.78118 8.09313C8.7952 7.97725 8.81273 7.91048 8.8269 7.87221C8.83905 7.83939 8.84767 7.83015 8.85036 7.82716L7.73542 6.82371C7.44103 7.15082 7.3371 7.54061 7.29204 7.91294C7.24871 8.27109 7.25 8.71757 7.25 9.22222H8.75ZM9.5 17.75H14.5V16.25H9.5V17.75ZM8 12.75H16V11.25H8V12.75Z" fill="black"/>
<path d="M22 12C22 16.714 22 19.0711 20.5355 20.5355C19.0711 22 16.714 22 12 22C7.28595 22 4.92893 22 3.46447 20.5355C2 19.0711 2 16.714 2 12C2 7.28595 2 4.92893 3.46447 3.46447C4.92893 2 7.28595 2 12 2C16.714 2 19.0711 2 20.5355 3.46447C21.5093 4.43821 21.8356 5.80655 21.9449 8" stroke="black" stroke-width="1.5" stroke-linecap="round"/>
</svg>
