<svg width="24" height="24" viewBox="0 0 24 24" fill="none" xmlns="http://www.w3.org/2000/svg">
<path d="M8.25 15.5C8.25 15.9142 8.58579 16.25 9 16.25C9.41421 16.25 9.75 15.9142 9.75 15.5H8.25ZM11.6643 8.75249L12.1624 8.19186L12.1624 8.19186L11.6643 8.75249ZM11.25 10.425C11.25 10.8392 11.5858 11.175 12 11.175C12.4142 11.175 12.75 10.8392 12.75 10.425H11.25ZM11.7475 8.83575L12.3081 8.33756L12.3081 8.33756L11.7475 8.83575ZM6.33575 8.75249L5.83756 8.19186L5.83756 8.19186L6.33575 8.75249ZM5.25 10.425C5.25 10.8392 5.58579 11.175 6 11.175C6.41421 11.175 6.75 10.8392 6.75 10.425H5.25ZM6.25249 8.83575L5.69186 8.33756L5.69186 8.33756L6.25249 8.83575ZM7 14.75C6.58579 14.75 6.25 15.0858 6.25 15.5C6.25 15.9142 6.58579 16.25 7 16.25V14.75ZM11 16.25C11.4142 16.25 11.75 15.9142 11.75 15.5C11.75 15.0858 11.4142 14.75 11 14.75V16.25ZM7.925 9.25H9V7.75H7.925V9.25ZM9 9.25H10.075V7.75H9V9.25ZM9.75 15.5V8.5H8.25V15.5H9.75ZM10.075 9.25C10.5295 9.25 10.8007 9.25137 10.9965 9.27579C11.1739 9.29792 11.1831 9.3283 11.1661 9.31312L12.1624 8.19186C11.8612 7.92419 11.5109 7.82832 11.1822 7.78733C10.8719 7.74863 10.4905 7.75 10.075 7.75V9.25ZM12.75 10.425C12.75 10.0095 12.7514 9.62806 12.7127 9.31782C12.6717 8.98915 12.5758 8.63878 12.3081 8.33756L11.1869 9.33394C11.1717 9.31686 11.2021 9.32608 11.2242 9.50348C11.2486 9.69931 11.25 9.97047 11.25 10.425H12.75ZM11.1661 9.31312C11.1734 9.31964 11.1804 9.32659 11.1869 9.33394L12.3081 8.33756C12.2625 8.28617 12.2138 8.23752 12.1624 8.19186L11.1661 9.31312ZM7.925 7.75C7.50946 7.75 7.12806 7.74863 6.81782 7.78733C6.48914 7.82832 6.13878 7.92419 5.83756 8.19186L6.83394 9.31312C6.81686 9.3283 6.82608 9.29792 7.00348 9.27579C7.19931 9.25137 7.47047 9.25 7.925 9.25V7.75ZM6.75 10.425C6.75 9.97047 6.75137 9.69931 6.77579 9.50348C6.79792 9.32608 6.8283 9.31686 6.81312 9.33394L5.69186 8.33756C5.42419 8.63878 5.32832 8.98915 5.28733 9.31782C5.24863 9.62806 5.25 10.0095 5.25 10.425H6.75ZM5.83756 8.19186C5.78617 8.23752 5.73752 8.28617 5.69186 8.33756L6.81312 9.33394C6.81965 9.3266 6.8266 9.31965 6.83394 9.31312L5.83756 8.19186ZM7 16.25H11V14.75H7V16.25Z" fill="black"/>
<path d="M22 12C22 15.7712 22 17.6569 20.8284 18.8284C19.7653 19.8915 18.1143 19.99 15 19.9991M12 4H10C6.22876 4 4.34315 4 3.17157 5.17157C2 6.34315 2 8.22876 2 12C2 15.7712 2 17.6569 3.17157 18.8284C4.34315 20 6.22876 20 10 20H12M15 4.00093C18.1143 4.01004 19.7653 4.10848 20.8284 5.17157C21.4816 5.82475 21.7706 6.69989 21.8985 8" stroke="black" stroke-width="1.5" stroke-linecap="round"/>
<path d="M15 2V22" stroke="black" stroke-width="1.5" stroke-linecap="round"/>
</svg>
