<svg width="24" height="24" viewBox="0 0 24 24" fill="none" xmlns="http://www.w3.org/2000/svg">
<path opacity="0.6" fill-rule="evenodd" clip-rule="evenodd" d="M3.46447 20.5356C4.92893 22.0001 7.28595 22.0001 12 22.0001C16.714 22.0001 19.0711 22.0001 20.5355 20.5356C22 19.0712 22 16.7142 22 12.0001C22 11.3318 22 10.7108 21.9958 10.1331C21.9938 9.85412 21.9928 9.71463 21.9394 9.49195C21.8861 9.26927 21.8562 9.20942 21.7964 9.08973C21.7932 9.08334 21.79 9.07698 21.7868 9.07065C21.3793 8.27096 20.7291 7.62079 19.9295 7.21333C19.518 7.0037 19.0103 6.88007 18.2229 6.81574C18.0734 6.80352 17.9161 6.79358 17.75 6.78548L16.25 6.75244V10.8077C16.25 11.3044 16.2497 11.6443 16.2351 11.8977C16.22 12.1602 16.1923 12.2409 16.1854 12.2564C16.0383 12.5877 15.6753 12.7663 15.323 12.6808C15.3066 12.6768 15.2257 12.6494 15.0085 12.5013C14.7989 12.3583 14.5294 12.1512 14.1358 11.8481L14.0688 11.7965C13.6986 11.5111 13.4101 11.2886 13.0958 11.1521C12.3968 10.8484 11.6032 10.8484 10.9042 11.1521C10.5899 11.2886 10.3014 11.5111 9.9312 11.7965L9.86419 11.8481C9.47062 12.1512 9.20112 12.3583 8.99148 12.5013C8.77428 12.6494 8.69342 12.6768 8.67695 12.6808C8.32471 12.7663 7.96171 12.5877 7.81457 12.2564C7.80769 12.2409 7.78003 12.1602 7.7649 11.8977C7.7503 11.6443 7.75 11.3044 7.75 10.8077V6.75244L6.25 6.78548C6.08387 6.79358 5.92663 6.80352 5.77708 6.81574C4.9897 6.88007 4.48197 7.0037 4.07054 7.21333C3.27085 7.62079 2.62068 8.27096 2.21322 9.07065C2.20999 9.07698 2.20679 9.08334 2.2036 9.08973C2.14382 9.20942 2.11393 9.26927 2.06056 9.49195C2.0072 9.71463 2.00619 9.85411 2.00417 10.1331C2 10.7108 2 11.3318 2 12.0001C2 16.7142 2 19.0712 3.46447 20.5356Z" fill="black"/>
<path d="M7.75 6.75244V10.8077C7.75 11.3044 7.7503 11.6443 7.7649 11.8977C7.78003 12.1602 7.80769 12.2409 7.81457 12.2564C7.96171 12.5877 8.32471 12.7663 8.67695 12.6808C8.69342 12.6768 8.77428 12.6494 8.99148 12.5013C9.20112 12.3583 9.47062 12.1512 9.86419 11.8481L9.9312 11.7965C10.3014 11.5111 10.5899 11.2886 10.9042 11.1521C11.6032 10.8484 12.3968 10.8484 13.0958 11.1521C13.4101 11.2886 13.6986 11.5111 14.0688 11.7965L14.1358 11.8481C14.5294 12.1512 14.7989 12.3583 15.0085 12.5013C15.2257 12.6494 15.3066 12.6768 15.323 12.6808C15.6753 12.7663 16.0383 12.5877 16.1854 12.2564C16.1923 12.2409 16.22 12.1602 16.2351 11.8977C16.2497 11.6443 16.25 11.3044 16.25 10.8077V6.75244H7.75Z" fill="black"/>
<g opacity="0.4">
<path d="M20.5351 3.46447C19.0706 2 16.7136 2 11.9996 2C7.28551 2 4.92849 2 3.46402 3.46447C2.6948 4.23369 2.32962 5.24918 2.15625 6.72315L2.03715 9.60194C2.04355 9.56702 2.05126 9.53074 2.06056 9.49195C2.11393 9.26927 2.14382 9.20942 2.2036 9.08973L2.21322 9.07065C2.62068 8.27096 3.27085 7.62079 4.07054 7.21333C4.48197 7.0037 4.9897 6.88007 5.77708 6.81574C5.92663 6.80352 6.08387 6.79358 6.25 6.78548L7.75 6.75244V10.5H16.25V6.75244L17.75 6.78548C17.9161 6.79358 18.0734 6.80352 18.2229 6.81574C19.0103 6.88007 19.518 7.0037 19.9295 7.21333C20.7291 7.62079 21.3793 8.27096 21.7868 9.07065L21.7964 9.08973C21.814 9.12503 21.8291 9.15513 21.8429 9.18573V6.72315C21.6695 5.24918 21.3043 4.23369 20.5351 3.46447Z" fill="black"/>
<path d="M2.00207 10.5C2.00215 10.4812 2.00224 10.4625 2.00233 10.4437L2 10.5H2.00207Z" fill="black"/>
</g>
</svg>
