<svg width="24" height="24" viewBox="0 0 24 24" fill="none" xmlns="http://www.w3.org/2000/svg">
<path opacity="0.5" d="M12 22C7.75736 22 5.63604 22 4.31802 20.5355C3 19.0711 3 16.714 3 12C3 7.28595 3 4.92893 4.31802 3.46447C5.63604 2 7.75736 2 12 2C16.2426 2 18.364 2 19.682 3.46447C21 4.92893 21 7.28595 21 12C21 16.714 21 19.0711 19.682 20.5355C18.364 22 16.2426 22 12 22Z" fill="black"/>
<path d="M15 6H9C8.53501 6 8.30252 6 8.11177 6.05111C7.59413 6.18981 7.18981 6.59413 7.05111 7.11177C7 7.30252 7 7.53501 7 8C7 8.46499 7 8.69748 7.05111 8.88823C7.18981 9.40587 7.59413 9.81019 8.11177 9.94889C8.30252 10 8.53501 10 9 10H15C15.465 10 15.6975 10 15.8882 9.94889C16.4059 9.81019 16.8102 9.40587 16.9489 8.88823C17 8.69748 17 8.46499 17 8C17 7.53501 17 7.30252 16.9489 7.11177C16.8102 6.59413 16.4059 6.18981 15.8882 6.05111C15.6975 6 15.465 6 15 6Z" fill="black"/>
<path d="M8 14C8.55228 14 9 13.5523 9 13C9 12.4477 8.55228 12 8 12C7.44772 12 7 12.4477 7 13C7 13.5523 7.44772 14 8 14Z" fill="black"/>
<path d="M8 18C8.55228 18 9 17.5523 9 17C9 16.4477 8.55228 16 8 16C7.44772 16 7 16.4477 7 17C7 17.5523 7.44772 18 8 18Z" fill="black"/>
<path d="M12 14C12.5523 14 13 13.5523 13 13C13 12.4477 12.5523 12 12 12C11.4477 12 11 12.4477 11 13C11 13.5523 11.4477 14 12 14Z" fill="black"/>
<path d="M12 18C12.5523 18 13 17.5523 13 17C13 16.4477 12.5523 16 12 16C11.4477 16 11 16.4477 11 17C11 17.5523 11.4477 18 12 18Z" fill="black"/>
<path d="M16 14C16.5523 14 17 13.5523 17 13C17 12.4477 16.5523 12 16 12C15.4477 12 15 12.4477 15 13C15 13.5523 15.4477 14 16 14Z" fill="black"/>
<path d="M16 18C16.5523 18 17 17.5523 17 17C17 16.4477 16.5523 16 16 16C15.4477 16 15 16.4477 15 17C15 17.5523 15.4477 18 16 18Z" fill="black"/>
</svg>
