<svg width="24" height="24" viewBox="0 0 24 24" fill="none" xmlns="http://www.w3.org/2000/svg">
<path opacity="0.5" d="M10.5608 2.25C10.4473 2.24998 10.359 2.24997 10.2754 2.25503C9.21496 2.31926 8.28637 2.98855 7.89011 3.97425C7.85817 4.05369 7.82978 4.13863 7.79183 4.25251C7.70848 4.47684 7.51722 4.73199 7.24937 4.93586C7.21955 4.95855 7.18962 4.97999 7.15967 5.00017L9.10166 5C9.13053 4.94044 9.15714 4.87988 9.18129 4.81842L9.18284 4.81492L9.18701 4.80502L9.19188 4.7929L9.19646 4.78093L9.2001 4.77098L9.20188 4.76597L9.20612 4.75373L9.20995 4.74244L9.21204 4.73617L9.21477 4.72783L9.21701 4.72079L9.2188 4.71502C9.25763 4.59872 9.27031 4.56246 9.28185 4.53375C9.46197 4.08571 9.88406 3.78148 10.3661 3.75229C10.3983 3.75034 10.4379 3.75 10.5813 3.75H13.419C13.5624 3.75 13.6019 3.75034 13.6342 3.75229C14.1162 3.78148 14.5383 4.08571 14.7184 4.53375C14.7298 4.56204 14.7418 4.59698 14.7812 4.71499L14.783 4.72071L14.7852 4.72778L14.788 4.73614L14.7901 4.74239L14.7939 4.75366L14.7981 4.76588L14.7999 4.77089L14.8035 4.78081L14.8081 4.79271L14.8129 4.80471L14.817 4.81449L14.8186 4.81811C14.8428 4.87968 14.8694 4.94034 14.8984 5L16.8402 5.00017C16.8103 4.98 16.7804 4.95858 16.7506 4.93589C16.4828 4.73205 16.2916 4.47692 16.2082 4.25254L16.2052 4.24347C16.1693 4.13581 16.1414 4.05194 16.1101 3.97426C15.7139 2.98855 14.7853 2.31926 13.7248 2.25503C13.6413 2.24997 13.5529 2.24998 13.4394 2.25H10.5608Z" fill="black"/>
<path fill-rule="evenodd" clip-rule="evenodd" d="M17.1923 5H6.80765C5.12027 5 4.27658 5 3.63268 5.32971C3.07242 5.61659 2.61659 6.07242 2.32971 6.63268C2 7.27658 2 8.12027 2 9.80765C2 10.2366 2 10.4511 2.07336 10.6319C2.13743 10.7898 2.24079 10.9288 2.37363 11.0355C2.52574 11.1577 2.73118 11.2194 3.14206 11.3426L8.5 12.95V14.1627C8.5 14.9283 8.95939 15.6341 9.68682 15.9296L10.2469 16.1572C11.3719 16.6143 12.6281 16.6143 13.7531 16.1572L14.3132 15.9296C15.0406 15.6341 15.5 14.9283 15.5 14.1627V12.95L20.8579 11.3426C21.2688 11.2194 21.4743 11.1577 21.6264 11.0355C21.7592 10.9288 21.8626 10.7898 21.9266 10.6319C22 10.4511 22 10.2366 22 9.80765C22 8.12027 22 7.27658 21.6703 6.63268C21.3834 6.07242 20.9276 5.61659 20.3673 5.32971C19.7234 5 18.8797 5 17.1923 5ZM13.6 12H10.4C10.1791 12 10 12.1819 10 12.4063V14.1627C10 14.3288 10.0996 14.4782 10.2514 14.54L10.8116 14.7675C11.5745 15.0775 12.4255 15.0775 13.1885 14.7675L13.7486 14.54C13.9004 14.4782 14 14.3288 14 14.1627V12.4063C14 12.1819 13.8209 12 13.6 12Z" fill="black"/>
<path opacity="0.5" d="M3 11.2998C3.04446 11.3133 3.09172 11.3275 3.14206 11.3426L8.5 12.9499V14.1627C8.5 14.9283 8.95939 15.634 9.68682 15.9296L10.2469 16.1571C11.3719 16.6142 12.6281 16.6142 13.7531 16.1571L14.3132 15.9296C15.0406 15.634 15.5 14.9283 15.5 14.1627V12.9499L20.8579 11.3426C20.9083 11.3275 20.9555 11.3133 21 11.2998V12.2999C20.9991 15.9752 20.9651 19.6879 19.682 20.8284C18.3639 22 16.2426 22 12 22C7.75733 22 5.63601 22 4.318 20.8284C3.03489 19.6879 3.0009 15.9752 3 12.2999V11.2998Z" fill="black"/>
</svg>
