<svg width="24" height="24" viewBox="0 0 24 24" fill="none" xmlns="http://www.w3.org/2000/svg">
<path fill-rule="evenodd" clip-rule="evenodd" d="M17.1923 6H6.80765C5.12027 6 4.27658 6 3.63268 6.32971C3.07242 6.61659 2.61659 7.07242 2.32971 7.63268C2 8.27658 2 9.12027 2 10.8077C2 11.2366 2 11.4511 2.07336 11.6319C2.13743 11.7898 2.24079 11.9288 2.37363 12.0355C2.52574 12.1577 2.73118 12.2194 3.14206 12.3426L8.5 13.95V15.1627C8.5 15.9283 8.95939 16.6341 9.68682 16.9296L10.2469 17.1572C11.3719 17.6143 12.6281 17.6143 13.7531 17.1572L14.3132 16.9296C15.0406 16.6341 15.5 15.9283 15.5 15.1627V13.95L20.8579 12.3426C21.2688 12.2194 21.4743 12.1577 21.6264 12.0355C21.7592 11.9288 21.8626 11.7898 21.9266 11.6319C22 11.4511 22 11.2366 22 10.8077C22 9.12027 22 8.27658 21.6703 7.63268C21.3834 7.07242 20.9276 6.61659 20.3673 6.32971C19.7234 6 18.8797 6 17.1923 6ZM13.6 13H10.4C10.1791 13 10 13.1819 10 13.4063V15.1627C10 15.3288 10.0996 15.4782 10.2514 15.54L10.8116 15.7675C11.5745 16.0775 12.4255 16.0775 13.1885 15.7675L13.7486 15.54C13.9004 15.4782 14 15.3288 14 15.1627V13.4063C14 13.1819 13.8209 13 13.6 13Z" fill="black"/>
<path opacity="0.5" d="M20.9579 12.3124C20.9469 12.3158 20.9356 12.3192 20.9242 12.3226L15.5 13.9499V15.1626C15.5 15.9282 15.0406 16.634 14.3132 16.9295L13.7531 17.1571C12.6281 17.6141 11.3719 17.6141 10.2469 17.1571L9.68682 16.9295C8.95939 16.634 8.5 15.9282 8.5 15.1626V13.9499L3 12.2998C3.0009 15.9751 3.03489 19.6878 4.318 20.8284C5.63601 21.9999 7.75733 21.9999 12 21.9999C16.2426 21.9999 18.3639 21.9999 19.682 20.8284C20.9651 19.6878 20.9991 15.9751 21 12.2998L20.9579 12.3124Z" fill="black"/>
<path opacity="0.5" d="M9.1709 4C9.58273 2.83481 10.694 2 12.0002 2C13.3064 2 14.4177 2.83481 14.8295 4" stroke="black" stroke-width="1.5" stroke-linecap="round"/>
</svg>
