<svg width="24" height="24" viewBox="0 0 24 24" fill="none" xmlns="http://www.w3.org/2000/svg">
<path fill-rule="evenodd" clip-rule="evenodd" d="M13.1092 13.4999C12.4699 12.9551 11.5297 12.9551 10.8905 13.4999C10.6165 13.7333 10.276 13.8744 9.91719 13.903C9.07997 13.9698 8.41515 14.6347 8.34834 15.4719C8.31971 15.8306 8.17863 16.1712 7.94519 16.4452C7.40043 17.0844 7.40043 18.0246 7.94519 18.6638C8.17863 18.9378 8.31971 19.2784 8.34834 19.6371C8.41515 20.4744 9.07997 21.1392 9.91719 21.206C10.276 21.2346 10.6165 21.3757 10.8905 21.6091C11.5297 22.1539 12.4699 22.1539 13.1092 21.6091C13.3831 21.3757 13.7237 21.2346 14.0824 21.206C14.9197 21.1392 15.5845 20.4744 15.6513 19.6371C15.6799 19.2784 15.821 18.9378 16.0544 18.6638C16.5992 18.0246 16.5992 17.0844 16.0544 16.4452C15.821 16.1712 15.6799 15.8306 15.6513 15.4719C15.5845 14.6347 14.9197 13.9698 14.0824 13.903C13.7237 13.8744 13.3831 13.7333 13.1092 13.4999ZM14.0117 17.103C14.3146 16.8204 14.3309 16.3458 14.0483 16.043C13.7657 15.7401 13.2911 15.7238 12.9883 16.0064L11.3571 17.5288L11.0117 17.2064C10.7089 16.9238 10.2343 16.9401 9.95171 17.243C9.66909 17.5458 9.68545 18.0204 9.98826 18.303L10.8454 19.103C11.1336 19.3719 11.5807 19.3719 11.8689 19.103L14.0117 17.103Z" fill="black"/>
<path opacity="0.5" d="M2 12V8C2 5.17157 2 3.75736 2.87868 2.87868C3.75736 2 5.17157 2 8 2H16C18.8284 2 20.2426 2 21.1213 2.87868C22 3.75736 22 5.17157 22 8V12C22 14.8284 22 16.2426 21.1213 17.1213C20.2855 17.9571 18.9652 17.9979 16.4042 17.9999C16.5467 17.4702 16.4302 16.8862 16.0544 16.4453C15.821 16.1714 15.6799 15.8308 15.6513 15.472C15.5845 14.6348 14.9197 13.97 14.0824 13.9031C13.7237 13.8745 13.3831 13.7334 13.1092 13.5C12.4699 12.9552 11.5297 12.9552 10.8905 13.5C10.6165 13.7334 10.276 13.8745 9.91719 13.9031C9.07997 13.97 8.41515 14.6348 8.34834 15.472C8.31971 15.8308 8.17863 16.1714 7.94519 16.4453C7.56948 16.8862 7.4529 17.4702 7.59543 17.9999C5.03465 17.9979 3.71443 17.9571 2.87868 17.1213C2 16.2426 2 14.8284 2 12Z" fill="black"/>
<path d="M8.25 6C8.25 5.58579 8.58579 5.25 9 5.25H15C15.4142 5.25 15.75 5.58579 15.75 6C15.75 6.41421 15.4142 6.75 15 6.75H9C8.58579 6.75 8.25 6.41421 8.25 6Z" fill="black"/>
<path d="M7 8.75C6.58579 8.75 6.25 9.08579 6.25 9.5C6.25 9.91421 6.58579 10.25 7 10.25H17C17.4142 10.25 17.75 9.91421 17.75 9.5C17.75 9.08579 17.4142 8.75 17 8.75H7Z" fill="black"/>
</svg>
