<svg width="24" height="24" viewBox="0 0 24 24" fill="none" xmlns="http://www.w3.org/2000/svg">
<path opacity="0.5" d="M2 9C2 5.22876 2 3.34315 3.17157 2.17157C4.34315 1 6.22876 1 10 1H14C17.7712 1 19.6569 1 20.8284 2.17157C22 3.34315 22 5.22876 22 9V13C22 16.7712 22 18.6569 20.8284 19.8284C19.6569 21 17.7712 21 14 21H10C6.22876 21 4.34315 21 3.17157 19.8284C2 18.6569 2 16.7712 2 13V9Z" fill="black"/>
<path d="M6 12.9108V7.49649C6 6.67251 6.66539 6.00074 7.48717 6.06091C7.99967 6.09844 8.55592 6.16228 9 6.27079C9.8239 6.4721 10.851 6.9711 11.4646 7.29318C11.4763 7.29933 11.4881 7.30525 11.5 7.31094V15.7262C11.4975 15.7249 11.495 15.7236 11.4926 15.7223C10.8826 15.4009 9.83655 14.8896 9 14.6852C8.56248 14.5783 8.01608 14.5147 7.50991 14.477C6.67934 14.4151 6 13.7437 6 12.9108Z" fill="black"/>
<path d="M12.5 15.7262C12.5025 15.7249 12.505 15.7236 12.5074 15.7223C13.1174 15.4009 14.1634 14.8896 15 14.6852C15.4375 14.5783 15.9839 14.5147 16.4901 14.477C17.3207 14.4151 18 13.7437 18 12.9108V7.45154C18 6.64543 17.3619 5.98216 16.5568 6.0217C15.9405 6.05197 15.2404 6.12099 14.7 6.27079C13.9685 6.47356 13.0752 6.95027 12.5219 7.27042C12.5147 7.27462 12.5073 7.27874 12.5 7.28277V15.7262Z" fill="black"/>
</svg>
