<svg width="24" height="24" viewBox="0 0 24 24" fill="none" xmlns="http://www.w3.org/2000/svg">
<path fill-rule="evenodd" clip-rule="evenodd" d="M14.2502 4.47954L14.2502 7.5372C14.2501 7.64842 14.2498 7.80699 14.2711 7.9431C14.2971 8.10951 14.3827 8.43079 14.7154 8.62611C15.0357 8.81422 15.3491 8.74436 15.498 8.69806C15.6279 8.6577 15.7703 8.58988 15.8764 8.5393L17.0002 8.00545L18.1241 8.5393C18.2302 8.58987 18.3726 8.6577 18.5025 8.69806C18.6514 8.74436 18.9648 8.81422 19.2851 8.62611C19.6178 8.43079 19.7034 8.10952 19.7294 7.9431C19.7507 7.807 19.7504 7.64845 19.7503 7.53723L19.7502 3.0313C19.863 3.026 19.9738 3.02152 20.082 3.01775C21.1538 2.98041 22.0001 3.86075 22.0001 4.93319V16.1436C22.0001 17.2546 21.094 18.1535 19.9852 18.2228C19.0158 18.2835 17.8768 18.402 17.0001 18.6334C15.9186 18.9187 15.0108 19.7008 13.6277 20.0692C13.0015 20.236 12.3031 20.3257 12.0002 20.3925V5.17387C12.321 5.0953 13.3825 4.97142 13.6739 4.80275C13.8582 4.6961 14.0514 4.58732 14.2502 4.47954ZM19.7278 12.8181C19.8283 13.2199 19.584 13.6271 19.1821 13.7276L15.1821 14.7276C14.7803 14.8281 14.3731 14.5837 14.2726 14.1819C14.1722 13.7801 14.4165 13.3729 14.8183 13.2724L18.8183 12.2724C19.2202 12.1719 19.6274 12.4163 19.7278 12.8181Z" fill="black"/>
<path d="M18.2502 3.15101C17.6302 3.22431 17.0207 3.33159 16.5001 3.48744C16.2585 3.55975 16.0064 3.65141 15.7502 3.7564V3.95002V6.93859L16.4996 6.58266L16.5084 6.57822C16.5574 6.55316 16.7639 6.44757 17.0002 6.44757C17.0478 6.44757 17.0941 6.45184 17.1382 6.45887C17.3133 6.48679 17.453 6.5582 17.4921 6.57822L17.5009 6.58265L18.2502 6.93859V3.64665V3.15101Z" fill="black"/>
<path opacity="0.5" d="M12 5.21395C11.6658 5.15047 10.9426 5.05264 10.2823 4.87544C8.9381 4.51475 8.04921 3.76429 7 3.48742C6.11349 3.25349 4.95877 3.13488 3.9824 3.07487C2.8863 3.0075 2 3.89961 2 4.99778V16.1436C2 17.2545 2.90605 18.1534 4.01486 18.2228C4.98428 18.2834 6.12329 18.402 7 18.6333C7.48596 18.7616 8.21615 19.0645 8.87295 19.3592C9.87752 19.81 10.9247 20.1556 12 20.3926V20.3926V5.21395Z" fill="black"/>
<path d="M4.27257 12.8183C4.37303 12.4164 4.78023 12.1721 5.18208 12.2726L9.18208 13.2726C9.58393 13.373 9.82825 13.7802 9.72778 14.1821C9.62732 14.5839 9.22012 14.8282 8.81828 14.7278L4.81828 13.7278C4.41643 13.6273 4.17211 13.2201 4.27257 12.8183Z" fill="black"/>
<path d="M5.18208 8.27257C4.78023 8.17211 4.37303 8.41643 4.27257 8.81828C4.17211 9.22012 4.41643 9.62732 4.81828 9.72778L8.81828 10.7278C9.22012 10.8282 9.62732 10.5839 9.72778 10.1821C9.82825 9.78023 9.58393 9.37303 9.18208 9.27257L5.18208 8.27257Z" fill="black"/>
</svg>
