<svg width="24" height="24" viewBox="0 0 24 24" fill="none" xmlns="http://www.w3.org/2000/svg">
<path opacity="0.5" d="M12 5.21395C11.3163 5.21395 10.9426 5.05264 10.2823 4.87544C8.9381 4.51475 8.04921 3.76429 7 3.48742C6.11349 3.25349 4.95877 3.13488 3.9824 3.07487C2.8863 3.0075 2 3.89961 2 4.99778V16.1436C2 17.2545 2.90605 18.1534 4.01486 18.2228C4.98428 18.2834 6.12329 18.402 7 18.6333C7.48596 18.7616 8.21615 19.0645 8.87295 19.3592C9.87752 19.81 10.7139 20.3926 12 20.3926C13.2861 20.3926 14.1225 19.81 15.127 19.3592C15.7838 19.0645 16.514 18.7616 17 18.6333C17.8767 18.402 19.0157 18.2834 19.9851 18.2228C21.094 18.1534 22 17.2545 22 16.1436V4.99778C22 3.89961 21.1137 3.0075 20.0176 3.07487C19.0412 3.13488 17.8865 3.25349 17 3.48742C15.9508 3.76429 15.0619 4.51475 13.7177 4.87544C13.0574 5.05264 12.6837 5.21395 12 5.21395Z" fill="black"/>
<path d="M4.27257 12.8183C4.37303 12.4164 4.78023 12.1721 5.18208 12.2726L9.18208 13.2726C9.58393 13.373 9.82825 13.7802 9.72778 14.1821C9.62732 14.5839 9.22012 14.8282 8.81828 14.7278L4.81828 13.7278C4.41643 13.6273 4.17211 13.2201 4.27257 12.8183Z" fill="black"/>
<path d="M5.18208 8.27257C4.78023 8.17211 4.37303 8.41643 4.27257 8.81828C4.17211 9.22012 4.41643 9.62732 4.81828 9.72778L8.81828 10.7278C9.22012 10.8282 9.62732 10.5839 9.72778 10.1821C9.82825 9.78023 9.58393 9.37303 9.18208 9.27257L5.18208 8.27257Z" fill="black"/>
<path d="M19.7274 12.8183C19.627 12.4164 19.2198 12.1721 18.8179 12.2726L14.8179 13.2726C14.4161 13.373 14.1718 13.7802 14.2722 14.1821C14.3727 14.5839 14.7799 14.8282 15.1817 14.7278L19.1817 13.7278C19.5836 13.6273 19.8279 13.2201 19.7274 12.8183Z" fill="black"/>
<path d="M18.8179 8.27257C19.2198 8.17211 19.627 8.41643 19.7274 8.81828C19.8279 9.22012 19.5836 9.62732 19.1817 9.72778L15.1817 10.7278C14.7799 10.8282 14.3727 10.5839 14.2722 10.1821C14.1718 9.78023 14.4161 9.37303 14.8179 9.27257L18.8179 8.27257Z" fill="black"/>
</svg>
