<svg width="24" height="24" viewBox="0 0 24 24" fill="none" xmlns="http://www.w3.org/2000/svg">
<path d="M15.4754 9.51567C15.6898 10.3159 15.4311 11.0804 14.8977 11.2234C14.3642 11.3663 13.7579 10.8335 13.5435 10.0333C13.3291 9.23311 13.5877 8.46854 14.1212 8.3256C14.6547 8.18266 15.2609 8.71547 15.4754 9.51567Z" fill="black"/>
<path d="M9.67995 11.0689C9.89436 11.8691 9.63572 12.6337 9.10225 12.7766C8.56879 12.9195 7.96251 12.3867 7.7481 11.5865C7.53369 10.7863 7.79233 10.0218 8.3258 9.87882C8.85926 9.73588 9.46554 10.2687 9.67995 11.0689Z" fill="black"/>
<path fill-rule="evenodd" clip-rule="evenodd" d="M14.6081 2.81525C13.4288 2.9672 11.9309 3.36692 9.83712 3.92795C7.7433 4.48899 6.24623 4.89178 5.14903 5.34979C4.07192 5.79941 3.48603 6.26096 3.12947 6.87854C2.77292 7.49612 2.66614 8.23429 2.81531 9.3919C2.96727 10.5711 3.36698 12.069 3.92801 14.1628C4.48905 16.2566 4.89184 17.7537 5.34985 18.8509C5.79947 19.928 6.26103 20.5139 6.8786 20.8705C7.49618 21.227 8.23435 21.3338 9.39196 21.1846C10.5712 21.0327 12.0691 20.633 14.1629 20.0719C16.2567 19.5109 17.7538 19.1081 18.851 18.6501C19.9281 18.2005 20.514 17.7389 20.8705 17.1214C21.2271 16.5038 21.3339 15.7656 21.1847 14.608C21.0328 13.4288 20.633 11.9309 20.072 9.83706C19.511 7.74324 19.1082 6.24617 18.6502 5.14897C18.2005 4.07186 17.739 3.48597 17.1214 3.12941C16.5038 2.77286 15.7657 2.66608 14.6081 2.81525ZM14.4163 1.32755C15.7404 1.15693 16.8556 1.2439 17.8714 1.83037C18.8872 2.41685 19.5201 3.33915 20.0344 4.57114C20.5358 5.77217 20.9631 7.36709 21.5061 9.39374L21.5356 9.50378C22.0787 11.5305 22.5061 13.1254 22.6724 14.4163C22.843 15.7404 22.7561 16.8555 22.1696 17.8713C21.5831 18.8872 20.6608 19.5201 19.4288 20.0343C18.2278 20.5357 16.6329 20.963 14.6062 21.5061L14.4961 21.5356C12.4694 22.0786 10.8745 22.506 9.58367 22.6723C8.2596 22.843 7.14441 22.756 6.1286 22.1695C5.1128 21.583 4.47988 20.6607 3.96561 19.4288C3.46425 18.2277 3.03691 16.6328 2.49388 14.6061L2.46437 14.496C1.92132 12.4693 1.49395 10.8744 1.32761 9.58361C1.15699 8.25954 1.24396 7.14435 1.83044 6.12854C2.41691 5.11274 3.33921 4.47982 4.5712 3.96555C5.77224 3.46419 7.36717 3.03685 9.39384 2.49382L9.50394 2.46431C11.5306 1.92126 13.1255 1.49389 14.4163 1.32755ZM17.1789 13.3408C17.467 13.6384 17.4593 14.1133 17.1617 14.4014C16.9917 14.5659 16.8128 14.7245 16.6257 14.8765L16.8441 15.3214C17.3971 16.448 16.9214 17.8093 15.787 18.3463C14.6752 18.8726 13.3468 18.4084 12.8047 17.3041L12.5316 16.7476C11.2117 16.998 9.90921 16.956 8.73026 16.6605C8.32848 16.5598 8.0844 16.1525 8.18511 15.7507C8.28581 15.3489 8.69316 15.1049 9.09495 15.2056C10.2253 15.4889 11.5232 15.4924 12.841 15.1393C14.1588 14.7862 15.2811 14.1341 16.1184 13.3236C16.416 13.0355 16.8908 13.0432 17.1789 13.3408ZM14.0048 16.3449L14.1513 16.6432C14.3319 17.0112 14.7747 17.1659 15.1452 16.9905C15.5233 16.8116 15.6818 16.3579 15.4975 15.9824L15.3707 15.7241C14.9418 15.963 14.4851 16.1715 14.0048 16.3449Z" fill="black"/>
</svg>
