<svg width="24" height="24" viewBox="0 0 24 24" fill="none" xmlns="http://www.w3.org/2000/svg">
<path d="M16 10.5C16 11.3284 15.5523 12 15 12C14.4477 12 14 11.3284 14 10.5C14 9.67157 14.4477 9 15 9C15.5523 9 16 9.67157 16 10.5Z" fill="black"/>
<path d="M10 10.5C10 11.3284 9.55229 12 9 12C8.44772 12 8 11.3284 8 10.5C8 9.67157 8.44772 9 9 9C9.55229 9 10 9.67157 10 10.5Z" fill="black"/>
<path fill-rule="evenodd" clip-rule="evenodd" d="M11.9426 1.25H12.0574C14.3658 1.24999 16.1748 1.24998 17.5863 1.43975C19.031 1.63399 20.1711 2.03933 21.0659 2.93414C21.9607 3.82895 22.366 4.96897 22.5603 6.41371C22.75 7.82519 22.75 9.63423 22.75 11.9426V15C22.75 19.2802 19.2802 22.75 15 22.75H11.9426C9.63423 22.75 7.82519 22.75 6.41371 22.5603C4.96897 22.366 3.82895 21.9607 2.93414 21.0659C2.03933 20.1711 1.63399 19.031 1.43975 17.5863C1.24998 16.1748 1.24999 14.3658 1.25 12.0574V11.9426C1.24999 9.63423 1.24998 7.82519 1.43975 6.41371C1.63399 4.96897 2.03933 3.82895 2.93414 2.93414C3.82895 2.03933 4.96897 1.63399 6.41371 1.43975C7.82519 1.24998 9.63423 1.24999 11.9426 1.25ZM6.61358 2.92637C5.33517 3.09825 4.56445 3.42514 3.9948 3.9948C3.42514 4.56445 3.09825 5.33517 2.92637 6.61358C2.75159 7.91356 2.75 9.62178 2.75 12C2.75 14.3782 2.75159 16.0864 2.92637 17.3864C3.09825 18.6648 3.42514 19.4355 3.9948 20.0052C4.56445 20.5749 5.33517 20.9018 6.61358 21.0736C7.91356 21.2484 9.62178 21.25 12 21.25H14.2504C14.2538 19.8837 14.2835 18.9862 14.5314 18.2232C14.7065 17.6845 14.9576 17.1816 15.2724 16.7269C14.3337 17.3721 13.2092 17.75 12 17.75C10.715 17.75 9.5258 17.3233 8.55339 16.6025C8.22062 16.3559 8.15082 15.8862 8.39747 15.5534C8.64413 15.2206 9.11385 15.1508 9.44661 15.3975C10.175 15.9373 11.0541 16.25 12 16.25C12.9459 16.25 13.825 15.9373 14.5534 15.3975C14.8862 15.1508 15.3559 15.2206 15.6025 15.5534C15.7327 15.7291 15.7748 15.9429 15.7365 16.1419C16.4015 15.4071 17.2544 14.8462 18.2232 14.5314C18.9862 14.2835 19.8837 14.2538 21.25 14.2504V12C21.25 9.62178 21.2484 7.91356 21.0736 6.61358C20.9018 5.33517 20.5749 4.56445 20.0052 3.9948C19.4355 3.42514 18.6648 3.09825 17.3864 2.92637C16.0864 2.75159 14.3782 2.75 12 2.75C9.62178 2.75 7.91356 2.75159 6.61358 2.92637ZM21.2053 15.7513C19.8482 15.7571 19.2061 15.7892 18.6867 15.958C17.3928 16.3784 16.3784 17.3928 15.958 18.6867C15.7892 19.2061 15.7571 19.8482 15.7513 21.2053C18.6025 20.8637 20.8637 18.6025 21.2053 15.7513Z" fill="black"/>
</svg>
