<svg width="24" height="24" viewBox="0 0 24 24" fill="none" xmlns="http://www.w3.org/2000/svg">
<path d="M15.4754 9.51572C15.6898 10.3159 15.4311 11.0805 14.8977 11.2234C14.3642 11.3664 13.7579 10.8336 13.5435 10.0334C13.3291 9.23316 13.5877 8.4686 14.1212 8.32565C14.6547 8.18271 15.2609 8.71552 15.4754 9.51572Z" fill="black"/>
<path d="M9.67994 11.0687C9.89436 11.8689 9.63571 12.6335 9.10225 12.7764C8.56878 12.9194 7.9625 12.3865 7.74809 11.5863C7.53368 10.7861 7.79232 10.0216 8.32579 9.87863C8.85926 9.73569 9.46553 10.2685 9.67994 11.0687Z" fill="black"/>
<path fill-rule="evenodd" clip-rule="evenodd" d="M12 2.75C6.89137 2.75 2.75 6.89137 2.75 12C2.75 16.8562 6.49219 20.8383 11.2501 21.22C11.2521 19.2445 11.2763 17.9436 11.5515 16.8809C10.5717 16.9615 9.61622 16.8827 8.73026 16.6606C8.32847 16.5599 8.0844 16.1526 8.1851 15.7508C8.2858 15.349 8.69315 15.1049 9.09494 15.2056C10.0235 15.4383 11.0656 15.4824 12.1396 15.2945C12.1589 15.2911 12.1782 15.2885 12.1975 15.2866C13.1098 13.6152 14.6151 12.3236 16.4403 11.6849C17.587 11.2837 18.9634 11.2524 21.22 11.2501C20.8383 6.49219 16.8562 2.75 12 2.75ZM21.1392 12.7508C18.8834 12.756 17.804 12.7969 16.9358 13.1007C15.1405 13.7289 13.7289 15.1405 13.1007 16.9358C12.7969 17.804 12.756 18.8834 12.7508 21.1392L21.1392 12.7508ZM1.25 12C1.25 6.06294 6.06294 1.25 12 1.25C17.9371 1.25 22.75 6.06294 22.75 12C22.75 12.3623 22.7321 12.7206 22.697 13.0741L22.6705 13.3408L13.3408 22.6705L13.0741 22.697C12.7206 22.7321 12.3623 22.75 12 22.75C6.06294 22.75 1.25 17.9371 1.25 12Z" fill="black"/>
</svg>
