<svg width="24" height="24" viewBox="0 0 24 24" fill="none" xmlns="http://www.w3.org/2000/svg">
<path fill-rule="evenodd" clip-rule="evenodd" d="M12 2.75C6.89137 2.75 2.75 6.89137 2.75 12C2.75 16.8562 6.49219 20.8383 11.2501 21.22C11.2524 18.9634 11.2837 17.587 11.6849 16.4403C12.4639 14.2142 14.2142 12.4639 16.4403 11.6849C17.587 11.2837 18.9634 11.2524 21.22 11.2501C20.8383 6.49219 16.8562 2.75 12 2.75ZM21.0404 12.751C18.8516 12.7573 17.7912 12.8014 16.9358 13.1007C15.1405 13.7289 13.7289 15.1405 13.1007 16.9358C12.8014 17.7912 12.7573 18.8516 12.751 21.0404C12.9011 20.9552 13.045 20.845 13.1779 20.712L20.712 13.1779C20.845 13.045 20.9552 12.9011 21.0404 12.751ZM1.25 12C1.25 6.06294 6.06294 1.25 12 1.25C17.9371 1.25 22.75 6.06294 22.75 12C22.75 12.8843 22.3423 13.669 21.7727 14.2386L14.2386 21.7727C13.669 22.3423 12.8843 22.75 12 22.75C6.06294 22.75 1.25 17.9371 1.25 12Z" fill="black"/>
</svg>
