<svg width="24" height="24" viewBox="0 0 24 24" fill="none" xmlns="http://www.w3.org/2000/svg">
<path d="M3 10.4167C3 7.21907 3 5.62028 3.37752 5.08241C3.75503 4.54454 5.25832 4.02996 8.26491 3.00079L8.83772 2.80472C10.405 2.26824 11.1886 2 12 2C12.8114 2 13.595 2.26824 15.1623 2.80472L15.7351 3.00079C18.7417 4.02996 20.245 4.54454 20.6225 5.08241C21 5.62028 21 7.21907 21 10.4167C21 10.8996 21 11.4234 21 11.9914C21 17.6294 16.761 20.3655 14.1014 21.5273C13.38 21.8424 13.0193 22 12 22C10.9807 22 10.62 21.8424 9.89856 21.5273C7.23896 20.3655 3 17.6294 3 11.9914C3 11.4234 3 10.8996 3 10.4167Z" stroke="black" stroke-width="1.5"/>
<path d="M10.8613 8.36335C11.3679 7.45445 11.6213 7 12 7C12.3787 7 12.6321 7.45445 13.1387 8.36335L13.2698 8.59849C13.4138 8.85677 13.4858 8.98591 13.598 9.07112C13.7103 9.15633 13.8501 9.18796 14.1296 9.25122L14.3842 9.30881C15.3681 9.53142 15.86 9.64273 15.977 10.0191C16.0941 10.3955 15.7587 10.7876 15.088 11.572L14.9144 11.7749C14.7238 11.9978 14.6285 12.1092 14.5857 12.2471C14.5428 12.385 14.5572 12.5336 14.586 12.831L14.6122 13.1018C14.7136 14.1482 14.7644 14.6715 14.4579 14.9041C14.1515 15.1367 13.6909 14.9246 12.7697 14.5005L12.5314 14.3907C12.2696 14.2702 12.1387 14.2099 12 14.2099C11.8613 14.2099 11.7304 14.2702 11.4686 14.3907L11.2303 14.5005C10.3091 14.9246 9.84847 15.1367 9.54206 14.9041C9.23565 14.6715 9.28635 14.1482 9.38776 13.1018L9.41399 12.831C9.44281 12.5336 9.45722 12.385 9.41435 12.2471C9.37147 12.1092 9.27617 11.9978 9.08557 11.7749L8.91204 11.572C8.2413 10.7876 7.90593 10.3955 8.02297 10.0191C8.14001 9.64273 8.63194 9.53142 9.61581 9.30881L9.87035 9.25122C10.1499 9.18796 10.2897 9.15633 10.402 9.07112C10.5142 8.98591 10.5862 8.85677 10.7302 8.59849L10.8613 8.36335Z" stroke="black" stroke-width="1.5"/>
</svg>
