<svg width="24" height="24" viewBox="0 0 24 24" fill="none" xmlns="http://www.w3.org/2000/svg">
<path fill-rule="evenodd" clip-rule="evenodd" d="M16.6312 4.76853C16.3898 4.75049 16.0785 4.75 15.6088 4.75H14.381C13.9667 4.75 13.631 4.41421 13.631 4C13.631 3.58579 13.9667 3.25 14.381 3.25L15.6357 3.25C16.0714 3.24999 16.4391 3.24998 16.743 3.2727C17.0624 3.29657 17.365 3.34825 17.6605 3.47926C18.1166 3.68148 18.5069 4.00766 18.7852 4.42132C18.966 4.69002 19.0682 4.979 19.1449 5.28811C19.2178 5.58159 19.2784 5.94083 19.3499 6.36484L20.3586 12.3459C20.3953 12.5635 20.3343 12.7863 20.1918 12.9548C20.0493 13.1234 19.8398 13.2206 19.619 13.2206C17.1319 13.2206 15.131 15.2107 15.131 17.6471C15.131 18.0613 14.7952 18.3971 14.381 18.3971H7.42003C7.08088 19.7531 5.84304 20.75 4.38095 20.75C2.66017 20.75 1.25 19.3691 1.25 17.6471C1.25 15.925 2.66017 14.5441 4.38095 14.5441C5.84304 14.5441 7.08088 15.541 7.42003 16.8971H13.6784C14.0147 14.2579 16.1026 12.1673 18.7426 11.7837L17.8754 6.64136C17.7981 6.18308 17.7466 5.8808 17.6892 5.64959C17.6341 5.42779 17.5857 5.32551 17.5407 5.25874C17.4211 5.08096 17.2522 4.93904 17.0526 4.85054C16.9761 4.81665 16.8634 4.78588 16.6312 4.76853ZM16.4881 17.6471C16.4881 15.925 17.8983 14.5441 19.619 14.5441C21.3398 14.5441 22.75 15.925 22.75 17.6471C22.75 19.3691 21.3398 20.75 19.619 20.75C17.8983 20.75 16.4881 19.3691 16.4881 17.6471Z" fill="#1C274C"/>
</svg>
