<svg width="24" height="24" viewBox="0 0 24 24" fill="none" xmlns="http://www.w3.org/2000/svg">
<path d="M13.8643 5.78336C13.5506 5.75093 13.1447 5.75 12.5279 5.75H12C11.5858 5.75 11.25 5.41422 11.25 5C11.25 4.58579 11.5858 4.25 12 4.25H12.5648H12.5648C13.1348 4.24998 13.6187 4.24997 14.0186 4.29132C14.4444 4.33534 14.8379 4.43094 15.2097 4.66071C15.5815 4.89048 15.843 5.19971 16.0728 5.56088C16.2754 5.87933 16.4785 6.2803 16.7135 6.75L17.8682 6.75C18.1521 6.74998 18.4127 6.74996 18.6298 6.76947C18.8645 6.79055 19.1203 6.83898 19.3679 6.98039C19.6395 7.13549 19.8645 7.36052 20.0196 7.63209C20.161 7.87968 20.2095 8.13549 20.2306 8.37017C20.2501 8.58733 20.25 8.84795 20.25 9.13178V9.16072L20.2501 9.22526C20.2507 9.48503 20.2514 9.76315 20.167 10.0271C20.1106 10.2039 20.0263 10.3706 19.9175 10.521C19.755 10.7454 19.5307 10.9098 19.3212 11.0634L19.2691 11.1016L18.9916 11.3061L19.4787 12.2803C21.3237 12.5153 22.75 14.0911 22.75 16C22.75 18.0711 21.0711 19.75 19 19.75C17.1858 19.75 15.6725 18.4617 15.325 16.75H10.175C9.82755 18.4617 8.31423 19.75 6.50002 19.75C4.68264 19.75 3.16722 18.4572 2.82323 16.7411C1.98372 16.6561 1.32191 15.9823 1.25541 15.1373C1.24992 15.0675 1.24996 14.992 1.25001 14.9193L1.25002 14.9L1.25001 14.8619C1.24999 14.5269 1.24998 14.3138 1.26466 14.1273C1.44798 11.798 3.29805 9.94796 5.62733 9.76464C5.81381 9.74997 6.02685 9.74998 6.36188 9.75H6.36191L6.40002 9.75L7.05201 9.75C7.95049 9.74997 8.69971 9.74995 9.29449 9.82991C9.92229 9.91432 10.4891 10.1 10.9446 10.5555C11.4 11.0109 11.5857 11.5777 11.6701 12.2055C11.7501 12.8003 11.75 13.5495 11.75 14.448V14.448L11.75 15.25H15.325C15.5973 13.9089 16.5851 12.8277 17.8727 12.4224L15.4348 7.54656C15.1589 6.99487 14.9766 6.6322 14.8073 6.36612C14.6473 6.1147 14.5326 6.00562 14.4211 5.93669C14.3096 5.86776 14.1608 5.81401 13.8643 5.78336Z" fill="#1C274C"/>
</svg>
