<svg width="24" height="24" viewBox="0 0 24 24" fill="none" xmlns="http://www.w3.org/2000/svg">
<path opacity="0.5" d="M14 22H10C6.22876 22 4.34315 22 3.17157 20.8284C2 19.6569 2 17.7712 2 14V10C2 6.22876 2 4.34315 3.17157 3.17157C4.34315 2 6.23869 2 10.0298 2C10.6358 2 11.1214 2 11.53 2.01666C11.5166 2.09659 11.5095 2.17813 11.5092 2.26057L11.5 5.09497C11.4999 6.19207 11.4998 7.16164 11.6049 7.94316C11.7188 8.79028 11.9803 9.63726 12.6716 10.3285C13.3628 11.0198 14.2098 11.2813 15.0569 11.3952C15.8385 11.5003 16.808 11.5002 17.9051 11.5001L18 11.5001H21.9574C22 12.0344 22 12.6901 22 13.5629V14C22 17.7712 22 19.6569 20.8284 20.8284C19.6569 22 17.7712 22 14 22Z" fill="black"/>
<path fill-rule="evenodd" clip-rule="evenodd" d="M6.37641 11.5C5.61624 11.5 5 12.1377 5 12.9244C5 13.4045 5.22952 13.8292 5.58121 14.0872C5.22952 14.3453 5 14.7699 5 15.25C5 15.7301 5.22953 16.1547 5.58122 16.4128C5.22953 16.6708 5 17.0955 5 17.5756C5 18.3623 5.61624 19 6.3764 19C7.13657 19 7.75281 18.3623 7.75281 17.5756V16.3532C7.99004 16.554 8.29322 16.6744 8.6236 16.6744C9.38376 16.6744 10 16.0367 10 15.25C10 14.7699 9.77047 14.3453 9.41879 14.0872C9.77047 13.8292 10 13.4045 10 12.9244C10 12.1377 9.38376 11.5 8.62359 11.5H6.37641Z" fill="black"/>
<path d="M11.5092 2.2601L11.5 5.0945C11.4999 6.1916 11.4998 7.16117 11.6049 7.94269C11.7188 8.78981 11.9803 9.6368 12.6716 10.3281C13.3629 11.0193 14.2098 11.2808 15.057 11.3947C15.8385 11.4998 16.808 11.4997 17.9051 11.4996L21.9574 11.4996C21.9698 11.6552 21.9786 11.821 21.9848 11.9995H22C22 11.732 22 11.5983 21.9901 11.4408C21.9335 10.5463 21.5617 9.52125 21.0315 8.79853C20.9382 8.6713 20.8743 8.59493 20.7467 8.44218C19.9542 7.49359 18.911 6.31193 18 5.49953C17.1892 4.77645 16.0787 3.98536 15.1101 3.3385C14.2781 2.78275 13.862 2.50487 13.2915 2.29834C13.1403 2.24359 12.9408 2.18311 12.7846 2.14466C12.4006 2.05013 12.0268 2.01725 11.5 2.00586L11.5092 2.2601Z" fill="black"/>
</svg>
