<svg width="24" height="24" viewBox="0 0 24 24" fill="none" xmlns="http://www.w3.org/2000/svg">
<path opacity="0.5" fill-rule="evenodd" clip-rule="evenodd" d="M10 22H14C17.7712 22 19.6569 22 20.8284 20.8284C22 19.6569 22 17.7712 22 14V13.5629C22 12.6901 22 12.0344 21.9574 11.5001H18L17.9051 11.5001C16.808 11.5002 15.8385 11.5003 15.0569 11.3952C14.2098 11.2813 13.3628 11.0198 12.6716 10.3285C11.9803 9.63726 11.7188 8.79028 11.6049 7.94316C11.4998 7.16164 11.4999 6.19207 11.5 5.09497L11.5092 2.26057C11.5095 2.17813 11.5166 2.09659 11.53 2.01666C11.1214 2 10.6358 2 10.0298 2C6.23869 2 4.34315 2 3.17157 3.17157C2 4.34315 2 6.22876 2 10V14C2 17.7712 2 19.6569 3.17157 20.8284C4.34315 22 6.22876 22 10 22Z" fill="black"/>
<path d="M6.53033 14.4697C6.23744 14.1768 5.76256 14.1768 5.46967 14.4697C5.17678 14.7626 5.17678 15.2374 5.46967 15.5303L6.43934 16.5L5.46967 17.4697C5.17678 17.7626 5.17678 18.2374 5.46967 18.5303C5.76256 18.8232 6.23744 18.8232 6.53033 18.5303L7.5 17.5607L8.46967 18.5303C8.76256 18.8232 9.23744 18.8232 9.53033 18.5303C9.82322 18.2374 9.82322 17.7626 9.53033 17.4697L8.56066 16.5L9.53033 15.5303C9.82322 15.2374 9.82322 14.7626 9.53033 14.4697C9.23744 14.1768 8.76256 14.1768 8.46967 14.4697L7.5 15.4393L6.53033 14.4697Z" fill="black"/>
<path d="M11.5092 2.2601L11.5 5.0945C11.4999 6.1916 11.4998 7.16117 11.6049 7.94269C11.7188 8.78981 11.9803 9.6368 12.6716 10.3281C13.3629 11.0193 14.2098 11.2808 15.057 11.3947C15.8385 11.4998 16.808 11.4997 17.9051 11.4996L21.9574 11.4996C21.9698 11.6552 21.9786 11.821 21.9848 11.9995H22C22 11.732 22 11.5983 21.9901 11.4408C21.9335 10.5463 21.5617 9.52125 21.0315 8.79853C20.9382 8.6713 20.8743 8.59493 20.7467 8.44218C19.9542 7.49359 18.911 6.31193 18 5.49953C17.1892 4.77645 16.0787 3.98536 15.1101 3.3385C14.2781 2.78275 13.862 2.50487 13.2915 2.29834C13.1403 2.24359 12.9408 2.18311 12.7846 2.14466C12.4006 2.05013 12.0268 2.01725 11.5 2.00586L11.5092 2.2601Z" fill="black"/>
</svg>
