<svg width="24" height="24" viewBox="0 0 24 24" fill="none" xmlns="http://www.w3.org/2000/svg">
<path opacity="0.5" fill-rule="evenodd" clip-rule="evenodd" d="M14 22H10C6.22876 22 4.34315 22 3.17157 20.8284C2 19.6569 2 17.7712 2 14V10C2 6.22876 2 4.34315 3.17157 3.17157C4.34315 2 6.23869 2 10.0298 2C10.6358 2 11.1214 2 11.53 2.01666C11.5166 2.09659 11.5095 2.17813 11.5092 2.26057L11.5 5.09497C11.4999 6.19207 11.4998 7.16164 11.6049 7.94316C11.7188 8.79028 11.9803 9.63726 12.6716 10.3285C13.3628 11.0198 14.2098 11.2813 15.0569 11.3952C15.8385 11.5003 16.808 11.5002 17.9051 11.5001L18 11.5001H21.9574C22 12.0344 22 12.6901 22 13.5629V14C22 17.7712 22 19.6569 20.8284 20.8284C19.6569 22 17.7712 22 14 22Z" fill="black"/>
<path d="M8.85405 14.0225L8.95236 14.1989C9.06034 14.3926 9.11433 14.4894 9.19852 14.5533C9.2827 14.6172 9.38754 14.641 9.59723 14.6884L9.78814 14.7316C10.526 14.8986 10.895 14.982 10.9828 15.2643C11.0706 15.5466 10.819 15.8407 10.316 16.429L10.1858 16.5812C10.0429 16.7483 9.9714 16.8319 9.93924 16.9353C9.90709 17.0387 9.91789 17.1502 9.9395 17.3733L9.95918 17.5763C10.0352 18.3612 10.0733 18.7536 9.84346 18.9281C9.61365 19.1025 9.2682 18.9435 8.5773 18.6254L8.39855 18.5431C8.20222 18.4527 8.10406 18.4075 8 18.4075C7.89594 18.4075 7.79778 18.4527 7.60145 18.5431L7.4227 18.6253C6.7318 18.9435 6.38635 19.1025 6.15654 18.9281C5.92674 18.7536 5.96476 18.3612 6.04082 17.5763L6.0605 17.3733C6.08211 17.1502 6.09291 17.0387 6.06076 16.9353C6.0286 16.8319 5.95713 16.7483 5.81418 16.5812L5.68403 16.429C5.18097 15.8407 4.92945 15.5466 5.01723 15.2643C5.10501 14.982 5.47396 14.8986 6.21186 14.7316L6.40277 14.6884C6.61246 14.641 6.7173 14.6172 6.80148 14.5533C6.88567 14.4894 6.93966 14.3926 7.04764 14.1989L7.14595 14.0225C7.52594 13.3408 7.71594 13 8 13C8.28406 13 8.47406 13.3408 8.85405 14.0225Z" fill="black"/>
<path d="M11.5092 2.2601L11.5 5.0945C11.4999 6.1916 11.4998 7.16117 11.6049 7.94269C11.7188 8.78981 11.9803 9.6368 12.6716 10.3281C13.3629 11.0193 14.2098 11.2808 15.057 11.3947C15.8385 11.4998 16.808 11.4997 17.9051 11.4996L21.9574 11.4996C21.9698 11.6552 21.9786 11.821 21.9848 11.9995H22C22 11.732 22 11.5983 21.9901 11.4408C21.9335 10.5463 21.5617 9.52125 21.0315 8.79853C20.9382 8.6713 20.8743 8.59493 20.7467 8.44218C19.9542 7.49359 18.911 6.31193 18 5.49953C17.1892 4.77645 16.0787 3.98536 15.1101 3.3385C14.2781 2.78275 13.862 2.50487 13.2915 2.29834C13.1403 2.24359 12.9408 2.18311 12.7846 2.14466C12.4006 2.05013 12.0268 2.01725 11.5 2.00586L11.5092 2.2601Z" fill="black"/>
</svg>
