<svg width="24" height="24" viewBox="0 0 24 24" fill="none" xmlns="http://www.w3.org/2000/svg">
<path fill-rule="evenodd" clip-rule="evenodd" d="M13.9697 6.46967C14.2626 6.17678 14.7374 6.17678 15.0303 6.46967L20.0303 11.4697C20.3232 11.7626 20.3232 12.2374 20.0303 12.5303L15.0303 17.5303C14.7374 17.8232 14.2626 17.8232 13.9697 17.5303C13.6768 17.2374 13.6768 16.7626 13.9697 16.4697L17.6893 12.75L9.5 12.75C8.78668 12.75 7.70002 12.9702 6.81323 13.6087C5.96468 14.2196 5.25 15.2444 5.25 17C5.25 17.4142 4.91421 17.75 4.5 17.75C4.08579 17.75 3.75 17.4142 3.75 17C3.75 14.7556 4.70198 13.2804 5.93677 12.3913C7.13332 11.5298 8.54665 11.25 9.5 11.25L17.6893 11.25L13.9697 7.53033C13.6768 7.23744 13.6768 6.76256 13.9697 6.46967Z" fill="black"/>
</svg>
