<svg width="24" height="24" viewBox="0 0 24 24" fill="none" xmlns="http://www.w3.org/2000/svg">
<path d="M2 18C2 16.1144 2 15.1716 2.58579 14.5858C3.17157 14 4.11438 14 6 14C7.88562 14 8.82843 14 9.41421 14.5858C10 15.1716 10 16.1144 10 18C10 19.8856 10 20.8284 9.41421 21.4142C8.82843 22 7.88562 22 6 22C4.11438 22 3.17157 22 2.58579 21.4142C2 20.8284 2 19.8856 2 18Z" fill="black"/>
<path fill-rule="evenodd" clip-rule="evenodd" d="M3.46447 3.46447C2 4.92893 2 7.28595 2 12C2 12.3956 2 12.7746 2.00087 13.1378C2.50896 12.8047 3.06882 12.6588 3.6056 12.5866C4.25122 12.4998 5.04488 12.4999 5.91052 12.5H6.08951C6.95514 12.4999 7.74881 12.4998 8.39443 12.5866C9.10539 12.6822 9.85684 12.9071 10.4749 13.5251C11.0929 14.1432 11.3178 14.8946 11.4134 15.6056C11.5002 16.2512 11.5001 17.0449 11.5 17.9105V18.0895C11.5001 18.9552 11.5002 19.7488 11.4134 20.3944C11.3412 20.9312 11.1954 21.491 10.8622 21.9991C11.2255 22 11.6044 22 12 22C16.714 22 19.0711 22 20.5355 20.5355C22 19.0711 22 16.714 22 12C22 7.28595 22 4.92893 20.5355 3.46447C19.0711 2 16.714 2 12 2C7.28595 2 4.92893 2 3.46447 3.46447ZM15.75 12.75C16.1642 12.75 16.5 12.4142 16.5 12C16.5 11.5858 16.1642 11.25 15.75 11.25H13.8107L17.5303 7.53033C17.8232 7.23744 17.8232 6.76256 17.5303 6.46967C17.2374 6.17678 16.7626 6.17678 16.4697 6.46967L12.75 10.1893V8.25C12.75 7.83579 12.4142 7.5 12 7.5C11.5858 7.5 11.25 7.83579 11.25 8.25V12C11.25 12.4142 11.5858 12.75 12 12.75H15.75Z" fill="black"/>
</svg>
