<svg width="24" height="24" viewBox="0 0 24 24" fill="none" xmlns="http://www.w3.org/2000/svg">
<path d="M2 12C2 7.28595 2 4.92893 3.46447 3.46447C4.92893 2 7.28595 2 12 2C16.134 2 18.4553 2 19.9517 2.98767L14.75 8.18934V6.25C14.75 5.83579 14.4142 5.5 14 5.5C13.5858 5.5 13.25 5.83579 13.25 6.25V10C13.25 10.4142 13.5858 10.75 14 10.75H17.75C18.1642 10.75 18.5 10.4142 18.5 10C18.5 9.58579 18.1642 9.25 17.75 9.25H15.8107L21.0123 4.04832C22 5.54466 22 7.866 22 12C22 16.714 22 19.0711 20.5355 20.5355C19.0711 22 16.714 22 12 22C7.866 22 5.54466 22 4.04833 21.0123L9.25 15.8107V17.75C9.25 18.1642 9.58579 18.5 10 18.5C10.4142 18.5 10.75 18.1642 10.75 17.75V14C10.75 13.5858 10.4142 13.25 10 13.25H6.25C5.83579 13.25 5.5 13.5858 5.5 14C5.5 14.4142 5.83579 14.75 6.25 14.75H8.18934L2.98767 19.9517C2 18.4553 2 16.134 2 12Z" fill="black"/>
</svg>
