<svg width="24" height="24" viewBox="0 0 24 24" fill="none" xmlns="http://www.w3.org/2000/svg">
<path fill-rule="evenodd" clip-rule="evenodd" d="M2 12C2 7.28595 2 4.92893 3.46447 3.46447C4.92893 2 7.28595 2 12 2C16.714 2 19.0711 2 20.5355 3.46447C22 4.92893 22 7.28595 22 12C22 16.714 22 19.0711 20.5355 20.5355C19.0711 22 16.714 22 12 22C7.28595 22 4.92893 22 3.46447 20.5355C2 19.0711 2 16.714 2 12ZM6.25 12C6.25 12.4142 6.58579 12.75 7 12.75H12.1893L10.4697 14.4697C10.1768 14.7626 10.1768 15.2374 10.4697 15.5303C10.7626 15.8232 11.2374 15.8232 11.5303 15.5303L14.5303 12.5303C14.671 12.3897 14.75 12.1989 14.75 12C14.75 11.8011 14.671 11.6103 14.5303 11.4697L11.5303 8.46967C11.2374 8.17678 10.7626 8.17678 10.4697 8.46967C10.1768 8.76256 10.1768 9.23744 10.4697 9.53033L12.1893 11.25H7C6.58579 11.25 6.25 11.5858 6.25 12ZM17.75 8C17.75 7.58579 17.4142 7.25 17 7.25C16.5858 7.25 16.25 7.58579 16.25 8V16C16.25 16.4142 16.5858 16.75 17 16.75C17.4142 16.75 17.75 16.4142 17.75 16V8Z" fill="black"/>
</svg>
