<svg width="24" height="24" viewBox="0 0 24 24" fill="none" xmlns="http://www.w3.org/2000/svg">
<path fill-rule="evenodd" clip-rule="evenodd" d="M14.25 3C14.25 2.58579 14.5858 2.25 15 2.25H21C21.4142 2.25 21.75 2.58579 21.75 3V9C21.75 9.41421 21.4142 9.75 21 9.75C20.5858 9.75 20.25 9.41421 20.25 9V4.81066L13.5303 11.5303C13.2374 11.8232 12.7626 11.8232 12.4697 11.5303C12.1768 11.2374 12.1768 10.7626 12.4697 10.4697L19.1893 3.75H15C14.5858 3.75 14.25 3.41421 14.25 3Z" fill="black"/>
<path d="M21.9995 11.0164C21.6983 11.1659 21.359 11.25 21 11.25C19.7574 11.25 18.75 10.2426 18.75 9V8.43198L14.591 12.591C13.7123 13.4697 12.2877 13.4697 11.409 12.591C10.5303 11.7123 10.5303 10.2877 11.409 9.40901L15.568 5.25H15C13.7574 5.25 12.75 4.24264 12.75 3C12.75 2.64101 12.8341 2.30165 12.9836 2.00055C12.6676 2 12.3399 2 12 2C7.28596 2 4.92893 2 3.46447 3.46447C2 4.92893 2 7.28596 2 12C2 16.714 2 19.0711 3.46447 20.5355C4.92893 22 7.28596 22 12 22C16.714 22 19.0711 22 20.5355 20.5355C22 19.0711 22 16.714 22 12C22 11.6601 22 11.3324 21.9995 11.0164Z" fill="black"/>
</svg>
