<svg width="24" height="24" viewBox="0 0 24 24" fill="none" xmlns="http://www.w3.org/2000/svg">
<path fill-rule="evenodd" clip-rule="evenodd" d="M3.46447 3.46447C2 4.92893 2 7.28595 2 12C2 16.714 2 19.0711 3.46447 20.5355C4.92893 22 7.28595 22 12 22C16.714 22 19.0711 22 20.5355 20.5355C22 19.0711 22 16.7141 22 12C22 7.28598 22 4.92893 20.5355 3.46447C19.0711 2 16.714 2 12 2C7.28595 2 4.92893 2 3.46447 3.46447ZM15.7587 6.87273C15.4543 6.59177 14.9799 6.61075 14.6989 6.91512C14.4179 7.21948 14.4369 7.69398 14.7413 7.97493L15.5818 8.75075L9.92422 8.75075C9.27207 8.75073 8.72787 8.75072 8.28673 8.79447C7.82522 8.84024 7.39622 8.93967 7.00689 9.1914C6.68013 9.40267 6.40192 9.68087 6.19065 10.0076C5.93893 10.397 5.8395 10.826 5.79372 11.2875C5.74997 11.7286 5.74998 12.2728 5.75 12.925V12.9996C5.74998 13.6518 5.74997 14.196 5.79372 14.6371C5.83949 15.0986 5.93892 15.5276 6.19064 15.9169C6.40191 16.2437 6.68012 16.5219 7.00689 16.7332C7.39622 16.9849 7.82521 17.0843 8.28673 17.1301C8.72787 17.1739 9.27207 17.1738 9.92423 17.1738H14.5C14.9142 17.1738 15.25 16.838 15.25 16.4238C15.25 16.0096 14.9142 15.6738 14.5 15.6738H9.96154C9.26242 15.6738 8.79308 15.673 8.43477 15.6374C8.08844 15.6031 7.92764 15.5423 7.82131 15.4735C7.67278 15.3775 7.54632 15.251 7.45029 15.1025C7.38155 14.9962 7.32074 14.8354 7.2864 14.4891C7.25086 14.1307 7.25 13.6614 7.25 12.9623C7.25 12.2632 7.25086 11.7938 7.2864 11.4355C7.32075 11.0892 7.38155 10.9284 7.4503 10.8221C7.54633 10.6735 7.67279 10.5471 7.82131 10.451C7.92764 10.3823 8.08844 10.3215 8.43477 10.2871C8.79309 10.2516 9.26243 10.2508 9.96155 10.2508H15.5818L14.7413 11.0266C14.4369 11.3075 14.4179 11.782 14.6989 12.0864C14.9799 12.3908 15.4543 12.4097 15.7587 12.1288L18.0087 10.0519C18.1625 9.90987 18.25 9.71007 18.25 9.50075C18.25 9.29143 18.1625 9.09163 18.0087 8.94965L15.7587 6.87273Z" fill="black"/>
</svg>
