<svg width="24" height="24" viewBox="0 0 24 24" fill="none" xmlns="http://www.w3.org/2000/svg">
<path d="M2 12C2 7.28595 2 4.92893 3.46447 3.46447C4.92893 2 7.28595 2 12 2C16.714 2 19.0711 2 20.5355 3.46447C22 4.92893 22 7.28595 22 12C22 16.714 22 19.0711 20.5355 20.5355C19.0711 22 16.714 22 12 22C7.28595 22 4.92893 22 3.46447 20.5355C2 19.0711 2 16.714 2 12Z" stroke="black" stroke-width="1.5"/>
<ellipse cx="15" cy="10.5" rx="1" ry="1.5" fill="black"/>
<ellipse cx="9" cy="10.5" rx="1" ry="1.5" fill="black"/>
<path d="M16.5 21.5001L17 15.0001L13.857 13.7429C12.6649 13.266 11.3351 13.266 10.143 13.7429L7 15.0001L7.5 21.5001" stroke="black" stroke-width="1.5" stroke-linecap="round"/>
<path d="M7 15L2.5 13" stroke="black" stroke-width="1.5" stroke-linecap="round"/>
<path d="M7 19L3.5 20.5" stroke="black" stroke-width="1.5" stroke-linecap="round"/>
<path d="M17 15L21.5 13" stroke="black" stroke-width="1.5" stroke-linecap="round"/>
<path d="M17 19L20.5 20.5" stroke="black" stroke-width="1.5" stroke-linecap="round"/>
</svg>
