<svg width="24" height="24" viewBox="0 0 24 24" fill="none" xmlns="http://www.w3.org/2000/svg">
<path fill-rule="evenodd" clip-rule="evenodd" d="M8.13602 1.6026C8.35556 1.95386 8.24877 2.41657 7.89752 2.6361L3.8975 5.1361C3.54624 5.35563 3.08353 5.24885 2.864 4.8976C2.64447 4.54634 2.75125 4.08363 3.1025 3.8641L7.10253 1.3641C7.45378 1.14457 7.91649 1.25135 8.13602 1.6026ZM15.864 1.6026C16.0835 1.25135 16.5462 1.14457 16.8975 1.3641L20.8975 3.8641C21.2488 4.08363 21.3555 4.54635 21.136 4.8976C20.9165 5.24885 20.4538 5.35563 20.1025 5.1361L16.1025 2.6361C15.7512 2.41657 15.6445 1.95385 15.864 1.6026ZM12 4.7501C7.44365 4.7501 3.75 8.44375 3.75 13.0001C3.75 17.5564 7.44365 21.2501 12 21.2501C16.5563 21.2501 20.25 17.5564 20.25 13.0001C20.25 8.44375 16.5563 4.7501 12 4.7501ZM2.25 13.0001C2.25 7.61532 6.61522 3.2501 12 3.2501C17.3848 3.2501 21.75 7.61532 21.75 13.0001C21.75 18.3849 17.3848 22.7501 12 22.7501C6.61522 22.7501 2.25 18.3849 2.25 13.0001ZM14.6517 10.3484C14.9445 10.6413 14.9445 11.1162 14.6517 11.4091L13.0606 13.0001L14.6516 14.5911C14.9445 14.884 14.9445 15.3589 14.6516 15.6518C14.3587 15.9447 13.8839 15.9447 13.591 15.6518L12 14.0608L10.409 15.6518C10.1161 15.9446 9.64124 15.9446 9.34835 15.6517C9.05546 15.3589 9.05546 14.884 9.34835 14.5911L10.9393 13.0001L9.34833 11.4091C9.05544 11.1162 9.05544 10.6414 9.34833 10.3485C9.64122 10.0556 10.1161 10.0556 10.409 10.3485L12 11.9395L13.591 10.3484C13.8839 10.0556 14.3588 10.0556 14.6517 10.3484Z" fill="black"/>
</svg>
