<svg width="24" height="24" viewBox="0 0 24 24" fill="none" xmlns="http://www.w3.org/2000/svg">
<path fill-rule="evenodd" clip-rule="evenodd" d="M7.89752 2.6361C8.24877 2.41657 8.35556 1.95386 8.13602 1.6026C7.91649 1.25135 7.45378 1.14457 7.10253 1.3641L3.1025 3.8641C2.75125 4.08363 2.64447 4.54634 2.864 4.8976C3.08353 5.24885 3.54624 5.35563 3.8975 5.1361L7.89752 2.6361ZM16.8975 1.3641C16.5462 1.14457 16.0835 1.25135 15.864 1.6026C15.6445 1.95385 15.7512 2.41657 16.1025 2.6361L20.1025 5.1361C20.4538 5.35563 20.9165 5.24885 21.136 4.8976C21.3555 4.54635 21.2488 4.08363 20.8975 3.8641L16.8975 1.3641ZM3.75 13.0001C3.75 8.44375 7.44365 4.7501 12 4.7501C16.5563 4.7501 20.25 8.44375 20.25 13.0001C20.25 17.5564 16.5563 21.2501 12 21.2501C7.44365 21.2501 3.75 17.5564 3.75 13.0001ZM12 3.2501C6.61522 3.2501 2.25 7.61532 2.25 13.0001C2.25 18.3849 6.61522 22.7501 12 22.7501C17.3848 22.7501 21.75 18.3849 21.75 13.0001C21.75 7.61532 17.3848 3.2501 12 3.2501ZM9.52176 8.2501H9.47824C9.26396 8.25009 9.06712 8.25008 8.90179 8.26136C8.72415 8.27348 8.52881 8.30109 8.3303 8.38331C7.9015 8.56093 7.56083 8.90161 7.38321 9.3304C7.30099 9.52891 7.27338 9.72425 7.26125 9.90189C7.24997 10.0672 7.24999 10.2641 7.25 10.4783V15.5219C7.24999 15.7361 7.24997 15.933 7.26125 16.0983C7.27338 16.276 7.30099 16.4713 7.38321 16.6698C7.56083 17.0986 7.90151 17.4393 8.3303 17.6169C8.52881 17.6991 8.72415 17.7267 8.90179 17.7388C9.06712 17.7501 9.26396 17.7501 9.47824 17.7501H9.52176C9.73604 17.7501 9.93288 17.7501 10.0982 17.7388C10.2759 17.7267 10.4712 17.6991 10.6697 17.6169C11.0985 17.4393 11.4392 17.0986 11.6168 16.6698C11.699 16.4713 11.7266 16.276 11.7387 16.0983C11.75 15.933 11.75 15.7361 11.75 15.5219V10.4783C11.75 10.2641 11.75 10.0672 11.7387 9.90189C11.7266 9.72425 11.699 9.52891 11.6168 9.3304C11.4392 8.90161 11.0985 8.56093 10.6697 8.38331C10.4712 8.30109 10.2759 8.27348 10.0982 8.26136C9.93288 8.25008 9.73604 8.25009 9.52176 8.2501ZM8.7703 9.90141C8.79558 9.84258 8.84248 9.79568 8.90131 9.7704C8.90867 9.76854 8.93707 9.76243 9.0039 9.75788C9.1119 9.75051 9.25677 9.7501 9.5 9.7501C9.74323 9.7501 9.8881 9.75051 9.9961 9.75788C10.0629 9.76244 10.0913 9.76854 10.0987 9.7704C10.1575 9.79568 10.2044 9.84258 10.2297 9.90141C10.2316 9.90876 10.2377 9.93716 10.2422 10.004C10.2496 10.112 10.25 10.2569 10.25 10.5001V15.5001C10.25 15.7433 10.2496 15.8882 10.2422 15.9962C10.2377 16.063 10.2316 16.0914 10.2297 16.0988C10.2044 16.1576 10.1575 16.2045 10.0987 16.2298C10.0913 16.2317 10.0629 16.2378 9.9961 16.2423C9.8881 16.2497 9.74323 16.2501 9.5 16.2501C9.25677 16.2501 9.1119 16.2497 9.0039 16.2423C8.93707 16.2378 8.90866 16.2317 8.90131 16.2298C8.84248 16.2045 8.79558 16.1576 8.7703 16.0988C8.76844 16.0914 8.76234 16.063 8.75778 15.9962C8.75041 15.8882 8.75 15.7433 8.75 15.5001V10.5001C8.75 10.2569 8.75041 10.112 8.75778 10.004C8.76234 9.93717 8.76844 9.90876 8.7703 9.90141Z" fill="black"/>
<path fill-rule="evenodd" clip-rule="evenodd" d="M14.5587 8.239H14.5152C14.3009 8.23899 14.1041 8.23898 13.9387 8.25026C13.7611 8.26238 13.5658 8.28999 13.3673 8.37222C12.9385 8.54983 12.5978 8.89051 12.4202 9.31931C12.3379 9.51781 12.3103 9.71315 12.2982 9.8908C12.2869 10.0561 12.2869 10.253 12.287 10.4672V15.5108C12.2869 15.725 12.2869 15.9219 12.2982 16.0872C12.3103 16.2649 12.3379 16.4602 12.4202 16.6587C12.5978 17.0875 12.9385 17.4282 13.3673 17.6058C13.5658 17.688 13.7611 17.7156 13.9387 17.7277C14.1041 17.739 14.3009 17.739 14.5152 17.739H14.5587C14.773 17.739 14.9698 17.739 15.1352 17.7277C15.3128 17.7156 15.5082 17.688 15.7067 17.6058C16.1355 17.4282 16.4761 17.0875 16.6537 16.6587C16.736 16.4602 16.7636 16.2649 16.7757 16.0872C16.787 15.9219 16.787 15.725 16.787 15.5108V10.4672C16.787 10.253 16.787 10.0561 16.7757 9.8908C16.7636 9.71315 16.736 9.51781 16.6537 9.31931C16.4761 8.89051 16.1355 8.54983 15.7067 8.37222C15.5082 8.28999 15.3128 8.26238 15.1352 8.25026C14.9698 8.23898 14.773 8.23899 14.5587 8.239ZM13.9383 9.75931C13.8794 9.78458 13.8325 9.83148 13.8073 9.89031C13.8054 9.89767 13.7993 9.92607 13.7947 9.9929C13.7874 10.1009 13.787 10.2458 13.787 10.489V15.489C13.787 15.7322 13.7874 15.8771 13.7947 15.9851C13.7993 16.0519 13.8054 16.0803 13.8073 16.0877C13.8325 16.1465 13.8794 16.1934 13.9383 16.2187C13.9456 16.2206 13.974 16.2267 14.0409 16.2312C14.1489 16.2386 14.2937 16.239 14.537 16.239C14.7802 16.239 14.9251 16.2386 15.0331 16.2312C15.0999 16.2267 15.1283 16.2206 15.1357 16.2187C15.1945 16.1934 15.2414 16.1465 15.2667 16.0877C15.2685 16.0803 15.2746 16.0519 15.2792 15.9851C15.2866 15.8771 15.287 15.7322 15.287 15.489V10.489C15.287 10.2458 15.2866 10.1009 15.2792 9.9929C15.2746 9.92607 15.2685 9.89766 15.2667 9.89031C15.2414 9.83148 15.1945 9.78458 15.1356 9.75931C15.1283 9.75744 15.0999 9.75134 15.0331 9.74678C14.9251 9.73941 14.7802 9.739 14.537 9.739C14.2937 9.739 14.1489 9.73941 14.0409 9.74678C13.974 9.75134 13.9456 9.75744 13.9383 9.75931Z" fill="black"/>
</svg>
