<svg width="24" height="24" viewBox="0 0 24 24" fill="none" xmlns="http://www.w3.org/2000/svg">
<path fill-rule="evenodd" clip-rule="evenodd" d="M8.13602 1.6026C8.35556 1.95386 8.24877 2.41657 7.89752 2.6361L3.8975 5.1361C3.54624 5.35563 3.08353 5.24885 2.864 4.8976C2.64447 4.54634 2.75125 4.08363 3.1025 3.8641L7.10253 1.3641C7.45378 1.14457 7.91649 1.25135 8.13602 1.6026ZM15.864 1.6026C16.0835 1.25135 16.5462 1.14457 16.8975 1.3641L20.8975 3.8641C21.2488 4.08363 21.3555 4.54635 21.136 4.8976C20.9165 5.24885 20.4538 5.35563 20.1025 5.1361L16.1025 2.6361C15.7512 2.41657 15.6445 1.95385 15.864 1.6026ZM12 4.7501C7.44365 4.7501 3.75 8.44375 3.75 13.0001C3.75 17.5564 7.44365 21.2501 12 21.2501C16.5563 21.2501 20.25 17.5564 20.25 13.0001C20.25 8.44375 16.5563 4.7501 12 4.7501ZM2.25 13.0001C2.25 7.61532 6.61522 3.2501 12 3.2501C17.3848 3.2501 21.75 7.61532 21.75 13.0001C21.75 18.3849 17.3848 22.7501 12 22.7501C6.61522 22.7501 2.25 18.3849 2.25 13.0001ZM9 10.7501C8.58579 10.7501 8.25 10.4143 8.25 10.0001C8.25 9.58589 8.58579 9.2501 9 9.2501H15C15.3033 9.2501 15.5768 9.43283 15.6929 9.71309C15.809 9.99334 15.7448 10.3159 15.5303 10.5304L10.8107 15.2501H15C15.4142 15.2501 15.75 15.5859 15.75 16.0001C15.75 16.4143 15.4142 16.7501 15 16.7501H9C8.69665 16.7501 8.42318 16.5674 8.30709 16.2871C8.191 16.0069 8.25517 15.6843 8.46967 15.4698L13.1893 10.7501H9Z" fill="black"/>
</svg>
