<svg width="24" height="24" viewBox="0 0 24 24" fill="none" xmlns="http://www.w3.org/2000/svg">
<path fill-rule="evenodd" clip-rule="evenodd" d="M11.1637 1.25H12.8363C13.5671 1.24998 14.1822 1.24995 14.6808 1.31045C15.2098 1.37466 15.6926 1.51494 16.1164 1.85489C16.5402 2.19484 16.7819 2.63575 16.9593 3.13824C17.1265 3.61177 17.2599 4.21229 17.4184 4.92566L17.6558 5.99377C19.2529 7.49827 20.25 9.63269 20.25 12C20.25 14.3673 19.2529 16.5017 17.6558 18.0062L17.4184 19.0743C17.2599 19.7877 17.1265 20.3882 16.9593 20.8618C16.7819 21.3643 16.5402 21.8052 16.1164 22.1451C15.6926 22.4851 15.2098 22.6253 14.6808 22.6896C14.1822 22.75 13.5671 22.75 12.8363 22.75H11.1637C10.4329 22.75 9.81775 22.75 9.31924 22.6896C8.79022 22.6253 8.30738 22.4851 7.88359 22.1451C7.45981 21.8052 7.21812 21.3643 7.04069 20.8618C6.87349 20.3882 6.74006 19.7877 6.58156 19.0744L6.3442 18.0062C4.74708 16.5017 3.75 14.3673 3.75 12C3.75 9.63269 4.74708 7.49827 6.3442 5.99377L6.58156 4.92565C6.74006 4.21229 6.87349 3.61176 7.04069 3.13824C7.21812 2.63575 7.45981 2.19484 7.88359 1.85489C8.30738 1.51494 8.79022 1.37466 9.31924 1.31045C9.81776 1.24995 10.4329 1.24998 11.1637 1.25ZM8.17198 4.68998C9.31604 4.08964 10.6184 3.75 12 3.75C13.3816 3.75 14.684 4.08964 15.828 4.68998C15.7251 4.24192 15.6397 3.90614 15.5449 3.63767C15.4184 3.27937 15.3024 3.12492 15.1778 3.02495C15.0532 2.92498 14.8773 2.84531 14.5001 2.79953C14.1025 2.75129 13.579 2.75 12.7913 2.75H11.2087C10.421 2.75 9.89746 2.75129 9.49995 2.79953C9.12273 2.84531 8.94681 2.92498 8.82218 3.02495C8.69756 3.12492 8.58162 3.27937 8.4551 3.63767C8.36031 3.90614 8.27487 4.24192 8.17198 4.68998ZM8.17198 19.31C8.27487 19.7581 8.36031 20.0939 8.4551 20.3623C8.58162 20.7206 8.69756 20.8751 8.82218 20.9751C8.94681 21.075 9.12273 21.1547 9.49995 21.2005C9.89746 21.2487 10.421 21.25 11.2087 21.25H12.7913C13.579 21.25 14.1025 21.2487 14.5001 21.2005C14.8773 21.1547 15.0532 21.075 15.1778 20.9751C15.3024 20.8751 15.4184 20.7206 15.5449 20.3623C15.6397 20.0939 15.7251 19.7581 15.828 19.31C14.684 19.9104 13.3816 20.25 12 20.25C10.6184 20.25 9.31604 19.9104 8.17198 19.31ZM12 5.25C8.27208 5.25 5.25 8.27208 5.25 12C5.25 15.7279 8.27208 18.75 12 18.75C15.7279 18.75 18.75 15.7279 18.75 12C18.75 8.27208 15.7279 5.25 12 5.25ZM12 8.17308C12.4142 8.17308 12.75 8.50886 12.75 8.92308V11.6807L14.5198 13.3825C14.8184 13.6695 14.8277 14.1443 14.5406 14.4429C14.2535 14.7415 13.7787 14.7508 13.4802 14.4637L11.4802 12.5406C11.3331 12.3992 11.25 12.204 11.25 12V8.92308C11.25 8.50886 11.5858 8.17308 12 8.17308Z" fill="black"/>
</svg>
