<svg width="24" height="24" viewBox="0 0 24 24" fill="none" xmlns="http://www.w3.org/2000/svg">
<path d="M9.19762 11.9582L9.91426 11.737L9.91426 11.737L9.19762 11.9582ZM9.54558 10.8683L9.08995 10.2726L9.08995 10.2726L9.54558 10.8683ZM9.91896 14.2952L9.20232 14.5164L9.20232 14.5164L9.91896 14.2952ZM14.0579 14.2952L13.3413 14.074L13.3413 14.074L14.0579 14.2952ZM14.4313 10.8683L13.9757 11.4641L13.9757 11.4641L14.4313 10.8683ZM14.7793 11.9582L15.4959 12.1794L15.4959 12.1794L14.7793 11.9582ZM12.5948 9.46375L13.0504 8.86802L13.0504 8.86802L12.5948 9.46375ZM11.3821 9.46375L11.8377 10.0595L11.8377 10.0595L11.3821 9.46375ZM20.1847 17.75C20.5989 17.75 20.9347 17.4142 20.9347 17C20.9347 16.5858 20.5989 16.25 20.1847 16.25V17.75ZM14.7793 19.7351L14.0677 19.4982L14.0677 19.4982L14.7793 19.7351ZM13.4801 21.2631C13.3492 21.6561 13.5617 22.0807 13.9547 22.2116C14.3477 22.3424 14.7724 22.1299 14.9033 21.7369L13.4801 21.2631ZM3.99769 16.25C3.58348 16.25 3.24769 16.5858 3.24769 17C3.24769 17.4142 3.58348 17.75 3.99769 17.75V16.25ZM9.40314 19.7351L10.1147 19.4982L10.1147 19.4982L9.40314 19.7351ZM9.27917 21.7369C9.41002 22.1299 9.83469 22.3424 10.2277 22.2116C10.6207 22.0807 10.8332 21.6561 10.7024 21.2631L9.27917 21.7369ZM8.22071 17.3775L7.78185 17.9857L7.78185 17.9857L8.22071 17.3775ZM5.556 5.45942C5.4489 5.05928 5.03772 4.82173 4.63759 4.92882C4.23746 5.03591 3.9999 5.44709 4.10699 5.84723L5.556 5.45942ZM5.24951 7.21519L4.52501 7.40909L4.52501 7.40909L5.24951 7.21519ZM3.59168 11.5885L3.17811 10.9628L3.17811 10.9628L3.59168 11.5885ZM1.62739 11.9879C1.28185 12.2163 1.18689 12.6816 1.4153 13.0271C1.64372 13.3727 2.109 13.4676 2.45454 13.2392L1.62739 11.9879ZM19.934 5.84732C20.0411 5.44719 19.8035 5.036 19.4034 4.92891C19.0032 4.82182 18.5921 5.05938 18.485 5.45951L19.934 5.84732ZM18.7915 7.21528L18.067 7.02137L18.067 7.02137L18.7915 7.21528ZM20.4493 11.5886L20.0357 12.2143L20.0357 12.2143L20.4493 11.5886ZM21.5864 13.2393C21.932 13.4677 22.3973 13.3728 22.6257 13.0272C22.8541 12.6817 22.7591 12.2164 22.4136 11.988L21.5864 13.2393ZM16.0903 3.83623C16.4288 3.5975 16.5096 3.12956 16.2709 2.79107C16.0322 2.45257 15.5642 2.3717 15.2257 2.61044L16.0903 3.83623ZM14.3376 4.15456L14.7699 4.76746L14.7699 4.76746L14.3376 4.15456ZM9.66562 4.10403L9.22021 4.70744L9.22021 4.70744L9.66562 4.10403ZM8.61539 2.39659C8.28213 2.15059 7.81255 2.22133 7.56656 2.55459C7.32056 2.88784 7.3913 3.35742 7.72456 3.60341L8.61539 2.39659ZM14.7793 11.3678L14.0627 11.589L14.7793 11.3678ZM9.19762 11.3678L9.91426 11.589L9.19762 11.3678ZM21.2269 12C21.2269 17.1095 17.0899 21.25 11.9885 21.25V22.75C17.92 22.75 22.7269 17.9362 22.7269 12H21.2269ZM11.9885 21.25C6.88701 21.25 2.75 17.1095 2.75 12H1.25C1.25 17.9362 6.05695 22.75 11.9885 22.75V21.25ZM2.75 12C2.75 6.89055 6.88701 2.75 11.9885 2.75V1.25C6.05695 1.25 1.25 6.06376 1.25 12H2.75ZM11.9885 2.75C17.0899 2.75 21.2269 6.89055 21.2269 12H22.7269C22.7269 6.06376 17.92 1.25 11.9885 1.25V2.75ZM12.1392 10.0595L13.9757 11.4641L14.887 10.2726L13.0504 8.86802L12.1392 10.0595ZM14.0626 11.737L13.3413 14.074L14.7746 14.5164L15.4959 12.1794L14.0626 11.737ZM13.1036 14.25H10.8733V15.75H13.1036V14.25ZM10.6356 14.074L9.91426 11.737L8.48098 12.1794L9.20232 14.5164L10.6356 14.074ZM10.0012 11.4641L11.8377 10.0595L10.9265 8.86802L9.08995 10.2726L10.0012 11.4641ZM20.1847 16.25H18.5696V17.75H20.1847V16.25ZM14.0677 19.4982L13.4801 21.2631L14.9033 21.7369L15.4909 19.972L14.0677 19.4982ZM18.5696 16.25C17.892 16.25 17.3207 16.2489 16.8555 16.302C16.3711 16.3574 15.9265 16.4781 15.5228 16.7693L16.4006 17.9857C16.5201 17.8994 16.6846 17.8313 17.0258 17.7923C17.3863 17.7511 17.8574 17.75 18.5696 17.75V16.25ZM15.4909 19.972C15.7161 19.2956 15.8662 18.8484 16.0193 18.5189C16.1643 18.2069 16.2809 18.072 16.4006 17.9857L15.5228 16.7693C15.1193 17.0605 14.8645 17.4444 14.659 17.8868C14.4615 18.3117 14.282 18.8545 14.0677 19.4982L15.4909 19.972ZM3.99769 17.75H5.61279V16.25H3.99769V17.75ZM8.69154 19.972L9.27917 21.7369L10.7024 21.2631L10.1147 19.4982L8.69154 19.972ZM5.61279 17.75C6.325 17.75 6.79611 17.7511 7.15658 17.7923C7.49784 17.8313 7.66228 17.8994 7.78185 17.9857L8.65958 16.7693C8.25598 16.4781 7.81137 16.3574 7.32692 16.302C6.86168 16.2489 6.29041 16.25 5.61279 16.25V17.75ZM10.1147 19.4982C9.90043 18.8545 9.7209 18.3117 9.52346 17.8868C9.31791 17.4445 9.06311 17.0605 8.65958 16.7693L7.78185 17.9857C7.90148 18.072 8.01815 18.2069 8.16314 18.5189C8.31624 18.8484 8.46634 19.2956 8.69154 19.972L10.1147 19.4982ZM4.10699 5.84723L4.52501 7.40909L5.97401 7.02128L5.556 5.45942L4.10699 5.84723ZM3.17811 10.9628L1.62739 11.9879L2.45454 13.2392L4.00526 12.2142L3.17811 10.9628ZM4.52501 7.40909C4.70933 8.09777 4.83021 8.55381 4.88378 8.91324C4.93452 9.25362 4.9114 9.43069 4.85896 9.56902L6.26156 10.1007C6.43795 9.63541 6.43932 9.17465 6.3674 8.69211C6.29831 8.22862 6.14941 7.67663 5.97401 7.02128L4.52501 7.40909ZM4.00526 12.2142C4.57076 11.8404 5.04807 11.5262 5.407 11.2252C5.78074 10.9119 6.08516 10.5661 6.26156 10.1007L4.85896 9.56902C4.80654 9.70729 4.70659 9.855 4.44321 10.0759C4.16501 10.3091 3.77244 10.57 3.17811 10.9628L4.00526 12.2142ZM18.485 5.45951L18.067 7.02137L19.516 7.40918L19.934 5.84732L18.485 5.45951ZM20.0357 12.2143L21.5864 13.2393L22.4136 11.988L20.8629 10.9629L20.0357 12.2143ZM18.067 7.02137C17.8916 7.67672 17.7427 8.22871 17.6736 8.69221C17.6017 9.17474 17.603 9.6355 17.7794 10.1008L19.182 9.56911C19.1296 9.43078 19.1065 9.25372 19.1572 8.91333C19.2108 8.5539 19.3316 8.09787 19.516 7.40918L18.067 7.02137ZM20.8629 10.9629C20.2685 10.5701 19.876 10.3092 19.5978 10.0759C19.3344 9.85509 19.2344 9.70739 19.182 9.56911L17.7794 10.1008C17.9558 10.5662 18.2602 10.912 18.634 11.2253C18.9929 11.5263 19.4702 11.8405 20.0357 12.2143L20.8629 10.9629ZM15.2257 2.61044L13.9054 3.54166L14.7699 4.76746L16.0903 3.83623L15.2257 2.61044ZM10.111 3.50061L8.61539 2.39659L7.72456 3.60341L9.22021 4.70744L10.111 3.50061ZM13.9054 3.54166C13.3231 3.9523 12.9373 4.22303 12.6189 4.39721C12.3174 4.56214 12.1438 4.60125 11.9966 4.59965L11.9803 6.09957C12.478 6.10495 12.9109 5.94721 13.3387 5.7132C13.7496 5.48845 14.2159 5.15817 14.7699 4.76746L13.9054 3.54166ZM9.22021 4.70744C9.76562 5.11004 10.2247 5.45033 10.6306 5.68391C11.0533 5.92712 11.4827 6.09418 11.9803 6.09957L11.9966 4.59965C11.8494 4.59806 11.6767 4.5552 11.3788 4.38379C11.0642 4.20276 10.6843 3.92375 10.111 3.50061L9.22021 4.70744ZM13.9757 11.4641C14.0179 11.4963 14.0475 11.5399 14.0627 11.589L15.4959 11.1465C15.3911 10.807 15.1828 10.4989 14.887 10.2726L13.9757 11.4641ZM14.0627 11.589C14.0773 11.6364 14.0779 11.6876 14.0626 11.737L15.4959 12.1794C15.6023 11.8349 15.5974 11.4753 15.4959 11.1465L14.0627 11.589ZM18.1938 9.14203L14.4923 10.6748L15.0662 12.0607L18.7677 10.5279L18.1938 9.14203ZM13.0504 8.86802C12.7371 8.62838 12.3624 8.50841 11.9885 8.50841V10.0084C12.0419 10.0084 12.0945 10.0253 12.1392 10.0595L13.0504 8.86802ZM11.9885 8.50841C11.6146 8.50841 11.2398 8.62838 10.9265 8.86802L11.8377 10.0595C11.8824 10.0253 11.935 10.0084 11.9885 10.0084V8.50841ZM12.7385 9.25841V5.34961H11.2385V9.25841H12.7385ZM13.3413 14.074C13.3259 14.1241 13.2962 14.166 13.2572 14.1967L14.1852 15.3752C14.4575 15.1608 14.6671 14.8646 14.7746 14.5164L13.3413 14.074ZM13.2572 14.1967C13.214 14.2308 13.1607 14.25 13.1036 14.25V15.75C13.5063 15.75 13.8846 15.6119 14.1852 15.3752L13.2572 14.1967ZM16.5291 16.887L14.2886 14.2954L13.1538 15.2765L15.3944 17.868L16.5291 16.887ZM10.8733 14.25C10.8162 14.25 10.7629 14.2308 10.7197 14.1967L9.79172 15.3752C10.0923 15.6119 10.4706 15.75 10.8733 15.75V14.25ZM10.7197 14.1967C10.6807 14.166 10.651 14.1241 10.6356 14.074L9.20232 14.5164C9.3098 14.8646 9.51943 15.1608 9.79172 15.3752L10.7197 14.1967ZM8.81059 17.8407L10.8456 15.2492L9.66584 14.3228L7.63084 16.9143L8.81059 17.8407ZM9.91426 11.737C9.89899 11.6876 9.89961 11.6364 9.91426 11.589L8.48099 11.1465C8.37949 11.4754 8.37465 11.8349 8.48098 12.1794L9.91426 11.737ZM9.91426 11.589C9.9294 11.5399 9.95905 11.4963 10.0012 11.4641L9.08995 10.2726C8.79412 10.4989 8.58579 10.807 8.48099 11.1465L9.91426 11.589ZM9.48889 10.6766L5.85153 9.14373L5.269 10.526L8.90636 12.0589L9.48889 10.6766Z" fill="black"/>
</svg>
