<svg width="24" height="24" viewBox="0 0 24 24" fill="none" xmlns="http://www.w3.org/2000/svg">
<path d="M4 10.1433C4 5.64588 7.58172 2 12 2C16.4183 2 20 5.64588 20 10.1433C20 14.6055 17.4467 19.8124 13.4629 21.6744C12.5343 22.1085 11.4657 22.1085 10.5371 21.6744C6.55332 19.8124 4 14.6055 4 10.1433Z" stroke="black" stroke-width="1.5"/>
<path d="M11.0429 11.5215L10.5891 12.1187L10.5891 12.1187L11.0429 11.5215ZM12 7.71604L11.4719 8.24858C11.7643 8.53853 12.2357 8.53853 12.5281 8.24858L12 7.71604ZM12.9571 11.5215L13.4109 12.1187L13.4109 12.1187L12.9571 11.5215ZM12 12L12 11.25L12 11.25L12 12ZM11.4967 10.9244C11.0789 10.6069 10.6177 10.2097 10.2679 9.79085C9.90066 9.35108 9.75 8.99865 9.75 8.75734H8.25C8.25 9.53562 8.68177 10.2317 9.11649 10.7523C9.56863 11.2938 10.1288 11.7689 10.5891 12.1187L11.4967 10.9244ZM9.75 8.75734C9.75 8.13509 10.0269 7.87068 10.2497 7.78976C10.4873 7.7035 10.9433 7.72437 11.4719 8.24858L12.5281 7.1835C11.7068 6.36899 10.6627 6.044 9.73781 6.37982C8.79816 6.72098 8.25 7.64658 8.25 8.75734H9.75ZM13.4109 12.1187C13.8712 11.7689 14.4314 11.2938 14.8835 10.7523C15.3182 10.2317 15.75 9.53561 15.75 8.75733H14.25C14.25 8.99866 14.0993 9.3511 13.7321 9.79086C13.3824 10.2098 12.9211 10.6069 12.5034 10.9244L13.4109 12.1187ZM15.75 8.75733C15.75 7.64657 15.2018 6.72098 14.2622 6.37982C13.3373 6.044 12.2932 6.36899 11.4719 7.1835L12.5281 8.24858C13.0567 7.72437 13.5127 7.7035 13.7503 7.78976C13.9731 7.87068 14.25 8.13509 14.25 8.75733H15.75ZM10.5891 12.1187C10.9545 12.3964 11.3725 12.75 12 12.75L12 11.25C11.9808 11.25 11.9691 11.2515 11.9158 11.2223C11.8303 11.1756 11.7231 11.0964 11.4967 10.9244L10.5891 12.1187ZM12.5034 10.9244C12.2769 11.0964 12.1697 11.1756 12.0842 11.2223C12.0309 11.2515 12.0192 11.25 12 11.25L12 12.75C12.6275 12.75 13.0455 12.3964 13.4109 12.1187L12.5034 10.9244Z" fill="black"/>
</svg>
