<svg width="24" height="24" viewBox="0 0 24 24" fill="none" xmlns="http://www.w3.org/2000/svg">
<path d="M21.25 12C21.25 17.1086 17.1086 21.25 12 21.25C6.89137 21.25 2.75 17.1086 2.75 12C2.75 6.89137 6.89137 2.75 12 2.75C12.4142 2.75 12.75 2.41421 12.75 2C12.75 1.58579 12.4142 1.25 12 1.25C6.06294 1.25 1.25 6.06294 1.25 12C1.25 17.9371 6.06294 22.75 12 22.75C17.9371 22.75 22.75 17.9371 22.75 12C22.75 11.5858 22.4142 11.25 22 11.25C21.5858 11.25 21.25 11.5858 21.25 12Z" fill="black"/>
<path d="M21.5303 3.53033C21.8232 3.23744 21.8232 2.76256 21.5303 2.46967C21.2374 2.17678 20.7626 2.17678 20.4697 2.46967L12.75 10.1893V6.65625C12.75 6.24204 12.4142 5.90625 12 5.90625C11.5858 5.90625 11.25 6.24204 11.25 6.65625V12C11.25 12.4142 11.5858 12.75 12 12.75H17.3438C17.758 12.75 18.0938 12.4142 18.0938 12C18.0938 11.5858 17.758 11.25 17.3438 11.25H13.8107L21.5303 3.53033Z" fill="black"/>
</svg>
