<svg width="24" height="24" viewBox="0 0 24 24" fill="none" xmlns="http://www.w3.org/2000/svg">
<path d="M21.25 12C21.25 17.1086 17.1086 21.25 12 21.25C6.89137 21.25 2.75 17.1086 2.75 12C2.75 6.89137 6.89137 2.75 12 2.75C12.4142 2.75 12.75 2.41421 12.75 2C12.75 1.58579 12.4142 1.25 12 1.25C6.06294 1.25 1.25 6.06294 1.25 12C1.25 17.9371 6.06294 22.75 12 22.75C17.9371 22.75 22.75 17.9371 22.75 12C22.75 11.5858 22.4142 11.25 22 11.25C21.5858 11.25 21.25 11.5858 21.25 12Z" fill="black"/>
<path d="M12.4697 10.4697C12.1768 10.7626 12.1768 11.2374 12.4697 11.5303C12.7626 11.8232 13.2374 11.8232 13.5303 11.5303L21.25 3.81066V7.34375C21.25 7.75796 21.5858 8.09375 22 8.09375C22.4142 8.09375 22.75 7.75796 22.75 7.34375V2C22.75 1.58579 22.4142 1.25 22 1.25H16.6562C16.242 1.25 15.9062 1.58579 15.9062 2C15.9062 2.41421 16.242 2.75 16.6562 2.75H20.1893L12.4697 10.4697Z" fill="black"/>
</svg>
