<svg width="24" height="24" viewBox="0 0 24 24" fill="none" xmlns="http://www.w3.org/2000/svg">
<path d="M2.75 12C2.75 6.89137 6.89137 2.75 12 2.75C17.1086 2.75 21.25 6.89137 21.25 12C21.25 17.1086 17.1086 21.25 12 21.25C11.5858 21.25 11.25 21.5858 11.25 22C11.25 22.4142 11.5858 22.75 12 22.75C17.9371 22.75 22.75 17.9371 22.75 12C22.75 6.06294 17.9371 1.25 12 1.25C6.06294 1.25 1.25 6.06294 1.25 12C1.25 12.4142 1.58579 12.75 2 12.75C2.41421 12.75 2.75 12.4142 2.75 12Z" fill="black"/>
<path d="M5 12.25C4.58579 12.25 4.25 12.5858 4.25 13C4.25 13.4142 4.58579 13.75 5 13.75H9.18934L2.46967 20.4697C2.17678 20.7626 2.17678 21.2374 2.46967 21.5303C2.76256 21.8232 3.23744 21.8232 3.53033 21.5303L10.25 14.8107V19C10.25 19.4142 10.5858 19.75 11 19.75C11.4142 19.75 11.75 19.4142 11.75 19V13C11.75 12.5858 11.4142 12.25 11 12.25H5Z" fill="black"/>
</svg>
