<svg width="24" height="24" viewBox="0 0 24 24" fill="none" xmlns="http://www.w3.org/2000/svg">
<path d="M14 7.75C13.5858 7.75 13.25 7.41421 13.25 7C13.25 6.58579 13.5858 6.25 14 6.25H17C17.4142 6.25 17.75 6.58579 17.75 7V10C17.75 10.4142 17.4142 10.75 17 10.75C16.5858 10.75 16.25 10.4142 16.25 10V8.81066L14.0303 11.0303C13.7374 11.3232 13.2626 11.3232 12.9697 11.0303C12.6768 10.7374 12.6768 10.2626 12.9697 9.96967L15.1893 7.75H14Z" fill="black"/>
<path d="M11.0303 12.9697C11.3232 13.2626 11.3232 13.7374 11.0303 14.0303L8.81066 16.25H10C10.4142 16.25 10.75 16.5858 10.75 17C10.75 17.4142 10.4142 17.75 10 17.75H7C6.58579 17.75 6.25 17.4142 6.25 17V14C6.25 13.5858 6.58579 13.25 7 13.25C7.41421 13.25 7.75 13.5858 7.75 14V15.1893L9.96967 12.9697C10.2626 12.6768 10.7374 12.6768 11.0303 12.9697Z" fill="black"/>
<path d="M10 7.75C10.4142 7.75 10.75 7.41421 10.75 7C10.75 6.58579 10.4142 6.25 10 6.25H7C6.58579 6.25 6.25 6.58579 6.25 7V10C6.25 10.4142 6.58579 10.75 7 10.75C7.41421 10.75 7.75 10.4142 7.75 10V8.81066L9.96967 11.0303C10.2626 11.3232 10.7374 11.3232 11.0303 11.0303C11.3232 10.7374 11.3232 10.2626 11.0303 9.96967L8.81066 7.75H10Z" fill="black"/>
<path d="M12.9697 12.9697C12.6768 13.2626 12.6768 13.7374 12.9697 14.0303L15.1893 16.25H14C13.5858 16.25 13.25 16.5858 13.25 17C13.25 17.4142 13.5858 17.75 14 17.75H17C17.4142 17.75 17.75 17.4142 17.75 17V14C17.75 13.5858 17.4142 13.25 17 13.25C16.5858 13.25 16.25 13.5858 16.25 14V15.1893L14.0303 12.9697C13.7374 12.6768 13.2626 12.6768 12.9697 12.9697Z" fill="black"/>
<path fill-rule="evenodd" clip-rule="evenodd" d="M11.9426 1.25C9.63423 1.24999 7.82519 1.24998 6.41371 1.43975C4.96897 1.63399 3.82895 2.03933 2.93414 2.93414C2.03933 3.82895 1.63399 4.96897 1.43975 6.41371C1.24998 7.82519 1.24999 9.63423 1.25 11.9426V12.0574C1.24999 14.3658 1.24998 16.1748 1.43975 17.5863C1.63399 19.031 2.03933 20.1711 2.93414 21.0659C3.82895 21.9607 4.96897 22.366 6.41371 22.5603C7.82519 22.75 9.63423 22.75 11.9426 22.75H12.0574C14.3658 22.75 16.1748 22.75 17.5863 22.5603C19.031 22.366 20.1711 21.9607 21.0659 21.0659C21.9607 20.1711 22.366 19.031 22.5603 17.5863C22.75 16.1748 22.75 14.3658 22.75 12.0574V11.9426C22.75 9.63423 22.75 7.82519 22.5603 6.41371C22.366 4.96897 21.9607 3.82895 21.0659 2.93414C20.1711 2.03933 19.031 1.63399 17.5863 1.43975C16.1748 1.24998 14.3658 1.24999 12.0574 1.25H11.9426ZM3.9948 3.9948C4.56445 3.42514 5.33517 3.09825 6.61358 2.92637C7.91356 2.75159 9.62178 2.75 12 2.75C14.3782 2.75 16.0864 2.75159 17.3864 2.92637C18.6648 3.09825 19.4355 3.42514 20.0052 3.9948C20.5749 4.56445 20.9018 5.33517 21.0736 6.61358C21.2484 7.91356 21.25 9.62178 21.25 12C21.25 14.3782 21.2484 16.0864 21.0736 17.3864C20.9018 18.6648 20.5749 19.4355 20.0052 20.0052C19.4355 20.5749 18.6648 20.9018 17.3864 21.0736C16.0864 21.2484 14.3782 21.25 12 21.25C9.62178 21.25 7.91356 21.2484 6.61358 21.0736C5.33517 20.9018 4.56445 20.5749 3.9948 20.0052C3.42514 19.4355 3.09825 18.6648 2.92637 17.3864C2.75159 16.0864 2.75 14.3782 2.75 12C2.75 9.62178 2.75159 7.91356 2.92637 6.61358C3.09825 5.33517 3.42514 4.56445 3.9948 3.9948Z" fill="black"/>
</svg>
