<svg width="24" height="24" viewBox="0 0 24 24" fill="none" xmlns="http://www.w3.org/2000/svg">
<path fill-rule="evenodd" clip-rule="evenodd" d="M16.4697 3.46967C16.7626 3.17678 17.2374 3.17678 17.5303 3.46967L20.5303 6.46967C20.8232 6.76256 20.8232 7.23744 20.5303 7.53033L17.5303 10.5303C17.2374 10.8232 16.7626 10.8232 16.4697 10.5303C16.1768 10.2374 16.1768 9.76256 16.4697 9.46967L18.1893 7.75H9.00001C8.05159 7.75 7.39042 7.75072 6.8778 7.79718C6.37549 7.84271 6.0899 7.92737 5.875 8.05144C5.53296 8.24892 5.24893 8.53295 5.05145 8.87499C4.92738 9.0899 4.84271 9.37548 4.79718 9.87779C4.75072 10.3904 4.75 11.0516 4.75 12C4.75 12.9484 4.75072 13.6096 4.79718 14.1222C4.84271 14.6245 4.92737 14.9101 5.05144 15.125C5.24892 15.467 5.53296 15.7511 5.875 15.9486C6.0899 16.0726 6.37549 16.1573 6.87779 16.2028C7.39041 16.2493 8.05158 16.25 9 16.25H16C16.4142 16.25 16.75 16.5858 16.75 17C16.75 17.4142 16.4142 17.75 16 17.75H8.96423C8.05998 17.75 7.3307 17.75 6.7424 17.6967C6.13605 17.6417 5.60625 17.5254 5.125 17.2476C4.55493 16.9185 4.08154 16.4451 3.75241 15.875C3.47455 15.3937 3.35826 14.8639 3.3033 14.2576C3.24998 13.6693 3.24999 12.94 3.25 12.0358V11.9642C3.24999 11.06 3.24999 10.3307 3.30331 9.74239C3.35826 9.13604 3.47456 8.60624 3.75241 8.12499C4.08154 7.55492 4.55493 7.08154 5.125 6.75241C5.60625 6.47456 6.13605 6.35826 6.7424 6.3033C7.33069 6.24998 8.05997 6.24999 8.96421 6.25L18.1893 6.25L16.4697 4.53033C16.1768 4.23744 16.1768 3.76256 16.4697 3.46967Z" fill="black"/>
</svg>
