<svg width="24" height="24" viewBox="0 0 24 24" fill="none" xmlns="http://www.w3.org/2000/svg">
<path d="M15.7587 6.87273C15.4543 6.59177 14.9799 6.61075 14.6989 6.91512C14.4179 7.21948 14.4369 7.69398 14.7413 7.97493L15.5818 8.75075H9.96155C7.63558 8.75075 5.75 10.6363 5.75 12.9623C5.75 15.2883 7.63557 17.1738 9.96154 17.1738H14.5C14.9142 17.1738 15.25 16.838 15.25 16.4238C15.25 16.0096 14.9142 15.6738 14.5 15.6738H9.96154C8.464 15.6738 7.25 14.4598 7.25 12.9623C7.25 11.4647 8.464 10.2508 9.96155 10.2508H15.5818L14.7413 11.0266C14.4369 11.3075 14.4179 11.782 14.6989 12.0864C14.9799 12.3908 15.4543 12.4097 15.7587 12.1288L18.0087 10.0519C18.1625 9.90987 18.25 9.71007 18.25 9.50075C18.25 9.29143 18.1625 9.09163 18.0087 8.94965L15.7587 6.87273Z" fill="black"/>
<path fill-rule="evenodd" clip-rule="evenodd" d="M11.9426 1.25C9.63423 1.24999 7.82519 1.24998 6.4137 1.43975C4.96897 1.63399 3.82895 2.03933 2.93414 2.93414C2.03933 3.82895 1.63399 4.96897 1.43975 6.41371C1.24998 7.82519 1.24999 9.63423 1.25 11.9426V12.0574C1.24999 14.3658 1.24998 16.1748 1.43975 17.5863C1.63399 19.031 2.03933 20.1711 2.93414 21.0659C3.82895 21.9607 4.96897 22.366 6.4137 22.5603C7.82519 22.75 9.63423 22.75 11.9426 22.75H12.0574C14.3658 22.75 16.1748 22.75 17.5863 22.5603C19.031 22.366 20.1711 21.9607 21.0659 21.0659C21.9607 20.1711 22.366 19.031 22.5603 17.5863C22.75 16.1748 22.75 14.3658 22.75 12.0574V11.9426C22.75 9.63423 22.75 7.82519 22.5603 6.41371C22.366 4.96897 21.9607 3.82895 21.0659 2.93414C20.1711 2.03933 19.031 1.63399 17.5863 1.43975C16.1748 1.24998 14.3658 1.24999 12.0574 1.25H11.9426ZM3.9948 3.9948C4.56445 3.42514 5.33517 3.09825 6.61358 2.92637C7.91356 2.75159 9.62177 2.75 12 2.75C14.3782 2.75 16.0864 2.75159 17.3864 2.92637C18.6648 3.09825 19.4355 3.42514 20.0052 3.9948C20.5749 4.56445 20.9018 5.33517 21.0736 6.61358C21.2484 7.91356 21.25 9.62178 21.25 12C21.25 14.3782 21.2484 16.0864 21.0736 17.3864C20.9018 18.6648 20.5749 19.4355 20.0052 20.0052C19.4355 20.5749 18.6648 20.9018 17.3864 21.0736C16.0864 21.2484 14.3782 21.25 12 21.25C9.62177 21.25 7.91356 21.2484 6.61358 21.0736C5.33517 20.9018 4.56445 20.5749 3.9948 20.0052C3.42514 19.4355 3.09825 18.6648 2.92637 17.3864C2.75159 16.0864 2.75 14.3782 2.75 12C2.75 9.62178 2.75159 7.91356 2.92637 6.61358C3.09825 5.33517 3.42514 4.56445 3.9948 3.9948Z" fill="black"/>
</svg>
