<svg width="24" height="24" viewBox="0 0 24 24" fill="none" xmlns="http://www.w3.org/2000/svg">
<path fill-rule="evenodd" clip-rule="evenodd" d="M7.53033 3.46967C7.82322 3.76256 7.82322 4.23744 7.53033 4.53033L5.81066 6.25H15C18.1756 6.25 20.75 8.82436 20.75 12C20.75 15.1756 18.1756 17.75 15 17.75H8.00001C7.58579 17.75 7.25001 17.4142 7.25001 17C7.25001 16.5858 7.58579 16.25 8.00001 16.25H15C17.3472 16.25 19.25 14.3472 19.25 12C19.25 9.65279 17.3472 7.75 15 7.75H5.81066L7.53033 9.46967C7.82322 9.76256 7.82322 10.2374 7.53033 10.5303C7.23744 10.8232 6.76256 10.8232 6.46967 10.5303L3.46967 7.53033C3.17678 7.23744 3.17678 6.76256 3.46967 6.46967L6.46967 3.46967C6.76256 3.17678 7.23744 3.17678 7.53033 3.46967Z" fill="black"/>
</svg>
