<svg width="24" height="24" viewBox="0 0 24 24" fill="none" xmlns="http://www.w3.org/2000/svg">
<path fill-rule="evenodd" clip-rule="evenodd" d="M19.4998 9.56052C19.5332 13.7025 16.0815 17.5334 11.9395 17.5C7.79748 17.4666 4.53367 13.5815 4.50025 9.43948C4.46683 5.29748 7.79748 1.96683 11.9395 2.00025C16.0815 2.03367 19.4663 5.41852 19.4998 9.56052ZM12.5061 5.25002C12.0919 5.24668 11.7534 5.57975 11.75 5.99395C11.7467 6.40815 12.0797 6.74663 12.4939 6.74998C13.7281 6.75993 14.7401 7.77194 14.75 9.00605C14.7534 9.42025 15.0919 9.75332 15.5061 9.74998C15.9203 9.74663 16.2533 9.40815 16.25 8.99395C16.2334 6.94088 14.5591 5.26659 12.5061 5.25002Z" fill="black"/>
<path d="M14.167 18.2144C14.4992 19.2767 13.8108 20.3461 12.7501 20.5616V21.9998C12.7501 22.414 12.4143 22.7498 12.0001 22.7498C11.5859 22.7498 11.2501 22.414 11.2501 21.9998V20.5616C10.1894 20.3461 9.50094 19.2767 9.83316 18.2144L9.84005 18.193C10.5044 18.3867 11.2043 18.4939 11.9315 18.4998C12.7025 18.506 13.4493 18.3973 14.1595 18.1909C14.1622 18.1988 14.1646 18.2066 14.167 18.2144Z" fill="black"/>
</svg>
