<svg width="24" height="24" viewBox="0 0 24 24" fill="none" xmlns="http://www.w3.org/2000/svg">
<path d="M5.75 1C6.16421 1 6.5 1.33579 6.5 1.75V3.6L8.22067 3.25587C9.8712 2.92576 11.5821 3.08284 13.1449 3.70797L13.5582 3.87329C14.9831 4.44323 16.5513 4.54967 18.0401 4.17746C18.6711 4.01972 19.1778 4.7036 18.8432 5.26132L17.5647 7.39221C17.2232 7.96137 17.0524 8.24595 17.0119 8.55549C16.9951 8.68461 16.9951 8.81539 17.0119 8.94451C17.0524 9.25405 17.2232 9.53863 17.5647 10.1078L19.1253 12.7089C19.4361 13.2269 19.1582 13.898 18.5721 14.0445L18.472 14.0695C16.7024 14.5119 14.8385 14.3854 13.1449 13.708C11.5821 13.0828 9.8712 12.9258 8.22067 13.2559L6.5 13.6V21.75C6.5 22.1642 6.16421 22.5 5.75 22.5C5.33579 22.5 5 22.1642 5 21.75V1.75C5 1.33579 5.33579 1 5.75 1Z" fill="black"/>
</svg>
