<svg width="24" height="24" viewBox="0 0 24 24" fill="none" xmlns="http://www.w3.org/2000/svg">
<path d="M12.75 2C12.75 1.58579 12.4142 1.25 12 1.25C11.5858 1.25 11.25 1.58579 11.25 2V5C11.25 5.41421 11.5858 5.75 12 5.75C12.4142 5.75 12.75 5.41421 12.75 5V2Z" fill="black"/>
<path d="M6.53033 2.46967C6.23744 2.17678 5.76256 2.17678 5.46967 2.46967C5.17678 2.76256 5.17678 3.23744 5.46967 3.53033L7.46967 5.53033C7.76256 5.82322 8.23744 5.82322 8.53033 5.53033C8.82322 5.23744 8.82322 4.76256 8.53033 4.46967L6.53033 2.46967Z" fill="black"/>
<path d="M18.5303 2.46967C18.2374 2.17678 17.7626 2.17678 17.4697 2.46967L15.4697 4.46967C15.1768 4.76256 15.1768 5.23744 15.4697 5.53033C15.7626 5.82322 16.2374 5.82322 16.5303 5.53033L18.5303 3.53033C18.8232 3.23744 18.8232 2.76256 18.5303 2.46967Z" fill="black"/>
<path d="M20 10L20 10.25H4.00002L4 10C4 9.05719 4 8.58579 4.29289 8.29289C4.58579 8 5.05719 8 6 8H18C18.9428 8 19.4142 8 19.7071 8.29289C20 8.58579 20 9.05719 20 10Z" fill="black"/>
<path d="M16.1716 14.8284C16.0094 14.9906 15.87 15.13 15.75 15.2548V15.25H8.25V15.2548C8.12999 15.13 7.99061 14.9906 7.8285 14.8285L4.75 11.75H19.25L16.1716 14.8284Z" fill="black"/>
<path fill-rule="evenodd" clip-rule="evenodd" d="M9 20V17.6569C9 17.2795 9 16.9893 8.98503 16.75H15.015C15 16.9893 15 17.2795 15 17.6569V20C15 20.9428 15 21.4142 14.7071 21.7071C14.4142 22 13.9428 22 13 22H11C10.0572 22 9.58579 22 9.29289 21.7071C9 21.4142 9 20.9428 9 20ZM12 18.25C12.4142 18.25 12.75 18.5858 12.75 19V20C12.75 20.4142 12.4142 20.75 12 20.75C11.5858 20.75 11.25 20.4142 11.25 20V19C11.25 18.5858 11.5858 18.25 12 18.25Z" fill="black"/>
</svg>
