<svg width="24" height="24" viewBox="0 0 24 24" fill="none" xmlns="http://www.w3.org/2000/svg">
<path d="M19.5816 18.5209C21.0889 16.7701 22 14.4915 22 12C22 9.50853 21.0889 7.22987 19.5816 5.47906L15.3089 9.75178C15.745 10.3925 16 11.1665 16 12C16 12.8335 15.745 13.6075 15.3089 14.2482L19.5816 18.5209Z" fill="black"/>
<path d="M18.5209 19.5816C16.7701 21.0889 14.4915 22 12 22C9.50853 22 7.22987 21.0889 5.47906 19.5816L9.75178 15.3089C10.3925 15.745 11.1665 16 12 16C12.8335 16 13.6075 15.745 14.2482 15.3089L18.5209 19.5816Z" fill="black"/>
<path d="M4.4184 18.5209L8.69112 14.2482C8.25495 13.6075 8 12.8335 8 12C8 11.1665 8.25495 10.3925 8.69112 9.75178L4.4184 5.47906C2.91114 7.22987 2 9.50853 2 12C2 14.4915 2.91114 16.7701 4.4184 18.5209Z" fill="black"/>
<path d="M12 8C11.1665 8 10.3925 8.25495 9.75178 8.69112L5.47906 4.4184C7.22987 2.91114 9.50853 2 12 2C14.4915 2 16.7701 2.91114 18.5209 4.4184L14.2482 8.69112C13.6075 8.25495 12.8335 8 12 8Z" fill="black"/>
</svg>
