<svg width="24" height="24" viewBox="0 0 24 24" fill="none" xmlns="http://www.w3.org/2000/svg">
<path fill-rule="evenodd" clip-rule="evenodd" d="M2 12C2 7.28595 2 4.92893 3.46447 3.46447C4.92893 2 7.28595 2 12 2C16.714 2 19.0711 2 20.5355 3.46447C22 4.92893 22 7.28595 22 12C22 16.714 22 19.0711 20.5355 20.5355C19.0711 22 16.714 22 12 22C7.28595 22 4.92893 22 3.46447 20.5355C2 19.0711 2 16.714 2 12ZM6.25 8C6.25 7.58579 5.91421 7.25 5.5 7.25C5.08579 7.25 4.75 7.58579 4.75 8V16C4.75 16.4142 5.08579 16.75 5.5 16.75C5.91421 16.75 6.25 16.4142 6.25 16V12.75H9.56482V16C9.56482 16.4142 9.9006 16.75 10.3148 16.75C10.729 16.75 11.0648 16.4142 11.0648 16V8C11.0648 7.58579 10.729 7.25 10.3148 7.25C9.9006 7.25 9.56482 7.58579 9.56482 8V11.25H6.25V8ZM11.9722 8.8C11.9722 7.81979 12.8753 7.25 13.6852 7.25C16.6224 7.25 19.25 9.25248 19.25 12C19.25 14.7475 16.6224 16.75 13.6852 16.75C12.8753 16.75 11.9722 16.1802 11.9722 15.2V8.8ZM13.4722 8.82154C13.4749 8.81881 13.4785 8.81535 13.4835 8.81121C13.5161 8.78415 13.585 8.75 13.6852 8.75C16.0663 8.75 17.75 10.3292 17.75 12C17.75 13.6708 16.0663 15.25 13.6852 15.25C13.585 15.25 13.5161 15.2159 13.4835 15.1888C13.4785 15.1847 13.4749 15.1812 13.4722 15.1785V8.82154Z" fill="black"/>
</svg>
