<svg width="24" height="24" viewBox="0 0 24 24" fill="none" xmlns="http://www.w3.org/2000/svg">
<path d="M13.6943 3H11C6.02943 3 2 7.02944 2 12C2 16.9706 6.02944 21 11 21H13.6943V16.5H10.9444C8.45916 16.5 6.44444 14.4853 6.44444 12C6.44444 9.51472 8.45916 7.5 10.9444 7.5H13.6943V3Z" fill="black"/>
<path d="M15.1943 7.5H16.5C17.3284 7.5 18 6.82843 18 6V4.5C18 3.67157 17.3284 3 16.5 3H15.1943V7.5Z" fill="black"/>
<path d="M15.1943 16.5V21H16.5C17.3284 21 18 20.3284 18 19.5V18C18 17.1716 17.3284 16.5 16.5 16.5H15.1943Z" fill="black"/>
<path d="M20.1556 8.63577C19.9545 8.27368 19.4979 8.14322 19.1358 8.34438C18.7768 8.54383 18.6455 8.99441 18.8393 9.35499L18.8443 9.36522C18.8512 9.37962 18.8643 9.40834 18.8818 9.45198C18.9167 9.53919 18.9691 9.6865 19.0235 9.89878C19.1322 10.3228 19.25 11.0101 19.25 12C19.25 12.9899 19.1322 13.6772 19.0235 14.1012C18.9691 14.3135 18.9167 14.4608 18.8818 14.548C18.8643 14.5917 18.8512 14.6204 18.8443 14.6348L18.8393 14.645C18.6455 15.0056 18.7768 15.4562 19.1358 15.6556C19.4979 15.8568 19.9545 15.7263 20.1556 15.3642L19.5 15C20.1556 15.3642 20.1556 15.3642 20.1556 15.3642L20.1563 15.3629L20.1571 15.3615L20.1588 15.3585L20.1626 15.3514L20.1723 15.333C20.1795 15.3189 20.1884 15.3012 20.1986 15.2797C20.2191 15.2367 20.2451 15.1787 20.2745 15.1051C20.3333 14.9579 20.4059 14.749 20.4765 14.4738C20.6178 13.9228 20.75 13.1101 20.75 12C20.75 10.8899 20.6178 10.0772 20.4765 9.52622C20.4059 9.251 20.3333 9.04206 20.2745 8.89489C20.2451 8.82135 20.2191 8.76335 20.1986 8.72032C20.1884 8.69881 20.1795 8.68106 20.1723 8.66699L20.1626 8.64864L20.1588 8.64152L20.1571 8.63847L20.1563 8.63708C20.1563 8.63708 20.1556 8.63577 19.5 9L20.1556 8.63577Z" fill="black"/>
<path d="M23.5031 14.8459C23.3541 15.6504 23.1541 16.3135 22.95 16.8442C22.7463 17.374 22.5394 17.7692 22.3775 18.039C22.2966 18.1738 22.227 18.2772 22.1748 18.3504C22.1487 18.3869 22.1269 18.4159 22.1102 18.4375C22.1019 18.4483 22.0948 18.4572 22.0891 18.4643L22.0816 18.4736L22.0786 18.4772L22.0773 18.4788L22.0762 18.4801C21.811 18.7983 21.3381 18.8413 21.0199 18.5762C20.7032 18.3123 20.6591 17.8426 20.92 17.5245L20.9235 17.52C20.9288 17.5131 20.9393 17.4993 20.9542 17.4785C20.984 17.4368 21.0316 17.3667 21.0913 17.2672C21.2106 17.0683 21.3788 16.7509 21.55 16.3057C21.7115 15.8858 21.8767 15.3498 22.006 14.6893C22.1332 14.0393 22.2258 13.2687 22.2459 12.3695C22.2486 12.2487 22.25 12.1255 22.25 12C22.25 11.4978 22.2276 11.0332 22.1887 10.6048C22.0719 9.3197 21.8063 8.3607 21.55 7.69423C21.3788 7.24901 21.2106 6.93168 21.0913 6.73274C21.0316 6.63322 20.984 6.56318 20.9542 6.52147C20.9393 6.50061 20.9288 6.48684 20.9235 6.48L20.92 6.47552C20.6591 6.15737 20.7032 5.68769 21.0199 5.42379C21.3381 5.15862 21.811 5.20161 22.0762 5.51982L22.0773 5.5212L22.0786 5.52274L22.0816 5.52635L22.0891 5.53562C22.0948 5.54272 22.1019 5.55165 22.1102 5.56244C22.1269 5.58401 22.1487 5.61301 22.1748 5.64958C22.227 5.72271 22.2966 5.82611 22.3775 5.96096C22.5394 6.23078 22.7463 6.62594 22.95 7.15572C23.2513 7.9389 23.5435 9.01061 23.676 10.3991C23.7231 10.8923 23.75 11.4255 23.75 12C23.75 12 23.75 11.9999 23.75 12" fill="black"/>
<path d="M23.75 12C23.75 13.0957 23.6521 14.0415 23.5031 14.8459Z" fill="black"/>
</svg>
