<svg width="24" height="24" viewBox="0 0 24 24" fill="none" xmlns="http://www.w3.org/2000/svg">
<path d="M3.21049 3.04233C2.74667 3.58092 2.58666 4.26887 2.60662 5.25H21.3937C21.4136 4.26887 21.2536 3.58092 20.7898 3.04233C19.8922 2 18.2724 2 15.033 2H8.96727C5.72784 2 4.10813 2 3.21049 3.04233Z" fill="black"/>
<path d="M3.03365 8.89001C2.91212 8.07985 2.80597 7.37214 2.72969 6.75H3.68934L4.93934 8L3.16613 9.77321L3.03365 8.89001Z" fill="black"/>
<path d="M3.59911 12.6598L3.94874 14.9906L4.93934 14L3.59911 12.6598Z" fill="black"/>
<path d="M4.22543 16.8352L4.23365 16.89C4.30912 17.3932 4.3768 17.8443 4.44411 18.25H6.68934L7.93934 17L6 15.0607L4.22543 16.8352Z" fill="black"/>
<path d="M11.3107 18.25H12.6893L13.9393 17L12 15.0607L10.0607 17L11.3107 18.25Z" fill="black"/>
<path d="M17.3107 18.25H19.5562C19.6235 17.8443 19.6912 17.3932 19.7666 16.89L19.7748 16.8355L18 15.0607L16.0607 17L17.3107 18.25Z" fill="black"/>
<path d="M20.0515 14.9909L20.4012 12.6594L19.0607 14L20.0515 14.9909Z" fill="black"/>
<path d="M20.8341 9.77347L20.9667 8.88963C21.0882 8.07989 21.1944 7.37188 21.2706 6.75H20.3107L19.0607 8L20.8341 9.77347Z" fill="black"/>
<path d="M15.6893 6.75H14.3107L13.0607 8L15 9.93934L16.9393 8L15.6893 6.75Z" fill="black"/>
<path d="M9.68934 6.75H8.31066L7.06066 8L9 9.93934L10.9393 8L9.68934 6.75Z" fill="black"/>
<path d="M4.75809 19.75C4.95399 20.4359 5.20948 20.9145 5.62604 21.2732C6.46997 22 7.7024 22 10.1673 22H13.833C16.2979 22 17.5303 22 18.3743 21.2732C18.7908 20.9145 19.0463 20.4359 19.2422 19.75H4.75809Z" fill="black"/>
<path d="M4.06066 11L6 9.06066L7.93934 11L6 12.9393L4.06066 11Z" fill="black"/>
<path d="M7.06066 14L9 12.0607L10.9393 14L9 15.9393L7.06066 14Z" fill="black"/>
<path d="M15 15.9393L13.0607 14L15 12.0607L16.9393 14L15 15.9393Z" fill="black"/>
<path d="M12 12.9393L13.9393 11L12 9.06066L10.0607 11L12 12.9393Z" fill="black"/>
<path d="M18 12.9393L16.0607 11L18 9.06066L19.9393 11L18 12.9393Z" fill="black"/>
</svg>
