<svg width="24" height="24" viewBox="0 0 24 24" fill="none" xmlns="http://www.w3.org/2000/svg">
<path d="M2.39929 12.1502C3.44991 9.15925 6.45581 7 10 7C13.9567 7 17.2425 9.69112 17.8859 13.2263C17.2308 12.9498 16.3815 12.7207 15.5208 12.5777C13.786 12.2896 12.4605 12.8901 11.326 13.4081L11.3146 13.4133C10.1612 13.9399 9.20366 14.377 7.94462 14.2352C6.94182 14.1223 6.03898 13.8043 5.19054 13.4285C4.80692 13.2586 4.44218 13.0806 4.08037 12.9039L3.95984 12.8451C3.56515 12.6526 3.16738 12.4609 2.78125 12.3047L2.39929 12.1502Z" fill="black"/>
<path d="M2.05293 13.6282C2.01797 13.9126 2 14.2018 2 14.495C2 16.4098 2.76642 18.1569 4.02754 19.4817C4.47765 19.9546 4.7027 20.191 5.64624 20.5955C6.58979 21 7.24039 21 8.5416 21H11.4584C12.7596 21 13.4102 21 14.3538 20.5955C15.2973 20.191 15.5224 19.9546 15.9725 19.4817C17.1305 18.2652 17.8714 16.6927 17.9848 14.9612L17.6362 14.7678C17.1648 14.5064 16.2817 14.2247 15.275 14.0575C14.0363 13.8517 13.0909 14.2512 11.949 14.7726L11.8399 14.8224C10.7452 15.3233 9.45291 15.9145 7.77677 15.7258C6.5618 15.589 5.5018 15.207 4.58308 14.8C4.17233 14.6181 3.78222 14.4276 3.42327 14.2523L3.30241 14.1934C2.90397 13.9991 2.55013 13.8293 2.21875 13.6953L2.05293 13.6282Z" fill="black"/>
<path d="M12.5607 2.43934C12.9143 2.793 12.9833 3.32016 12.9967 4.25H14.3197C15.2124 4.25 16.0927 4.45784 16.8911 4.85704L17.7272 5.27508C18.4082 4.7263 19.5274 4.68818 20.5002 5.24981C21.6959 5.94017 22.2175 7.27528 21.6652 8.23186C21.1129 9.18845 19.6959 9.40427 18.5002 8.71391C17.6556 8.2263 17.1473 7.41702 17.1163 6.64665L16.2203 6.19868C15.6302 5.90361 14.9795 5.75 14.3197 5.75H13V6.48428C12.059 6.17023 11.0485 6 10 6C8.95092 6 7.94058 6.17005 7 6.48381V5.75018C7.03166 5.75018 7.06794 5.75046 7.10673 5.75075C7.20379 5.75148 7.31674 5.75233 7.41273 5.74932C7.55169 5.74497 7.74039 5.73199 7.92888 5.67364C8.13123 5.61101 8.36593 5.48561 8.53721 5.23926C8.70287 5.00099 8.75 4.73415 8.75 4.49997C8.75 4.26583 8.70288 3.99889 8.53706 3.76057C8.36561 3.51414 8.13071 3.3889 7.92838 3.32643C7.73991 3.26823 7.55124 3.25537 7.4124 3.25108C7.31696 3.24814 7.20446 3.249 7.10767 3.24974L7.07057 3.25002C7.12982 2.89616 7.23882 2.63986 7.43934 2.43934C7.87868 2 8.58579 2 10 2C11.4142 2 12.1213 2 12.5607 2.43934Z" fill="black"/>
</svg>
