<svg width="24" height="24" viewBox="0 0 24 24" fill="none" xmlns="http://www.w3.org/2000/svg">
<path fill-rule="evenodd" clip-rule="evenodd" d="M22 8.37688C22 8.78086 21.6668 9.10836 21.2557 9.10836H16.2937C15.8826 9.10836 15.5494 8.78086 15.5494 8.37688C15.5494 7.97289 15.8826 7.64539 16.2937 7.64539H21.2557C21.6668 7.64539 22 7.97289 22 8.37688Z" fill="black"/>
<path fill-rule="evenodd" clip-rule="evenodd" d="M22 12.7658C22 13.1698 21.6668 13.4973 21.2557 13.4973H17.2861C16.875 13.4973 16.5418 13.1698 16.5418 12.7658C16.5418 12.3618 16.875 12.0343 17.2861 12.0343H21.2557C21.6668 12.0343 22 12.3618 22 12.7658Z" fill="black"/>
<path d="M12.5872 8.23781L12.9508 8.59515C14.4693 10.0875 15.2285 10.8336 15.2278 11.6425C15.2276 11.9068 15.1728 12.1682 15.0666 12.411C14.7417 13.1542 13.7441 13.5444 11.7489 14.3248L11.6045 14.3813C11.0389 14.6025 10.7561 14.7132 10.5279 14.8908C10.3548 15.0256 10.2058 15.1878 10.0871 15.3708C9.93056 15.6119 9.84745 15.8997 9.68123 16.4753C9.42348 17.3678 9.2946 17.8141 9.01976 18.0121C8.81551 18.1593 8.56173 18.2242 8.3104 18.1934C7.97221 18.1521 7.63845 17.8241 6.97092 17.168L5.94386 16.1586L3.2706 18.7858C2.97993 19.0714 2.50867 19.0714 2.218 18.7858C1.92733 18.5001 1.92733 18.0369 2.218 17.7513L4.88125 15.1143L3.86422 14.1148C3.1967 13.4588 2.86293 13.1307 2.82084 12.7984C2.78956 12.5514 2.85556 12.302 3.00532 12.1012C3.20683 11.8311 3.66091 11.7045 4.56907 11.4511C5.15473 11.2878 5.44756 11.2061 5.69297 11.0523C5.87915 10.9356 6.0442 10.7891 6.18133 10.619C6.36209 10.3948 6.47465 10.1168 6.69977 9.56094L6.75724 9.41903C7.55132 7.45818 7.94835 6.47775 8.70458 6.15843C8.95161 6.05411 9.21763 6.00021 9.48649 6C10.3096 5.99934 11.0688 6.7455 12.5872 8.23781Z" fill="black"/>
<path fill-rule="evenodd" clip-rule="evenodd" d="M22 17.1547C22 17.5587 21.6668 17.8862 21.2557 17.8862H12.3241C11.9131 17.8862 11.5798 17.5587 11.5798 17.1547C11.5798 16.7507 11.9131 16.4232 12.3241 16.4232H21.2557C21.6668 16.4232 22 16.7507 22 17.1547Z" fill="black"/>
</svg>
