<svg width="24" height="24" viewBox="0 0 24 24" fill="none" xmlns="http://www.w3.org/2000/svg">
<path fill-rule="evenodd" clip-rule="evenodd" d="M21.9998 12C21.9998 17.5228 17.5226 22 11.9998 22C6.47691 22 1.99976 17.5228 1.99976 12C1.99976 6.47715 6.47691 2 11.9998 2C17.5226 2 21.9998 6.47715 21.9998 12ZM14.1094 8.41878L15.5918 9.90258C16.5977 10.9095 17.1007 11.413 16.9833 11.9557C16.866 12.4985 16.2 12.7487 14.8681 13.2491L13.9461 13.5955C13.5894 13.7295 13.411 13.7965 13.2734 13.9157C13.2131 13.9679 13.1592 14.027 13.1127 14.0918C13.0065 14.2397 12.9559 14.4236 12.8548 14.7913C12.6247 15.6276 12.5096 16.0457 12.2357 16.202C12.1202 16.2679 11.9896 16.3025 11.8567 16.3023C11.5413 16.3018 11.235 15.9951 10.6222 15.3818L10.1495 14.9086L8.53076 16.5299C8.2381 16.823 7.76323 16.8234 7.4701 16.5308C7.17697 16.2381 7.17658 15.7632 7.46924 15.4701L9.08868 13.848C9.08846 13.8482 9.0889 13.8478 9.08868 13.848L8.64238 13.4C8.03349 12.7905 7.72905 12.4858 7.72707 12.1723C7.72621 12.0368 7.7614 11.9035 7.82902 11.786C7.98544 11.5145 8.40055 11.4 9.23072 11.1711C9.59906 11.0696 9.78322 11.0188 9.93125 10.9123C9.99768 10.8644 10.0581 10.8088 10.1112 10.7465C10.2295 10.6076 10.2953 10.4281 10.4269 10.069L10.7608 9.15753C11.2543 7.81078 11.501 7.1374 12.0452 7.01734C12.5894 6.89728 13.0961 7.40445 14.1094 8.41878Z" fill="black"/>
</svg>
