<svg width="24" height="24" viewBox="0 0 24 24" fill="none" xmlns="http://www.w3.org/2000/svg">
<path d="M12.75 3C12.75 2.58579 12.4142 2.25 12 2.25C11.5858 2.25 11.25 2.58579 11.25 3V5C11.25 5.41421 11.5858 5.75 12 5.75C12.4142 5.75 12.75 5.41421 12.75 5V3Z" fill="black"/>
<path fill-rule="evenodd" clip-rule="evenodd" d="M22.75 12.0565C22.75 13.8943 22.75 15.3499 22.5969 16.4891C22.4392 17.6615 22.1071 18.6105 21.3588 19.3588C20.6104 20.1072 19.6614 20.4393 18.489 20.597C17.3498 20.7501 15.8942 20.7501 14.0565 20.7501H9.94348C8.10577 20.7501 6.65017 20.7501 5.51098 20.597C4.33856 20.4393 3.38961 20.1072 2.64124 19.3588C1.89288 18.6105 1.56076 17.6615 1.40314 16.4891C1.24997 15.3499 1.24999 13.8943 1.25 12.0565L1.25 11.7725C1.25002 11.5529 1.25011 11.3388 1.25053 11.1303C1.25132 10.7466 1.25327 10.3814 1.25806 10.034C1.27152 9.05873 1.30741 8.22316 1.40314 7.51116C1.56076 6.33873 1.89288 5.38978 2.64124 4.64142C3.38961 3.89306 4.33856 3.56094 5.51098 3.40331C6.22742 3.30699 7.069 3.27125 8.05206 3.25799C8.2173 3.25576 8.47469 3.25412 8.74859 3.25292C9.3014 3.2505 9.75 3.69873 9.75 4.25155V5.00008C9.75 6.24272 10.7574 7.25008 12 7.25008C13.2426 7.25008 14.25 6.24272 14.25 5.00008V4.25028C14.25 3.69796 14.698 3.24935 15.2503 3.25196C16.5391 3.25806 17.6086 3.28494 18.489 3.40331C19.6614 3.56094 20.6104 3.89306 21.3588 4.64142C22.1071 5.38978 22.4392 6.33873 22.5969 7.51116C22.75 8.65036 22.75 10.1059 22.75 11.9437V12.0565ZM8 9.75008C7.58579 9.75008 7.25 10.0859 7.25 10.5001C7.25 10.9143 7.58579 11.2501 8 11.2501H16C16.4142 11.2501 16.75 10.9143 16.75 10.5001C16.75 10.0859 16.4142 9.75008 16 9.75008H8ZM8 13.2501C7.58579 13.2501 7.25 13.5859 7.25 14.0001C7.25 14.4143 7.58579 14.7501 8 14.7501H13.5C13.9142 14.7501 14.25 14.4143 14.25 14.0001C14.25 13.5859 13.9142 13.2501 13.5 13.2501H8Z" fill="black"/>
</svg>
