<svg width="24" height="24" viewBox="0 0 24 24" fill="none" xmlns="http://www.w3.org/2000/svg">
<path d="M6.65376 1.63257C6.45076 1.27151 5.99349 1.14338 5.63244 1.34638C5.27138 1.54938 5.14324 2.00664 5.34624 2.3677L11.1396 12.6718L8.43226 17.4871C7.85064 16.1697 6.5327 15.2501 5 15.2501C2.92893 15.2501 1.25 16.9291 1.25 19.0001C1.25 21.0712 2.92893 22.7501 5 22.7501C6.42286 22.7501 7.66063 21.9577 8.29606 20.7901L12 14.2022L15.7039 20.79C16.3393 21.9577 17.5771 22.7501 19 22.7501C21.0711 22.7501 22.75 21.0712 22.75 19.0001C22.75 16.9291 21.0711 15.2501 19 15.2501C17.4673 15.2501 16.1494 16.1696 15.5677 17.4871L12.8604 12.6718L18.6538 2.3677C18.8568 2.00664 18.7286 1.54938 18.3676 1.34638C18.0065 1.14338 17.5492 1.27151 17.3462 1.63257L12 11.1415L6.65376 1.63257Z" fill="black"/>
</svg>
