<svg width="24" height="24" viewBox="0 0 24 24" fill="none" xmlns="http://www.w3.org/2000/svg">
<path d="M9 6C9 7.65685 10.3431 9 12 9C13.6569 9 15 7.65685 15 6C15 4.34315 13.6569 3 12 3C10.3431 3 9 4.34315 9 6Z" fill="black"/>
<path d="M2.5 18C2.5 19.6569 3.84315 21 5.5 21C7.15685 21 8.5 19.6569 8.5 18C8.5 16.3431 7.15685 15 5.5 15C3.84315 15 2.5 16.3431 2.5 18Z" fill="black"/>
<path d="M18.5 21C16.8431 21 15.5 19.6569 15.5 18C15.5 16.3431 16.8431 15 18.5 15C20.1569 15 21.5 16.3431 21.5 18C21.5 19.6569 20.1569 21 18.5 21Z" fill="black"/>
<path d="M7.20468 7.56231C7.51523 7.28821 7.54478 6.81426 7.27069 6.5037C6.99659 6.19315 6.52264 6.1636 6.21208 6.43769C4.39676 8.03991 3.25 10.3865 3.25 13C3.25 13.4142 3.58579 13.75 4 13.75C4.41421 13.75 4.75 13.4142 4.75 13C4.75 10.8347 5.69828 8.89187 7.20468 7.56231Z" fill="black"/>
<path d="M17.7879 6.43769C17.4774 6.1636 17.0034 6.19315 16.7293 6.5037C16.4552 6.81426 16.4848 7.28821 16.7953 7.56231C18.3017 8.89187 19.25 10.8347 19.25 13C19.25 13.4142 19.5858 13.75 20 13.75C20.4142 13.75 20.75 13.4142 20.75 13C20.75 10.3865 19.6032 8.03991 17.7879 6.43769Z" fill="black"/>
<path d="M10.1869 20.0217C9.7858 19.9184 9.37692 20.1599 9.27367 20.561C9.17043 20.9622 9.41192 21.3711 9.81306 21.4743C10.5129 21.6544 11.2458 21.75 12 21.75C12.7542 21.75 13.4871 21.6544 14.1869 21.4743C14.5881 21.3711 14.8296 20.9622 14.7263 20.561C14.6231 20.1599 14.2142 19.9184 13.8131 20.0217C13.2344 20.1706 12.627 20.25 12 20.25C11.373 20.25 10.7656 20.1706 10.1869 20.0217Z" fill="black"/>
</svg>
