<svg width="24" height="24" viewBox="0 0 24 24" fill="none" xmlns="http://www.w3.org/2000/svg">
<path fill-rule="evenodd" clip-rule="evenodd" d="M17.8478 3.23463C18 3.60218 18 4.06812 18 5V19C18 19.9319 18 20.3978 17.8478 20.7654C17.8142 20.8465 17.7755 20.9248 17.7321 21C17.5131 21.3792 17.1743 21.6784 16.7654 21.8478C16.3978 22 15.9319 22 15 22C14.0681 22 13.6022 22 13.2346 21.8478C12.8257 21.6784 12.4869 21.3792 12.2679 21C12.2245 20.9248 12.1858 20.8465 12.1522 20.7654C12 20.3978 12 19.9319 12 19V5C12 4.06812 12 3.60218 12.1522 3.23463C12.1858 3.15353 12.2245 3.07519 12.2679 3C12.4869 2.62082 12.8257 2.32164 13.2346 2.15224C13.6022 2 14.0681 2 15 2C15.9319 2 16.3978 2 16.7654 2.15224C17.1743 2.32164 17.5131 2.62082 17.7321 3C17.7755 3.07519 17.8142 3.15353 17.8478 3.23463ZM15.75 11C15.75 10.5858 15.4142 10.25 15 10.25C14.5858 10.25 14.25 10.5858 14.25 11V13C14.25 13.4142 14.5858 13.75 15 13.75C15.4142 13.75 15.75 13.4142 15.75 13V11Z" fill="black"/>
<path d="M10.65 21C10.5728 20.7212 10.5398 20.4498 10.5225 20.1964C10.5 19.8658 10.5 19.4721 10.5 19.0435V4.95649C10.5 4.52794 10.5 4.13424 10.5225 3.80358C10.5398 3.55021 10.5728 3.27883 10.65 3H5C4.06812 3 3.60218 3 3.23463 3.15224C2.74458 3.35523 2.35523 3.74458 2.15224 4.23463C2 4.60218 2 5.06812 2 6C2 6.93188 2 7.39782 2.15224 7.76537C2.35523 8.25542 2.74458 8.64477 3.23463 8.84776C3.60218 9 4.06812 9 5 9C4.06812 9 3.60218 9 3.23463 9.15224C2.74458 9.35523 2.35523 9.74458 2.15224 10.2346C2 10.6022 2 11.0681 2 12C2 12.9319 2 13.3978 2.15224 13.7654C2.35523 14.2554 2.74458 14.6448 3.23463 14.8478C3.60218 15 4.06812 15 5 15C4.06812 15 3.60218 15 3.23463 15.1522C2.74458 15.3552 2.35523 15.7446 2.15224 16.2346C2 16.6022 2 17.0681 2 18C2 18.9319 2 19.3978 2.15224 19.7654C2.35523 20.2554 2.74458 20.6448 3.23463 20.8478C3.60218 21 4.06812 21 5 21H10.65Z" fill="black"/>
<path d="M19.3501 20.9996C20.0549 20.9973 20.447 20.9796 20.7654 20.8478C21.2554 20.6448 21.6448 20.2554 21.8478 19.7654C22 19.3978 22 18.9319 22 18C22 17.0681 22 16.6022 21.8478 16.2346C21.6448 15.7446 21.2554 15.3552 20.7654 15.1522C20.4703 15.03 20.1119 15.0059 19.5 15.0012V19.0435C19.5 19.4721 19.5001 19.8658 19.4775 20.1964C19.4602 20.4497 19.4272 20.7209 19.3501 20.9996Z" fill="black"/>
<path d="M19.5 14.9988C20.1119 14.9941 20.4703 14.97 20.7654 14.8478C21.2554 14.6448 21.6448 14.2554 21.8478 13.7654C22 13.3978 22 12.9319 22 12C22 11.0681 22 10.6022 21.8478 10.2346C21.6448 9.74458 21.2554 9.35523 20.7654 9.15224C20.4703 9.03004 20.1119 9.00593 19.5 9.00117L19.5 14.9988Z" fill="black"/>
<path d="M19.5 8.99883C20.1119 8.99407 20.4703 8.96996 20.7654 8.84776C21.2554 8.64477 21.6448 8.25542 21.8478 7.76537C22 7.39782 22 6.93188 22 6C22 5.06812 22 4.60218 21.8478 4.23463C21.6448 3.74458 21.2554 3.35523 20.7654 3.15224C20.447 3.02038 20.0549 3.00273 19.3501 3.00037C19.4272 3.27907 19.4602 3.55032 19.4775 3.80359C19.5001 4.13424 19.5 4.52793 19.5 4.95648V8.99883Z" fill="black"/>
</svg>
