<svg width="24" height="24" viewBox="0 0 24 24" fill="none" xmlns="http://www.w3.org/2000/svg">
<path fill-rule="evenodd" clip-rule="evenodd" d="M12 22C7.28595 22 4.92893 22 3.46447 20.5355C2 19.0711 2 16.714 2 12C2 7.28595 2 4.92893 3.46447 3.46447C4.92893 2 7.28595 2 12 2C16.714 2 19.0711 2 20.5355 3.46447C22 4.92893 22 7.28595 22 12C22 16.714 22 19.0711 20.5355 20.5355C19.0711 22 16.714 22 12 22ZM4.08397 8.37596C4.42862 8.1462 4.89427 8.23933 5.12404 8.58397L6.5 10.6479L7.87596 8.58397C8.10573 8.23933 8.57138 8.1462 8.91603 8.37596C9.12957 8.51832 9.24656 8.75125 9.25 8.98984C9.25345 8.75125 9.37043 8.51832 9.58397 8.37596C9.92862 8.1462 10.3943 8.23933 10.624 8.58397L12 10.6479L13.376 8.58397C13.6057 8.23933 14.0714 8.1462 14.416 8.37596C14.6296 8.51833 14.7466 8.75127 14.75 8.98987C14.7534 8.75127 14.8704 8.51833 15.084 8.37596C15.4286 8.1462 15.8943 8.23933 16.124 8.58397L17.5 10.6479L18.876 8.58397C19.1057 8.23933 19.5714 8.1462 19.916 8.37596C20.2607 8.60573 20.3538 9.07138 20.124 9.41602L18.4014 12L20.124 14.584C20.3538 14.9286 20.2607 15.3943 19.916 15.624C19.5714 15.8538 19.1057 15.7607 18.876 15.416L17.5 13.3521L16.124 15.416C15.8943 15.7607 15.4286 15.8538 15.084 15.624C14.8704 15.4817 14.7534 15.2487 14.75 15.0101C14.7466 15.2487 14.6296 15.4817 14.416 15.624C14.0714 15.8538 13.6057 15.7607 13.376 15.416L12 13.3521L10.624 15.416C10.3943 15.7607 9.92862 15.8538 9.58397 15.624C9.37043 15.4817 9.25345 15.2488 9.25 15.0102C9.24655 15.2488 9.12957 15.4817 8.91603 15.624C8.57138 15.8538 8.10573 15.7607 7.87596 15.416L6.5 13.3521L5.12404 15.416C4.89427 15.7607 4.42862 15.8538 4.08397 15.624C3.73933 15.3943 3.6462 14.9286 3.87596 14.584L5.59861 12L3.87596 9.41602C3.6462 9.07138 3.73933 8.60573 4.08397 8.37596Z" fill="black"/>
<path d="M9.12404 9.41602L7.40139 12L9.12404 14.584C9.20713 14.7086 9.24799 14.8491 9.25 14.9885C9.25202 14.8491 9.29287 14.7086 9.37596 14.584L11.0986 12L9.37596 9.41602C9.29287 9.29139 9.25202 9.15094 9.25 9.01154C9.24799 9.15094 9.20712 9.29139 9.12404 9.41602Z" fill="black"/>
<path d="M14.624 9.41602L12.9014 12L14.624 14.584C14.7071 14.7086 14.748 14.8491 14.75 14.9885C14.752 14.8491 14.7929 14.7086 14.876 14.584L16.5986 12L14.876 9.41602C14.7929 9.29138 14.752 9.15091 14.75 9.0115C14.748 9.15091 14.7071 9.29138 14.624 9.41602Z" fill="black"/>
</svg>
