<svg width="24" height="24" viewBox="0 0 24 24" fill="none" xmlns="http://www.w3.org/2000/svg">
<path fill-rule="evenodd" clip-rule="evenodd" d="M6.2936 1.25C6.30665 1.25 6.31989 1.25001 6.33334 1.25001L17.7064 1.25C17.9776 1.24997 18.1647 1.24995 18.33 1.26512C20.1682 1.43385 21.581 2.95266 21.736 4.8109C21.75 4.97944 21.75 5.17098 21.75 5.45924L21.75 20.2598C21.75 21.0316 21.2676 21.6151 20.6559 21.8291C20.0393 22.0447 19.2904 21.8818 18.8322 21.2407C18.8155 21.2173 18.7998 21.2064 18.7886 21.2006C18.7763 21.1944 18.7632 21.1914 18.75 21.1914C18.7368 21.1914 18.7237 21.1944 18.7115 21.2006C18.7002 21.2064 18.6845 21.2173 18.6678 21.2407L18.2351 21.846C17.3735 23.0513 15.6265 23.0513 14.7649 21.846C14.5015 21.4776 13.9985 21.4776 13.7351 21.846C12.8735 23.0513 11.1265 23.0513 10.2649 21.846C10.0015 21.4776 9.49851 21.4776 9.23514 21.846C8.37351 23.0513 6.6265 23.0513 5.76486 21.846L5.33217 21.2407C5.31546 21.2173 5.29981 21.2064 5.28856 21.2006C5.27631 21.1944 5.2632 21.1914 5.25 21.1914C5.23681 21.1914 5.2237 21.1944 5.21145 21.2006C5.2002 21.2064 5.18455 21.2173 5.16784 21.2407C4.70958 21.8818 3.96074 22.0447 3.34414 21.8291C2.73237 21.6151 2.25 21.0316 2.25 20.2598V5.49727C2.25 5.48441 2.25 5.47174 2.25 5.45925C2.24998 5.17098 2.24996 4.97945 2.26401 4.8109C2.41897 2.95266 3.83179 1.43385 5.66998 1.26512C5.83534 1.24995 6.02237 1.24997 6.2936 1.25ZM6.33334 2.75001C6.00717 2.75001 5.89475 2.7508 5.80709 2.75884C4.74461 2.85637 3.85765 3.75044 3.75883 4.93555C3.75066 5.0335 3.75 5.15739 3.75 5.49727V20.2598C3.75 20.3208 3.76677 20.3522 3.77879 20.3687C3.79348 20.3888 3.8149 20.4046 3.83932 20.4132C3.8637 20.4217 3.88214 20.42 3.89223 20.4171C3.8973 20.4156 3.91821 20.4094 3.94756 20.3684C4.59285 19.4657 5.90716 19.4657 6.55245 20.3684L6.98514 20.9737C7.24851 21.3421 7.7515 21.3421 8.01487 20.9737C8.8765 19.7683 10.6235 19.7683 11.4851 20.9737C11.7485 21.3421 12.2515 21.3421 12.5149 20.9737C13.3765 19.7683 15.1235 19.7683 15.9851 20.9737C16.2485 21.3421 16.7515 21.3421 17.0149 20.9737L17.4476 20.3684C18.0928 19.4657 19.4072 19.4657 20.0525 20.3684C20.0818 20.4095 20.1026 20.4155 20.1076 20.417C20.1177 20.42 20.1363 20.4217 20.1607 20.4132C20.1851 20.4046 20.2065 20.3888 20.2212 20.3687C20.2332 20.3522 20.25 20.3208 20.25 20.2598V5.49727C20.25 5.15739 20.2493 5.03349 20.2412 4.93554C20.1424 3.75044 19.2554 2.85637 18.1929 2.75884C18.1053 2.7508 17.9928 2.75001 17.6667 2.75001H6.33334ZM9.46969 7.46968C9.76258 7.17678 10.2375 7.17678 10.5304 7.46968L12 8.93936L13.4697 7.46969C13.7626 7.1768 14.2375 7.1768 14.5304 7.46969C14.8232 7.76259 14.8232 8.23746 14.5304 8.53035L13.0607 10L14.5303 11.4697C14.8232 11.7626 14.8232 12.2374 14.5303 12.5303C14.2374 12.8232 13.7626 12.8232 13.4697 12.5303L12 11.0607L10.5304 12.5303C10.2375 12.8232 9.7626 12.8232 9.46971 12.5303C9.17682 12.2374 9.17682 11.7626 9.46971 11.4697L10.9394 10L9.46969 8.53034C9.1768 8.23744 9.1768 7.76257 9.46969 7.46968ZM6.75 15.5C6.75 15.0858 7.08579 14.75 7.5 14.75H16.5C16.9142 14.75 17.25 15.0858 17.25 15.5C17.25 15.9142 16.9142 16.25 16.5 16.25H7.5C7.08579 16.25 6.75 15.9142 6.75 15.5Z" fill="black"/>
</svg>
