<svg width="24" height="24" viewBox="0 0 24 24" fill="none" xmlns="http://www.w3.org/2000/svg">
<path fill-rule="evenodd" clip-rule="evenodd" d="M9.94358 3.25H14.0564C15.8942 3.24998 17.3498 3.24997 18.489 3.40314C19.6614 3.56076 20.6104 3.89288 21.3588 4.64124C22.0368 5.31932 22.374 6.16313 22.5484 7.19112C22.6758 7.94158 22.7222 8.82957 22.7395 9.87437C22.7464 9.91522 22.75 9.95719 22.75 10C22.75 10.0353 22.7476 10.07 22.7428 10.104C22.7464 10.3904 22.7482 10.6882 22.7491 10.9978C22.7503 11.412 22.4155 11.7488 22.0013 11.75C21.5871 11.7512 21.2503 11.4164 21.2491 11.0022C21.2488 10.9168 21.2485 10.8328 21.2481 10.75H2.75199C2.75009 11.1384 2.75 11.5541 2.75 12C2.75 13.9068 2.75159 15.2615 2.88976 16.2892C3.02502 17.2952 3.27869 17.8749 3.7019 18.2981C4.12511 18.7213 4.70476 18.975 5.71085 19.1102C6.73851 19.2484 8.09318 19.25 10 19.25H11.5C11.9142 19.25 12.25 19.5858 12.25 20C12.25 20.4142 11.9142 20.75 11.5 20.75H9.94359C8.10583 20.75 6.65019 20.75 5.51098 20.5969C4.33856 20.4392 3.38961 20.1071 2.64124 19.3588C1.89288 18.6104 1.56076 17.6614 1.40314 16.489C1.24997 15.3498 1.24998 13.8942 1.25 12.0564V11.9436C1.24999 11.2818 1.24999 10.6696 1.25714 10.1039C1.25243 10.0699 1.25 10.0352 1.25 10C1.25 9.95716 1.25359 9.91517 1.26049 9.87429C1.27564 8.96711 1.31267 8.18385 1.40314 7.51098C1.56076 6.33856 1.89288 5.38961 2.64124 4.64124C3.38961 3.89288 4.33856 3.56076 5.51098 3.40314C6.65019 3.24997 8.10582 3.24998 9.94358 3.25ZM2.77607 9.25H21.2238C21.1999 8.53519 21.1547 7.9438 21.0696 7.44205C20.9267 6.60017 20.6831 6.08692 20.2981 5.7019C19.8749 5.27869 19.2952 5.02502 18.2892 4.88976C17.2615 4.75159 15.9068 4.75 14 4.75H10C8.09318 4.75 6.73851 4.75159 5.71085 4.88976C4.70476 5.02502 4.12511 5.27869 3.7019 5.7019C3.27869 6.12511 3.02502 6.70476 2.88976 7.71085C2.82987 8.15634 2.79564 8.66327 2.77607 9.25ZM15.5 13.25C15.9142 13.25 16.25 13.5858 16.25 14V18.1893L16.9697 17.4697C17.2626 17.1768 17.7374 17.1768 18.0303 17.4697C18.3232 17.7626 18.3232 18.2374 18.0303 18.5303L16.0303 20.5303C15.7374 20.8232 15.2626 20.8232 14.9697 20.5303L12.9697 18.5303C12.6768 18.2374 12.6768 17.7626 12.9697 17.4697C13.2626 17.1768 13.7374 17.1768 14.0303 17.4697L14.75 18.1893V14C14.75 13.5858 15.0858 13.25 15.5 13.25ZM19.4697 13.4697C19.7626 13.1768 20.2374 13.1768 20.5303 13.4697L22.5303 15.4697C22.8232 15.7626 22.8232 16.2374 22.5303 16.5303C22.2374 16.8232 21.7626 16.8232 21.4697 16.5303L20.75 15.8107V20C20.75 20.4142 20.4142 20.75 20 20.75C19.5858 20.75 19.25 20.4142 19.25 20V15.8107L18.5303 16.5303C18.2374 16.8232 17.7626 16.8232 17.4697 16.5303C17.1768 16.2374 17.1768 15.7626 17.4697 15.4697L19.4697 13.4697ZM5.25 16C5.25 15.5858 5.58579 15.25 6 15.25H10C10.4142 15.25 10.75 15.5858 10.75 16C10.75 16.4142 10.4142 16.75 10 16.75H6C5.58579 16.75 5.25 16.4142 5.25 16Z" fill="black"/>
</svg>
