<svg width="24" height="24" viewBox="0 0 24 24" fill="none" xmlns="http://www.w3.org/2000/svg">
<path fill-rule="evenodd" clip-rule="evenodd" d="M9.94358 3.25H14.0564C15.8942 3.24998 17.3498 3.24997 18.489 3.40314C19.6614 3.56076 20.6104 3.89288 21.3588 4.64124C22.1071 5.38961 22.4392 6.33856 22.5969 7.51098C22.6873 8.18385 22.7244 8.9671 22.7395 9.87428C22.7464 9.91516 22.75 9.95716 22.75 10C22.75 10.0353 22.7476 10.0699 22.7429 10.1039C22.75 10.6696 22.75 11.2818 22.75 11.9436V12C22.75 12.4142 22.4142 12.75 22 12.75C21.5858 12.75 21.25 12.4142 21.25 12C21.25 11.5541 21.2499 11.1384 21.248 10.75H2.75199C2.75009 11.1384 2.75 11.5541 2.75 12C2.75 13.9068 2.75159 15.2615 2.88976 16.2892C3.02502 17.2952 3.27869 17.8749 3.7019 18.2981C4.12511 18.7213 4.70476 18.975 5.71085 19.1102C6.73851 19.2484 8.09318 19.25 10 19.25H14C14.4142 19.25 14.75 19.5858 14.75 20C14.75 20.4142 14.4142 20.75 14 20.75H9.94359C8.10583 20.75 6.65019 20.75 5.51098 20.5969C4.33856 20.4392 3.38961 20.1071 2.64124 19.3588C1.89288 18.6104 1.56076 17.6614 1.40314 16.489C1.24997 15.3498 1.24998 13.8942 1.25 12.0564V11.9436C1.24999 11.2818 1.24999 10.6696 1.25714 10.1039C1.25243 10.0699 1.25 10.0352 1.25 10C1.25 9.95716 1.25359 9.91517 1.26049 9.87429C1.27564 8.96711 1.31267 8.18385 1.40314 7.51098C1.56076 6.33856 1.89288 5.38961 2.64124 4.64124C3.38961 3.89288 4.33856 3.56076 5.51098 3.40314C6.65019 3.24997 8.10582 3.24998 9.94358 3.25ZM2.77607 9.25H21.2239C21.2044 8.66327 21.1701 8.15634 21.1102 7.71085C20.975 6.70476 20.7213 6.12511 20.2981 5.7019C19.8749 5.27869 19.2952 5.02502 18.2892 4.88976C17.2615 4.75159 15.9068 4.75 14 4.75H10C8.09318 4.75 6.73851 4.75159 5.71085 4.88976C4.70476 5.02502 4.12511 5.27869 3.7019 5.7019C3.27869 6.12511 3.02502 6.70476 2.88976 7.71085C2.82987 8.15634 2.79564 8.66327 2.77607 9.25ZM18.4697 13.4697C18.7626 13.1768 19.2374 13.1768 19.5303 13.4697L21.5303 15.4697C21.8232 15.7626 21.8232 16.2374 21.5303 16.5303C21.2374 16.8232 20.7626 16.8232 20.4697 16.5303L19.75 15.8107V20C19.75 20.4142 19.4142 20.75 19 20.75C18.5858 20.75 18.25 20.4142 18.25 20V15.8107L17.5303 16.5303C17.2374 16.8232 16.7626 16.8232 16.4697 16.5303C16.1768 16.2374 16.1768 15.7626 16.4697 15.4697L18.4697 13.4697ZM5.25 16C5.25 15.5858 5.58579 15.25 6 15.25H10C10.4142 15.25 10.75 15.5858 10.75 16C10.75 16.4142 10.4142 16.75 10 16.75H6C5.58579 16.75 5.25 16.4142 5.25 16ZM11.75 16C11.75 15.5858 12.0858 15.25 12.5 15.25H13C13.4142 15.25 13.75 15.5858 13.75 16C13.75 16.4142 13.4142 16.75 13 16.75H12.5C12.0858 16.75 11.75 16.4142 11.75 16Z" fill="black"/>
</svg>
