<svg width="24" height="24" viewBox="0 0 24 24" fill="none" xmlns="http://www.w3.org/2000/svg">
<path fill-rule="evenodd" clip-rule="evenodd" d="M10.5936 2.31883C11.483 1.89372 12.517 1.89372 13.4064 2.31883C13.7928 2.50351 14.1468 2.80551 14.6371 3.22367C14.6625 3.24538 14.6884 3.2674 14.7146 3.28973C14.9526 3.49262 15.0276 3.555 15.1035 3.60585C15.2965 3.73519 15.5132 3.82495 15.7411 3.86995C15.8307 3.88764 15.9278 3.89654 16.2396 3.92143C16.2739 3.92417 16.3078 3.92685 16.3411 3.92949C16.9834 3.98046 17.4473 4.01727 17.8511 4.15991C18.7807 4.48822 19.5118 5.21935 19.8401 6.14885C19.9827 6.55267 20.0195 7.01656 20.0705 7.6589C20.0732 7.69224 20.0758 7.72607 20.0786 7.76039C20.1035 8.0722 20.1124 8.16933 20.1301 8.25894C20.175 8.48684 20.2648 8.70355 20.3941 8.89652C20.445 8.97239 20.5074 9.04737 20.7103 9.28545C20.7326 9.31166 20.7546 9.33748 20.7763 9.36293C21.1945 9.85316 21.4965 10.2072 21.6812 10.5936C22.1063 11.483 22.1063 12.517 21.6812 13.4064C21.4965 13.7928 21.1945 14.1468 20.7763 14.6371C20.7546 14.6625 20.7326 14.6883 20.7103 14.7146C20.5074 14.9526 20.445 15.0276 20.3941 15.1035C20.2648 15.2965 20.175 15.5132 20.1301 15.7411C20.1124 15.8307 20.1035 15.9278 20.0786 16.2396C20.0758 16.2739 20.0732 16.3078 20.0705 16.3411C20.0195 16.9834 19.9827 17.4473 19.8401 17.8511C19.5118 18.7807 18.7807 19.5118 17.8511 19.8401C17.4473 19.9827 16.9834 20.0195 16.3411 20.0705C16.3078 20.0732 16.2739 20.0758 16.2396 20.0786C15.9278 20.1035 15.8307 20.1124 15.7411 20.1301C15.5132 20.175 15.2965 20.2648 15.1035 20.3941C15.0276 20.445 14.9526 20.5074 14.7146 20.7103C14.6883 20.7326 14.6625 20.7546 14.6371 20.7763C14.1468 21.1945 13.7928 21.4965 13.4064 21.6812C12.517 22.1063 11.483 22.1063 10.5936 21.6812C10.2072 21.4965 9.85315 21.1945 9.3629 20.7763C9.33746 20.7546 9.31165 20.7326 9.28545 20.7103C9.04736 20.5074 8.97239 20.445 8.89652 20.3941C8.70355 20.2648 8.48684 20.175 8.25894 20.1301C8.16933 20.1124 8.0722 20.1035 7.76039 20.0786C7.72607 20.0758 7.69225 20.0732 7.6589 20.0705C7.01656 20.0195 6.55267 19.9827 6.14885 19.8401C5.21935 19.5118 4.48822 18.7807 4.15991 17.8511C4.01727 17.4473 3.98046 16.9834 3.92949 16.3411C3.92685 16.3078 3.92417 16.2739 3.92143 16.2396C3.89654 15.9278 3.88764 15.8307 3.86995 15.7411C3.82495 15.5132 3.73519 15.2965 3.60585 15.1035C3.555 15.0276 3.49262 14.9526 3.28973 14.7146C3.2674 14.6884 3.24538 14.6625 3.22368 14.6371C2.80551 14.1469 2.50351 13.7928 2.31883 13.4064C1.89372 12.517 1.89372 11.483 2.31883 10.5936C2.50351 10.2072 2.80551 9.85315 3.22367 9.36291C3.24537 9.33747 3.26739 9.31165 3.28973 9.28545C3.49262 9.04736 3.555 8.97239 3.60585 8.89652C3.73519 8.70355 3.82495 8.48684 3.86995 8.25894C3.88764 8.16933 3.89654 8.0722 3.92143 7.76039C3.92417 7.72607 3.92685 7.69225 3.92949 7.6589C3.98046 7.01657 4.01727 6.55267 4.15991 6.14885C4.48822 5.21935 5.21935 4.48822 6.14885 4.15991C6.55267 4.01727 7.01657 3.98046 7.6589 3.92949C7.69225 3.92685 7.72607 3.92417 7.76039 3.92143C8.0722 3.89654 8.16933 3.88764 8.25894 3.86995C8.48684 3.82495 8.70355 3.73519 8.89652 3.60585C8.97239 3.555 9.04736 3.49262 9.28545 3.28973C9.31165 3.26739 9.33746 3.24538 9.36291 3.22367C9.85315 2.80551 10.2072 2.50351 10.5936 2.31883ZM12.7573 3.6769C12.2784 3.44799 11.7216 3.44799 11.2427 3.6769C11.0576 3.76539 10.8624 3.92352 10.2618 4.43537C10.2519 4.44378 10.2422 4.45207 10.2326 4.46026C10.0354 4.6283 9.89156 4.75097 9.73456 4.8562C9.37619 5.09639 8.97373 5.2631 8.55048 5.34666C8.36505 5.38327 8.17657 5.39827 7.91837 5.41883C7.90579 5.41983 7.89304 5.42084 7.88012 5.42187C7.09348 5.48465 6.84366 5.51084 6.65016 5.57919C6.14966 5.75597 5.75597 6.14966 5.57919 6.65016C5.51084 6.84366 5.48465 7.09348 5.42187 7.88012C5.42084 7.89304 5.41983 7.90579 5.41883 7.91837C5.39827 8.17657 5.38327 8.36505 5.34666 8.55048C5.2631 8.97373 5.09639 9.37619 4.8562 9.73456C4.75097 9.89156 4.6283 10.0354 4.46025 10.2326C4.45207 10.2422 4.44377 10.2519 4.43537 10.2618C3.92352 10.8624 3.76539 11.0576 3.6769 11.2427C3.44799 11.7216 3.44799 12.2784 3.6769 12.7573C3.76539 12.9424 3.92352 13.1376 4.43537 13.7382C4.44378 13.7481 4.45207 13.7578 4.46026 13.7674C4.6283 13.9646 4.75097 14.1084 4.8562 14.2654C5.09639 14.6238 5.2631 15.0263 5.34666 15.4495C5.38327 15.6349 5.39827 15.8234 5.41883 16.0816C5.41983 16.0942 5.42084 16.107 5.42187 16.1199C5.48465 16.9065 5.51084 17.1563 5.57919 17.3498C5.75597 17.8503 6.14966 18.244 6.65016 18.4208C6.84366 18.4892 7.09348 18.5154 7.88012 18.5781L7.91836 18.5812C8.17658 18.6017 8.36506 18.6167 8.55048 18.6533C8.97373 18.7369 9.37619 18.9036 9.73456 19.1438C9.89156 19.249 10.0354 19.3717 10.2326 19.5397L10.2618 19.5646C10.8624 20.0765 11.0576 20.2346 11.2427 20.3231C11.7216 20.552 12.2784 20.552 12.7573 20.3231C12.9424 20.2346 13.1376 20.0765 13.7382 19.5646L13.7675 19.5397C13.9646 19.3717 14.1084 19.249 14.2654 19.1438C14.6238 18.9036 15.0263 18.7369 15.4495 18.6533C15.6349 18.6167 15.8234 18.6017 16.0816 18.5812L16.1199 18.5781C16.9065 18.5154 17.1563 18.4892 17.3498 18.4208C17.8503 18.244 18.244 17.8503 18.4208 17.3498C18.4892 17.1563 18.5154 16.9065 18.5781 16.1199L18.5812 16.0816C18.6017 15.8234 18.6167 15.6349 18.6533 15.4495C18.7369 15.0263 18.9036 14.6238 19.1438 14.2654C19.249 14.1084 19.3717 13.9646 19.5397 13.7675L19.5646 13.7382C20.0765 13.1376 20.2346 12.9424 20.3231 12.7573C20.552 12.2784 20.552 11.7216 20.3231 11.2427C20.2346 11.0576 20.0765 10.8624 19.5646 10.2618L19.5397 10.2325C19.3717 10.0354 19.249 9.89155 19.1438 9.73456C18.9036 9.37619 18.7369 8.97373 18.6533 8.55048C18.6167 8.36505 18.6017 8.17658 18.5812 7.91836L18.5781 7.88012C18.5154 7.09348 18.4892 6.84366 18.4208 6.65016C18.244 6.14966 17.8503 5.75597 17.3498 5.57919C17.1563 5.51084 16.9065 5.48465 16.1199 5.42187C16.107 5.42084 16.0942 5.41983 16.0816 5.41883C15.8234 5.39827 15.6349 5.38327 15.4495 5.34666C15.0263 5.2631 14.6238 5.09639 14.2654 4.8562C14.1084 4.75097 13.9646 4.6283 13.7674 4.46025C13.7578 4.45207 13.7481 4.44377 13.7382 4.43537C13.1376 3.92352 12.9424 3.76539 12.7573 3.6769Z" fill="black"/>
<path fill-rule="evenodd" clip-rule="evenodd" d="M15.5426 8.45739C15.8365 8.7513 15.8365 9.22783 15.5426 9.52174L9.52174 15.5426C9.22783 15.8365 8.7513 15.8365 8.45739 15.5426C8.16348 15.2487 8.16348 14.7722 8.45739 14.4783L14.4783 8.45739C14.7722 8.16348 15.2487 8.16348 15.5426 8.45739Z" fill="black"/>
<path d="M15.5122 14.5087C15.5122 15.0629 15.0629 15.5122 14.5087 15.5122C13.9545 15.5122 13.5052 15.0629 13.5052 14.5087C13.5052 13.9545 13.9545 13.5052 14.5087 13.5052C15.0629 13.5052 15.5122 13.9545 15.5122 14.5087Z" fill="black"/>
<path d="M10.4948 9.49131C10.4948 10.0455 10.0455 10.4948 9.49131 10.4948C8.9371 10.4948 8.48783 10.0455 8.48783 9.49131C8.48783 8.9371 8.9371 8.48783 9.49131 8.48783C10.0455 8.48783 10.4948 8.9371 10.4948 9.49131Z" fill="black"/>
</svg>
