<svg width="24" height="24" viewBox="0 0 24 24" fill="none" xmlns="http://www.w3.org/2000/svg">
<path opacity="0.5" fill-rule="evenodd" clip-rule="evenodd" d="M1.25 21C1.25 20.5858 1.58579 20.25 2 20.25L22 20.25C22.4142 20.25 22.75 20.5858 22.75 21C22.75 21.4142 22.4142 21.75 22 21.75L2 21.75C1.58579 21.75 1.25 21.4142 1.25 21ZM1.25 3C1.25 2.58579 1.58579 2.25 2 2.25L22 2.25C22.4142 2.25 22.75 2.58579 22.75 3C22.75 3.41421 22.4142 3.75 22 3.75L2 3.75C1.58579 3.75 1.25 3.41421 1.25 3Z" fill="black"/>
<path d="M4 12C4 13.8856 4 14.8284 4.58579 15.4142C5.17157 16 6.11438 16 8 16L16 16C17.8856 16 18.8284 16 19.4142 15.4142C20 14.8284 20 13.8856 20 12C20 10.1144 20 9.17157 19.4142 8.58579C18.8284 8 17.8856 8 16 8H8C6.11438 8 5.17157 8 4.58579 8.58579C4 9.17157 4 10.1144 4 12Z" fill="black"/>
</svg>
