<svg width="24" height="24" viewBox="0 0 24 24" fill="none" xmlns="http://www.w3.org/2000/svg">
<path d="M10.2413 5.75308L11.3329 6.84476L17.1552 12.667L18.2469 13.7587C18.8498 14.3616 19.8273 14.3616 20.4302 13.7587C21.0332 13.1558 21.0332 12.1783 20.4302 11.5754L19.3386 10.4837L20.7941 9.02812C22.4019 7.42034 22.4019 4.81361 20.7941 3.20583C19.1864 1.59806 16.5796 1.59806 14.9719 3.20583L13.5163 4.6614L12.4246 3.56973C11.8217 2.96681 10.8442 2.96681 10.2413 3.56973C9.63833 4.17264 9.63833 5.15017 10.2413 5.75308Z" fill="black"/>
<path opacity="0.5" d="M4.70889 13.4688C4.2529 13.9248 4.02489 14.1528 3.88016 14.4259C3.78362 14.608 3.71499 14.8037 3.67658 15.0062C3.61899 15.3099 3.6546 15.6304 3.72581 16.2713L3.77862 16.7466C3.79806 16.9215 3.80777 17.0089 3.81022 17.0928C3.82504 17.6013 3.65107 18.0973 3.32186 18.4851C3.26753 18.549 3.20532 18.6113 3.0809 18.7357L2.45219 19.3644C1.84927 19.9673 1.84927 20.9448 2.45219 21.5477C3.0551 22.1507 4.03263 22.1507 4.63554 21.5477L5.26429 20.919C5.38869 20.7946 5.45089 20.7324 5.51488 20.6781C5.90267 20.3489 6.39862 20.1749 6.90709 20.1897C6.99099 20.1922 7.07844 20.2019 7.25332 20.2213L7.72863 20.2741C8.36957 20.3453 8.69004 20.3809 8.99371 20.3234C9.19627 20.2849 9.3919 20.2163 9.57407 20.1198C9.84717 19.975 10.0752 19.747 10.5312 19.291L11.9696 17.8525L13.0303 16.7919L13.9696 15.8525L15.0303 14.7919L17.1552 12.667L11.3329 6.84473L4.70889 13.4688Z" fill="black"/>
<path d="M12.1162 13.9991L13.9696 15.8525L15.0303 14.7919L13.1768 12.9384C12.8839 12.6455 12.409 12.6455 12.1162 12.9384C11.8233 13.2313 11.8233 13.7062 12.1162 13.9991Z" fill="black"/>
<path d="M10.1162 15.9991L11.9696 17.8525L13.0303 16.7919L11.1768 14.9384C10.8839 14.6455 10.409 14.6455 10.1162 14.9384C9.82326 15.2313 9.82326 15.7062 10.1162 15.9991Z" fill="black"/>
</svg>
