<svg width="24" height="24" viewBox="0 0 24 24" fill="none" xmlns="http://www.w3.org/2000/svg">
<path opacity="0.5" d="M6 2H8.25H9.75H11.25H12.75H14.25H15.75H17.25L18.75 2.00008C19.9896 2.00126 20.6376 2.02062 21.1111 2.33706C21.3295 2.48298 21.517 2.67048 21.6629 2.88886C22 3.39331 22 4.09554 22 5.5C22 6.90446 22 7.60669 21.6629 8.11114C21.517 8.32952 21.3295 8.51702 21.1111 8.66294C20.6067 9 19.9045 9 18.5 9H11C10.0572 9 9.58579 9 9.29289 9.29289C9 9.58579 9 10.0572 9 11V18.5C9 19.9045 9 20.6067 8.66294 21.1111C8.51702 21.3295 8.32952 21.517 8.11114 21.6629C7.60669 22 6.90446 22 5.5 22C4.09554 22 3.39331 22 2.88886 21.6629C2.67048 21.517 2.48298 21.3295 2.33706 21.1111C2.02062 20.6376 2.00126 19.9896 2.00008 18.75L2 17.25V15.75V14.25V12.75V11.25V9.75V8.25V6C2 4.11438 2 3.17157 2.58579 2.58579C3.17157 2 4.11438 2 6 2Z" fill="black"/>
<path d="M4 17.25H2L2.00008 18.75H4C4.41421 18.75 4.75 18.4142 4.75 18C4.75 17.5858 4.41421 17.25 4 17.25Z" fill="black"/>
<path d="M5 14.25L2 14.25V15.75L5 15.75C5.41421 15.75 5.75 15.4142 5.75 15C5.75 14.5858 5.41421 14.25 5 14.25Z" fill="black"/>
<path d="M4 11.25H2V12.75H4C4.41421 12.75 4.75 12.4142 4.75 12C4.75 11.5858 4.41421 11.25 4 11.25Z" fill="black"/>
<path d="M5 8.25H2V9.75H5C5.41421 9.75 5.75 9.41421 5.75 9C5.75 8.58579 5.41421 8.25 5 8.25Z" fill="black"/>
<path d="M9.75 5L9.75 2H8.25L8.25 5C8.25 5.41421 8.58579 5.75 9 5.75C9.41421 5.75 9.75 5.41421 9.75 5Z" fill="black"/>
<path d="M12.75 4V2H11.25V4C11.25 4.41421 11.5858 4.75 12 4.75C12.4142 4.75 12.75 4.41421 12.75 4Z" fill="black"/>
<path d="M15.75 5V2H14.25V5C14.25 5.41421 14.5858 5.75 15 5.75C15.4142 5.75 15.75 5.41421 15.75 5Z" fill="black"/>
<path d="M18.75 4V2.00008L17.25 2V4C17.25 4.41421 17.5858 4.75 18 4.75C18.4142 4.75 18.75 4.41421 18.75 4Z" fill="black"/>
</svg>
