<svg width="24" height="24" viewBox="0 0 24 24" fill="none" xmlns="http://www.w3.org/2000/svg">
<path opacity="0.5" d="M2 12C2 7.28595 2 4.92893 3.46447 3.46447C4.92893 2 7.28595 2 12 2C16.714 2 19.0711 2 20.5355 3.46447C22 4.92893 22 7.28595 22 12C22 16.714 22 19.0711 20.5355 20.5355C19.0711 22 16.714 22 12 22C7.28595 22 4.92893 22 3.46447 20.5355C2 19.0711 2 16.714 2 12Z" stroke="black" stroke-width="1.5"/>
<path d="M12.75 6.5C12.75 6.08579 12.4142 5.75 12 5.75C11.5858 5.75 11.25 6.08579 11.25 6.5H12.75ZM18 16.5L18.5303 17.0303C18.8232 16.7374 18.8232 16.2626 18.5303 15.9697L18 16.5ZM15.9697 17.4697C15.6768 17.7626 15.6768 18.2374 15.9697 18.5303C16.2626 18.8232 16.7374 18.8232 17.0303 18.5303L15.9697 17.4697ZM17.0303 14.4697C16.7374 14.1768 16.2626 14.1768 15.9697 14.4697C15.6768 14.7626 15.6768 15.2374 15.9697 15.5303L17.0303 14.4697ZM11.25 6.5V12.5H12.75V6.5H11.25ZM16 17.25H18V15.75H16V17.25ZM17.4697 15.9697L15.9697 17.4697L17.0303 18.5303L18.5303 17.0303L17.4697 15.9697ZM18.5303 15.9697L17.0303 14.4697L15.9697 15.5303L17.4697 17.0303L18.5303 15.9697ZM11.25 12.5C11.25 15.1234 13.3766 17.25 16 17.25V15.75C14.2051 15.75 12.75 14.2949 12.75 12.5H11.25Z" fill="black"/>
<path opacity="0.5" d="M12.75 6.5C12.75 6.08579 12.4142 5.75 12 5.75C11.5858 5.75 11.25 6.08579 11.25 6.5H12.75ZM6 16.5L5.46967 15.9697C5.17678 16.2626 5.17678 16.7374 5.46967 17.0303L6 16.5ZM6.96967 18.5303C7.26256 18.8232 7.73744 18.8232 8.03033 18.5303C8.32322 18.2374 8.32322 17.7626 8.03033 17.4697L6.96967 18.5303ZM8.03033 15.5303C8.32322 15.2374 8.32322 14.7626 8.03033 14.4697C7.73744 14.1768 7.26256 14.1768 6.96967 14.4697L8.03033 15.5303ZM11.25 6.5V12.5H12.75V6.5H11.25ZM8 15.75H6V17.25H8V15.75ZM5.46967 17.0303L6.96967 18.5303L8.03033 17.4697L6.53033 15.9697L5.46967 17.0303ZM6.53033 17.0303L8.03033 15.5303L6.96967 14.4697L5.46967 15.9697L6.53033 17.0303ZM11.25 12.5C11.25 14.2949 9.79493 15.75 8 15.75V17.25C10.6234 17.25 12.75 15.1234 12.75 12.5H11.25Z" fill="black"/>
</svg>
