<svg width="24" height="24" viewBox="0 0 24 24" fill="none" xmlns="http://www.w3.org/2000/svg">
<path opacity="0.5" d="M18 8L18.9487 8.31623C19.9387 8.64624 20.4337 8.81124 20.7169 9.20407C21 9.5969 21 10.1187 21 11.1623V16.829C21 18.1199 21 18.7653 20.6603 19.18C20.5449 19.3208 20.4048 19.4394 20.247 19.5301C19.7821 19.797 19.1455 19.6909 17.8721 19.4787C16.6157 19.2693 15.9875 19.1646 15.3648 19.2167C15.1463 19.235 14.9292 19.2676 14.715 19.3144C14.1046 19.4477 13.5299 19.735 12.3806 20.3097C10.8809 21.0596 10.131 21.4345 9.33284 21.5501C9.09242 21.5849 8.8498 21.6021 8.60688 21.6016C7.80035 21.6001 7.01186 21.3373 5.43488 20.8116L5.05132 20.6838C4.06129 20.3538 3.56627 20.1888 3.28314 19.7959C3 19.4031 3 18.8813 3 17.8377V12.908C3 11.2491 3 10.4197 3.48841 9.97358C3.57388 9.89552 3.66809 9.82762 3.76917 9.77122C4.34681 9.44894 5.13369 9.71123 6.70746 10.2358" stroke="black" stroke-width="1.5"/>
<path d="M6 7.70031C6 4.55211 8.68629 2 12 2C15.3137 2 18 4.55211 18 7.70031C18 10.8238 16.085 14.4687 13.0972 15.7721C12.4007 16.076 11.5993 16.076 10.9028 15.7721C7.91499 14.4687 6 10.8238 6 7.70031Z" stroke="black" stroke-width="1.5"/>
<circle cx="12" cy="8" r="2" stroke="black" stroke-width="1.5"/>
</svg>
