<svg width="24" height="24" viewBox="0 0 24 24" fill="none" xmlns="http://www.w3.org/2000/svg">
<path opacity="0.5" d="M6.14214 6.14214C8.90356 3.38071 10.2843 2 12 2C13.7157 2 15.0964 3.38071 17.8579 6.14214C20.6193 8.90356 22 10.2843 22 12C22 13.7157 20.6193 15.0964 17.8579 17.8579C15.0964 20.6193 13.7157 22 12 22C10.2843 22 8.90356 20.6193 6.14214 17.8579C3.38071 15.0964 2 13.7157 2 12C2 10.2843 3.38071 8.90356 6.14214 6.14214Z" stroke="black" stroke-width="1.5"/>
<path d="M8.25 14C8.25 14.4142 8.58579 14.75 9 14.75C9.41421 14.75 9.75 14.4142 9.75 14H8.25ZM15 12L15.5303 12.5303C15.8232 12.2374 15.8232 11.7626 15.5303 11.4697L15 12ZM13.5303 9.46967C13.2374 9.17678 12.7626 9.17678 12.4697 9.46967C12.1768 9.76256 12.1768 10.2374 12.4697 10.5303L13.5303 9.46967ZM12.4697 13.4697C12.1768 13.7626 12.1768 14.2374 12.4697 14.5303C12.7626 14.8232 13.2374 14.8232 13.5303 14.5303L12.4697 13.4697ZM11 12.75H15V11.25H11V12.75ZM15.5303 11.4697L13.5303 9.46967L12.4697 10.5303L14.4697 12.5303L15.5303 11.4697ZM14.4697 11.4697L12.4697 13.4697L13.5303 14.5303L15.5303 12.5303L14.4697 11.4697ZM9.75 14C9.75 13.5074 9.75159 13.2134 9.77992 13.0027C9.79291 12.9061 9.8082 12.8577 9.81716 12.836C9.81923 12.8309 9.82085 12.8276 9.82186 12.8257C9.82286 12.8238 9.82341 12.8229 9.82347 12.8228C9.82351 12.8228 9.82335 12.823 9.82307 12.8234C9.82279 12.8237 9.82277 12.8237 9.82322 12.8232L8.76256 11.7626C8.45354 12.0716 8.34109 12.4473 8.2933 12.8028C8.24841 13.1367 8.25 13.5498 8.25 14H9.75ZM11 11.25C10.5498 11.25 10.1367 11.2484 9.80279 11.2933C9.44731 11.3411 9.07159 11.4535 8.76256 11.7626L9.82322 12.8232C9.82368 12.8228 9.8237 12.8228 9.82335 12.8231C9.823 12.8234 9.82277 12.8235 9.82283 12.8235C9.82292 12.8234 9.82376 12.8229 9.82567 12.8219C9.8276 12.8209 9.83092 12.8192 9.83596 12.8172C9.85774 12.8082 9.90611 12.7929 10.0027 12.7799C10.2134 12.7516 10.5074 12.75 11 12.75V11.25Z" fill="black"/>
</svg>
