<svg width="24" height="24" viewBox="0 0 24 24" fill="none" xmlns="http://www.w3.org/2000/svg">
<path d="M11.4096 5.50506C13.0796 3.83502 13.9146 3 14.9522 3C15.9899 3 16.8249 3.83502 18.4949 5.50506C20.165 7.1751 21 8.01013 21 9.04776C21 10.0854 20.165 10.9204 18.4949 12.5904L14.3017 16.7837L7.21634 9.69828L11.4096 5.50506Z" fill="black"/>
<path d="M6.1557 10.759L13.2411 17.8443L12.5904 18.4949C12.2127 18.8727 11.8777 19.2077 11.5734 19.5H21C21.4142 19.5 21.75 19.8358 21.75 20.25C21.75 20.6642 21.4142 21 21 21H9C7.98423 20.9747 7.1494 20.1393 5.50506 18.4949C3.83502 16.8249 3 15.9899 3 14.9522C3 13.9146 3.83502 13.0796 5.50506 11.4096L6.1557 10.759Z" fill="black"/>
</svg>
