<svg width="24" height="24" viewBox="0 0 24 24" fill="none" xmlns="http://www.w3.org/2000/svg">
<path fill-rule="evenodd" clip-rule="evenodd" d="M12 22C7.28595 22 4.92893 22 3.46447 20.5355C2 19.0711 2 16.714 2 12C2 7.28595 2 4.92893 3.46447 3.46447C4.92893 2 7.28595 2 12 2C16.714 2 19.0711 2 20.5355 3.46447C22 4.92893 22 7.28595 22 12C22 16.714 22 19.0711 20.5355 20.5355C19.0711 22 16.714 22 12 22ZM9.198 7.25H9.30203C10.2005 7.24997 10.9497 7.24995 11.5445 7.32991C12.1723 7.41432 12.7391 7.59999 13.1945 8.05546C13.65 8.51093 13.8357 9.07773 13.9201 9.70552C14.0001 10.3003 14 11.0495 14 11.948L14 12C14 12.4142 13.6642 12.75 13.25 12.75C12.8358 12.75 12.5 12.4142 12.5 12C12.5 11.036 12.4984 10.3884 12.4335 9.9054C12.3714 9.44393 12.2642 9.24644 12.1339 9.11612C12.0036 8.9858 11.8061 8.87858 11.3446 8.81654C10.8616 8.7516 10.214 8.75 9.25 8.75C8.28599 8.75 7.63843 8.7516 7.15539 8.81654C6.69393 8.87858 6.49644 8.9858 6.36612 9.11612C6.2358 9.24644 6.12858 9.44393 6.06654 9.9054C6.0016 10.3884 6 11.036 6 12C6 12.964 6.0016 13.6116 6.06654 14.0946C6.12858 14.5561 6.2358 14.7536 6.36612 14.8839C6.49644 15.0142 6.69393 15.1214 7.15539 15.1835C7.63843 15.2484 8.28599 15.25 9.25 15.25C9.66422 15.25 10 15.5858 10 16C10 16.4142 9.66422 16.75 9.25 16.75L9.19798 16.75C8.29951 16.75 7.5503 16.7501 6.95552 16.6701C6.32773 16.5857 5.76093 16.4 5.30546 15.9445C4.84999 15.4891 4.66432 14.9223 4.57991 14.2945C4.49995 13.6997 4.49997 12.9505 4.5 12.052V11.948C4.49997 11.0495 4.49995 10.3003 4.57991 9.70552C4.66432 9.07773 4.84999 8.51093 5.30546 8.05546C5.76093 7.59999 6.32773 7.41432 6.95552 7.32991C7.55029 7.24995 8.29954 7.24997 9.198 7.25ZM16.8446 8.81654C16.3616 8.7516 15.714 8.75 14.75 8.75C14.3358 8.75 14 8.41422 14 8C14 7.58579 14.3358 7.25 14.75 7.25L14.802 7.25C15.7005 7.24997 16.4497 7.24995 17.0445 7.32991C17.6723 7.41432 18.2391 7.59999 18.6945 8.05546C19.15 8.51093 19.3357 9.07773 19.4201 9.70552C19.5001 10.3003 19.5 11.0495 19.5 11.9479V12.052C19.5 12.9505 19.5001 13.6997 19.4201 14.2945C19.3357 14.9223 19.15 15.4891 18.6945 15.9445C18.2391 16.4 17.6723 16.5857 17.0445 16.6701C16.4497 16.7501 15.7005 16.75 14.802 16.75H14.698C13.7995 16.75 13.0503 16.7501 12.4555 16.6701C11.8277 16.5857 11.2609 16.4 10.8055 15.9445C10.35 15.4891 10.1643 14.9223 10.0799 14.2945C9.99995 13.6997 9.99997 12.9505 10 12.052L10 12C10 11.5858 10.3358 11.25 10.75 11.25C11.1642 11.25 11.5 11.5858 11.5 12C11.5 12.964 11.5016 13.6116 11.5665 14.0946C11.6286 14.5561 11.7358 14.7536 11.8661 14.8839C11.9964 15.0142 12.1939 15.1214 12.6554 15.1835C13.1384 15.2484 13.786 15.25 14.75 15.25C15.714 15.25 16.3616 15.2484 16.8446 15.1835C17.3061 15.1214 17.5036 15.0142 17.6339 14.8839C17.7642 14.7536 17.8714 14.5561 17.9335 14.0946C17.9984 13.6116 18 12.964 18 12C18 11.036 17.9984 10.3884 17.9335 9.9054C17.8714 9.44393 17.7642 9.24644 17.6339 9.11612C17.5036 8.9858 17.3061 8.87858 16.8446 8.81654Z" fill="black"/>
</svg>
