<svg width="24" height="24" viewBox="0 0 24 24" fill="none" xmlns="http://www.w3.org/2000/svg">
<path fill-rule="evenodd" clip-rule="evenodd" d="M7.93417 2C7.95604 2 7.97799 2 8 2L16.0658 2C16.9523 1.99995 17.7161 1.99991 18.3278 2.08215C18.9833 2.17028 19.6117 2.36902 20.1213 2.87868C20.631 3.38835 20.8297 4.0167 20.9179 4.67221C21.0001 5.28388 21.0001 6.0477 21 6.9342L21 7.95C21 8.50229 20.5523 8.95 20 8.95C19.4477 8.95 19 8.50229 19 7.95V7.00001C19 6.02893 18.9979 5.40122 18.9357 4.93871C18.8774 4.50497 18.7832 4.36902 18.7071 4.2929C18.631 4.21677 18.495 4.12263 18.0613 4.06431C17.5988 4.00213 16.9711 4 16 4H13V21C13 21.5523 12.5523 22 12 22C11.4477 22 11 21.5523 11 21V4H8C7.02893 4 6.40122 4.00213 5.93871 4.06431C5.50497 4.12263 5.36902 4.21677 5.2929 4.2929C5.21677 4.36902 5.12263 4.50497 5.06431 4.93871C5.00213 5.40122 5 6.02893 5 7.00001V7.95C5 8.50229 4.55229 8.95 4 8.95C3.44772 8.95 3 8.50229 3 7.95V7.00001C3 6.97799 3 6.95604 3 6.93418C2.99995 6.04769 2.99991 5.28387 3.08215 4.67221C3.17028 4.0167 3.36902 3.38835 3.87868 2.87868C4.38835 2.36902 5.0167 2.17028 5.67221 2.08215C6.28387 1.99991 7.04769 1.99995 7.93417 2Z" fill="black"/>
<path d="M7 21H17" stroke="black" stroke-width="2" stroke-linecap="round" stroke-linejoin="round"/>
</svg>
