<svg width="24" height="24" viewBox="0 0 24 24" fill="none" xmlns="http://www.w3.org/2000/svg">
<path opacity="0.5" d="M17 6.5L16.6961 5.13228C16.3624 3.63065 16.1955 2.87983 15.6471 2.43992C15.0987 2 14.3296 2 12.7913 2H11.2087C9.67043 2 8.9013 2 8.35289 2.43992C7.80448 2.87983 7.63763 3.63065 7.30394 5.13228L7 6.5" stroke="black" stroke-width="1.5"/>
<path opacity="0.5" d="M17 17.5L16.6961 18.8677C16.3624 20.3694 16.1955 21.1202 15.6471 21.5601C15.0987 22 14.3296 22 12.7913 22H11.2087C9.67043 22 8.9013 22 8.35289 21.5601C7.80448 21.1202 7.63763 20.3694 7.30394 18.8677L7 17.5" stroke="black" stroke-width="1.5"/>
<path d="M19.5 12C19.5 16.1421 16.1421 19.5 12 19.5C7.85786 19.5 4.5 16.1421 4.5 12C4.5 7.85786 7.85786 4.5 12 4.5C16.1421 4.5 19.5 7.85786 19.5 12Z" stroke="black" stroke-width="1.5"/>
<path opacity="0.5" d="M12 8.9231V12L14 13.9231" stroke="black" stroke-width="1.5" stroke-linecap="round" stroke-linejoin="round"/>
</svg>
