<svg width="24" height="24" viewBox="0 0 24 24" fill="none" xmlns="http://www.w3.org/2000/svg">
<path d="M22 14.3529C22 17.4717 19.4416 20 16.2857 20H11M14.381 9.02721C14.9767 8.81911 15.6178 8.70588 16.2857 8.70588C16.9404 8.70588 17.5693 8.81468 18.1551 9.01498M7.11616 11.6089C6.8475 11.5567 6.56983 11.5294 6.28571 11.5294C3.91878 11.5294 2 13.4256 2 15.7647C2 18.1038 3.91878 20 6.28571 20H7M7.11616 11.6089C6.88706 10.9978 6.7619 10.3369 6.7619 9.64706C6.7619 6.52827 9.32028 4 12.4762 4C15.4159 4 17.8371 6.19371 18.1551 9.01498M7.11616 11.6089C7.68059 11.7184 8.20528 11.9374 8.66667 12.2426M18.1551 9.01498C18.8381 9.24853 19.4623 9.60648 20 10.0614" stroke="black" stroke-width="1.5" stroke-linecap="round"/>
<path d="M11.0004 4C10.0882 2.78555 8.63582 2 7 2C4.23858 2 2 4.23858 2 7C2 9.05032 3.2341 10.8124 5 11.584" stroke="black" stroke-width="1.5"/>
</svg>
