<svg width="24" height="24" viewBox="0 0 24 24" fill="none" xmlns="http://www.w3.org/2000/svg">
<path d="M22 12.3529C22 13.7432 21.4916 15.0161 20.6486 16M14.381 7.02721C14.9767 6.81911 15.6178 6.70588 16.2857 6.70588C16.9404 6.70588 17.5693 6.81468 18.1551 7.01498M7.11616 9.60887C6.8475 9.55673 6.56983 9.52941 6.28571 9.52941C3.91878 9.52941 2 11.4256 2 13.7647C2 14.5852 2.2361 15.3512 2.64482 16M7.11616 9.60887C6.88706 8.9978 6.7619 8.33687 6.7619 7.64706C6.7619 4.52827 9.32028 2 12.4762 2C15.4159 2 17.8371 4.19371 18.1551 7.01498M7.11616 9.60887C7.68059 9.71839 8.20528 9.9374 8.66667 10.2426M18.1551 7.01498C18.8381 7.24853 19.4623 7.60648 20 8.06141" stroke="black" stroke-width="1.5" stroke-linecap="round"/>
<path d="M8 22H16" stroke="black" stroke-width="1.5" stroke-linecap="round" stroke-linejoin="round"/>
<path d="M5 19H11M19 19H15" stroke="black" stroke-width="1.5" stroke-linecap="round" stroke-linejoin="round"/>
<path d="M2 16H22" stroke="black" stroke-width="1.5" stroke-linecap="round" stroke-linejoin="round"/>
</svg>
