<svg width="24" height="24" viewBox="0 0 24 24" fill="none" xmlns="http://www.w3.org/2000/svg">
<path d="M10.5026 5.01692L9.96661 3.65785C9.62068 2.78072 8.37933 2.78072 8.03339 3.65784L6.96137 6.37599C6.85576 6.64378 6.64378 6.85575 6.37599 6.96137L3.65785 8.03339C2.78072 8.37932 2.78072 9.62067 3.65784 9.96661L6.37599 11.0386C6.64378 11.1442 6.85575 11.3562 6.96137 11.624L8.03339 14.3422C8.37932 15.2193 9.62067 15.2193 9.96661 14.3422L11.0386 11.624C11.1442 11.3562 11.3562 11.1442 11.624 11.0386L14.3422 9.96661C15.2193 9.62068 15.2193 8.37933 14.3422 8.03339L12.9831 7.49738" stroke="black" stroke-width="1.5" stroke-linecap="round"/>
<path d="M16.4885 13.3481C16.6715 12.884 17.3285 12.884 17.5115 13.3481L18.3121 15.3781C18.368 15.5198 18.4802 15.632 18.6219 15.6879L20.6519 16.4885C21.116 16.6715 21.116 17.3285 20.6519 17.5115L18.6219 18.3121C18.4802 18.368 18.368 18.4802 18.3121 18.6219L17.5115 20.6519C17.3285 21.116 16.6715 21.116 16.4885 20.6519L15.6879 18.6219C15.632 18.4802 15.5198 18.368 15.3781 18.3121L13.3481 17.5115C12.884 17.3285 12.884 16.6715 13.3481 16.4885L15.3781 15.6879C15.5198 15.632 15.632 15.5198 15.6879 15.3781L16.4885 13.3481Z" stroke="black" stroke-width="1.5"/>
</svg>
