<svg width="24" height="24" viewBox="0 0 24 24" fill="none" xmlns="http://www.w3.org/2000/svg">
<path d="M12 2V3" stroke="black" stroke-width="1.5" stroke-linecap="round"/>
<path d="M12 21V22" stroke="black" stroke-width="1.5" stroke-linecap="round"/>
<path d="M22 12L21 12" stroke="black" stroke-width="1.5" stroke-linecap="round"/>
<path d="M3 12L2 12" stroke="black" stroke-width="1.5" stroke-linecap="round"/>
<path d="M19.0708 4.9292L18.678 5.32204" stroke="black" stroke-width="1.5" stroke-linecap="round"/>
<path d="M5.32178 18.6782L4.92894 19.0711" stroke="black" stroke-width="1.5" stroke-linecap="round"/>
<path d="M19.0708 19.0708L18.678 18.678" stroke="black" stroke-width="1.5" stroke-linecap="round"/>
<path d="M5.32178 5.32178L4.92894 4.92894" stroke="black" stroke-width="1.5" stroke-linecap="round"/>
<path d="M6.34141 10C6.12031 10.6256 6 11.2987 6 12C6 15.3137 8.68629 18 12 18C15.3137 18 18 15.3137 18 12C18 8.68629 15.3137 6 12 6C11.2987 6 10.6256 6.12031 10 6.34141" stroke="black" stroke-width="1.5" stroke-linecap="round"/>
</svg>
