<svg width="24" height="24" viewBox="0 0 24 24" fill="none" xmlns="http://www.w3.org/2000/svg">
<path fill-rule="evenodd" clip-rule="evenodd" d="M2.06935 5.25839C2 5.62595 2 6.06722 2 6.94975V14C2 17.7712 2 19.6569 3.17157 20.8284C4.34315 22 6.22876 22 10 22H14C17.7712 22 19.6569 22 20.8284 20.8284C22 19.6569 22 17.7712 22 14V11.7979C22 9.16554 22 7.84935 21.2305 6.99383C21.1598 6.91514 21.0849 6.84024 21.0062 6.76946C20.1506 6 18.8345 6 16.2021 6H15.8284C14.6747 6 14.0979 6 13.5604 5.84678C13.2651 5.7626 12.9804 5.64471 12.7121 5.49543C12.2237 5.22367 11.8158 4.81578 11 4L10.4497 3.44975C10.1763 3.17633 10.0396 3.03961 9.89594 2.92051C9.27652 2.40704 8.51665 2.09229 7.71557 2.01738C7.52976 2 7.33642 2 6.94975 2C6.06722 2 5.62595 2 5.25839 2.06935C3.64031 2.37464 2.37464 3.64031 2.06935 5.25839ZM9.96967 11.4697C10.2626 11.1768 10.7374 11.1768 11.0303 11.4697L12 12.4393L12.9697 11.4697C13.2626 11.1768 13.7374 11.1768 14.0303 11.4697C14.3232 11.7626 14.3232 12.2374 14.0303 12.5303L13.0607 13.5L14.0303 14.4697C14.3232 14.7626 14.3232 15.2374 14.0303 15.5303C13.7374 15.8232 13.2626 15.8232 12.9697 15.5303L12 14.5607L11.0303 15.5303C10.7374 15.8232 10.2626 15.8232 9.96967 15.5303C9.67678 15.2374 9.67678 14.7626 9.96967 14.4697L10.9393 13.5L9.96967 12.5303C9.67678 12.2374 9.67678 11.7626 9.96967 11.4697Z" fill="black"/>
</svg>
