<svg width="24" height="24" viewBox="0 0 24 24" fill="none" xmlns="http://www.w3.org/2000/svg">
<path fill-rule="evenodd" clip-rule="evenodd" d="M12 2.75C10.7574 2.75 9.74999 3.75736 9.74999 5V5.25988C10.3071 5.24999 10.9183 5.24999 11.5891 5.25H12.4109C13.0817 5.24999 13.6929 5.24999 14.25 5.25988V5C14.25 3.75736 13.2426 2.75 12 2.75ZM15.75 5.32793V5C15.75 2.92893 14.0711 1.25 12 1.25C9.92893 1.25 8.24999 2.92893 8.24999 5V5.32793C8.10726 5.34021 7.96934 5.35444 7.83606 5.3709C6.8261 5.49569 5.99347 5.75783 5.28618 6.34483C4.57889 6.93183 4.1678 7.70189 3.85902 8.67156C3.55978 9.61128 3.33327 10.8194 3.04854 12.3381L3.02785 12.4484C2.62606 14.5912 2.30941 16.2799 2.25131 17.6112C2.19174 18.9758 2.39476 20.106 3.16453 21.0335C3.93431 21.961 5.00773 22.3689 6.35992 22.5618C7.67914 22.75 9.39725 22.75 11.5774 22.75H12.4226C14.6027 22.75 16.3208 22.75 17.6401 22.5618C18.9923 22.3689 20.0657 21.961 20.8355 21.0335C21.6052 20.106 21.8082 18.9758 21.7487 17.6112C21.6906 16.2799 21.3739 14.5912 20.9721 12.4484L20.9515 12.3381C20.6667 10.8194 20.4402 9.61129 20.141 8.67156C19.8322 7.70189 19.4211 6.93183 18.7138 6.34483C18.0065 5.75783 17.1739 5.49569 16.1639 5.3709C16.0306 5.35444 15.8927 5.34021 15.75 5.32793ZM8.02 6.85959C7.16446 6.96529 6.64774 7.16413 6.24413 7.49909C5.84053 7.83406 5.54987 8.30528 5.28831 9.12669C5.02045 9.96788 4.8097 11.0846 4.51358 12.6639C4.09786 14.8811 3.80278 16.4647 3.74988 17.6766C3.69788 18.8679 3.88895 19.5576 4.3188 20.0756C4.74864 20.5935 5.39139 20.9084 6.5718 21.0768C7.77271 21.2482 9.38359 21.25 11.6394 21.25H12.3606C14.6164 21.25 16.2273 21.2482 17.4282 21.0768C18.6086 20.9084 19.2513 20.5935 19.6812 20.0756C20.111 19.5576 20.3021 18.8679 20.2501 17.6766C20.1972 16.4647 19.9021 14.8811 19.4864 12.6639C19.1903 11.0846 18.9795 9.96788 18.7117 9.12669C18.4501 8.30528 18.1595 7.83406 17.7559 7.49909C17.3523 7.16413 16.8355 6.96529 15.98 6.85959C15.1038 6.75133 13.9674 6.75 12.3606 6.75H11.6394C10.0326 6.75 8.89614 6.75133 8.02 6.85959Z" fill="black"/>
<path fill-rule="evenodd" clip-rule="evenodd" d="M14.9785 10.3689C14.9705 10.3712 14.9382 10.381 14.8684 10.4114C14.7604 10.4585 14.6183 10.5293 14.3938 10.6416L13.077 11.2999C12.9812 11.3478 12.9266 11.3753 12.886 11.3974C12.8606 11.4113 12.8502 11.418 12.8477 11.4197C12.7993 11.4569 12.7662 11.5105 12.7546 11.5704C12.7542 11.5735 12.7528 11.5857 12.7517 11.6146C12.7501 11.6609 12.75 11.722 12.75 11.8291C12.75 12.0801 12.7502 12.2389 12.7564 12.3566C12.7604 12.4326 12.7661 12.4658 12.7676 12.4741C12.8083 12.5767 12.9115 12.6405 13.0215 12.631C13.0295 12.6286 13.0617 12.6189 13.1316 12.5884C13.2396 12.5413 13.3817 12.4705 13.6062 12.3583L14.9229 11.6999C15.0188 11.652 15.0734 11.6246 15.114 11.6025C15.1394 11.5886 15.1498 11.5819 15.1523 11.5801C15.2007 11.543 15.2338 11.4894 15.2454 11.4295C15.2458 11.4264 15.2472 11.4142 15.2482 11.3852C15.2499 11.339 15.25 11.2779 15.25 11.1708C15.25 10.9198 15.2497 10.7609 15.2436 10.6433C15.2396 10.5672 15.2339 10.534 15.2324 10.5258C15.1917 10.4232 15.0885 10.3594 14.9785 10.3689ZM14.7972 8.87975C15.6037 8.78568 16.3689 9.25862 16.6454 10.022C16.7134 10.2098 16.7328 10.4001 16.7415 10.5645C16.75 10.7264 16.75 10.9253 16.75 11.152V11.1708C16.75 11.1843 16.75 11.1979 16.75 11.2116C16.7503 11.3735 16.7505 11.5452 16.7188 11.7109C16.638 12.1332 16.4045 12.511 16.0629 12.7721C15.9289 12.8746 15.7752 12.9512 15.6303 13.0234C15.618 13.0295 15.6059 13.0355 15.5938 13.0416L14.2603 13.7083C14.0575 13.8097 13.8796 13.8987 13.731 13.9635C13.5801 14.0292 13.4012 14.097 13.2028 14.1201C13.0493 14.138 12.8974 14.1354 12.75 14.1141V16.9999C12.75 18.5187 11.5188 19.7499 9.99999 19.7499C8.48121 19.7499 7.24999 18.5187 7.24999 16.9999C7.24999 15.4811 8.48121 14.2499 9.99999 14.2499C10.4501 14.2499 10.875 14.3581 11.25 14.5498V11.9999C11.2499 11.9508 11.25 11.9 11.25 11.8478V11.8291C11.25 11.8156 11.25 11.802 11.25 11.7883C11.2497 11.6264 11.2495 11.4547 11.2812 11.289C11.362 10.8667 11.5955 10.4889 11.9371 10.2278C12.0711 10.1253 12.2248 10.0487 12.3697 9.97651C12.3819 9.97041 12.3941 9.96434 12.4062 9.95829L13.7397 9.29156C13.9425 9.19015 14.1204 9.10121 14.269 9.03641C14.4199 8.97064 14.5988 8.9029 14.7972 8.87975ZM11.25 16.9999C11.25 16.3096 10.6904 15.7499 9.99999 15.7499C9.30964 15.7499 8.74999 16.3096 8.74999 16.9999C8.74999 17.6903 9.30964 18.2499 9.99999 18.2499C10.6904 18.2499 11.25 17.6903 11.25 16.9999Z" fill="black"/>
</svg>
