<svg width="24" height="24" viewBox="0 0 24 24" fill="none" xmlns="http://www.w3.org/2000/svg">
<path d="M16 9C16 9.55228 15.5523 10 15 10C14.4477 10 14 9.55228 14 9C14 8.44772 14.4477 8 15 8C15.5523 8 16 8.44772 16 9Z" fill="black"/>
<path d="M10 9C10 9.55228 9.55229 10 9 10C8.44772 10 8 9.55228 8 9C8 8.44772 8.44772 8 9 8C9.55229 8 10 8.44772 10 9Z" fill="black"/>
<path fill-rule="evenodd" clip-rule="evenodd" d="M12 2.75C10.7574 2.75 9.75 3.75736 9.75 5V5.25447C10.1675 5.24999 10.6182 5.25 11.1052 5.25H12.8948C13.3818 5.25 13.8325 5.24999 14.25 5.25447V5C14.25 3.75736 13.2426 2.75 12 2.75ZM15.75 5.30694V5C15.75 2.92893 14.0711 1.25 12 1.25C9.92894 1.25 8.25 2.92893 8.25 5V5.30694C8.115 5.31679 7.98473 5.32834 7.85898 5.34189C6.98062 5.43657 6.24608 5.63489 5.59379 6.08197C5.36944 6.23574 5.15871 6.40849 4.96393 6.59833C4.3976 7.15027 4.05908 7.83166 3.79399 8.67439C3.53661 9.49258 3.32861 10.5327 3.06723 11.8396L3.04816 11.935C2.67151 13.8181 2.37472 15.302 2.28948 16.484C2.20238 17.6916 2.32409 18.7075 2.89613 19.588C3.08699 19.8817 3.30976 20.1534 3.56038 20.3982C4.31151 21.1318 5.28386 21.4504 6.48512 21.6018C7.6608 21.75 9.17411 21.75 11.0945 21.75H12.9055C14.8259 21.75 16.3392 21.75 17.5149 21.6018C18.7161 21.4504 19.6885 21.1318 20.4396 20.3982C20.6902 20.1534 20.913 19.8817 21.1039 19.588C21.6759 18.7075 21.7976 17.6916 21.7105 16.484C21.6253 15.3021 21.3285 13.8182 20.9519 11.9351L20.9328 11.8396C20.6714 10.5327 20.4634 9.49259 20.206 8.67439C19.9409 7.83166 19.6024 7.15027 19.0361 6.59833C18.8413 6.40849 18.6306 6.23574 18.4062 6.08197C17.7539 5.63489 17.0194 5.43657 16.141 5.34189C16.0153 5.32834 15.885 5.31679 15.75 5.30694ZM8.01972 6.83326C7.27301 6.91374 6.8117 7.06572 6.44182 7.31924C6.28832 7.42445 6.14414 7.54265 6.01086 7.67254C5.68972 7.98552 5.45022 8.40807 5.22486 9.12449C4.99457 9.85661 4.80141 10.8172 4.52961 12.1762C4.14007 14.1239 3.86324 15.5153 3.78559 16.5919C3.709 17.6538 3.83832 18.2849 4.15395 18.7707C4.28453 18.9717 4.43696 19.1576 4.60843 19.3251C5.02287 19.7298 5.6164 19.9804 6.67272 20.1136C7.74362 20.2486 9.16224 20.25 11.1485 20.25H12.8515C14.8378 20.25 16.2564 20.2486 17.3273 20.1136C18.3836 19.9804 18.9771 19.7298 19.3916 19.3251C19.563 19.1576 19.7155 18.9717 19.8461 18.7707C20.1617 18.2849 20.291 17.6538 20.2144 16.5919C20.1368 15.5153 19.8599 14.1239 19.4704 12.1762C19.1986 10.8173 19.0054 9.85661 18.7751 9.12449C18.5498 8.40807 18.3103 7.98552 17.9891 7.67254C17.8559 7.54265 17.7117 7.42445 17.5582 7.31924C17.1883 7.06572 16.727 6.91374 15.9803 6.83326C15.2172 6.75101 14.2374 6.75 12.8515 6.75H11.1485C9.76265 6.75 8.78279 6.75101 8.01972 6.83326Z" fill="black"/>
</svg>
