<svg width="24" height="24" viewBox="0 0 24 24" fill="none" xmlns="http://www.w3.org/2000/svg">
<path fill-rule="evenodd" clip-rule="evenodd" d="M12 2.75C10.7574 2.75 9.74999 3.75736 9.74999 5V5.25988C10.3071 5.24999 10.9183 5.24999 11.5891 5.25H12.4109C13.0817 5.24999 13.6929 5.24999 14.25 5.25988V5C14.25 3.75736 13.2426 2.75 12 2.75ZM15.75 5.32793V5C15.75 2.92893 14.0711 1.25 12 1.25C9.92893 1.25 8.24999 2.92893 8.24999 5V5.32793C8.10726 5.34021 7.96934 5.35444 7.83606 5.3709C6.8261 5.49569 5.99347 5.75783 5.28618 6.34483C4.57889 6.93183 4.1678 7.70189 3.85902 8.67156C3.55978 9.61128 3.33327 10.8194 3.04854 12.3381L3.02785 12.4484C2.62606 14.5912 2.30941 16.2799 2.25131 17.6112C2.19174 18.9758 2.39476 20.106 3.16453 21.0335C3.93431 21.961 5.00773 22.3689 6.35992 22.5618C7.67914 22.75 9.39725 22.75 11.5774 22.75H12.4226C14.6027 22.75 16.3208 22.75 17.6401 22.5618C18.9923 22.3689 20.0657 21.961 20.8355 21.0335C21.6052 20.106 21.8082 18.9758 21.7487 17.6112C21.6906 16.2799 21.3739 14.5912 20.9721 12.4484L20.9515 12.3381C20.6667 10.8194 20.4402 9.61129 20.141 8.67156C19.8322 7.70189 19.4211 6.93183 18.7138 6.34483C18.0065 5.75783 17.1739 5.49569 16.1639 5.3709C16.0306 5.35444 15.8927 5.34021 15.75 5.32793ZM8.02 6.85959C7.16446 6.96529 6.64774 7.16413 6.24413 7.49909C5.84053 7.83406 5.54987 8.30528 5.28831 9.12669C5.02045 9.96788 4.8097 11.0846 4.51358 12.6639C4.09786 14.8811 3.80278 16.4647 3.74988 17.6766C3.69788 18.8679 3.88895 19.5576 4.3188 20.0756C4.74864 20.5935 5.39139 20.9084 6.5718 21.0768C7.77271 21.2482 9.38359 21.25 11.6394 21.25H12.3606C14.6164 21.25 16.2273 21.2482 17.4282 21.0768C18.6086 20.9084 19.2513 20.5935 19.6812 20.0756C20.111 19.5576 20.3021 18.8679 20.2501 17.6766C20.1972 16.4647 19.9021 14.8811 19.4864 12.6639C19.1903 11.0846 18.9795 9.96788 18.7117 9.12669C18.4501 8.30528 18.1595 7.83406 17.7559 7.49909C17.3523 7.16413 16.8355 6.96529 15.98 6.85959C15.1038 6.75133 13.9674 6.75 12.3606 6.75H11.6394C10.0326 6.75 8.89614 6.75133 8.02 6.85959ZM10.2419 12.2896C10.0126 12.37 9.74999 12.6207 9.74999 13.1967C9.74999 13.4113 9.89122 13.7423 10.2595 14.1681C10.6081 14.5712 11.0686 14.9542 11.4865 15.2609C11.7128 15.4269 11.8202 15.5034 11.9061 15.5488C11.9605 15.5775 11.9756 15.5776 12 15.5776C12.0244 15.5776 12.0395 15.5775 12.0939 15.5488C12.1798 15.5034 12.2872 15.4269 12.5135 15.2609C12.9314 14.9542 13.3919 14.5712 13.7405 14.1681C14.1088 13.7423 14.25 13.4113 14.25 13.1967C14.25 12.6207 13.9874 12.37 13.7581 12.2896C13.5078 12.2019 13.0442 12.2299 12.5187 12.7331C12.2286 13.0108 11.7713 13.0108 11.4813 12.7331C10.9558 12.2299 10.4922 12.2019 10.2419 12.2896ZM12 11.2343C11.2837 10.7628 10.475 10.6184 9.74565 10.8741C8.81245 11.2012 8.24999 12.0995 8.24999 13.1967C8.24999 13.9666 8.6912 14.6479 9.12489 15.1493C9.57819 15.6735 10.1391 16.1327 10.5992 16.4703C10.6225 16.4874 10.646 16.5047 10.6697 16.5223C11.0209 16.782 11.4207 17.0775 12 17.0776C12.5793 17.0776 12.979 16.782 13.3303 16.5223C13.354 16.5047 13.3775 16.4874 13.4008 16.4703C13.8609 16.1327 14.4218 15.6735 14.8751 15.1493C15.3088 14.6479 15.75 13.9666 15.75 13.1967C15.75 12.0995 15.1875 11.2012 14.2543 10.8741C13.525 10.6184 12.7163 10.7628 12 11.2343Z" fill="black"/>
</svg>
