<svg width="24" height="24" viewBox="0 0 24 24" fill="none" xmlns="http://www.w3.org/2000/svg">
<path fill-rule="evenodd" clip-rule="evenodd" d="M2.24875 2.29266C1.85798 2.15527 1.42983 2.36068 1.29245 2.75145C1.15506 3.14221 1.36047 3.57036 1.75123 3.70775L2.01244 3.79958C2.68005 4.0343 3.1188 4.18985 3.44165 4.34826C3.74487 4.49704 3.87854 4.61747 3.9666 4.74634C4.05686 4.87842 4.12657 5.05984 4.1659 5.42319C4.20705 5.8034 4.20807 6.29862 4.20807 7.03856V9.7602C4.20807 11.2127 4.2217 12.2601 4.35875 13.0603C4.50508 13.9146 4.79721 14.5263 5.34344 15.1024C5.9373 15.7288 6.69011 16.0015 7.58635 16.1285C8.44458 16.2502 9.53443 16.2502 10.8801 16.2502L16.2859 16.2502C17.0275 16.2502 17.6516 16.2502 18.1566 16.1884C18.6923 16.1229 19.1809 15.9796 19.6074 15.632C20.0339 15.2844 20.2729 14.8349 20.4453 14.3234C20.6077 13.8413 20.7337 13.2301 20.8834 12.5037L21.3923 10.0344L21.3933 10.0298L21.4037 9.97747C21.5684 9.15259 21.7069 8.4587 21.7413 7.90058C21.7775 7.31438 21.7108 6.73637 21.3289 6.23998C21.094 5.93456 20.7636 5.76166 20.4631 5.65607C20.1567 5.54838 19.8101 5.48608 19.4604 5.44698C18.7733 5.37018 17.9386 5.37019 17.12 5.3702L5.66787 5.3702C5.66459 5.33345 5.66103 5.29731 5.65718 5.26177C5.60345 4.76539 5.48704 4.31268 5.20506 3.90003C4.92088 3.48417 4.54303 3.21784 4.1024 3.00163C3.69031 2.79943 3.16668 2.61536 2.55015 2.39862L2.24875 2.29266ZM5.70806 6.8702H17.0888C17.9452 6.8702 18.6989 6.87121 19.2937 6.9377C19.5893 6.97074 19.8105 7.01664 19.9659 7.07125C20.0929 7.11589 20.1359 7.15234 20.1421 7.15762C20.1424 7.15783 20.142 7.15751 20.1421 7.15762C20.2035 7.23902 20.2702 7.38672 20.2442 7.80818C20.2168 8.25174 20.1003 8.844 19.9227 9.73393L19.9223 9.73615L19.4234 12.1563C19.2621 12.9391 19.1535 13.4595 19.0238 13.8444C18.9007 14.2097 18.785 14.3672 18.6598 14.4692C18.5346 14.5712 18.3571 14.6527 17.9744 14.6996C17.5712 14.7489 17.0396 14.7502 16.2404 14.7502H10.9375C9.52068 14.7502 8.53762 14.7484 7.79695 14.6434C7.08214 14.542 6.70451 14.3578 6.43197 14.0704C6.11181 13.7327 5.93912 13.402 5.83722 12.8071C5.72606 12.1581 5.70807 11.2492 5.70807 9.7602L5.70806 6.8702Z" fill="black"/>
<path fill-rule="evenodd" clip-rule="evenodd" d="M7.49999 21.7502C6.25735 21.7502 5.24999 20.7428 5.24999 19.5002C5.24999 18.2576 6.25735 17.2502 7.49999 17.2502C8.74263 17.2502 9.74999 18.2576 9.74999 19.5002C9.74999 20.7428 8.74263 21.7502 7.49999 21.7502ZM6.74999 19.5002C6.74999 19.9144 7.08578 20.2502 7.49999 20.2502C7.9142 20.2502 8.24999 19.9144 8.24999 19.5002C8.24999 19.086 7.9142 18.7502 7.49999 18.7502C7.08578 18.7502 6.74999 19.086 6.74999 19.5002Z" fill="black"/>
<path fill-rule="evenodd" clip-rule="evenodd" d="M16.5 21.7503C15.2573 21.7503 14.25 20.7429 14.25 19.5003C14.25 18.2576 15.2573 17.2503 16.5 17.2503C17.7426 17.2503 18.75 18.2576 18.75 19.5003C18.75 20.7429 17.7426 21.7503 16.5 21.7503ZM15.75 19.5003C15.75 19.9145 16.0858 20.2503 16.5 20.2503C16.9142 20.2503 17.25 19.9145 17.25 19.5003C17.25 19.0861 16.9142 18.7503 16.5 18.7503C16.0858 18.7503 15.75 19.0861 15.75 19.5003Z" fill="black"/>
</svg>
