<svg width="24" height="24" viewBox="0 0 24 24" fill="none" xmlns="http://www.w3.org/2000/svg">
<path d="M9.99999 13.2502C9.58578 13.2502 9.24999 13.586 9.24999 14.0002C9.24999 14.4144 9.58578 14.7502 9.99999 14.7502H14C14.4142 14.7502 14.75 14.4144 14.75 14.0002C14.75 13.586 14.4142 13.2502 14 13.2502H9.99999Z" fill="black"/>
<path fill-rule="evenodd" clip-rule="evenodd" d="M14.6646 2.32934C15.0351 2.1441 15.4856 2.29427 15.6708 2.66475L17.4841 6.29135C17.9116 6.31309 18.3015 6.3463 18.6548 6.39702C19.7105 6.54861 20.5843 6.87448 21.2053 7.64262C21.8263 8.41077 21.9618 9.33344 21.8889 10.3975C21.8181 11.4287 21.5395 12.729 21.1911 14.3547L20.7396 16.4614C20.5047 17.5578 20.3141 18.4472 20.0743 19.142C19.8244 19.8661 19.495 20.4616 18.9323 20.9164C18.3697 21.3713 17.7184 21.5686 16.958 21.6613C16.2284 21.7502 15.3188 21.7502 14.1975 21.7502H9.80257C8.68124 21.7502 7.77164 21.7502 7.04201 21.6613C6.28163 21.5686 5.63038 21.3713 5.06773 20.9164C4.50509 20.4616 4.17566 19.8661 3.92573 19.142C3.68591 18.4472 3.49533 17.5578 3.2604 16.4614L2.80897 14.3547C2.4606 12.7291 2.18193 11.4287 2.11119 10.3975C2.03821 9.33344 2.17376 8.41077 2.79474 7.64262C3.41572 6.87448 4.28951 6.54861 5.34523 6.39702C5.69851 6.3463 6.08837 6.31309 6.51587 6.29135L8.32917 2.66475C8.51441 2.29427 8.96492 2.1441 9.3354 2.32934C9.70589 2.51459 9.85606 2.96509 9.67081 3.33557L8.21249 6.25223C8.57605 6.25015 8.9587 6.25016 9.36081 6.25016H14.6392C15.0413 6.25016 15.424 6.25015 15.7875 6.25223L14.3292 3.33557C14.1439 2.96509 14.2941 2.51459 14.6646 2.32934ZM5.73211 7.85888L5.32917 8.66475C5.14393 9.03524 5.2941 9.48574 5.66458 9.67099C6.03507 9.85623 6.48557 9.70606 6.67081 9.33558L7.45806 7.76107C8.02847 7.7505 8.67791 7.75016 9.42195 7.75016H14.5781C15.3221 7.75016 15.9715 7.7505 16.5419 7.76107L17.3292 9.33558C17.5144 9.70606 17.9649 9.85623 18.3354 9.67099C18.7059 9.48574 18.8561 9.03524 18.6708 8.66475L18.2679 7.85887C18.3271 7.86603 18.385 7.87366 18.4416 7.8818C19.3255 8.00871 19.7592 8.23982 20.0388 8.58564C20.3137 8.92563 20.4489 9.38809 20.3953 10.2502H3.60476C3.55116 9.38809 3.68639 8.92563 3.96124 8.58564C4.24081 8.23982 4.67453 8.00871 5.55842 7.8818C5.61505 7.87367 5.67293 7.86604 5.73211 7.85888ZM4.28849 14.1002C4.0915 13.1809 3.92668 12.4092 3.80698 11.7502H20.1931C20.0734 12.4092 19.9086 13.1809 19.7116 14.1002L19.283 16.1002C19.0356 17.2547 18.8629 18.0543 18.6564 18.6526C18.4566 19.2316 18.2517 19.5378 17.9893 19.7499C17.7269 19.9621 17.3846 20.0982 16.7766 20.1723C16.1483 20.2489 15.3303 20.2502 14.1495 20.2502H9.85052C8.66976 20.2502 7.85179 20.2489 7.22346 20.1723C6.6155 20.0982 6.27318 19.9621 6.01075 19.7499C5.74832 19.5378 5.54348 19.2316 5.34365 18.6526C5.13712 18.0543 4.96446 17.2547 4.71706 16.1002L4.28849 14.1002Z" fill="black"/>
</svg>
