<svg width="24" height="24" viewBox="0 0 24 24" fill="none" xmlns="http://www.w3.org/2000/svg">
<path d="M8.75002 13C8.75002 12.5858 8.41424 12.25 8.00002 12.25C7.58581 12.25 7.25002 12.5858 7.25002 13V17C7.25002 17.4142 7.58581 17.75 8.00002 17.75C8.41424 17.75 8.75002 17.4142 8.75002 17V13Z" fill="black"/>
<path d="M16 12.25C16.4142 12.25 16.75 12.5858 16.75 13V17C16.75 17.4142 16.4142 17.75 16 17.75C15.5858 17.75 15.25 17.4142 15.25 17V13C15.25 12.5858 15.5858 12.25 16 12.25Z" fill="black"/>
<path d="M12.75 13C12.75 12.5858 12.4142 12.25 12 12.25C11.5858 12.25 11.25 12.5858 11.25 13V17C11.25 17.4142 11.5858 17.75 12 17.75C12.4142 17.75 12.75 17.4142 12.75 17V13Z" fill="black"/>
<path fill-rule="evenodd" clip-rule="evenodd" d="M17.2738 3.47298C16.7983 3.28712 16.2655 3.25574 15.582 3.25077C15.3013 2.65912 14.6984 2.25 14 2.25H10C9.30162 2.25 8.69877 2.65912 8.41807 3.25077C7.73453 3.25574 7.20178 3.28712 6.72623 3.47298C6.15805 3.69505 5.66383 4.07255 5.30012 4.5623C4.93319 5.05639 4.76094 5.68968 4.52386 6.56133L3.89599 8.86426C3.50849 9.06269 3.16941 9.32992 2.88654 9.6922C2.26455 10.4888 2.15439 11.4377 2.26504 12.5261C2.37241 13.5822 2.70491 14.9121 3.12113 16.5769L3.14753 16.6825C3.4107 17.7353 3.62438 18.5901 3.87852 19.2572C4.14349 19.9527 4.47989 20.5227 5.03451 20.9558C5.58914 21.3888 6.22377 21.5769 6.96278 21.6653C7.6716 21.75 8.55269 21.75 9.63786 21.75H14.3621C15.4473 21.75 16.3284 21.75 17.0372 21.6653C17.7762 21.5769 18.4108 21.3888 18.9654 20.9558C19.5201 20.5227 19.8565 19.9527 20.1214 19.2572C20.3756 18.5901 20.5893 17.7353 20.8524 16.6825L20.8788 16.577C21.295 14.9122 21.6276 13.5822 21.7349 12.5261C21.8456 11.4377 21.7354 10.4888 21.1134 9.6922C20.8306 9.32995 20.4915 9.06274 20.1041 8.86431L19.4762 6.56133C19.2391 5.68968 19.0669 5.05639 18.6999 4.5623C18.3362 4.07255 17.842 3.69505 17.2738 3.47298ZM7.27226 4.87007C7.49206 4.78416 7.75764 4.75888 8.41948 4.75219C8.70079 5.34225 9.30279 5.75 10 5.75H14C14.6973 5.75 15.2993 5.34225 15.5806 4.75219C16.2424 4.75888 16.508 4.78416 16.7278 4.87007C17.0337 4.98964 17.2998 5.19291 17.4957 5.45663C17.6718 5.69377 17.7751 6.02508 18.066 7.09194L18.4196 8.3887C17.3818 8.24996 16.042 8.24998 14.3774 8.25H9.62259C7.958 8.24998 6.61822 8.24996 5.58043 8.38868L5.934 7.09195C6.2249 6.02508 6.32824 5.69376 6.50435 5.45662C6.7002 5.19291 6.96632 4.98964 7.27226 4.87007ZM10 3.75C9.86195 3.75 9.75002 3.86193 9.75002 4C9.75002 4.13807 9.86195 4.25 10 4.25H14C14.1381 4.25 14.25 4.13807 14.25 4C14.25 3.86193 14.1381 3.75 14 3.75H10ZM4.06885 10.6153C4.34769 10.2582 4.78866 10.0183 5.69983 9.88649C6.63046 9.75187 7.8923 9.75 9.68464 9.75H14.3153C16.1077 9.75 17.3695 9.75187 18.3001 9.88649C19.2113 10.0183 19.6523 10.2582 19.9311 10.6153C20.21 10.9725 20.3357 11.4584 20.2426 12.3744C20.1475 13.3099 19.8433 14.5345 19.4086 16.2733C19.1313 17.3824 18.9382 18.1496 18.7197 18.7231C18.5084 19.2778 18.3015 19.5711 18.0423 19.7735C17.7832 19.9758 17.4484 20.1054 16.8591 20.1759C16.2497 20.2488 15.4585 20.25 14.3153 20.25H9.68464C8.54145 20.25 7.75027 20.2488 7.14088 20.1759C6.55152 20.1054 6.2168 19.9758 5.95763 19.7735C5.69847 19.5711 5.49156 19.2778 5.28025 18.7231C5.06175 18.1496 4.86866 17.3824 4.59139 16.2733C4.15668 14.5345 3.85246 13.3099 3.75735 12.3744C3.66424 11.4584 3.79001 10.9725 4.06885 10.6153Z" fill="black"/>
</svg>
