<svg width="24" height="24" viewBox="0 0 24 24" fill="none" xmlns="http://www.w3.org/2000/svg">
<path fill-rule="evenodd" clip-rule="evenodd" d="M7.43524 1.25C6.86527 1.24998 6.38132 1.24997 5.9814 1.29132C5.55559 1.33534 5.16206 1.43094 4.79029 1.66071C4.41851 1.89048 4.15702 2.19971 3.92721 2.56088C3.71137 2.90009 3.49497 3.33294 3.24008 3.84274L3.22359 3.87574C3.21386 3.89518 3.20499 3.91504 3.19699 3.93526L1.79338 7.4834C1.62637 7.90559 1.44128 8.43229 1.38716 8.97127C1.3318 9.52257 1.40777 10.1541 1.83973 10.7019C2.34205 11.3389 3.12316 11.75 3.99989 11.75C4.78791 11.75 5.49851 11.4186 5.9999 10.8875C6.50128 11.4186 7.21188 11.75 7.99989 11.75C8.78791 11.75 9.49851 11.4186 9.9999 10.8875C10.5013 11.4186 11.2119 11.75 11.9999 11.75C12.7879 11.75 13.4985 11.4186 13.9999 10.8875C14.5013 11.4186 15.2119 11.75 15.9999 11.75C16.7879 11.75 17.4985 11.4186 17.9999 10.8875C18.5013 11.4186 19.2119 11.75 19.9999 11.75C20.8766 11.75 21.6578 11.3389 22.1601 10.7019C22.5921 10.1541 22.6681 9.52258 22.6127 8.97128C22.5586 8.4323 22.3735 7.90559 22.2065 7.4834L20.8029 3.93526C20.7949 3.91504 20.786 3.89518 20.7763 3.87574L20.7598 3.8428C20.5049 3.33297 20.2885 2.9001 20.0727 2.56088C19.8429 2.19971 19.5814 1.89048 19.2096 1.66071C18.8378 1.43094 18.4443 1.33534 18.0185 1.29132C17.6186 1.24997 17.1346 1.24998 16.5647 1.25H7.43524ZM7.99989 10.25C7.30954 10.25 6.74989 9.69036 6.74989 9C6.74989 8.58579 6.41411 8.25 5.99989 8.25C5.58568 8.25 5.24989 8.58579 5.24989 9C5.24989 9.69036 4.69025 10.25 3.99989 10.25C3.60194 10.25 3.24768 10.0649 3.01757 9.77307C2.90364 9.62861 2.84854 9.43095 2.87965 9.12115C2.912 8.79903 3.03093 8.43275 3.18821 8.03518L4.57981 4.51739C4.84753 3.98204 5.02644 3.62749 5.19274 3.36612C5.35272 3.1147 5.46735 3.00562 5.57888 2.93669C5.69042 2.86776 5.83925 2.81401 6.13567 2.78336C6.44938 2.75093 6.85531 2.75 7.47212 2.75H16.5278C17.1446 2.75 17.5505 2.75093 17.8642 2.78336C18.1606 2.81401 18.3095 2.86776 18.421 2.93669C18.5325 3.00562 18.6472 3.1147 18.8071 3.36612C18.9734 3.62749 19.1523 3.98204 19.4201 4.51739L20.8117 8.03518C20.9689 8.43275 21.0879 8.79903 21.1202 9.12114C21.1513 9.43094 21.0962 9.62859 20.9823 9.77305C20.7521 10.0649 20.3979 10.25 19.9999 10.25C19.3095 10.25 18.7499 9.69036 18.7499 9C18.7499 8.58579 18.4141 8.25 17.9999 8.25C17.5857 8.25 17.2499 8.58579 17.2499 9C17.2499 9.69036 16.6902 10.25 15.9999 10.25C15.3095 10.25 14.7499 9.69036 14.7499 9C14.7499 8.58579 14.4141 8.25 13.9999 8.25C13.5857 8.25 13.2499 8.58579 13.2499 9C13.2499 9.69036 12.6902 10.25 11.9999 10.25C11.3095 10.25 10.7499 9.69036 10.7499 9C10.7499 8.58579 10.4141 8.25 9.99989 8.25C9.58568 8.25 9.24989 8.58579 9.24989 9C9.24989 9.69036 8.69025 10.25 7.99989 10.25Z" fill="black"/>
<path d="M19.75 15C19.75 14.5858 19.4142 14.25 19 14.25C18.5858 14.25 18.25 14.5858 18.25 15V21.25H5.74998V15C5.74998 14.5858 5.41419 14.25 4.99998 14.25C4.58577 14.25 4.24998 14.5858 4.24998 15V21.25H2.99998C2.58577 21.25 2.24998 21.5858 2.24998 22C2.24998 22.4142 2.58577 22.75 2.99998 22.75H21C21.4142 22.75 21.75 22.4142 21.75 22C21.75 21.5858 21.4142 21.25 21 21.25H19.75V15Z" fill="black"/>
</svg>
