<svg width="24" height="24" viewBox="0 0 24 24" fill="none" xmlns="http://www.w3.org/2000/svg">
<path d="M8.10627 18.2471C5.29819 16.0836 2 13.5424 2 9.13734C2 4.53681 6.9226 1.20201 11.2639 4.81397L9.81064 8.20491C9.6718 8.52887 9.77727 8.90579 10.0641 9.11064L12.8973 11.1344L10.4306 14.0123C10.1755 14.3098 10.1926 14.7536 10.4697 15.0307L12.1694 16.7304L11.2594 20.3704C10.5043 20.1171 9.74389 19.5277 8.96173 18.9111C8.68471 18.6927 8.39814 18.4719 8.10627 18.2471Z" fill="black"/>
<path d="M12.8118 20.3456C13.5435 20.0801 14.2807 19.5083 15.0383 18.9111C15.3153 18.6927 15.6019 18.4719 15.8937 18.2471C18.7018 16.0835 22 13.5424 22 9.13734C22 4.62246 17.259 1.32661 12.9792 4.61943L11.4272 8.24092L14.4359 10.39C14.6072 10.5124 14.7191 10.701 14.7445 10.9098C14.7699 11.1187 14.7064 11.3287 14.5694 11.4884L12.0214 14.4611L13.5303 15.97C13.7166 16.1563 13.7915 16.4267 13.7276 16.6822L12.8118 20.3456Z" fill="black"/>
</svg>
