<svg width="24" height="24" viewBox="0 0 24 24" fill="none" xmlns="http://www.w3.org/2000/svg">
<path fill-rule="evenodd" clip-rule="evenodd" d="M13.436 5.78311C12.5407 5.29495 11.4588 5.29495 10.5636 5.78311L5.76937 8.39728C4.80539 8.92292 4.20557 9.93319 4.20557 11.0312V15.9688C4.20557 17.0668 4.80539 18.0771 5.76937 18.6027L10.5636 21.2169C11.4588 21.705 12.5407 21.705 13.436 21.2169L18.2302 18.6027C19.1942 18.0771 19.794 17.0668 19.794 15.9688V11.0312C19.794 9.93319 19.1942 8.92292 18.2302 8.39728L13.436 5.78311ZM12 10.5C11.7159 10.5 11.5259 10.8408 11.1459 11.5225L11.0476 11.6989C10.9397 11.8926 10.8857 11.9894 10.8015 12.0533C10.7173 12.1172 10.6125 12.141 10.4028 12.1884L10.2119 12.2316C9.47396 12.3986 9.10501 12.482 9.01723 12.7643C8.92945 13.0466 9.18097 13.3407 9.68403 13.929L9.81418 14.0812C9.95713 14.2483 10.0286 14.3319 10.0608 14.4353C10.0929 14.5387 10.0821 14.6502 10.0605 14.8733L10.0408 15.0763C9.96476 15.8612 9.92674 16.2536 10.1565 16.4281C10.3864 16.6025 10.7318 16.4435 11.4227 16.1254L11.6014 16.0431C11.7978 15.9527 11.8959 15.9075 12 15.9075C12.1041 15.9075 12.2022 15.9527 12.3986 16.0431L12.5773 16.1254C13.2682 16.4435 13.6136 16.6025 13.8435 16.4281C14.0733 16.2536 14.0352 15.8612 13.9592 15.0763L13.9395 14.8733C13.9179 14.6502 13.9071 14.5387 13.9392 14.4353C13.9714 14.3319 14.0429 14.2483 14.1858 14.0812L14.316 13.929C14.819 13.3407 15.0706 13.0466 14.9828 12.7643C14.895 12.482 14.526 12.3986 13.7881 12.2316L13.5972 12.1884C13.3875 12.141 13.2827 12.1172 13.1985 12.0533C13.1143 11.9894 13.0603 11.8926 12.9524 11.6989L12.8541 11.5225C12.4741 10.8408 12.2841 10.5 12 10.5Z" fill="black"/>
<path d="M11 2H13C14.8856 2 15.8284 2 16.4142 2.58579C17 3.17157 17 4.11438 17 6V6.01797L14.1541 4.46616C12.8112 3.73394 11.1884 3.73393 9.84551 4.46616L7 6.01775V6C7 4.11438 7 3.17157 7.58579 2.58579C8.17157 2 9.11438 2 11 2Z" fill="black"/>
</svg>
