<svg width="24" height="24" viewBox="0 0 24 24" fill="none" xmlns="http://www.w3.org/2000/svg">
<path fill-rule="evenodd" clip-rule="evenodd" d="M12 16C15.866 16 19 12.866 19 9C19 5.13401 15.866 2 12 2C8.13401 2 5 5.13401 5 9C5 12.866 8.13401 16 12 16ZM12 6C11.7159 6 11.5259 6.34084 11.1459 7.02251L11.0476 7.19887C10.9397 7.39258 10.8857 7.48944 10.8015 7.55334C10.7173 7.61725 10.6125 7.64097 10.4028 7.68841L10.2119 7.73161C9.47396 7.89857 9.10501 7.98205 9.01723 8.26432C8.92945 8.54659 9.18097 8.84072 9.68403 9.42898L9.81418 9.58117C9.95713 9.74833 10.0286 9.83191 10.0608 9.93531C10.0929 10.0387 10.0821 10.1502 10.0605 10.3733L10.0408 10.5763C9.96476 11.3612 9.92674 11.7536 10.1565 11.9281C10.3864 12.1025 10.7318 11.9435 11.4227 11.6254L11.6014 11.5431C11.7978 11.4527 11.8959 11.4075 12 11.4075C12.1041 11.4075 12.2022 11.4527 12.3986 11.5431L12.5773 11.6254C13.2682 11.9435 13.6136 12.1025 13.8435 11.9281C14.0733 11.7536 14.0352 11.3612 13.9592 10.5763L13.9395 10.3733C13.9179 10.1502 13.9071 10.0387 13.9392 9.93531C13.9714 9.83191 14.0429 9.74833 14.1858 9.58118L14.316 9.42898C14.819 8.84072 15.0706 8.54659 14.9828 8.26432C14.895 7.98205 14.526 7.89857 13.7881 7.73161L13.5972 7.68841C13.3875 7.64097 13.2827 7.61725 13.1985 7.55334C13.1143 7.48944 13.0603 7.39258 12.9524 7.19887L12.8541 7.02251C12.4741 6.34084 12.2841 6 12 6Z" fill="black"/>
<path d="M4.49517 12.9941L2.99206 14.5505C2.45194 15.1097 2.18188 15.3893 2.08843 15.6261C1.87548 16.1657 2.05772 16.7643 2.52138 17.0482C2.72486 17.1727 3.09187 17.2115 3.82589 17.2892C4.2403 17.333 4.44755 17.3549 4.6211 17.4214C5.00966 17.5704 5.31191 17.8833 5.45575 18.2856C5.52 18.4653 5.54117 18.6799 5.5835 19.109C5.65848 19.869 5.69597 20.249 5.81628 20.4597C6.09042 20.9398 6.66852 21.1285 7.18967 20.908C7.41837 20.8112 7.68843 20.5316 8.22855 19.9724L10.7106 17.4025C8.01306 16.9919 5.73225 15.3135 4.49517 12.9941Z" fill="black"/>
<path d="M13.2894 17.4025L15.7715 19.9724C16.3116 20.5316 16.5816 20.8112 16.8103 20.908C17.3315 21.1285 17.9096 20.9398 18.1837 20.4597C18.304 20.249 18.3415 19.869 18.4165 19.109C18.4588 18.6799 18.48 18.4653 18.5442 18.2856C18.6881 17.8833 18.9903 17.5704 19.3789 17.4214C19.5525 17.3549 19.7597 17.333 20.1741 17.2892C20.9081 17.2115 21.2751 17.1727 21.4786 17.0482C21.9423 16.7643 22.1245 16.1657 21.9116 15.6261C21.8181 15.3893 21.5481 15.1097 21.0079 14.5505L19.5048 12.9941C18.2677 15.3135 15.9869 16.9919 13.2894 17.4025Z" fill="black"/>
</svg>
