<svg width="24" height="24" viewBox="0 0 24 24" fill="none" xmlns="http://www.w3.org/2000/svg">
<path fill-rule="evenodd" clip-rule="evenodd" d="M21.5646 10.4921L21.8315 10.559C23.5658 8.21072 23.3696 4.88427 21.2426 2.75736C19.113 0.627762 15.7809 0.433676 13.4321 2.1751L13.5079 2.43555L13.7924 3.28926L13.7949 3.29636C13.7979 3.30447 13.8034 3.31945 13.8118 3.341C13.8287 3.3841 13.8571 3.45351 13.8996 3.54687C13.9844 3.73354 14.1252 4.01611 14.3409 4.37566C14.772 5.09432 15.504 6.12294 16.6907 7.30957C17.8773 8.49619 18.9059 9.22816 19.6245 9.65926C19.984 9.87495 20.2666 10.0157 20.4533 10.1005C20.5466 10.1429 20.616 10.1714 20.6591 10.1882C20.6806 10.1967 20.6956 10.2022 20.7037 10.2051L20.709 10.207L20.7101 10.2074L21.5646 10.4921ZM13.6577 21.6358L18.5711 12.7917C19.4652 12.5501 20.3143 12.0982 21.0402 11.436L14.969 22.3642C14.7678 22.7263 14.3112 22.8568 13.9491 22.6556C13.587 22.4545 13.4566 21.9979 13.6577 21.6358ZM13.3206 11.7402L16.1698 8.89115C17.2231 9.87143 18.1501 10.5239 18.8529 10.9456C19.0629 11.0716 19.2528 11.1769 19.4198 11.264L18.5711 12.7917C16.7937 13.2721 14.8387 12.9216 13.3206 11.7402ZM12.2599 10.6796C12.412 10.875 12.5778 11.0631 12.7574 11.2426C12.937 11.4223 13.1252 11.5881 13.3206 11.7402L5.53046 19.5303C5.23757 19.8232 4.7627 19.8232 4.4698 19.5303C4.17691 19.2374 4.17691 18.7626 4.46981 18.4697L12.2599 10.6796ZM11.2082 5.42911L12.7361 4.58031C12.8233 4.74737 12.9286 4.93726 13.0546 5.14735C13.4762 5.85016 14.1288 6.7772 15.1091 7.83049L12.2599 10.6796C11.0785 9.16162 10.7279 7.20651 11.2082 5.42911ZM11.2082 5.42911C11.4498 4.53507 11.9017 3.68598 12.5637 2.96011L1.6359 9.03125C1.27381 9.23242 1.14336 9.68902 1.34452 10.0511C1.54569 10.4132 2.00229 10.5436 2.36438 10.3425L11.2082 5.42911Z" fill="black"/>
</svg>
