<svg width="24" height="24" viewBox="0 0 24 24" fill="none" xmlns="http://www.w3.org/2000/svg">
<path d="M11.8114 6.72682C12.8247 4.90902 13.3314 4.00012 14.0889 4.00012C14.8464 4.00012 15.353 4.90902 16.3663 6.72682L16.6285 7.19711C16.9164 7.71367 17.0604 7.97195 17.2849 8.14237C17.5094 8.31278 17.789 8.37604 18.3482 8.50256L18.8572 8.61774C20.825 9.06297 21.8089 9.28558 22.0429 10.0383C22.277 10.791 21.6063 11.5754 20.2648 13.1441L19.9177 13.5499C19.5365 13.9957 19.3459 14.2186 19.2602 14.4943C19.1744 14.77 19.2032 15.0674 19.2609 15.6622L19.3133 16.2036C19.5162 18.2966 19.6176 19.3431 19.0047 19.8083C18.3919 20.2735 17.4707 19.8494 15.6283 19.0011L15.1517 18.7816C14.6281 18.5405 14.3663 18.42 14.0889 18.42C13.8114 18.42 13.5496 18.5405 13.0261 18.7816L12.5494 19.0011C10.707 19.8494 9.78581 20.2735 9.17299 19.8083C8.56016 19.3431 8.66157 18.2966 8.86438 16.2036L8.91685 15.6622C8.97449 15.0674 9.0033 14.77 8.91756 14.4943C8.83181 14.2186 8.64121 13.9957 8.26 13.5499L7.91294 13.1441C6.57147 11.5754 5.90073 10.791 6.1348 10.0383C6.36888 9.28558 7.35275 9.06297 9.3205 8.61774L9.82958 8.50256C10.3887 8.37604 10.6683 8.31278 10.8928 8.14237C11.1173 7.97195 11.2613 7.71367 11.5492 7.19711L11.8114 6.72682Z" fill="black"/>
<path fill-rule="evenodd" clip-rule="evenodd" d="M8.74536 5.20241C6.76375 4.63138 4.63808 4.933 2.58717 6.13407L2.37901 6.25598C2.02158 6.4653 1.56213 6.34523 1.35281 5.9878C1.14349 5.63037 1.26356 5.17092 1.62099 4.9616L1.82915 4.8397C4.18957 3.45737 6.7369 3.0626 9.16071 3.76106L9.36859 3.82096C9.76661 3.93566 9.99629 4.35129 9.88159 4.74931C9.7669 5.14733 9.35126 5.37701 8.95325 5.26231L8.74536 5.20241ZM4.83616 9.93646C4.87132 10.3492 4.56525 10.7123 4.15253 10.7474C3.99937 10.7605 3.88194 10.7679 3.78353 10.7742C3.60615 10.7854 3.49057 10.7928 3.3389 10.8219C3.14241 10.8596 2.88728 10.9394 2.42428 11.1709C2.05379 11.3562 1.60329 11.206 1.41805 10.8355C1.2328 10.465 1.38297 10.0145 1.75346 9.8293C2.29045 9.5608 2.6802 9.42092 3.05615 9.34876C3.30305 9.30137 3.55792 9.28477 3.78712 9.26984C3.87041 9.26441 3.95031 9.25921 4.0252 9.25283C4.43792 9.21767 4.801 9.52374 4.83616 9.93646ZM5.91775 15.8561C4.7338 15.5786 3.48641 15.8538 2.55304 16.5892C2.22769 16.8456 1.75612 16.7896 1.49976 16.4643C1.24341 16.1389 1.29934 15.6674 1.62469 15.411C2.92249 14.3884 4.63899 14.0158 6.25998 14.3956C6.66327 14.4901 6.91359 14.8937 6.81909 15.297C6.72458 15.7003 6.32104 15.9506 5.91775 15.8561Z" fill="black"/>
</svg>
