<svg width="24" height="24" viewBox="0 0 24 24" fill="none" xmlns="http://www.w3.org/2000/svg">
<path fill-rule="evenodd" clip-rule="evenodd" d="M10.8265 4.50335C8.6217 3.37843 6.70679 3.1509 5.75868 4.09901C4.12877 5.72892 5.97329 10.216 9.87854 14.1213C13.7838 18.0265 18.2709 19.8711 19.9008 18.2411C20.8489 17.2931 20.6214 15.3784 19.4967 13.1738C19.2937 13.2091 19.0707 13.2134 18.83 13.1702C17.8849 13.0005 16.395 12.2741 14.0606 9.93969C11.7262 7.60532 10.9998 6.11537 10.8301 5.17028C10.7869 4.9295 10.7912 4.70642 10.8265 4.50335ZM12.7071 12.7073C12.3166 13.0978 11.6834 13.0978 11.2929 12.7073C10.9024 12.3167 10.9024 11.6836 11.2929 11.293C11.6834 10.9025 12.3166 10.9025 12.7071 11.293C13.0976 11.6836 13.0976 12.3167 12.7071 12.7073ZM8.46428 8.46409C8.8548 8.85462 9.48797 8.85462 9.87849 8.46409C10.269 8.07357 10.269 7.4404 9.87849 7.04988C9.48797 6.65936 8.8548 6.65936 8.46428 7.04988C8.07376 7.4404 8.07376 8.07357 8.46428 8.46409ZM16.9498 15.5354C16.5593 15.9259 15.9261 15.9259 15.5356 15.5354C15.145 15.1449 15.145 14.5117 15.5356 14.1212C15.9261 13.7306 16.5593 13.7306 16.9498 14.1212C17.3403 14.5117 17.3403 15.1449 16.9498 15.5354Z" fill="black"/>
<path d="M12.302 4.78961C14.1299 3.63261 16.5783 3.85091 18.172 5.44459L18.5556 5.82818C20.1494 7.42197 20.3676 9.87039 19.2104 11.6983C19.1728 11.702 19.1343 11.7008 19.0951 11.6938C18.5986 11.6046 17.3768 11.1346 15.1212 8.87903C12.8657 6.62347 12.3956 5.40162 12.3065 4.90516C12.2994 4.86587 12.2982 4.82727 12.302 4.78961Z" fill="black"/>
<path d="M4.80145 11.7688C5.06423 11.4486 5.01769 10.976 4.69751 10.7132C4.37732 10.4505 3.90473 10.497 3.64195 10.8172L1.42027 13.5242C1.15749 13.8444 1.20403 14.317 1.52422 14.5798C1.8444 14.8426 2.31699 14.796 2.57977 14.4758L4.80145 11.7688Z" fill="black"/>
<path d="M8.28757 16.7731C8.58046 16.4802 8.58046 16.0053 8.28757 15.7124C7.99467 15.4195 7.5198 15.4195 7.22691 15.7124L3.10559 19.8337C2.81269 20.1266 2.81269 20.6015 3.10559 20.8944C3.39848 21.1873 3.87335 21.1873 4.16625 20.8944L8.28757 16.7731Z" fill="black"/>
<path d="M13.2868 19.3025C13.5495 19.6227 13.5029 20.0953 13.1827 20.3581L10.4755 22.5795C10.1552 22.8423 9.68266 22.7957 9.41991 22.4755C9.15716 22.1552 9.20375 21.6827 9.52396 21.4199L12.2312 19.1985C12.5514 18.9357 13.024 18.9823 13.2868 19.3025Z" fill="black"/>
</svg>
