<svg width="24" height="24" viewBox="0 0 24 24" fill="none" xmlns="http://www.w3.org/2000/svg">
<path d="M7 10L9.29289 12.2929C9.68342 12.6834 10.3166 12.6834 10.7071 12.2929L12.2929 10.7071C12.6834 10.3166 13.3166 10.3166 13.7071 10.7071L17 14M17 14V11.5M17 14H14.5" stroke="black" stroke-width="1.5" stroke-linecap="round" stroke-linejoin="round"/>
<circle cx="19" cy="5" r="3" stroke="black" stroke-width="1.5"/>
<path d="M22 10.5V12C22 16.714 22 19.0711 20.5355 20.5355C19.0711 22 16.714 22 12 22C7.28595 22 4.92893 22 3.46447 20.5355C2 19.0711 2 16.714 2 12C2 10.8717 2 9.87835 2.02008 9M13.5 2H12C7.28595 2 4.92893 2 3.46447 3.46447C3.02355 3.90538 2.71538 4.4272 2.5 5.0699" stroke="black" stroke-width="1.5" stroke-linecap="round"/>
</svg>
