<svg width="24" height="24" viewBox="0 0 24 24" fill="none" xmlns="http://www.w3.org/2000/svg">
<path d="M8.5 4H8C5.17157 4 3.75736 4 2.87868 4.87868C2 5.75736 2 7.17157 2 10V14C2 16.8284 2 18.2426 2.87868 19.1213C3.75736 20 5.17157 20 8 20H8.5M15.5 4H16C18.8284 4 20.2426 4 21.1213 4.87868C22 5.75736 22 7.17157 22 10V14C22 16.8284 22 18.2426 21.1213 19.1213C20.2426 20 18.8284 20 16 20H15.5" stroke="black" stroke-width="1.5" stroke-linecap="round"/>
<path opacity="0.5" d="M17 4V20M7 4V20M2.5 9H7M17 9H21.5M2.5 15H7M17 15H21.5" stroke="black" stroke-width="1.5" stroke-linecap="round"/>
<path opacity="0.5" d="M13.1384 2H10.8616C10.4777 2 10.237 2.41474 10.4275 2.74807L11.5659 4.74029C11.7578 5.07619 12.2422 5.07619 12.4341 4.74029L13.5725 2.74807C13.763 2.41474 13.5223 2 13.1384 2Z" stroke="black" stroke-width="1.5" stroke-linecap="round"/>
<path opacity="0.5" d="M13.1384 22H10.8616C10.4777 22 10.237 21.5853 10.4275 21.252L11.5659 19.2597C11.7578 18.9238 12.2422 18.9238 12.4341 19.2597L13.5725 21.252C13.763 21.5853 13.5223 22 13.1384 22Z" stroke="black" stroke-width="1.5" stroke-linecap="round"/>
<path d="M12 11.5V12.5" stroke="black" stroke-width="1.5" stroke-linecap="round"/>
<path d="M12 7.5V8.5" stroke="black" stroke-width="1.5" stroke-linecap="round"/>
<path d="M12 15.5V16.5" stroke="black" stroke-width="1.5" stroke-linecap="round"/>
</svg>
