<svg width="24" height="24" viewBox="0 0 24 24" fill="none" xmlns="http://www.w3.org/2000/svg">
<path d="M7.0162 17.0417C6.76819 16.9998 6.51215 16.9998 6.00008 16.9998C4.62617 16.9998 3.93921 16.9998 3.33988 16.7225C2.7923 16.4692 2.24473 15.9539 1.95854 15.4228C1.64531 14.8414 1.60847 14.237 1.53479 13.0282C1.51299 12.6706 1.5 12.3222 1.5 11.9998C1.5 11.6774 1.51299 11.329 1.53479 10.9714C1.60847 9.76255 1.64531 9.15814 1.95854 8.57679C2.24473 8.04563 2.7923 7.53042 3.33988 7.27707C3.93921 6.99979 4.62617 6.99979 6.00008 6.99979C6.51215 6.99979 6.76819 6.99979 7.0162 6.95791C7.26138 6.9165 7.50046 6.84478 7.72795 6.74438C7.95806 6.64283 8.17181 6.50189 8.59932 6.22002L8.81825 6.07566C11.3612 4.39898 12.6327 3.56063 13.7001 3.92487C13.9047 3.9947 14.1028 4.09551 14.2797 4.21984C15.115 4.80685 15.2516 6.09882 15.374 8.57679" stroke="black" stroke-width="1.5"/>
<path opacity="0.5" d="M15.5 8.5V12C15.5 12.5319 15.4646 13.4881 15.4127 14.6054C15.2725 17.6228 15.2024 19.1315 14.2797 19.78C14.1028 19.9043 13.9047 20.0051 13.7001 20.0749C12.7327 20.405 11.5975 19.7473 9.5 18.3727C8.83333 17.9152 7.4 17 7 17" stroke="black" stroke-width="1.5"/>
<path opacity="0.5" d="M20 18C20 18 21.5 16.2 21.5 12C21.5 9.56658 20.9965 7.93882 20.5729 7" stroke="black" stroke-width="1.5" stroke-linecap="round"/>
<path opacity="0.5" d="M18 15C18 15 18.5 14.1 18.5 12C18.5 11.1381 18.4158 10.4784 18.3165 10" stroke="black" stroke-width="1.5" stroke-linecap="round"/>
<path d="M22 2L2 22" stroke="black" stroke-width="1.5" stroke-linecap="round"/>
</svg>
