<svg width="24" height="24" viewBox="0 0 24 24" fill="none" xmlns="http://www.w3.org/2000/svg">
<path fill-rule="evenodd" clip-rule="evenodd" d="M12.6688 1.51033C13.3163 1.14123 14.1522 1.14042 14.851 1.66457C16.6985 3.05035 18.75 5.44509 18.75 8.80739C18.75 11.5394 17.5553 13.3133 16.0287 14.3768C14.5415 15.4129 12.7818 15.7499 11.6 15.7499C10.5303 15.7499 8.95621 15.4018 7.63285 14.3482C6.27658 13.2683 5.25001 11.4986 5.25001 8.80739C5.25001 6.38391 6.65543 4.82595 7.84342 4.02968C8.76446 3.41234 10.1355 3.81387 10.3154 5.06983C10.3813 5.52966 10.6181 5.85734 10.7874 5.96785C10.8071 5.98073 10.8221 5.98839 10.8326 5.99289C10.8518 5.97705 10.8846 5.94352 10.9273 5.87666C11.4099 5.11986 11.6029 4.03939 11.6029 3.3889C11.6029 2.56945 12.0353 1.87144 12.6688 1.51033ZM10.8134 6.00565C10.8133 6.00551 10.8147 6.00468 10.8177 6.00358C10.8149 6.00525 10.8134 6.00579 10.8134 6.00565ZM10.8484 5.99844C10.8507 5.99856 10.8519 5.99884 10.852 5.99895C10.852 5.99906 10.8508 5.999 10.8484 5.99844ZM13.4116 2.81349C13.2456 2.90811 13.1029 3.10904 13.1029 3.3889C13.1029 4.22386 12.8749 5.6123 12.192 6.68317C11.945 7.07048 11.5949 7.37008 11.1442 7.46694C10.6969 7.56306 10.2842 7.43066 9.96745 7.22391C9.35848 6.82638 8.94298 6.06746 8.83054 5.28253C8.82846 5.26801 8.82542 5.25962 8.82376 5.25576C8.82209 5.25187 8.82086 5.25031 8.82059 5.24997L8.82057 5.24995C8.82038 5.2497 8.81842 5.24714 8.81111 5.24428C8.79785 5.2391 8.74945 5.22817 8.67857 5.27568C7.76136 5.89046 6.75001 7.0363 6.75001 8.80739C6.75001 11.0702 7.5901 12.3968 8.56716 13.1747C9.57714 13.9788 10.803 14.2499 11.6 14.2499C12.5515 14.2499 13.9918 13.9677 15.1713 13.146C16.3114 12.3518 17.25 11.0294 17.25 8.80739C17.25 6.10679 15.6038 4.10433 13.9509 2.86452C13.7518 2.71514 13.5636 2.72686 13.4116 2.81349ZM15.2155 9.28157C15.6123 9.40059 15.8374 9.81871 15.7184 10.2155C15.4495 11.1118 14.3344 12.7499 12 12.7499C11.5858 12.7499 11.25 12.4142 11.25 11.9999C11.25 11.5857 11.5858 11.2499 12 11.2499C13.5056 11.2499 14.1505 10.2214 14.2816 9.78443C14.4007 9.38768 14.8188 9.16255 15.2155 9.28157ZM3.31289 14.6993C3.47891 14.3198 3.92114 14.1468 4.30062 14.3128L9.30062 16.5003C9.68011 16.6663 9.85315 17.1086 9.68712 17.4881C9.5211 17.8675 9.07888 18.0406 8.69939 17.8746L3.69939 15.6871C3.31991 15.521 3.14686 15.0788 3.31289 14.6993ZM20.6871 14.6993C20.8531 15.0788 20.6801 15.521 20.3006 15.6871L4.30062 22.6871C3.92114 22.8531 3.47891 22.68 3.31289 22.3006C3.14686 21.9211 3.31991 21.4788 3.69939 21.3128L19.6994 14.3128C20.0789 14.1468 20.5211 14.3198 20.6871 14.6993ZM13.8129 19.2931C13.9789 18.9136 14.4211 18.7405 14.8006 18.9066L20.3006 21.3128C20.6801 21.4788 20.8531 21.9211 20.6871 22.3006C20.5211 22.68 20.0789 22.8531 19.6994 22.6871L14.1994 20.2808C13.8199 20.1148 13.6469 19.6726 13.8129 19.2931Z" fill="black"/>
</svg>
