<svg width="24" height="24" viewBox="0 0 24 24" fill="none" xmlns="http://www.w3.org/2000/svg">
<path fill-rule="evenodd" clip-rule="evenodd" d="M11.9426 1.25H12.0574C14.3658 1.24999 16.1748 1.24998 17.5863 1.43975C19.031 1.63399 20.1711 2.03933 21.0659 2.93414C21.9607 3.82895 22.366 4.96897 22.5603 6.41371C22.75 7.82519 22.75 9.63423 22.75 11.9426V12.0574C22.75 14.3658 22.75 16.1748 22.5603 17.5863C22.366 19.031 21.9607 20.1711 21.0659 21.0659C20.1711 21.9607 19.031 22.366 17.5863 22.5603C16.1748 22.75 14.3658 22.75 12.0574 22.75H11.9426C9.63423 22.75 7.82519 22.75 6.41371 22.5603C4.96897 22.366 3.82895 21.9607 2.93414 21.0659C2.03933 20.1711 1.63399 19.031 1.43975 17.5863C1.24998 16.1748 1.24999 14.3658 1.25 12.0574V11.9426C1.24999 9.63423 1.24998 7.82519 1.43975 6.41371C1.63399 4.96897 2.03933 3.82895 2.93414 2.93414C3.82895 2.03933 4.96897 1.63399 6.41371 1.43975C7.82519 1.24998 9.63423 1.24999 11.9426 1.25ZM6.61358 2.92637C5.33517 3.09825 4.56445 3.42514 3.9948 3.9948C3.42514 4.56445 3.09825 5.33517 2.92637 6.61358C2.75159 7.91356 2.75 9.62178 2.75 12C2.75 14.3782 2.75159 16.0864 2.92637 17.3864C3.09825 18.6648 3.42514 19.4355 3.9948 20.0052C4.56445 20.5749 5.33517 20.9018 6.61358 21.0736C7.91356 21.2484 9.62178 21.25 12 21.25C14.3782 21.25 16.0864 21.2484 17.3864 21.0736C18.6648 20.9018 19.4355 20.5749 20.0052 20.0052C20.5749 19.4355 20.9018 18.6648 21.0736 17.3864C21.2484 16.0864 21.25 14.3782 21.25 12C21.25 9.62178 21.2484 7.91356 21.0736 6.61358C20.9018 5.33517 20.5749 4.56445 20.0052 3.9948C19.4355 3.42514 18.6648 3.09825 17.3864 2.92637C16.0864 2.75159 14.3782 2.75 12 2.75C9.62178 2.75 7.91356 2.75159 6.61358 2.92637ZM12.4862 6.29705C13.073 5.95136 13.8336 5.95308 14.4603 6.4389C16.0188 7.64708 17.75 9.73584 17.75 12.6667C17.75 15.0444 16.7425 16.6029 15.4382 17.542C14.1722 18.4535 12.6756 18.75 11.6667 18.75C10.7467 18.75 9.40248 18.4415 8.27345 17.5125C7.11373 16.5582 6.25 15.0049 6.25 12.6667C6.25 10.4868 7.50771 9.10113 8.54104 8.41495C8.92272 8.1615 9.40644 8.08161 9.84256 8.25147C10.3056 8.43182 10.6187 8.86017 10.6473 9.3909C10.657 9.57046 10.699 9.73649 10.7576 9.87013C10.7856 9.93407 10.8147 9.98441 10.8411 10.0228C11.3119 9.37037 11.5441 8.47891 11.5441 8C11.5441 7.26882 11.9175 6.63203 12.4862 6.29705ZM13.2475 7.58946C13.1499 7.64698 13.0441 7.7844 13.0441 8C13.0441 8.79882 12.7065 10.0268 12.0228 10.9481C11.7843 11.2694 11.4518 11.5304 11.026 11.5904C10.5976 11.6509 10.2283 11.4864 9.96514 11.27C9.54488 10.9245 9.28031 10.3695 9.18514 9.79609C8.48247 10.3262 7.75 11.2597 7.75 12.6667C7.75 14.5951 8.44182 15.7085 9.22655 16.3542C10.042 17.0252 11.0311 17.25 11.6667 17.25C12.4355 17.25 13.6055 17.0132 14.5618 16.3247C15.4798 15.6637 16.25 14.5556 16.25 12.6667C16.25 10.3758 14.8998 8.67751 13.5413 7.6244C13.4689 7.56826 13.4137 7.5559 13.3786 7.55404C13.3404 7.55201 13.2957 7.56111 13.2475 7.58946Z" fill="black"/>
</svg>
