<svg width="24" height="24" viewBox="0 0 24 24" fill="none" xmlns="http://www.w3.org/2000/svg">
<path fill-rule="evenodd" clip-rule="evenodd" d="M11.948 1.25H12.052C12.9505 1.24997 13.6997 1.24995 14.2945 1.32991C14.9223 1.41432 15.4891 1.59999 15.9445 2.05546C16.4 2.51093 16.5857 3.07773 16.6701 3.70552C16.7292 4.14512 16.7446 4.66909 16.7486 5.27533C17.3971 5.29614 17.9752 5.33406 18.489 5.40314C19.6614 5.56076 20.6104 5.89288 21.3588 6.64124C22.1071 7.38961 22.4392 8.33856 22.5969 9.51098C22.75 10.6502 22.75 12.1058 22.75 13.9436V14.0564C22.75 15.8942 22.75 17.3498 22.5969 18.489C22.4392 19.6614 22.1071 20.6104 21.3588 21.3588C20.6104 22.1071 19.6614 22.4392 18.489 22.5969C17.3498 22.75 15.8942 22.75 14.0564 22.75H9.94359C8.10583 22.75 6.65019 22.75 5.51098 22.5969C4.33856 22.4392 3.38961 22.1071 2.64124 21.3588C1.89288 20.6104 1.56076 19.6614 1.40314 18.489C1.24997 17.3498 1.24998 15.8942 1.25 14.0564V13.9436C1.24998 12.1058 1.24997 10.6502 1.40314 9.51098C1.56076 8.33856 1.89288 7.38961 2.64124 6.64124C3.38961 5.89288 4.33856 5.56076 5.51098 5.40314C6.02475 5.33406 6.60288 5.29614 7.2514 5.27533C7.2554 4.66909 7.27081 4.14512 7.32991 3.70552C7.41432 3.07773 7.59999 2.51093 8.05546 2.05546C8.51093 1.59999 9.07773 1.41432 9.70552 1.32991C10.3003 1.24995 11.0495 1.24997 11.948 1.25ZM8.7518 5.25178C9.12993 5.24999 9.52694 5.25 9.94358 5.25H14.0564C14.4731 5.25 14.8701 5.24999 15.2482 5.25178C15.244 4.68146 15.23 4.25125 15.1835 3.90539C15.1214 3.44393 15.0142 3.24644 14.8839 3.11612C14.7536 2.9858 14.5561 2.87858 14.0946 2.81654C13.6116 2.7516 12.964 2.75 12 2.75C11.036 2.75 10.3884 2.7516 9.90539 2.81654C9.44393 2.87858 9.24643 2.9858 9.11612 3.11612C8.9858 3.24644 8.87858 3.44393 8.81654 3.90539C8.77004 4.25125 8.75601 4.68146 8.7518 5.25178ZM5.71085 6.88976C4.70476 7.02503 4.12511 7.2787 3.7019 7.70191C3.27869 8.12511 3.02502 8.70476 2.88976 9.71085C2.75159 10.7385 2.75 12.0932 2.75 14C2.75 15.9068 2.75159 17.2615 2.88976 18.2892C3.02502 19.2952 3.27869 19.8749 3.7019 20.2981C4.12511 20.7213 4.70476 20.975 5.71085 21.1102C6.73851 21.2484 8.09318 21.25 10 21.25H14C15.9068 21.25 17.2615 21.2484 18.2892 21.1102C19.2952 20.975 19.8749 20.7213 20.2981 20.2981C20.7213 19.8749 20.975 19.2952 21.1102 18.2892C21.2484 17.2615 21.25 15.9068 21.25 14C21.25 12.0932 21.2484 10.7385 21.1102 9.71085C20.975 8.70476 20.7213 8.12511 20.2981 7.70191C19.8749 7.2787 19.2952 7.02503 18.2892 6.88976C17.2615 6.7516 15.9068 6.75 14 6.75H10C8.09318 6.75 6.73851 6.7516 5.71085 6.88976Z" fill="black"/>
<path d="M17 9C17 9.55229 16.5523 10 16 10C15.4477 10 15 9.55229 15 9C15 8.44772 15.4477 8 16 8C16.5523 8 17 8.44772 17 9Z" fill="black"/>
<path d="M9 9C9 9.55229 8.55229 10 8 10C7.44772 10 7 9.55229 7 9C7 8.44772 7.44772 8 8 8C8.55229 8 9 8.44772 9 9Z" fill="black"/>
</svg>
