<svg width="24" height="24" viewBox="0 0 24 24" fill="none" xmlns="http://www.w3.org/2000/svg">
<path fill-rule="evenodd" clip-rule="evenodd" d="M8.25014 6.01489C8.25005 6.00994 8.25 6.00498 8.25 6V5C8.25 2.92893 9.92893 1.25 12 1.25C14.0711 1.25 15.75 2.92893 15.75 5V6C15.75 6.00498 15.75 6.00994 15.7499 6.0149C17.0371 6.05353 17.8248 6.1924 18.4261 6.69147C19.2593 7.38295 19.4787 8.55339 19.9177 10.8943L20.6677 14.8943C21.2849 18.186 21.5934 19.8318 20.6937 20.9159C19.794 22 18.1195 22 14.7704 22H9.22954C5.88048 22 4.20595 22 3.30624 20.9159C2.40652 19.8318 2.71512 18.186 3.33231 14.8943L4.08231 10.8943C4.52122 8.55339 4.74068 7.38295 5.57386 6.69147C6.17521 6.19239 6.96288 6.05353 8.25014 6.01489ZM9.75 5C9.75 3.75736 10.7574 2.75 12 2.75C13.2426 2.75 14.25 3.75736 14.25 5V6C14.25 6.00001 14.25 5.99999 14.25 6C14.1747 5.99998 14.0982 6 14.0204 6H9.97954C9.90177 6 9.82526 6 9.75 6.00002C9.75 6.00002 9.75 6.00003 9.75 6.00002V5ZM15.7399 10.8768C15.6718 10.4682 15.2854 10.1922 14.8768 10.2603C14.4682 10.3284 14.1922 10.7148 14.2603 11.1234L15.2603 17.1234C15.3284 17.532 15.7148 17.808 16.1234 17.7399C16.532 17.6718 16.808 17.2854 16.7399 16.8768L15.7399 10.8768ZM9.12317 10.2603C8.71459 10.1922 8.32817 10.4682 8.26007 10.8768L7.26007 16.8768C7.19198 17.2854 7.46799 17.6718 7.87657 17.7399C8.28515 17.808 8.67157 17.532 8.73966 17.1234L9.73966 11.1234C9.80776 10.7148 9.53174 10.3284 9.12317 10.2603Z" fill="black"/>
</svg>
