<svg width="24" height="24" viewBox="0 0 24 24" fill="none" xmlns="http://www.w3.org/2000/svg">
<path fill-rule="evenodd" clip-rule="evenodd" d="M8.25 7.00151L8.25 6C8.25 3.92893 9.92893 2.25 12 2.25C14.0711 2.25 15.75 3.92893 15.75 6V7L15.75 7.00151C18.4344 7.0136 19.8606 7.1222 20.6606 8.09803C21.5608 9.19607 21.2287 10.8563 20.5646 14.1767L19.9646 17.1767C19.5029 19.4856 19.272 20.6401 18.4425 21.32C17.6131 22 16.4358 22 14.0812 22H9.9188C7.56417 22 6.38686 22 5.55742 21.32C4.72799 20.6401 4.4971 19.4856 4.03532 17.1767L3.43532 14.1767C2.77123 10.8563 2.43919 9.19607 3.33936 8.09803C4.13936 7.12219 5.56562 7.0136 8.25 7.00151ZM9.75 6C9.75 4.75736 10.7574 3.75 12 3.75C13.2426 3.75 14.25 4.75736 14.25 6V7H9.75V6ZM15 11C15.5523 11 16 10.5523 16 10C16 9.44772 15.5523 9 15 9C14.4477 9 14 9.44772 14 10C14 10.5523 14.4477 11 15 11ZM9.99998 10C9.99998 10.5523 9.55226 11 8.99998 11C8.44769 11 7.99998 10.5523 7.99998 10C7.99998 9.44772 8.44769 9 8.99998 9C9.55226 9 9.99998 9.44772 9.99998 10Z" fill="black"/>
</svg>
