<svg width="24" height="24" viewBox="0 0 24 24" fill="none" xmlns="http://www.w3.org/2000/svg">
<path fill-rule="evenodd" clip-rule="evenodd" d="M8.25012 7.01346C8.25004 7.00898 8.25 7.00449 8.25 7V6C8.25 3.92893 9.92893 2.25 12 2.25C14.0711 2.25 15.75 3.92893 15.75 6V7C15.75 7.0045 15.75 7.00898 15.7499 7.01346C17.0472 7.04975 17.8375 7.18393 18.4425 7.67997C19.272 8.35995 19.5029 9.5144 19.9646 11.8233L20.5646 14.8233C21.2287 18.1437 21.5608 19.8039 20.6606 20.902C19.7604 22 18.0673 22 14.6812 22H9.3188C5.93262 22 4.23954 22 3.33936 20.902C2.43919 19.8039 2.77123 18.1437 3.43532 14.8233L4.03532 11.8233C4.4971 9.5144 4.72799 8.35995 5.55742 7.67997C6.16251 7.18392 6.95273 7.04975 8.25012 7.01346ZM9.75 6C9.75 4.75736 10.7574 3.75 12 3.75C13.2426 3.75 14.25 4.75736 14.25 6V7C14.25 7 14.25 7 14.25 7C14.1944 6.99999 14.1381 7 14.0812 7H9.9188C9.86185 7 9.80559 7 9.75 7.00001C9.75 7.00001 9.75 7.00001 9.75 7.00001V6ZM15 11C15.5523 11 16 10.5523 16 10C16 9.44772 15.5523 9 15 9C14.4477 9 14 9.44772 14 10C14 10.5523 14.4477 11 15 11ZM9.99998 10C9.99998 10.5523 9.55226 11 8.99998 11C8.44769 11 7.99998 10.5523 7.99998 10C7.99998 9.44772 8.44769 9 8.99998 9C9.55226 9 9.99998 9.44772 9.99998 10Z" fill="black"/>
</svg>
