<svg width="24" height="24" viewBox="0 0 24 24" fill="none" xmlns="http://www.w3.org/2000/svg">
<path fill-rule="evenodd" clip-rule="evenodd" d="M8.25014 6.01489C8.25005 6.00994 8.25 6.00498 8.25 6V5C8.25 2.92893 9.92893 1.25 12 1.25C14.0711 1.25 15.75 2.92893 15.75 5V6C15.75 6.00498 15.75 6.00994 15.7499 6.0149C17.0371 6.05353 17.8248 6.1924 18.4261 6.69147C19.2593 7.38295 19.4787 8.55339 19.9177 10.8943L20.6677 14.8943C21.2849 18.186 21.5934 19.8318 20.6937 20.9159C19.794 22 18.1195 22 14.7704 22H9.22954C5.88048 22 4.20595 22 3.30624 20.9159C2.40652 19.8318 2.71512 18.186 3.33231 14.8943L4.08231 10.8943C4.52122 8.55339 4.74068 7.38295 5.57386 6.69147C6.17521 6.19239 6.96288 6.05353 8.25014 6.01489ZM9.75 5C9.75 3.75736 10.7574 2.75 12 2.75C13.2426 2.75 14.25 3.75736 14.25 5V6C14.25 6.00001 14.25 5.99999 14.25 6C14.1747 5.99998 14.0982 6 14.0204 6H9.97954C9.90177 6 9.82526 6 9.75 6.00002C9.75 6.00002 9.75 6.00003 9.75 6.00002V5ZM8.99998 13.1967C8.99998 14.1812 10.1648 15.2213 11.0428 15.8656C11.4626 16.1736 11.6725 16.3276 12 16.3276C12.3275 16.3276 12.5374 16.1736 12.9571 15.8656C13.8351 15.2214 15 14.1812 15 13.1967C15 11.5235 13.3499 10.8988 12 12.1913C10.65 10.8988 8.99998 11.5235 8.99998 13.1967Z" fill="black"/>
</svg>
