<svg width="24" height="24" viewBox="0 0 24 24" fill="none" xmlns="http://www.w3.org/2000/svg">
<path fill-rule="evenodd" clip-rule="evenodd" d="M8.25013 6.01489C8.25003 6.00994 8.24998 6.00498 8.24998 6V5C8.24998 2.92893 9.92892 1.25 12 1.25C14.0711 1.25 15.75 2.92893 15.75 5V6C15.75 6.00498 15.7499 6.00994 15.7498 6.01489C17.0371 6.05353 17.8248 6.1924 18.4261 6.69147C19.2593 7.38295 19.4787 8.55339 19.9177 10.8943L20.6677 14.8943C21.2849 18.186 21.5934 19.8318 20.6937 20.9159C19.794 22 18.1195 22 14.7704 22H9.22954C5.88048 22 4.20595 22 3.30624 20.9159C2.40652 19.8318 2.71512 18.186 3.33231 14.8943L4.08231 10.8943C4.52122 8.55339 4.74068 7.38295 5.57386 6.69147C6.17521 6.1924 6.96287 6.05353 8.25013 6.01489ZM9.74998 5C9.74998 3.75736 10.7573 2.75 12 2.75C13.2426 2.75 14.25 3.75736 14.25 5V6C14.25 6.00001 14.25 5.99999 14.25 6C14.1747 5.99998 14.0982 6 14.0204 6H9.97954C9.90176 6 9.82525 6 9.74998 6.00002C9.74998 6.00002 9.74998 6.00003 9.74998 6.00002V5Z" fill="black"/>
</svg>
