<svg width="24" height="24" viewBox="0 0 24 24" fill="none" xmlns="http://www.w3.org/2000/svg">
<path fill-rule="evenodd" clip-rule="evenodd" d="M8.41799 3.25089C8.69867 2.65917 9.30155 2.25 10 2.25H14C14.6984 2.25 15.3013 2.65917 15.582 3.25089C16.2655 3.25586 16.7983 3.28724 17.2738 3.47309C17.842 3.69516 18.3362 4.07266 18.6999 4.56242C19.0668 5.0565 19.2391 5.68979 19.4762 6.56144L20.2181 9.28272L20.4985 10.124C20.5065 10.1339 20.5144 10.1438 20.5222 10.1539C21.4231 11.3076 20.9941 13.0235 20.1362 16.4553C19.5905 18.638 19.3176 19.7293 18.5039 20.3647C17.6901 21.0001 16.5652 21.0001 14.3153 21.0001H9.68462C7.43476 21.0001 6.30983 21.0001 5.49605 20.3647C4.68227 19.7293 4.40943 18.638 3.86376 16.4553C3.00581 13.0235 2.57684 11.3076 3.47767 10.1539C3.48555 10.1438 3.4935 10.1338 3.50152 10.1239L3.7819 9.28271L4.52384 6.56145C4.76092 5.6898 4.93316 5.0565 5.30009 4.56242C5.66381 4.07266 6.15802 3.69516 6.72621 3.4731C7.20175 3.28724 7.73447 3.25586 8.41799 3.25089ZM8.41951 4.75231C7.75763 4.759 7.49204 4.78427 7.27224 4.87018C6.96629 4.98976 6.70018 5.19303 6.50433 5.45674C6.32822 5.69388 6.22488 6.0252 5.93398 7.09206L5.36442 9.18091C6.38451 9.00012 7.77753 9.00012 9.68462 9.00012H14.3153C16.2224 9.00012 17.6155 9.00012 18.6356 9.18092L18.066 7.09206C17.7751 6.0252 17.6718 5.69388 17.4957 5.45674C17.2998 5.19303 17.0337 4.98976 16.7278 4.87018C16.508 4.78427 16.2424 4.759 15.5805 4.75231C15.2992 5.3423 14.6972 5.75 14 5.75H10C9.30281 5.75 8.70084 5.3423 8.41951 4.75231Z" fill="black"/>
</svg>
