<svg width="24" height="24" viewBox="0 0 24 24" fill="none" xmlns="http://www.w3.org/2000/svg">
<path d="M7.5 18C8.32843 18 9 18.6716 9 19.5C9 20.3284 8.32843 21 7.5 21C6.67157 21 6 20.3284 6 19.5C6 18.6716 6.67157 18 7.5 18Z" fill="black"/>
<path d="M16.5 18.0001C17.3284 18.0001 18 18.6716 18 19.5001C18 20.3285 17.3284 21.0001 16.5 21.0001C15.6716 21.0001 15 20.3285 15 19.5001C15 18.6716 15.6716 18.0001 16.5 18.0001Z" fill="black"/>
<path d="M2.08416 2.75145C2.22155 2.36068 2.6497 2.15527 3.04047 2.29266L3.34187 2.39862C3.95839 2.61536 4.48203 2.79943 4.89411 3.00163C5.33474 3.21784 5.71259 3.48417 5.99677 3.90003C6.27875 4.31268 6.39517 4.76539 6.4489 5.26177C6.47295 5.48397 6.48564 5.72991 6.49233 6.00024H8.15018L9.80491 15.3771C7.77998 15.3593 6.6646 15.2418 5.92943 14.4664C5.06302 13.5526 4.99979 12.5818 4.99979 9.64024L4.99979 7.03856C4.99979 6.29862 4.99877 5.8034 4.95761 5.42319C4.91828 5.05984 4.84858 4.87842 4.75832 4.74634C4.67026 4.61747 4.53659 4.49704 4.23336 4.34826C3.91052 4.18985 3.47177 4.0343 2.80416 3.79958L2.54295 3.70775C2.15218 3.57036 1.94678 3.14221 2.08416 2.75145Z" fill="black"/>
<path d="M11.3286 15.3802H14.1714L15.8266 6.00024H9.67335L11.3286 15.3802Z" fill="black"/>
<path d="M17.3498 6.00029C18.9457 6.00134 20.3516 6.0254 20.7762 6.57733C21.2202 7.15441 21.0466 8.02394 20.6995 9.763L20.1997 12.1877C19.8846 13.7166 19.727 14.481 19.1753 14.9306C18.6236 15.3802 17.8431 15.3802 16.2821 15.3802H15.6945L17.3498 6.00029Z" fill="black"/>
</svg>
