<svg width="24" height="24" viewBox="0 0 24 24" fill="none" xmlns="http://www.w3.org/2000/svg">
<path d="M2.23737 2.28869C1.84442 2.15771 1.41968 2.37008 1.28869 2.76303C1.15771 3.15599 1.37008 3.58073 1.76303 3.71172L2.02794 3.80002C2.70435 4.02549 3.15155 4.17575 3.481 4.32901C3.79296 4.47414 3.92784 4.59093 4.01426 4.71083C4.10068 4.83074 4.16883 4.99562 4.20785 5.33747C4.24907 5.69848 4.2502 6.17024 4.2502 6.88324L4.2502 9.55508C4.25018 10.9227 4.25017 12.025 4.36673 12.892C4.48774 13.7921 4.74664 14.5499 5.34855 15.1519C5.95047 15.7538 6.70834 16.0127 7.60845 16.1337C8.47542 16.2502 9.57773 16.2502 10.9453 16.2502H18.0002C18.4144 16.2502 18.7502 15.9144 18.7502 15.5002C18.7502 15.086 18.4144 14.7502 18.0002 14.7502H11.0002C9.56479 14.7502 8.56367 14.7486 7.80832 14.6471C7.07455 14.5484 6.68598 14.368 6.40921 14.0912C6.17403 13.856 6.00839 13.5401 5.9034 13.0002H16.0222C16.9817 13.0002 17.4614 13.0002 17.8371 12.7525C18.2128 12.5047 18.4017 12.0638 18.7797 11.182L19.2082 10.182C20.0177 8.29314 20.4225 7.34873 19.9779 6.67447C19.5333 6.0002 18.5058 6.0002 16.4508 6.0002H5.74526C5.73936 5.69252 5.72644 5.41491 5.69817 5.16732C5.64282 4.6825 5.52222 4.23764 5.23112 3.83377C4.94002 3.42989 4.55613 3.1748 4.1137 2.96898C3.69746 2.77534 3.16814 2.59892 2.54176 2.39015L2.23737 2.28869Z" fill="black"/>
<path d="M7.5 18.0002C8.32843 18.0002 9 18.6718 9 19.5002C9 20.3287 8.32843 21.0002 7.5 21.0002C6.67157 21.0002 6 20.3287 6 19.5002C6 18.6718 6.67157 18.0002 7.5 18.0002Z" fill="black"/>
<path d="M16.5 18.0003C17.3284 18.0003 18 18.6719 18 19.5003C18 20.3287 17.3284 21.0003 16.5 21.0003C15.6716 21.0003 15 20.3287 15 19.5003C15 18.6719 15.6716 18.0003 16.5 18.0003Z" fill="black"/>
</svg>
