<svg width="24" height="24" viewBox="0 0 24 24" fill="none" xmlns="http://www.w3.org/2000/svg">
<path d="M8.41799 3.25089C8.69867 2.65917 9.30155 2.25 10 2.25H14C14.6984 2.25 15.3013 2.65917 15.582 3.25089C16.2655 3.25586 16.7983 3.28724 17.2738 3.47309C17.842 3.69516 18.3362 4.07266 18.6999 4.56242C19.0668 5.0565 19.2391 5.68979 19.4762 6.56144L19.5132 6.69747L19.515 6.70412L20.3886 10.0282L20.4005 10.0107C20.4428 10.0563 20.4833 10.104 20.5222 10.1539C21.4231 11.3076 20.9941 13.0235 20.1362 16.4553C20.058 16.7679 19.9854 17.0582 19.9161 17.3279L17.4386 14.3549L19.2692 11.67L18.7641 9.74813L16.4401 13.1567L12.9763 9.00012H14.3153C16.209 9.00012 17.5959 9.00012 18.614 9.17713L18.0651 7.08876C17.7749 6.02451 17.6716 5.69364 17.4957 5.45674C17.2998 5.19303 17.0337 4.98976 16.7278 4.87018C16.508 4.78427 16.2424 4.759 15.5805 4.75231C15.2992 5.3423 14.6972 5.75 14 5.75H10C9.30281 5.75 8.70084 5.3423 8.41951 4.75231C7.75763 4.759 7.49204 4.78427 7.27224 4.87018C6.96629 4.98976 6.70018 5.19303 6.50433 5.45674C6.3284 5.69363 6.22509 6.02451 5.93489 7.08874L5.38601 9.17711C6.40415 9.00012 7.79095 9.00012 9.68462 9.00012H11.0237L7.55993 13.1567L5.23593 9.74813L4.73082 11.67L6.56142 14.3549L4.08384 17.328C4.01449 17.0582 3.94192 16.768 3.86376 16.4553C3.00581 13.0235 2.57684 11.3076 3.47767 10.1539C3.51661 10.104 3.55717 10.0563 3.59943 10.0106L3.61139 10.0282L4.48503 6.70412L4.48681 6.69746L4.52384 6.56145C4.76091 5.6898 4.93316 5.0565 5.30009 4.56242C5.66381 4.07266 6.15802 3.69516 6.72621 3.4731C7.20175 3.28724 7.73447 3.25586 8.41799 3.25089Z" fill="black"/>
<path d="M4.60211 19.0491C4.83486 19.6426 5.10205 20.0571 5.49605 20.3647C6.30983 21.0001 7.43476 21.0001 9.68462 21.0001H11.0923L7.44007 15.6436L4.60211 19.0491Z" fill="black"/>
<path d="M12.9077 21.0001H14.3153C16.5652 21.0001 17.6901 21.0001 18.5039 20.3647C18.8979 20.0571 19.1651 19.6426 19.3978 19.0491L16.5599 15.6436L12.9077 21.0001Z" fill="black"/>
<path d="M12 19.6688L8.43858 14.4454L12 10.1717L15.5614 14.4454L12 19.6688Z" fill="black"/>
</svg>
