<svg width="24" height="24" viewBox="0 0 24 24" fill="none" xmlns="http://www.w3.org/2000/svg">
<path fill-rule="evenodd" clip-rule="evenodd" d="M10.4656 1.25001C10.4771 1.25001 10.4886 1.25002 10.5 1.25002H10.8307C10.8682 1.25002 10.9058 1.25002 10.9436 1.25002L11 1.25002C11.0114 1.25002 11.0229 1.25001 11.0344 1.25001C11.0577 1.25 11.0811 1.24999 11.1047 1.25002L13.0564 1.25002C14.8942 1.25 16.3498 1.24999 17.489 1.40315C18.6614 1.56078 19.6104 1.8929 20.3588 2.64126C21.1071 3.38962 21.4392 4.33857 21.5969 5.51099C21.75 6.65021 21.75 8.10585 21.75 9.94361V14.0564C21.75 15.8942 21.75 17.3498 21.5969 18.489C21.4392 19.6615 21.1071 20.6104 20.3588 21.3588C19.6104 22.1071 18.6614 22.4393 17.489 22.5969C16.3498 22.75 14.8942 22.75 13.0564 22.75H10.9436C9.10583 22.75 7.65019 22.75 6.51098 22.5969C5.33856 22.4393 4.38961 22.1071 3.64124 21.3588C2.89288 20.6104 2.56076 19.6615 2.40314 18.489C2.24997 17.3498 2.24998 15.8942 2.25 14.0564V9.9436C2.24998 8.10584 2.24997 6.65021 2.40314 5.51099C2.56076 4.33857 2.89288 3.38962 3.64124 2.64126C4.38961 1.8929 5.33856 1.56078 6.51098 1.40315C7.51914 1.26761 8.77511 1.25203 10.3244 1.25025C10.3719 1.24997 10.4192 1.24999 10.4656 1.25001ZM8.75077 2.76309C7.94576 2.77882 7.27843 2.81347 6.71085 2.88978C5.70476 3.02504 5.12511 3.27871 4.7019 3.70192C4.27869 4.12513 4.02502 4.70478 3.88976 5.71087C3.75159 6.73853 3.75 8.0932 3.75 10V14C3.75 15.9068 3.75159 17.2615 3.88976 18.2892C4.02502 19.2953 4.27869 19.8749 4.7019 20.2981C5.12511 20.7213 5.70476 20.975 6.71085 21.1103C7.73851 21.2484 9.09318 21.25 11 21.25H13C14.9068 21.25 16.2615 21.2484 17.2892 21.1103C18.2952 20.975 18.8749 20.7213 19.2981 20.2981C19.7213 19.8749 19.975 19.2953 20.1102 18.2892C20.2484 17.2615 20.25 15.9068 20.25 14V10C20.25 8.0932 20.2484 6.73853 20.1102 5.71087C19.975 4.70478 19.7213 4.12513 19.2981 3.70192C18.8749 3.27871 18.2952 3.02504 17.2892 2.88978C16.2615 2.75161 14.9068 2.75002 13 2.75002H12.7491C12.7501 2.82245 12.75 2.895 12.75 2.96558C12.75 2.97711 12.75 2.9886 12.75 3.00002V3.50002C12.75 3.51144 12.75 3.52292 12.75 3.53446C12.75 3.60534 12.7501 3.67822 12.7491 3.75097C12.8218 3.74995 12.8947 3.74998 12.9656 3.75001C12.9771 3.75001 12.9886 3.75002 13 3.75002H13.5C13.5114 3.75002 13.5229 3.75001 13.5344 3.75001C13.7396 3.74993 13.9614 3.74984 14.1486 3.77501C14.3679 3.8045 14.6481 3.88033 14.8839 4.11613C15.1197 4.35194 15.1955 4.63212 15.225 4.85145C15.2502 5.03867 15.2501 5.26046 15.25 5.46558C15.25 5.47711 15.25 5.4886 15.25 5.50002V6.00002C15.25 6.01144 15.25 6.02292 15.25 6.03446C15.2501 6.23958 15.2502 6.46137 15.225 6.64859C15.1955 6.86791 15.1197 7.1481 14.8839 7.3839C14.6481 7.6197 14.3679 7.69554 14.1486 7.72502C13.9614 7.7502 13.7396 7.75011 13.5344 7.75003C13.5229 7.75002 13.5114 7.75002 13.5 7.75002H13C12.9886 7.75002 12.9771 7.75002 12.9656 7.75003C12.8947 7.75005 12.8218 7.75008 12.7491 7.74907C12.7501 7.82182 12.75 7.89469 12.75 7.96558C12.75 7.97711 12.75 7.9886 12.75 8.00002V8.50002C12.75 8.51144 12.75 8.52292 12.75 8.53446C12.75 8.60534 12.7501 8.67822 12.7491 8.75097C12.8218 8.74995 12.8947 8.74998 12.9656 8.75001C12.9771 8.75001 12.9886 8.75002 13 8.75002H13.5C13.5114 8.75002 13.5229 8.75001 13.5344 8.75001C13.7396 8.74993 13.9614 8.74984 14.1486 8.77501C14.3679 8.8045 14.6481 8.88033 14.8839 9.11613C15.1197 9.35193 15.1955 9.63212 15.225 9.85145C15.2502 10.0387 15.2501 10.2605 15.25 10.4656C15.25 10.4771 15.25 10.4886 15.25 10.5V11C15.25 11.0114 15.25 11.0229 15.25 11.0345C15.2501 11.2396 15.2502 11.4614 15.225 11.6486C15.1955 11.8679 15.1197 12.1481 14.8839 12.3839C14.6481 12.6197 14.3679 12.6955 14.1486 12.725C13.9614 12.7502 13.7396 12.7501 13.5344 12.75C13.5229 12.75 13.5114 12.75 13.5 12.75H13C12.9886 12.75 12.9771 12.75 12.9656 12.75C12.7604 12.7501 12.5386 12.7502 12.3514 12.725C12.1321 12.6955 11.8519 12.6197 11.6161 12.3839C11.3803 12.1481 11.3045 11.8679 11.275 11.6486C11.2498 11.4614 11.2499 11.2396 11.25 11.0345C11.25 11.0229 11.25 11.0114 11.25 11V10.5C11.25 10.4886 11.25 10.4771 11.25 10.4656C11.25 10.3947 11.2499 10.3218 11.2509 10.2491C11.1782 10.2501 11.1053 10.2501 11.0344 10.25C11.0229 10.25 11.0114 10.25 11 10.25H10.5C10.4886 10.25 10.4771 10.25 10.4656 10.25C10.2604 10.2501 10.0386 10.2502 9.85143 10.225C9.63211 10.1955 9.35192 10.1197 9.11612 9.8839C8.88032 9.6481 8.80448 9.36791 8.77499 9.14859C8.74982 8.96137 8.74991 8.73958 8.74999 8.53446C8.75 8.52292 8.75 8.51144 8.75 8.50002V8.00002C8.75 7.9886 8.75 7.97711 8.74999 7.96558C8.74991 7.76046 8.74982 7.53866 8.77499 7.35145C8.80448 7.13212 8.88032 6.85193 9.11612 6.61613C9.35192 6.38033 9.63211 6.3045 9.85143 6.27501C10.0386 6.24984 10.2604 6.24993 10.4656 6.25001C10.4771 6.25001 10.4886 6.25002 10.5 6.25002H11C11.0114 6.25002 11.0229 6.25001 11.0344 6.25001C11.1053 6.24998 11.1782 6.24995 11.2509 6.25097C11.2499 6.17822 11.25 6.10534 11.25 6.03446C11.25 6.02292 11.25 6.01144 11.25 6.00002V5.50002C11.25 5.4886 11.25 5.47711 11.25 5.46558C11.25 5.39469 11.2499 5.32182 11.2509 5.24907C11.1782 5.25008 11.1053 5.25006 11.0344 5.25003C11.0229 5.25002 11.0114 5.25002 11 5.25002H10.5C10.4886 5.25002 10.4771 5.25002 10.4656 5.25003C10.2604 5.25011 10.0386 5.2502 9.85143 5.22502C9.63211 5.19554 9.35192 5.1197 9.11612 4.8839C8.88032 4.6481 8.80448 4.36791 8.77499 4.14859C8.74982 3.96137 8.74991 3.73958 8.74999 3.53446C8.75 3.52292 8.75 3.51144 8.75 3.50002V3.00002C8.75 2.9886 8.75 2.97711 8.74999 2.96558C8.74997 2.89925 8.74994 2.83117 8.75077 2.76309ZM10.3322 2.75033C10.547 2.75004 10.7695 2.75002 11 2.75002C11.0991 2.75002 11.1794 2.75005 11.2488 2.75117C11.25 2.82063 11.25 2.90094 11.25 3.00002V3.50002C11.25 3.5991 11.25 3.67941 11.2488 3.74886C11.1794 3.74998 11.0991 3.75002 11 3.75002H10.5C10.4009 3.75002 10.3206 3.74998 10.2512 3.74886C10.25 3.67941 10.25 3.5991 10.25 3.50002V3.00002C10.25 2.90094 10.25 2.82063 10.2512 2.75117C10.2766 2.75076 10.3035 2.7505 10.3322 2.75033ZM12.7512 5.25117C12.75 5.32063 12.75 5.40094 12.75 5.50002V6.00002C12.75 6.0991 12.75 6.17941 12.7512 6.24886C12.8206 6.24998 12.9009 6.25002 13 6.25002H13.5C13.5991 6.25002 13.6794 6.24998 13.7488 6.24886C13.75 6.17941 13.75 6.0991 13.75 6.00002V5.50002C13.75 5.40094 13.75 5.32063 13.7488 5.25117C13.6794 5.25005 13.5991 5.25002 13.5 5.25002H13C12.9009 5.25002 12.8206 5.25005 12.7512 5.25117ZM10.2512 7.75117C10.25 7.82063 10.25 7.90094 10.25 8.00002V8.50002C10.25 8.5991 10.25 8.67941 10.2512 8.74886C10.3206 8.74998 10.4009 8.75002 10.5 8.75002H11C11.0991 8.75002 11.1794 8.74998 11.2488 8.74886C11.25 8.67941 11.25 8.5991 11.25 8.50002V8.00002C11.25 7.90094 11.25 7.82063 11.2488 7.75117C11.1794 7.75005 11.0991 7.75002 11 7.75002H10.5C10.4009 7.75002 10.3206 7.75005 10.2512 7.75117ZM12.7512 10.2512C12.75 10.3206 12.75 10.4009 12.75 10.5V11C12.75 11.0991 12.75 11.1794 12.7512 11.2489C12.8206 11.25 12.9009 11.25 13 11.25H13.5C13.5991 11.25 13.6794 11.25 13.7488 11.2489C13.75 11.1794 13.75 11.0991 13.75 11V10.5C13.75 10.4009 13.75 10.3206 13.7488 10.2512C13.6794 10.2501 13.5991 10.25 13.5 10.25H13C12.9009 10.25 12.8206 10.2501 12.7512 10.2512ZM10.375 15.25C10.306 15.25 10.25 15.306 10.25 15.375V15.5C10.25 16.4665 11.0335 17.25 12 17.25C12.9665 17.25 13.75 16.4665 13.75 15.5V15.375C13.75 15.306 13.694 15.25 13.625 15.25H10.375ZM8.75 15.375C8.75 14.4776 9.47754 13.75 10.375 13.75H13.625C14.5225 13.75 15.25 14.4776 15.25 15.375V15.5C15.25 17.2949 13.7949 18.75 12 18.75C10.2051 18.75 8.75 17.2949 8.75 15.5V15.375Z" fill="black"/>
</svg>
