<svg width="24" height="24" viewBox="0 0 24 24" fill="none" xmlns="http://www.w3.org/2000/svg">
<path opacity="0.5" d="M22 12C22 17.5228 17.5228 22 12 22C6.47715 22 2 17.5228 2 12C2 6.47715 6.47715 2 12 2C17.5228 2 22 6.47715 22 12Z" fill="black"/>
<path d="M12.0002 9C13.1048 9 14.0002 8.10457 14.0002 7C14.0002 5.89543 13.1048 5 12.0002 5C10.8956 5 10.0002 5.89543 10.0002 7C10.0002 8.10457 10.8956 9 12.0002 9Z" fill="black"/>
<path d="M6.29284 9.30945C5.91154 9.14785 5.4714 9.3259 5.30971 9.7072C5.148 10.0885 5.32605 10.5288 5.70739 10.6905L5.70871 10.691L5.71133 10.6921L5.72038 10.696L5.75338 10.7097C5.78186 10.7215 5.82313 10.7385 5.87608 10.7599C5.98193 10.8026 6.13459 10.8631 6.32498 10.9355C6.70531 11.08 7.23854 11.2726 7.85162 11.4654C8.84049 11.7765 10.088 12.1049 11.2502 12.2131V13.4522C11.2502 13.8837 11.1262 14.306 10.8928 14.6689L8.36931 18.5944C8.14532 18.9429 8.2462 19.4069 8.59463 19.6309C8.94305 19.8549 9.40709 19.754 9.63108 19.4056L12.0002 15.7203L14.3693 19.4056C14.5933 19.754 15.0573 19.8549 15.4058 19.6309C15.7542 19.4069 15.8551 18.9429 15.6311 18.5944L13.1075 14.6689C12.8742 14.306 12.7502 13.8837 12.7502 13.4522V12.2131C13.9124 12.1049 15.1599 11.7765 16.1488 11.4654C16.7619 11.2726 17.2951 11.08 17.6754 10.9355C17.8658 10.8631 18.0185 10.8026 18.1243 10.7599C18.1773 10.7385 18.2185 10.7215 18.247 10.7097L18.28 10.696L18.2891 10.6921L18.2917 10.691L18.2928 10.6906C18.6741 10.5289 18.8524 10.0885 18.6907 9.7072C18.529 9.3259 18.0887 9.1479 17.7074 9.30952L17.6999 9.31266L17.6727 9.32399C17.6482 9.33416 17.6111 9.34942 17.5625 9.36905C17.4653 9.40832 17.3223 9.465 17.1426 9.53328C16.7828 9.67002 16.2777 9.85241 15.6987 10.0346C14.5205 10.4052 13.1114 10.75 12.0002 10.75C10.8889 10.75 9.47991 10.4052 8.30172 10.0346C7.72264 9.85241 7.21763 9.67002 6.85776 9.53328C6.67806 9.465 6.53512 9.40832 6.43791 9.36905C6.38932 9.34942 6.3522 9.33416 6.32767 9.32399L6.30046 9.31266L6.2942 9.31003L6.29284 9.30945Z" fill="black"/>
</svg>
