<svg width="24" height="24" viewBox="0 0 24 24" fill="none" xmlns="http://www.w3.org/2000/svg">
<path opacity="0.5" d="M12 17.9998C16.142 18.0343 19.5937 14.0798 19.5603 9.8043C19.5268 5.52875 16.142 2.03476 12 2.00026C7.858 1.96576 4.52734 5.4038 4.56077 9.67936C4.59419 13.9549 7.858 17.9653 12 17.9998Z" fill="black"/>
<path fill-rule="evenodd" clip-rule="evenodd" d="M11.75 5.99395C11.7534 5.57975 12.0919 5.24668 12.5061 5.25002C14.5591 5.26659 16.2334 6.94088 16.25 8.99395C16.2533 9.40815 15.9203 9.74663 15.5061 9.74998C15.0919 9.75332 14.7534 9.42025 14.75 9.00605C14.7401 7.77194 13.7281 6.75993 12.4939 6.74998C12.0797 6.74663 11.7467 6.40815 11.75 5.99395Z" fill="black"/>
<path d="M13.1801 17.9011C12.7949 17.9691 12.4007 18.0031 12 17.9998C11.6006 17.9964 11.2094 17.9561 10.8284 17.8822L10.8104 17.9223C10.6581 18.1959 10.5819 18.3327 10.5489 18.4381C10.3559 19.0553 10.7534 19.6995 11.4067 19.8279C11.5182 19.8499 11.6788 19.8499 12 19.8499C12.3211 19.8499 12.4818 19.8499 12.5933 19.8279C13.2466 19.6995 13.6441 19.0553 13.4511 18.4381C13.4181 18.3327 13.342 18.1959 13.1896 17.9223L13.1801 17.9011Z" fill="black"/>
<path opacity="0.5" d="M11.25 19.7859C11.3004 19.8033 11.3526 19.8174 11.4067 19.828C11.5182 19.85 11.6788 19.85 12 19.85C12.3211 19.85 12.4818 19.85 12.5933 19.828C12.6474 19.8174 12.6996 19.8033 12.75 19.7859V21.25C12.75 21.6642 12.4142 22 12 22C11.5858 22 11.25 21.6642 11.25 21.25V19.7859Z" fill="black"/>
</svg>
