<svg width="24" height="24" viewBox="0 0 24 24" fill="none" xmlns="http://www.w3.org/2000/svg">
<path opacity="0.5" d="M21.8382 11.1263L21.609 13.5616C21.2313 17.5742 21.0425 19.5805 19.8599 20.7902C18.6773 22 16.9048 22 13.3599 22H10.6401C7.09517 22 5.32271 22 4.14009 20.7902C2.95748 19.5805 2.76865 17.5742 2.391 13.5616L2.16181 11.1263C1.9818 9.2137 1.8918 8.25739 2.21899 7.86207C2.39598 7.64823 2.63666 7.5172 2.89399 7.4946C3.36968 7.45282 3.96708 8.1329 5.16187 9.49307C5.77977 10.1965 6.08872 10.5482 6.43337 10.6027C6.62434 10.6328 6.81892 10.6018 6.99526 10.5131C7.31351 10.3529 7.5257 9.91812 7.95007 9.04852L10.1869 4.46486C10.9888 2.82162 11.3898 2 12 2C12.6102 2 13.0112 2.82162 13.8131 4.46485L16.0499 9.04851C16.4743 9.91812 16.6865 10.3529 17.0047 10.5131C17.1811 10.6018 17.3757 10.6328 17.5666 10.6027C17.9113 10.5482 18.2202 10.1965 18.8381 9.49307C20.0329 8.1329 20.6303 7.45282 21.106 7.4946C21.3633 7.5172 21.604 7.64823 21.781 7.86207C22.1082 8.25739 22.0182 9.2137 21.8382 11.1263Z" fill="black"/>
<path d="M12.9524 12.6989L12.8541 12.5225C12.4741 11.8408 12.2841 11.5 12 11.5C11.7159 11.5 11.5259 11.8408 11.1459 12.5225L11.0476 12.6989C10.9397 12.8926 10.8857 12.9894 10.8015 13.0533C10.7173 13.1172 10.6125 13.141 10.4028 13.1884L10.2119 13.2316C9.47396 13.3986 9.10501 13.482 9.01723 13.7643C8.92945 14.0466 9.18097 14.3407 9.68403 14.929L9.81418 15.0812C9.95713 15.2483 10.0286 15.3319 10.0608 15.4353C10.0929 15.5387 10.0821 15.6502 10.0605 15.8733L10.0408 16.0763C9.96476 16.8612 9.92674 17.2536 10.1565 17.4281C10.3864 17.6025 10.7318 17.4435 11.4227 17.1254L11.4227 17.1253L11.6014 17.0431L11.6015 17.043C11.7978 16.9527 11.8959 16.9075 12 16.9075C12.1041 16.9075 12.2022 16.9527 12.3986 17.0431L12.3986 17.0431L12.5773 17.1254C13.2682 17.4435 13.6136 17.6025 13.8435 17.4281C14.0733 17.2536 14.0352 16.8612 13.9592 16.0763L13.9395 15.8733C13.9179 15.6502 13.9071 15.5387 13.9392 15.4353C13.9714 15.3319 14.0429 15.2483 14.1858 15.0812L14.316 14.929L14.316 14.929C14.819 14.3407 15.0706 14.0466 14.9828 13.7643C14.895 13.482 14.526 13.3986 13.7881 13.2316L13.5972 13.1884C13.3875 13.141 13.2827 13.1172 13.1985 13.0533C13.1143 12.9894 13.0603 12.8926 12.9524 12.6989Z" fill="black"/>
</svg>
