<svg width="24" height="24" viewBox="0 0 24 24" fill="none" xmlns="http://www.w3.org/2000/svg">
<path opacity="0.5" d="M12.0002 16C6.24021 16 5.21983 10.2595 5.03907 5.70647C4.98879 4.43998 4.96365 3.80673 5.43937 3.22083C5.91508 2.63494 6.48445 2.53887 7.62318 2.34674C8.74724 2.15709 10.2166 2 12.0002 2C13.7837 2 15.2531 2.15709 16.3771 2.34674C17.5159 2.53887 18.0852 2.63494 18.5609 3.22083C19.0367 3.80673 19.0115 4.43998 18.9612 5.70647C18.7805 10.2595 17.7601 16 12.0002 16Z" fill="black"/>
<path d="M17.6404 12.422L20.4569 10.8572C21.2093 10.4392 21.5855 10.2302 21.7927 9.87809C21.9999 9.52598 21.9999 9.09561 21.9999 8.23487L21.9999 8.16234C22 7.11873 22 6.59692 21.7168 6.20408C21.4337 5.81124 20.9387 5.64623 19.9486 5.31621L19 5L18.9831 5.08464C18.9784 5.27391 18.9702 5.48006 18.9612 5.70645C18.8729 7.93085 18.5842 10.4387 17.6404 12.422Z" fill="black"/>
<path d="M5.03907 5.70647C5.12739 7.93096 5.41612 10.4389 6.36008 12.4223L3.54305 10.8572C2.79063 10.4392 2.41442 10.2302 2.20723 9.87809C2.00004 9.52598 2.00003 9.09561 2 8.23487L2 8.16234C1.99997 7.11874 1.99996 6.59692 2.2831 6.20408C2.56624 5.81124 3.06126 5.64623 4.05132 5.31621L4.99994 5L5.01728 5.08671C5.02196 5.27541 5.03011 5.4809 5.03907 5.70647Z" fill="black"/>
<path fill-rule="evenodd" clip-rule="evenodd" d="M5.25 22C5.25 21.5858 5.58579 21.25 6 21.25H18C18.4142 21.25 18.75 21.5858 18.75 22C18.75 22.4142 18.4142 22.75 18 22.75H6C5.58579 22.75 5.25 22.4142 5.25 22Z" fill="black"/>
<path opacity="0.5" d="M15.4577 21.25H8.54248L8.8393 19.5002C8.93278 19.0327 9.3432 18.6963 9.81988 18.6963H14.1803C14.657 18.6963 15.0674 19.0327 15.1609 19.5002L15.4577 21.25Z" fill="black"/>
<path d="M12.0002 16.0002C11.7406 16.0002 11.4907 15.9885 11.25 15.9658V18.6963H12.75V15.9658C12.5094 15.9885 12.2596 16.0002 12.0002 16.0002Z" fill="black"/>
<path fill-rule="evenodd" clip-rule="evenodd" d="M12.787 5.80711C13.0673 5.9232 13.25 6.19668 13.25 6.50002V10.5C13.25 10.9142 12.9142 11.25 12.5 11.25C12.0858 11.25 11.75 10.9142 11.75 10.5V8.31068L11.5303 8.53035C11.2374 8.82325 10.7626 8.82325 10.4697 8.53035C10.1768 8.23746 10.1768 7.76259 10.4697 7.46969L11.9697 5.96969C12.1842 5.75519 12.5068 5.69103 12.787 5.80711Z" fill="black"/>
</svg>
