<svg width="24" height="24" viewBox="0 0 24 24" fill="none" xmlns="http://www.w3.org/2000/svg">
<path d="M12 10C16.4183 10 20 8.20914 20 6C20 3.79086 16.4183 2 12 2C7.58172 2 4 3.79086 4 6C4 8.20914 7.58172 10 12 10Z" fill="black"/>
<path opacity="0.5" d="M4 12V18C4 20.2091 7.58172 22 12 22C16.4183 22 20 20.2091 20 18V12C20 14.2091 16.4183 16 12 16C7.58172 16 4 14.2091 4 12Z" fill="black"/>
<path opacity="0.7" d="M4 6V12C4 14.2091 7.58172 16 12 16C16.4183 16 20 14.2091 20 12V6C20 8.20914 16.4183 10 12 10C7.58172 10 4 8.20914 4 6Z" fill="black"/>
</svg>
