<svg width="24" height="24" viewBox="0 0 24 24" fill="none" xmlns="http://www.w3.org/2000/svg">
<path opacity="0.5" d="M4.17157 3.17157C3 4.34315 3 6.22876 3 10V14C3 17.7712 3 19.6569 4.17157 20.8284C5.34315 22 7.22876 22 11 22H13C16.7712 22 18.6569 22 19.8284 20.8284C21 19.6569 21 17.7712 21 14V10C21 6.22876 21 4.34315 19.8284 3.17157C18.6569 2 16.7712 2 13 2H11C7.22876 2 5.34315 2 4.17157 3.17157Z" fill="black"/>
<path d="M6 12C6 10.5858 6 9.87868 6.43934 9.43934C6.87868 9 7.58579 9 9 9H15C16.4142 9 17.1213 9 17.5607 9.43934C18 9.87868 18 10.5858 18 12V16C18 17.4142 18 18.1213 17.5607 18.5607C17.1213 19 16.4142 19 15 19H9C7.58579 19 6.87868 19 6.43934 18.5607C6 18.1213 6 17.4142 6 16V12Z" fill="black"/>
<path d="M7 5.25C6.58579 5.25 6.25 5.58579 6.25 6C6.25 6.41421 6.58579 6.75 7 6.75H12C12.4142 6.75 12.75 6.41421 12.75 6C12.75 5.58579 12.4142 5.25 12 5.25H7Z" fill="black"/>
</svg>
