<svg width="24" height="24" viewBox="0 0 24 24" fill="none" xmlns="http://www.w3.org/2000/svg">
<path opacity="0.5" d="M3.75712 17.3938L5.18154 18.8182L6.60623 20.2428C7.47332 21.1099 7.90686 21.5434 8.45818 21.7718C9.00949 22.0002 9.62262 22.0002 10.8489 22.0002H13.151C14.3773 22.0002 14.9904 22.0002 15.5417 21.7718C16.093 21.5434 16.5266 21.1099 17.3937 20.2428L20.2426 17.3939C21.1097 16.5268 21.5432 16.0933 21.7716 15.5419C21.9999 14.9906 22 14.3775 22 13.1513V10.8491C22 9.62284 21.9999 9.00971 21.7716 8.4584C21.5432 7.90709 21.1097 7.47354 20.2426 6.60645L18.818 5.18199L17.3935 3.75745C16.5264 2.89036 16.0928 2.45681 15.5415 2.22845C14.9902 2.00009 14.3771 2.00009 13.1508 2.00009H10.8487C9.62242 2.00009 9.0093 2.00009 8.45798 2.22845C7.90667 2.45681 7.47312 2.89036 6.60603 3.75745L3.75712 6.60637C2.89002 7.47346 2.45648 7.90701 2.22812 8.45832C1.99976 9.00963 1.99976 9.62276 1.99976 10.849V13.1512C1.99976 14.3774 1.99976 14.9906 2.22812 15.5419C2.45648 16.0932 2.89002 16.5267 3.75712 17.3938Z" fill="black"/>
<path d="M18.8181 5.18213L5.18164 18.8184" stroke="black" stroke-width="1.5"/>
</svg>
