<svg width="24" height="24" viewBox="0 0 24 24" fill="none" xmlns="http://www.w3.org/2000/svg">
<path fill-rule="evenodd" clip-rule="evenodd" d="M6.71151 3.76303C6.84249 4.15599 6.63012 4.58073 6.23717 4.71172L5.71898 4.88444C5.10163 5.09023 4.69491 5.22686 4.39264 5.36502C4.10684 5.49565 3.97863 5.60032 3.89347 5.70785C3.80831 5.81537 3.73579 5.96415 3.67408 6.27228C3.60882 6.59815 3.56898 7.02536 3.51007 7.67343L3.14309 11.7102L3.09474 12.242C3.89787 11.6202 4.90572 11.2502 5.99999 11.2502C8.34511 11.2502 10.2933 12.9497 10.6802 15.1842C11.1112 15.0595 11.5556 14.9971 12 14.9971V16.4971C11.6305 16.4971 11.261 16.5601 10.9079 16.6861L10.6889 16.7643C10.3234 19.0244 8.36324 20.7502 5.99999 20.7502C3.38 20.7502 1.25544 18.6109 1.25 15.9922C1.25046 15.7114 1.27528 15.4364 1.32246 15.1691L2.01972 7.49919C2.07418 6.89989 2.12035 6.39189 2.20328 5.97774C2.29154 5.53702 2.43275 5.13619 2.7176 4.77654C3.00244 4.41689 3.36027 4.18763 3.76907 4.00078C4.15321 3.82519 4.63714 3.6639 5.20803 3.47362L5.76282 3.28869C6.15578 3.15771 6.58052 3.37008 6.71151 3.76303Z" fill="black"/>
<path opacity="0.5" d="M20.9052 12.242C20.1021 11.6202 19.0943 11.2502 18 11.2502C15.6549 11.2502 13.7067 12.9497 13.3198 15.1842C12.8888 15.0595 12.4444 14.9972 12 14.9971V16.4971C12.3695 16.4971 12.739 16.5601 13.0921 16.6861L13.3111 16.7643C13.6766 19.0244 15.6367 20.7502 18 20.7502C20.62 20.7502 22.7445 18.6109 22.75 15.9922C22.7495 15.7114 22.7247 15.4364 22.6775 15.1691L21.9803 7.49918C21.9258 6.89989 21.8796 6.39189 21.7967 5.97774C21.7084 5.53702 21.5672 5.13619 21.2824 4.77654C20.9975 4.41689 20.6397 4.18763 20.2309 4.00078C19.8468 3.82519 19.3629 3.6639 18.792 3.47362L18.2372 3.28869C17.8442 3.15771 17.4195 3.37008 17.2885 3.76303C17.1575 4.15599 17.3699 4.58073 17.7628 4.71172L18.281 4.88444C18.8984 5.09023 19.3051 5.22686 19.6073 5.36502C19.8931 5.49565 20.0214 5.60032 20.1065 5.70785C20.1917 5.81537 20.2642 5.96415 20.3259 6.27228C20.3912 6.59815 20.431 7.02536 20.4899 7.67343L20.9052 12.242Z" fill="black"/>
</svg>
