<svg width="24" height="24" viewBox="0 0 24 24" fill="none" xmlns="http://www.w3.org/2000/svg">
<path d="M6 18C6 16.1144 6 15.1716 6.58579 14.5858C7.17157 14 8.11438 14 10 14H14C15.8856 14 16.8284 14 17.4142 14.5858C18 15.1716 18 16.1144 18 18C18 19.8856 18 20.8284 17.4142 21.4142C16.8284 22 15.8856 22 14 22H10C8.11438 22 7.17157 22 6.58579 21.4142C6 20.8284 6 19.8856 6 18Z" fill="black"/>
<path opacity="0.5" d="M10.2857 3.90909C10.2857 3.34219 10.8236 2.75 11.6597 2.75C12.4958 2.75 13.0337 3.34219 13.0337 3.90909C13.0337 4.22136 12.9223 4.49112 12.7402 4.68925C12.6273 4.81206 12.5028 4.93485 12.3609 5.07483L12.2797 5.15509C12.1111 5.32181 11.9231 5.51074 11.7513 5.71278C11.4859 6.02479 11.1984 6.43649 11.093 6.94251C10.4656 7.04826 9.85574 7.28792 9.31927 7.66529L2.22358 12.6566C1.29658 13.3086 1.05806 14.3591 1.39567 15.2392C1.72778 16.105 2.58964 16.75 3.70231 16.75H6.00924C6.02543 16.1128 6.07002 15.6294 6.19274 15.25H3.70231C3.19965 15.25 2.90185 14.9775 2.79616 14.7019C2.69597 14.4407 2.7415 14.1262 3.08659 13.8834L10.1823 8.89216C10.6525 8.56138 11.2256 8.38665 11.81 8.37985C12.3993 8.373 12.9825 8.53714 13.4651 8.86245L20.8976 13.8728C21.2543 14.1133 21.3038 14.4314 21.2061 14.6949C21.103 14.9729 20.8056 15.25 20.2973 15.25H17.8073C17.93 15.6294 17.9746 16.1128 17.9908 16.75H20.2973C21.4219 16.75 22.2875 16.0928 22.6125 15.2165C22.9429 14.3256 22.6856 13.2692 21.736 12.629L14.3035 7.61866C13.8094 7.2856 13.2574 7.06682 12.6889 6.95888C12.7396 6.87796 12.8066 6.78721 12.8939 6.68456C13.0202 6.53616 13.1675 6.38672 13.3346 6.22141L13.4085 6.14851C13.5496 6.00942 13.7045 5.85668 13.8444 5.7044C14.2865 5.22354 14.5337 4.58928 14.5337 3.90909C14.5337 2.36727 13.1697 1.25 11.6597 1.25C10.1497 1.25 8.78566 2.36727 8.78566 3.90909C8.78566 4.3233 9.12145 4.65909 9.53566 4.65909C9.94987 4.65909 10.2857 4.3233 10.2857 3.90909Z" fill="black"/>
</svg>
