<svg width="24" height="24" viewBox="0 0 24 24" fill="none" xmlns="http://www.w3.org/2000/svg">
<path opacity="0.5" d="M2 12.2039C2 9.91549 2 8.77128 2.5192 7.82274C3.0384 6.87421 3.98695 6.28551 5.88403 5.10813L7.88403 3.86687C9.88939 2.62229 10.8921 2 12 2C13.1079 2 14.1106 2.62229 16.116 3.86687L18.116 5.10812C20.0131 6.28551 20.9616 6.87421 21.4808 7.82274C22 8.77128 22 9.91549 22 12.2039V13.725C22 17.6258 22 19.5763 20.8284 20.7881C19.6569 22 17.7712 22 14 22H10C6.22876 22 4.34315 22 3.17157 20.7881C2 19.5763 2 17.6258 2 13.725V12.2039Z" fill="black"/>
<path d="M9.44666 15.3975C9.11389 15.1509 8.64418 15.2207 8.39752 15.5534C8.15086 15.8862 8.22067 16.3559 8.55343 16.6026C9.52585 17.3234 10.7151 17.75 12 17.75C13.285 17.75 14.4742 17.3234 15.4467 16.6026C15.7794 16.3559 15.8492 15.8862 15.6026 15.5534C15.3559 15.2207 14.8862 15.1509 14.5534 15.3975C13.8251 15.9374 12.9459 16.25 12 16.25C11.0541 16.25 10.175 15.9374 9.44666 15.3975Z" fill="black"/>
</svg>
