<svg width="24" height="24" viewBox="0 0 24 24" fill="none" xmlns="http://www.w3.org/2000/svg">
<path opacity="0.5" d="M13.1061 22H10.8939C7.44737 22 5.72409 22 4.54903 20.9882C3.37396 19.9764 3.13025 18.2827 2.64284 14.8952L2.36407 12.9579C1.98463 10.3208 1.79491 9.00229 2.33537 7.87495C2.87583 6.7476 4.02619 6.06234 6.32691 4.69181L7.71175 3.86687C9.80104 2.62229 10.8457 2 12 2C13.1543 2 14.199 2.62229 16.2882 3.86687L17.6731 4.69181C19.9738 6.06234 21.1242 6.7476 21.6646 7.87495C22.2051 9.00229 22.0154 10.3208 21.6359 12.9579L21.3572 14.8952C20.8697 18.2827 20.626 19.9764 19.451 20.9882C18.2759 22 16.5526 22 13.1061 22Z" fill="black"/>
<path d="M17.4498 12.1922C14.4329 8.93592 9.56706 8.93592 6.55017 12.1922C6.26866 12.4961 5.79414 12.5142 5.49029 12.2327C5.18643 11.9512 5.16832 11.4766 5.44983 11.1728C9.06036 7.27573 14.9396 7.27573 18.5502 11.1728C18.8317 11.4766 18.8136 11.9512 18.5097 12.2327C18.2059 12.5142 17.7313 12.4961 17.4498 12.1922Z" fill="black"/>
<path d="M15.4499 14.3507C13.5375 12.2866 10.4625 12.2866 8.55019 14.3507C8.26868 14.6546 7.79415 14.6727 7.4903 14.3912C7.18645 14.1097 7.16834 13.6351 7.44985 13.3313C9.95581 10.6265 14.0442 10.6265 16.5502 13.3313C16.8317 13.6351 16.8136 14.1097 16.5097 14.3912C16.2059 14.6727 15.7314 14.6546 15.4499 14.3507Z" fill="black"/>
<path d="M13.4499 16.5097C12.6421 15.6379 11.358 15.6379 10.5502 16.5097C10.2687 16.8136 9.79417 16.8317 9.49032 16.5502C9.18647 16.2687 9.16836 15.7941 9.44987 15.4903C10.8513 13.9777 13.1488 13.9777 14.5502 15.4903C14.8317 15.7941 14.8136 16.2687 14.5098 16.5502C14.2059 16.8317 13.7314 16.8136 13.4499 16.5097Z" fill="black"/>
</svg>
