<svg width="24" height="24" viewBox="0 0 24 24" fill="none" xmlns="http://www.w3.org/2000/svg">
<path opacity="0.5" d="M3.84453 3.84453C2.71849 4.97056 2.71849 6.79623 3.84453 7.92226L5.43227 9.51C5.44419 9.49622 5.98691 10.013 6 9.99989L10 5.99989C10.0131 5.98683 9.49625 5.44415 9.50999 5.43226L7.92226 3.84453C6.79623 2.71849 4.97056 2.71849 3.84453 3.84453Z" fill="black"/>
<path opacity="0.5" d="M5.1332 15.3072C5.29414 14.8976 5.87167 14.8976 6.03261 15.3072L6.18953 15.7065C6.23867 15.8316 6.33729 15.9306 6.46188 15.9799L6.85975 16.1374C7.26783 16.2989 7.26783 16.8786 6.85975 17.0401L6.46188 17.1976C6.33729 17.2469 6.23867 17.3459 6.18953 17.471L6.03261 17.8703C5.87167 18.2799 5.29414 18.2799 5.1332 17.8703L4.97628 17.471C4.92714 17.3459 4.82852 17.2469 4.70393 17.1976L4.30606 17.0401C3.89798 16.8786 3.89798 16.2989 4.30606 16.1374L4.70393 15.9799C4.82852 15.9306 4.92714 15.8316 4.97628 15.7065L5.1332 15.3072Z" fill="black"/>
<path opacity="0.2" d="M19.9672 9.12945C20.1281 8.71987 20.7057 8.71987 20.8666 9.12945L21.0235 9.5288C21.0727 9.65385 21.1713 9.75284 21.2959 9.80215L21.6937 9.95965C22.1018 10.1212 22.1018 10.7009 21.6937 10.8624L21.2959 11.0199C21.1713 11.0692 21.0727 11.1682 21.0235 11.2932L20.8666 11.6926C20.7057 12.1022 20.1281 12.1022 19.9672 11.6926L19.8103 11.2932C19.7611 11.1682 19.6625 11.0692 19.5379 11.0199L19.14 10.8624C18.732 10.7009 18.732 10.1212 19.14 9.95965L19.5379 9.80215C19.6625 9.75284 19.7611 9.65385 19.8103 9.5288L19.9672 9.12945Z" fill="black"/>
<path opacity="0.7" d="M16.1 2.30719C16.261 1.8976 16.8385 1.8976 16.9994 2.30719L17.4298 3.40247C17.479 3.52752 17.5776 3.62651 17.7022 3.67583L18.7934 4.1078C19.2015 4.26934 19.2015 4.849 18.7934 5.01054L17.7022 5.44252C17.5776 5.49184 17.479 5.59082 17.4298 5.71587L16.9995 6.81115C16.8385 7.22074 16.261 7.22074 16.1 6.81116L15.6697 5.71587C15.6205 5.59082 15.5219 5.49184 15.3973 5.44252L14.3061 5.01054C13.898 4.849 13.898 4.26934 14.3061 4.1078L15.3973 3.67583C15.5219 3.62651 15.6205 3.52752 15.6697 3.40247L16.1 2.30719Z" fill="black"/>
<path d="M10.5676 6.48999C10.5557 6.50373 10.0128 5.9867 9.99976 5.99975L5.99976 9.99975C5.98667 10.0128 6.50365 10.5558 6.48987 10.5677L16.0775 20.1553C17.2035 21.2814 19.0292 21.2814 20.1552 20.1553C21.2813 19.0293 21.2813 17.2036 20.1552 16.0776L10.5676 6.48999Z" fill="black"/>
</svg>
