<svg width="24" height="24" viewBox="0 0 24 24" fill="none" xmlns="http://www.w3.org/2000/svg">
<path d="M14.5 3H11C6.02943 3 2 7.02944 2 12C2 16.9706 6.02944 21 11 21H14.5V16.5H10.9444C8.45916 16.5 6.44444 14.4853 6.44444 12C6.44444 9.51472 8.45916 7.5 10.9444 7.5H14.5V3Z" fill="black"/>
<g opacity="0.4">
<path d="M23.5031 14.8459C23.3541 15.6504 23.1541 16.3135 22.95 16.8442C22.7463 17.374 22.5394 17.7692 22.3775 18.039C22.2966 18.1738 22.227 18.2772 22.1748 18.3504C22.1487 18.3869 22.1269 18.4159 22.1102 18.4375C22.1019 18.4483 22.0948 18.4572 22.0891 18.4643L22.0816 18.4736L22.0786 18.4772L22.0773 18.4788L22.0762 18.4801C21.811 18.7983 21.3381 18.8413 21.0199 18.5762C20.7032 18.3123 20.6591 17.8426 20.92 17.5245L20.9235 17.52C20.9288 17.5131 20.9393 17.4993 20.9542 17.4785C20.984 17.4368 21.0316 17.3667 21.0913 17.2672C21.2106 17.0683 21.3788 16.7509 21.55 16.3057C21.7115 15.8858 21.8767 15.3498 22.006 14.6893C22.1332 14.0393 22.2258 13.2687 22.2459 12.3695C22.2486 12.2487 22.25 12.1255 22.25 12C22.25 11.4978 22.2276 11.0332 22.1887 10.6048C22.0719 9.3197 21.8063 8.3607 21.55 7.69423C21.3788 7.24901 21.2106 6.93168 21.0913 6.73274C21.0316 6.63322 20.984 6.56318 20.9542 6.52147C20.9393 6.50061 20.9288 6.48684 20.9235 6.48L20.92 6.47552C20.6591 6.15737 20.7032 5.68769 21.0199 5.42379C21.3381 5.15862 21.811 5.20161 22.0762 5.51982L22.0773 5.5212L22.0786 5.52274L22.0816 5.52635L22.0891 5.53562C22.0948 5.54272 22.1019 5.55165 22.1102 5.56244C22.1269 5.58401 22.1487 5.61301 22.1748 5.64958C22.227 5.72271 22.2966 5.82611 22.3775 5.96096C22.5394 6.23078 22.7463 6.62594 22.95 7.15572C23.2513 7.9389 23.5435 9.01061 23.676 10.3991C23.7231 10.8923 23.75 11.4255 23.75 12C23.75 12 23.75 11.9999 23.75 12" fill="black"/>
<path d="M23.75 12C23.75 13.0957 23.6521 14.0415 23.5031 14.8459Z" fill="black"/>
</g>
<path opacity="0.7" d="M20.1558 8.6359C19.9546 8.27382 19.498 8.14336 19.1359 8.34452C18.7769 8.54397 18.6456 8.99455 18.8395 9.35513L18.8445 9.36536C18.8513 9.37976 18.8644 9.40848 18.8819 9.45212C18.9168 9.53933 18.9692 9.68664 19.0236 9.89892C19.1324 10.323 19.2501 11.0103 19.2501 12.0001C19.2501 12.99 19.1324 13.6773 19.0236 14.1014C18.9692 14.3136 18.9168 14.4609 18.8819 14.5482C18.8644 14.5918 18.8513 14.6205 18.8445 14.6349L18.8395 14.6452C18.6456 15.0057 18.7769 15.4563 19.1359 15.6558C19.498 15.8569 19.9546 15.7265 20.1558 15.3644L19.5001 15.0001C20.1558 15.3644 20.1558 15.3644 20.1558 15.3644L20.1565 15.3631L20.1573 15.3617L20.1589 15.3586L20.1628 15.3515L20.1724 15.3331C20.1797 15.3191 20.1885 15.3013 20.1988 15.2798C20.2193 15.2368 20.2452 15.1788 20.2746 15.1052C20.3335 14.9581 20.4061 14.7491 20.4766 14.4739C20.6179 13.923 20.7501 13.1103 20.7501 12.0001C20.7501 10.89 20.6179 10.0773 20.4766 9.52636C20.4061 9.25113 20.3335 9.04219 20.2746 8.89503C20.2452 8.82149 20.2193 8.76349 20.1988 8.72046C20.1885 8.69895 20.1797 8.6812 20.1724 8.66712L20.1628 8.64877L20.1589 8.64166L20.1573 8.63861L20.1565 8.63722C20.1565 8.63722 20.1558 8.6359 19.5001 9.00014L20.1558 8.6359Z" fill="black"/>
<g opacity="0.5">
<path d="M14.5 7.5H16.5C17.3284 7.5 18 6.82843 18 6V4.5C18 3.67157 17.3284 3 16.5 3H14.5V7.5Z" fill="black"/>
<path d="M14.5 16.5V21H16.5C17.3284 21 18 20.3284 18 19.5V18C18 17.1716 17.3284 16.5 16.5 16.5H14.5Z" fill="black"/>
</g>
</svg>
