<svg width="24" height="24" viewBox="0 0 24 24" fill="none" xmlns="http://www.w3.org/2000/svg">
<path opacity="0.5" d="M21 6.42911V11.9012C21 17.5901 16.761 20.3508 14.1014 21.523C13.38 21.841 13.0193 22 12 22C10.9807 22 10.62 21.841 9.89856 21.523C7.23896 20.3508 3 17.5901 3 11.9012V6.42911C3 4.16001 3 3.02545 3.70725 2.40466C4.4145 1.78386 5.49553 1.97055 7.6576 2.34392L8.71202 2.52602C10.3523 2.80927 11.1724 2.9509 12 2.9509C12.8276 2.9509 13.6477 2.80927 15.288 2.52602L16.3424 2.34392C18.5045 1.97055 19.5855 1.78386 20.2927 2.40466C21 3.02545 21 4.16001 21 6.42911Z" fill="black"/>
<path d="M7.17107 9.14015C7.29454 8.88412 7.75695 8.53373 8.50016 8.53373C9.24338 8.53373 9.70579 8.88412 9.82926 9.14015C10.0144 9.52407 10.4649 9.67978 10.8354 9.48793C11.2059 9.29609 11.3562 8.82933 11.1711 8.4454C10.7123 7.4941 9.60365 6.97949 8.50016 6.97949C7.39667 6.97949 6.28804 7.4941 5.82926 8.4454C5.64411 8.82933 5.79439 9.29609 6.16492 9.48793C6.53544 9.67978 6.98591 9.52407 7.17107 9.14015Z" fill="black"/>
<path d="M15.5002 8.53373C14.7569 8.53373 14.2945 8.88412 14.1711 9.14015C13.9859 9.52407 13.5354 9.67978 13.1649 9.48793C12.7944 9.29609 12.6441 8.82933 12.8293 8.4454C13.288 7.4941 14.3967 6.97949 15.5002 6.97949C16.6037 6.97949 17.7123 7.4941 18.1711 8.4454C18.3562 8.82933 18.2059 9.29609 17.8354 9.48793C17.4649 9.67978 17.0144 9.52407 16.8293 9.14015C16.7058 8.88412 16.2434 8.53373 15.5002 8.53373Z" fill="black"/>
<path d="M7.98869 14.542C7.68874 14.246 7.6714 13.7484 7.95706 13.4376C8.24037 13.1294 8.72404 13.1276 9.02435 13.4161C9.04371 13.4317 9.09089 13.4692 9.12665 13.4946C9.22737 13.5661 9.39442 13.6715 9.63322 13.7802C10.1082 13.9966 10.8806 14.2326 12.0002 14.2326C13.1197 14.2326 13.8921 13.9966 14.3671 13.7802C14.6059 13.6715 14.773 13.5661 14.8737 13.4946C14.9241 13.4587 14.958 13.4313 14.976 13.4161C14.9837 13.4096 14.9884 13.4053 14.9904 13.4036L14.9911 13.4029C15.2915 13.1151 15.7602 13.1297 16.0433 13.4376C16.3289 13.7484 16.3174 14.2403 16.0174 14.5363L16.0161 14.5376L16.0147 14.5389L16.0116 14.542L16.0042 14.5491L15.9844 14.5676C15.969 14.5817 15.949 14.5994 15.9245 14.6201C15.8756 14.6615 15.8083 14.7151 15.722 14.7764C15.5492 14.8991 15.3007 15.0528 14.9707 15.2031C14.3082 15.5048 13.3306 15.7869 12.0002 15.7869C10.6697 15.7869 9.69208 15.5048 9.02961 15.2031C8.69966 15.0528 8.45108 14.8991 8.27836 14.7764C8.19205 14.7151 8.12477 14.6615 8.07578 14.6201C8.05263 14.6005 8.00203 14.5545 7.99032 14.5435L7.98869 14.542Z" fill="black"/>
</svg>
