<svg width="24" height="24" viewBox="0 0 24 24" fill="none" xmlns="http://www.w3.org/2000/svg">
<path d="M5.63636 22H18.3636C20.3719 22 22 20.3719 22 18.3636C22 17.6105 21.3895 17 20.6364 17H16.8284C16.298 17 15.7893 17.2107 15.4142 17.5858L14.5858 18.4142C14.2107 18.7893 13.702 19 13.1716 19H10.8284C10.298 19 9.78929 18.7893 9.41421 18.4142L8.58579 17.5858C8.21071 17.2107 7.70201 17 7.17157 17H3.36364C2.61052 17 2 17.6105 2 18.3636C2 20.3719 3.62806 22 5.63636 22Z" fill="black"/>
<path opacity="0.5" d="M19.4845 17C20.4417 15.5699 21 13.8501 21 12C21 7.02944 16.9706 3 12 3C7.02944 3 3 7.02944 3 12C3 13.8501 3.55827 15.5699 4.51555 17H7.17157C7.70201 17 8.21071 17.2107 8.58579 17.5858L9.41421 18.4142C9.78929 18.7893 10.298 19 10.8284 19H13.1716C13.702 19 14.2107 18.7893 14.5858 18.4142L15.4142 17.5858C15.7893 17.2107 16.298 17 16.8284 17H19.4845Z" fill="black"/>
</svg>
