<svg width="24" height="24" viewBox="0 0 24 24" fill="none" xmlns="http://www.w3.org/2000/svg">
<path opacity="0.5" fill-rule="evenodd" clip-rule="evenodd" d="M10.4348 0.306033C10.7164 0.42145 10.9004 0.695644 10.9004 1.00002V1.97774C11.2467 1.97676 11.6074 1.97676 11.9829 1.97676L12.0577 1.97676C14.1301 1.97675 15.7631 1.97674 17.0391 2.1509C18.3498 2.32979 19.3952 2.70489 20.2163 3.53846C21.0359 4.37046 21.4033 5.42707 21.5788 6.75221C21.75 8.04542 21.75 9.70124 21.75 11.8071V11.9196C21.75 14.0254 21.75 15.6812 21.5788 16.9744C21.4033 18.2996 21.0359 19.3562 20.2163 20.1882C19.3952 21.0217 18.3498 21.3968 17.0391 21.5757C15.7631 21.7499 14.1301 21.7499 12.0577 21.7499H11.9423C9.86991 21.7499 8.23694 21.7499 6.96085 21.5757C5.65019 21.3968 4.60483 21.0217 3.78371 20.1882C2.96414 19.3562 2.59674 18.2996 2.42124 16.9744C2.24998 15.6812 2.24999 14.0254 2.25 11.9196V11.8071C2.24999 9.70125 2.24998 8.04542 2.42124 6.75221C2.59674 5.42708 2.96414 4.37046 3.78371 3.53846C4.07439 3.24337 4.54925 3.23979 4.84434 3.53047C5.13943 3.82115 5.14301 4.29601 4.85233 4.5911C4.35388 5.09711 4.06227 5.78627 3.90826 6.94914C3.75155 8.13245 3.75 9.68892 3.75 11.8633C3.75 14.0377 3.75155 15.5942 3.90826 16.7775C4.06227 17.9404 4.35388 18.6295 4.85233 19.1355C5.34923 19.64 6.02354 19.9339 7.1637 20.0895C8.32662 20.2482 9.85717 20.2499 12 20.2499C14.1428 20.2499 15.6734 20.2482 16.8363 20.0895C17.9765 19.9339 18.6508 19.64 19.1477 19.1355C19.6461 18.6295 19.9377 17.9404 20.0917 16.7775C20.2485 15.5942 20.25 14.0377 20.25 11.8633C20.25 9.68892 20.2485 8.13245 20.0917 6.94914C19.9377 5.78627 19.6461 5.09711 19.1477 4.5911C18.6508 4.08666 17.9765 3.79274 16.8363 3.63713C15.6734 3.4784 14.1428 3.47676 12 3.47676C11.6146 3.47676 11.2486 3.47678 10.9004 3.47777V4.55407C10.9004 4.85845 10.7165 5.13264 10.4348 5.24806C10.1532 5.36348 9.8297 5.29724 9.6161 5.0804L7.86569 3.30343C7.57811 3.01148 7.5781 2.54276 7.86567 2.2508L9.61608 0.473718C9.82968 0.256868 10.1532 0.190617 10.4348 0.306033Z" fill="black"/>
<path d="M16.0303 10.0303C16.3232 9.73744 16.3232 9.26256 16.0303 8.96967C15.7374 8.67678 15.2626 8.67678 14.9697 8.96967L10.5 13.4393L9.03033 11.9697C8.73744 11.6768 8.26256 11.6768 7.96967 11.9697C7.67678 12.2626 7.67678 12.7374 7.96967 13.0303L9.96967 15.0303C10.2626 15.3232 10.7374 15.3232 11.0303 15.0303L16.0303 10.0303Z" fill="black"/>
</svg>
