<svg width="24" height="24" viewBox="0 0 24 24" fill="none" xmlns="http://www.w3.org/2000/svg">
<path d="M6 8C6 5.17157 6 3.75736 6.87868 2.87868C7.75736 2 9.17157 2 12 2C14.8284 2 16.2426 2 17.1213 2.87868C18 3.75736 18 5.17157 18 8V16C18 18.8284 18 20.2426 17.1213 21.1213C16.2426 22 14.8284 22 12 22C9.17157 22 7.75736 22 6.87868 21.1213C6 20.2426 6 18.8284 6 16L6 8Z" fill="black"/>
<g opacity="0.5">
<path d="M6.14114 4.5C6 5.34287 6 6.46249 6 8V16C6 17.5375 6 18.6571 6.14114 19.5H6C4.59987 19.5 3.8998 19.5 3.36502 19.2275C2.89462 18.9878 2.51217 18.6054 2.27248 18.135C2 17.6002 2 16.9001 2 15.5V8.5C2 7.09987 2 6.3998 2.27248 5.86502C2.51217 5.39462 2.89462 5.01217 3.36502 4.77248C3.8998 4.5 4.59987 4.5 6 4.5H6.14114Z" fill="black"/>
<path d="M17.8589 4.5C18 5.34287 18 6.46248 18 7.99998V16C18 17.5375 18 18.6571 17.8589 19.5H18C19.4001 19.5 20.1002 19.5 20.635 19.2275C21.1054 18.9878 21.4878 18.6054 21.7275 18.135C22 17.6002 22 16.9001 22 15.5V8.5C22 7.09987 22 6.3998 21.7275 5.86502C21.4878 5.39462 21.1054 5.01217 20.635 4.77248C20.1002 4.5 19.4001 4.5 18 4.5H17.8589Z" fill="black"/>
</g>
</svg>
