<svg width="24" height="24" viewBox="0 0 24 24" fill="none" xmlns="http://www.w3.org/2000/svg">
<path fill-rule="evenodd" clip-rule="evenodd" d="M5.77667 18.265V10.2955C5.77667 9.61172 5.77667 9.26982 5.64528 8.96928C5.51389 8.66875 5.26714 8.44624 4.77364 8.00123L4.58835 7.83416C3.53212 6.8817 3.004 6.40548 3.00003 5.71612C2.99605 5.02677 3.46446 4.59391 4.40129 3.72818C4.5431 3.59713 4.68359 3.47455 4.81923 3.36582C5.29062 2.98797 5.95689 2.57442 6.46683 2.27565C6.944 1.99609 7.50458 1.93167 8.03445 2.07103L8.52454 2.19993C8.91264 2.302 9.25065 2.5526 9.47256 2.90278C10.0737 3.85147 11.0369 4.32581 12 4.32581V22C10.5325 22 9.27582 21.8521 8.28392 21.6696C7.21092 21.4723 6.67443 21.3736 6.22555 20.8116C5.77667 20.2497 5.77667 19.5881 5.77667 18.265Z" fill="black"/>
<path opacity="0.5" d="M18.2233 18.265V10.2955C18.2233 9.61172 18.2233 9.26982 18.3547 8.96928C18.4861 8.66875 18.7329 8.44624 19.2264 8.00123L19.4116 7.83416C20.4679 6.8817 20.996 6.40547 21 5.71612C21.0039 5.02677 20.5355 4.59391 19.5987 3.72818C19.4569 3.59713 19.3164 3.47455 19.1808 3.36582C18.7094 2.98797 18.0431 2.57442 17.5332 2.27565C17.056 1.99609 16.4954 1.93167 15.9656 2.07103L15.4755 2.19993C15.0874 2.302 14.7493 2.5526 14.5274 2.90278C13.9263 3.85146 12.9631 4.32581 12 4.32581V22C13.4675 22 14.7242 21.8521 15.7161 21.6696C16.7891 21.4723 17.3256 21.3736 17.7745 20.8116C18.2233 20.2497 18.2233 19.5881 18.2233 18.265Z" fill="black"/>
</svg>
