<svg width="24" height="24" viewBox="0 0 24 24" fill="none" xmlns="http://www.w3.org/2000/svg">
<g opacity="0.3">
<path d="M4.66602 9C3.73413 9 3.26819 9 2.90065 8.84776C2.41059 8.64477 2.02124 8.25542 1.81826 7.76537C1.66602 7.39782 1.66602 6.93188 1.66602 6C1.66602 5.06812 1.66602 4.60217 1.81826 4.23463C2.02124 3.74458 2.41059 3.35523 2.90065 3.15224C3.26819 3 3.73413 3 4.66602 3H11.934C11.8905 3.07519 11.8518 3.15353 11.8183 3.23463C11.666 3.60217 11.666 4.06812 11.666 5L11.666 9H4.66602Z" fill="black"/>
<path d="M21.666 6C21.666 6.93188 21.666 7.39782 21.5138 7.76537C21.3108 8.25542 20.9214 8.64477 20.4314 8.84776C20.0638 9 19.5979 9 18.666 9H17.666V5C17.666 4.06812 17.666 3.60217 17.5138 3.23463C17.4802 3.15353 17.4415 3.07519 17.3981 3H18.666C19.5979 3 20.0638 3 20.4314 3.15224C20.9214 3.35523 21.3108 3.74458 21.5138 4.23463C21.666 4.60217 21.666 5.06812 21.666 6Z" fill="black"/>
</g>
<g opacity="0.7">
<path d="M17.5138 20.7654C17.666 20.3978 17.666 19.9319 17.666 19V15H18.666C19.5979 15 20.0638 15 20.4314 15.1522C20.9214 15.3552 21.3108 15.7446 21.5138 16.2346C21.666 16.6022 21.666 17.0681 21.666 18C21.666 18.9319 21.666 19.3978 21.5138 19.7654C21.3108 20.2554 20.9214 20.6448 20.4314 20.8478C20.0638 21 19.5979 21 18.666 21H17.3981C17.4415 20.9248 17.4802 20.8465 17.5138 20.7654Z" fill="black"/>
<path d="M11.934 21H4.66602C3.73413 21 3.26819 21 2.90065 20.8478C2.41059 20.6448 2.02124 20.2554 1.81826 19.7654C1.66602 19.3978 1.66602 18.9319 1.66602 18C1.66602 17.0681 1.66602 16.6022 1.81826 16.2346C2.02124 15.7446 2.41059 15.3552 2.90065 15.1522C3.26819 15 3.73413 15 4.66602 15H11.666V19C11.666 19.9319 11.666 20.3978 11.8183 20.7654C11.8518 20.8465 11.8905 20.9248 11.934 21Z" fill="black"/>
</g>
<g opacity="0.5">
<path d="M17.666 9H18.666C19.5979 9 20.0638 9 20.4314 9.15224C20.9214 9.35523 21.3108 9.74458 21.5138 10.2346C21.666 10.6022 21.666 11.0681 21.666 12C21.666 12.9319 21.666 13.3978 21.5138 13.7654C21.3108 14.2554 20.9214 14.6448 20.4314 14.8478C20.0638 15 19.5979 15 18.666 15H17.666V9Z" fill="black"/>
<path d="M11.666 9V15H4.66602C3.73413 15 3.26819 15 2.90065 14.8478C2.41059 14.6448 2.02124 14.2554 1.81826 13.7654C1.66602 13.3978 1.66602 12.9319 1.66602 12C1.66602 11.0681 1.66602 10.6022 1.81826 10.2346C2.02124 9.74458 2.41059 9.35523 2.90065 9.15224C3.26819 9 3.73413 9 4.66602 9H11.666Z" fill="black"/>
</g>
<path fill-rule="evenodd" clip-rule="evenodd" d="M17.5138 3.23463C17.666 3.60218 17.666 4.06812 17.666 5L17.666 19C17.666 19.9319 17.666 20.3978 17.5138 20.7654C17.4802 20.8465 17.4415 20.9248 17.3981 21C17.1792 21.3792 16.8403 21.6784 16.4314 21.8478C16.0638 22 15.5979 22 14.666 22C13.7341 22 13.2682 22 12.9006 21.8478C12.4917 21.6784 12.1529 21.3792 11.934 21C11.8905 20.9248 11.8518 20.8465 11.8183 20.7654C11.666 20.3978 11.666 19.9319 11.666 19V5C11.666 4.06812 11.666 3.60218 11.8183 3.23463C11.8518 3.15353 11.8905 3.07519 11.934 3C12.1529 2.62082 12.4917 2.32164 12.9006 2.15224C13.2682 2 13.7341 2 14.666 2C15.5979 2 16.0638 2 16.4314 2.15224C16.8403 2.32164 17.1792 2.62082 17.3981 3C17.4415 3.07519 17.4802 3.15353 17.5138 3.23463ZM15.416 11C15.416 10.5858 15.0802 10.25 14.666 10.25C14.2518 10.25 13.916 10.5858 13.916 11L13.916 13C13.916 13.4142 14.2518 13.75 14.666 13.75C15.0802 13.75 15.416 13.4142 15.416 13L15.416 11Z" fill="black"/>
</svg>
