<svg width="24" height="24" viewBox="0 0 24 24" fill="none" xmlns="http://www.w3.org/2000/svg">
<path d="M5 8C5 5.17157 5 3.75736 5.87868 2.87868C6.75736 2 8.17157 2 11 2H13C15.8284 2 17.2426 2 18.1213 2.87868C19 3.75736 19 5.17157 19 8V16C19 18.8284 19 20.2426 18.1213 21.1213C17.2426 22 15.8284 22 13 22H11C8.17157 22 6.75736 22 5.87868 21.1213C5 20.2426 5 18.8284 5 16V8Z" stroke="black" stroke-width="1.5"/>
<path d="M19 19.5C19.4645 19.5 19.6968 19.5 19.8911 19.4692C20.9608 19.2998 21.7998 18.4608 21.9692 17.3911C22 17.1968 22 16.9645 22 16.5V7.5C22 7.0355 22 6.80325 21.9692 6.60891C21.7998 5.53918 20.9608 4.70021 19.8911 4.53078C19.6968 4.5 19.4645 4.5 19 4.5" stroke="black" stroke-width="1.5"/>
<path d="M5 19.5C4.5355 19.5 4.30325 19.5 4.10891 19.4692C3.03918 19.2998 2.20021 18.4608 2.03078 17.3911C2 17.1968 2 16.9645 2 16.5V7.5C2 7.0355 2 6.80325 2.03078 6.60891C2.20021 5.53918 3.03918 4.70021 4.10891 4.53078C4.30325 4.5 4.5355 4.5 5 4.5" stroke="black" stroke-width="1.5"/>
<path d="M12 15C12 16.1046 11.1046 17 10 17C8.89543 17 8 16.1046 8 15C8 13.8954 8.89543 13 10 13C11.1046 13 12 13.8954 12 15ZM12 15V10" stroke="black" stroke-width="1.5"/>
<path d="M14.0584 7.971L12.7416 8.62936C12.5592 8.72058 12.468 8.7662 12.3926 8.82381C12.1974 8.97304 12.064 9.1889 12.0178 9.43021C12 9.52337 12 9.62536 12 9.82936C12 10.3149 12 10.5577 12.0598 10.7227C12.2178 11.1589 12.6551 11.4292 13.1159 11.3754C13.2902 11.3551 13.5074 11.2465 13.9416 11.0294L15.2584 10.371C15.4408 10.2798 15.532 10.2342 15.6074 10.1765C15.8026 10.0273 15.936 9.81145 15.9822 9.57014C16 9.47699 16 9.37499 16 9.171C16 8.68545 16 8.44268 15.9402 8.27764C15.7822 7.84144 15.3449 7.57119 14.8841 7.62495C14.7098 7.64528 14.4926 7.75385 14.0584 7.971Z" stroke="black" stroke-width="1.5" stroke-linecap="round"/>
</svg>
