<svg width="24" height="24" viewBox="0 0 24 24" fill="none" xmlns="http://www.w3.org/2000/svg">
<path d="M9 10C9 8.34315 10.3431 7 12 7C13.6569 7 15 8.34315 15 10V13C15 14.6569 13.6569 16 12 16C10.3431 16 9 14.6569 9 13V10Z" stroke="black" stroke-width="1.5"/>
<path d="M13 10L15 10" stroke="black" stroke-width="1.5" stroke-linecap="round"/>
<path d="M13 13L15 13" stroke="black" stroke-width="1.5" stroke-linecap="round"/>
<path d="M9 10L10 10" stroke="black" stroke-width="1.5" stroke-linecap="round"/>
<path d="M9 13L10 13" stroke="black" stroke-width="1.5" stroke-linecap="round"/>
<path d="M4.15387 16C5.17347 16 6.00002 15.1734 6.00002 14.1538V9.99998C6.00002 6.68628 8.68631 4 12 4C15.3137 4 18 6.68628 18 9.99998V14.1538C18 15.1734 18.8265 16 19.8461 16" stroke="black" stroke-width="1.5"/>
<path d="M2 12C2 10.8954 2.89543 10 4 10C5.10457 10 6 10.8954 6 12V14C6 15.1046 5.10457 16 4 16C2.89543 16 2 15.1046 2 14V12Z" stroke="black" stroke-width="1.5"/>
<path d="M18 12C18 10.8954 18.8954 10 20 10C21.1046 10 22 10.8954 22 12V14C22 15.1046 21.1046 16 20 16C18.8954 16 18 15.1046 18 14V12Z" stroke="black" stroke-width="1.5"/>
<path d="M12 16V19" stroke="black" stroke-width="1.5" stroke-linecap="round"/>
</svg>
