<svg width="24" height="24" viewBox="0 0 24 24" fill="none" xmlns="http://www.w3.org/2000/svg">
<path d="M16.25 11.9998C16.25 11.5856 15.9142 11.2498 15.5 11.2498C15.0858 11.2498 14.75 11.5856 14.75 11.9998H16.25ZM7.0162 6.95791L7.14108 7.69744L7.0162 6.95791ZM8.59932 6.22002L8.18647 5.59387L8.18647 5.59387L8.59932 6.22002ZM7.72795 6.74438L8.03077 7.43053L7.72795 6.74438ZM3.33988 16.7225L3.02496 17.4032L3.33988 16.7225ZM1.53479 13.0282L0.786179 13.0738L1.53479 13.0282ZM1.95854 15.4228L2.6188 15.067L1.95854 15.4228ZM13.7001 20.0747L13.4578 19.3649L13.7001 20.0747ZM15.4127 14.6052L16.1619 14.64L15.4127 14.6052ZM14.2797 19.7797L14.7109 20.3934L14.2797 19.7797ZM8.81825 6.07566L9.2311 6.70181L9.2311 6.70181L8.81825 6.07566ZM13.7001 3.92487L13.4578 4.63468L13.7001 3.92487ZM14.2797 4.21984L14.7109 3.60621L14.2797 4.21984ZM3.33988 7.27707L3.02496 6.5964L3.33988 7.27707ZM1.53479 10.9714L0.786179 10.9258L1.53479 10.9714ZM1.95854 8.57679L2.6188 8.93254L1.95854 8.57679ZM9.91107 17.7452C9.56462 17.5182 9.09972 17.615 8.87269 17.9615C8.64566 18.3079 8.74247 18.7728 9.08893 18.9998L9.91107 17.7452ZM9.01216 6.84616L9.2311 6.70181L8.40541 5.44952L8.18647 5.59387L9.01216 6.84616ZM2.2834 12.9826C2.26225 12.6356 2.25 12.303 2.25 11.9998H0.75C0.75 12.3414 0.763733 12.7056 0.786179 13.0738L2.2834 12.9826ZM2.25 11.9998C2.25 11.6966 2.26225 11.364 2.2834 11.017L0.786179 10.9258C0.763733 11.294 0.75 11.6582 0.75 11.9998H2.25ZM14.75 11.9998C14.75 12.5116 14.7156 13.4508 14.6635 14.5704L16.1619 14.64C16.2137 13.525 16.25 12.5518 16.25 11.9998H14.75ZM6.00008 7.74979C6.48771 7.74979 6.81682 7.7522 7.14108 7.69744L6.89132 6.21838C6.71956 6.24738 6.5366 6.24979 6.00008 6.24979V7.74979ZM8.18647 5.59387C7.73856 5.8892 7.58448 5.98791 7.42513 6.05823L8.03077 7.43053C8.33163 7.29775 8.60506 7.11458 9.01216 6.84616L8.18647 5.59387ZM7.14108 7.69744C7.44756 7.64568 7.74641 7.55603 8.03077 7.43053L7.42513 6.05823C7.25451 6.13353 7.0752 6.18732 6.89132 6.21838L7.14108 7.69744ZM6.00008 17.7498C6.5366 17.7498 6.71956 17.7522 6.89132 17.7812L7.14108 16.3021C6.81682 16.2474 6.48771 16.2498 6.00008 16.2498V17.7498ZM6.00008 16.2498C4.55641 16.2498 4.06911 16.2335 3.6548 16.0418L3.02496 17.4032C3.80931 17.7661 4.69593 17.7498 6.00008 17.7498V16.2498ZM0.786179 13.0738C0.856484 14.2273 0.890091 15.021 1.29828 15.7785L2.6188 15.067C2.40052 14.6619 2.36045 14.2467 2.2834 12.9826L0.786179 13.0738ZM3.6548 16.0418C3.25445 15.8566 2.82804 15.4554 2.6188 15.067L1.29828 15.7785C1.66141 16.4525 2.33016 17.0817 3.02496 17.4032L3.6548 16.0418ZM14.6635 14.5704C14.5924 16.1011 14.541 17.1731 14.4015 17.9479C14.2626 18.7193 14.0651 19.0139 13.8485 19.1661L14.7109 20.3934C15.417 19.8972 15.7159 19.1131 15.8778 18.2137C16.0391 17.3178 16.0928 16.1266 16.1619 14.64L14.6635 14.5704ZM13.9423 20.7845C14.2142 20.6917 14.4759 20.5585 14.7109 20.3934L13.8485 19.1661C13.7297 19.2496 13.5952 19.318 13.4578 19.3649L13.9423 20.7845ZM9.2311 6.70181C10.5209 5.85139 11.426 5.2565 12.1402 4.90954C12.8525 4.56352 13.2087 4.54965 13.4578 4.63468L13.9423 3.21506C13.1241 2.93586 12.3108 3.15904 11.4848 3.56031C10.6607 3.96063 9.65858 4.62325 8.40541 5.44952L9.2311 6.70181ZM13.4578 4.63468C13.5952 4.68157 13.7297 4.74998 13.8485 4.83346L14.7109 3.60621C14.4759 3.44103 14.2142 3.30784 13.9423 3.21506L13.4578 4.63468ZM6.00008 6.24979C4.69593 6.24979 3.80931 6.23351 3.02496 6.5964L3.6548 7.95775C4.06911 7.76607 4.55641 7.74979 6.00008 7.74979V6.24979ZM2.2834 11.017C2.36045 9.75285 2.40052 9.33765 2.6188 8.93254L1.29828 8.22104C0.890091 8.97862 0.856484 9.77226 0.786179 10.9258L2.2834 11.017ZM3.02496 6.5964C2.33016 6.91785 1.66141 7.54708 1.29828 8.22104L2.6188 8.93254C2.82804 8.54419 3.25445 8.14298 3.6548 7.95775L3.02496 6.5964ZM9.08893 18.9998C10.1277 19.6806 10.9875 20.2245 11.7204 20.5488C12.4627 20.8771 13.2003 21.0377 13.9423 20.7845L13.4578 19.3649C13.2324 19.4418 12.9187 19.4386 12.3272 19.177C11.7264 18.9112 10.9698 18.439 9.91107 17.7452L9.08893 18.9998ZM16.1231 8.53979C16.0624 7.31263 15.9963 6.30685 15.827 5.52953C15.6552 4.7411 15.3503 4.05557 14.7109 3.60621L13.8485 4.83346C14.0443 4.97111 14.2254 5.22507 14.3614 5.84888C14.4997 6.48379 14.5631 7.36297 14.6249 8.61379L16.1231 8.53979Z" fill="black"/>
<path d="M20 18C20 18 21.5 16.2 21.5 12C21.5 9.56658 20.9965 7.93882 20.5729 7" stroke="black" stroke-width="1.5" stroke-linecap="round"/>
<path d="M18 15C18 15 18.5 14.1 18.5 12C18.5 11.1381 18.4158 10.4784 18.3165 10" stroke="black" stroke-width="1.5" stroke-linecap="round"/>
<path d="M22 2L2 22" stroke="black" stroke-width="1.5" stroke-linecap="round"/>
</svg>
