<svg width="24" height="24" viewBox="0 0 24 24" fill="none" xmlns="http://www.w3.org/2000/svg">
<path d="M16.5303 3.46967C16.2374 3.17678 15.7626 3.17678 15.4697 3.46967C15.1768 3.76256 15.1768 4.23744 15.4697 4.53033L16.9393 6.00001L15.4697 7.46967C15.1768 7.76256 15.1768 8.23744 15.4697 8.53033C15.7626 8.82322 16.2374 8.82322 16.5303 8.53033L18 7.06067L19.4696 8.53031C19.7625 8.82321 20.2374 8.82321 20.5303 8.53031C20.8232 8.23742 20.8232 7.76255 20.5303 7.46965L19.0607 6.00001L20.5303 4.53035C20.8232 4.23745 20.8232 3.76258 20.5303 3.46969C20.2374 3.17679 19.7626 3.17679 19.4697 3.46969L18 4.93935L16.5303 3.46967Z" fill="black"/>
<path fill-rule="evenodd" clip-rule="evenodd" d="M10.6925 4.95067C9.52269 2.85455 6.68755 2.72683 5.00748 4.4069C4.10882 5.30556 3.31033 6.50048 3.2571 7.90468C3.17821 9.98561 3.71559 13.4408 7.13738 16.8626C10.5592 20.2844 14.0144 20.8218 16.0953 20.7429C17.4995 20.6897 18.6944 19.8912 19.5931 18.9925C21.2732 17.3125 21.1455 14.4773 19.0493 13.3075L17.8864 12.6585C16.5176 11.8946 14.7905 12.2201 13.6585 13.3384C13.6381 13.3533 13.5231 13.4323 13.3221 13.4421C13.0657 13.4545 12.473 13.3633 11.5548 12.4452C10.6364 11.5267 10.5454 10.9339 10.5579 10.6776C10.5678 10.4768 10.6467 10.3619 10.6616 10.3415C11.7799 9.2095 12.1054 7.48242 11.3415 6.1136L10.6925 4.95067ZM6.06814 5.46756C7.17397 4.36173 8.78366 4.60832 9.38268 5.68167L10.0317 6.8446C10.4354 7.56801 10.2977 8.58415 9.58439 9.29747C9.51474 9.36712 9.09849 9.81276 9.05973 10.6043C9.02006 11.4146 9.38398 12.3956 10.4942 13.5058C11.604 14.6157 12.5848 14.9797 13.395 14.9403C14.1865 14.9018 14.6323 14.4858 14.7023 14.4158C15.4157 13.7025 16.432 13.5646 17.1554 13.9683L18.3183 14.6173C19.3917 15.2163 19.6383 16.826 18.5324 17.9319C17.7571 18.7072 16.9013 19.2113 16.0385 19.244C14.3032 19.3098 11.2774 18.8813 8.19804 15.802C5.11867 12.7226 4.69023 9.69684 4.75602 7.9615C4.78873 7.09872 5.29279 6.24291 6.06814 5.46756Z" fill="black"/>
</svg>
