<svg width="24" height="24" viewBox="0 0 24 24" fill="none" xmlns="http://www.w3.org/2000/svg">
<path d="M13.2596 1.88014C13.3258 1.47125 13.7124 1.19387 14.1213 1.26007C14.1466 1.26491 14.228 1.28013 14.2707 1.28964C14.356 1.30864 14.475 1.3379 14.6234 1.38112C14.9202 1.46757 15.3348 1.60997 15.8324 1.83811C16.8287 2.29486 18.1545 3.09387 19.5303 4.46967C20.9061 5.84547 21.7051 7.17128 22.1619 8.16756C22.39 8.66517 22.5324 9.07978 22.6189 9.37656C22.6621 9.52496 22.6914 9.64399 22.7104 9.72932C22.7199 9.77199 22.7268 9.80625 22.7317 9.83156L22.7374 9.86275C22.8036 10.2716 22.5288 10.6742 22.1199 10.7404C21.7121 10.8064 21.328 10.5303 21.2602 10.1234C21.2581 10.1124 21.2524 10.0831 21.2462 10.0554C21.2339 10 21.2126 9.91218 21.1787 9.79603C21.1111 9.56369 20.9935 9.21836 20.7984 8.79268C20.4085 7.94238 19.7075 6.76819 18.4697 5.53033C17.2318 4.29247 16.0576 3.59147 15.2073 3.20164C14.7816 3.00648 14.4363 2.88895 14.204 2.82128C14.0878 2.78745 13.9418 2.75394 13.8864 2.7416C13.4795 2.67378 13.1936 2.28786 13.2596 1.88014Z" fill="black"/>
<path fill-rule="evenodd" clip-rule="evenodd" d="M13.4859 5.3296C13.5997 4.93133 14.0148 4.70071 14.4131 4.8145L14.207 5.53564C14.4131 4.8145 14.4131 4.8145 14.4131 4.8145L14.4145 4.81491L14.416 4.81536L14.4194 4.81633L14.4271 4.81864L14.4469 4.82481C14.462 4.82963 14.4808 4.83591 14.5033 4.84388C14.5482 4.85981 14.6076 4.88248 14.6804 4.91368C14.826 4.97612 15.0251 5.07254 15.2696 5.21725C15.7591 5.50693 16.4273 5.98811 17.2122 6.77308C17.9972 7.55805 18.4784 8.22624 18.7681 8.7157C18.9128 8.96021 19.0092 9.15928 19.0716 9.30496C19.1028 9.37777 19.1255 9.43713 19.1414 9.48204C19.1494 9.50449 19.1557 9.52332 19.1605 9.5384L19.1667 9.55818L19.169 9.56594L19.17 9.56927L19.1704 9.5708C19.1704 9.5708 19.1708 9.57224 18.4497 9.77828L19.1708 9.57224C19.2846 9.97052 19.054 10.3856 18.6557 10.4994C18.2608 10.6123 17.8494 10.3865 17.7315 9.99443L17.7278 9.98365C17.7225 9.96863 17.7114 9.93904 17.6929 9.89584C17.6559 9.80951 17.5888 9.66827 17.4772 9.47968C17.2542 9.10294 16.8515 8.53369 16.1516 7.83374C15.4516 7.13379 14.8824 6.73108 14.5056 6.50811C14.317 6.3965 14.1758 6.3294 14.0895 6.2924C14.0463 6.27388 14.0167 6.26285 14.0017 6.25752L13.9909 6.25382C13.5988 6.13594 13.3731 5.7245 13.4859 5.3296Z" fill="black"/>
<path fill-rule="evenodd" clip-rule="evenodd" d="M5.00748 4.4069C6.68755 2.72683 9.52269 2.85455 10.6925 4.95067L11.3415 6.1136C12.1054 7.48242 11.7799 9.2095 10.6616 10.3415C10.6467 10.3619 10.5678 10.4768 10.5579 10.6776C10.5454 10.9339 10.6364 11.5267 11.5548 12.4452C12.473 13.3633 13.0657 13.4545 13.3221 13.4421C13.5231 13.4323 13.6381 13.3533 13.6585 13.3384C14.7905 12.2201 16.5176 11.8946 17.8864 12.6585L19.0493 13.3075C21.1455 14.4773 21.2732 17.3124 19.5931 18.9925C18.6944 19.8912 17.4995 20.6897 16.0953 20.7429C14.0144 20.8218 10.5592 20.2844 7.13738 16.8626C3.71559 13.4408 3.17821 9.9856 3.2571 7.90467C3.31033 6.50048 4.10882 5.30556 5.00748 4.4069ZM9.38268 5.68167C8.78366 4.60832 7.17397 4.36173 6.06814 5.46756C5.29279 6.24291 4.78873 7.09872 4.75602 7.9615C4.69023 9.69684 5.11867 12.7226 8.19804 15.802C11.2774 18.8813 14.3032 19.3098 16.0385 19.244C16.9013 19.2113 17.7571 18.7072 18.5324 17.9319C19.6383 16.826 19.3917 15.2163 18.3183 14.6173L17.1554 13.9683C16.432 13.5646 15.4159 13.7023 14.7026 14.4156C14.6325 14.4856 14.1865 14.9018 13.395 14.9403C12.5848 14.9797 11.604 14.6157 10.4942 13.5058C9.38398 12.3956 9.02006 11.4146 9.05973 10.6043C9.09849 9.81275 9.51471 9.36715 9.58435 9.2975C10.2977 8.58418 10.4354 7.56801 10.0317 6.8446L9.38268 5.68167Z" fill="black"/>
</svg>
