<svg width="24" height="24" viewBox="0 0 24 24" fill="none" xmlns="http://www.w3.org/2000/svg">
<path fill-rule="evenodd" clip-rule="evenodd" d="M6.00748 3.40692C7.68755 1.72685 10.5227 1.85457 11.6925 3.95069L12.3415 5.11362C13.1054 6.48244 12.7799 8.20952 11.6616 9.34149C11.6467 9.3619 11.5678 9.47683 11.5579 9.67765C11.5454 9.93397 11.6364 10.5267 12.5548 11.4452C13.473 12.3633 14.0657 12.4546 14.3221 12.4421C14.5231 12.4323 14.6381 12.3533 14.6585 12.3384C15.7905 11.2201 17.5176 10.8946 18.8864 11.6585L20.0493 12.3075C22.1455 13.4773 22.2732 16.3125 20.5931 17.9925C19.6944 18.8912 18.4995 19.6897 17.0953 19.7429C15.0144 19.8218 11.5592 19.2844 8.13738 15.8626C4.71559 12.4409 4.17821 8.98563 4.2571 6.90469C4.31033 5.5005 5.10882 4.30558 6.00748 3.40692ZM10.3827 4.68169C9.78366 3.60834 8.17397 3.36175 7.06814 4.46758C6.29279 5.24293 5.78873 6.09874 5.75602 6.96152C5.69023 8.69686 6.11867 11.7226 9.19804 14.802C12.2774 17.8814 15.3032 18.3098 17.0385 18.244C17.9013 18.2113 18.7571 17.7072 19.5324 16.9319C20.6383 15.826 20.3917 14.2164 19.3183 13.6173L18.1554 12.9683C17.432 12.5646 16.4159 12.7023 15.7026 13.4156L15.7023 13.4158C15.6323 13.4859 15.1865 13.9018 14.395 13.9403C13.5848 13.9797 12.604 13.6157 11.4942 12.5058C10.384 11.3956 10.0201 10.4146 10.0597 9.60429C10.0985 8.81278 10.5147 8.36717 10.5844 8.29752L10.5844 8.29749C11.2977 7.58417 11.4354 6.56803 11.0317 5.84462L10.3827 4.68169Z" fill="black"/>
</svg>
