<svg width="24" height="24" viewBox="0 0 24 24" fill="none" xmlns="http://www.w3.org/2000/svg">
<path opacity="0.5" d="M12 22C17.5228 22 22 17.5228 22 12C22 6.47715 17.5228 2 12 2C6.47715 2 2 6.47715 2 12C2 17.5228 6.47715 22 12 22Z" fill="black"/>
<path d="M14.8978 11.2237C15.4313 11.0808 15.6899 10.3162 15.4755 9.51599C15.2611 8.71579 14.6548 8.18298 14.1213 8.32592C13.5879 8.46886 13.3292 9.23343 13.5436 10.0336C13.7581 10.8338 14.3643 11.3666 14.8978 11.2237Z" fill="black"/>
<path d="M9.10238 12.7767C9.63585 12.6337 9.89449 11.8692 9.68008 11.069C9.46567 10.2688 8.85939 9.73596 8.32592 9.8789C7.79246 10.0218 7.53381 10.7864 7.74823 11.5866C7.96264 12.3868 8.56892 12.9196 9.10238 12.7767Z" fill="black"/>
<path d="M8.18524 15.751C8.28594 15.3492 8.69329 15.1052 9.09507 15.2059C10.2254 15.4892 11.5234 15.4927 12.8411 15.1396C14.1589 14.7865 15.2813 14.1345 16.1185 13.324C16.4161 13.0359 16.8909 13.0436 17.179 13.3412C17.4671 13.6388 17.4594 14.1136 17.1618 14.4017C16.8143 14.7381 16.4298 15.0495 16.0129 15.3304L16.1709 15.6523C16.5396 16.4034 16.2225 17.3108 15.4663 17.6688C14.7251 18.0197 13.8395 17.7102 13.4781 16.9741L13.2819 16.5742L13.2294 16.5885C11.674 17.0052 10.1168 17.0083 8.73039 16.6609C8.32861 16.5602 8.08453 16.1528 8.18524 15.751Z" fill="black"/>
</svg>
