<svg width="24" height="24" viewBox="0 0 24 24" fill="none" xmlns="http://www.w3.org/2000/svg">
<path fill-rule="evenodd" clip-rule="evenodd" d="M10.8011 2.56967C10.8792 2.95444 10.6305 3.32966 10.2458 3.40776C6.81159 4.10481 4.10481 6.81156 3.40771 10.2457C3.3296 10.6305 2.95437 10.8791 2.56961 10.801C2.18484 10.7229 1.93624 10.3477 2.01435 9.9629C2.82504 5.96912 5.96917 2.82503 9.96297 2.0144C10.3477 1.9363 10.723 2.1849 10.8011 2.56967Z" fill="black"/>
<path fill-rule="evenodd" clip-rule="evenodd" d="M2.56976 13.199C2.95452 13.1209 3.32975 13.3695 3.40786 13.7543C4.10496 17.1885 6.81174 19.8952 10.2459 20.5923C10.6307 20.6704 10.8793 21.0456 10.8012 21.4304C10.7231 21.8151 10.3479 22.0638 9.96312 21.9857C5.96932 21.175 2.82519 18.0309 2.0145 14.0371C1.9364 13.6524 2.18499 13.2772 2.56976 13.199Z" fill="black"/>
<path fill-rule="evenodd" clip-rule="evenodd" d="M13.1989 2.56962C13.277 2.18485 13.6523 1.93625 14.037 2.01435C18.0308 2.82498 21.175 5.96907 21.9857 9.96285C22.0638 10.3476 21.8152 10.7228 21.4304 10.801C21.0456 10.8791 20.6704 10.6305 20.5923 10.2457C19.8952 6.81151 17.1884 4.10476 13.7542 3.40771C13.3695 3.32961 13.1208 2.95439 13.1989 2.56962Z" fill="black"/>
<path fill-rule="evenodd" clip-rule="evenodd" d="M21.4304 13.199C21.8152 13.2772 22.0638 13.6524 21.9857 14.0371C21.175 18.0309 18.0308 21.175 14.037 21.9857C13.6523 22.0637 13.277 21.8151 13.1989 21.4304C13.1208 21.0456 13.3695 20.6704 13.7542 20.5923C17.1884 19.8952 19.8952 17.1885 20.5923 13.7543C20.6704 13.3695 21.0456 13.1209 21.4304 13.199Z" fill="black"/>
<path opacity="0.5" d="M11.9998 19.5826C16.1877 19.5826 19.5826 16.1877 19.5826 11.9998C19.5826 7.81193 16.1877 4.41699 11.9998 4.41699C7.81193 4.41699 4.41699 7.81193 4.41699 11.9998C4.41699 16.1877 7.81193 19.5826 11.9998 19.5826Z" fill="black"/>
<path d="M8.94088 14.5385C9.17468 14.2231 9.6199 14.1569 9.93531 14.3907C10.5249 14.8278 11.2357 15.0803 12.0001 15.0803C12.7645 15.0803 13.4753 14.8278 14.0649 14.3907C14.3803 14.1569 14.8255 14.2231 15.0593 14.5385C15.2931 14.8539 15.2269 15.2992 14.9115 15.5329C14.0906 16.1415 13.0859 16.5021 12.0001 16.5021C10.9143 16.5021 9.90961 16.1415 9.08866 15.5329C8.77325 15.2992 8.70709 14.8539 8.94088 14.5385Z" fill="black"/>
<path d="M14.4882 11.6444C14.9462 11.6444 15.3176 11.0874 15.3176 10.4003C15.3176 9.71323 14.9462 9.15625 14.4882 9.15625C14.0302 9.15625 13.6588 9.71323 13.6588 10.4003C13.6588 11.0874 14.0302 11.6444 14.4882 11.6444Z" fill="black"/>
<path d="M9.51199 11.6444C9.97003 11.6444 10.3414 11.0874 10.3414 10.4003C10.3414 9.71323 9.97003 9.15625 9.51199 9.15625C9.05394 9.15625 8.68262 9.71323 8.68262 10.4003C8.68262 11.0874 9.05394 11.6444 9.51199 11.6444Z" fill="black"/>
</svg>
