<svg width="24" height="24" viewBox="0 0 24 24" fill="none" xmlns="http://www.w3.org/2000/svg">
<path d="M21.2424 13.7083L13.7083 21.2424C13.6419 21.3087 13.5725 21.3718 13.5004 21.431C13.448 21.4741 13.3943 21.5151 13.3392 21.554C12.9462 21.8314 12.4858 22 12 22C12 21.4484 12 20.9513 12.003 20.5C12.0153 18.6662 12.0776 17.5889 12.3928 16.688C13.0964 14.6773 14.6773 13.0964 16.688 12.3928C17.5889 12.0776 18.6662 12.0153 20.5 12.003C20.9513 12 21.4484 12 22 12C22 12.4858 21.8314 12.9462 21.554 13.3392C21.5151 13.3943 21.4741 13.448 21.431 13.5004C21.3718 13.5725 21.3087 13.6419 21.2424 13.7083Z" fill="black"/>
<path opacity="0.5" d="M12 2C17.5228 2 22 6.47715 22 12C21.4484 12 20.9513 12 20.5 12.003C18.6662 12.0153 17.5889 12.0776 16.688 12.3928C14.6773 13.0964 13.0964 14.6773 12.3928 16.688C12.0776 17.5889 12.0153 18.6662 12.003 20.5C12 20.9513 12 21.4484 12 22C6.47715 22 2 17.5228 2 12C2 6.47715 6.47715 2 12 2Z" fill="black"/>
<path d="M10 10.5C10 11.3284 9.55228 12 9 12C8.44771 12 8 11.3284 8 10.5C8 9.67157 8.44771 9 9 9C9.55228 9 10 9.67157 10 10.5Z" fill="black"/>
<path d="M15 12C15.5523 12 16 11.3284 16 10.5C16 9.67157 15.5523 9 15 9C14.4477 9 14 9.67157 14 10.5C14 11.3284 14.4477 12 15 12Z" fill="black"/>
<path d="M8.39747 15.5534C8.64413 15.2206 9.11385 15.1508 9.44661 15.3975C10.175 15.9373 11.0541 16.25 12 16.25C12.1964 16.25 12.39 16.2365 12.5799 16.2103C12.512 16.3666 12.4495 16.5259 12.3928 16.688C12.2801 17.0101 12.1998 17.3546 12.1425 17.7482C12.0951 17.7494 12.0476 17.75 12 17.75C10.715 17.75 9.5258 17.3233 8.55339 16.6025C8.22062 16.3559 8.15082 15.8862 8.39747 15.5534Z" fill="black"/>
</svg>
