<svg width="24" height="24" viewBox="0 0 24 24" fill="none" xmlns="http://www.w3.org/2000/svg">
<path fill-rule="evenodd" clip-rule="evenodd" d="M3.28441 11.2661C3.15113 9.26687 3.08449 8.26726 3.67729 7.63363C4.27009 7 5.27191 7 7.27555 7H12.7245C14.7281 7 15.7299 7 16.3227 7.63363C16.4852 7.80726 16.5981 8.00837 16.6737 8.25H17C19.5261 8.25 21.75 10.0619 21.75 12.5C21.75 14.9381 19.5261 16.75 17 16.75H16.3499C16.3383 16.9226 16.3269 17.0891 16.3155 17.25H3.68451C3.66551 16.9826 3.64663 16.6993 3.62662 16.3991L3.28441 11.2661ZM16.45 15.25H17C18.8921 15.25 20.25 13.9278 20.25 12.5C20.25 11.0722 18.8921 9.75 17 9.75H16.8007C16.788 10.1801 16.7547 10.6802 16.7156 11.2661L16.45 15.25Z" fill="black"/>
<path d="M3.81902 18.75H16.181C16.0372 19.9266 15.8026 20.6671 15.2429 21.1907C14.3779 22 13.0475 22 10.3867 22H9.61333C6.95253 22 5.62212 22 4.75712 21.1907C4.19745 20.6671 3.96285 19.9266 3.81902 18.75Z" fill="black"/>
<path fill-rule="evenodd" clip-rule="evenodd" d="M6.97733 1.32697C7.31455 1.56751 7.39293 2.03587 7.15239 2.37309L6.76632 2.91434C7.39214 3.3886 7.53085 4.27785 7.07187 4.92132L6.66125 5.49699C6.42072 5.83421 5.95235 5.91258 5.61514 5.67205C5.27792 5.43151 5.19954 4.96315 5.44008 4.62594L5.82615 4.08469C5.20033 3.61042 5.06162 2.72117 5.5206 2.0777L5.93122 1.50203C6.17176 1.16481 6.64012 1.08644 6.97733 1.32697ZM10.9773 1.32697C11.3146 1.56751 11.3929 2.03587 11.1524 2.37309L10.7663 2.91434C11.3921 3.3886 11.5309 4.27785 11.0719 4.92132L10.6613 5.49699C10.4207 5.83421 9.95235 5.91258 9.61514 5.67205C9.27792 5.43151 9.19954 4.96315 9.44008 4.62594L9.82615 4.08468C9.20033 3.61042 9.06162 2.72117 9.5206 2.0777L9.93122 1.50203C10.1718 1.16481 10.6401 1.08644 10.9773 1.32697ZM14.9773 1.32697C15.3146 1.56751 15.3929 2.03587 15.1524 2.37309L14.7663 2.91434C15.3921 3.3886 15.5309 4.27785 15.0719 4.92132L14.6613 5.49699C14.4207 5.83421 13.9524 5.91258 13.6151 5.67205C13.2779 5.43151 13.1995 4.96315 13.4401 4.62594L13.8261 4.08469C13.2003 3.61042 13.0616 2.72117 13.5206 2.0777L13.9312 1.50203C14.1718 1.16481 14.6401 1.08644 14.9773 1.32697Z" fill="black"/>
</svg>
