<svg width="24" height="24" viewBox="0 0 24 24" fill="none" xmlns="http://www.w3.org/2000/svg">
<path d="M18.6772 14.531C19.1703 14.0391 19.4791 13.75 20.1526 13.75C20.7467 13.75 21.2865 13.9874 21.7349 14.2973C20.6968 18.7128 16.7323 22 12 22C7.46768 22 3.6396 18.9848 2.41225 14.8509C3.23745 15.3036 4.30084 15.75 5.33179 15.75C6.14547 15.75 6.96656 15.4733 7.65714 15.1522C8.18936 14.9048 8.67974 14.6139 9.07926 14.3522C9.76665 15.2047 10.8196 15.75 12 15.75C12.7517 15.75 13.4518 15.5288 14.0387 15.1479C14.6126 15.4845 15.3239 15.75 16.1426 15.75C17.4558 15.75 18.1486 15.0585 18.6561 14.5521L18.6772 14.531Z" fill="black"/>
<path d="M9.75 12C9.75 10.7574 10.7574 9.75 12 9.75C13.2426 9.75 14.25 10.7574 14.25 12C14.25 13.2426 13.2426 14.25 12 14.25C10.7574 14.25 9.75 13.2426 9.75 12Z" fill="black"/>
<path fill-rule="evenodd" clip-rule="evenodd" d="M12 8.25C9.92893 8.25 8.25 9.92893 8.25 12C8.25 12.3502 8.298 12.6892 8.38778 13.0107C8.00909 13.2659 7.53309 13.5557 7.02472 13.7921C6.42077 14.0729 5.83063 14.25 5.33179 14.25C4.57197 14.25 3.63776 13.8433 2.81907 13.3557C2.51915 13.177 2.25149 12.9978 2.03514 12.8443C2.01187 12.566 2 12.2844 2 12C2 8.99808 3.32274 6.30511 5.41717 4.47212C5.43347 4.4922 5.45098 4.51164 5.46967 4.53033L6.46967 5.53033C6.76256 5.82322 7.23744 5.82322 7.53033 5.53033C7.82322 5.23744 7.82322 4.76256 7.53033 4.46967L6.62594 3.56528C8.17806 2.57431 10.022 2 12 2C15.0019 2 17.6949 3.32274 19.5279 5.41716C19.5078 5.43347 19.4884 5.45097 19.4697 5.46967L18.4697 6.46967C18.1768 6.76256 18.1768 7.23744 18.4697 7.53033C18.7626 7.82322 19.2374 7.82322 19.5303 7.53033L20.4347 6.62594C21.4257 8.17806 22 10.022 22 12C22 12.2351 21.9919 12.4683 21.9759 12.6993C21.4528 12.4364 20.8399 12.25 20.1526 12.25C18.8394 12.25 18.1465 12.9415 17.639 13.4479L17.6179 13.469C17.1248 13.9609 16.816 14.25 16.1426 14.25C15.7922 14.25 15.4596 14.168 15.1508 14.0343C15.5299 13.4483 15.75 12.7498 15.75 12C15.75 9.92893 14.0711 8.25 12 8.25ZM16.45 4.4C16.7814 4.64853 16.8485 5.11863 16.6 5.45L15.1 7.45C14.8515 7.78137 14.3814 7.84853 14.05 7.6C13.7186 7.35147 13.6515 6.88137 13.9 6.55L15.4 4.55C15.6485 4.21863 16.1186 4.15147 16.45 4.4ZM10.4697 3.46967C10.1768 3.76256 10.1768 4.23744 10.4697 4.53033L11.4697 5.53033C11.7626 5.82322 12.2374 5.82322 12.5303 5.53033C12.8232 5.23744 12.8232 4.76256 12.5303 4.46967L11.5303 3.46967C11.2374 3.17678 10.7626 3.17678 10.4697 3.46967ZM8.40953 7.56014C8.51674 7.96024 8.92799 8.19768 9.32809 8.09047L10.6941 7.72444C11.0942 7.61724 11.3317 7.20599 11.2244 6.80589C11.1172 6.40579 10.706 6.16835 10.3059 6.27556L8.93986 6.64158C8.53976 6.74879 8.30232 7.16004 8.40953 7.56014ZM16.7515 11.1383C17.1652 11.1189 17.4849 10.7677 17.4654 10.3539L17.399 8.94129C17.3796 8.52754 17.0284 8.20789 16.6146 8.22733C16.2009 8.24678 15.8812 8.59796 15.9007 9.01171L15.9671 10.4244C15.9865 10.8381 16.3377 11.1578 16.7515 11.1383ZM18.9413 11.5539C19.2151 11.8648 19.689 11.8948 19.9998 11.6211L21.1734 10.6479C21.4843 10.3741 21.5143 9.90019 21.2406 9.58934C20.9668 9.27849 20.4929 9.24842 20.182 9.52218L19.0085 10.4954C18.6976 10.7691 18.6675 11.2431 18.9413 11.5539ZM5.89686 7.17364C5.51977 7.34505 5.35304 7.78969 5.52445 8.16677L6.10968 9.45422C6.28108 9.8313 6.72572 9.99803 7.10281 9.82662C7.47989 9.65522 7.64662 9.21057 7.47522 8.83349L6.88999 7.54605C6.71858 7.16896 6.27394 7.00223 5.89686 7.17364ZM6.94308 10.8949C7.27734 11.1396 7.34999 11.6089 7.10536 11.9431L6.27012 13.0843C6.02549 13.4186 5.5562 13.4912 5.22195 13.2466C4.88769 13.002 4.81504 12.5327 5.05967 12.1984L5.89491 11.0572C6.13954 10.723 6.60883 10.6503 6.94308 10.8949ZM3.56234 8.18884C3.14877 8.21188 2.83218 8.56582 2.85522 8.97939L2.93388 10.3914C2.95692 10.805 3.31086 11.1216 3.72444 11.0985C4.13801 11.0755 4.4546 10.7216 4.43156 10.308L4.35289 8.89596C4.32986 8.48239 3.97591 8.1658 3.56234 8.18884Z" fill="black"/>
</svg>
