<svg width="24" height="24" viewBox="0 0 24 24" fill="none" xmlns="http://www.w3.org/2000/svg">
<path d="M5.68421 2.75C4.06369 2.75 2.75 4.06369 2.75 5.68421C2.75 6.09842 2.41421 6.43421 2 6.43421C1.58579 6.43421 1.25 6.09842 1.25 5.68421C1.25 3.23526 3.23526 1.25 5.68421 1.25C8.13316 1.25 10.1184 3.23526 10.1184 5.68421V11.741C9.76603 11.9202 9.43462 12.1253 9.1444 12.3594C8.97145 12.4989 8.7873 12.6706 8.61842 12.8745V5.68421C8.61842 4.06369 7.30473 2.75 5.68421 2.75Z" fill="black"/>
<path d="M8.63308 16.143C8.86947 19.8315 11.936 22.75 15.6842 22.75C19.356 22.75 22.3736 19.9493 22.7174 16.3676C22.6491 16.4414 22.5794 16.5106 22.5096 16.5751C22.007 17.0392 21.3655 17.3922 20.7078 17.6583C19.3839 18.1939 17.6884 18.5 16 18.5C14.3146 18.5 12.5143 18.195 11.0918 17.6774C10.3865 17.4207 9.69209 17.0824 9.14439 16.6406C8.97643 16.5051 8.79792 16.3393 8.63308 16.143Z" fill="black"/>
<path d="M22 14.5C22 15.8807 19.0539 17 16 17C12.9461 17 9.5 15.8807 9.5 14.5C9.5 13.1193 12.9461 12 16 12C19.0539 12 22 13.1193 22 14.5Z" fill="black"/>
</svg>
