<svg width="24" height="24" viewBox="0 0 24 24" fill="none" xmlns="http://www.w3.org/2000/svg">
<path d="M4.0188 16.5368L7.58758 20.0262C8.93345 21.3421 9.60638 22 10.4426 22C10.9565 22 11.4087 21.7515 11.9933 21.2546C12.3511 20.9505 12.53 20.7984 12.5379 20.5781C12.5458 20.3578 12.3693 20.1846 12.0164 19.8381L4.10649 12.0731C3.86619 11.8372 3.74603 11.7192 3.61375 11.6863C3.52387 11.664 3.43638 11.6662 3.34776 11.6931C3.21732 11.7327 3.10127 11.8589 2.86916 12.1112C2.28972 12.7412 2 13.2089 2 13.7454C2 14.563 2.67293 15.221 4.0188 16.5368Z" fill="black"/>
<path d="M20.0783 13.3965C22.6406 10.8913 22.6406 6.82951 20.0783 4.32429C17.516 1.81908 13.3618 1.81908 10.7995 4.32429L10.3341 4.77929C9.91482 3.15159 8.66759 1.97843 7.21305 2.0003C5.44093 2.02694 4.03217 3.81732 4.06648 5.99923L4.03319 9.45651C4.03098 9.67483 4.02988 9.78399 4.06886 9.87822C4.10784 9.97245 4.1843 10.0475 4.3372 10.1976L13.1253 18.8247C13.4555 19.1488 13.6205 19.3109 13.8247 19.3111C14.0288 19.3113 14.1942 19.1496 14.525 18.8261L20.0783 13.3965Z" fill="black"/>
</svg>
