<svg width="24" height="24" viewBox="0 0 24 24" fill="none" xmlns="http://www.w3.org/2000/svg">
<path fill-rule="evenodd" clip-rule="evenodd" d="M11.2334 3.65355C13.9918 0.895314 18.4782 0.320441 21.0789 2.92102C23.6796 5.52163 23.1046 10.0079 20.3463 12.7662C18.4985 14.6139 15.5113 15.8784 12.9616 15.7874C12.7379 15.7794 12.5153 15.7608 12.2954 15.7307L6.85993 21.166C5.74815 22.2777 3.94561 22.2777 2.83383 21.166C1.72206 20.0542 1.72206 18.2517 2.83383 17.14L8.26895 11.7051C8.23881 11.4854 8.22021 11.2629 8.21219 11.0394C8.12062 8.4895 9.38534 5.50157 11.2334 3.65355ZM12.2941 4.71423C13.9349 3.07344 16.1404 2.46727 17.952 2.87372C17.6843 3.00002 17.4171 3.14489 17.1559 3.30001C15.8484 4.07619 14.4911 5.22775 13.5767 6.14207C12.6636 7.05514 11.3192 8.60491 10.3482 10.0976C10.1197 10.4489 9.90527 10.8069 9.72026 11.1605C9.71635 11.1029 9.71334 11.0445 9.71122 10.9856C9.6359 8.88816 10.7139 6.29438 12.2941 4.71423ZM19.432 3.93075C19.8406 3.84698 19.9729 3.93643 20.0182 3.9817C20.0635 4.02698 20.153 4.15933 20.0692 4.56806C19.9866 4.97141 19.7599 5.48949 19.4103 6.07858C18.7166 7.24726 17.6538 8.50673 16.7976 9.36284C15.9402 10.2202 14.4706 11.4928 13.0845 12.3942C12.3863 12.8483 11.7531 13.179 11.2548 13.3312C11.0065 13.407 10.8321 13.4256 10.7217 13.4174C10.6699 13.4136 10.6413 13.4045 10.6284 13.3991C10.6174 13.3946 10.6137 13.3913 10.611 13.3885C10.6083 13.3858 10.605 13.3822 10.6004 13.3712C10.5951 13.3583 10.586 13.3297 10.5822 13.2779C10.574 13.1676 10.5926 12.9933 10.6685 12.745C10.8206 12.2468 11.1514 11.6137 11.6056 10.9155C12.5071 9.52958 13.78 8.06014 14.6374 7.20275C15.4936 6.34659 16.753 5.28359 17.9216 4.58985C18.5106 4.24016 19.0286 4.01341 19.432 3.93075ZM13.9023 13.6517C13.5511 13.8801 13.1932 14.0944 12.8397 14.2793C12.8975 14.2832 12.956 14.2862 13.0152 14.2883C15.1125 14.3632 17.7057 13.2853 19.2856 11.7055C20.9263 10.0648 21.5326 7.85963 21.1263 6.04819C21 6.31586 20.8552 6.58291 20.7002 6.84416C19.9241 8.15175 18.7727 9.50915 17.8583 10.4235C16.9451 11.3366 15.3951 12.6809 13.9023 13.6517Z" fill="black"/>
</svg>
