<svg width="24" height="24" viewBox="0 0 24 24" fill="none" xmlns="http://www.w3.org/2000/svg">
<path d="M8.00817 12.8954L7.2584 12.9142L7.2584 12.9142L8.00817 12.8954ZM8.024 13.5258L8.77376 13.507L8.77376 13.507L8.024 13.5258ZM6.65417 15.3816L6.45465 14.6586L6.45465 14.6586L6.65417 15.3816ZM4.67298 15.9283L4.8725 16.6513L4.8725 16.6513L4.67298 15.9283ZM2.05032 13.9674L1.30055 13.9862L1.30055 13.9862L2.05032 13.9674ZM2.00094 12.001L2.7507 11.9822L2.7507 11.9822L2.00094 12.001ZM11.8501 7.0064L11.8699 6.25666L11.8699 6.25666L11.8501 7.0064ZM20.7684 10.7254C21.0732 11.0059 21.5477 10.9861 21.8281 10.6813C22.1086 10.3765 22.0889 9.90206 21.7841 9.62159L20.7684 10.7254ZM15.9931 13.1059L16.7429 13.087L16.7429 13.087L15.9931 13.1059ZM16.0031 13.5029L16.7529 13.4841L16.7529 13.4841L16.0031 13.5029ZM17.7494 15.5034L17.8793 14.7647L17.8793 14.7647L17.7494 15.5034ZM19.7532 15.8557L19.8831 15.1171L19.8831 15.1171L19.7532 15.8557ZM11.963 11.5021L11.9828 10.7523L11.9828 10.7523L11.963 11.5021ZM22.7491 13.9415C22.7387 13.5274 22.3946 13.2002 21.9805 13.2106C21.5665 13.221 21.2392 13.5651 21.2496 13.9792L22.7491 13.9415ZM2.40621 10.6295L1.82075 10.1607L1.82075 10.1607L2.40621 10.6295ZM7.76338 6.64403C7.36004 6.73832 7.10951 7.14173 7.20381 7.54507C7.2981 7.94841 7.70151 8.19893 8.10485 8.10464L7.76338 6.64403ZM4.72411 9.53551C5.06827 9.30501 5.1604 8.83916 4.9299 8.49501C4.6994 8.15085 4.23354 8.05872 3.88939 8.28922L4.72411 9.53551ZM7.2584 12.9142L7.27423 13.5447L8.77376 13.507L8.75793 12.8766L7.2584 12.9142ZM6.45465 14.6586L4.47346 15.2054L4.8725 16.6513L6.85369 16.1046L6.45465 14.6586ZM2.80008 13.9485L2.7507 11.9822L1.25118 12.0198L1.30055 13.9862L2.80008 13.9485ZM11.8304 7.75614C17.0492 7.8937 19.7291 9.76911 20.7684 10.7254L21.7841 9.62159C20.4939 8.43442 17.4723 6.40433 11.8699 6.25666L11.8304 7.75614ZM15.2434 13.1247L15.2533 13.5217L16.7529 13.4841L16.7429 13.087L15.2434 13.1247ZM17.6195 16.2421L19.6233 16.5944L19.8831 15.1171L17.8793 14.7647L17.6195 16.2421ZM15.9931 13.1059C16.7429 13.087 16.7429 13.0861 16.7429 13.0851C16.7428 13.0847 16.7428 13.0837 16.7428 13.0831C16.7428 13.0817 16.7427 13.0803 16.7427 13.0789C16.7426 13.0761 16.7424 13.0732 16.7423 13.0701C16.742 13.0641 16.7417 13.0576 16.7412 13.0507C16.7402 13.0369 16.7389 13.0214 16.7369 13.0043C16.7331 12.9702 16.7269 12.9298 16.7171 12.8841C16.6974 12.7924 16.6634 12.6799 16.6053 12.5546C16.487 12.2996 16.2792 12.0133 15.9301 11.7471C15.2437 11.2236 14.0542 10.8069 11.9828 10.7523L11.9433 12.2518C13.8643 12.3025 14.6899 12.6877 15.0204 12.9398C15.1798 13.0614 15.2309 13.1563 15.2445 13.1856C15.2523 13.2024 15.2524 13.2078 15.2504 13.1985C15.2494 13.1939 15.2479 13.1858 15.2465 13.1737C15.2459 13.1677 15.2452 13.1606 15.2446 13.1525C15.2444 13.1484 15.2441 13.144 15.2439 13.1394C15.2438 13.1371 15.2437 13.1347 15.2436 13.1323C15.2436 13.131 15.2435 13.1298 15.2435 13.1285C15.2435 13.1279 15.2434 13.1269 15.2434 13.1266C15.2434 13.1257 15.2434 13.1247 15.9931 13.1059ZM11.9828 10.7523C9.91799 10.6979 8.72919 11.0493 8.04296 11.5559C7.69113 11.8156 7.4859 12.1066 7.37414 12.3702C7.31953 12.499 7.29001 12.6148 7.27447 12.7084C7.26672 12.7551 7.26245 12.7963 7.26024 12.8308C7.25914 12.8481 7.25855 12.8638 7.2583 12.8777C7.25817 12.8847 7.25813 12.8912 7.25816 12.8973C7.25817 12.9003 7.2582 12.9033 7.25824 12.9061C7.25826 12.9075 7.25828 12.9089 7.25831 12.9102C7.25833 12.9109 7.25835 12.9119 7.25835 12.9123C7.25838 12.9132 7.2584 12.9142 8.00817 12.8954C8.75793 12.8766 8.75795 12.8775 8.75797 12.8785C8.75798 12.8788 8.758 12.8798 8.75802 12.8804C8.75804 12.8817 8.75806 12.8829 8.75808 12.8842C8.75812 12.8866 8.75814 12.889 8.75815 12.8913C8.75817 12.896 8.75813 12.9004 8.75806 12.9045C8.75791 12.9128 8.7576 12.92 8.75719 12.9264C8.75639 12.939 8.75521 12.9481 8.75422 12.9541C8.75222 12.9661 8.75095 12.9656 8.75519 12.9556C8.76115 12.9416 8.79604 12.8644 8.93386 12.7627C9.22693 12.5463 10.0156 12.201 11.9433 12.2518L11.9828 10.7523ZM19.6233 16.5944C21.2867 16.8869 22.7918 15.6415 22.7491 13.9415L21.2496 13.9792C21.2677 14.7003 20.6444 15.2509 19.8831 15.1171L19.6233 16.5944ZM2.7507 11.9822C2.74104 11.5974 2.82968 11.3006 2.99167 11.0983L1.82075 10.1607C1.37126 10.7221 1.23573 11.4046 1.25118 12.0198L2.7507 11.9822ZM15.2533 13.5217C15.2871 14.8653 16.297 16.0095 17.6195 16.2421L17.8793 14.7647C17.2428 14.6528 16.7683 14.0965 16.7529 13.4841L15.2533 13.5217ZM4.47346 15.2054C3.67725 15.4251 2.82132 14.7946 2.80008 13.9485L1.30055 13.9862C1.34597 15.7948 3.12414 17.1338 4.8725 16.6513L4.47346 15.2054ZM7.27423 13.5447C7.28755 14.0749 6.95522 14.5205 6.45465 14.6586L6.85369 16.1046C8.0239 15.7816 8.80421 14.7199 8.77376 13.507L7.27423 13.5447ZM8.10485 8.10464C9.1534 7.85951 10.3872 7.7181 11.8304 7.75614L11.8699 6.25666C10.3051 6.21542 8.94293 6.36826 7.76338 6.64403L8.10485 8.10464ZM2.99166 11.0983C3.31391 10.6958 3.87094 10.1069 4.72411 9.53551L3.88939 8.28922C2.89049 8.95825 2.22359 9.6576 1.82075 10.1607L2.99166 11.0983Z" fill="black"/>
</svg>
