<svg width="24" height="24" viewBox="0 0 24 24" fill="none" xmlns="http://www.w3.org/2000/svg">
<path d="M20.5 7V13C20.5 16.7712 20.5 18.6569 19.3284 19.8284C18.1569 21 16.2712 21 12.5 21H11.5M3.5 7V13C3.5 16.7712 3.5 18.6569 4.67157 19.8284C5.37634 20.5332 6.3395 20.814 7.81608 20.9259" stroke="black" stroke-width="1.5" stroke-linecap="round"/>
<path d="M12 3H4C3.05719 3 2.58579 3 2.29289 3.29289C2 3.58579 2 4.05719 2 5C2 5.94281 2 6.41421 2.29289 6.70711C2.58579 7 3.05719 7 4 7H20C20.9428 7 21.4142 7 21.7071 6.70711C22 6.41421 22 5.94281 22 5C22 4.05719 22 3.58579 21.7071 3.29289C21.4142 3 20.9428 3 20 3H16" stroke="black" stroke-width="1.5" stroke-linecap="round"/>
<path d="M12 7L12 16M12 16L15 12.6667M12 16L9 12.6667" stroke="black" stroke-width="1.5" stroke-linecap="round" stroke-linejoin="round"/>
</svg>
