<svg width="24" height="24" viewBox="0 0 24 24" fill="none" xmlns="http://www.w3.org/2000/svg">
<path opacity="0.5" d="M9.77778 21H14.2222C17.3433 21 18.9038 21 20.0248 20.2646C20.51 19.9462 20.9267 19.5371 21.251 19.0607C22 17.9601 22 16.4279 22 13.3636C22 10.2994 22 8.76721 21.251 7.6666C20.9267 7.19014 20.51 6.78104 20.0248 6.46268C19.3044 5.99013 18.4027 5.82123 17.022 5.76086C16.3631 5.76086 15.7959 5.27068 15.6667 4.63636C15.4728 3.68489 14.6219 3 13.6337 3H10.3663C9.37805 3 8.52715 3.68489 8.33333 4.63636C8.20412 5.27068 7.63685 5.76086 6.978 5.76086C5.59733 5.82123 4.69555 5.99013 3.97524 6.46268C3.48995 6.78104 3.07328 7.19014 2.74902 7.6666C2 8.76721 2 10.2994 2 13.3636C2 16.4279 2 17.9601 2.74902 19.0607C3.07328 19.5371 3.48995 19.9462 3.97524 20.2646C5.09624 21 6.65675 21 9.77778 21Z" fill="black"/>
<path d="M17.5557 9.27246C17.0955 9.27246 16.7224 9.63877 16.7224 10.0906C16.7224 10.5425 17.0955 10.9088 17.5557 10.9088H18.6668C19.1271 10.9088 19.5002 10.5425 19.5002 10.0906C19.5002 9.63877 19.1271 9.27246 18.6668 9.27246H17.5557Z" fill="black"/>
<path fill-rule="evenodd" clip-rule="evenodd" d="M12.0002 9.27246C9.69898 9.27246 7.8335 11.104 7.8335 13.3634C7.8335 15.6227 9.69898 17.4543 12.0002 17.4543C14.3013 17.4543 16.1668 15.6227 16.1668 13.3634C16.1668 11.104 14.3013 9.27246 12.0002 9.27246ZM12.0002 10.9088C10.6195 10.9088 9.50016 12.0078 9.50016 13.3634C9.50016 14.719 10.6195 15.8179 12.0002 15.8179C13.3809 15.8179 14.5002 14.719 14.5002 13.3634C14.5002 12.0078 13.3809 10.9088 12.0002 10.9088Z" fill="black"/>
</svg>
