<svg width="24" height="24" viewBox="0 0 24 24" fill="none" xmlns="http://www.w3.org/2000/svg">
<path opacity="0.5" d="M4 11H16C17.8856 11 18.8284 11 19.4142 11.5858C20 12.1716 20 13.1144 20 15V16C20 18.8284 20 20.2426 19.1213 21.1213C18.2426 22 16.8284 22 14 22H10C7.17157 22 5.75736 22 4.87868 21.1213C4 20.2426 4 18.8284 4 16V11Z" fill="black"/>
<path d="M13.3176 8.19993L13.9179 3.16598L9.20718 4.42823L9.16624 4.71262L8.56217 9.77744L13.2808 8.51307L13.3176 8.19993Z" fill="black"/>
<path d="M3.48316 7.51489C3.2751 8.29135 3.517 9.19412 4.00079 10.9997L7 10.196L7.03904 9.88225L7.63943 4.84831L7.53633 4.87593C5.73079 5.35973 4.82802 5.60162 4.25961 6.17003C3.88724 6.5424 3.61945 7.00623 3.48316 7.51489Z" fill="black"/>
<path d="M18.2482 7.18208L14.8407 8.09511L15.4448 3.0303L15.5 2.75802C15.6288 2.73232 15.739 2.71646 15.844 2.70958C17.0548 2.63022 18.1941 3.28804 18.7308 4.37629C18.8615 4.64129 18.9517 4.97791 19.1321 5.65114C19.1922 5.87556 19.2223 5.98776 19.2287 6.08604C19.2552 6.48964 19.0359 6.86943 18.6732 7.04832C18.5848 7.09188 18.4726 7.12195 18.2482 7.18208Z" fill="black"/>
</svg>
