<svg width="24" height="24" viewBox="0 0 24 24" fill="none" xmlns="http://www.w3.org/2000/svg">
<path opacity="0.5" d="M11.1822 15.3618L6.89249 11.0721C6.03628 10.2159 4.66286 10.1702 3.75159 10.9675L2.751 11.8623C2.73407 11.8751 2.7002 11.9607 2.7002 12.2004C2.7002 17.3366 6.86395 21.5004 12.0002 21.5004C15.2197 21.5004 18.057 19.8645 19.7264 17.3786L19.609 17.2612L17.7765 15.599C16.7369 14.6634 15.1888 14.5702 14.0446 15.3744L13.7464 15.5839C12.9512 16.1428 11.8694 16.0491 11.1822 15.3618Z" fill="black"/>
<path d="M15 11C16.1046 11 17 10.1046 17 9C17 7.89543 16.1046 7 15 7C13.8954 7 13 7.89543 13 9C13 10.1046 13.8954 11 15 11Z" fill="black"/>
<path fill-rule="evenodd" clip-rule="evenodd" d="M1.25 12C1.25 6.06294 6.06294 1.25 12 1.25C17.9371 1.25 22.75 6.06294 22.75 12C22.75 17.9371 17.9371 22.75 12 22.75C6.06294 22.75 1.25 17.9371 1.25 12ZM20.9794 9.76985C21.1886 10.5446 21.3002 11.3595 21.3002 12.2004C21.3002 17.3366 17.1364 21.5004 12.0002 21.5004C6.86395 21.5004 2.7002 17.3366 2.7002 12.2004C2.7002 11.3658 2.81014 10.5568 3.01634 9.78724C4.00808 5.74714 7.65403 2.75 12 2.75C16.3397 2.75 19.9814 5.73854 20.9794 9.76985Z" fill="black"/>
</svg>
