<svg width="24" height="24" viewBox="0 0 24 24" fill="none" xmlns="http://www.w3.org/2000/svg">
<path d="M13 17C13 15.1144 13 14.1716 13.5858 13.5858C14.1716 13 15.1144 13 17 13H18C19.8856 13 20.8284 13 21.4142 13.5858C22 14.1716 22 15.1144 22 17C22 18.8856 22 19.8284 21.4142 20.4142C20.8284 21 19.8856 21 18 21H17C15.1144 21 14.1716 21 13.5858 20.4142C13 19.8284 13 18.8856 13 17Z" fill="black"/>
<path opacity="0.5" d="M13.996 21H9.996C9.60445 21 9.23322 21 8.88101 20.9987C5.84091 20.9874 4.21751 20.8784 3.16758 19.8284C3.10053 19.7614 3.03732 19.6904 2.97773 19.6153C2.13519 18.5939 2.01863 17.0574 2.0025 14.3804C2.00024 14.198 1.99877 14.0344 2.00055 13.8872C1.99991 13.6036 1.99991 13.3081 1.99991 13V11C1.99991 7.22876 1.99991 5.34315 3.17148 4.17157C4.34305 3 6.22867 3 9.99991 3H13.9999C17.7711 3 19.6568 3 20.8283 4.17157C20.8954 4.23863 20.9586 4.30966 21.0182 4.38471C21.8607 5.40615 21.9773 6.94261 21.9934 9.61959C21.9957 9.80203 21.9971 9.96561 21.9954 10.1128C21.996 10.3964 21.996 10.6919 21.996 11V13C21.996 16.7712 21.996 18.6569 20.8244 19.8284C19.6529 21 17.7672 21 13.996 21Z" fill="black"/>
</svg>
