<svg width="24" height="24" viewBox="0 0 24 24" fill="none" xmlns="http://www.w3.org/2000/svg">
<path opacity="0.5" d="M13.9962 21H9.99625C9.60469 21 9.23346 21 8.88125 20.9987C5.84115 20.9874 4.21775 20.8784 3.16782 19.8284C3.10078 19.7614 3.03757 19.6904 2.97798 19.6153C2.13544 18.5939 2.01887 17.0574 2.00274 14.3804C2.00049 14.198 1.99901 14.0344 2.00079 13.8872C2.00015 13.6036 2.00015 13.3081 2.00015 13V11C2.00015 7.22876 2.00015 5.34315 3.17173 4.17157C4.3433 3 6.22892 3 10.0002 3H14.0002C17.7714 3 19.657 3 20.8286 4.17157C20.8956 4.23863 20.9589 4.30966 21.0185 4.38471C21.861 5.40615 21.9775 6.94261 21.9937 9.61959C21.9959 9.80203 21.9974 9.96561 21.9956 10.1128C21.9962 10.3964 21.9962 10.6919 21.9962 11V13C21.9962 16.7712 21.9962 18.6569 20.8247 19.8284C19.6531 21 17.7675 21 13.9962 21Z" fill="black"/>
<path d="M13 17C13 15.1144 13 14.1716 13.5858 13.5858C14.1716 13 15.1144 13 17 13H18C19.8856 13 20.8284 13 21.4142 13.5858C22 14.1716 22 15.1144 22 17C22 18.8856 22 19.8284 21.4142 20.4142C20.8284 21 19.8856 21 18 21H17C15.1144 21 14.1716 21 13.5858 20.4142C13 19.8284 13 18.8856 13 17Z" fill="black"/>
<path d="M10.9697 12.0303C11.2626 12.3232 11.7374 12.3232 12.0303 12.0303C12.3232 11.7374 12.3232 11.2626 12.0303 10.9697L9.31066 8.25H10.5C10.9142 8.25 11.25 7.91421 11.25 7.5C11.25 7.08579 10.9142 6.75 10.5 6.75H7.5C7.08579 6.75 6.75 7.08579 6.75 7.5V10.5C6.75 10.9142 7.08579 11.25 7.5 11.25C7.91421 11.25 8.25 10.9142 8.25 10.5V9.31066L10.9697 12.0303Z" fill="black"/>
</svg>
