<svg width="24" height="24" viewBox="0 0 24 24" fill="none" xmlns="http://www.w3.org/2000/svg">
<path opacity="0.5" d="M2 12C2 17.5228 6.47715 22 12 22H21.25C21.6642 22 22 21.6642 22 21.25C22 20.8358 21.6642 20.5 21.25 20.5H17.2704C20.1097 18.7358 22 15.5887 22 12C22 6.47715 17.5228 2 12 2C6.47715 2 2 6.47715 2 12Z" fill="black"/>
<path fill-rule="evenodd" clip-rule="evenodd" d="M12 15.75C9.92893 15.75 8.25 14.0711 8.25 12C8.25 9.92893 9.92893 8.25 12 8.25C14.0711 8.25 15.75 9.92893 15.75 12C15.75 14.0711 14.0711 15.75 12 15.75Z" fill="black"/>
<path d="M5.5 13C6.05228 13 6.5 12.5523 6.5 12C6.5 11.4477 6.05228 11 5.5 11C4.94772 11 4.5 11.4477 4.5 12C4.5 12.5523 4.94772 13 5.5 13Z" fill="black"/>
<path d="M12 4.5C12.5523 4.5 13 4.94772 13 5.5C13 6.05228 12.5523 6.5 12 6.5C11.4477 6.5 11 6.05228 11 5.5C11 4.94772 11.4477 4.5 12 4.5Z" fill="black"/>
<path d="M13 18.5C13 17.9477 12.5523 17.5 12 17.5C11.4477 17.5 11 17.9477 11 18.5C11 19.0523 11.4477 19.5 12 19.5C12.5523 19.5 13 19.0523 13 18.5Z" fill="black"/>
<path d="M18.5 13C19.0523 13 19.5 12.5523 19.5 12C19.5 11.4477 19.0523 11 18.5 11C17.9477 11 17.5 11.4477 17.5 12C17.5 12.5523 17.9477 13 18.5 13Z" fill="black"/>
</svg>
