<svg width="24" height="24" viewBox="0 0 24 24" fill="none" xmlns="http://www.w3.org/2000/svg">
<path opacity="0.5" d="M2 11.5C2 8.21252 2 6.56878 2.90796 5.46243C3.07418 5.25989 3.25989 5.07418 3.46243 4.90796C4.56878 4 6.21252 4 9.5 4C12.7875 4 14.4312 4 15.5376 4.90796C15.7401 5.07418 15.9258 5.25989 16.092 5.46243C17 6.56878 17 8.21252 17 11.5V12.5C17 15.7875 17 17.4312 16.092 18.5376C15.9258 18.7401 15.7401 18.9258 15.5376 19.092C14.4312 20 12.7875 20 9.5 20C6.21252 20 4.56878 20 3.46243 19.092C3.25989 18.9258 3.07418 18.7401 2.90796 18.5376C2 17.4312 2 15.7875 2 12.5V11.5Z" fill="black"/>
<path d="M17 9.50019L17.6584 9.17101C19.6042 8.19807 20.5772 7.7116 21.2886 8.15127C22 8.59094 22 9.67872 22 11.8543V12.1461C22 14.3217 22 15.4094 21.2886 15.8491C20.5772 16.2888 19.6042 15.8023 17.6584 14.8294L17 14.5002V9.50019Z" fill="black"/>
<path d="M9.50002 7.75C9.7226 7.75 9.93369 7.84887 10.0762 8.01986L12.5762 11.0199C12.8414 11.3381 12.7984 11.811 12.4802 12.0762C12.1619 12.3413 11.689 12.2983 11.4239 11.9801L10.25 10.5715V15.5C10.25 15.9142 9.91423 16.25 9.50002 16.25C9.0858 16.25 8.75002 15.9142 8.75002 15.5V10.5715L7.57618 11.9801C7.31101 12.2983 6.83809 12.3413 6.51988 12.0762C6.20167 11.811 6.15868 11.3381 6.42385 11.0199L8.92385 8.01986C9.06635 7.84887 9.27743 7.75 9.50002 7.75Z" fill="black"/>
</svg>
