<svg width="24" height="24" viewBox="0 0 24 24" fill="none" xmlns="http://www.w3.org/2000/svg">
<path opacity="0.5" d="M12 22C13.3261 22 14.592 21.7419 15.75 21.2731V19.7362C15.094 19.8091 14.412 19.594 13.909 19.091C13.0303 18.2123 13.0303 16.7877 13.909 15.909L16.409 13.409C17.2877 12.5303 18.7123 12.5303 19.591 13.409L21.4528 15.2709C21.8074 14.246 22 13.1455 22 12C22 6.47715 17.5228 2 12 2C6.47715 2 2 6.47715 2 12C2 17.5228 6.47715 22 12 22Z" fill="black"/>
<path fill-rule="evenodd" clip-rule="evenodd" d="M17.4697 14.4697C17.7626 14.1768 18.2374 14.1768 18.5303 14.4697L21.0303 16.9697C21.3232 17.2626 21.3232 17.7374 21.0303 18.0303C20.7374 18.3232 20.2626 18.3232 19.9697 18.0303L18.75 16.8107V22C18.75 22.4142 18.4142 22.75 18 22.75C17.5858 22.75 17.25 22.4142 17.25 22V16.8107L16.0303 18.0303C15.7374 18.3232 15.2626 18.3232 14.9697 18.0303C14.6768 17.7374 14.6768 17.2626 14.9697 16.9697L17.4697 14.4697Z" fill="black"/>
<path d="M12.75 11.2137L13.7397 11.7086C13.9425 11.81 14.1204 11.8989 14.269 11.9637C14.4199 12.0295 14.5988 12.0972 14.7972 12.1204C15.6037 12.2145 16.3689 11.7415 16.6454 10.9782C16.7134 10.7904 16.7328 10.6 16.7415 10.4357C16.75 10.2737 16.75 10.0749 16.75 9.84811L16.75 9.78858C16.7503 9.62668 16.7505 9.45495 16.7188 9.28925C16.638 8.86695 16.4045 8.48919 16.0629 8.22804C15.9289 8.12557 15.7752 8.04898 15.6303 7.97678L14.2603 7.29185C14.0575 7.19043 13.8796 7.10149 13.731 7.03669C13.5801 6.97092 13.4012 6.90318 13.2028 6.88003C12.3963 6.78596 11.6311 7.25889 11.3546 8.02225C11.2866 8.21007 11.2672 8.4004 11.2585 8.56475C11.2519 8.6894 11.2504 8.83593 11.2501 9.00021L11.25 9.21227C11.2499 9.23961 11.2499 9.2675 11.25 9.29531V12.5501C10.875 12.3584 10.4501 12.2502 10 12.2502C8.48122 12.2502 7.25 13.4814 7.25 15.0002C7.25 16.519 8.48122 17.7502 10 17.7502C11.5188 17.7502 12.75 16.519 12.75 15.0002V11.2137Z" fill="black"/>
</svg>
