<svg width="24" height="24" viewBox="0 0 24 24" fill="none" xmlns="http://www.w3.org/2000/svg">
<path d="M21.7803 3.53033C22.0732 3.23744 22.0732 2.76256 21.7803 2.46967C21.4874 2.17678 21.0126 2.17678 20.7197 2.46967L16.2705 6.91886C16.2246 6.39532 16.1646 5.93197 16.077 5.52977C15.9052 4.74135 15.6003 4.05581 14.9609 3.60646C14.7259 3.44128 14.4642 3.30809 14.1923 3.21531C13.3741 2.9361 12.5608 3.15928 11.7348 3.56055C10.9212 3.95576 9.93412 4.60663 8.70324 5.41822L8.43647 5.59411C7.98856 5.88944 7.83448 5.98815 7.67513 6.05848C7.50452 6.13378 7.3252 6.18757 7.14132 6.21862C6.96956 6.24762 6.7866 6.25003 6.25008 6.25003L6.08906 6.24998C4.87215 6.24933 4.02659 6.24889 3.27496 6.59664C2.58016 6.9181 1.91141 7.54732 1.54828 8.22128C1.15566 8.94996 1.10959 9.712 1.04409 10.7955L1.03618 10.926C1.01373 11.2943 1 11.6585 1 12C1 12.3416 1.01373 12.7058 1.03618 13.0741L1.04409 13.2045C1.10959 14.2881 1.15566 15.0501 1.54828 15.7788C1.91141 16.4527 2.58016 17.082 3.27496 17.4034C3.88551 17.6859 4.55803 17.7386 5.44121 17.7481L2.71967 20.4697C2.42678 20.7626 2.42678 21.2374 2.71967 21.5303C3.01256 21.8232 3.48744 21.8232 3.78033 21.5303L21.7803 3.53033Z" fill="black"/>
<g opacity="0.4">
<path d="M16.2385 9.07225L7.61448 17.6963C8.0098 18.1712 9.02616 18.8138 9.33897 19.0002C10.3778 19.6809 11.2375 20.2249 11.9705 20.5491C12.7128 20.8775 13.4503 21.0381 14.1923 20.7849C14.4642 20.6921 14.7259 20.5589 14.961 20.3937C15.667 19.8975 15.9659 19.1135 16.1278 18.2141C16.287 17.3297 16.3415 16.1578 16.4093 14.6979L16.412 14.6404C16.4638 13.5254 16.5 12.5522 16.5 12.0002C16.5 11.9729 16.5002 11.9363 16.5004 11.8916C16.5033 11.3245 16.5125 9.46272 16.2385 9.07225Z" fill="black"/>
<path d="M20.5145 6.31657C20.8921 6.14622 21.3362 6.3142 21.5066 6.69176C21.9736 7.7269 22.5 9.45974 22.5 12.0002C22.5 14.1917 22.1083 15.783 21.7001 16.8444C21.4963 17.3742 21.2894 17.7693 21.1275 18.0392C21.0466 18.174 20.977 18.2774 20.9248 18.3505C20.8987 18.3871 20.8769 18.4161 20.8602 18.4377C20.8519 18.4485 20.8448 18.4574 20.8391 18.4645L20.8316 18.4738L20.8286 18.4774L20.8274 18.4789C20.8274 18.4789 20.8262 18.4803 20.2515 18.0013L20.8262 18.4803C20.561 18.7985 20.0881 18.8415 19.7699 18.5763C19.4532 18.3124 19.4091 17.8428 19.6701 17.5246L19.6736 17.5202L19.6837 17.5068C19.6891 17.4996 19.696 17.4902 19.7042 17.4787C19.734 17.437 19.7816 17.3669 19.8413 17.2674C19.9607 17.0685 20.1288 16.7512 20.3 16.3059C20.6418 15.4173 21 14.0086 21 12.0002C21 9.67383 20.5194 8.15116 20.1393 7.30865C19.969 6.93109 20.1369 6.48692 20.5145 6.31657Z" fill="black"/>
<path d="M19.3008 9.84771C19.2166 9.44214 18.8196 9.18162 18.414 9.26583C18.0085 9.35003 17.748 9.74706 17.8322 10.1526C17.9207 10.5789 18 11.1874 18 12.0002C18 12.99 17.8823 13.6773 17.7735 14.1014C17.7191 14.3137 17.6667 14.461 17.6318 14.5482C17.6144 14.5918 17.6012 14.6205 17.5944 14.6349L17.5894 14.6452C17.3955 15.0058 17.5268 15.4563 17.8858 15.6558C18.2479 15.8569 18.7045 15.7265 18.9057 15.3644L18.2511 15.0008C18.9057 15.3644 18.9064 15.3631 18.9064 15.3631L18.9072 15.3617L18.9088 15.3586L18.9127 15.3515L18.9223 15.3332C18.9296 15.3191 18.9384 15.3014 18.9487 15.2798C18.9692 15.2368 18.9951 15.1788 19.0245 15.1053C19.0834 14.9581 19.156 14.7492 19.2265 14.4739C19.3678 13.923 19.5 13.1103 19.5 12.0002C19.5 11.0891 19.411 10.3782 19.3008 9.84771Z" fill="black"/>
</g>
</svg>
