<svg width="24" height="24" viewBox="0 0 24 24" fill="none" xmlns="http://www.w3.org/2000/svg">
<path d="M2.00299 11.7155C2.04033 9.87326 2.059 8.95215 2.67093 8.16363C2.78262 8.0197 2.9465 7.8487 3.08385 7.73274C3.83639 7.09741 4.82995 7.09741 6.81706 7.09741C7.527 7.09741 7.88197 7.09741 8.22035 7.00452C8.29067 6.98522 8.36024 6.96296 8.4289 6.93781C8.75936 6.81674 9.05574 6.60837 9.64851 6.19161C11.9872 4.54738 13.1565 3.72527 14.138 4.08241C14.3261 4.15088 14.5083 4.24972 14.671 4.37162C15.5194 5.00744 15.5839 6.48675 15.7128 9.44537C15.7606 10.5409 15.7931 11.4785 15.7931 12C15.7931 12.5215 15.7606 13.4591 15.7128 14.5546C15.5839 17.5132 15.5194 18.9926 14.671 19.6284C14.5083 19.7503 14.3261 19.8491 14.138 19.9176C13.1565 20.2747 11.9872 19.4526 9.64851 17.8084C9.05574 17.3916 8.75936 17.1833 8.4289 17.0622C8.36024 17.037 8.29067 17.0148 8.22035 16.9955C7.88197 16.9026 7.52701 16.9026 6.81706 16.9026C4.82995 16.9026 3.83639 16.9026 3.08385 16.2673C2.9465 16.1513 2.78262 15.9803 2.67093 15.8364C2.059 15.0478 2.04033 14.1267 2.00299 12.2845C2.00103 12.1878 2 12.0928 2 12C2 11.9072 2.00103 11.8122 2.00299 11.7155Z" fill="black"/>
<path opacity="0.4" fill-rule="evenodd" clip-rule="evenodd" d="M19.4896 5.5523C19.7822 5.29229 20.2171 5.33445 20.4609 5.64646L19.9311 6.11724C20.4609 5.64646 20.4609 5.64646 20.4609 5.64646L20.462 5.64781L20.4632 5.64933L20.4659 5.65286L20.4728 5.66195C20.478 5.66891 20.4845 5.67767 20.4922 5.68825C20.5075 5.7094 20.5276 5.73783 20.5516 5.77369C20.5996 5.8454 20.6636 5.94678 20.738 6.07901C20.8869 6.34356 21.0771 6.73103 21.2645 7.25049C21.6398 8.29118 22.0001 9.85148 22.0001 12.0003C22.0001 14.1492 21.6398 15.7095 21.2645 16.7502C21.0771 17.2697 20.8869 17.6571 20.738 17.9217C20.6636 18.0539 20.5996 18.1553 20.5516 18.227C20.5276 18.2629 20.5075 18.2913 20.4922 18.3124C20.4845 18.323 20.478 18.3318 20.4728 18.3387L20.4659 18.3478L20.4632 18.3514L20.462 18.3529C20.462 18.3529 20.4609 18.3542 19.9311 17.8834L20.4609 18.3542C20.2171 18.6662 19.7822 18.7084 19.4896 18.4484C19.1984 18.1896 19.1579 17.7291 19.3978 17.4172C19.3978 17.4172 19.3995 17.4149 19.401 17.4128C19.4059 17.4061 19.4155 17.3926 19.4292 17.3721C19.4566 17.3312 19.5004 17.2626 19.5553 17.165C19.665 16.9699 19.8196 16.6588 19.9771 16.2222C20.2914 15.3509 20.6208 13.9696 20.6208 12.0003C20.6208 10.031 20.2914 8.64979 19.9771 7.77847C19.8196 7.34192 19.665 7.03077 19.5553 6.83571C19.5004 6.73813 19.4566 6.66945 19.4292 6.62856C19.4155 6.60811 19.4059 6.5946 19.401 6.58789C19.3995 6.58572 19.3978 6.58351 19.3978 6.58351" fill="black"/>
<path opacity="0.7" fill-rule="evenodd" clip-rule="evenodd" d="M17.7572 8.41592C18.0902 8.21868 18.51 8.34659 18.695 8.70163L18.0921 9.05876C18.695 8.70163 18.695 8.70163 18.695 8.70163L18.6957 8.70291L18.6964 8.70428L18.6979 8.70727L18.7014 8.71425L18.7103 8.73224C18.717 8.74604 18.7251 8.76345 18.7345 8.78454C18.7534 8.82672 18.7772 8.88359 18.8043 8.95571C18.8584 9.1 18.9252 9.30487 18.9901 9.57473C19.12 10.1149 19.2415 10.9118 19.2415 12.0003C19.2415 13.0888 19.12 13.8857 18.9901 14.4259C18.9252 14.6958 18.8584 14.9006 18.8043 15.0449C18.7772 15.117 18.7534 15.1739 18.7345 15.2161C18.7251 15.2372 18.717 15.2546 18.7103 15.2684L18.7014 15.2864L18.6979 15.2934L18.6964 15.2963L18.6957 15.2977C18.6957 15.2977 18.695 15.299 18.0921 14.9419L18.695 15.299C18.51 15.654 18.0902 15.782 17.7572 15.5847C17.4271 15.3891 17.3063 14.9474 17.4846 14.5938L17.4892 14.5838C17.4955 14.5696 17.5076 14.5415 17.5236 14.4987C17.5557 14.4132 17.6039 14.2687 17.654 14.0606C17.754 13.6448 17.8622 12.9709 17.8622 12.0003C17.8622 11.0297 17.754 10.3558 17.654 9.94003C17.6039 9.73189 17.5557 9.58745 17.5236 9.50194C17.5076 9.45915 17.4955 9.43099 17.4892 9.41687L17.4846 9.40684C17.3063 9.05328 17.4271 8.61149 17.7572 8.41592Z" fill="black"/>
</svg>
