<svg width="24" height="24" viewBox="0 0 24 24" fill="none" xmlns="http://www.w3.org/2000/svg">
<path d="M3 12.8333C3 12.0515 3 11.6605 3.20665 11.3912C3.25985 11.3219 3.32191 11.2598 3.39124 11.2066C3.66055 11 4.05147 11 4.83333 11H19.1667C19.9485 11 20.3395 11 20.6088 11.2066C20.6781 11.2598 20.7402 11.3219 20.7934 11.3912C21 11.6605 21 12.0515 21 12.8333V13C21 16.7497 21 18.6246 20.0451 19.9389C19.7367 20.3634 19.3634 20.7367 18.9389 21.0451C17.6246 22 15.7497 22 12 22C8.25027 22 6.3754 22 5.06107 21.0451C4.6366 20.7367 4.26331 20.3634 3.95491 19.9389C3 18.6246 3 16.7497 3 13V12.8333Z" stroke="black" stroke-width="1.5"/>
<path d="M3.5 5.94143V4.625C3.5 3.17525 4.67525 2 6.125 2C8.54125 2 10.5 3.95875 10.5 6.375V11H6.79412V9.23555C6.79412 8.78072 6.42541 8.41202 5.97059 8.41202C4.60612 8.41202 3.5 7.3059 3.5 5.94143Z" stroke="black" stroke-width="1.5"/>
<path d="M20.5 5.94143V4.625C20.5 3.17525 19.3247 2 17.875 2C15.4588 2 13.5 3.95875 13.5 6.375V11H17.2059V9.23555C17.2059 8.78072 17.5746 8.41202 18.0294 8.41202C19.3939 8.41202 20.5 7.3059 20.5 5.94143Z" stroke="black" stroke-width="1.5"/>
<path d="M8 11C8 12.1046 8.89543 13 10 13H14C15.1046 13 16 12.1046 16 11" stroke="black" stroke-width="1.5"/>
</svg>
