<svg width="24" height="24" viewBox="0 0 24 24" fill="none" xmlns="http://www.w3.org/2000/svg">
<path d="M6 17.9827C4.44655 17.9359 3.51998 17.7626 2.87868 17.1213C2 16.2426 2 14.8284 2 12C2 9.17157 2 7.75736 2.87868 6.87868C3.75736 6 5.17157 6 8 6H16C18.8284 6 20.2426 6 21.1213 6.87868C22 7.75736 22 9.17157 22 12C22 14.8284 22 16.2426 21.1213 17.1213C20.48 17.7626 19.5535 17.9359 18 17.9827" stroke="black" stroke-width="1.5"/>
<path d="M17.1213 2.87868L16.591 3.40901L16.591 3.40901L17.1213 2.87868ZM6.87868 2.87868L7.40901 3.40901L7.40901 3.40901L6.87868 2.87868ZM6.87868 21.1213L7.40901 20.591L7.40901 20.591L6.87868 21.1213ZM18.75 12C18.75 11.5858 18.4142 11.25 18 11.25C17.5858 11.25 17.25 11.5858 17.25 12H18.75ZM6.75 12C6.75 11.5858 6.41421 11.25 6 11.25C5.58579 11.25 5.25 11.5858 5.25 12H6.75ZM17.25 16C17.25 17.4354 17.2484 18.4365 17.1469 19.1919C17.0482 19.9257 16.8678 20.3142 16.591 20.591L17.6517 21.6517C18.2536 21.0497 18.5125 20.2919 18.6335 19.3918C18.7516 18.5132 18.75 17.393 18.75 16H17.25ZM12 22.75C13.393 22.75 14.5132 22.7516 15.3918 22.6335C16.2919 22.5125 17.0497 22.2536 17.6517 21.6517L16.591 20.591C16.3142 20.8678 15.9257 21.0482 15.1919 21.1469C14.4365 21.2484 13.4354 21.25 12 21.25V22.75ZM12 2.75C13.4354 2.75 14.4365 2.75159 15.1919 2.85315C15.9257 2.9518 16.3142 3.13225 16.591 3.40901L17.6517 2.34835C17.0497 1.74643 16.2919 1.48754 15.3918 1.36652C14.5132 1.24841 13.393 1.25 12 1.25V2.75ZM12 1.25C10.607 1.25 9.48678 1.24841 8.60825 1.36652C7.70814 1.48754 6.95027 1.74643 6.34835 2.34835L7.40901 3.40901C7.68577 3.13225 8.07434 2.9518 8.80812 2.85315C9.56347 2.75159 10.5646 2.75 12 2.75V1.25ZM5.25 16C5.25 17.393 5.24841 18.5132 5.36652 19.3918C5.48754 20.2919 5.74643 21.0497 6.34835 21.6517L7.40901 20.591C7.13225 20.3142 6.9518 19.9257 6.85315 19.1919C6.75159 18.4365 6.75 17.4354 6.75 16H5.25ZM12 21.25C10.5646 21.25 9.56347 21.2484 8.80812 21.1469C8.07435 21.0482 7.68577 20.8678 7.40901 20.591L6.34835 21.6517C6.95027 22.2536 7.70814 22.5125 8.60825 22.6335C9.48678 22.7516 10.607 22.75 12 22.75V21.25ZM18.7323 5.97741C18.6859 4.43521 18.5237 3.22037 17.6517 2.34835L16.591 3.40901C17.0016 3.8196 17.1859 4.4579 17.233 6.02259L18.7323 5.97741ZM6.76698 6.02259C6.81413 4.4579 6.99842 3.8196 7.40901 3.40901L6.34835 2.34835C5.47633 3.22037 5.31413 4.43521 5.26766 5.97741L6.76698 6.02259ZM18.75 16V12H17.25V16H18.75ZM6.75 16V12H5.25V16H6.75Z" fill="black"/>
<path d="M19.5 12.4429C17.8729 11.7123 15.4115 10.9998 12 10.9998C8.58854 10.9998 6.12712 11.7123 4.5 12.4429" stroke="black" stroke-width="1.5" stroke-linecap="round"/>
</svg>
