<svg width="24" height="24" viewBox="0 0 24 24" fill="none" xmlns="http://www.w3.org/2000/svg">
<path d="M3.46447 20.5355C4.92893 22 7.28595 22 12 22C16.714 22 19.0711 22 20.5355 20.5355C22 19.0711 22 16.714 22 12C22 11.6585 22 11.4878 21.9848 11.3142C21.9142 10.5049 21.586 9.71257 21.0637 9.09034C20.9516 8.95687 20.828 8.83317 20.5806 8.58578L15.4142 3.41944C15.1668 3.17206 15.0431 3.04835 14.9097 2.93631C14.2874 2.414 13.4951 2.08581 12.6858 2.01515C12.5122 2 12.3415 2 12 2C7.28595 2 4.92893 2 3.46447 3.46447C2 4.92893 2 7.28595 2 12C2 16.714 2 19.0711 3.46447 20.5355Z" stroke="black" stroke-width="1.5"/>
<path d="M7 6V9" stroke="black" stroke-width="1.5" stroke-linecap="round"/>
<path d="M10 6V9" stroke="black" stroke-width="1.5" stroke-linecap="round"/>
<path d="M13 6V9" stroke="black" stroke-width="1.5" stroke-linecap="round"/>
</svg>
