<svg width="24" height="24" viewBox="0 0 24 24" fill="none" xmlns="http://www.w3.org/2000/svg">
<path d="M12.0646 17.9997C16.4827 18.0354 20.0354 14.4827 19.9997 10.0646C19.9641 5.64642 16.3536 2.03592 11.9354 2.00027C7.51731 1.96461 3.96461 5.51731 4.00027 9.93545C4.03592 14.3536 7.64642 17.9641 12.0646 17.9997Z" stroke="black" stroke-width="1.5" stroke-linecap="round"/>
<path d="M11.25 22C11.25 22.4142 11.5858 22.75 12 22.75C12.4142 22.75 12.75 22.4142 12.75 22H11.25ZM11.25 21V22H12.75V21H11.25Z" fill="black"/>
<path d="M12.8569 7L9.99972 10H13.9997L11.1426 13" stroke="black" stroke-width="1.5" stroke-linecap="round" stroke-linejoin="round"/>
<path d="M13.5 18V19.5C13.5 19.9659 13.5 20.1989 13.4239 20.3827C13.3224 20.6277 13.1277 20.8224 12.8827 20.9239C12.6989 21 12.4659 21 12 21C11.5341 21 11.3011 21 11.1173 20.9239C10.8723 20.8224 10.6776 20.6277 10.5761 20.3827C10.5 20.1989 10.5 19.9659 10.5 19.5V18" stroke="black" stroke-width="1.5"/>
</svg>
