<svg width="24" height="24" viewBox="0 0 24 24" fill="none" xmlns="http://www.w3.org/2000/svg">
<path d="M20.47 10.9182C20.47 10.9182 18.6229 10.3027 16.1603 7.8401C13.6976 5.37747 13.082 3.53027 13.082 3.53027" stroke="#8E93A6" stroke-width="1.5"/>
<path d="M16.6905 8.37043C16.9834 8.07754 16.9834 7.60266 16.6905 7.30977C16.3977 7.01687 15.9228 7.01687 15.6299 7.30976L16.6905 8.37043ZM1.63576 9.03145C1.27368 9.23261 1.14322 9.68922 1.34439 10.0513C1.54555 10.4134 2.00215 10.5438 2.36424 10.3427L1.63576 9.03145ZM13.6576 21.636C13.4565 21.9981 13.5869 22.4547 13.949 22.6558C14.3111 22.857 14.7677 22.7265 14.9688 22.3644L13.6576 21.636ZM4.46967 18.4699C4.17678 18.7628 4.17678 19.2376 4.46967 19.5305C4.76256 19.8234 5.23743 19.8234 5.53033 19.5305L4.46967 18.4699ZM12.7177 2.87466L1.63576 9.03145L2.36424 10.3427L13.4462 4.18589L12.7177 2.87466ZM19.8143 10.5539L13.6576 21.636L14.9688 22.3644L21.1255 11.2824L19.8143 10.5539ZM15.6299 7.30976L4.46967 18.4699L5.53033 19.5305L16.6905 8.37043L15.6299 7.30976Z" fill="#8E93A6"/>
<path d="M13.0818 10.918C15.122 12.9581 18.4297 12.9581 20.4698 10.918C22.5099 8.87785 22.5099 5.57019 20.4698 3.53008C18.4297 1.48997 15.122 1.48997 13.0818 3.53008C11.0417 5.57019 11.0417 8.87785 13.0818 10.918Z" stroke="black" stroke-width="1.5" stroke-linecap="round"/>
</svg>
