<svg width="24" height="24" viewBox="0 0 24 24" fill="none" xmlns="http://www.w3.org/2000/svg">
<path d="M11.8114 6.7267C12.8247 4.9089 13.3314 4 14.0889 4C14.8464 4 15.353 4.9089 16.3663 6.7267L16.6285 7.19699C16.9164 7.71355 17.0604 7.97183 17.2849 8.14225C17.5094 8.31266 17.789 8.37592 18.3482 8.50244L18.8572 8.61762C20.825 9.06284 21.8089 9.28545 22.0429 10.0382C22.277 10.7909 21.6063 11.5753 20.2648 13.1439L19.9177 13.5498C19.5365 13.9955 19.3459 14.2184 19.2602 14.4942C19.1744 14.7699 19.2032 15.0673 19.2609 15.662L19.3134 16.2035C19.5162 18.2965 19.6176 19.343 19.0047 19.8082C18.3919 20.2734 17.4707 19.8492 15.6283 19.0009L15.1517 18.7815C14.6281 18.5404 14.3664 18.4199 14.0889 18.4199C13.8114 18.4199 13.5496 18.5404 13.0261 18.7815L12.5494 19.0009C10.707 19.8492 9.78581 20.2734 9.17299 19.8082C8.56016 19.343 8.66157 18.2965 8.86438 16.2035L8.91685 15.662C8.97449 15.0673 9.0033 14.7699 8.91756 14.4942C8.83181 14.2184 8.64121 13.9955 8.26 13.5498L7.91295 13.1439C6.57147 11.5753 5.90073 10.7909 6.1348 10.0382C6.36888 9.28545 7.35275 9.06284 9.3205 8.61762L9.82958 8.50244C10.3887 8.37592 10.6683 8.31266 10.8928 8.14225C11.1173 7.97183 11.2613 7.71355 11.5492 7.19699L11.8114 6.7267Z" stroke="black" stroke-width="1.5"/>
<path d="M2.08887 16C3.20445 15.121 4.68639 14.7971 6.08887 15.1257" stroke="black" stroke-width="1.5" stroke-linecap="round"/>
<path d="M2.08887 10.5C3.08887 10 3.37862 10.0605 4.08887 10" stroke="black" stroke-width="1.5" stroke-linecap="round"/>
<path d="M2 5.60867L2.20816 5.48676C4.41383 4.19506 6.75032 3.84687 8.95304 4.48161L9.16092 4.54152" stroke="black" stroke-width="1.5" stroke-linecap="round"/>
</svg>
