<svg width="24" height="24" viewBox="0 0 24 24" fill="none" xmlns="http://www.w3.org/2000/svg">
<path d="M9.96271 5.71911L10.241 6.41556L10.241 6.41556L9.96271 5.71911ZM11.0504 4.58735L11.7543 4.84624L11.7543 4.84624L11.0504 4.58735ZM9.11472 9.25915L9.59887 8.68634L9.59887 8.68634L9.11472 9.25915ZM9.60971 5.86016L9.33141 5.16371L9.33141 5.16371L9.60971 5.86016ZM10.1247 10.9441L9.37607 10.9901L9.37607 10.9901L10.1247 10.9441ZM9.41074 9.50935L8.9266 10.0822L8.9266 10.0822L9.41074 9.50935ZM9.99166 10.1089L9.32019 10.443L9.99166 10.1089ZM13.1191 12.9129L13.5352 13.5369L13.5352 13.5369L13.1191 12.9129ZM10.1488 11.3373L10.8974 11.2914L10.8974 11.2914L10.1488 11.3373ZM14.9658 12.456L15.1661 11.7333L15.1661 11.7333L14.9658 12.456ZM13.4369 12.701L13.0208 12.0771L13.0208 12.0771L13.4369 12.701ZM17.6644 10.1328L18.39 9.94309L18.39 9.94309L17.6644 10.1328ZM15.3337 12.558L15.1333 13.2807L15.1333 13.2807L15.3337 12.558ZM17.7958 8.16544L17.1571 7.77234L17.1571 7.77234L17.7958 8.16544ZM17.5648 9.75163L16.8392 9.94131L16.8392 9.94131L17.5648 9.75163ZM16.4692 4.76076L16.4225 5.50931L16.4225 5.50931L16.4692 4.76076ZM17.999 7.83522L18.6377 8.22833L18.6377 8.22833L17.999 7.83522ZM14.7037 4.00181L15.2917 3.53627L15.2917 3.53627L14.7037 4.00181ZM16.0898 4.73708L16.1366 3.98854L16.1366 3.98854L16.0898 4.73708ZM14.4614 3.69574L13.8734 4.16128L13.8734 4.16128L14.4614 3.69574ZM11.1852 4.22083L10.4813 3.96194L10.4813 3.96194L11.1852 4.22083ZM7.88923 7.84613C8.22356 7.60159 8.29634 7.13232 8.0518 6.798C7.80726 6.46368 7.338 6.39089 7.00367 6.63543L7.88923 7.84613ZM4.24844 18L3.50784 18.1184C3.56226 18.4588 3.84172 18.7183 4.18523 18.7473C4.52874 18.7764 4.84781 18.5675 4.95863 18.2411L4.24844 18ZM10.5305 13.4386C10.923 13.3062 11.1339 12.8807 11.0015 12.4882C10.8691 12.0957 10.4436 11.8848 10.0511 12.0172L10.5305 13.4386ZM13.8734 4.16128L14.1157 4.46735L15.2917 3.53627L15.0494 3.23019L13.8734 4.16128ZM16.0431 5.48563L16.4225 5.50931L16.5159 4.01222L16.1366 3.98854L16.0431 5.48563ZM17.3603 7.44212L17.1571 7.77234L18.4345 8.55855L18.6377 8.22833L17.3603 7.44212ZM16.8392 9.94131L16.9388 10.3225L18.39 9.94309L18.2904 9.56194L16.8392 9.94131ZM15.534 11.8352L15.1661 11.7333L14.7654 13.1787L15.1333 13.2807L15.534 11.8352ZM13.0208 12.0771L12.703 12.2889L13.5352 13.5369L13.853 13.325L13.0208 12.0771ZM10.8974 11.2914L10.8732 10.8981L9.37607 10.9901L9.40023 11.3833L10.8974 11.2914ZM9.89489 8.93655L9.59887 8.68634L8.63058 9.83195L8.9266 10.0822L9.89489 8.93655ZM9.888 6.55662L10.241 6.41556L9.68441 5.02265L9.33141 5.16371L9.888 6.55662ZM11.7543 4.84624L11.8891 4.47972L10.4813 3.96194L10.3465 4.32846L11.7543 4.84624ZM10.241 6.41556C10.5675 6.28512 10.947 6.15011 11.227 5.85866L10.1455 4.81927C10.1536 4.81085 10.15 4.82124 10.0819 4.85519C10.0013 4.8954 9.88939 4.94075 9.68441 5.02265L10.241 6.41556ZM10.3465 4.32846C10.2685 4.54051 10.2242 4.65924 10.1846 4.74542C10.1502 4.82031 10.1382 4.82685 10.1455 4.81927L11.227 5.85866C11.5036 5.5709 11.6292 5.18619 11.7543 4.84624L10.3465 4.32846ZM9.59887 8.68634C9.00778 8.18674 8.63067 7.86544 8.40008 7.6042C8.29024 7.47974 8.24641 7.40409 8.22983 7.36539C8.22269 7.34872 8.22231 7.34277 8.22267 7.34522C8.22312 7.34837 8.22287 7.35152 8.2229 7.35132L6.73856 7.13516C6.64963 7.74583 6.94834 8.22615 7.27548 8.5968C7.59642 8.96042 8.07746 9.36445 8.63058 9.83195L9.59887 8.68634ZM9.33141 5.16371C8.67334 5.42666 8.09654 5.65486 7.68381 5.89794C7.25888 6.14821 6.82855 6.51718 6.73856 7.13516L8.2229 7.35132C8.22293 7.3511 8.22208 7.35556 8.21962 7.36084C8.2174 7.36558 8.21768 7.36281 8.22689 7.35202C8.24918 7.32588 8.30755 7.2714 8.44504 7.19043C8.7351 7.01959 9.18163 6.83888 9.888 6.55662L9.33141 5.16371ZM10.8732 10.8981C10.8506 10.5292 10.84 10.1301 10.6631 9.77476L9.32019 10.443C9.32027 10.4432 9.32208 10.4464 9.32521 10.4577C9.32882 10.4708 9.3343 10.4949 9.34031 10.5381C9.3537 10.6343 9.36212 10.763 9.37607 10.9901L10.8732 10.8981ZM8.9266 10.0822C9.09792 10.227 9.19324 10.3082 9.26021 10.3746C9.29002 10.4042 9.30506 10.422 9.31253 10.4317C9.3189 10.44 9.32014 10.4429 9.32019 10.443L10.6631 9.77476C10.485 9.41673 10.1721 9.17086 9.89489 8.93655L8.9266 10.0822ZM12.703 12.2889C12.0671 12.713 11.663 12.9799 11.3586 13.1218C11.0629 13.2598 11.0671 13.1812 11.1343 13.2169L10.4314 14.542C10.9926 14.8397 11.5508 14.6874 11.9926 14.4813C12.4258 14.2792 12.9429 13.9319 13.5352 13.5369L12.703 12.2889ZM9.40023 11.3833C9.44542 12.119 9.48255 12.7537 9.58106 13.2316C9.67996 13.7113 9.88187 14.2505 10.4314 14.542L11.1343 13.2169C11.1899 13.2463 11.1214 13.2744 11.0502 12.9287C10.9785 12.581 10.9456 12.0757 10.8974 11.2914L9.40023 11.3833ZM15.1661 11.7333C14.8282 11.6396 14.4402 11.5155 14.0413 11.5794L14.2787 13.0605C14.2632 13.063 14.2702 13.0563 14.3458 13.0707C14.4345 13.0876 14.5518 13.1195 14.7654 13.1787L15.1661 11.7333ZM13.853 13.325C14.0374 13.202 14.1389 13.135 14.218 13.0912C14.2854 13.0539 14.2941 13.058 14.2787 13.0605L14.0413 11.5794C13.6425 11.6433 13.3126 11.8825 13.0208 12.0771L13.853 13.325ZM16.9388 10.3225C17.1375 11.0827 17.2638 11.573 17.3041 11.9257C17.3441 12.2764 17.2705 12.2714 17.3138 12.2263L18.3953 13.2657C18.8262 12.8173 18.85 12.2423 18.7944 11.7555C18.739 11.2708 18.5764 10.6562 18.39 9.94309L16.9388 10.3225ZM15.1333 13.2807C15.8192 13.4709 16.4187 13.6393 16.8933 13.6958C17.3776 13.7535 17.9552 13.7237 18.3953 13.2657L17.3138 12.2263C17.3663 12.1717 17.3945 12.2449 17.0708 12.2063C16.7374 12.1666 16.2704 12.0394 15.534 11.8352L15.1333 13.2807ZM17.1571 7.77234C16.9667 8.08164 16.7462 8.41285 16.6886 8.80849L18.1729 9.02465C18.173 9.02449 18.1733 9.02135 18.1767 9.01143C18.1808 8.99982 18.1896 8.97813 18.2087 8.94072C18.2516 8.85669 18.3169 8.74965 18.4345 8.55855L17.1571 7.77234ZM18.2904 9.56194C18.2329 9.34181 18.2008 9.217 18.1835 9.12138C18.1757 9.07848 18.1734 9.05383 18.1728 9.0403C18.1722 9.02856 18.1729 9.02487 18.1729 9.02465L16.6886 8.80849C16.6314 9.20129 16.7457 9.58377 16.8392 9.94131L18.2904 9.56194ZM16.4225 5.50931C17.1815 5.55669 17.6621 5.58882 17.9908 5.66046C18.1467 5.69441 18.219 5.72789 18.2482 5.74569C18.2603 5.75303 18.2613 5.75552 18.2577 5.75164C18.2536 5.74734 18.2514 5.74331 18.2515 5.74346L19.5944 5.07523C19.3161 4.51595 18.7919 4.29981 18.3102 4.19484C17.8422 4.09288 17.2231 4.05637 16.5159 4.01222L16.4225 5.50931ZM18.6377 8.22833C19.0175 7.61129 19.3485 7.07716 19.54 6.63148C19.7352 6.1773 19.8693 5.6277 19.5944 5.07523L18.2515 5.74346C18.2515 5.7436 18.2503 5.74066 18.2498 5.73752C18.2493 5.73508 18.2508 5.74087 18.2493 5.75898C18.2456 5.80099 18.2275 5.88664 18.1619 6.03926C18.0242 6.35959 17.7661 6.78276 17.3603 7.44212L18.6377 8.22833ZM14.1157 4.46735C14.3404 4.75118 14.5798 5.07758 14.9325 5.26464L15.6354 3.93953C15.6448 3.94452 15.6315 3.94211 15.5754 3.88177C15.511 3.8123 15.4319 3.71336 15.2917 3.53627L14.1157 4.46735ZM16.1366 3.98854C15.9163 3.97479 15.7959 3.96668 15.7068 3.95368C15.6316 3.94271 15.6249 3.93399 15.6354 3.93953L14.9325 5.26464C15.2896 5.45408 15.6924 5.46373 16.0431 5.48563L16.1366 3.98854ZM15.0494 3.23019C14.5967 2.65836 14.2058 2.16142 13.8539 1.82987C13.5009 1.49722 13.0186 1.16762 12.3929 1.2679L12.6303 2.749C12.5494 2.76196 12.5736 2.68446 12.8252 2.92151C13.0779 3.15967 13.3894 3.55003 13.8734 4.16128L15.0494 3.23019ZM11.8891 4.47972C12.1583 3.74779 12.3326 3.27949 12.4985 2.97418C12.6636 2.67022 12.711 2.73606 12.6303 2.749L12.3929 1.2679C11.7674 1.36816 11.412 1.83184 11.1805 2.25806C10.9496 2.68293 10.7331 3.27716 10.4813 3.96194L11.8891 4.47972ZM7.00367 6.63543C4.39707 8.54203 2.54807 12.1145 3.50784 18.1184L4.98903 17.8816C4.09936 12.3163 5.82582 9.35541 7.88923 7.84613L7.00367 6.63543ZM4.95863 18.2411C5.67516 16.1304 7.90185 14.3251 10.5305 13.4386L10.0511 12.0172C7.16706 12.9899 4.45886 15.047 3.53824 17.7589L4.95863 18.2411Z" fill="black"/>
<path d="M10.2808 16C10.2808 16 10.9135 17.3908 11.6935 17.8692C12.4735 18.3475 14 18.2808 14 18.2808C14 18.2808 12.6092 18.9135 12.1308 19.6935C11.6525 20.4735 11.7192 22 11.7192 22C11.7192 22 11.0865 20.6092 10.3065 20.1308C9.52652 19.6525 8 19.7192 8 19.7192C8 19.7192 9.39082 19.0865 9.86916 18.3065C10.3475 17.5265 10.2808 16 10.2808 16Z" stroke="black" stroke-linejoin="round"/>
<path d="M18.4795 15C18.4795 15 18.0577 15.9272 17.5377 16.2461C17.0177 16.565 16 16.5205 16 16.5205C16 16.5205 16.9272 16.9423 17.2461 17.4623C17.565 17.9823 17.5205 19 17.5205 19C17.5205 19 17.9423 18.0728 18.4623 17.7539C18.9823 17.435 20 17.4795 20 17.4795C20 17.4795 19.0728 17.0577 18.7539 16.5377C18.435 16.0177 18.4795 15 18.4795 15Z" stroke="black" stroke-linejoin="round"/>
</svg>
