<svg width="24" height="24" viewBox="0 0 24 24" fill="none" xmlns="http://www.w3.org/2000/svg">
<path d="M9.95028 6.64888L9.68717 5.94655L9.68717 5.94655L9.95028 6.64888ZM11.4005 5.23419L12.0987 5.50809L12.0987 5.50809L11.4005 5.23419ZM8.81963 11.0739L8.35384 11.6618L8.35384 11.6618L8.81963 11.0739ZM9.47961 6.8252L9.74272 7.52754L9.74272 7.52754L9.47961 6.8252ZM10.1662 13.1801L9.41781 13.2291L9.41781 13.2291L10.1662 13.1801ZM9.21432 11.3867L9.68011 10.7989L9.68011 10.7989L9.21432 11.3867ZM9.98888 12.1361L10.6513 11.7845L9.98888 12.1361ZM14.1588 15.6412L14.5564 16.2771L14.5564 16.2771L14.1588 15.6412ZM10.1984 13.6717L10.9468 13.6226L10.9468 13.6226L10.1984 13.6717ZM16.621 15.07L16.8097 14.3441L16.8097 14.3441L16.621 15.07ZM14.5825 15.3763L14.1849 14.7404L14.1849 14.7404L14.5825 15.3763ZM20.2192 12.166L20.9417 11.9645L20.9417 11.9645L20.2192 12.166ZM17.1116 15.1975L16.9229 15.9234L16.9229 15.9234L17.1116 15.1975ZM20.3944 9.7068L19.7674 9.29521L19.7674 9.29521L20.3944 9.7068ZM20.0864 11.6895L19.3639 11.891L19.3639 11.891L20.0864 11.6895ZM18.6256 5.45095L18.6694 4.70224L18.6694 4.70224L18.6256 5.45095ZM20.6653 9.29403L21.2923 9.70562L21.2923 9.70562L20.6653 9.29403ZM16.2716 4.50226L15.6986 4.98616L15.6986 4.98616L16.2716 4.50226ZM18.1198 5.42135L18.076 6.17007L18.076 6.17007L18.1198 5.42135ZM15.9485 4.11967L16.5215 3.63577L16.5215 3.63577L15.9485 4.11967ZM11.5802 4.77604L10.882 4.50213L10.882 4.50213L11.5802 4.77604ZM7.01942 9.16952C7.36103 8.93526 7.44806 8.46843 7.21381 8.12682C6.97956 7.78521 6.51273 7.69818 6.17112 7.93243L7.01942 9.16952ZM2.33125 22L1.59192 22.1261C1.64915 22.4617 1.92528 22.7167 2.26439 22.747C2.60351 22.7774 2.92052 22.5755 3.03644 22.2554L2.33125 22ZM10.6138 16.125C11.0088 16.0001 11.2277 15.5787 11.1029 15.1838C10.978 14.7888 10.5566 14.5699 10.1617 14.6948L10.6138 16.125ZM15.3755 4.60357L15.6986 4.98616L16.8446 4.01836L16.5215 3.63577L15.3755 4.60357ZM18.076 6.17007L18.5818 6.19967L18.6694 4.70224L18.1636 4.67264L18.076 6.17007ZM20.0384 8.88243L19.7674 9.29521L21.0213 10.1184L21.2923 9.70562L20.0384 8.88243ZM19.3639 11.891L19.4968 12.3674L20.9417 11.9645L20.8088 11.4881L19.3639 11.891ZM17.3002 14.4716L16.8097 14.3441L16.4324 15.7959L16.9229 15.9234L17.3002 14.4716ZM14.1849 14.7404L13.7613 15.0052L14.5564 16.2771L14.9801 16.0123L14.1849 14.7404ZM10.9468 13.6226L10.9146 13.1311L9.41781 13.2291L9.45003 13.7207L10.9468 13.6226ZM9.68011 10.7989L9.28542 10.4861L8.35384 11.6618L8.74853 11.9745L9.68011 10.7989ZM9.74272 7.52754L10.2134 7.35122L9.68717 5.94655L9.21651 6.12287L9.74272 7.52754ZM12.0987 5.50809L12.2784 5.04994L10.882 4.50213L10.7023 4.96028L12.0987 5.50809ZM10.2134 7.35122C10.6679 7.18095 11.11 7.0313 11.4388 6.71057L10.3913 5.63684C10.3415 5.68547 10.2666 5.72949 9.68717 5.94655L10.2134 7.35122ZM10.7023 4.96028C10.4807 5.52506 10.4383 5.591 10.3913 5.63684L11.4388 6.71057C11.7704 6.38706 11.9254 5.94977 12.0987 5.50809L10.7023 4.96028ZM9.28542 10.4861C8.50294 9.86608 7.98411 9.45247 7.66311 9.11152C7.34386 8.77241 7.38167 8.67187 7.38209 8.66917L5.89986 8.43893C5.79053 9.14279 6.15486 9.69775 6.57097 10.1397C6.98534 10.5799 7.61071 11.0729 8.35384 11.6618L9.28542 10.4861ZM9.21651 6.12287C8.3305 6.45478 7.58512 6.73191 7.05671 7.02367C6.52567 7.31688 6.00933 7.7342 5.89986 8.43893L7.38209 8.66917C7.38237 8.66733 7.37573 8.56098 7.78175 8.3368C8.19041 8.11116 8.80947 7.87715 9.74272 7.52754L9.21651 6.12287ZM10.9146 13.1311C10.8835 12.6567 10.8685 12.1936 10.6513 11.7845L9.32641 12.4877C9.35779 12.5468 9.37814 12.6236 9.41781 13.2291L10.9146 13.1311ZM8.74853 11.9745C9.23406 12.3592 9.29307 12.4249 9.32641 12.4877L10.6513 11.7845C10.4362 11.379 10.0616 11.1012 9.68011 10.7989L8.74853 11.9745ZM13.7613 15.0052C12.9213 15.5303 12.3627 15.8772 11.9337 16.0648C11.5134 16.2486 11.4079 16.1927 11.3777 16.1777L10.7098 17.5208C11.3383 17.8333 11.9716 17.6853 12.5346 17.4391C13.0892 17.1967 13.7588 16.7757 14.5564 16.2771L13.7613 15.0052ZM9.45003 13.7207C9.51059 14.645 9.55968 15.4263 9.68831 16.0112C9.81969 16.6087 10.0765 17.2059 10.7098 17.5208L11.3777 16.1777C11.3525 16.1651 11.2488 16.1235 11.1533 15.6891C11.055 15.2422 11.0108 14.5984 10.9468 13.6226L9.45003 13.7207ZM16.8097 14.3441C16.3325 14.2201 15.8884 14.0902 15.4352 14.1583L15.6581 15.6416C15.7371 15.6297 15.8318 15.6398 16.4324 15.7959L16.8097 14.3441ZM14.9801 16.0123C15.4991 15.6878 15.5817 15.6531 15.6581 15.6416L15.4352 14.1583C14.9794 14.2268 14.5966 14.483 14.1849 14.7404L14.9801 16.0123ZM19.4968 12.3674C19.7605 13.3132 19.9326 13.9381 19.9878 14.3915C20.042 14.8362 19.9539 14.8909 19.949 14.8956L20.9964 15.9694C21.5083 15.47 21.5502 14.8122 21.4768 14.2101C21.4045 13.6166 21.1914 12.8603 20.9417 11.9645L19.4968 12.3674ZM16.9229 15.9234C17.8473 16.1636 18.621 16.3666 19.2261 16.4342C19.8341 16.5021 20.4919 16.4615 20.9964 15.9694L19.949 14.8956C19.9366 14.9077 19.862 14.9959 19.3927 14.9435C18.9205 14.8907 18.2721 14.7242 17.3002 14.4716L16.9229 15.9234ZM19.7674 9.29521C19.5071 9.69171 19.2376 10.0736 19.1666 10.5306L20.6488 10.7608C20.6582 10.7002 20.6864 10.6287 21.0213 10.1184L19.7674 9.29521ZM20.8088 11.4881C20.6446 10.8992 20.6393 10.8218 20.6488 10.7608L19.1666 10.5306C19.0956 10.9873 19.2363 11.4332 19.3639 11.891L20.8088 11.4881ZM18.5818 6.19967C19.5837 6.25831 20.2517 6.29929 20.7172 6.39439C21.1795 6.48882 21.2256 6.59594 21.2348 6.6133L22.5597 5.91007C22.2297 5.28832 21.6174 5.04728 21.0174 4.92473C20.4207 4.80284 19.6224 4.75801 18.6694 4.70224L18.5818 6.19967ZM21.2923 9.70562C21.8017 8.92965 22.2341 8.27481 22.4831 7.73172C22.736 7.17992 22.8948 6.54135 22.5597 5.91007L21.2348 6.6133C21.2389 6.62112 21.3055 6.70098 21.1195 7.1067C20.9295 7.52113 20.5764 8.06291 20.0384 8.88243L21.2923 9.70562ZM15.6986 4.98616C16.0127 5.35813 16.2989 5.71908 16.7113 5.92415L17.3792 4.58106C17.309 4.54617 17.2403 4.48688 16.8446 4.01836L15.6986 4.98616ZM18.1636 4.67264C17.5447 4.63641 17.4512 4.61689 17.3792 4.58106L16.7113 5.92415C17.1217 6.12828 17.5838 6.14127 18.076 6.17007L18.1636 4.67264ZM16.5215 3.63577C15.9132 2.91537 15.4035 2.30881 14.9493 1.90755C14.4887 1.50061 13.9311 1.16464 13.2373 1.26889L13.4602 2.75223C13.4929 2.74733 13.6107 2.72649 13.9562 3.03168C14.308 3.34255 14.735 3.84513 15.3755 4.60357L16.5215 3.63577ZM12.2784 5.04995C12.6353 4.14038 12.8726 3.54129 13.1015 3.14622C13.324 2.76229 13.4342 2.75614 13.4602 2.75223L13.2373 1.26889C12.5369 1.37413 12.1102 1.86529 11.8037 2.39408C11.5037 2.91174 11.2199 3.64082 10.882 4.50213L12.2784 5.04995ZM6.17112 7.93243C4.49941 9.07878 3.02192 10.7519 2.13211 13.0987C1.24403 15.4408 0.958102 18.409 1.59192 22.1261L3.07058 21.8739C2.47143 18.3602 2.76084 15.6714 3.53467 13.6305C4.30678 11.5941 5.57778 10.1581 7.01942 9.16952L6.17112 7.93243ZM3.03644 22.2554C4.01616 19.5497 7.05194 17.2511 10.6138 16.125L10.1617 14.6948C6.37328 15.8925 2.82919 18.4221 1.62606 21.7446L3.03644 22.2554Z" fill="black"/>
</svg>
