<svg width="24" height="24" viewBox="0 0 24 24" fill="none" xmlns="http://www.w3.org/2000/svg">
<path d="M12 8V12L14.5 14.5" stroke="black" stroke-width="1.5" stroke-linecap="round" stroke-linejoin="round"/>
<path d="M5.6042 5.60414L5.07387 5.07381L5.07387 5.07381L5.6042 5.60414ZM4.33782 6.87052L3.58783 6.87429C3.5899 7.28556 3.92279 7.61844 4.33405 7.62051L4.33782 6.87052ZM6.8796 7.6333C7.29381 7.63539 7.63128 7.30129 7.63336 6.88708C7.63545 6.47287 7.30135 6.1354 6.88714 6.13332L6.8796 7.6333ZM5.07502 4.3212C5.07294 3.90699 4.73547 3.5729 4.32126 3.57498C3.90705 3.57706 3.57296 3.91453 3.57504 4.32874L5.07502 4.3212ZM3.82667 10.7849C3.88292 10.3745 3.59584 9.99627 3.18547 9.94002C2.77509 9.88377 2.39681 10.1708 2.34056 10.5812L3.82667 10.7849ZM18.8623 5.13777C15.0421 1.31758 8.86879 1.27889 5.07387 5.07381L6.13453 6.13447C9.33364 2.93536 14.5572 2.95395 17.8016 6.19843L18.8623 5.13777ZM5.13783 18.8622C8.95802 22.6824 15.1313 22.7211 18.9262 18.9262L17.8656 17.8655C14.6665 21.0646 9.44297 21.0461 6.19849 17.8016L5.13783 18.8622ZM18.9262 18.9262C22.7212 15.1313 22.6825 8.95796 18.8623 5.13777L17.8016 6.19843C21.0461 9.44291 21.0647 14.6664 17.8656 17.8655L18.9262 18.9262ZM5.07387 5.07381L3.80749 6.34019L4.86815 7.40085L6.13453 6.13447L5.07387 5.07381ZM4.33405 7.62051L6.8796 7.6333L6.88714 6.13332L4.34159 6.12053L4.33405 7.62051ZM5.08781 6.86675L5.07502 4.3212L3.57504 4.32874L3.58783 6.87429L5.08781 6.86675ZM2.34056 10.5812C1.93913 13.5099 2.87398 16.5984 5.13783 18.8622L6.19849 17.8016C4.27792 15.881 3.48669 13.2652 3.82667 10.7849L2.34056 10.5812Z" fill="black"/>
</svg>
