<svg width="24" height="24" viewBox="0 0 24 24" fill="none" xmlns="http://www.w3.org/2000/svg">
<path d="M2 11C2 8.17157 2 6.75736 2.87868 5.87868C3.75736 5 5.17157 5 8 5H16C18.8284 5 20.2426 5 21.1213 5.87868C22 6.75736 22 8.17157 22 11C22 14.7712 22 16.6569 20.8284 17.8284C19.6569 19 17.7712 19 14 19H10C6.22876 19 4.34315 19 3.17157 17.8284C2 16.6569 2 14.7712 2 11Z" stroke="black" stroke-width="1.5"/>
<path opacity="0.5" d="M18 18.5C18 17.0955 18 16.3933 17.6629 15.8889C17.517 15.6705 17.3295 15.483 17.1111 15.3371C16.6067 15 15.9045 15 14.5 15H9.5C8.09554 15 7.39331 15 6.88886 15.3371C6.67048 15.483 6.48298 15.6705 6.33706 15.8889C6 16.3933 6 17.0955 6 18.5" stroke="black" stroke-width="1.5" stroke-linecap="round"/>
<path d="M6 11.5H18" stroke="black" stroke-width="1.5" stroke-linecap="round"/>
<path d="M6 9H18" stroke="black" stroke-width="1.5" stroke-linecap="round"/>
</svg>
