<svg width="24" height="24" viewBox="0 0 24 24" fill="none" xmlns="http://www.w3.org/2000/svg">
<path d="M19 15V11.9375C19 9.76288 17.2371 8 15.0625 8H8.9375C6.76288 8 5 9.76288 5 11.9375V15C5 18.866 8.13401 22 12 22C15.866 22 19 18.866 19 15Z" stroke="black" stroke-width="1.5"/>
<path d="M16.5 8.5V7.5C16.5 5.01472 14.4853 3 12 3C9.51472 3 7.5 5.01472 7.5 7.5V8.5" stroke="black" stroke-width="1.5"/>
<path d="M19 14H22" stroke="black" stroke-width="1.5" stroke-linecap="round"/>
<path d="M5 14H2" stroke="black" stroke-width="1.5" stroke-linecap="round"/>
<path d="M14.5 3.5L17 2" stroke="black" stroke-width="1.5" stroke-linecap="round"/>
<path d="M9.5 3.5L7 2" stroke="black" stroke-width="1.5" stroke-linecap="round"/>
<path d="M20.5 20.0002L18.5 19.2002" stroke="black" stroke-width="1.5" stroke-linecap="round"/>
<path d="M20.5 7.9998L18.5 8.7998" stroke="black" stroke-width="1.5" stroke-linecap="round"/>
<path d="M3.5 20.0002L5.5 19.2002" stroke="black" stroke-width="1.5" stroke-linecap="round"/>
<path d="M3.5 7.9998L5.5 8.7998" stroke="black" stroke-width="1.5" stroke-linecap="round"/>
<path d="M12 21.5V15" stroke="black" stroke-width="1.5" stroke-linecap="round"/>
</svg>
