<svg width="24" height="24" viewBox="0 0 24 24" fill="none" xmlns="http://www.w3.org/2000/svg">
<path d="M2 12C2 7.28595 2 4.92893 3.46447 3.46447C4.92893 2 7.28595 2 12 2C16.714 2 19.0711 2 20.5355 3.46447C22 4.92893 22 7.28595 22 12C22 16.714 22 19.0711 20.5355 20.5355C19.0711 22 16.714 22 12 22C7.28595 22 4.92893 22 3.46447 20.5355C2 19.0711 2 16.714 2 12Z" stroke="black" stroke-width="1.5"/>
<path d="M7 6C7 6.55228 6.55228 7 6 7C5.44772 7 5 6.55228 5 6C5 5.44772 5.44772 5 6 5C6.55228 5 7 5.44772 7 6Z" fill="black"/>
<path d="M10 6C10 6.55228 9.55228 7 9 7C8.44772 7 8 6.55228 8 6C8 5.44772 8.44772 5 9 5C9.55228 5 10 5.44772 10 6Z" fill="black"/>
<path d="M13 6C13 6.55228 12.5523 7 12 7C11.4477 7 11 6.55228 11 6C11 5.44772 11.4477 5 12 5C12.5523 5 13 5.44772 13 6Z" fill="black"/>
<path opacity="0.5" d="M2 8.75C1.58579 8.75 1.25 9.08579 1.25 9.5C1.25 9.91421 1.58579 10.25 2 10.25V8.75ZM22 10.25C22.4142 10.25 22.75 9.91421 22.75 9.5C22.75 9.08579 22.4142 8.75 22 8.75V10.25ZM8.25 21C8.25 21.4142 8.58579 21.75 9 21.75C9.41421 21.75 9.75 21.4142 9.75 21L8.25 21ZM9.75 10C9.75 9.58579 9.41421 9.25 9 9.25C8.58579 9.25 8.25 9.58579 8.25 10L9.75 10ZM2 10.25H22V8.75H2V10.25ZM9.75 21L9.75 10L8.25 10L8.25 21L9.75 21Z" fill="black"/>
</svg>
