<svg width="24" height="24" viewBox="0 0 24 24" fill="none" xmlns="http://www.w3.org/2000/svg">
<path fill-rule="evenodd" clip-rule="evenodd" d="M6.125 2.75C5.08947 2.75 4.25 3.58947 4.25 4.625V5.94143C4.25 6.89168 5.02034 7.66202 5.97059 7.66202C6.83963 7.66202 7.54412 8.36651 7.54412 9.23555V10.25H9.75V6.375C9.75 4.37297 8.12704 2.75 6.125 2.75ZM11.25 10.25V6.375C11.25 3.54454 8.95546 1.25 6.125 1.25C4.26104 1.25 2.75 2.76104 2.75 4.625V5.94143C2.75 7.72011 4.19191 9.16202 5.97059 9.16202C6.0112 9.16202 6.04412 9.19494 6.04412 9.23555V10.25L4.79646 10.25C4.43728 10.25 4.10769 10.2499 3.83606 10.2806C3.54005 10.3139 3.22165 10.3914 2.93467 10.6116C2.81334 10.7047 2.70474 10.8133 2.61164 10.9347C2.39143 11.2216 2.31393 11.54 2.28056 11.8361C2.24993 12.1077 2.24997 12.4373 2.25 12.7965L2.25 13.0452C2.25 14.8818 2.24999 16.3214 2.37373 17.4635C2.50001 18.6291 2.76233 19.5734 3.34816 20.3798C3.70281 20.8679 4.13209 21.2972 4.62024 21.6518C5.42656 22.2377 6.37094 22.5 7.53648 22.6263C8.67861 22.75 10.1182 22.75 11.9547 22.75H12.0453C13.8818 22.75 15.3214 22.75 16.4635 22.6263C17.6291 22.5 18.5734 22.2377 19.3798 21.6518C19.8679 21.2972 20.2972 20.8679 20.6519 20.3798C21.2377 19.5734 21.5 18.6291 21.6263 17.4635C21.75 16.3214 21.75 14.8818 21.75 13.0453L21.75 12.7964C21.75 12.4373 21.7501 12.1077 21.7195 11.8361C21.6861 11.54 21.6086 11.2216 21.3884 10.9347C21.2953 10.8133 21.1867 10.7047 21.0653 10.6116C20.7784 10.3914 20.46 10.3139 20.1639 10.2806C19.8923 10.2499 19.5627 10.25 19.2036 10.25L17.9559 10.25V9.23555C17.9559 9.19494 17.9888 9.16202 18.0294 9.16202C19.8081 9.16202 21.25 7.72011 21.25 5.94143V4.625C21.25 2.76104 19.739 1.25 17.875 1.25C15.0445 1.25 12.75 3.54454 12.75 6.375V10.25H11.25ZM8.99991 11.75C9.22796 12.0536 9.59105 12.25 10 12.25H14C14.409 12.25 14.772 12.0536 15.0001 11.75H8.99991ZM16.6465 11.75C16.32 12.9043 15.2588 13.75 14 13.75H10C8.74123 13.75 7.67999 12.9043 7.35352 11.75H4.83334C4.42497 11.75 4.18146 11.7511 4.0041 11.7711C3.90056 11.7828 3.85832 11.7975 3.84591 11.8031C3.82997 11.8156 3.81561 11.83 3.80314 11.8459C3.79753 11.8583 3.78279 11.9006 3.77111 12.0041C3.75112 12.1815 3.75 12.425 3.75 12.8333V13C3.75 14.8916 3.75103 16.25 3.86501 17.302C3.97746 18.3399 4.1926 18.9901 4.56168 19.4981C4.82382 19.8589 5.14112 20.1762 5.50192 20.4383C6.00992 20.8074 6.66014 21.0225 7.69805 21.135C8.75 21.249 10.1084 21.25 12 21.25C13.8916 21.25 15.25 21.249 16.302 21.135C17.3399 21.0225 17.9901 20.8074 18.4981 20.4383C18.8589 20.1762 19.1762 19.8589 19.4383 19.4981C19.8074 18.9901 20.0226 18.3399 20.135 17.302C20.249 16.25 20.25 14.8916 20.25 13V12.8333C20.25 12.425 20.2489 12.1815 20.2289 12.0041C20.2172 11.9005 20.2025 11.8583 20.1969 11.8459C20.1844 11.83 20.17 11.8156 20.1541 11.8031C20.1417 11.7975 20.0995 11.7828 19.9959 11.7711C19.8186 11.7511 19.575 11.75 19.1667 11.75H16.6465ZM16.4559 10.25H14.25V6.375C14.25 4.37297 15.873 2.75 17.875 2.75C18.9105 2.75 19.75 3.58947 19.75 4.625V5.94143C19.75 6.89168 18.9797 7.66202 18.0294 7.66202C17.1604 7.66202 16.4559 8.36651 16.4559 9.23555V10.25Z" fill="black"/>
</svg>
