<svg width="24" height="24" viewBox="0 0 24 24" fill="none" xmlns="http://www.w3.org/2000/svg">
<path fill-rule="evenodd" clip-rule="evenodd" d="M12.4762 2.75C9.7261 2.75 7.5119 4.95083 7.5119 7.64706C7.5119 8.10922 7.5766 8.55551 7.69729 8.97813C8.19449 9.12162 8.65991 9.3389 9.08045 9.61709C9.42592 9.84561 9.52072 10.3109 9.29219 10.6564C9.06366 11.0019 8.59835 11.0967 8.25288 10.8681C7.87207 10.6162 7.43917 10.4355 6.9733 10.3451C6.75147 10.3021 6.52165 10.2794 6.28571 10.2794C4.3246 10.2794 2.75 11.8482 2.75 13.7647C2.75 15.6812 4.3246 17.25 6.28571 17.25C6.69993 17.25 7.03571 17.5858 7.03571 18C7.03571 18.4142 6.69993 18.75 6.28571 18.75C3.51296 18.75 1.25 16.5264 1.25 13.7647C1.25 11.0605 3.41987 8.87207 6.11351 8.78228C6.04673 8.41355 6.0119 8.03413 6.0119 7.64706C6.0119 4.10572 8.91446 1.25 12.4762 1.25C15.6343 1.25 18.2724 3.49369 18.8314 6.47127C21.1313 7.44751 22.75 9.70929 22.75 12.3529C22.75 15.4269 20.5623 17.9843 17.6568 18.6057C17.2518 18.6923 16.8532 18.4341 16.7666 18.0291C16.68 17.624 16.9381 17.2254 17.3432 17.1388C19.5829 16.6598 21.25 14.693 21.25 12.3529C21.25 10.2162 19.8607 8.39087 17.9124 7.72463C17.4038 7.55072 16.8568 7.45588 16.2857 7.45588C15.7031 7.45588 15.1455 7.55458 14.6283 7.73526C14.2372 7.87185 13.8095 7.66557 13.6729 7.27453C13.5363 6.88348 13.7426 6.45575 14.1336 6.31916C14.8079 6.08364 15.5326 5.95588 16.2857 5.95588C16.5812 5.95588 16.8723 5.97555 17.1577 6.01367C16.477 4.11631 14.6422 2.75 12.4762 2.75ZM11.4506 13.25H12.5494C13.2142 13.25 13.7871 13.2499 14.2458 13.3116C14.7375 13.3777 15.2087 13.5268 15.591 13.909C15.9732 14.2913 16.1223 14.7625 16.1884 15.2542C16.2501 15.7129 16.25 16.2858 16.25 16.9506V19.0494C16.25 19.7142 16.2501 20.2871 16.1884 20.7458C16.1223 21.2375 15.9732 21.7087 15.591 22.091C15.2087 22.4732 14.7375 22.6223 14.2458 22.6884C13.7871 22.7501 13.2142 22.75 12.5494 22.75H11.4506C10.7858 22.75 10.2129 22.7501 9.75416 22.6884C9.26252 22.6223 8.79126 22.4732 8.40901 22.091C8.02676 21.7087 7.8777 21.2375 7.81161 20.7458C7.74993 20.2871 7.74996 19.7142 7.75 19.0494V16.9506C7.74996 16.2858 7.74993 15.7129 7.81161 15.2542C7.8777 14.7625 8.02676 14.2913 8.40901 13.909C8.79126 13.5268 9.26252 13.3777 9.75416 13.3116C10.2129 13.2499 10.7858 13.25 11.4506 13.25ZM9.95403 14.7982C9.62872 14.842 9.52676 14.9126 9.46967 14.9697C9.41258 15.0268 9.34197 15.1287 9.29823 15.454C9.25159 15.8009 9.25 16.2717 9.25 17V19C9.25 19.7283 9.25159 20.1991 9.29823 20.546C9.34197 20.8713 9.41258 20.9732 9.46967 21.0303C9.52676 21.0874 9.62872 21.158 9.95403 21.2018C10.3009 21.2484 10.7717 21.25 11.5 21.25H12.5C13.2283 21.25 13.6991 21.2484 14.046 21.2018C14.3713 21.158 14.4732 21.0874 14.5303 21.0303C14.5874 20.9732 14.658 20.8713 14.7018 20.546C14.7484 20.1991 14.75 19.7283 14.75 19V17C14.75 16.2717 14.7484 15.8009 14.7018 15.454C14.658 15.1287 14.5874 15.0268 14.5303 14.9697C14.4732 14.9126 14.3713 14.842 14.046 14.7982C13.6991 14.7516 13.2283 14.75 12.5 14.75H11.5C10.7717 14.75 10.3009 14.7516 9.95403 14.7982ZM10.25 18C10.25 17.5858 10.5858 17.25 11 17.25H13C13.4142 17.25 13.75 17.5858 13.75 18C13.75 18.4142 13.4142 18.75 13 18.75H11C10.5858 18.75 10.25 18.4142 10.25 18Z" fill="black"/>
</svg>
