<svg width="24" height="24" viewBox="0 0 24 24" fill="none" xmlns="http://www.w3.org/2000/svg">
<path fill-rule="evenodd" clip-rule="evenodd" d="M15.8923 3.14393C15.4676 3.47324 14.9659 3.98075 14.2276 4.73088L13.1673 5.80838C13.8946 6.37901 14.7108 7.1953 15.7187 8.20314L15.797 8.28145C16.8486 9.33308 17.6917 10.1761 18.2647 10.9272C18.2698 10.9338 18.2748 10.9404 18.2798 10.9471L19.2956 9.91489C20.0337 9.16493 20.5333 8.65492 20.8578 8.22287C21.1688 7.8086 21.25 7.55327 21.25 7.32289C21.25 7.09251 21.1688 6.83718 20.8578 6.42291C20.5333 5.99085 20.0337 5.48084 19.2956 4.73088C18.5574 3.98075 18.0557 3.47324 17.6309 3.14393C17.223 2.82765 16.9774 2.75 16.7616 2.75C16.5459 2.75 16.3003 2.82765 15.8923 3.14393ZM19.0481 12.305L20.4015 10.9296C21.0935 10.2266 21.6653 9.64549 22.0573 9.12352C22.4695 8.57454 22.75 8.00577 22.75 7.32289C22.75 6.64 22.4695 6.07123 22.0573 5.52225C21.6653 5.00028 21.0935 4.41921 20.4015 3.71614L20.3276 3.64101C19.636 2.9382 19.0641 2.357 18.55 1.95847C18.01 1.53982 17.4446 1.25 16.7616 1.25C16.0786 1.25 15.5132 1.53982 14.9732 1.95848C14.4592 2.357 13.8873 2.9382 13.1957 3.641L11.8487 5.00972C11.4614 4.85425 11.0589 4.76794 10.6247 4.76794C9.72069 4.76794 8.95413 5.142 8.17645 5.73535C7.42538 6.3084 6.58232 7.15148 5.53068 8.20315L4.68528 9.04855C3.6336 10.1002 2.79052 10.9433 2.21746 11.6943C1.62412 12.472 1.25006 13.2386 1.25006 14.1426C1.25006 15.0465 1.62412 15.8131 2.21746 16.5908C2.79052 17.3419 3.63361 18.1849 4.68529 19.2366L4.76355 19.3148C5.81519 20.3665 6.65825 21.2096 7.40932 21.7826C8.187 22.376 8.95355 22.75 9.85754 22.75C10.7615 22.75 11.5281 22.376 12.3058 21.7826C13.0568 21.2096 13.8999 20.3665 14.9515 19.3148L15.797 18.4694C16.8486 17.4178 17.6917 16.5747 18.2647 15.8236C18.8581 15.046 19.2321 14.2794 19.2321 13.3754C19.2321 12.9983 19.167 12.645 19.0481 12.305ZM11.5436 6.52052C11.201 6.33823 10.9116 6.26794 10.6247 6.26794C10.1805 6.26794 9.73057 6.43633 9.08633 6.92788C8.42477 7.43263 7.65208 8.20306 6.5522 9.30295L5.78506 10.0701C4.68518 11.17 3.91474 11.9427 3.41 12.6042C2.91845 13.2485 2.75006 13.6984 2.75006 14.1426C2.75006 14.5867 2.91845 15.0367 3.41 15.6809C3.91474 16.3425 4.68518 17.1151 5.78506 18.215C6.88495 19.3149 7.65764 20.0853 8.31919 20.5901C8.96344 21.0816 9.41339 21.25 9.85754 21.25C10.3017 21.25 10.7516 21.0816 11.3959 20.5901C12.0574 20.0853 12.8301 19.3149 13.93 18.215L14.6971 17.4479C15.797 16.348 16.5675 15.5753 17.0722 14.9138C17.5638 14.2695 17.7321 13.8196 17.7321 13.3754C17.7321 12.9313 17.5638 12.4813 17.0722 11.8371C16.5675 11.1755 15.797 10.4028 14.6971 9.30295C13.5973 8.20306 12.8246 7.43263 12.163 6.92788C12.0041 6.80666 11.8571 6.7051 11.719 6.62086C11.6573 6.59597 11.5982 6.56253 11.5436 6.52052ZM17.1266 4.75216C17.4194 5.04505 17.4194 5.51992 17.1266 5.81282L16.4194 6.51992C16.1266 6.81282 15.6517 6.81282 15.3588 6.51992C15.0659 6.22703 15.0659 5.75216 15.3588 5.45926L16.0659 4.75216C16.3588 4.45926 16.8337 4.45926 17.1266 4.75216ZM19.2479 6.87348C19.5408 7.16637 19.5408 7.64124 19.2479 7.93414L18.5408 8.64124C18.2479 8.93414 17.773 8.93414 17.4801 8.64124C17.1872 8.34835 17.1872 7.87348 17.4801 7.58058L18.1872 6.87348C18.4801 6.58058 18.955 6.58058 19.2479 6.87348ZM4.7244 13.6122C5.0173 13.3193 5.49217 13.3193 5.78506 13.6122L10.3879 18.215C10.6808 18.5079 10.6808 18.9828 10.3879 19.2757C10.095 19.5686 9.6201 19.5686 9.32721 19.2757L4.7244 14.6729C4.43151 14.38 4.43151 13.9051 4.7244 13.6122Z" fill="black"/>
</svg>
