<svg width="24" height="24" viewBox="0 0 24 24" fill="none" xmlns="http://www.w3.org/2000/svg">
<g clip-path="url(#clip0_1648_7383)">
<path d="M16 10.5C16 11.0523 15.5523 11.5 15 11.5C14.4477 11.5 14 11.0523 14 10.5C14 9.94772 14.4477 9.5 15 9.5C15.5523 9.5 16 9.94772 16 10.5Z" fill="black"/>
<path d="M18 13.5C18 14.0523 17.5523 14.5 17 14.5C16.4477 14.5 16 14.0523 16 13.5C16 12.9477 16.4477 12.5 17 12.5C17.5523 12.5 18 12.9477 18 13.5Z" fill="black"/>
<path fill-rule="evenodd" clip-rule="evenodd" d="M15 -0.75C15.4142 -0.75 15.75 -0.414214 15.75 0V1C15.75 1.9665 14.9665 2.75 14 2.75H13C12.8619 2.75 12.75 2.86193 12.75 3V3.25H14.0336C15.4053 3.25 16.4807 3.24999 17.3451 3.32061C18.2252 3.39252 18.9523 3.54138 19.6104 3.87671C20.6924 4.42798 21.572 5.30762 22.1233 6.38955C22.4586 7.04768 22.6075 7.77479 22.6794 8.65494C22.75 9.51928 22.75 10.5947 22.75 11.9664V12.0336C22.75 13.4053 22.75 14.4807 22.6794 15.3451C22.6075 16.2252 22.4586 16.9523 22.1233 17.6104C21.572 18.6924 20.6924 19.572 19.6104 20.1233C18.9523 20.4586 18.2252 20.6075 17.3451 20.6794C16.4807 20.75 15.4053 20.75 14.0336 20.75H9.96642C8.59471 20.75 7.51928 20.75 6.65494 20.6794C5.77479 20.6075 5.04769 20.4586 4.38955 20.1233C3.30762 19.572 2.42798 18.6924 1.87671 17.6104C1.54138 16.9523 1.39252 16.2252 1.32061 15.3451C1.24999 14.4807 1.25 13.4053 1.25 12.0336V11.9664C1.25 10.5947 1.24999 9.51929 1.32061 8.65494C1.39252 7.77479 1.54138 7.04768 1.87671 6.38955C2.42798 5.30762 3.30762 4.42798 4.38955 3.87671C5.04769 3.54138 5.77479 3.39252 6.65494 3.32061C7.51929 3.24999 8.59472 3.25 9.96645 3.25H11.25V3C11.25 2.0335 12.0335 1.25 13 1.25H14C14.1381 1.25 14.25 1.13807 14.25 1V0C14.25 -0.414214 14.5858 -0.75 15 -0.75ZM10 4.75C8.58749 4.75 7.57322 4.75058 6.77708 4.81563C5.9897 4.87996 5.48197 5.00359 5.07054 5.21322C4.27085 5.62068 3.62068 6.27085 3.21322 7.07054C3.00359 7.48197 2.87996 7.9897 2.81563 8.77708C2.75058 9.57322 2.75 10.5875 2.75 12C2.75 13.4125 2.75058 14.4268 2.81563 15.2229C2.87996 16.0103 3.00359 16.518 3.21322 16.9295C3.62068 17.7291 4.27085 18.3793 5.07054 18.7868C5.48197 18.9964 5.9897 19.12 6.77708 19.1844C7.57322 19.2494 8.58749 19.25 10 19.25H14C15.4125 19.25 16.4268 19.2494 17.2229 19.1844C18.0103 19.12 18.518 18.9964 18.9295 18.7868C19.7291 18.3793 20.3793 17.7291 20.7868 16.9295C20.9964 16.518 21.12 16.0103 21.1844 15.2229C21.2494 14.4268 21.25 13.4125 21.25 12C21.25 10.5875 21.2494 9.57322 21.1844 8.77708C21.12 7.9897 20.9964 7.48197 20.7868 7.07054C20.3793 6.27085 19.7291 5.62068 18.9295 5.21322C18.518 5.00359 18.0103 4.87996 17.2229 4.81563C16.4268 4.75058 15.4125 4.75 14 4.75H10ZM8 9.25C8.41421 9.25 8.75 9.58579 8.75 10V11.25H10C10.4142 11.25 10.75 11.5858 10.75 12C10.75 12.4142 10.4142 12.75 10 12.75H8.75V14C8.75 14.4142 8.41421 14.75 8 14.75C7.58579 14.75 7.25 14.4142 7.25 14V12.75H6C5.58579 12.75 5.25 12.4142 5.25 12C5.25 11.5858 5.58579 11.25 6 11.25H7.25V10C7.25 9.58579 7.58579 9.25 8 9.25Z" fill="black"/>
</g>
<defs>
<clipPath id="clip0_1648_7383">
<rect width="24" height="24" fill="white"/>
</clipPath>
</defs>
</svg>
