<svg width="24" height="24" viewBox="0 0 24 24" fill="none" xmlns="http://www.w3.org/2000/svg">
<path fill-rule="evenodd" clip-rule="evenodd" d="M15 2.25C15.4142 2.25 15.75 2.58579 15.75 3V4C15.75 4.9665 14.9665 5.75 14 5.75H13C12.8619 5.75 12.75 5.86193 12.75 6V6.25H13.2828C14.5962 6.24999 15.6371 6.24998 16.477 6.33283C17.3394 6.41791 18.0598 6.59536 18.7112 6.99393C19.0194 7.1825 19.3059 7.40357 19.5654 7.65336C20.1156 8.183 20.4602 8.83075 20.7436 9.63414C21.0186 10.4138 21.2561 11.4025 21.5545 12.6449L22.649 17.2015C23.132 19.2123 21.8437 21.1948 19.8219 21.6539C18.1199 22.0404 16.3544 21.2355 15.5734 19.6838L15.4454 19.4294C15.0058 18.5559 14.0854 17.9899 13.0636 17.9899H10.9364C9.91466 17.9899 8.99424 18.5559 8.55458 19.4294L8.42658 19.6838C7.64564 21.2355 5.88009 22.0404 4.17806 21.6539C2.1563 21.1948 0.86802 19.2123 1.35104 17.2015L2.44552 12.645C2.74395 11.4026 2.98145 10.4138 3.25644 9.63413C3.53981 8.83075 3.88437 8.183 4.43463 7.65336C4.69414 7.40357 4.98061 7.1825 5.28881 6.99393C5.94021 6.59536 6.66061 6.41791 7.52305 6.33283C8.36287 6.24998 9.40382 6.24999 10.7172 6.25H11.25V6C11.25 5.0335 12.0335 4.25 13 4.25H14C14.1381 4.25 14.25 4.13807 14.25 4V3C14.25 2.58579 14.5858 2.25 15 2.25ZM10.7569 7.75C9.39498 7.75 8.42794 7.75085 7.6703 7.82559C6.92684 7.89893 6.45593 8.03831 6.07168 8.27342C5.85568 8.40558 5.65559 8.56011 5.47486 8.73407C5.15535 9.04161 4.91172 9.45069 4.67103 10.1331C4.42492 10.8308 4.20465 11.7438 3.89439 13.0355L2.80955 17.5518C2.52987 18.7162 3.26901 19.9093 4.51023 20.1911C5.55984 20.4295 6.62477 19.9273 7.0867 19.0094L7.2147 18.7551C7.9162 17.3613 9.36377 16.4899 10.9364 16.4899H13.0636C14.6362 16.4899 16.0838 17.3613 16.7853 18.7551L16.9133 19.0094C17.3752 19.9273 18.4402 20.4295 19.4898 20.1911C20.731 19.9093 21.4701 18.7162 21.1905 17.5518L20.1056 13.0355C19.7954 11.7439 19.5751 10.8308 19.329 10.1331C19.0883 9.45069 18.8447 9.04161 18.5252 8.73407C18.3444 8.56011 18.1443 8.40558 17.9283 8.27342C17.5441 8.03831 17.0732 7.89893 16.3297 7.82559C15.5721 7.75085 14.605 7.75 13.2432 7.75H10.7569ZM8.50001 10.25C8.91422 10.25 9.25 10.5858 9.25 11V11.75H10C10.4142 11.75 10.75 12.0858 10.75 12.5C10.75 12.9142 10.4142 13.25 10 13.25H9.25V14C9.25 14.4142 8.91422 14.75 8.50001 14.75C8.08579 14.75 7.75001 14.4142 7.75001 14V13.25H7.00001C6.58579 13.25 6.25001 12.9142 6.25001 12.5C6.25001 12.0858 6.58579 11.75 7.00001 11.75H7.75001V11C7.75001 10.5858 8.08579 10.25 8.50001 10.25Z" fill="black"/>
<path d="M16 11C16 11.5523 15.5523 12 15 12C14.4477 12 14 11.5523 14 11C14 10.4477 14.4477 10 15 10C15.5523 10 16 10.4477 16 11Z" fill="black"/>
<path d="M18 14C18 14.5523 17.5523 15 17 15C16.4477 15 16 14.5523 16 14C16 13.4477 16.4477 13 17 13C17.5523 13 18 13.4477 18 14Z" fill="black"/>
</svg>
