<svg width="24" height="24" viewBox="0 0 24 24" fill="none" xmlns="http://www.w3.org/2000/svg">
<path fill-rule="evenodd" clip-rule="evenodd" d="M8.30091 3.25H15.699C16.5975 3.24997 17.3467 3.24995 17.9415 3.32991C18.5693 3.41432 19.1361 3.59999 19.5916 4.05546C20.047 4.51093 20.2327 5.07773 20.3171 5.70552C20.3971 6.30031 20.3971 7.04953 20.397 7.94801V15.232L21.9096 16.7932L21.9135 16.7969L21.9206 16.804L21.9284 16.812L21.934 16.8177L21.9439 16.8281L21.9545 16.8394L21.9588 16.844L21.9668 16.8529L21.9757 16.8631L21.9839 16.8728C21.9866 16.876 21.9908 16.8812 21.996 16.8878C22.3675 17.3187 22.6991 17.962 22.7444 18.6051L22.7448 18.6089C22.746 18.6193 22.7467 18.6277 22.747 18.6325L22.7479 18.6452L22.7486 18.6586L22.749 18.6706L22.7492 18.6769L22.7494 18.6925L22.7495 18.7067L22.7495 18.7148L22.7494 18.7259L22.7492 18.7359L22.7491 18.7407C22.7491 18.7512 22.7491 18.7624 22.7491 18.7739C22.7493 18.9047 22.7496 19.0929 22.7445 19.1734C22.6572 20.5556 21.5556 21.6572 20.1734 21.7445C20.0862 21.75 19.989 21.75 19.8628 21.75H4.13714C4.01097 21.75 3.91379 21.75 3.82656 21.7445C2.44436 21.6572 1.34278 20.5556 1.25545 19.1734C1.25039 19.0935 1.25069 18.9069 1.2509 18.7764C1.25092 18.7639 1.25094 18.752 1.25095 18.7406L1.25081 18.7359L1.25063 18.7259L1.25055 18.7148L1.25056 18.7067L1.25065 18.6925L1.25088 18.6769L1.25103 18.6706L1.25145 18.6586L1.25213 18.6452L1.253 18.6325C1.25337 18.6277 1.25406 18.6193 1.25519 18.6089L1.2556 18.6051C1.30091 17.9621 1.63239 17.3187 2.00392 16.8878C2.00913 16.8811 2.01342 16.8759 2.01605 16.8728L2.02425 16.8631L2.03312 16.8529L2.04117 16.844L2.04544 16.8394L2.05609 16.8281L2.06595 16.8177L2.07154 16.812L2.07935 16.804L2.08646 16.797L2.09028 16.7932L3.60291 15.232L3.60291 7.94801C3.60288 7.04953 3.60286 6.30031 3.68283 5.70552C3.76723 5.07773 3.9529 4.51093 4.40837 4.05546C4.86384 3.59999 5.43064 3.41432 6.05843 3.32991C6.65322 3.24995 7.40244 3.24997 8.30091 3.25ZM4.67055 16.2857L3.15644 17.8485C2.92859 18.1025 2.76248 18.4752 2.75097 18.7263C2.75096 18.748 2.75094 18.7699 2.75092 18.7919C2.75086 18.8452 2.7508 18.899 2.75097 18.9492C2.75109 18.9864 2.75132 19.0186 2.75172 19.0443C2.75203 19.0641 2.75236 19.0746 2.75248 19.0782C2.79217 19.7064 3.29288 20.2078 3.92115 20.2475C3.95457 20.2496 4 20.25 4.16066 20.25H19.8393C19.9999 20.25 20.0454 20.2496 20.0788 20.2475C20.7071 20.2078 21.2078 19.7071 21.2475 19.0788C21.2473 19.0824 21.2478 19.0735 21.2482 19.0441C21.2486 19.0184 21.2489 18.9861 21.249 18.949C21.2492 18.8974 21.2492 18.8418 21.2491 18.787C21.2491 18.7666 21.2491 18.7463 21.2491 18.7263C21.2375 18.4753 21.0714 18.1025 20.8435 17.8485L19.3294 16.2857H4.67055ZM18.897 14.7857V8C18.897 7.03599 18.8954 6.38843 18.8305 5.90539C18.7685 5.44393 18.6612 5.24644 18.5309 5.11612C18.4006 4.9858 18.2031 4.87858 17.7416 4.81654C17.2586 4.7516 16.611 4.75 15.647 4.75H8.35291C7.3889 4.75 6.74134 4.7516 6.25831 4.81654C5.79684 4.87858 5.59935 4.9858 5.46903 5.11612C5.33871 5.24644 5.23149 5.44393 5.16945 5.90539C5.10451 6.38843 5.10291 7.03599 5.10291 8V14.7857H18.897ZM21.6697 18.0238C21.6773 18.0214 21.6845 18.019 21.6913 18.0165C21.6941 18.0149 21.697 18.0133 21.6999 18.0116C21.6898 18.0158 21.6798 18.0199 21.6697 18.0238ZM21.7162 18.0259C21.7222 18.0229 21.728 18.0201 21.7336 18.0175C21.7362 18.0167 21.7389 18.016 21.7415 18.0153C21.7331 18.0188 21.7246 18.0223 21.7162 18.0259ZM2.28404 18.0259C2.27821 18.023 2.27251 18.0202 2.26699 18.0177C2.26447 18.017 2.2619 18.0163 2.25927 18.0156C2.26757 18.019 2.27583 18.0224 2.28404 18.0259ZM2.33094 18.024C2.32057 18.02 2.3102 18.0158 2.29987 18.0115C2.30285 18.0132 2.30579 18.0149 2.30868 18.0165C2.31572 18.0191 2.32316 18.0216 2.33094 18.024ZM8.74997 18.5C8.74997 18.0858 9.08576 17.75 9.49997 17.75H14.5C14.9142 17.75 15.25 18.0858 15.25 18.5C15.25 18.9142 14.9142 19.25 14.5 19.25H9.49997C9.08576 19.25 8.74997 18.9142 8.74997 18.5Z" fill="black"/>
<path d="M12.75 6.75C12.75 7.16422 12.4142 7.5 12 7.5C11.5858 7.5 11.25 7.16422 11.25 6.75C11.25 6.33579 11.5858 6 12 6C12.4142 6 12.75 6.33579 12.75 6.75Z" fill="black"/>
</svg>
