<svg width="24" height="24" viewBox="0 0 24 24" fill="none" xmlns="http://www.w3.org/2000/svg">
<path fill-rule="evenodd" clip-rule="evenodd" d="M4.25 9C4.25 4.71979 7.71979 1.25 12 1.25C16.2802 1.25 19.75 4.71979 19.75 9V15C19.75 19.2802 16.2802 22.75 12 22.75C7.71979 22.75 4.25 19.2802 4.25 15V9ZM12 2.75C8.54822 2.75 5.75 5.54822 5.75 9V15C5.75 18.4518 8.54822 21.25 12 21.25C15.4518 21.25 18.25 18.4518 18.25 15V9C18.25 5.54822 15.4518 2.75 12 2.75ZM12 4.25C12.4142 4.25 12.75 4.58579 12.75 5V8C12.75 8.41421 12.4142 8.75 12 8.75C11.5858 8.75 11.25 8.41421 11.25 8V5C11.25 4.58579 11.5858 4.25 12 4.25Z" fill="black"/>
</svg>
