<svg width="24" height="24" viewBox="0 0 24 24" fill="none" xmlns="http://www.w3.org/2000/svg">
<path fill-rule="evenodd" clip-rule="evenodd" d="M11.25 3.85016C11.25 3.09091 10.6697 2.66439 10.1622 2.76757C5.93808 3.62635 2.75 7.3934 2.75 11.9167C2.75 17.0772 6.89721 21.2499 12 21.2499C17.1028 21.2499 21.25 17.0772 21.25 11.9167C21.25 8.2202 19.1208 5.02735 16.0342 3.51537C15.6622 3.33316 15.5084 2.88389 15.6906 2.51191C15.8728 2.13993 16.3221 1.98609 16.6941 2.1683C20.2798 3.92474 22.75 7.63097 22.75 11.9167C22.75 17.8939 17.9429 22.7499 12 22.7499C6.05709 22.7499 1.25 17.8939 1.25 11.9167C1.25 6.67461 4.94577 2.29741 9.86335 1.29764C11.5214 0.960566 12.75 2.38189 12.75 3.85016V5.30881C15.017 5.6684 16.75 7.63179 16.75 9.99994V13.9999C16.75 16.6233 14.6234 18.7499 12 18.7499C9.37665 18.7499 7.25 16.6233 7.25 13.9999V9.99994C7.25 7.63179 8.98301 5.6684 11.25 5.30881V3.85016ZM11.25 6.8369C10.0574 7.11861 9.11868 8.05735 8.83697 9.24994H11.25V6.8369ZM12.75 9.24994H15.163C14.8813 8.05735 13.9426 7.11861 12.75 6.8369V9.24994ZM15.25 10.7499H8.75V13.9999C8.75 15.7949 10.2051 17.2499 12 17.2499C13.7949 17.2499 15.25 15.7949 15.25 13.9999V10.7499Z" fill="black"/>
</svg>
