<svg width="24" height="24" viewBox="0 0 24 24" fill="none" xmlns="http://www.w3.org/2000/svg">
<path fill-rule="evenodd" clip-rule="evenodd" d="M4.97475 2.25H19.0253C19.4697 2.24999 19.8408 2.24999 20.1454 2.27077C20.4625 2.29241 20.762 2.33905 21.0524 2.45933C21.7262 2.73844 22.2616 3.27379 22.5407 3.94762C22.661 4.23801 22.7076 4.53754 22.7292 4.85464C22.75 5.15925 22.75 5.53028 22.75 5.97474V6.02526C22.75 6.46972 22.75 6.84075 22.7292 7.14537C22.7076 7.46247 22.661 7.76199 22.5407 8.05238C22.3908 8.41428 22.1669 8.73624 21.8875 9C22.1669 9.26377 22.3908 9.58572 22.5407 9.94762C22.661 10.238 22.7076 10.5375 22.7292 10.8546C22.75 11.1592 22.75 11.5303 22.75 11.9747V12.0253C22.75 12.4697 22.75 12.8408 22.7292 13.1454C22.7076 13.4625 22.661 13.762 22.5407 14.0524C22.3908 14.4143 22.1669 14.7362 21.8875 15C22.1669 15.2638 22.3908 15.5857 22.5407 15.9476C22.661 16.238 22.7076 16.5375 22.7292 16.8546C22.75 17.1592 22.75 17.5303 22.75 17.9747V18.0253C22.75 18.4697 22.75 18.8408 22.7292 19.1454C22.7076 19.4625 22.661 19.762 22.5407 20.0524C22.2616 20.7262 21.7262 21.2616 21.0524 21.5407C20.762 21.661 20.4625 21.7076 20.1454 21.7292C19.8408 21.75 19.4697 21.75 19.0253 21.75H4.97474C4.53028 21.75 4.15925 21.75 3.85464 21.7292C3.53754 21.7076 3.23801 21.661 2.94762 21.5407C2.27379 21.2616 1.73844 20.7262 1.45933 20.0524C1.33905 19.762 1.29241 19.4625 1.27077 19.1454C1.24999 18.8408 1.24999 18.4697 1.25 18.0253V17.9748C1.24999 17.5303 1.24999 17.1592 1.27077 16.8546C1.29241 16.5375 1.33905 16.238 1.45933 15.9476C1.60924 15.5857 1.83305 15.2638 2.11254 15C1.83305 14.7362 1.60924 14.4143 1.45933 14.0524C1.33905 13.762 1.29241 13.4625 1.27077 13.1454C1.24999 12.8408 1.24999 12.4697 1.25 12.0253V11.9748C1.24999 11.5303 1.24999 11.1592 1.27077 10.8546C1.29241 10.5375 1.33905 10.238 1.45933 9.94762C1.60924 9.58572 1.83305 9.26377 2.11254 9C1.83305 8.73623 1.60924 8.41428 1.45933 8.05238C1.33905 7.76199 1.29241 7.46247 1.27077 7.14537C1.24999 6.84075 1.24999 6.46971 1.25 6.02525V5.97475C1.24999 5.53029 1.24999 5.15925 1.27077 4.85464C1.29241 4.53754 1.33905 4.23801 1.45933 3.94762C1.73844 3.27379 2.27379 2.73844 2.94762 2.45933C3.23801 2.33905 3.53754 2.29241 3.85464 2.27077C4.15925 2.24999 4.53029 2.24999 4.97475 2.25ZM5 8.25C4.5238 8.25 4.20421 8.24959 3.95674 8.23271C3.71602 8.21629 3.5988 8.18681 3.52165 8.15485C3.21536 8.02798 2.97202 7.78464 2.84515 7.47835C2.81319 7.4012 2.78372 7.28399 2.76729 7.04326C2.75041 6.79579 2.75 6.4762 2.75 6C2.75 5.5238 2.75041 5.20421 2.76729 4.95674C2.78372 4.71602 2.81319 4.5988 2.84515 4.52165C2.97202 4.21536 3.21536 3.97202 3.52165 3.84515C3.5988 3.81319 3.71602 3.78372 3.95674 3.76729C4.20421 3.75041 4.5238 3.75 5 3.75H19C19.4762 3.75 19.7958 3.75041 20.0433 3.76729C20.284 3.78372 20.4012 3.81319 20.4784 3.84515C20.7846 3.97202 21.028 4.21536 21.1549 4.52165C21.1868 4.5988 21.2163 4.71602 21.2327 4.95674C21.2496 5.20421 21.25 5.5238 21.25 6C21.25 6.4762 21.2496 6.79579 21.2327 7.04326C21.2163 7.28399 21.1868 7.4012 21.1549 7.47835C21.028 7.78464 20.7846 8.02798 20.4784 8.15485C20.4012 8.18681 20.284 8.21629 20.0433 8.23271C19.7958 8.24959 19.4762 8.25 19 8.25H5ZM5 9.75C4.5238 9.75 4.20421 9.75041 3.95674 9.76729C3.71602 9.78372 3.5988 9.81319 3.52165 9.84515C3.21536 9.97202 2.97202 10.2154 2.84515 10.5216C2.81319 10.5988 2.78372 10.716 2.76729 10.9567C2.75041 11.2042 2.75 11.5238 2.75 12C2.75 12.4762 2.75041 12.7958 2.76729 13.0433C2.78372 13.284 2.81319 13.4012 2.84515 13.4784C2.97202 13.7846 3.21536 14.028 3.52165 14.1549C3.5988 14.1868 3.71602 14.2163 3.95674 14.2327C4.20421 14.2496 4.5238 14.25 5 14.25H19C19.4762 14.25 19.7958 14.2496 20.0433 14.2327C20.284 14.2163 20.4012 14.1868 20.4784 14.1549C20.7846 14.028 21.028 13.7846 21.1549 13.4784C21.1868 13.4012 21.2163 13.284 21.2327 13.0433C21.2496 12.7958 21.25 12.4762 21.25 12C21.25 11.5238 21.2496 11.2042 21.2327 10.9567C21.2163 10.716 21.1868 10.5988 21.1549 10.5216C21.028 10.2154 20.7846 9.97202 20.4784 9.84515C20.4012 9.81319 20.284 9.78372 20.0433 9.76729C19.7958 9.75041 19.4762 9.75 19 9.75H5ZM5 15.75C4.5238 15.75 4.20421 15.7504 3.95674 15.7673C3.71602 15.7837 3.5988 15.8132 3.52165 15.8452C3.21536 15.972 2.97202 16.2154 2.84515 16.5216C2.81319 16.5988 2.78372 16.716 2.76729 16.9567C2.75041 17.2042 2.75 17.5238 2.75 18C2.75 18.4762 2.75041 18.7958 2.76729 19.0433C2.78372 19.284 2.81319 19.4012 2.84515 19.4784C2.97202 19.7846 3.21536 20.028 3.52165 20.1549C3.5988 20.1868 3.71602 20.2163 3.95674 20.2327C4.20421 20.2496 4.5238 20.25 5 20.25H19C19.4762 20.25 19.7958 20.2496 20.0433 20.2327C20.284 20.2163 20.4012 20.1868 20.4784 20.1549C20.7846 20.028 21.028 19.7846 21.1549 19.4784C21.1868 19.4012 21.2163 19.284 21.2327 19.0433C21.2496 18.7958 21.25 18.4762 21.25 18C21.25 17.5238 21.2496 17.2042 21.2327 16.9567C21.2163 16.716 21.1868 16.5988 21.1549 16.5216C21.028 16.2154 20.7846 15.972 20.4784 15.8452C20.4012 15.8132 20.284 15.7837 20.0433 15.7673C19.7958 15.7504 19.4762 15.75 19 15.75H5Z" fill="black"/>
<path d="M6 12C6 12.5523 5.55229 13 5 13C4.44772 13 4 12.5523 4 12C4 11.4477 4.44772 11 5 11C5.55229 11 6 11.4477 6 12Z" fill="black"/>
<path d="M6 6C6 6.55229 5.55229 7 5 7C4.44772 7 4 6.55229 4 6C4 5.44772 4.44772 5 5 5C5.55229 5 6 5.44772 6 6Z" fill="black"/>
<path d="M6 18C6 18.5523 5.55229 19 5 19C4.44772 19 4 18.5523 4 18C4 17.4477 4.44772 17 5 17C5.55229 17 6 17.4477 6 18Z" fill="black"/>
</svg>
