<svg width="24" height="24" viewBox="0 0 24 24" fill="none" xmlns="http://www.w3.org/2000/svg">
<path fill-rule="evenodd" clip-rule="evenodd" d="M5.948 1.25H18.052C18.9505 1.24997 19.6997 1.24995 20.2945 1.32991C20.9223 1.41432 21.4891 1.59999 21.9445 2.05546C22.4 2.51093 22.5857 3.07773 22.6701 3.70552C22.7501 4.30031 22.75 5.04953 22.75 5.94801V6.052C22.75 6.95048 22.7501 7.6997 22.6701 8.29448C22.5857 8.92228 22.4 9.48908 21.9445 9.94455C21.4891 10.4 20.9223 10.5857 20.2945 10.6701C19.6997 10.7501 18.9505 10.75 18.052 10.75H5.94801C5.04953 10.75 4.3003 10.7501 3.70552 10.6701C3.07773 10.5857 2.51093 10.4 2.05546 9.94455C1.59999 9.48908 1.41432 8.92228 1.32991 8.29448C1.24995 7.6997 1.24997 6.95048 1.25 6.052V5.948C1.24997 5.04952 1.24995 4.3003 1.32991 3.70552C1.41432 3.07773 1.59999 2.51093 2.05546 2.05546C2.51093 1.59999 3.07773 1.41432 3.70552 1.32991C4.3003 1.24995 5.04952 1.24997 5.948 1.25ZM3.90539 2.81654C3.44393 2.87858 3.24644 2.9858 3.11612 3.11612C2.9858 3.24644 2.87858 3.44393 2.81654 3.90539C2.7516 4.38843 2.75 5.03599 2.75 6C2.75 6.96401 2.7516 7.61157 2.81654 8.09461C2.87858 8.55607 2.9858 8.75357 3.11612 8.88389C3.24644 9.0142 3.44393 9.12143 3.90539 9.18347C4.38843 9.24841 5.03599 9.25 6 9.25H18C18.964 9.25 19.6116 9.24841 20.0946 9.18347C20.5561 9.12143 20.7536 9.0142 20.8839 8.88389C21.0142 8.75357 21.1214 8.55607 21.1835 8.09461C21.2484 7.61157 21.25 6.96401 21.25 6C21.25 5.03599 21.2484 4.38843 21.1835 3.90539C21.1214 3.44393 21.0142 3.24644 20.8839 3.11612C20.7536 2.9858 20.5561 2.87858 20.0946 2.81654C19.6116 2.7516 18.964 2.75 18 2.75H6C5.03599 2.75 4.38843 2.7516 3.90539 2.81654ZM6 4.25C6.41422 4.25 6.75 4.58579 6.75 5V7C6.75 7.41422 6.41422 7.75 6 7.75C5.58579 7.75 5.25 7.41422 5.25 7V5C5.25 4.58579 5.58579 4.25 6 4.25ZM9 4.25C9.41422 4.25 9.75 4.58579 9.75 5V7C9.75 7.41422 9.41422 7.75 9 7.75C8.58579 7.75 8.25 7.41422 8.25 7V5C8.25 4.58579 8.58579 4.25 9 4.25ZM12.75 6C12.75 5.58579 13.0858 5.25 13.5 5.25H18C18.4142 5.25 18.75 5.58579 18.75 6C18.75 6.41422 18.4142 6.75 18 6.75H13.5C13.0858 6.75 12.75 6.41422 12.75 6ZM5.94801 12.25H18.052C18.9505 12.25 19.6997 12.2499 20.2945 12.3299C20.9223 12.4143 21.4891 12.6 21.9445 13.0555C22.4 13.5109 22.5857 14.0777 22.6701 14.7055C22.7501 15.3003 22.75 16.0495 22.75 16.948V17.052C22.75 17.9505 22.7501 18.6997 22.6701 19.2945C22.5857 19.9223 22.4 20.4891 21.9445 20.9445C21.4891 21.4 20.9223 21.5857 20.2945 21.6701C19.6997 21.7501 18.9505 21.75 18.052 21.75H5.94801C5.04953 21.75 4.30031 21.7501 3.70552 21.6701C3.07773 21.5857 2.51093 21.4 2.05546 20.9445C1.59999 20.4891 1.41432 19.9223 1.32991 19.2945C1.24995 18.6997 1.24997 17.9505 1.25 17.052V16.948C1.24997 16.0495 1.24995 15.3003 1.32991 14.7055C1.41432 14.0777 1.59999 13.5109 2.05546 13.0555C2.51093 12.6 3.07773 12.4143 3.70552 12.3299C4.30031 12.2499 5.04953 12.25 5.94801 12.25ZM3.90539 13.8165C3.44393 13.8786 3.24644 13.9858 3.11612 14.1161C2.9858 14.2464 2.87858 14.4439 2.81654 14.9054C2.7516 15.3884 2.75 16.036 2.75 17C2.75 17.964 2.7516 18.6116 2.81654 19.0946C2.87858 19.5561 2.9858 19.7536 3.11612 19.8839C3.24644 20.0142 3.44393 20.1214 3.90539 20.1835C4.38843 20.2484 5.03599 20.25 6 20.25H18C18.964 20.25 19.6116 20.2484 20.0946 20.1835C20.5561 20.1214 20.7536 20.0142 20.8839 19.8839C21.0142 19.7536 21.1214 19.5561 21.1835 19.0946C21.2484 18.6116 21.25 17.964 21.25 17C21.25 16.036 21.2484 15.3884 21.1835 14.9054C21.1214 14.4439 21.0142 14.2464 20.8839 14.1161C20.7536 13.9858 20.5561 13.8786 20.0946 13.8165C19.6116 13.7516 18.964 13.75 18 13.75H6C5.03599 13.75 4.38843 13.7516 3.90539 13.8165ZM6 15.25C6.41422 15.25 6.75 15.5858 6.75 16V18C6.75 18.4142 6.41422 18.75 6 18.75C5.58579 18.75 5.25 18.4142 5.25 18V16C5.25 15.5858 5.58579 15.25 6 15.25ZM9 15.25C9.41422 15.25 9.75 15.5858 9.75 16V18C9.75 18.4142 9.41422 18.75 9 18.75C8.58579 18.75 8.25 18.4142 8.25 18V16C8.25 15.5858 8.58579 15.25 9 15.25ZM12.75 17C12.75 16.5858 13.0858 16.25 13.5 16.25H18C18.4142 16.25 18.75 16.5858 18.75 17C18.75 17.4142 18.4142 17.75 18 17.75H13.5C13.0858 17.75 12.75 17.4142 12.75 17Z" fill="black"/>
</svg>
