<svg width="24" height="24" viewBox="0 0 24 24" fill="none" xmlns="http://www.w3.org/2000/svg">
<path fill-rule="evenodd" clip-rule="evenodd" d="M13.9436 1.25L14 1.25C15.2264 1.25 16.3975 1.74097 17.2617 2.60522L21.3948 6.73829C22.259 7.60254 22.75 8.77362 22.75 10V10.0564C22.75 11.8942 22.75 13.3498 22.5969 14.489C22.4392 15.6614 22.1071 16.6104 21.3588 17.3588C20.6306 18.0869 19.7126 18.421 18.5837 18.5837C18.421 19.7127 18.0869 20.6306 17.3588 21.3588C16.6104 22.1071 15.6614 22.4392 14.489 22.5969C13.3498 22.75 11.8942 22.75 10.0564 22.75H9.94359C8.10583 22.75 6.65019 22.75 5.51098 22.5969C4.33856 22.4392 3.38961 22.1071 2.64124 21.3588C1.89288 20.6104 1.56076 19.6614 1.40314 18.489C1.24997 17.3498 1.24998 15.8942 1.25 14.0564V13.9436C1.24998 12.1058 1.24997 10.6502 1.40314 9.51098C1.56076 8.33856 1.89288 7.38961 2.64124 6.64124C3.36936 5.91313 4.28735 5.57904 5.41629 5.41632C5.57896 4.28742 5.9131 3.36939 6.64124 2.64124C7.38961 1.89288 8.33856 1.56076 9.51098 1.40314C10.6502 1.24997 12.1058 1.24998 13.9436 1.25ZM6.9588 5.28612C7.81813 5.24998 8.80789 5.24999 9.94358 5.25L10 5.25C11.2264 5.25 12.3975 5.74097 13.2617 6.60522L17.3948 10.7383C18.259 11.6025 18.75 12.7736 18.75 14V14.0564C18.75 15.1921 18.75 16.1819 18.7139 17.0412C19.4658 16.895 19.9385 16.6577 20.2981 16.2981C20.7213 15.8749 20.975 15.2952 21.1102 14.2892C21.2484 13.2615 21.25 11.9068 21.25 10C21.25 9.17559 20.92 8.38484 20.3341 7.79895L16.201 3.66588C15.6152 3.08 14.8244 2.75 14 2.75C12.0932 2.75 10.7385 2.75159 9.71085 2.88976C8.70476 3.02502 8.12511 3.27869 7.7019 3.7019C7.34227 4.06154 7.10501 4.53421 6.9588 5.28612ZM5.71085 6.88976C4.70476 7.02502 4.12511 7.27869 3.7019 7.7019C3.27869 8.12511 3.02502 8.70476 2.88976 9.71085C2.75159 10.7385 2.75 12.0932 2.75 14C2.75 15.9068 2.75159 17.2615 2.88976 18.2892C3.02502 19.2952 3.27869 19.8749 3.7019 20.2981C4.12511 20.7213 4.70476 20.975 5.71085 21.1102C6.73851 21.2484 8.09318 21.25 10 21.25C11.9068 21.25 13.2615 21.2484 14.2892 21.1102C15.2952 20.975 15.8749 20.7213 16.2981 20.2981C16.7213 19.8749 16.975 19.2952 17.1102 18.2892C17.2484 17.2615 17.25 15.9068 17.25 14C17.25 13.1756 16.92 12.3848 16.3341 11.799L12.201 7.66588C11.6152 7.07999 10.8244 6.75 10 6.75C8.09318 6.75 6.73851 6.75159 5.71085 6.88976ZM8.95526 13.25H11.0447C11.4776 13.2499 11.8744 13.2499 12.1972 13.2933C12.5527 13.3411 12.9284 13.4535 13.2374 13.7626C13.5465 14.0716 13.6589 14.4473 13.7067 14.8028C13.7501 15.1256 13.7501 15.5224 13.75 15.9553V17.0447C13.7501 17.4776 13.7501 17.8744 13.7067 18.1972C13.6589 18.5527 13.5465 18.9284 13.2374 19.2374C12.9284 19.5465 12.5527 19.6589 12.1972 19.7067C11.8744 19.7501 11.4776 19.7501 11.0447 19.75H8.95526C8.52244 19.7501 8.12561 19.7501 7.80279 19.7067C7.44731 19.6589 7.07159 19.5465 6.76256 19.2374C6.45354 18.9284 6.34109 18.5527 6.2933 18.1972C6.2499 17.8744 6.24995 17.4776 6.25 17.0447V15.9553C6.24995 15.5224 6.2499 15.1256 6.2933 14.8028C6.34109 14.4473 6.45354 14.0716 6.76256 13.7626C7.07159 13.4535 7.44731 13.3411 7.80279 13.2933C8.12561 13.2499 8.52244 13.2499 8.95526 13.25ZM7.82328 14.8232C7.82282 14.8236 7.823 14.8235 7.82328 14.8232ZM7.82328 14.8232C7.82361 14.8229 7.82368 14.8228 7.82328 14.8232ZM7.82567 14.8219L7.82328 14.8232L7.82186 14.8257C7.82085 14.8276 7.81923 14.8309 7.81716 14.836C7.8082 14.8577 7.79291 14.9061 7.77992 15.0027C7.75159 15.2134 7.75 15.5074 7.75 16V17C7.75 17.4926 7.75159 17.7866 7.77992 17.9973C7.79291 18.0939 7.8082 18.1423 7.81716 18.164C7.81923 18.1691 7.82085 18.1724 7.82186 18.1743L7.82322 18.1768L7.82567 18.1781C7.8276 18.1791 7.83092 18.1808 7.83596 18.1828C7.85774 18.1918 7.90611 18.2071 8.00266 18.2201C8.21339 18.2484 8.50739 18.25 9 18.25H9.25V14.75H9C8.50739 14.75 8.21339 14.7516 8.00266 14.7799C7.90611 14.7929 7.85775 14.8082 7.83597 14.8172C7.83092 14.8192 7.82761 14.8209 7.82567 14.8219ZM10.75 14.75V15.75H12.2497C12.2485 15.4031 12.2433 15.175 12.2201 15.0027C12.2071 14.9061 12.1918 14.8577 12.1828 14.836C12.1808 14.8309 12.1791 14.8276 12.1781 14.8257L12.1768 14.8232L12.1743 14.8219C12.1724 14.8209 12.1691 14.8192 12.164 14.8172C12.1423 14.8082 12.0939 14.7929 11.9973 14.7799C11.7866 14.7516 11.4926 14.75 11 14.75H10.75ZM12.2497 17.25H10.75V18.25H11C11.4926 18.25 11.7866 18.2484 11.9973 18.2201C12.0939 18.2071 12.1423 18.1918 12.164 18.1828C12.1691 18.1808 12.1724 18.1791 12.1743 18.1781L12.1768 18.1768L12.1781 18.1743C12.1791 18.1724 12.1808 18.1691 12.1828 18.164C12.1918 18.1423 12.2071 18.0939 12.2201 17.9973C12.2433 17.825 12.2485 17.5969 12.2497 17.25Z" fill="black"/>
</svg>
