<svg width="24" height="24" viewBox="0 0 24 24" fill="none" xmlns="http://www.w3.org/2000/svg">
<path fill-rule="evenodd" clip-rule="evenodd" d="M12.6206 2.76232C12.4868 2.75064 12.3532 2.75 12 2.75C9.62178 2.75 7.91356 2.7516 6.61358 2.92637C5.33517 3.09825 4.56445 3.42514 3.9948 3.9948C3.42514 4.56445 3.09825 5.33518 2.92637 6.61358C2.75159 7.91356 2.75 9.62178 2.75 12C2.75 14.3782 2.75159 16.0864 2.92637 17.3864C3.09825 18.6648 3.42514 19.4355 3.9948 20.0052C4.56445 20.5749 5.33517 20.9018 6.61358 21.0736C7.91356 21.2484 9.62178 21.25 12 21.25C14.3782 21.25 16.0864 21.2484 17.3864 21.0736C18.6648 20.9018 19.4355 20.5749 20.0052 20.0052C20.5749 19.4355 20.9018 18.6648 21.0736 17.3864C21.2484 16.0864 21.25 14.3782 21.25 12C21.25 11.6468 21.2494 11.5132 21.2377 11.3794C21.1804 10.7235 20.9125 10.0768 20.4892 9.57254C20.403 9.46978 20.3063 9.37221 20.0502 9.11611L14.8839 3.94977C14.6278 3.69368 14.5302 3.59701 14.4275 3.51076C13.9232 3.08746 13.2765 2.81957 12.6206 2.76232ZM12.0315 1.25C12.3431 1.24998 12.5445 1.24997 12.751 1.268C13.7138 1.35204 14.6517 1.74054 15.3919 2.36187C15.5507 2.49517 15.696 2.64055 15.9213 2.86587L15.9446 2.88911L21.1341 8.07862C21.3594 8.30396 21.5048 8.44933 21.6381 8.60814C22.2595 9.34833 22.648 10.2862 22.732 11.249C22.75 11.4555 22.75 11.6569 22.75 11.9684V12.0574C22.75 14.3658 22.75 16.1748 22.5603 17.5863C22.366 19.031 21.9607 20.1711 21.0659 21.0659C20.1711 21.9607 19.031 22.366 17.5863 22.5603C16.1748 22.75 14.3658 22.75 12.0574 22.75H11.9426C9.63423 22.75 7.82519 22.75 6.41371 22.5603C4.96897 22.366 3.82895 21.9607 2.93414 21.0659C2.03933 20.1711 1.63399 19.031 1.43975 17.5863C1.24998 16.1748 1.24999 14.3658 1.25 12.0574V11.9426C1.24999 9.63423 1.24998 7.82519 1.43975 6.41371C1.63399 4.96897 2.03933 3.82895 2.93414 2.93414C3.82895 2.03933 4.96897 1.63399 6.41371 1.43975C7.82519 1.24998 9.63423 1.24999 11.9426 1.25L12.0315 1.25ZM11.4616 11.25H12.5384C13.2079 11.25 13.7667 11.25 14.219 11.296C14.6925 11.3442 15.1318 11.4489 15.5278 11.7135C15.8281 11.9141 16.0859 12.1719 16.2865 12.4722C16.5511 12.8682 16.6559 13.3076 16.704 13.781C16.75 14.2334 16.75 14.7921 16.75 15.4616V15.5384C16.75 16.2079 16.75 16.7667 16.704 17.219C16.6559 17.6925 16.5511 18.1318 16.2865 18.5278C16.0859 18.8281 15.8281 19.0859 15.5278 19.2865C15.1318 19.5511 14.6925 19.6559 14.219 19.704C13.7666 19.75 13.2079 19.75 12.5383 19.75H11.4617C10.7921 19.75 10.2334 19.75 9.78102 19.704C9.30755 19.6559 8.86818 19.5511 8.47218 19.2865C8.17191 19.0859 7.9141 18.8281 7.71346 18.5278C7.44886 18.1318 7.34415 17.6925 7.29598 17.219C7.24997 16.7667 7.24998 16.2079 7.25 15.5383V15.4617C7.24998 14.7921 7.24997 14.2334 7.29598 13.781C7.34415 13.3076 7.44886 12.8682 7.71346 12.4722C7.91409 12.1719 8.17191 11.9141 8.47218 11.7135C8.86818 11.4489 9.30755 11.3442 9.78102 11.296C10.2333 11.25 10.7921 11.25 11.4616 11.25ZM9.93283 12.7883C9.57796 12.8244 9.41399 12.8882 9.30554 12.9607C9.16905 13.0519 9.05186 13.1691 8.96066 13.3055C8.8882 13.414 8.82438 13.578 8.78828 13.9328C8.75091 14.3002 8.75 14.7822 8.75 15.5C8.75 16.2178 8.75091 16.6998 8.78828 17.0672C8.82438 17.422 8.8882 17.586 8.96066 17.6945C9.05186 17.831 9.16905 17.9481 9.30554 18.0393C9.41399 18.1118 9.57796 18.1756 9.93283 18.2117C10.2559 18.2446 10.6674 18.2493 11.25 18.2499V12.7501C10.6674 12.7508 10.2559 12.7554 9.93283 12.7883ZM12.75 12.7501V14.75H15.2474C15.2436 14.4181 15.2343 14.1546 15.2117 13.9328C15.1756 13.578 15.1118 13.414 15.0393 13.3055C14.9481 13.1691 14.831 13.0519 14.6945 12.9607C14.586 12.8882 14.422 12.8244 14.0672 12.7883C13.7441 12.7554 13.3326 12.7508 12.75 12.7501ZM15.2474 16.25H12.75V18.2499C13.3326 18.2493 13.7441 18.2446 14.0672 18.2117C14.422 18.1756 14.586 18.1118 14.6945 18.0393C14.831 17.9481 14.9481 17.831 15.0393 17.6945C15.1118 17.586 15.1756 17.422 15.2117 17.0672C15.2343 16.8454 15.2436 16.5819 15.2474 16.25Z" fill="black"/>
</svg>
