<svg width="24" height="24" viewBox="0 0 24 24" fill="none" xmlns="http://www.w3.org/2000/svg">
<g clip-path="url(#clip0_1648_7399)">
<path fill-rule="evenodd" clip-rule="evenodd" d="M2.03528 3.25083C2.36469 1.02882 4.13504 -0.75 6.38098 -0.75C7.72551 -0.75 8.9139 -0.10079 9.71 0.892194C9.9691 1.21537 9.91716 1.68739 9.59398 1.94649C9.27081 2.20559 8.79879 2.15364 8.53969 1.83047C7.9976 1.15432 7.22351 0.75 6.38098 0.75C5.05519 0.75 3.86099 1.7808 3.55547 3.256C3.70348 3.27479 3.84736 3.33782 3.96593 3.44604C4.27187 3.72528 4.29352 4.19966 4.01429 4.5056L3.28413 5.3056C3.14202 5.46129 2.94096 5.55 2.73017 5.55C2.51938 5.55 2.31831 5.46129 2.17621 5.3056L1.44605 4.5056C1.16681 4.19966 1.18846 3.72528 1.49441 3.44604C1.64766 3.30616 1.84319 3.24179 2.03528 3.25083ZM12.25 1.99873C12.2512 1.58452 12.588 1.24972 13.0022 1.25093C14.5493 1.25546 15.8027 1.28085 16.8089 1.45158C17.8369 1.626 18.6807 1.96316 19.3588 2.64124C20.1071 3.38961 20.4392 4.33855 20.5969 5.51098C20.75 6.65019 20.75 8.10583 20.75 9.94359V14.0564C20.75 15.8942 20.75 17.3498 20.5969 18.489C20.4392 19.6614 20.1071 20.6104 19.3588 21.3588C18.6104 22.1071 17.6614 22.4392 16.489 22.5969C15.3498 22.75 13.8942 22.75 12.0564 22.75H11.9436C10.1058 22.75 8.6502 22.75 7.51098 22.5969C6.33856 22.4392 5.38961 22.1071 4.64125 21.3588C3.89288 20.6104 3.56077 19.6614 3.40314 18.489C3.24998 17.3498 3.24999 15.8942 3.25 14.0564L3.25 11.0009C3.25 10.5867 3.58579 10.2509 4 10.2509C4.41422 10.2509 4.75 10.5867 4.75 11.0009V14C4.75 15.9068 4.7516 17.2615 4.88976 18.2892C5.02503 19.2952 5.2787 19.8749 5.70191 20.2981C6.12512 20.7213 6.70476 20.975 7.71085 21.1102C8.73852 21.2484 10.0932 21.25 12 21.25C13.9068 21.25 15.2615 21.2484 16.2892 21.1102C17.2952 20.975 17.8749 20.7213 18.2981 20.2981C18.7213 19.8749 18.975 19.2952 19.1102 18.2892C19.2484 17.2615 19.25 15.9068 19.25 14V10C19.25 8.09318 19.2484 6.73851 19.1102 5.71085C18.975 4.70476 18.7213 4.12511 18.2981 3.7019C17.9131 3.31689 17.3998 3.07329 16.558 2.93044C15.6943 2.78389 14.565 2.75551 12.9978 2.75093C12.5836 2.74971 12.2488 2.41295 12.25 1.99873ZM10.2698 2.45C10.4806 2.45 10.6817 2.53871 10.8238 2.6944L11.554 3.4944C11.8332 3.80034 11.8115 4.27472 11.5056 4.55396C11.3523 4.69384 11.1568 4.75821 10.9647 4.74917C10.6353 6.97118 8.86496 8.75 6.61903 8.75C5.36851 8.75 4.25149 8.18785 3.46122 7.30938C3.18419 7.00144 3.20926 6.52723 3.5172 6.2502C3.82514 5.97317 4.29935 5.99824 4.57638 6.30618C5.1103 6.89968 5.83415 7.25 6.61903 7.25C7.94482 7.25 9.13902 6.2192 9.44454 4.744C9.29653 4.72521 9.15265 4.66218 9.03408 4.55396C8.72814 4.27472 8.70649 3.80034 8.98572 3.4944L9.71588 2.6944C9.85799 2.53871 10.059 2.45 10.2698 2.45ZM8.25 19C8.25 18.5858 8.58579 18.25 9 18.25H15C15.4142 18.25 15.75 18.5858 15.75 19C15.75 19.4142 15.4142 19.75 15 19.75H9C8.58579 19.75 8.25 19.4142 8.25 19Z" fill="black"/>
</g>
<defs>
<clipPath id="clip0_1648_7399">
<rect width="24" height="24" fill="white"/>
</clipPath>
</defs>
</svg>
