<svg width="24" height="24" viewBox="0 0 24 24" fill="none" xmlns="http://www.w3.org/2000/svg">
<path fill-rule="evenodd" clip-rule="evenodd" d="M11.9436 1.25H12.0564C13.8942 1.24998 15.3498 1.24997 16.489 1.40314C17.6614 1.56076 18.6104 1.89288 19.3588 2.64124C20.1071 3.38961 20.4392 4.33856 20.5969 5.51098C20.75 6.65019 20.75 8.10583 20.75 9.94359V14.0564C20.75 15.8942 20.75 17.3498 20.5969 18.489C20.4392 19.6614 20.1071 20.6104 19.3588 21.3588C18.6104 22.1071 17.6614 22.4392 16.489 22.5969C15.3498 22.75 13.8942 22.75 12.0564 22.75H11.9436C10.1058 22.75 8.65019 22.75 7.51098 22.5969C6.33856 22.4392 5.38961 22.1071 4.64124 21.3588C3.89288 20.6104 3.56076 19.6614 3.40314 18.489C3.24997 17.3498 3.24998 15.8942 3.25 14.0564V9.94358C3.24998 8.10582 3.24997 6.65019 3.40314 5.51098C3.56076 4.33856 3.89288 3.38961 4.64124 2.64124C5.38961 1.89288 6.33856 1.56076 7.51098 1.40314C8.65019 1.24997 10.1058 1.24998 11.9436 1.25ZM7.71085 2.88976C6.70476 3.02502 6.12511 3.27869 5.7019 3.7019C5.27869 4.12511 5.02502 4.70476 4.88976 5.71085C4.75159 6.73851 4.75 8.09318 4.75 10V14C4.75 15.9068 4.75159 17.2615 4.88976 18.2892C5.02502 19.2952 5.27869 19.8749 5.7019 20.2981C6.12511 20.7213 6.70476 20.975 7.71085 21.1102C8.73851 21.2484 10.0932 21.25 12 21.25C13.9068 21.25 15.2615 21.2484 16.2892 21.1102C17.2952 20.975 17.8749 20.7213 18.2981 20.2981C18.7213 19.8749 18.975 19.2952 19.1102 18.2892C19.2484 17.2615 19.25 15.9068 19.25 14V10C19.25 8.09318 19.2484 6.73851 19.1102 5.71085C18.975 4.70476 18.7213 4.12511 18.2981 3.7019C17.8749 3.27869 17.2952 3.02502 16.2892 2.88976C15.2615 2.75159 13.9068 2.75 12 2.75C10.0932 2.75 8.73851 2.75159 7.71085 2.88976ZM8.25 5C8.25 4.58579 8.58579 4.25 9 4.25H15C15.4142 4.25 15.75 4.58579 15.75 5C15.75 5.41421 15.4142 5.75 15 5.75H9C8.58579 5.75 8.25 5.41421 8.25 5ZM12 15.75C11.3096 15.75 10.75 16.3096 10.75 17C10.75 17.6904 11.3096 18.25 12 18.25C12.6904 18.25 13.25 17.6904 13.25 17C13.25 16.3096 12.6904 15.75 12 15.75ZM9.25 17C9.25 15.4812 10.4812 14.25 12 14.25C13.5188 14.25 14.75 15.4812 14.75 17C14.75 18.5188 13.5188 19.75 12 19.75C10.4812 19.75 9.25 18.5188 9.25 17Z" fill="black"/>
</svg>
