<svg width="24" height="24" viewBox="0 0 24 24" fill="none" xmlns="http://www.w3.org/2000/svg">
<path fill-rule="evenodd" clip-rule="evenodd" d="M11.5 16.25C11.9142 16.25 12.25 16.5858 12.25 17V18C12.25 18.4142 11.9142 18.75 11.5 18.75C11.0858 18.75 10.75 18.4142 10.75 18V17C10.75 16.5858 11.0858 16.25 11.5 16.25ZM14 16.25C14.4142 16.25 14.75 16.5858 14.75 17V18C14.75 18.4142 14.4142 18.75 14 18.75C13.5858 18.75 13.25 18.4142 13.25 18V17C13.25 16.5858 13.5858 16.25 14 16.25ZM16.5 16.25C16.9142 16.25 17.25 16.5858 17.25 17V18C17.25 18.4142 16.9142 18.75 16.5 18.75C16.0858 18.75 15.75 18.4142 15.75 18V17C15.75 16.5858 16.0858 16.25 16.5 16.25ZM19 16.25C19.4142 16.25 19.75 16.5858 19.75 17V18C19.75 18.4142 19.4142 18.75 19 18.75C18.5858 18.75 18.25 18.4142 18.25 18V17C18.25 16.5858 18.5858 16.25 19 16.25Z" fill="black"/>
<path fill-rule="evenodd" clip-rule="evenodd" d="M5.56216 2.87174C6.14861 2.41455 6.82355 2.25 7.5 2.25H16.5C17.1765 2.25 17.8514 2.41455 18.4378 2.87174C19.0172 3.32344 19.4352 4.0024 19.7154 4.89243L19.718 4.90062L22.5718 14.7467C22.6403 14.9806 22.6798 15.2261 22.7044 15.4827C22.75 15.9572 22.75 16.5451 22.75 17.2573V17.331C22.75 18.0431 22.75 18.631 22.7044 19.1056C22.657 19.5988 22.5548 20.0509 22.2972 20.4591C22.1 20.7716 21.8448 21.0428 21.5443 21.2554C21.1461 21.5371 20.7019 21.6495 20.2234 21.7011C19.7689 21.75 19.2082 21.75 18.5402 21.75H5.45976C4.7918 21.75 4.23115 21.75 3.77661 21.7011C3.29814 21.6495 2.85387 21.5371 2.45569 21.2554C2.15523 21.0428 1.90001 20.7716 1.7028 20.4591C1.44521 20.0509 1.34296 19.5988 1.29557 19.1056C1.24998 18.631 1.24999 18.0432 1.25 17.331V17.2572C1.24999 16.5451 1.24998 15.9572 1.29557 15.4827C1.32022 15.2261 1.35972 14.9806 1.4282 14.7467L4.28204 4.90062L4.28461 4.89243C4.56481 4.0024 4.98276 3.32344 5.56216 2.87174ZM3.51882 12.922C3.60357 12.9079 3.68952 12.8965 3.77661 12.8872C4.23116 12.8382 4.79184 12.8382 5.45983 12.8382H18.5402C19.2082 12.8382 19.7688 12.8382 20.2234 12.8872C20.3105 12.8965 20.3964 12.9079 20.4812 12.922L18.2821 5.33495C18.0627 4.64179 17.784 4.264 17.5156 4.05473C17.2532 3.85015 16.9281 3.75 16.5 3.75H7.5C7.07188 3.75 6.74682 3.85015 6.48441 4.05473C6.21598 4.264 5.93731 4.64179 5.71788 5.33495L3.51882 12.922ZM3.93724 14.3785C3.58737 14.4162 3.42829 14.4822 3.32203 14.5574C3.18573 14.6538 3.06595 14.7797 2.97133 14.9296C2.89185 15.0556 2.82557 15.2423 2.7887 15.6261C2.75081 16.0204 2.75 16.5358 2.75 17.2941C2.75 18.0524 2.75081 18.5678 2.7887 18.9621C2.82557 19.3459 2.89185 19.5327 2.97133 19.6586C3.06595 19.8085 3.18573 19.9344 3.32203 20.0308C3.42829 20.106 3.58737 20.172 3.93724 20.2097C4.30195 20.249 4.78126 20.25 5.5 20.25H18.5C19.2187 20.25 19.6981 20.249 20.0628 20.2097C20.4126 20.172 20.5717 20.106 20.678 20.0308C20.8143 19.9344 20.9341 19.8085 21.0287 19.6586C21.1082 19.5327 21.1744 19.3459 21.2113 18.9621C21.2492 18.5678 21.25 18.0524 21.25 17.2941C21.25 16.5358 21.2492 16.0204 21.2113 15.6261C21.1744 15.2423 21.1082 15.0556 21.0287 14.9296C20.9341 14.7797 20.8143 14.6538 20.678 14.5574C20.5717 14.4822 20.4126 14.4162 20.0628 14.3785C19.6981 14.3393 19.2187 14.3382 18.5 14.3382H5.5C4.78126 14.3382 4.30195 14.3393 3.93724 14.3785Z" fill="black"/>
</svg>
