<svg width="24" height="24" viewBox="0 0 24 24" fill="none" xmlns="http://www.w3.org/2000/svg">
<path fill-rule="evenodd" clip-rule="evenodd" d="M5.56216 2.87174C6.14861 2.41455 6.82355 2.25 7.5 2.25H16.5C17.1765 2.25 17.8514 2.41455 18.4378 2.87174C19.0172 3.32344 19.4352 4.0024 19.7154 4.89243L19.7225 4.91513L22.2604 15.2159C22.5738 15.8383 22.75 16.5463 22.75 17.2941C22.75 19.7141 20.887 21.75 18.5 21.75H5.5C3.11298 21.75 1.25 19.7141 1.25 17.2941C1.25 16.5463 1.42621 15.8383 1.73961 15.2159L4.27747 4.91513L4.28461 4.89243C4.56481 4.0024 4.98276 3.32344 5.56216 2.87174ZM3.77626 13.2197C4.30106 12.9752 4.88373 12.8382 5.5 12.8382H18.5C19.1163 12.8382 19.6989 12.9752 20.2237 13.2197L18.2777 5.32094C18.0589 4.63669 17.7822 4.26258 17.5156 4.05473C17.2532 3.85015 16.9281 3.75 16.5 3.75H7.5C7.07188 3.75 6.74682 3.85015 6.48441 4.05473C6.21779 4.26258 5.94107 4.63669 5.72234 5.32094L3.77626 13.2197ZM5.5 14.3382C4.49271 14.3382 3.59139 14.9242 3.10912 15.8329C2.88147 16.2618 2.75 16.7597 2.75 17.2941C2.75 18.9676 4.02103 20.25 5.5 20.25H18.5C19.979 20.25 21.25 18.9676 21.25 17.2941C21.25 16.7597 21.1185 16.2618 20.8909 15.8329C20.4086 14.9242 19.5073 14.3382 18.5 14.3382H5.5ZM10.5 16.25C10.9142 16.25 11.25 16.5858 11.25 17V18C11.25 18.4142 10.9142 18.75 10.5 18.75C10.0858 18.75 9.75 18.4142 9.75 18V17C9.75 16.5858 10.0858 16.25 10.5 16.25ZM13 16.25C13.4142 16.25 13.75 16.5858 13.75 17V18C13.75 18.4142 13.4142 18.75 13 18.75C12.5858 18.75 12.25 18.4142 12.25 18V17C12.25 16.5858 12.5858 16.25 13 16.25ZM15.5 16.25C15.9142 16.25 16.25 16.5858 16.25 17V18C16.25 18.4142 15.9142 18.75 15.5 18.75C15.0858 18.75 14.75 18.4142 14.75 18V17C14.75 16.5858 15.0858 16.25 15.5 16.25ZM18 16.25C18.4142 16.25 18.75 16.5858 18.75 17V18C18.75 18.4142 18.4142 18.75 18 18.75C17.5858 18.75 17.25 18.4142 17.25 18V17C17.25 16.5858 17.5858 16.25 18 16.25Z" fill="black"/>
</svg>
