<svg width="24" height="24" viewBox="0 0 24 24" fill="none" xmlns="http://www.w3.org/2000/svg">
<path fill-rule="evenodd" clip-rule="evenodd" d="M15.4881 1.43057C15.8026 1.70014 15.839 2.17361 15.5694 2.48811L13.2021 5.25001L16.0549 5.25001C17.4225 5.24999 18.5248 5.24997 19.3918 5.36653C20.2919 5.48755 21.0497 5.74644 21.6516 6.34836C22.2536 6.95028 22.5125 7.70815 22.6335 8.60826C22.75 9.47523 22.75 10.5776 22.75 11.9451V16.0549C22.75 17.4225 22.75 18.5248 22.6335 19.3918C22.5125 20.2919 22.2536 21.0497 21.6517 21.6517C21.0497 22.2536 20.2919 22.5125 19.3918 22.6335C18.5248 22.7501 17.4225 22.75 16.0549 22.75L7.94513 22.75C6.57754 22.75 5.47522 22.7501 4.60825 22.6335C3.70814 22.5125 2.95027 22.2536 2.34835 21.6517C1.74643 21.0497 1.48754 20.2919 1.36652 19.3918C1.24996 18.5248 1.24998 17.4225 1.25 16.0549L1.25 11.9451C1.24998 10.5775 1.24996 9.47523 1.36652 8.60826C1.48754 7.70815 1.74643 6.95028 2.34835 6.34836C2.95027 5.74645 3.70814 5.48755 4.60825 5.36654C5.47521 5.24998 6.57753 5.24999 7.94512 5.25001L10.7979 5.25001L8.43056 2.48811C8.16099 2.17361 8.19741 1.70014 8.51191 1.43057C8.8264 1.16101 9.29988 1.19743 9.56944 1.51192L12 4.34757L14.4306 1.51192C14.7001 1.19743 15.1736 1.161 15.4881 1.43057ZM16.75 6.75079L16.75 21.2492C17.7958 21.246 18.5756 21.2297 19.1919 21.1469C19.9257 21.0482 20.3142 20.8678 20.591 20.591C20.8678 20.3142 21.0482 19.9257 21.1469 19.1919C21.2484 18.4365 21.25 17.4354 21.25 16V12C21.25 10.5646 21.2484 9.56348 21.1469 8.80813C21.0482 8.07436 20.8678 7.68578 20.591 7.40902C20.3142 7.13226 19.9257 6.95181 19.1919 6.85316C18.5756 6.77031 17.7958 6.75399 16.75 6.75079ZM15.25 21.25L15.25 6.75001L8 6.75001C6.56458 6.75001 5.56347 6.75161 4.80812 6.85316C4.07435 6.95181 3.68577 7.13226 3.40901 7.40902C3.13225 7.68579 2.9518 8.07436 2.85315 8.80813C2.75159 9.56348 2.75 10.5646 2.75 12L2.75 16C2.75 17.4354 2.75159 18.4365 2.85315 19.1919C2.9518 19.9257 3.13225 20.3142 3.40901 20.591C3.68577 20.8678 4.07435 21.0482 4.80812 21.1469C5.56347 21.2484 6.56459 21.25 8 21.25L15.25 21.25Z" fill="black"/>
<path d="M20 16C20 15.4477 19.5523 15 19 15C18.4477 15 18 15.4477 18 16C18 16.5523 18.4477 17 19 17C19.5523 17 20 16.5523 20 16Z" fill="black"/>
<path d="M20 12C20 11.4477 19.5523 11 19 11C18.4477 11 18 11.4477 18 12C18 12.5523 18.4477 13 19 13C19.5523 13 20 12.5523 20 12Z" fill="black"/>
</svg>
