<svg width="24" height="24" viewBox="0 0 24 24" fill="none" xmlns="http://www.w3.org/2000/svg">
<path d="M10.0002 19C10.0002 15.6863 7.31386 13 4.00015 13C3.33065 13 2.68675 13.1097 2.08545 13.312" stroke="black" stroke-width="1.5" stroke-linecap="round"/>
<path d="M17 8.00008C17 10.9108 19.0727 13.3375 21.8227 13.8846M18.3176 4.24805C18.1278 4.48466 17.9555 4.73597 17.8027 5" stroke="black" stroke-width="1.5" stroke-linecap="round"/>
<path d="M16 16C16 16.5523 15.5523 17 15 17C14.4477 17 14 16.5523 14 16C14 15.4477 14.4477 15 15 15C15.5523 15 16 15.4477 16 16Z" stroke="black" stroke-width="1.5"/>
<path d="M13 8.5C13 7.11929 11.8807 6 10.5 6C9.11929 6 8 7.11929 8 8.5C8 9.88071 9.11929 11 10.5 11" stroke="black" stroke-width="1.5" stroke-linecap="round"/>
<path d="M7 3.33782C8.47087 2.48697 10.1786 2 12 2C17.5228 2 22 6.47715 22 12C22 17.5228 17.5228 22 12 22C6.47715 22 2 17.5228 2 12C2 10.1786 2.48697 8.47087 3.33782 7" stroke="black" stroke-width="1.5" stroke-linecap="round"/>
</svg>
