<svg width="24" height="24" viewBox="0 0 24 24" fill="none" xmlns="http://www.w3.org/2000/svg">
<path d="M6 20.9297C7.17669 21.6104 8.54285 22 10 22C14.4183 22 18 18.4183 18 14C18 9.58172 14.4183 6 10 6C5.58172 6 2 9.58172 2 14C2 15.4571 2.38958 16.8233 3.07026 18" stroke="black" stroke-width="1.5" stroke-linecap="round"/>
<path d="M3 11.0051C3 11.0051 5.28446 13 8.78446 13C11.1667 13 12.4311 11.8179 13.5 11.5038C15.5089 10.9135 17 11.0051 17 11.0051" stroke="black" stroke-width="1.5" stroke-linecap="round"/>
<path d="M3 16.0051C3 16.0051 4.60066 15.9135 6.75723 16.5038C7.90471 16.8179 9.26205 18 11.8193 18C14.1272 18 15.9427 17.2473 17 16.6667" stroke="black" stroke-width="1.5" stroke-linecap="round"/>
<path fill-rule="evenodd" clip-rule="evenodd" d="M20.53 4.04472C20.4934 3.95062 20.4492 3.8581 20.3971 3.76795C20.3451 3.6778 20.2871 3.59323 20.2239 3.51446C20.5502 3.42371 20.7725 3.41806 20.8301 3.51795C20.8878 3.61784 20.7718 3.80745 20.53 4.04472ZM17.1063 6.02144C16.7799 6.11219 16.5577 6.11784 16.5 6.01795C16.4423 5.91806 16.5583 5.72844 16.8001 5.49117C16.8367 5.58528 16.881 5.6778 16.933 5.76795C16.9851 5.8581 17.0431 5.94267 17.1063 6.02144ZM17.1063 6.02144C17.5613 5.89492 18.2188 5.60297 18.9151 5.20096C19.6114 4.79895 20.1929 4.37553 20.53 4.04472C20.882 4.94913 20.5315 5.99976 19.6651 6.5C18.7986 7.00024 17.7135 6.7785 17.1063 6.02144ZM16.8001 5.49117C16.4481 4.58677 16.7986 3.53613 17.6651 3.0359C18.5315 2.53566 19.6166 2.7574 20.2239 3.51446C19.7689 3.64098 19.1114 3.93293 18.4151 4.33494C17.7188 4.73695 17.1372 5.16037 16.8001 5.49117Z" fill="black"/>
</svg>
