<svg width="24" height="24" viewBox="0 0 24 24" fill="none" xmlns="http://www.w3.org/2000/svg">
<path d="M21.9953 13.5202L21.2481 13.5855L21.9953 13.5202ZM11.6958 9.11988L11.7644 8.37303L11.7644 8.37303L11.6958 9.11988ZM2.00472 11.684L2.75187 11.6187L2.00472 11.684ZM21.7428 14.381L21.1343 13.9426L21.1343 13.9426L21.7428 14.381ZM2.09486 12.0645L2.795 11.7956L2.795 11.7956L2.09486 12.0645ZM2.52818 12.7426L3.0878 12.2432L3.0878 12.2432L2.52818 12.7426ZM4.07073 13.8946L3.70888 14.5515L3.70888 14.5515L4.07073 13.8946ZM4.76127 10.2561C5.1599 10.1436 5.39184 9.72919 5.27932 9.33056C5.16679 8.93192 4.75242 8.69998 4.35378 8.81251L4.76127 10.2561ZM7.4702 15.9948C7.87022 16.1023 8.28165 15.8652 8.38917 15.4652C8.49669 15.0652 8.25957 14.6537 7.85955 14.5462L7.4702 15.9948ZM2.25716 10.8233L2.86569 11.2617L2.86569 11.2617L2.25716 10.8233ZM21.9051 13.1397L21.205 13.4086L21.205 13.4086L21.9051 13.1397ZM21.4718 12.4617L20.9122 12.961L20.9122 12.961L21.4718 12.4617ZM19.9293 11.3096L20.2911 10.6527L20.2911 10.6527L19.9293 11.3096ZM16.5298 9.20941C16.1298 9.1019 15.7183 9.33902 15.6108 9.73903C15.5033 10.139 15.7404 10.5505 16.1404 10.658L16.5298 9.20941ZM8.33087 16.2098C8.73441 16.3032 9.13727 16.0518 9.23068 15.6483C9.32409 15.2447 9.07268 14.8419 8.66913 14.7484L8.33087 16.2098ZM18.396 15.1476C17.9896 15.2274 17.7248 15.6217 17.8047 16.0281C17.8846 16.4346 18.2788 16.6993 18.6853 16.6194L18.396 15.1476ZM7.96374 8.2781C7.55001 8.29813 7.23085 8.64976 7.25088 9.06349C7.27091 9.47722 7.62254 9.79638 8.03626 9.77635L7.96374 8.2781ZM22.7424 13.4549C22.6596 12.507 21.9299 11.7294 21.0716 11.1335L20.2162 12.3656C20.9828 12.8979 21.2259 13.3314 21.2481 13.5855L22.7424 13.4549ZM21.0716 11.1335C19.1329 9.78749 15.6203 8.7272 11.7644 8.37303L11.6272 9.86674C15.3616 10.2098 18.58 11.2297 20.2162 12.3656L21.0716 11.1335ZM19.6463 16.3917C20.7988 16.0664 21.8119 15.5682 22.3514 14.8194L21.1343 13.9426C20.9013 14.266 20.3052 14.6471 19.2388 14.9481L19.6463 16.3917ZM22.3514 14.8194C22.6343 14.4267 22.7868 13.9627 22.7424 13.4549L21.2481 13.5855C21.2576 13.6937 21.2327 13.806 21.1343 13.9426L22.3514 14.8194ZM1.25756 11.7493C1.27527 11.9519 1.32326 12.1473 1.39472 12.3334L2.795 11.7956C2.7691 11.7282 2.75632 11.6696 2.75187 11.6187L1.25756 11.7493ZM1.39472 12.3334C1.52223 12.6654 1.72455 12.9684 1.96856 13.2419L3.0878 12.2432C2.93276 12.0695 2.8423 11.9188 2.795 11.7956L1.39472 12.3334ZM1.96856 13.2419C2.40103 13.7266 3.00495 14.1638 3.70888 14.5515L4.43259 13.2377C3.81414 12.897 3.36749 12.5567 3.0878 12.2432L1.96856 13.2419ZM3.70888 14.5515C4.15237 14.7958 4.64619 15.0263 5.18026 15.2405L5.73861 13.8482C5.2518 13.653 4.81442 13.448 4.43259 13.2377L3.70888 14.5515ZM4.35378 8.81251C3.47512 9.06053 2.70631 9.4011 2.15313 9.85549C1.588 10.3197 1.18871 10.9611 1.25756 11.7493L2.75187 11.6187C2.73931 11.4749 2.78788 11.2753 3.10524 11.0146C3.43454 10.7441 3.98285 10.4758 4.76127 10.2561L4.35378 8.81251ZM21.0716 11.1335C20.4541 10.7047 19.6876 10.3118 18.8198 9.96378L18.2615 11.356C19.0574 11.6752 19.7165 12.0187 20.2162 12.3656L21.0716 11.1335ZM3.70887 14.5515C4.72605 15.1118 6.017 15.6042 7.4702 15.9948L7.85955 14.5462C6.48709 14.1773 5.31601 13.7243 4.43259 13.2377L3.70887 14.5515ZM1.25756 11.7493C1.34037 12.6972 2.07003 13.4748 2.92837 14.0708L3.78382 12.8386C3.01723 12.3064 2.77407 11.8728 2.75187 11.6187L1.25756 11.7493ZM4.35378 8.81251C3.20132 9.13781 2.18807 9.63607 1.64863 10.3849L2.86569 11.2617C3.0987 10.9382 3.69484 10.5571 4.76127 10.2561L4.35378 8.81251ZM1.64863 10.3849C1.36577 10.7775 1.2132 11.2414 1.25756 11.7493L2.75187 11.6187C2.74242 11.5105 2.76726 11.3983 2.86569 11.2617L1.64863 10.3849ZM22.7424 13.4549C22.7247 13.2522 22.6767 13.0569 22.6053 12.8708L21.205 13.4086C21.2309 13.4761 21.2437 13.5346 21.2481 13.5855L22.7424 13.4549ZM22.6053 12.8708C22.4778 12.5388 22.2754 12.2358 22.0314 11.9623L20.9122 12.961C21.0672 13.1348 21.1577 13.2855 21.205 13.4086L22.6053 12.8708ZM22.0314 11.9623C21.599 11.4777 20.995 11.0404 20.2911 10.6527L19.5674 11.9666C20.1859 12.3072 20.6325 12.6475 20.9122 12.961L22.0314 11.9623ZM20.2911 10.6527C19.8476 10.4084 19.3539 10.178 18.8198 9.96378L18.2615 11.356C18.7482 11.5512 19.1856 11.7562 19.5674 11.9666L20.2911 10.6527ZM19.6463 16.3917C20.525 16.1437 21.2937 15.8031 21.8469 15.3487C22.412 14.8845 22.8113 14.2431 22.7424 13.4549L21.2481 13.5855C21.2607 13.7293 21.2121 13.9289 20.8948 14.1896C20.5655 14.4601 20.0172 14.7284 19.2388 14.9481L19.6463 16.3917ZM2.92837 14.0708C3.54595 14.4995 4.3125 14.8924 5.18026 15.2405L5.73861 13.8482C4.94263 13.529 4.28349 13.1855 3.78381 12.8386L2.92837 14.0708ZM20.2911 10.6527C19.274 10.0924 17.983 9.6 16.5298 9.20941L16.1404 10.658C17.5129 11.0269 18.684 11.4799 19.5674 11.9666L20.2911 10.6527ZM2.92837 14.0708C4.19478 14.95 6.11586 15.6971 8.33087 16.2098L8.66913 14.7484C6.54758 14.2574 4.83166 13.5661 3.78382 12.8386L2.92837 14.0708ZM18.6853 16.6194C19.8304 16.3943 20.8262 16.0508 21.5432 15.573C22.2607 15.0948 22.8237 14.3848 22.7424 13.4549L21.2481 13.5855C21.2621 13.746 21.1959 14.0018 20.7114 14.3248C20.2263 14.6481 19.4472 14.941 18.396 15.1476L18.6853 16.6194ZM11.7644 8.37303C10.4184 8.24939 9.13637 8.22134 7.96374 8.2781L8.03626 9.77635C9.1339 9.72321 10.3456 9.74902 11.6272 9.86674L11.7644 8.37303Z" fill="black"/>
<path d="M15.2744 4.85061C15.5336 4.68703 15.7852 4.54535 16.0274 4.42706C16.9081 3.99692 17.6637 3.87605 18.2019 4.13627C18.4777 4.26963 18.6797 4.495 18.8114 4.79847C18.9345 5.08191 18.9963 5.43347 18.9998 5.84181M15.2744 4.85061C13.46 5.99564 11.2763 8.21359 9.38191 10.9923M15.2744 4.85061C14.8855 5.09602 14.4797 5.39073 14.0634 5.72967M6.78798 20.8588C6.79135 20.8604 6.79472 20.8621 6.79811 20.8637C6.91163 20.9186 7.03483 20.9566 7.16684 20.9782C7.40386 21.0171 7.66929 21.0035 7.95811 20.9412C8.47355 20.8302 9.06346 20.5644 9.69933 20.1659C9.84815 20.0727 9.9995 19.9721 10.153 19.8646C10.4088 19.6855 10.6706 19.4869 10.9367 19.2703L12.1115 18.3157M6.78798 20.8588C5.96226 20.4501 5.80688 19.2073 6.22201 17.5113M6.78798 20.8588C5.4601 20.2015 5.86563 17.3872 7.58996 14M18.7781 7.48866C18.9285 6.87418 19.004 6.31919 18.9998 5.84181M18.9998 5.84181C19.0073 6.69799 18.7585 7.80381 18.281 9.05476" stroke="black" stroke-width="1.5" stroke-linecap="round"/>
<path d="M11.7647 14.2813C11.7509 13.3709 11.7441 12.9157 12.0311 12.75C12.3181 12.5843 12.7089 12.8178 13.4905 13.2849L13.6927 13.4058C13.9148 13.5385 14.0258 13.6048 14.1481 13.6203C14.2705 13.6358 14.3902 13.5986 14.6298 13.5242L14.8479 13.4565C15.6908 13.1947 16.1123 13.0638 16.3656 13.2978C16.619 13.5318 16.5364 13.9757 16.3713 14.8635L16.3286 15.0932C16.2817 15.3455 16.2582 15.4716 16.286 15.5949C16.3139 15.7181 16.3898 15.8245 16.5418 16.0372L16.6801 16.2309C17.2148 16.9795 17.4821 17.3538 17.3517 17.6641C17.2213 17.9745 16.7794 18.0153 15.8958 18.0969L15.6672 18.118C15.4161 18.1412 15.2906 18.1528 15.1854 18.2135C15.0803 18.2742 15.0075 18.3771 14.8619 18.583L14.7293 18.7704C14.2168 19.4948 13.9605 19.8571 13.6266 19.8148C13.2926 19.7726 13.1021 19.354 12.7211 18.5166L12.6226 18.3C12.5143 18.062 12.4602 17.943 12.3674 17.8573C12.2745 17.7716 12.1536 17.7288 11.9116 17.6433L11.6914 17.5655C10.8399 17.2646 10.4142 17.1141 10.3383 16.7777C10.2623 16.4413 10.5864 16.1418 11.2345 15.5426L11.4022 15.3876C11.5864 15.2174 11.6785 15.1322 11.7263 15.0186C11.774 14.9049 11.7721 14.7755 11.7682 14.5168L11.7647 14.2813Z" stroke="black" stroke-width="1.5"/>
</svg>
