<svg width="24" height="24" viewBox="0 0 24 24" fill="none" xmlns="http://www.w3.org/2000/svg">
<path d="M9.21255 10.1735L11.2276 8.56885C12.5301 7.5316 13.1814 7.01298 13.5907 7.26913C14 7.52528 13.7875 8.31846 13.3625 9.90481L13.3224 10.0544C13.1691 10.6266 13.0924 10.9126 13.2271 11.1411L13.2343 11.153C13.374 11.3787 13.6718 11.4584 14.2673 11.618C15.3389 11.9051 15.8747 12.0487 15.9687 12.4222C15.9703 12.4284 15.9718 12.4346 15.9731 12.4409C16.0556 12.8167 15.6329 13.1533 14.7875 13.8266L12.7725 15.4312C11.4699 16.4684 10.8186 16.9871 10.4093 16.7309C9.99997 16.4748 10.2125 15.6816 10.6376 14.0952L10.6777 13.9457C10.831 13.3735 10.9077 13.0874 10.7729 12.859L10.7657 12.8471C10.626 12.6214 10.3283 12.5416 9.73277 12.3821C8.66114 12.0949 8.12532 11.9514 8.03132 11.5778C8.02976 11.5716 8.0283 11.5654 8.02694 11.5592C7.94442 11.1834 8.36713 10.8468 9.21255 10.1735Z" stroke="black" stroke-width="1.5"/>
<path d="M2 12C2 6.47715 6.47715 2 12 2C17.5228 2 22 6.47715 22 12C22 17.5228 17.5228 22 12 22C6.47715 22 2 17.5228 2 12Z" stroke="black" stroke-width="1.5"/>
</svg>
