<svg width="24" height="24" viewBox="0 0 24 24" fill="none" xmlns="http://www.w3.org/2000/svg">
<path d="M22.5303 2.53033C22.8232 2.23743 22.8232 1.76256 22.5303 1.46967C22.2374 1.17678 21.7626 1.17678 21.4697 1.46967L22.5303 2.53033ZM3.18962 12.6295L3.83038 12.2397L3.18962 12.6295ZM2.44853 11.4113L1.78052 11.7523L1.79324 11.7772L1.80778 11.8011L2.44853 11.4113ZM4.11001 5.99717L4.46019 6.6604L4.46019 6.6604L4.11001 5.99717ZM7.17896 4.718L7.38511 5.43912L7.38511 5.43912L7.17896 4.718ZM13.1415 4.14265L13.6718 3.61232L13.4883 3.42879L13.2306 3.39796L13.1415 4.14265ZM11.3703 20.8103L11.7601 20.1695L11.7601 20.1695L11.3703 20.8103ZM12.5886 21.5515L12.1989 22.1922L12.2227 22.2068L12.2477 22.2195L12.5886 21.5515ZM18.0027 19.89L17.3395 19.5398L17.3395 19.5398L18.0027 19.89ZM19.2819 16.821L20.003 17.0272L20.003 17.0272L19.2819 16.821ZM19.8572 10.8584L20.6019 10.7694L20.5711 10.5117L20.3876 10.3281L19.8572 10.8584ZM21.4697 1.46967L19.1123 3.82709L20.1729 4.88775L22.5303 2.53033L21.4697 1.46967ZM13.8865 4.88783C15.3296 3.44475 17.6692 3.44471 19.1123 4.88775L20.1729 3.82709C18.1441 1.79822 14.8547 1.79834 12.8259 3.82718L13.8865 4.88783ZM19.1123 4.88775C20.5553 6.33083 20.5554 8.67058 19.1123 10.1136L20.173 11.1743C22.2018 9.14543 22.2018 5.85593 20.1729 3.82709L19.1123 4.88775ZM3.83038 12.2397L3.08928 11.0215L1.80778 11.8011L2.54887 13.0193L3.83038 12.2397ZM4.46019 6.6604C5.38214 6.17361 6.39541 5.72205 7.38511 5.43912L6.97281 3.99689C5.84911 4.31813 4.73552 4.81877 3.75982 5.33394L4.46019 6.6604ZM7.38511 5.43912C8.89779 5.00667 10.323 4.86844 11.3726 4.83937C11.8962 4.82488 12.3228 4.83762 12.6157 4.85368C12.762 4.8617 12.8747 4.87053 12.9491 4.87716C12.9863 4.88047 13.0139 4.88323 13.0313 4.88505C13.04 4.88596 13.0462 4.88664 13.0497 4.88704C13.0515 4.88724 13.0526 4.88737 13.0531 4.88742C13.0533 4.88745 13.0533 4.88745 13.0532 4.88744C13.0532 4.88744 13.0531 4.88742 13.053 4.88741C13.0529 4.8874 13.0528 4.88738 13.0527 4.88738C13.0526 4.88736 13.0524 4.88734 13.1415 4.14265C13.2306 3.39796 13.2304 3.39794 13.2302 3.39792C13.2301 3.39791 13.2299 3.39788 13.2298 3.39787C13.2295 3.39783 13.2291 3.39779 13.2287 3.39774C13.2279 3.39765 13.227 3.39754 13.2259 3.39741C13.2236 3.39715 13.2207 3.39681 13.2171 3.39641C13.2099 3.3956 13.2 3.39452 13.1876 3.39321C13.1627 3.3906 13.1273 3.38709 13.0822 3.38307C12.9918 3.37503 12.8621 3.36494 12.6978 3.35593C12.3692 3.33791 11.901 3.32417 11.3311 3.33995C10.1939 3.37145 8.63787 3.52089 6.97281 3.99689L7.38511 5.43912ZM3.11654 11.0703C2.31838 9.50665 2.84439 7.51354 4.46019 6.6604L3.75982 5.33394C1.35962 6.60124 0.640476 9.51882 1.78052 11.7523L3.11654 11.0703ZM10.9805 21.451L12.1989 22.1922L12.9784 20.9107L11.7601 20.1695L10.9805 21.451ZM18.666 20.2402C19.1811 19.2645 19.6818 18.1509 20.003 17.0272L18.5608 16.6149C18.2779 17.6046 17.8263 18.6178 17.3395 19.5398L18.666 20.2402ZM20.003 17.0272C20.479 15.3621 20.6285 13.8061 20.6599 12.6688C20.6757 12.0989 20.662 11.6307 20.644 11.3022C20.635 11.1378 20.6249 11.0081 20.6168 10.9178C20.6128 10.8726 20.6093 10.8373 20.6067 10.8124C20.6054 10.7999 20.6043 10.79 20.6035 10.7828C20.6031 10.7793 20.6028 10.7763 20.6025 10.7741C20.6024 10.773 20.6022 10.772 20.6022 10.7712C20.6021 10.7708 20.6021 10.7705 20.602 10.7702C20.602 10.77 20.602 10.7698 20.602 10.7697C20.602 10.7696 20.6019 10.7694 19.8572 10.8584C19.1126 10.9475 19.1125 10.9474 19.1125 10.9472C19.1125 10.9472 19.1125 10.947 19.1125 10.947C19.1125 10.9468 19.1125 10.9467 19.1125 10.9467C19.1124 10.9466 19.1125 10.9466 19.1125 10.9469C19.1125 10.9473 19.1127 10.9484 19.1129 10.9502C19.1133 10.9538 19.1139 10.9599 19.1148 10.9686C19.1167 10.9861 19.1194 11.0136 19.1227 11.0508C19.1294 11.1252 19.1382 11.2379 19.1462 11.3843C19.1623 11.6772 19.175 12.1038 19.1605 12.6273C19.1315 13.6769 18.9932 15.1022 18.5608 16.6149L20.003 17.0272ZM12.2477 22.2195C14.4811 23.3595 17.3987 22.6404 18.666 20.2402L17.3395 19.5398C16.4864 21.1556 14.4933 21.6816 12.9296 20.8835L12.2477 22.2195ZM12.6112 4.67298L19.3269 11.3888L20.3876 10.3281L13.6718 3.61232L12.6112 4.67298ZM2.54887 13.0193C4.64437 16.464 7.53587 19.3555 10.9805 21.451L11.7601 20.1695C8.52051 18.1988 5.80113 15.4794 3.83038 12.2397L2.54887 13.0193Z" fill="black"/>
</svg>
