<svg width="24" height="24" viewBox="0 0 24 24" fill="none" xmlns="http://www.w3.org/2000/svg">
<path d="M12.5 5C14.3856 5 15.3284 5 15.9142 5.58579C16.5 6.17157 16.5 7.11438 16.5 9V15C16.5 16.8856 16.5 17.8284 15.9142 18.4142C15.3284 19 14.3856 19 12.5 19H11.5C9.61438 19 8.67157 19 8.08579 18.4142C7.5 17.8284 7.5 16.8856 7.5 15L7.5 9C7.5 7.11438 7.5 6.17157 8.08579 5.58579C8.67157 5 9.61438 5 11.5 5L12.5 5Z" stroke="black" stroke-width="1.5"/>
<path d="M22 19H21.5C20.1193 19 19 17.8807 19 16.5L19 7.5C19 6.11929 20.1193 5 21.5 5L22 5" stroke="black" stroke-width="1.5" stroke-linecap="round"/>
<path d="M2 19H2.5C3.88071 19 5 17.8807 5 16.5L5 7.5C5 6.11929 3.88071 5 2.5 5L2 5" stroke="black" stroke-width="1.5" stroke-linecap="round"/>
</svg>
