<svg width="24" height="24" viewBox="0 0 24 24" fill="none" xmlns="http://www.w3.org/2000/svg">
<path d="M5 9C4.06812 9 3.60218 9 3.23463 9.15224C2.74458 9.35523 2.35523 9.74458 2.15224 10.2346C2 10.6022 2 11.0681 2 12C2 12.9319 2 13.3978 2.15224 13.7654C2.35523 14.2554 2.74458 14.6448 3.23463 14.8478C3.60218 15 4.06812 15 5 15M5 9C4.06812 9 3.60218 9 3.23463 8.84776C2.74458 8.64477 2.35523 8.25542 2.15224 7.76537C2 7.39782 2 6.93188 2 6C2 5.06812 2 4.60218 2.15224 4.23463C2.35523 3.74458 2.74458 3.35523 3.23463 3.15224C3.60218 3 4.06812 3 5 3H12.2679M5 9H12M19 9C19.9319 9 20.3978 9 20.7654 9.15224C21.2554 9.35523 21.6448 9.74458 21.8478 10.2346C22 10.6022 22 11.0681 22 12C22 12.9319 22 13.3978 21.8478 13.7654C21.6448 14.2554 21.2554 14.6448 20.7654 14.8478C20.3978 15 19.9319 15 19 15M19 9C19.9319 9 20.3978 9 20.7654 8.84776C21.2554 8.64477 21.6448 8.25542 21.8478 7.76537C22 7.39782 22 6.93188 22 6C22 5.06812 22 4.60218 21.8478 4.23463C21.6448 3.74458 21.2554 3.35523 20.7654 3.15224C20.3978 3 19.9319 3 19 3H17.7321M19 9H18M19 15C19.9319 15 20.3978 15 20.7654 15.1522C21.2554 15.3552 21.6448 15.7446 21.8478 16.2346C22 16.6022 22 17.0681 22 18C22 18.9319 22 19.3978 21.8478 19.7654C21.6448 20.2554 21.2554 20.6448 20.7654 20.8478C20.3978 21 19.9319 21 19 21H17.7321M19 15H18M5 15C4.06812 15 3.60218 15 3.23463 15.1522C2.74458 15.3552 2.35523 15.7446 2.15224 16.2346C2 16.6022 2 17.0681 2 18C2 18.9319 2 19.3978 2.15224 19.7654C2.35523 20.2554 2.74458 20.6448 3.23463 20.8478C3.60218 21 4.06812 21 5 21H12.2679M5 15H12M12.2679 3C12.2245 3.07519 12.1858 3.15353 12.1522 3.23463C12 3.60218 12 4.06812 12 5V9M12.2679 3C12.4869 2.62082 12.8257 2.32164 13.2346 2.15224C13.6022 2 14.0681 2 15 2C15.9319 2 16.3978 2 16.7654 2.15224C17.1743 2.32164 17.5131 2.62082 17.7321 3M17.7321 3C17.7755 3.07519 17.8142 3.15353 17.8478 3.23463C18 3.60218 18 4.06812 18 5V9M18 9L18 15M12 9V15M18 15V19C18 19.9319 18 20.3978 17.8478 20.7654C17.8142 20.8465 17.7755 20.9248 17.7321 21M12 15L12 19C12 19.9319 12 20.3978 12.1522 20.7654C12.1858 20.8465 12.2245 20.9248 12.2679 21M12.2679 21C12.4869 21.3792 12.8257 21.6784 13.2346 21.8478C13.6022 22 14.0681 22 15 22C15.9319 22 16.3978 22 16.7654 21.8478C17.1743 21.6784 17.5131 21.3792 17.7321 21" stroke="black" stroke-width="1.5"/>
<path d="M15 11L15 13" stroke="black" stroke-width="1.5" stroke-linecap="round"/>
</svg>
