<svg width="24" height="24" viewBox="0 0 24 24" fill="none" xmlns="http://www.w3.org/2000/svg">
<circle opacity="0.5" cx="12" cy="12" r="10" fill="black"/>
<path d="M8.57516 9.44737C8.3879 7.36316 6.7806 5.42105 6.00035 4.71053L5.56934 4.34189C7.30792 2.88037 9.55133 2 12.0004 2C14.2137 2 16.2592 2.7191 17.9158 3.93642C18.1498 4.64695 17.704 6.13158 17.2359 6.84211C17.0663 7.09947 16.6818 7.41898 16.2602 7.72186C15.3097 8.40477 14.1102 8.74254 13.5004 10C13.326 10.3595 13.3335 10.7108 13.4173 11.0163C13.4776 11.2358 13.5161 11.4745 13.5167 11.708C13.5187 12.4629 12.7552 13.0082 12.0004 13C10.0361 12.9786 8.7502 11.3955 8.57516 9.44737Z" fill="black"/>
<path d="M13.4365 18.2761C14.4246 16.414 17.7182 16.414 17.7182 16.414C21.1502 16.3782 21.6138 14.2944 21.9237 13.2412C21.369 17.7226 17.8494 21.2849 13.3885 21.9046C13.0659 21.2256 12.6837 19.6946 13.4365 18.2761Z" fill="black"/>
</svg>
