<svg width="24" height="24" viewBox="0 0 24 24" fill="none" xmlns="http://www.w3.org/2000/svg">
<path fill-rule="evenodd" clip-rule="evenodd" d="M2.75 12C2.75 9.65279 4.65279 7.75 7 7.75C7.95781 7.75 8.83967 8.06595 9.54998 8.59962C9.88114 8.84843 10.3513 8.78167 10.6001 8.45051C10.8489 8.11935 10.7822 7.64919 10.451 7.40038C9.48982 6.67823 8.29384 6.25 7 6.25C3.82436 6.25 1.25 8.82436 1.25 12C1.25 15.1756 3.82436 17.75 7 17.75C7.78382 17.75 8.4636 17.6073 9.06381 17.3148C9.66335 17.0227 10.1427 16.601 10.553 16.1005C11.2127 15.2959 11.7486 14.2063 12.3293 13.0259C12.3858 12.9109 12.5271 12.6233 12.668 12.3371C12.8508 11.9654 12.6997 11.5144 12.3292 11.3292C11.9587 11.1439 11.5091 11.2945 11.326 11.6661C11.1751 11.9724 11.0215 12.2847 10.9602 12.409C10.3762 13.5925 9.93306 14.4908 9.39303 15.1495C9.08603 15.524 8.76923 15.7898 8.40677 15.9664C8.04496 16.1427 7.59689 16.25 7 16.25C4.65279 16.25 2.75 14.3472 2.75 12Z" fill="black"/>
<path opacity="0.5" d="M12.6691 12.3346C12.8501 11.9634 12.6988 11.514 12.3292 11.3292C11.977 11.1531 11.5532 11.2805 11.355 11.6127C11.4623 11.3977 11.5672 11.1844 11.6706 10.9741C12.2513 9.7937 12.7872 8.70415 13.4469 7.89951C13.8572 7.39899 14.3365 6.97729 14.9361 6.68515C15.5363 6.3927 16.2161 6.25 16.9999 6.25C20.1755 6.25 22.7499 8.82436 22.7499 12C22.7499 15.1756 20.1755 17.75 16.9999 17.75C15.7061 17.75 14.5104 17.3216 13.5494 16.5997C13.2183 16.3509 13.1515 15.8807 13.4002 15.5495C13.649 15.2184 14.1192 15.1516 14.4504 15.4003C15.1607 15.934 16.0423 16.25 16.9999 16.25C19.3471 16.25 21.2499 14.3472 21.2499 12C21.2499 9.65279 19.3471 7.75 16.9999 7.75C16.403 7.75 15.9549 7.8573 15.5931 8.0336C15.2307 8.21021 14.9139 8.47601 14.6069 8.85049C14.0668 9.50924 13.6237 10.4075 13.0397 11.591C12.923 11.8276 12.8006 12.0757 12.6707 12.3354L12.6691 12.3346Z" fill="black"/>
</svg>
