<svg width="24" height="24" viewBox="0 0 24 24" fill="none" xmlns="http://www.w3.org/2000/svg">
<path d="M17.2024 17.4864C15.9289 18.0707 13.8858 18.75 11.8194 18.75C10.4153 18.75 9.33689 18.4232 8.47087 18.0619C8.13768 17.9229 7.82843 17.7752 7.55929 17.6467C7.48749 17.6124 7.41852 17.5795 7.35274 17.5484C7.02446 17.3936 6.77682 17.2868 6.55927 17.2272C5.54529 16.9497 4.5345 16.829 3.77076 16.7788C3.39067 16.7538 3.07603 16.7466 2.85826 16.7455C2.74947 16.7449 2.66512 16.746 2.60917 16.747C2.5812 16.7476 2.56036 16.7482 2.54712 16.7486L2.53306 16.749L2.5308 16.7491L2.4856 16.751C3.60727 19.814 6.54838 22 10 22C13.1685 22 15.9068 20.158 17.2024 17.4864Z" fill="black"/>
<path d="M3.04324 10.0472L3.49206 10.4391L3.49316 10.44L3.50583 10.4507C3.51852 10.4612 3.53964 10.4785 3.56891 10.5015C3.62749 10.5476 3.71854 10.6167 3.83996 10.7011C4.08314 10.8703 4.44609 11.0998 4.9122 11.3303C5.84604 11.792 7.17795 12.25 8.78451 12.25C9.84076 12.25 10.6464 11.9906 11.3282 11.6852C11.601 11.563 11.8456 11.4377 12.0921 11.3114C12.1638 11.2747 12.2357 11.2378 12.3085 11.201C12.6144 11.0461 12.9485 10.8842 13.2886 10.7843C14.3506 10.4722 15.2771 10.3399 15.9424 10.2856C16.2754 10.2584 16.5441 10.2508 16.7329 10.2501C16.8273 10.2497 16.9019 10.2511 16.9547 10.2527C16.9811 10.2535 17.0021 10.2543 17.0174 10.2551L17.0361 10.256L17.0421 10.2563L17.0444 10.2565L17.0457 10.2565L17.0728 10.2582C15.7301 7.72533 13.0665 6 10 6C7.01949 6 4.41964 7.62997 3.04324 10.0472Z" fill="black"/>
<path opacity="0.5" d="M17.8457 15.571C17.9469 15.0629 18 14.5374 18 13.9995C18 13.2362 17.8931 12.4979 17.6935 11.7987L16.9557 11.7533L16.9546 11.7533L16.9482 11.753C16.9406 11.7526 16.9276 11.7521 16.9093 11.7515C16.8727 11.7504 16.8151 11.7493 16.7384 11.7496C16.5849 11.7501 16.3552 11.7564 16.0643 11.7802C15.4818 11.8277 14.6584 11.9447 13.7114 12.2229C13.5171 12.28 13.2923 12.3837 12.9861 12.5387C12.9253 12.5695 12.8615 12.6022 12.7949 12.6363C12.5441 12.7649 12.2537 12.9138 11.9413 13.0537C11.1281 13.4179 10.1104 13.7495 8.78446 13.7495C6.89102 13.7495 5.33071 13.2101 4.24731 12.6744C3.70481 12.4061 3.27789 12.1369 2.98336 11.932C2.83593 11.8295 2.72115 11.7427 2.64113 11.6797C2.6011 11.6482 2.56972 11.6226 2.54724 11.6039L2.52021 11.5812L2.51175 11.574L2.50879 11.5714L2.50764 11.5704C2.50764 11.5704 2.50669 11.5696 2.99213 11.0137L2.50669 11.5696L2.40466 11.4805C2.14212 12.2725 2 13.1194 2 13.9995C2 14.4302 2.03403 14.8529 2.09954 15.2651L2.46925 15.2499L2.5 15.9993C2.46925 15.2499 2.46925 15.2499 2.46925 15.2499L2.47058 15.2498L2.47268 15.2498L2.47917 15.2495L2.50116 15.2488C2.51975 15.2482 2.54614 15.2475 2.57983 15.2469C2.64718 15.2455 2.7438 15.2444 2.86564 15.245C3.10913 15.2462 3.45444 15.2543 3.86909 15.2816C4.69483 15.3358 5.81265 15.4672 6.95524 15.78C7.31143 15.8775 7.66377 16.0362 7.99263 16.1913C8.06997 16.2278 8.14661 16.2644 8.22325 16.301C8.48817 16.4274 8.75347 16.554 9.04839 16.6771C9.78723 16.9853 10.6661 17.2495 11.8193 17.2495C13.9606 17.2495 16.1505 16.385 17.139 15.8421L17.7963 15.4811L17.8457 15.571Z" fill="black"/>
<path opacity="0.5" fill-rule="evenodd" clip-rule="evenodd" d="M20.53 4.04472C20.4934 3.95062 20.4492 3.8581 20.3971 3.76795C20.3451 3.6778 20.2871 3.59323 20.2239 3.51446C20.5502 3.42371 20.7725 3.41806 20.8301 3.51795C20.8878 3.61784 20.7718 3.80745 20.53 4.04472ZM17.1063 6.02144C16.7799 6.11219 16.5577 6.11784 16.5 6.01795C16.4423 5.91806 16.5583 5.72844 16.8001 5.49117C16.8367 5.58528 16.881 5.6778 16.933 5.76795C16.9851 5.8581 17.0431 5.94267 17.1063 6.02144ZM17.1063 6.02144C17.5613 5.89492 18.2188 5.60297 18.9151 5.20096C19.6114 4.79895 20.1929 4.37553 20.53 4.04472C20.882 4.94913 20.5315 5.99976 19.6651 6.5C18.7986 7.00024 17.7135 6.7785 17.1063 6.02144ZM16.8001 5.49117C16.4481 4.58677 16.7986 3.53613 17.6651 3.0359C18.5315 2.53566 19.6166 2.7574 20.2239 3.51446C19.7689 3.64098 19.1114 3.93293 18.4151 4.33494C17.7188 4.73695 17.1372 5.16037 16.8001 5.49117Z" fill="black"/>
</svg>
