<svg width="24" height="24" viewBox="0 0 24 24" fill="none" xmlns="http://www.w3.org/2000/svg">
<path d="M21.206 15.9119C20.9924 15.9989 20.7568 16.1 20.4949 16.2127L20.4847 16.217C19.9985 16.4262 19.4403 16.6663 18.8316 16.8912C17.6048 17.3446 16.1385 17.7502 14.5093 17.7502C12.6961 17.7502 11.3066 17.2655 10.192 16.731C9.76181 16.5247 9.36366 16.3062 9.01276 16.1136C8.91857 16.0619 8.82748 16.0119 8.74039 15.9647C8.311 15.7319 7.97623 15.5652 7.67813 15.4714C6.34042 15.0505 5.04885 14.8691 4.08775 14.7938C3.60865 14.7563 3.21535 14.7454 2.94425 14.7439C2.80879 14.7431 2.70411 14.7446 2.63477 14.7463C2.60011 14.7471 2.5743 14.748 2.55793 14.7486L2.54052 14.7493L2.53771 14.7494L2.38501 14.7571C3.58196 18.9391 7.43358 22 12.0001 22C16.1348 22 19.6834 19.4907 21.206 15.9119Z" fill="black"/>
<path d="M3.237 7.17868L3.53419 7.48144L3.53734 7.48459L3.55606 7.50294C3.57403 7.52036 3.60288 7.54786 3.64226 7.58403C3.72107 7.6564 3.84183 7.76321 4.00184 7.89306C4.32231 8.15313 4.7975 8.50343 5.40584 8.85435C6.62513 9.55771 8.35523 10.2501 10.4372 10.2501C11.8108 10.2501 12.8623 9.85611 13.7544 9.38998C14.1095 9.20444 14.4293 9.01331 14.7469 8.82347C14.8385 8.76869 14.93 8.71401 15.0221 8.6596C15.4143 8.42789 15.8328 8.1918 16.2568 8.04645C17.6129 7.58156 18.797 7.38416 19.6475 7.30323C20.0731 7.26273 20.4162 7.25129 20.6568 7.25025C20.7106 7.25002 20.7593 7.25031 20.8026 7.2509C19.1121 4.12408 15.8042 2 12.0001 2C8.22541 2 4.93919 4.09141 3.237 7.17868Z" fill="black"/>
<path opacity="0.5" d="M21.7753 14.1179C21.9225 13.4352 22 12.7267 22 12.0001C22 10.8787 21.8154 9.80039 21.475 8.79394L20.9481 8.75617L20.947 8.75609L20.9374 8.75555C20.9272 8.755 20.91 8.75416 20.886 8.75332C20.838 8.75162 20.7629 8.74988 20.6632 8.75032C20.4637 8.75118 20.1661 8.76073 19.7895 8.79656C19.0358 8.86828 17.9699 9.04491 16.7431 9.46547C16.4799 9.55569 16.1798 9.71791 15.785 9.95116C15.7058 9.99794 15.623 10.0474 15.537 10.0989C15.2148 10.2916 14.8462 10.512 14.449 10.7195C13.419 11.2577 12.1263 11.7502 10.437 11.7502C8.01897 11.7502 6.03049 10.9465 4.65621 10.1537C3.96776 9.75661 3.4274 9.35884 3.05652 9.05786C2.87086 8.90719 2.727 8.78023 2.62761 8.68896C2.60946 8.67229 2.59278 8.65681 2.5776 8.64258C2.20363 9.692 2 10.8223 2 12.0001C2 12.4305 2.02719 12.8545 2.07994 13.2706L2.46407 13.2513L2.46666 13.2512L2.47465 13.2508L2.50174 13.2497C2.52466 13.2489 2.55722 13.2478 2.59884 13.2468C2.68207 13.2448 2.80162 13.2431 2.95282 13.244C3.25506 13.2457 3.68485 13.2578 4.20473 13.2985C5.24158 13.3796 6.65156 13.576 8.1282 14.0406C8.57883 14.1824 9.02704 14.414 9.45523 14.6461C9.5548 14.7001 9.65396 14.7545 9.75352 14.8091C10.0999 14.9991 10.4512 15.1918 10.8405 15.3786C11.8204 15.8484 12.9851 16.2503 14.5092 16.2503C15.8918 16.2503 17.1709 15.9059 18.3115 15.4843C18.8824 15.2734 19.4099 15.0465 19.9021 14.8348L19.9204 14.8269C20.3949 14.6228 20.8566 14.4242 21.2628 14.2888L21.7753 14.1179Z" fill="black"/>
</svg>
