<svg width="24" height="24" viewBox="0 0 24 24" fill="none" xmlns="http://www.w3.org/2000/svg">
<path opacity="0.5" d="M20 12C20 16.4183 16.4183 20 12 20C7.58172 20 4 16.4183 4 12C4 7.58172 7.58172 4 12 4C16.4183 4 20 7.58172 20 12Z" fill="black"/>
<path d="M19.0089 6.78351C19.4214 6.74555 19.725 6.3804 19.687 5.96793C19.6491 5.55546 19.2839 5.25186 18.8714 5.28983C18.4476 5.32883 17.9974 5.39589 17.5264 5.48872C17.3268 5.52805 17.1614 5.6432 17.0543 5.79836L18.1716 6.89509C18.4671 6.8448 18.7467 6.80765 19.0089 6.78351Z" fill="black"/>
<path fill-rule="evenodd" clip-rule="evenodd" d="M20.9369 5.37875C20.5338 5.28329 20.1297 5.53264 20.0342 5.9357C19.9388 6.33876 20.1881 6.7429 20.5912 6.83837C20.9852 6.9317 21.137 7.07076 21.1934 7.16093C21.2568 7.2622 21.3265 7.52683 21.0366 8.10889C20.8519 8.47965 21.0027 8.92993 21.3735 9.11461C21.7442 9.2993 22.1945 9.14845 22.3792 8.77769C22.7569 8.01954 22.9424 7.12837 22.465 6.36534C22.1209 5.81525 21.5418 5.52203 20.9369 5.37875ZM20.7121 10.9607C21.0039 10.6667 21.0022 10.1918 20.7083 9.9C20.4143 9.60817 19.9395 9.60987 19.6476 9.90382C18.9612 10.5952 18.08 11.3332 17.039 12.0748C16.7017 12.3152 16.623 12.7835 16.8634 13.1208C17.1037 13.4582 17.572 13.5368 17.9094 13.2965C19.0038 12.5167 19.9535 11.7247 20.7121 10.9607ZM3.5872 14.947C3.78874 14.6947 4.02453 14.4301 4.2934 14.1559L4.0555 12.8257C3.8002 12.7504 3.51277 12.8137 3.31161 13.0154C2.97676 13.3512 2.67621 13.6841 2.41524 14.0108C2.15671 14.3344 2.20949 14.8064 2.53311 15.0649C2.85674 15.3234 3.32867 15.2707 3.5872 14.947ZM15.7507 14.7035C16.1062 14.491 16.2221 14.0304 16.0095 13.6749C15.7969 13.3194 15.3364 13.2035 14.9809 13.4161C14.4993 13.704 13.9976 13.9877 13.4783 14.2643C12.9448 14.5486 12.4135 14.8144 11.8885 15.061C11.5136 15.2371 11.3524 15.6838 11.5286 16.0587C11.7047 16.4336 12.1514 16.5948 12.5263 16.4187C13.0741 16.1613 13.6279 15.8842 14.1836 15.5882C14.7245 15.3 15.2477 15.0043 15.7507 14.7035ZM2.81505 16.2496C2.94082 15.855 2.72283 15.4331 2.32817 15.3073C1.93351 15.1816 1.51162 15.3996 1.38586 15.7942C1.19416 16.3958 1.17378 17.0568 1.53513 17.6344C1.98799 18.3582 2.84178 18.6408 3.68932 18.7219C4.10165 18.7614 4.4679 18.4591 4.50736 18.0468C4.54683 17.6345 4.24456 17.2682 3.83223 17.2288C3.13788 17.1623 2.88379 16.9619 2.80675 16.8388C2.75703 16.7593 2.70503 16.5949 2.81505 16.2496ZM10.0832 17.4524C10.471 17.3068 10.6674 16.8745 10.5218 16.4867C10.3762 16.0989 9.94384 15.9025 9.55605 16.0481C8.33137 16.5079 7.19113 16.84 6.19441 17.0372C5.78808 17.1176 5.52384 17.5122 5.60423 17.9185C5.68462 18.3248 6.07919 18.5891 6.48552 18.5087C7.57805 18.2925 8.7981 17.9349 10.0832 17.4524Z" fill="black"/>
</svg>
