<svg width="24" height="24" viewBox="0 0 24 24" fill="none" xmlns="http://www.w3.org/2000/svg">
<path fill-rule="evenodd" clip-rule="evenodd" d="M15.5023 14.3674L20.5319 9.35289C21.2563 8.63072 21.6185 8.26963 21.8092 7.81046C22 7.3513 22 6.84065 22 5.81937V5.33146C22 3.76099 22 2.97576 21.5106 2.48788C21.0213 2 20.2337 2 18.6585 2H18.1691C17.1447 2 16.6325 2 16.172 2.19019C15.7114 2.38039 15.3493 2.74147 14.6249 3.46364L9.59522 8.47817C8.74882 9.32202 8.224 9.84526 8.02078 10.3506C7.95657 10.5103 7.92446 10.6682 7.92446 10.8339C7.92446 11.5238 8.48138 12.0791 9.59522 13.1896L9.74492 13.3388L11.4985 11.5591C11.7486 11.3053 12.1571 11.3022 12.4109 11.5523C12.6647 11.8024 12.6678 12.2109 12.4177 12.4647L10.6587 14.2499L10.7766 14.3674C11.8905 15.4779 12.4474 16.0331 13.1394 16.0331C13.2924 16.0331 13.4387 16.006 13.5858 15.9518C14.1048 15.7607 14.6345 15.2325 15.5023 14.3674ZM17.8652 8.47854C17.2127 9.12904 16.1548 9.12904 15.5024 8.47854C14.8499 7.82803 14.8499 6.77335 15.5024 6.12284C16.1548 5.47233 17.2127 5.47233 17.8652 6.12284C18.5177 6.77335 18.5177 7.82803 17.8652 8.47854Z" fill="black"/>
<path fill-rule="evenodd" clip-rule="evenodd" d="M2.77409 12.4814C3.07033 12.778 3.07004 13.2586 2.77343 13.5548L2.61779 13.7103C2.48483 13.8431 2.48483 14.058 2.61779 14.1908C2.75125 14.3241 2.96801 14.3241 3.10147 14.1908L4.8136 12.4807C5.1102 12.1845 5.59079 12.1848 5.88704 12.4814C6.18328 12.778 6.18298 13.2586 5.88638 13.5548L4.17426 15.2648C3.4481 15.9901 2.27116 15.9901 1.545 15.2648C0.818334 14.5391 0.818333 13.362 1.545 12.6362L1.70065 12.4807C1.99725 12.1845 2.47784 12.1848 2.77409 12.4814ZM7.29719 16.696C7.5903 16.9957 7.58495 17.4762 7.28525 17.7693L5.55508 19.4614C5.25538 19.7545 4.77481 19.7491 4.48171 19.4494C4.1886 19.1497 4.19395 18.6692 4.49365 18.3761L6.22382 16.684C6.52352 16.3909 7.00409 16.3963 7.29719 16.696ZM11.4811 18.118C11.7774 18.4146 11.7771 18.8952 11.4805 19.1915L9.76834 20.9015C9.63539 21.0343 9.63539 21.2492 9.76834 21.382C9.9018 21.5153 10.1186 21.5153 10.252 21.382L10.4077 21.2265C10.7043 20.9303 11.1849 20.9306 11.4811 21.2272C11.7774 21.5238 11.7771 22.0044 11.4805 22.3006L11.3248 22.4561C10.5987 23.1813 9.42171 23.1813 8.69556 22.4561C7.96889 21.7303 7.96889 20.5532 8.69556 19.8274L10.4077 18.1174C10.7043 17.8211 11.1849 17.8214 11.4811 18.118Z" fill="black"/>
<g opacity="0.5">
<path d="M10.8466 5.40925L8.65886 7.59037C8.25673 7.99126 7.88786 8.35901 7.59655 8.69145C7.40947 8.90494 7.22253 9.13861 7.06417 9.39679L7.04285 9.37554C7.00239 9.3352 6.98214 9.31501 6.96182 9.29529C6.58157 8.92635 6.13429 8.63301 5.64391 8.43097C5.61771 8.42018 5.59111 8.40964 5.53792 8.38856L5.21219 8.25949C4.77092 8.08464 4.65332 7.51659 4.98909 7.18184C5.95273 6.22112 7.10972 5.06765 7.66809 4.83597C8.16053 4.63166 8.69248 4.56368 9.20554 4.6395C9.67562 4.70897 10.1203 4.95043 10.8466 5.40925Z" fill="black"/>
<path d="M14.5821 16.8934C14.7583 17.0723 14.8754 17.1987 14.9813 17.3337C15.1209 17.5119 15.2458 17.7012 15.3546 17.8996C15.4772 18.123 15.5723 18.3616 15.7626 18.8389C15.9174 19.2274 16.432 19.3301 16.7308 19.0322L16.8031 18.9601C17.7667 17.9993 18.9237 16.8458 19.1561 16.2891C19.361 15.7982 19.4292 15.2678 19.3531 14.7563C19.2835 14.2877 19.0413 13.8444 18.5812 13.1205L16.3862 15.3089C15.975 15.7189 15.5979 16.0949 15.2569 16.3894C15.0525 16.5659 14.8289 16.7423 14.5821 16.8934Z" fill="black"/>
</g>
<g opacity="0.5">
<path d="M7.6867 14.5633C7.98312 14.2669 7.98312 13.7863 7.6867 13.4899C7.39028 13.1935 6.90968 13.1935 6.61326 13.4899L4.47085 15.6323C4.17443 15.9287 4.17443 16.4093 4.47085 16.7057C4.76727 17.0021 5.24787 17.0021 5.54429 16.7057L7.6867 14.5633Z" fill="black"/>
<path d="M10.4959 17.369C10.7923 17.0726 10.7923 16.592 10.4959 16.2956C10.1994 15.9992 9.71884 15.9992 9.42241 16.2956L7.29465 18.4233C6.99823 18.7198 6.99823 19.2003 7.29465 19.4968C7.59108 19.7932 8.07167 19.7932 8.36809 19.4968L10.4959 17.369Z" fill="black"/>
</g>
</svg>
