<svg width="24" height="24" viewBox="0 0 24 24" fill="none" xmlns="http://www.w3.org/2000/svg">
<path d="M11.8114 6.7267C12.8247 4.9089 13.3314 4 14.0889 4C14.8464 4 15.353 4.9089 16.3663 6.7267L16.6285 7.19699C16.9164 7.71355 17.0604 7.97183 17.2849 8.14225C17.5094 8.31266 17.789 8.37592 18.3482 8.50244L18.8572 8.61762C20.825 9.06284 21.8089 9.28545 22.0429 10.0382C22.277 10.7909 21.6063 11.5753 20.2648 13.1439L19.9177 13.5498C19.5365 13.9955 19.3459 14.2184 19.2602 14.4942C19.1744 14.7699 19.2032 15.0673 19.2609 15.662L19.3133 16.2035C19.5162 18.2965 19.6176 19.343 19.0047 19.8082C18.3919 20.2734 17.4707 19.8492 15.6283 19.0009L15.1517 18.7815C14.6281 18.5404 14.3664 18.4199 14.0889 18.4199C13.8114 18.4199 13.5496 18.5404 13.0261 18.7815L12.5494 19.0009C10.707 19.8492 9.78581 20.2734 9.17299 19.8082C8.56016 19.343 8.66157 18.2965 8.86438 16.2035L8.91685 15.662C8.97449 15.0673 9.0033 14.7699 8.91756 14.4942C8.83181 14.2184 8.64121 13.9955 8.26 13.5498L7.91295 13.1439C6.57147 11.5753 5.90073 10.7909 6.1348 10.0382C6.36888 9.28545 7.35275 9.06284 9.3205 8.61762L9.82958 8.50244C10.3887 8.37592 10.6683 8.31266 10.8928 8.14225C11.1173 7.97183 11.2613 7.71355 11.5492 7.19699L11.8114 6.7267Z" fill="black"/>
<path opacity="0.5" fill-rule="evenodd" clip-rule="evenodd" d="M8.74549 5.20241C6.76387 4.63138 4.63821 4.933 2.58729 6.13407L2.37913 6.25598C2.0217 6.4653 1.56226 6.34523 1.35293 5.9878C1.14361 5.63037 1.26368 5.17092 1.62111 4.9616L1.82927 4.8397C4.18969 3.45737 6.73702 3.0626 9.16083 3.76106L9.36871 3.82096C9.76673 3.93566 9.99641 4.35129 9.88171 4.74931C9.76702 5.14733 9.35139 5.37701 8.95337 5.26231L8.74549 5.20241ZM4.83628 9.93646C4.87144 10.3492 4.56537 10.7123 4.15265 10.7474C3.99949 10.7605 3.88206 10.7679 3.78365 10.7742C3.60627 10.7854 3.49069 10.7928 3.33902 10.8219C3.14253 10.8596 2.8874 10.9394 2.4244 11.1709C2.05391 11.3562 1.60341 11.206 1.41817 10.8355C1.23293 10.465 1.38309 10.0145 1.75358 9.8293C2.29057 9.5608 2.68032 9.42092 3.05627 9.34876C3.30317 9.30137 3.55804 9.28477 3.78724 9.26984C3.87053 9.26441 3.95043 9.25921 4.02533 9.25283C4.43804 9.21767 4.80112 9.52374 4.83628 9.93646ZM5.91788 15.8561C4.73392 15.5786 3.48653 15.8538 2.55316 16.5892C2.22781 16.8456 1.75624 16.7896 1.49988 16.4643C1.24353 16.1389 1.29946 15.6674 1.62482 15.411C2.92261 14.3884 4.63911 14.0158 6.2601 14.3956C6.66339 14.4901 6.91371 14.8937 6.81921 15.297C6.72471 15.7003 6.32116 15.9506 5.91788 15.8561Z" fill="black"/>
</svg>
