<svg width="24" height="24" viewBox="0 0 24 24" fill="none" xmlns="http://www.w3.org/2000/svg">
<path fill-rule="evenodd" clip-rule="evenodd" d="M10.8266 4.50335C8.62177 3.37843 6.70686 3.1509 5.75875 4.09901C4.12884 5.72892 5.97336 10.216 9.87861 14.1213C13.7838 18.0265 18.271 19.8711 19.9009 18.2411C20.8489 17.2931 20.6215 15.3784 19.4968 13.1738C19.2938 13.2091 19.0708 13.2134 18.8301 13.1702C17.885 13.0005 16.395 12.2741 14.0607 9.93969C11.7263 7.60532 10.9999 6.11537 10.8302 5.17028C10.7869 4.9295 10.7912 4.70642 10.8266 4.50335ZM12.7072 12.7073C12.3167 13.0978 11.6835 13.0978 11.293 12.7073C10.9024 12.3167 10.9024 11.6836 11.293 11.293C11.6835 10.9025 12.3167 10.9025 12.7072 11.293C13.0977 11.6836 13.0977 12.3167 12.7072 12.7073ZM8.46435 8.46409C8.85488 8.85462 9.48804 8.85462 9.87856 8.46409C10.2691 8.07357 10.2691 7.4404 9.87856 7.04988C9.48804 6.65936 8.85488 6.65936 8.46435 7.04988C8.07383 7.4404 8.07383 8.07357 8.46435 8.46409ZM16.9499 15.5354C16.5593 15.9259 15.9262 15.9259 15.5356 15.5354C15.1451 15.1449 15.1451 14.5117 15.5356 14.1212C15.9262 13.7306 16.5593 13.7306 16.9499 14.1212C17.3404 14.5117 17.3404 15.1449 16.9499 15.5354Z" fill="black"/>
<path d="M8.28764 16.7731C8.58053 16.4802 8.58053 16.0053 8.28764 15.7124C7.99474 15.4195 7.51987 15.4195 7.22698 15.7124L3.10566 19.8337C2.81276 20.1266 2.81276 20.6015 3.10566 20.8944C3.39855 21.1873 3.87342 21.1873 4.16632 20.8944L8.28764 16.7731Z" fill="black"/>
<g opacity="0.5">
<path d="M12.302 4.78957C14.1299 3.63258 16.5783 3.85088 18.172 5.44456L18.5556 5.82815C20.1494 7.42193 20.3676 9.87035 19.2104 11.6982C19.1728 11.702 19.1343 11.7008 19.0951 11.6938C18.5986 11.6046 17.3768 11.1346 15.1212 8.87899C12.8657 6.62343 12.3956 5.40159 12.3065 4.90513C12.2994 4.86583 12.2982 4.82723 12.302 4.78957Z" fill="black"/>
<path d="M4.80145 11.7688C5.06423 11.4486 5.01769 10.976 4.69751 10.7132C4.37732 10.4504 3.90473 10.497 3.64195 10.8172L1.42027 13.5242C1.15749 13.8444 1.20403 14.317 1.52422 14.5797C1.8444 14.8425 2.31699 14.796 2.57977 14.4758L4.80145 11.7688Z" fill="black"/>
<path d="M13.2868 19.3025C13.5495 19.6227 13.5029 20.0953 13.1827 20.358L10.4755 22.5795C10.1552 22.8422 9.68266 22.7956 9.41991 22.4754C9.15716 22.1552 9.20375 21.6826 9.52396 21.4199L12.2312 19.1984C12.5514 18.9357 13.024 18.9823 13.2868 19.3025Z" fill="black"/>
</g>
</svg>
