<svg width="24" height="24" viewBox="0 0 24 24" fill="none" xmlns="http://www.w3.org/2000/svg">
<path fill-rule="evenodd" clip-rule="evenodd" d="M5.67459 7.59326C3.4317 8.35863 2 9.52254 2 10.826C2 13.1311 6.47715 14.9997 12 14.9997C17.5228 14.9997 22 13.1311 22 10.826C22 9.52254 20.5683 8.35863 18.3254 7.59326C18.2008 7.88354 17.9937 8.17728 17.6568 8.41162C16.8685 8.9599 15.3013 9.4998 12 9.4998C8.6987 9.4998 7.1315 8.9599 6.34322 8.41162C6.00629 8.17728 5.79918 7.88354 5.67459 7.59326ZM12 12.9998C12.5523 12.9998 13 12.5521 13 11.9998C13 11.4475 12.5523 10.9998 12 10.9998C11.4477 10.9998 11 11.4475 11 11.9998C11 12.5521 11.4477 12.9998 12 12.9998ZM8 10.9998C8 11.5521 7.55228 11.9998 7 11.9998C6.44772 11.9998 6 11.5521 6 10.9998C6 10.4475 6.44772 9.9998 7 9.9998C7.55228 9.9998 8 10.4475 8 10.9998ZM17 11.9998C17.5523 11.9998 18 11.5521 18 10.9998C18 10.4475 17.5523 9.9998 17 9.9998C16.4477 9.9998 16 10.4475 16 10.9998C16 11.5521 16.4477 11.9998 17 11.9998Z" fill="black"/>
<path d="M12 17.2498C12.4142 17.2498 12.75 17.5856 12.75 17.9998V20.9998C12.75 21.414 12.4142 21.7498 12 21.7498C11.5858 21.7498 11.25 21.414 11.25 20.9998V17.9998C11.25 17.5856 11.5858 17.2498 12 17.2498Z" fill="black"/>
<g opacity="0.5">
<path d="M7.05498 7.0054C7.40316 4.73714 9.3631 3 11.7288 3H12.2712C14.6369 3 16.5968 4.73714 16.945 7.0054C16.9131 7.07425 16.866 7.13466 16.8003 7.18039C16.3862 7.4684 15.1898 8 12 8C8.81016 8 7.6138 7.4684 7.19972 7.18039C7.13397 7.13466 7.08687 7.07425 7.05498 7.0054Z" fill="black"/>
<path d="M6 16.25C6.41421 16.25 6.75 16.5858 6.75 17V20C6.75 20.4142 6.41421 20.75 6 20.75C5.58579 20.75 5.25 20.4142 5.25 20V17C5.25 16.5858 5.58579 16.25 6 16.25Z" fill="black"/>
<path d="M18.75 17C18.75 16.5858 18.4142 16.25 18 16.25C17.5858 16.25 17.25 16.5858 17.25 17V20C17.25 20.4142 17.5858 20.75 18 20.75C18.4142 20.75 18.75 20.4142 18.75 20V17Z" fill="black"/>
</g>
</svg>
