<svg width="24" height="24" viewBox="0 0 24 24" fill="none" xmlns="http://www.w3.org/2000/svg">
<path fill-rule="evenodd" clip-rule="evenodd" d="M5.67459 8.59326C3.4317 9.35863 2 10.5225 2 11.826C2 13.034 3.22958 14.1221 5.19488 14.8842L3.85699 17.114C3.64388 17.4692 3.75906 17.9299 4.11424 18.143C4.46943 18.3561 4.93012 18.241 5.14323 17.8858L6.64323 15.3858C6.64924 15.3758 6.65498 15.3657 6.66046 15.3555C8.00688 15.7111 9.57078 15.9361 11.2501 15.9881V18.9999C11.2501 19.4141 11.5859 19.7499 12.0001 19.7499C12.4143 19.7499 12.7501 19.4141 12.7501 18.9999V15.9881C14.4294 15.9361 15.9933 15.7111 17.3397 15.3555C17.3452 15.3657 17.351 15.3758 17.357 15.3858L18.857 17.8858C19.0701 18.241 19.5308 18.3561 19.886 18.143C20.2412 17.9299 20.3563 17.4692 20.1432 17.114L18.8053 14.8842C20.7705 14.122 22 13.034 22 11.826C22 10.5225 20.5683 9.35863 18.3254 8.59326C18.2008 8.88354 17.9937 9.17728 17.6568 9.41162C16.8685 9.9599 15.3013 10.4998 12 10.4998C8.6987 10.4998 7.1315 9.9599 6.34322 9.41162C6.00629 9.17728 5.79918 8.88354 5.67459 8.59326ZM13 12.9998C13 13.5521 12.5523 13.9998 12 13.9998C11.4477 13.9998 11 13.5521 11 12.9998C11 12.4475 11.4477 11.9998 12 11.9998C12.5523 11.9998 13 12.4475 13 12.9998ZM7 12.9998C7.55228 12.9998 8 12.5521 8 11.9998C8 11.4475 7.55228 10.9998 7 10.9998C6.44772 10.9998 6 11.4475 6 11.9998C6 12.5521 6.44772 12.9998 7 12.9998ZM18 11.9998C18 12.5521 17.5523 12.9998 17 12.9998C16.4477 12.9998 16 12.5521 16 11.9998C16 11.4475 16.4477 10.9998 17 10.9998C17.5523 10.9998 18 11.4475 18 11.9998Z" fill="black"/>
<path opacity="0.5" d="M7.05518 8.0054C7.40336 5.73714 9.36329 4 11.729 4H12.2714C14.6371 4 16.597 5.73714 16.9452 8.0054C16.9133 8.07425 16.8662 8.13466 16.8005 8.18039C16.3864 8.4684 15.19 9 12.0002 9C8.81036 9 7.614 8.4684 7.19991 8.18039C7.13417 8.13466 7.08706 8.07425 7.05518 8.0054Z" fill="black"/>
</svg>
