<svg width="24" height="24" viewBox="0 0 24 24" fill="none" xmlns="http://www.w3.org/2000/svg">
<path d="M15 11L16 17" stroke="black" stroke-width="1.5" stroke-linecap="round"/>
<path d="M9 11L8 17" stroke="black" stroke-width="1.5" stroke-linecap="round"/>
<path d="M9 6V5C9 3.34315 10.3431 2 12 2C13.6569 2 15 3.34315 15 5V6" stroke="black" stroke-width="1.5" stroke-linecap="round"/>
<path d="M20.2235 12.5257C19.6382 9.40452 19.3456 7.84393 18.2347 6.92196C17.1238 6 15.5361 6 12.3605 6H11.6393C8.46374 6 6.87596 6 5.76506 6.92196C4.65416 7.84393 4.36155 9.40452 3.77633 12.5257C2.9534 16.9146 2.54194 19.1091 3.74157 20.5545C4.94119 22 7.17389 22 11.6393 22H12.3605C16.8259 22 19.0586 22 20.2582 20.5545C20.9542 19.7159 21.1079 18.6252 20.9536 17" stroke="black" stroke-width="1.5" stroke-linecap="round"/>
</svg>
