<svg width="24" height="24" viewBox="0 0 24 24" fill="none" xmlns="http://www.w3.org/2000/svg">
<path d="M7.5 18C8.32843 18 9 18.6716 9 19.5C9 20.3284 8.32843 21 7.5 21C6.67157 21 6 20.3284 6 19.5C6 18.6716 6.67157 18 7.5 18Z" stroke="black" stroke-width="1.5"/>
<path d="M16.5 18.0001C17.3284 18.0001 18 18.6716 18 19.5001C18 20.3285 17.3284 21.0001 16.5 21.0001C15.6716 21.0001 15 20.3285 15 19.5001C15 18.6716 15.6716 18.0001 16.5 18.0001Z" stroke="black" stroke-width="1.5"/>
<path d="M16.5 6.5L15 15.5" stroke="black" stroke-width="1.5" stroke-linecap="round"/>
<path d="M9 6.5L10.5 15" stroke="black" stroke-width="1.5" stroke-linecap="round"/>
<path d="M2 3L2.26121 3.09184C3.5628 3.54945 4.2136 3.77826 4.58584 4.32298C4.95808 4.86771 4.95808 5.59126 4.95808 7.03836V9.76C4.95808 12.7016 5.02132 13.6723 5.88772 14.5862C6.75412 15.5 8.14857 15.5 10.9375 15.5H12M4.95808 6.12H9M13 6.12H17.0888C18.7738 6.12 20.2906 6.12 20.7345 6.69708C21.1784 7.27417 21.0049 8.14369 20.6578 9.88275L20.158 12.3075C19.8429 13.8364 19.6853 14.6008 19.1336 15.0504C18.5819 15.5 17.8014 15.5 16.2404 15.5H15" stroke="black" stroke-width="1.5" stroke-linecap="round"/>
</svg>
