<svg width="24" height="24" viewBox="0 0 24 24" fill="none" xmlns="http://www.w3.org/2000/svg">
<path d="M17 4C17 5.10457 16.1045 6 15 6C13.8954 6 13 5.10457 13 4C13 2.89543 13.8954 2 15 2C16.1045 2 17 2.89543 17 4Z" fill="black"/>
<path fill-rule="evenodd" clip-rule="evenodd" d="M12.1609 7.1149L12.7736 7.72376C13.6828 8.62742 13.9992 8.92328 14.3794 9.08006C14.7595 9.23683 15.1925 9.25 16.4744 9.25H18.5C18.9142 9.25 19.25 9.58579 19.25 10C19.25 10.4142 18.9142 10.75 18.5 10.75H16.4744C16.4264 10.75 16.3791 10.75 16.3324 10.75C15.2492 10.7506 14.4965 10.7509 13.8075 10.4668C13.1185 10.1826 12.5848 9.65173 11.8169 8.88781C11.7838 8.85487 11.7502 8.8215 11.7162 8.78769L11.1389 8.21391C10.7301 7.80771 10.4796 7.56126 10.2781 7.41096C10.1847 7.34129 10.1308 7.31506 10.1052 7.30549C10.0998 7.3035 10.0961 7.30237 10.0938 7.30175C10.0916 7.30278 10.0882 7.30456 10.0833 7.30748C10.0598 7.32152 10.0115 7.35708 9.93223 7.44248C9.76124 7.62672 9.55938 7.9144 9.23082 8.38777L8.00419 10.155C7.66978 10.6368 7.46679 10.9325 7.352 11.1615C7.29871 11.2678 7.28212 11.3267 7.27717 11.3541C7.27621 11.3594 7.27576 11.3631 7.27555 11.3656C7.277 11.3675 7.27936 11.3705 7.28295 11.3745C7.30154 11.3952 7.34658 11.4366 7.44774 11.4991C7.66566 11.6338 7.99363 11.7789 8.53117 12.0135L10.0471 12.6749C10.6948 12.9575 11.2408 13.1957 11.6615 13.4422C12.1082 13.7038 12.4856 14.0143 12.739 14.4775C12.9923 14.9407 13.0501 15.4259 13.0295 15.9432C13.0101 16.4304 12.9162 17.0186 12.8047 17.7165L12.7406 18.1182C12.6753 18.5273 12.2908 18.8059 11.8817 18.7406C11.4727 18.6753 11.194 18.2908 11.2593 17.8818L11.3166 17.5233C11.4367 16.7706 11.5153 16.271 11.5307 15.8835C11.5454 15.516 11.4977 15.334 11.423 15.1973C11.3482 15.0606 11.2206 14.9223 10.9033 14.7364C10.5687 14.5404 10.1056 14.337 9.40698 14.0322L7.93128 13.3883C7.91587 13.3816 7.9005 13.3748 7.88519 13.3682C7.40858 13.1603 6.97953 12.9731 6.65922 12.7752C6.31114 12.5601 5.96954 12.2603 5.8319 11.7749C5.69426 11.2895 5.82768 10.8551 6.01104 10.4893C6.17977 10.1527 6.44672 9.76818 6.74325 9.34105C6.75278 9.32732 6.76234 9.31355 6.77193 9.29973L7.99855 7.53248C8.00804 7.51881 8.01749 7.50519 8.02691 7.49161C8.31788 7.07231 8.58033 6.6941 8.83278 6.42209C9.10758 6.126 9.46226 5.85262 9.95763 5.80748C10.453 5.76234 10.8513 5.96711 11.175 6.20865C11.4725 6.43055 11.799 6.7551 12.1609 7.1149Z" fill="black"/>
<g opacity="0.5">
<path fill-rule="evenodd" clip-rule="evenodd" d="M18 14.25C15.9289 14.25 14.25 15.9289 14.25 18C14.25 20.0711 15.9289 21.75 18 21.75C20.0711 21.75 21.75 20.0711 21.75 18C21.75 15.9289 20.0711 14.25 18 14.25ZM18 15.75C16.7574 15.75 15.75 16.7574 15.75 18C15.75 19.2426 16.7574 20.25 18 20.25C19.2426 20.25 20.25 19.2426 20.25 18C20.25 16.7574 19.2426 15.75 18 15.75Z" fill="black"/>
<path fill-rule="evenodd" clip-rule="evenodd" d="M6 14.25C3.92893 14.25 2.25 15.9289 2.25 18C2.25 20.0711 3.92893 21.75 6 21.75C8.07107 21.75 9.75 20.0711 9.75 18C9.75 15.9289 8.07107 14.25 6 14.25ZM6 15.75C4.75736 15.75 3.75 16.7574 3.75 18C3.75 19.2426 4.75736 20.25 6 20.25C7.24264 20.25 8.25 19.2426 8.25 18C8.25 16.7574 7.24264 15.75 6 15.75Z" fill="black"/>
</g>
</svg>
