<svg width="24" height="24" viewBox="0 0 24 24" fill="none" xmlns="http://www.w3.org/2000/svg">
<path opacity="0.5" d="M8.98501 7.44277L6.04444 7.08897C5.35938 7.00654 5.01683 6.96533 4.7321 7.03647C4.35245 7.13133 4.02904 7.36199 3.83301 7.67769C3.68599 7.91447 3.64149 8.23171 3.55249 8.86619C3.46349 9.50067 3.41899 9.81791 3.49581 10.0816C3.59824 10.4332 3.84728 10.7328 4.18815 10.9143C4.44381 11.0505 5.15392 11.1359 5.83899 11.2183L4.95558 17.5163C4.27051 17.4339 3.5604 17.3484 3.27567 17.4196C2.89602 17.5144 2.57261 17.7451 2.37658 18.0608C2.22956 18.2976 2.18506 18.6148 2.09606 19.2493C2.00706 19.8838 1.96256 20.201 2.03938 20.4647C2.1418 20.8163 2.39085 21.1159 2.73172 21.2974C2.98738 21.4336 3.32992 21.4748 4.01498 21.5572L6.95556 21.911C7.64063 21.9935 7.98317 22.0347 8.2679 21.9635C8.64755 21.8687 8.97096 21.638 9.16699 21.3223C9.31401 21.0855 9.35851 20.7683 9.44751 20.1338C9.53651 19.4993 9.58101 19.1821 9.50419 18.9184C9.40177 18.5668 9.15272 18.2672 8.81185 18.0857C8.55619 17.9495 7.84608 17.8641 7.16101 17.7817L8.04442 11.4837C8.72949 11.5661 9.4396 11.6516 9.72433 11.5804C10.104 11.4856 10.4274 11.2549 10.6234 10.9392C10.7704 10.7024 10.8149 10.3852 10.9039 9.7507C10.9929 9.11623 11.0374 8.79898 10.9606 8.53527C10.8582 8.18366 10.6092 7.88413 10.2683 7.70258C10.0126 7.56641 9.67007 7.5252 8.98501 7.44277Z" fill="black"/>
<path d="M20.2855 16.0833L17.5741 16.7826C16.9424 16.9456 16.6266 17.027 16.3498 16.992C15.9807 16.9452 15.6461 16.7592 15.4195 16.4749C15.2496 16.2617 15.1649 15.9577 14.9957 15.3496C14.8264 14.7416 14.7418 14.4375 14.7782 14.1711C14.8268 13.8158 15.02 13.4937 15.3153 13.2756C15.5368 13.112 16.1916 12.9431 16.8233 12.7801L15.1432 6.74438C14.5115 6.90732 13.8567 7.0762 13.5799 7.04112C13.2109 6.99435 12.8762 6.80837 12.6496 6.52409C12.4797 6.31089 12.3951 6.00685 12.2258 5.39879C12.0565 4.79072 11.9719 4.48669 12.0084 4.22024C12.0569 3.86498 12.2501 3.54285 12.5455 3.32472C12.767 3.16112 13.0828 3.07965 13.7145 2.91672L16.4259 2.21736C17.0576 2.05443 17.3734 1.97296 17.6502 2.00804C18.0193 2.05481 18.3539 2.24079 18.5805 2.52507C18.7504 2.73828 18.8351 3.04232 19.0043 3.65038C19.1736 4.25844 19.2582 4.56248 19.2218 4.82892C19.1732 5.18418 18.98 5.50631 18.6847 5.72445C18.4632 5.88805 17.8084 6.05693 17.1767 6.21986L18.8568 12.2556C19.4885 12.0927 20.1433 11.9238 20.4201 11.9589C20.7891 12.0056 21.1238 12.1916 21.3504 12.4759C21.5203 12.6891 21.6049 12.9932 21.7742 13.6012C21.9435 14.2093 22.0281 14.5133 21.9916 14.7798C21.9431 15.135 21.7499 15.4571 21.4545 15.6753C21.233 15.8389 20.9172 15.9203 20.2855 16.0833Z" fill="black"/>
</svg>
