<svg width="24" height="24" viewBox="0 0 24 24" fill="none" xmlns="http://www.w3.org/2000/svg">
<path fill-rule="evenodd" clip-rule="evenodd" d="M3.43157 15.6193L8.3807 20.5684C9.28489 21.4726 9.73699 21.9247 10.2891 21.9892C10.4123 22.0036 10.5368 22.0036 10.6601 21.9892C11.2121 21.9247 11.6642 21.4726 12.5684 20.5684C13.4726 19.6642 13.9247 19.2121 13.9892 18.6601C14.0036 18.5368 14.0036 18.4123 13.9892 18.2891C13.9247 17.737 13.4726 17.2849 12.5684 16.3807L11.4565 15.2688L8.35253 12.1648L7.6193 11.4316C6.71511 10.5274 6.26301 10.0753 5.71092 10.0108C5.58768 9.9964 5.46318 9.9964 5.33994 10.0108C4.78785 10.0753 4.33575 10.5274 3.43156 11.4316C2.52737 12.3358 2.07528 12.7879 2.0108 13.3399C1.9964 13.4632 1.9964 13.5877 2.0108 13.7109C2.07528 14.263 2.52737 14.7151 3.43157 15.6193ZM12.1648 8.35253L15.2688 11.4565L16.3807 12.5684C17.2849 13.4726 17.737 13.9247 18.2891 13.9892C18.4123 14.0036 18.5368 14.0036 18.6601 13.9892C19.2121 13.9247 19.6642 13.4726 20.5684 12.5684C21.4726 11.6642 21.9247 11.2121 21.9892 10.6601C22.0036 10.5368 22.0036 10.4123 21.9892 10.2891C21.9247 9.73699 21.4726 9.28489 20.5684 8.3807L15.6193 3.43156C14.7151 2.52737 14.263 2.07528 13.7109 2.0108C13.5877 1.9964 13.4632 1.9964 13.3399 2.0108C12.7879 2.07528 12.3358 2.52737 11.4316 3.43156C10.5274 4.33575 10.0753 4.78785 10.0108 5.33994C9.9964 5.46318 9.9964 5.58768 10.0108 5.71092C10.0753 6.26301 10.5274 6.71511 11.4316 7.6193L12.1648 8.35253Z" fill="black"/>
<path opacity="0.5" d="M11.4566 15.2688L15.2688 11.4565L12.1648 8.35254L8.35254 12.1648L11.4566 15.2688Z" fill="black"/>
<path opacity="0.5" fill-rule="evenodd" clip-rule="evenodd" d="M17.4885 1.96772C17.7814 1.67482 18.2562 1.67482 18.5491 1.96772L21.6531 5.07173C21.946 5.36462 21.946 5.83949 21.6531 6.13239C21.3602 6.42528 20.8854 6.42528 20.5925 6.13239L17.4885 3.02838C17.1956 2.73548 17.1956 2.26061 17.4885 1.96772ZM1.96723 17.4876C2.26012 17.1947 2.735 17.1947 3.02789 17.4876L6.1319 20.5916C6.42479 20.8845 6.42479 21.3594 6.1319 21.6523C5.83901 21.9452 5.36413 21.9452 5.07124 21.6523L1.96723 18.5483C1.67434 18.2554 1.67434 17.7805 1.96723 17.4876Z" fill="black"/>
</svg>
