<svg width="24" height="24" viewBox="0 0 24 24" fill="none" xmlns="http://www.w3.org/2000/svg">
<path d="M14.5 4.5C14.5 5.88071 13.3807 7 12 7C10.6193 7 9.5 5.88071 9.5 4.5C9.5 3.11929 10.6193 2 12 2C13.3807 2 14.5 3.11929 14.5 4.5Z" fill="black"/>
<path fill-rule="evenodd" clip-rule="evenodd" d="M8.9 15.55C9.14853 15.2186 9.61863 15.1515 9.95 15.4C10.2814 15.6485 10.3485 16.1186 10.1 16.45L9.17549 17.6827C9.16815 17.6925 9.1609 17.7021 9.15373 17.7117C9.02731 17.8804 8.92789 18.013 8.81333 18.1328C8.5315 18.4274 8.18768 18.6557 7.80675 18.8011C7.65192 18.8602 7.49109 18.9004 7.28659 18.9514C7.27499 18.9543 7.26326 18.9573 7.25138 18.9602L5.45797 19.4086C5.04189 19.5126 4.75 19.8865 4.75 20.3153C4.75 20.8315 5.16846 21.25 5.68466 21.25H6.36842C7.91433 21.25 9.41854 20.7486 10.6553 19.8211L12.55 18.4C12.8814 18.1515 13.3515 18.2186 13.6 18.55C13.8485 18.8814 13.7814 19.3515 13.45 19.6L12.5453 20.2785L13.0371 20.4629C13.571 20.6631 13.8118 20.7531 14.0537 20.8288C14.7819 21.0564 15.5355 21.193 16.2973 21.2356C16.5503 21.2497 16.8074 21.25 17.3776 21.25H18.3153C18.8315 21.25 19.25 20.8315 19.25 20.3153C19.25 19.8865 18.9581 19.5126 18.542 19.4086L17.0684 19.0402C17.0408 19.0333 17.0136 19.0265 16.9866 19.0198C16.511 18.9012 16.1357 18.8077 15.8003 18.6143C15.7 18.5565 15.6035 18.4924 15.5114 18.4224C15.203 18.1884 14.9711 17.8788 14.6773 17.4864C14.6606 17.4642 14.6438 17.4417 14.6267 17.4189L13.9 16.45C13.6515 16.1186 13.7186 15.6485 14.05 15.4C14.3814 15.1515 14.8515 15.2186 15.1 15.55L15.8267 16.5189C16.1952 17.0103 16.2982 17.1365 16.4182 17.2276C16.4601 17.2594 16.504 17.2885 16.5496 17.3148C16.6801 17.3901 16.8364 17.436 17.4322 17.585L18.9058 17.9534C19.9897 18.2243 20.75 19.1982 20.75 20.3153C20.75 21.66 19.66 22.75 18.3153 22.75H17.3524C16.8139 22.75 16.5133 22.75 16.2136 22.7333C15.3283 22.6838 14.4525 22.525 13.6062 22.2605C13.3197 22.1709 13.0382 22.0653 12.534 21.8762L11.1016 21.3391C9.69806 22.2575 8.05372 22.75 6.36842 22.75H5.68466C4.34003 22.75 3.25 21.66 3.25 20.3153C3.25 19.1982 4.01034 18.2243 5.09417 17.9534L6.88758 17.505C7.14327 17.4411 7.21157 17.4227 7.27182 17.3997C7.44497 17.3337 7.60125 17.2299 7.72936 17.096C7.77394 17.0493 7.81736 16.9935 7.97549 16.7827L8.9 15.55Z" fill="black"/>
<path opacity="0.5" d="M12.0002 9.77051C11.644 9.77052 11.3211 9.79101 11.1392 9.82185L10.2476 9.97199C8.23506 10.3109 6.7502 12.0735 6.7502 14.1501C6.7502 15.2309 6.2157 16.2434 5.32068 16.8463L5.21944 16.9145C4.96467 17.0861 4.6882 17.2228 4.3973 17.3207L3.2396 17.7107C2.84706 17.8429 2.42165 17.6319 2.28944 17.2393C2.15722 16.8468 2.36826 16.4214 2.76081 16.2891L3.9185 15.8992C4.08198 15.8441 4.23766 15.7672 4.3814 15.6704L4.48263 15.6022C4.96024 15.2805 5.2502 14.7363 5.2502 14.1501C5.2502 11.3525 7.25281 8.95522 9.99849 8.49282L10.8885 8.34294C11.1929 8.29139 11.6133 8.27053 12.0002 8.27051C12.3869 8.27049 12.8071 8.29123 13.1116 8.34289L14.0019 8.49282C16.7476 8.95522 18.7502 11.3525 18.7502 14.1501C18.7502 14.7363 19.0402 15.2805 19.5178 15.6022L19.619 15.6704C19.7627 15.7672 19.9184 15.8441 20.0819 15.8992L21.2396 16.2891C21.6321 16.4214 21.8432 16.8468 21.711 17.2393C21.5788 17.6319 21.1534 17.8429 20.7608 17.7107L19.6031 17.3207C19.3122 17.2228 19.0357 17.0861 18.781 16.9145L18.6797 16.8463C17.7847 16.2434 17.2502 15.2309 17.2502 14.1501C17.2502 12.0735 15.7653 10.3109 13.7528 9.97199L12.861 9.82181C12.6793 9.79095 12.3565 9.77049 12.0002 9.77051Z" fill="black"/>
</svg>
