<svg width="24" height="24" viewBox="0 0 24 24" fill="none" xmlns="http://www.w3.org/2000/svg">
<path d="M20.7501 4.5C20.7501 5.88071 19.6308 7 18.2501 7C16.8694 7 15.7501 5.88071 15.7501 4.5C15.7501 3.11929 16.8694 2 18.2501 2C19.6308 2 20.7501 3.11929 20.7501 4.5Z" fill="black"/>
<path fill-rule="evenodd" clip-rule="evenodd" d="M9.80231 5.93063C10.0118 5.9017 10.2601 5.87536 10.5231 5.88702C10.6031 5.89057 10.694 5.89706 10.7964 5.90769C13.179 6.155 14.9469 7.94323 16.1244 9.70933L16.1867 9.80281C16.7895 10.7069 17.8042 11.25 18.8908 11.25H20.7501C21.1643 11.25 21.5001 11.5858 21.5001 12C21.5001 12.4142 21.1643 12.75 20.7501 12.75H18.8908C17.3027 12.75 15.8196 11.9563 14.9386 10.6349L14.8763 10.5414C14.6038 10.1327 14.3111 9.74468 13.999 9.38944L12.115 11.7441C11.6876 12.2783 11.4009 12.6379 11.2077 12.9334C11.0206 13.2196 10.9671 13.3792 10.9529 13.5003C10.9295 13.7003 10.9547 13.903 11.0264 14.0911C11.0699 14.2051 11.1608 14.3467 11.4125 14.5783C11.6722 14.8173 12.0383 15.0957 12.5836 15.5088C12.6159 15.5332 12.6477 15.5573 12.679 15.5811C13.3999 16.1267 13.8991 16.5046 14.2445 17.0094C14.4409 17.2964 14.5964 17.6093 14.7066 17.9392C14.9004 18.5194 14.9001 19.1454 14.8998 20.0495C14.8998 20.0888 14.8997 20.1287 14.8997 20.1692V21.9998C14.8997 22.414 14.564 22.7498 14.1497 22.7498C13.7355 22.7498 13.3997 22.414 13.3997 21.9998V20.1692C13.3997 19.0986 13.3907 18.7342 13.2838 18.4143C13.2177 18.2164 13.1244 18.0287 13.0066 17.8565C12.8162 17.5782 12.5312 17.3509 11.6778 16.7045L11.649 16.6826C11.1399 16.2969 10.7156 15.9755 10.3966 15.682C10.0636 15.3754 9.78563 15.0471 9.62488 14.6256C9.46704 14.2116 9.41153 13.7657 9.46309 13.3257C9.5156 12.8776 9.7046 12.4912 9.95234 12.1124C10.1896 11.7496 10.5222 11.3339 10.9212 10.8353L12.9048 8.35598C12.2176 7.83323 11.461 7.48473 10.6415 7.39967C10.5674 7.39198 10.506 7.38774 10.4567 7.38555C10.3288 7.37988 10.1856 7.39194 10.0075 7.41653C8.94217 7.56364 7.87464 8.15548 5.55632 9.47271L4.12064 10.2884C3.7605 10.4931 3.30266 10.367 3.09804 10.0069C2.89341 9.64671 3.01948 9.18888 3.37962 8.98426L4.8153 8.16853C4.86652 8.13943 4.91728 8.11058 4.96759 8.08199C7.08666 6.87764 8.41613 6.12205 9.80231 5.93063Z" fill="black"/>
<path opacity="0.5" d="M9.23014 16.4239C9.54835 16.689 9.59134 17.1619 9.32617 17.4802L8.3254 18.6811L8.22895 18.7969C7.58688 19.5686 7.11555 20.135 6.45757 20.4432C5.79959 20.7514 5.0627 20.7508 4.05888 20.7501H4.05888L3.90813 20.75H2.75C2.33579 20.75 2 20.4142 2 20C2 19.5858 2.33579 19.25 2.75 19.25H3.90813C5.12975 19.25 5.50396 19.2334 5.82133 19.0848C6.1387 18.9362 6.391 18.6593 7.17306 17.7208L8.17383 16.5199C8.43901 16.2017 8.91193 16.1587 9.23014 16.4239Z" fill="black"/>
</svg>
