<svg width="24" height="24" viewBox="0 0 24 24" fill="none" xmlns="http://www.w3.org/2000/svg">
<path d="M21.0001 4.5C21.0001 5.88071 19.8808 7 18.5001 7C17.1193 7 16.0001 5.88071 16.0001 4.5C16.0001 3.11929 17.1193 2 18.5001 2C19.8808 2 21.0001 3.11929 21.0001 4.5Z" fill="black"/>
<path fill-rule="evenodd" clip-rule="evenodd" d="M8.97237 5.81012C9.87492 5.41194 10.8988 5.38942 11.818 5.74754C14.3857 6.74793 15.0063 10.0988 12.9673 11.9524L11.9273 12.898C11.8874 12.9342 11.8757 12.9449 11.868 12.9521C11.3146 13.4759 11.3546 14.3687 11.9526 14.841C11.9609 14.8475 11.9736 14.8572 12.0164 14.8897L12.0199 14.8923C12.0785 14.9367 12.1125 14.9624 12.145 14.9876C14.0178 16.4378 15.1246 18.6648 15.1496 21.0334C15.1501 21.0744 15.1501 21.117 15.1501 21.1902V22C15.1501 22.4142 14.8143 22.75 14.4001 22.75C13.9858 22.75 13.6501 22.4142 13.6501 22V21.195C13.6501 21.1156 13.6501 21.0813 13.6497 21.0492C13.6295 19.1391 12.7369 17.3431 11.2266 16.1736C11.2012 16.1539 11.1739 16.1332 11.1106 16.0853L11.1042 16.0804C11.0708 16.0551 11.0448 16.0354 11.0229 16.0182C9.70738 14.9792 9.61944 13.0151 10.8369 11.8628C10.8572 11.8436 10.8812 11.8217 10.9125 11.7933L11.9583 10.8425C13.1733 9.73799 12.8035 7.74131 11.2735 7.14521C10.7258 6.93181 10.1156 6.94523 9.57783 7.18249L9.05613 7.41265C8.51089 7.6532 8.25908 7.76449 8.01426 7.88601C7.60146 8.09091 7.20056 8.31894 6.81346 8.56901C6.58387 8.71732 6.35952 8.87688 5.87408 9.22257L4.43511 10.2473C4.09771 10.4876 3.62941 10.4088 3.38913 10.0714C3.14886 9.73401 3.2276 9.26571 3.56501 9.02544L5.02098 7.98861C5.48519 7.65804 5.73812 7.47792 5.9995 7.30906C6.43401 7.02836 6.884 6.77241 7.34735 6.54242C7.62609 6.40406 7.91018 6.27873 8.43157 6.0487L8.97237 5.81012Z" fill="black"/>
<g opacity="0.5">
<path d="M15.2724 11.8183C15.3729 11.4164 15.7801 11.1721 16.1819 11.2726C17.3756 11.571 18.6244 11.571 19.8181 11.2726C20.2199 11.1721 20.6271 11.4164 20.7276 11.8183C20.8281 12.2201 20.5837 12.6273 20.1819 12.7278C18.7493 13.0859 17.2507 13.0859 15.8181 12.7278C15.4163 12.6273 15.1719 12.2201 15.2724 11.8183Z" fill="black"/>
<path d="M9.48014 16.424C9.79835 16.6892 9.84134 17.1621 9.57617 17.4803L9.31681 17.7915C7.75456 19.6662 5.44032 20.7502 3 20.7502C2.58579 20.7502 2.25 20.4144 2.25 20.0002C2.25 19.586 2.58579 19.2502 3 19.2502C4.99515 19.2502 6.88722 18.364 8.16448 16.8313L8.42383 16.52C8.68901 16.2018 9.16193 16.1588 9.48014 16.424Z" fill="black"/>
</g>
</svg>
