<svg width="24" height="24" viewBox="0 0 24 24" fill="none" xmlns="http://www.w3.org/2000/svg">
<path d="M17 4.5C17 5.88071 15.8807 7 14.5 7C13.1193 7 12 5.88071 12 4.5C12 3.11929 13.1193 2 14.5 2C15.8807 2 17 3.11929 17 4.5Z" fill="black"/>
<path fill-rule="evenodd" clip-rule="evenodd" d="M16.5589 14.0535C18.2318 13.7817 19.75 15.0731 19.75 16.7679V22C19.75 22.4142 19.4142 22.75 19 22.75C18.5858 22.75 18.25 22.4142 18.25 22V16.7679C18.25 15.9975 17.5599 15.4105 16.7995 15.5341L15.787 15.6986C15.3781 15.7651 14.9928 15.4875 14.9264 15.0786C14.8599 14.6698 15.1375 14.2845 15.5464 14.218L16.5589 14.0535Z" fill="black"/>
<path opacity="0.5" d="M10.5028 9.20681C11.9875 8.57051 13.6391 9.65957 13.6391 11.2749V13.8953C13.6391 14.3654 13.5186 14.8277 13.2891 15.238L10.5768 20.0862C10.2519 20.6669 9.72748 21.1101 9.10074 21.3337L5.25218 22.7065C4.86205 22.8456 4.43296 22.6422 4.2938 22.2521C4.15464 21.8619 4.35809 21.4328 4.74823 21.2937L8.59678 19.9209C8.88166 19.8192 9.12004 19.6178 9.26771 19.3538L11.98 14.5056C12.0843 14.3191 12.1391 14.109 12.1391 13.8953V11.2749C12.1391 10.7364 11.5886 10.3734 11.0937 10.5855L8.63786 11.638C8.14643 11.8486 8.0269 12.4911 8.40972 12.8644L9.02378 13.4631C9.32036 13.7522 9.32637 14.2271 9.0372 14.5237C8.74804 14.8202 8.27321 14.8262 7.97663 14.5371L7.36257 13.9384C6.21412 12.8186 6.57269 10.8911 8.04698 10.2593L10.5028 9.20681Z" fill="black"/>
</svg>
