<svg width="24" height="24" viewBox="0 0 24 24" fill="none" xmlns="http://www.w3.org/2000/svg">
<path d="M13.1959 2.07088C11.1208 1.81935 8.94969 2.21386 7.00008 3.33946C5.14622 4.40979 3.76471 5.98408 2.92871 7.78938C3.94512 8.51122 6.56318 10.5831 8.53601 14.0001C8.69226 14.2708 8.83784 14.5385 8.97347 14.8028C9.09981 15.0489 9.21752 15.2919 9.32719 15.5313C9.4307 15.7573 9.52704 15.98 9.61671 16.199C9.70467 16.4138 9.78621 16.625 9.86178 16.8322C10.9301 19.761 10.8071 21.8831 10.8043 21.929C12.2386 22.1028 13.7187 21.9677 15.1398 21.4962C15.2278 21.467 15.3156 21.4365 15.4031 21.4047C15.6118 21.3289 15.819 21.2458 16.0245 21.1551C16.1073 21.1186 16.1898 21.0809 16.272 21.0419C16.5177 20.9255 16.7605 20.7983 17.0001 20.66C18.9497 19.5344 20.3769 17.8514 21.1966 15.9286C21.1966 15.9286 17.9642 14.3303 15.4642 10.0001C12.9642 5.67 13.1959 2.07088 13.1959 2.07088Z" fill="black"/>
<g opacity="0.5">
<path d="M3.83026 17.7677L3.87336 17.8284C4.0828 18.1212 4.30583 18.3997 4.54109 18.6636C4.82414 18.9811 5.12486 19.2775 5.44089 19.552C5.52558 19.6256 5.61137 19.6976 5.69821 19.768C7.17265 20.9637 8.95022 21.7046 10.8044 21.9294C10.8078 21.8738 10.9276 19.7544 9.86191 16.8326C9.78633 16.6254 9.70479 16.4142 9.61683 16.1994C9.52717 15.9804 9.43082 15.7577 9.32731 15.5317C9.21765 15.2923 9.09993 15.0493 8.97359 14.8032C8.83796 14.5389 8.69238 14.2712 8.53613 14.0005C6.5633 10.5835 3.94524 8.51163 2.92883 7.78979C1.60797 10.6421 1.64886 14.0711 3.33995 17.0001C3.49331 17.2658 3.65701 17.5217 3.83026 17.7677Z" fill="black"/>
<path d="M20.6605 7.00013C19.0246 4.16681 16.2117 2.43683 13.196 2.07129C13.196 2.07129 12.9643 5.67041 15.4643 10.0005C17.9643 14.3307 21.1967 15.929 21.1967 15.929C22.388 13.1345 22.2963 9.83345 20.6605 7.00013Z" fill="black"/>
</g>
</svg>
