<svg width="24" height="24" viewBox="0 0 24 24" fill="none" xmlns="http://www.w3.org/2000/svg">
<path d="M6.46609 3.6695C3.77398 5.46143 2 8.52355 2 12C2 13.6186 2.38456 15.1474 3.06729 16.5H3.5C6.65478 16.5 9.63285 15.0435 11.5697 12.5532L12 12C10.4317 9.49075 10.1761 6.37726 11.3142 3.64586L12 2C10.7892 2 9.62861 2.2152 8.55447 2.60943L8.18409 3.37495C7.05502 6.09521 6.76934 9.02891 7.32465 11.8555C7.4045 12.262 7.13974 12.6562 6.7333 12.736C6.32685 12.8159 5.93263 12.5511 5.85278 12.1447C5.29921 9.32691 5.50423 6.41367 6.46609 3.6695Z" fill="black"/>
<path opacity="0.7" d="M14.1551 6.08036C13.7498 5.99457 13.3518 6.25353 13.266 6.65876C13.1802 7.06399 13.4392 7.46204 13.8444 7.54784C16.4253 8.09425 18.8156 9.37745 20.7098 11.2709L20.712 11.2731L21.9788 12.5607L21.9846 12.555C21.8994 14.112 21.4581 15.5741 20.7407 16.8614L20.4997 16.5C18.6255 13.6887 15.4702 12 12.0914 12H11.9997C10.4315 9.49075 10.1759 6.37726 11.314 3.64586L11.9997 2C16.9418 2 21.0465 5.58496 21.8552 10.2962L21.777 10.2168L21.7727 10.2124C19.6711 8.11083 17.0188 6.68666 14.1551 6.08036Z" fill="black"/>
<path opacity="0.4" d="M15.4332 17.3226C15.7712 17.0832 15.8512 16.6151 15.6118 16.277C15.3724 15.939 14.9043 15.859 14.5663 16.0984C11.9689 17.9378 8.82217 19.0429 5.73242 19.0429H4.90097C4.16435 18.3004 3.54339 17.443 3.06738 16.5H3.50009C6.65487 16.5 9.63295 15.0435 11.5698 12.5532L12.0001 12H12.0918C15.4706 12 18.6259 13.6887 20.5001 16.5L20.741 16.8614C19.0325 19.9267 15.7584 22 12.0001 22C10.0714 22 8.27017 21.454 6.74265 20.5081C9.83849 20.2956 12.8902 19.1234 15.4332 17.3226Z" fill="black"/>
</svg>
