<svg width="24" height="24" viewBox="0 0 24 24" fill="none" xmlns="http://www.w3.org/2000/svg">
<path fill-rule="evenodd" clip-rule="evenodd" d="M4.58143 6.01037C5.2722 4.99469 6.71504 5.03259 7.44335 5.90937C8.42532 7.09155 9.80968 8.24983 11.9999 8.24983C14.2277 8.24983 15.5908 7.31995 16.5185 6.15371C17.2399 5.24674 18.7773 5.10103 19.5335 6.17693C20.1519 7.05691 20.8279 7.75783 22.1622 8.05353C22.5666 8.14315 22.8218 8.54363 22.7322 8.94803C22.6425 9.35244 22.242 9.60762 21.8376 9.518C19.9966 9.11001 19.039 8.08213 18.3062 7.0394C18.2576 6.97023 18.1707 6.91916 18.0397 6.9215C17.9037 6.92393 17.7729 6.98622 17.6924 7.08746C16.5171 8.56506 14.741 9.74983 11.9999 9.74983C9.17705 9.74983 7.41063 8.21753 6.2895 6.86782C6.22425 6.78928 6.12726 6.7479 6.0286 6.74989C5.93325 6.75182 5.86388 6.79199 5.82176 6.85393C5.07558 7.95107 4.11832 9.0845 2.16219 9.518C1.75778 9.60762 1.3573 9.35244 1.26768 8.94803C1.17806 8.54363 1.43324 8.14315 1.83765 8.05353C3.24956 7.74064 3.92582 6.97435 4.58143 6.01037ZM4.58143 16.0104C5.2722 14.9947 6.71504 15.0326 7.44335 15.9094C8.42532 17.0915 9.80968 18.2498 11.9999 18.2498C14.2277 18.2498 15.5908 17.3199 16.5185 16.1537C17.2399 15.2467 18.7773 15.101 19.5335 16.1769C20.1519 17.0569 20.8279 17.7578 22.1622 18.0535C22.5666 18.1431 22.8218 18.5436 22.7322 18.948C22.6425 19.3524 22.242 19.6076 21.8376 19.518C19.9966 19.11 19.039 18.0821 18.3062 17.0394C18.2576 16.9702 18.1707 16.9192 18.0397 16.9215C17.9037 16.9239 17.7729 16.9862 17.6924 17.0875C16.5171 18.5651 14.741 19.7498 11.9999 19.7498C9.17705 19.7498 7.41063 18.2175 6.2895 16.8678C6.22425 16.7893 6.12726 16.7479 6.0286 16.7499C5.93325 16.7518 5.86388 16.792 5.82176 16.8539C5.07558 17.9511 4.11832 19.0845 2.16219 19.518C1.75778 19.6076 1.3573 19.3524 1.26768 18.948C1.17806 18.5436 1.43324 18.1431 1.83765 18.0535C3.24956 17.7406 3.92582 16.9744 4.58143 16.0104Z" fill="black"/>
<path opacity="0.5" d="M4.58167 11.0104C5.27244 9.99469 6.71529 10.0326 7.44359 10.9094C8.42557 12.0915 9.80993 13.2498 12.0002 13.2498C14.2279 13.2498 15.5911 12.3199 16.5187 11.1537C17.2401 10.2467 18.7776 10.101 19.5337 11.1769C20.1521 12.0569 20.8281 12.7578 22.1624 13.0535C22.5668 13.1431 22.822 13.5436 22.7324 13.948C22.6428 14.3524 22.2423 14.6076 21.8379 14.518C19.9969 14.11 19.0392 13.0821 18.3064 12.0394C18.2578 11.9702 18.171 11.9192 18.04 11.9215C17.904 11.9239 17.7732 11.9862 17.6927 12.0875C16.5174 13.5651 14.7413 14.7498 12.0002 14.7498C9.1773 14.7498 7.41088 13.2175 6.28974 11.8678C6.2245 11.7893 6.1275 11.7479 6.02885 11.7499C5.93349 11.7518 5.86412 11.792 5.822 11.8539C5.07583 12.9511 4.11857 14.0845 2.16243 14.518C1.75803 14.6076 1.35754 14.3524 1.26793 13.948C1.17831 13.5436 1.43349 13.1431 1.83789 13.0535C3.2498 12.7406 3.92606 11.9744 4.58167 11.0104Z" fill="black"/>
</svg>
