<svg width="24" height="24" viewBox="0 0 24 24" fill="none" xmlns="http://www.w3.org/2000/svg">
<path fill-rule="evenodd" clip-rule="evenodd" d="M11.9999 1.25C12.4141 1.25 12.7499 1.58579 12.7499 2V3C12.7499 3.41421 12.4141 3.75 11.9999 3.75C11.5857 3.75 11.2499 3.41421 11.2499 3V2C11.2499 1.58579 11.5857 1.25 11.9999 1.25ZM1.24993 12C1.24993 11.5858 1.58571 11.25 1.99993 11.25H2.99993C3.41414 11.25 3.74993 11.5858 3.74993 12C3.74993 12.4142 3.41414 12.75 2.99993 12.75H1.99993C1.58571 12.75 1.24993 12.4142 1.24993 12ZM20.2499 12C20.2499 11.5858 20.5857 11.25 20.9999 11.25H21.9999C22.4141 11.25 22.7499 11.5858 22.7499 12C22.7499 12.4142 22.4141 12.75 21.9999 12.75H20.9999C20.5857 12.75 20.2499 12.4142 20.2499 12Z" fill="black"/>
<path d="M22.1719 16.0424C20.8486 15.7306 20.1706 14.9891 19.5455 14.0435C19.1368 13.425 18.4902 13.1875 17.869 13.2526C17.9548 12.8486 17.9999 12.4296 17.9999 12C17.9999 8.68629 15.3136 6 11.9999 6C8.68622 6 5.99993 8.68629 5.99993 12C5.99993 12.3623 6.03203 12.7171 6.09356 13.0617C5.51674 13.0396 4.93342 13.2972 4.56979 13.8657C3.9075 14.9011 3.22886 15.7123 1.82791 16.0424C1.42474 16.1374 1.17492 16.5412 1.26992 16.9444C1.36492 17.3476 1.76877 17.5974 2.17194 17.5024C4.13904 17.0389 5.09392 15.8301 5.83341 14.674C5.88418 14.5946 5.95364 14.5619 6.02957 14.5602C6.11008 14.5585 6.20368 14.5934 6.2754 14.6853C7.38852 16.1101 9.15735 17.75 11.9999 17.75C14.7602 17.75 16.5383 16.4804 17.706 14.9195C17.7934 14.8027 17.922 14.7449 18.0406 14.7427C18.1516 14.7406 18.2372 14.7844 18.2942 14.8705C19.0203 15.9692 19.9759 17.066 21.8279 17.5024C22.2311 17.5974 22.6349 17.3476 22.7299 16.9444C22.8249 16.5412 22.5751 16.1374 22.1719 16.0424Z" fill="black"/>
<g opacity="0.5">
<path d="M4.39936 4.39838C4.69225 4.10549 5.16712 4.10549 5.46002 4.39838L5.85285 4.79122C6.14575 5.08411 6.14575 5.55898 5.85285 5.85188C5.55996 6.14477 5.08509 6.14477 4.79219 5.85188L4.39936 5.45904C4.10646 5.16615 4.10646 4.69127 4.39936 4.39838Z" fill="black"/>
<path d="M19.6009 4.39864C19.8938 4.69153 19.8938 5.16641 19.6009 5.4593L19.2081 5.85214C18.9152 6.14503 18.4403 6.14503 18.1474 5.85214C17.8545 5.55924 17.8545 5.08437 18.1474 4.79148L18.5402 4.39864C18.8331 4.10575 19.308 4.10575 19.6009 4.39864Z" fill="black"/>
</g>
<path opacity="0.5" d="M4.57004 18.8659C5.25688 17.7921 6.72749 17.8273 7.4577 18.762C8.4477 20.0293 9.82965 21.2502 12.0002 21.2502C14.2088 21.2502 15.5699 20.2714 16.5051 19.0211C17.2251 18.0587 18.7909 17.9015 19.5458 19.0437C20.1708 19.9893 20.8488 20.7308 22.1722 21.0426C22.5754 21.1376 22.8252 21.5414 22.7302 21.9446C22.6352 22.3478 22.2313 22.5976 21.8282 22.5026C19.9762 22.0662 19.0206 20.9694 18.2944 19.8707C18.2374 19.7846 18.1519 19.7408 18.0408 19.7429C17.9223 19.7451 17.7936 19.8029 17.7063 19.9197C16.5386 21.4806 14.7604 22.7502 12.0002 22.7502C9.15759 22.7502 7.38876 21.1103 6.27565 19.6855C6.20392 19.5936 6.11032 19.5587 6.02981 19.5604C5.95388 19.5621 5.88442 19.5948 5.83365 19.6742C5.09416 20.8303 4.13929 22.0391 2.17218 22.5026C1.76901 22.5976 1.36516 22.3478 1.27016 21.9446C1.17516 21.5414 1.42498 21.1376 1.82816 21.0426C3.2291 20.7125 3.90775 19.9013 4.57004 18.8659Z" fill="black"/>
</svg>
