<svg width="24" height="24" viewBox="0 0 24 24" fill="none" xmlns="http://www.w3.org/2000/svg">
<path d="M10.1497 8.80219L9.70794 9.40825L10.1497 8.80219ZM12 3.10615L11.4925 3.65833C11.7794 3.9221 12.2206 3.9221 12.5075 3.65833L12 3.10615ZM13.8503 8.8022L14.2921 9.40826L13.8503 8.8022ZM12 9.67598L12 10.426H12L12 9.67598ZM10.5915 8.19612C9.90132 7.69298 9.16512 7.08112 8.60883 6.43627C8.03452 5.77053 7.75 5.18233 7.75 4.71476H6.25C6.25 5.73229 6.82845 6.66885 7.47305 7.41607C8.13569 8.18419 8.97435 8.87349 9.70794 9.40825L10.5915 8.19612ZM7.75 4.71476C7.75 3.65612 8.27002 3.05231 8.8955 2.84182C9.54754 2.62238 10.5199 2.76435 11.4925 3.65833L12.5075 2.55398C11.2302 1.37988 9.70254 0.987559 8.41707 1.42016C7.10502 1.8617 6.25 3.09623 6.25 4.71476H7.75ZM14.2921 9.40826C15.0257 8.8735 15.8643 8.18421 16.527 7.41608C17.1716 6.66886 17.75 5.73229 17.75 4.71475H16.25C16.25 5.18234 15.9655 5.77055 15.3912 6.43629C14.8349 7.08113 14.0987 7.69299 13.4085 8.19613L14.2921 9.40826ZM17.75 4.71475C17.75 3.09622 16.895 1.8617 15.5829 1.42016C14.2975 0.987559 12.7698 1.37988 11.4925 2.55398L12.5075 3.65833C13.4801 2.76435 14.4525 2.62238 15.1045 2.84181C15.73 3.0523 16.25 3.65612 16.25 4.71475H17.75ZM9.70794 9.40825C10.463 9.95869 11.0618 10.426 12 10.426L12 8.92598C11.635 8.92598 11.4347 8.81074 10.5915 8.19612L9.70794 9.40825ZM13.4085 8.19613C12.5653 8.81074 12.365 8.92598 12 8.92598L12 10.426C12.9382 10.426 13.537 9.9587 14.2921 9.40826L13.4085 8.19613Z" fill="#1C274C"/>
<path d="M5 20.3884H7.25993C8.27079 20.3884 9.29253 20.4937 10.2763 20.6964C12.0166 21.0549 13.8488 21.0983 15.6069 20.8138C16.4738 20.6734 17.326 20.4589 18.0975 20.0865C18.7939 19.7504 19.6469 19.2766 20.2199 18.7459C20.7921 18.216 21.388 17.3487 21.8109 16.6707C22.1736 16.0894 21.9982 15.3762 21.4245 14.943C20.7873 14.4619 19.8417 14.462 19.2046 14.9433L17.3974 16.3084C16.697 16.8375 15.932 17.3245 15.0206 17.4699C14.911 17.4874 14.7962 17.5033 14.6764 17.5172M14.6764 17.5172C14.6403 17.5214 14.6038 17.5254 14.5668 17.5292M14.6764 17.5172C14.8222 17.486 14.9669 17.396 15.1028 17.2775C15.746 16.7161 15.7866 15.77 15.2285 15.1431C15.0991 14.9977 14.9475 14.8764 14.7791 14.7759C11.9817 13.1074 7.62942 14.3782 5 16.2429M14.6764 17.5172C14.6399 17.525 14.6033 17.5292 14.5668 17.5292M14.5668 17.5292C14.0434 17.5829 13.4312 17.5968 12.7518 17.5326" stroke="#1C274C" stroke-width="1.5" stroke-linecap="round"/>
<rect x="2" y="14" width="3" height="8" rx="1.5" stroke="#1C274C" stroke-width="1.5"/>
</svg>
