<svg width="24" height="24" viewBox="0 0 24 24" fill="none" xmlns="http://www.w3.org/2000/svg">
<path opacity="0.5" d="M10 3.75H14V2.25H10V3.75ZM21.25 11V13H22.75V11H21.25ZM14 20.25H10V21.75H14V20.25ZM2.75 13V11H1.25V13H2.75ZM10 20.25C8.09318 20.25 6.73851 20.2484 5.71085 20.1102C4.70476 19.975 4.12511 19.7213 3.7019 19.2981L2.64124 20.3588C3.38961 21.1071 4.33855 21.4392 5.51098 21.5969C6.66182 21.7516 8.13558 21.75 10 21.75V20.25ZM1.25 13C1.25 14.8644 1.24841 16.3382 1.40313 17.489C1.56076 18.6614 1.89288 19.6104 2.64124 20.3588L3.7019 19.2981C3.27869 18.8749 3.02502 18.2952 2.88976 17.2892C2.75159 16.2615 2.75 14.9068 2.75 13H1.25ZM21.25 13C21.25 14.9068 21.2484 16.2615 21.1102 17.2892C20.975 18.2952 20.7213 18.8749 20.2981 19.2981L21.3588 20.3588C22.1071 19.6104 22.4392 18.6614 22.5969 17.489C22.7516 16.3382 22.75 14.8644 22.75 13H21.25ZM14 21.75C15.8644 21.75 17.3382 21.7516 18.489 21.5969C19.6614 21.4392 20.6104 21.1071 21.3588 20.3588L20.2981 19.2981C19.8749 19.7213 19.2952 19.975 18.2892 20.1102C17.2615 20.2484 15.9068 20.25 14 20.25V21.75ZM14 3.75C15.9068 3.75 17.2615 3.75159 18.2892 3.88976C19.2952 4.02502 19.8749 4.27869 20.2981 4.7019L21.3588 3.64124C20.6104 2.89288 19.6614 2.56076 18.489 2.40313C17.3382 2.24841 15.8644 2.25 14 2.25V3.75ZM22.75 11C22.75 9.13558 22.7516 7.66182 22.5969 6.51098C22.4392 5.33855 22.1071 4.38961 21.3588 3.64124L20.2981 4.7019C20.7213 5.12511 20.975 5.70476 21.1102 6.71085C21.2484 7.73851 21.25 9.09318 21.25 11H22.75ZM10 2.25C8.13558 2.25 6.66182 2.24841 5.51098 2.40313C4.33856 2.56076 3.38961 2.89288 2.64124 3.64124L3.7019 4.7019C4.12511 4.27869 4.70476 4.02502 5.71085 3.88976C6.73851 3.75159 8.09318 3.75 10 3.75V2.25ZM2.75 11C2.75 9.09318 2.75159 7.73851 2.88976 6.71085C3.02502 5.70476 3.27869 5.12511 3.7019 4.7019L2.64124 3.64124C1.89288 4.38961 1.56076 5.33855 1.40313 6.51098C1.24841 7.66182 1.25 9.13558 1.25 11H2.75ZM2 12.75H22V11.25H2V12.75Z" fill="black"/>
<path d="M13.5 16.5H18" stroke="black" stroke-width="1.5" stroke-linecap="round"/>
<path d="M13.5 7.5L18 7.5" stroke="black" stroke-width="1.5" stroke-linecap="round"/>
<path d="M6 17.5L6 15.5" stroke="black" stroke-width="1.5" stroke-linecap="round"/>
<path d="M6 8.5L6 6.5" stroke="black" stroke-width="1.5" stroke-linecap="round"/>
<path d="M9 17.5L9 15.5" stroke="black" stroke-width="1.5" stroke-linecap="round"/>
<path d="M9 8.5L9 6.5" stroke="black" stroke-width="1.5" stroke-linecap="round"/>
</svg>
