<svg width="24" height="24" viewBox="0 0 24 24" fill="none" xmlns="http://www.w3.org/2000/svg">
<path opacity="0.5" d="M13 21.75C13.4142 21.75 13.75 21.4142 13.75 21C13.75 20.5858 13.4142 20.25 13 20.25V21.75ZM3.17157 19.8284L3.7019 19.2981L3.7019 19.2981L3.17157 19.8284ZM20.8284 4.17157L20.2981 4.7019L20.2981 4.7019L20.8284 4.17157ZM21.25 13C21.25 13.4142 21.5858 13.75 22 13.75C22.4142 13.75 22.75 13.4142 22.75 13H21.25ZM10 3.75H14V2.25H10V3.75ZM2.75 13V12H1.25V13H2.75ZM2.75 12V11H1.25V12H2.75ZM13 20.25H10V21.75H13V20.25ZM21.25 11V12H22.75V11H21.25ZM1.25 13C1.25 14.8644 1.24841 16.3382 1.40313 17.489C1.56076 18.6614 1.89288 19.6104 2.64124 20.3588L3.7019 19.2981C3.27869 18.8749 3.02502 18.2952 2.88976 17.2892C2.75159 16.2615 2.75 14.9068 2.75 13H1.25ZM10 20.25C8.09318 20.25 6.73851 20.2484 5.71085 20.1102C4.70476 19.975 4.12511 19.7213 3.7019 19.2981L2.64124 20.3588C3.38961 21.1071 4.33855 21.4392 5.51098 21.5969C6.66182 21.7516 8.13558 21.75 10 21.75V20.25ZM14 3.75C15.9068 3.75 17.2615 3.75159 18.2892 3.88976C19.2952 4.02502 19.8749 4.27869 20.2981 4.7019L21.3588 3.64124C20.6104 2.89288 19.6614 2.56076 18.489 2.40313C17.3382 2.24841 15.8644 2.25 14 2.25V3.75ZM22.75 11C22.75 9.13558 22.7516 7.66182 22.5969 6.51098C22.4392 5.33855 22.1071 4.38961 21.3588 3.64124L20.2981 4.7019C20.7213 5.12511 20.975 5.70476 21.1102 6.71085C21.2484 7.73851 21.25 9.09318 21.25 11H22.75ZM10 2.25C8.13558 2.25 6.66182 2.24841 5.51098 2.40313C4.33856 2.56076 3.38961 2.89288 2.64124 3.64124L3.7019 4.7019C4.12511 4.27869 4.70476 4.02502 5.71085 3.88976C6.73851 3.75159 8.09318 3.75 10 3.75V2.25ZM2.75 11C2.75 9.09318 2.75159 7.73851 2.88976 6.71085C3.02502 5.70476 3.27869 5.12511 3.7019 4.7019L2.64124 3.64124C1.89288 4.38961 1.56076 5.33855 1.40313 6.51098C1.24841 7.66182 1.25 9.13558 1.25 11H2.75ZM2 12.75H22V11.25H2V12.75ZM21.25 12V13H22.75V12H21.25Z" fill="black"/>
<path d="M13.5 7.5L18 7.5" stroke="black" stroke-width="1.5" stroke-linecap="round"/>
<path d="M6 17.5L6 15.5" stroke="black" stroke-width="1.5" stroke-linecap="round"/>
<path d="M6 8.5L6 6.5" stroke="black" stroke-width="1.5" stroke-linecap="round"/>
<path d="M9 17.5L9 15.5" stroke="black" stroke-width="1.5" stroke-linecap="round"/>
<path d="M9 8.5L9 6.5" stroke="black" stroke-width="1.5" stroke-linecap="round"/>
<path d="M19.3333 16.8852C19.5419 16.8072 19.7662 16.7647 20 16.7647C20.2291 16.7647 20.4493 16.8055 20.6543 16.8806M16.7907 17.8533C16.6966 17.8338 16.5994 17.8235 16.5 17.8235C15.6716 17.8235 15 18.5346 15 19.4118C15 20.2889 15.6716 21 16.5 21H20C21.1046 21 22 20.0519 22 18.8824C22 17.9554 21.4375 17.1676 20.6543 16.8806M16.7907 17.8533C16.7105 17.6242 16.6667 17.3763 16.6667 17.1176C16.6667 15.9481 17.5621 15 18.6667 15C19.6956 15 20.543 15.8226 20.6543 16.8806M16.7907 17.8533C16.9882 17.8944 17.1718 17.9765 17.3333 18.091" stroke="black" stroke-width="1.5" stroke-linecap="round"/>
</svg>
