<svg width="24" height="24" viewBox="0 0 24 24" fill="none" xmlns="http://www.w3.org/2000/svg">
<path opacity="0.5" d="M15 5H9" stroke="black" stroke-width="1.5" stroke-linecap="round"/>
<path d="M3.50523 15.5878C3.82989 15.3306 3.88455 14.8589 3.62731 14.5342C3.37008 14.2096 2.89836 14.1549 2.5737 14.4122L3.50523 15.5878ZM12 20.6875L12.4939 21.2519C12.6566 21.1095 12.75 20.9038 12.75 20.6875C12.75 20.4712 12.6566 20.2655 12.4939 20.1231L12 20.6875ZM10.5 19.375L10.9939 18.8106C10.7724 18.6168 10.4581 18.5704 10.1901 18.692C9.9221 18.8136 9.75 19.0807 9.75 19.375H10.5ZM10.5 22H9.75C9.75 22.2943 9.9221 22.5614 10.1901 22.683C10.4581 22.8046 10.7724 22.7582 10.9939 22.5644L10.5 22ZM2.75 16.75C2.75 16.443 2.93157 16.0424 3.50523 15.5878L2.5737 14.4122C1.81667 15.012 1.25 15.7998 1.25 16.75H2.75ZM12.4939 20.1231L10.9939 18.8106L10.0061 19.9394L11.5061 21.2519L12.4939 20.1231ZM10.9939 22.5644L12.4939 21.2519L11.5061 20.1231L10.0061 21.4356L10.9939 22.5644ZM9.75 19.375V20.6435H11.25V19.375H9.75ZM9.75 20.6435V22H11.25V20.6435H9.75ZM10.5443 19.8948C8.20148 19.756 6.17254 19.2897 4.75556 18.6471C4.04582 18.3252 3.52438 17.9747 3.19064 17.6296C2.86028 17.288 2.75 16.993 2.75 16.75H1.25C1.25 17.494 1.60081 18.1434 2.11244 18.6724C2.62069 19.1979 3.32214 19.644 4.13599 20.0131C5.76619 20.7525 7.98726 21.246 10.4557 21.3922L10.5443 19.8948Z" fill="black"/>
<path opacity="0.5" d="M20.9605 15C21.6259 15.5272 22 16.1214 22 16.75C22 18.5847 18.8131 20.1263 14.5 20.5635" stroke="black" stroke-width="1.5" stroke-linecap="round"/>
<path d="M5.50174 17C5.5 16.6878 5.5 16.355 5.5 16V8C5.5 5.17157 5.5 3.75736 6.37868 2.87868C7.25736 2 8.67157 2 11.5 2H12.5C15.3284 2 16.7426 2 17.6213 2.87868C18.5 3.75736 18.5 5.17157 18.5 8V16C18.5 16.355 18.5 16.6878 18.4983 17" stroke="black" stroke-width="1.5" stroke-linecap="round"/>
</svg>
