<svg width="24" height="24" viewBox="0 0 24 24" fill="none" xmlns="http://www.w3.org/2000/svg">
<path d="M18.4439 19.1222L18.9742 19.6525L18.9742 19.6525L18.4439 19.1222ZM10.3042 19.1222L10.8346 18.5919L10.8346 18.5919L10.3042 19.1222ZM19.1222 10.3042L18.5919 10.8346L18.5919 10.8346L19.1222 10.3042ZM19.1222 18.4439L18.5919 17.9136L18.5919 17.9136L19.1222 18.4439ZM22 14.3741L22.75 14.3741L22 14.3741ZM5.55611 4.8778L6.08644 5.40813L6.08644 5.40813L5.55611 4.8778ZM13.6958 4.8778L14.2261 4.34747L14.2261 4.34747L13.6958 4.8778ZM9.62593 2V2.75V2ZM4.8778 5.55611L4.34747 5.02578L4.34747 5.02578L4.8778 5.55611ZM4.8778 13.6958L4.34747 14.2261L4.34747 14.2261L4.8778 13.6958ZM2 9.62593H1.25H2ZM5.40813 6.08644L6.08644 5.40813L5.02578 4.34747L4.34747 5.02578L5.40813 6.08644ZM13.1654 5.40813L18.5919 10.8346L19.6525 9.77391L14.2261 4.34747L13.1654 5.40813ZM18.5919 17.9136L17.9136 18.5919L18.9742 19.6525L19.6525 18.9742L18.5919 17.9136ZM10.8346 18.5919L5.40813 13.1654L4.34747 14.2261L9.77391 19.6525L10.8346 18.5919ZM17.9136 18.5919C16.9393 19.5661 16.2608 20.2423 15.6816 20.6843C15.1197 21.113 14.7402 21.25 14.3741 21.25V22.75C15.2 22.75 15.8961 22.4074 16.5915 21.8768C17.2695 21.3595 18.0299 20.5968 18.9742 19.6525L17.9136 18.5919ZM9.77391 19.6525C10.7182 20.5968 11.4786 21.3595 12.1567 21.8768C12.852 22.4073 13.5481 22.75 14.3741 22.75V21.25C14.008 21.25 13.6285 21.113 13.0665 20.6843C12.4873 20.2423 11.8088 19.5661 10.8346 18.5919L9.77391 19.6525ZM18.5919 10.8346C19.5661 11.8088 20.2423 12.4873 20.6843 13.0665C21.113 13.6285 21.25 14.008 21.25 14.3741H22.75C22.75 13.5481 22.4073 12.852 21.8768 12.1567C21.3595 11.4786 20.5968 10.7182 19.6525 9.77391L18.5919 10.8346ZM19.6525 18.9742C20.5968 18.0299 21.3595 17.2695 21.8768 16.5915C22.4073 15.8961 22.75 15.2 22.75 14.3741L21.25 14.3741C21.25 14.7402 21.113 15.1197 20.6843 15.6816C20.2423 16.2608 19.5661 16.9393 18.5919 17.9136L19.6525 18.9742ZM6.08644 5.40813C7.0607 4.43387 7.73917 3.75765 8.3184 3.31572C8.88032 2.88698 9.25984 2.75 9.62593 2.75V1.25C8.8 1.25 8.10388 1.59265 7.40853 2.12318C6.73048 2.64051 5.97005 3.4032 5.02578 4.34747L6.08644 5.40813ZM14.2261 4.34747C13.2818 3.4032 12.5214 2.64051 11.8433 2.12318C11.148 1.59265 10.4519 1.25 9.62593 1.25V2.75C9.99203 2.75 10.3715 2.88698 10.9335 3.31572C11.5127 3.75765 12.1912 4.43387 13.1654 5.40813L14.2261 4.34747ZM4.34747 5.02578C3.4032 5.97005 2.64051 6.73048 2.12318 7.40853C1.59265 8.10388 1.25 8.8 1.25 9.62593H2.75C2.75 9.25984 2.88698 8.88032 3.31572 8.3184C3.75765 7.73917 4.43387 7.0607 5.40813 6.08644L4.34747 5.02578ZM5.40813 13.1654C4.43387 12.1912 3.75765 11.5127 3.31572 10.9335C2.88698 10.3715 2.75 9.99203 2.75 9.62593H1.25C1.25 10.4519 1.59265 11.148 2.12318 11.8433C2.64051 12.5214 3.4032 13.2818 4.34747 14.2261L5.40813 13.1654Z" fill="black"/>
<path opacity="0.5" d="M9.47801 6.08697C9.7709 5.79408 9.7709 5.3192 9.47801 5.02631C9.18511 4.73342 8.71024 4.73342 8.41735 5.02631L9.47801 6.08697ZM5.02582 8.41783C4.73293 8.71073 4.73293 9.1856 5.02582 9.47849C5.31872 9.77139 5.79359 9.77139 6.08648 9.47849L5.02582 8.41783ZM8.41735 5.02631L5.02582 8.41783L6.08648 9.47849L9.47801 6.08697L8.41735 5.02631ZM16.2179 15.2443C16.4869 15.5133 16.4869 15.9495 16.2179 16.2185L17.2786 17.2792C18.1334 16.4244 18.1334 15.0385 17.2786 14.1836L16.2179 15.2443ZM16.2179 16.2185C15.9489 16.4876 15.5127 16.4876 15.2437 16.2185L14.183 17.2792C15.0378 18.134 16.4238 18.134 17.2786 17.2792L16.2179 16.2185ZM15.2437 16.2185C14.9746 15.9495 14.9746 15.5133 15.2437 15.2443L14.183 14.1836C13.3282 15.0385 13.3282 16.4244 14.183 17.2792L15.2437 16.2185ZM15.2437 15.2443C15.5127 14.9753 15.9489 14.9753 16.2179 15.2443L17.2786 14.1836C16.4238 13.3288 15.0378 13.3288 14.183 14.1836L15.2437 15.2443Z" fill="black"/>
<path opacity="0.5" d="M20.5 6.98598L22 8C22 4.98532 19.8377 2.48275 17 2" stroke="black" stroke-width="1.5" stroke-linecap="round" stroke-linejoin="round"/>
<path d="M3.5 17.014L2 16C2 19.0147 4.16229 21.5172 7 22" stroke="black" stroke-width="1.5" stroke-linecap="round" stroke-linejoin="round"/>
</svg>
