<svg width="24" height="24" viewBox="0 0 24 24" fill="none" xmlns="http://www.w3.org/2000/svg">
<path d="M13 11C13 11.5523 12.5523 12 12 12C11.4477 12 11 11.5523 11 11C11 10.4477 11.4477 10 12 10C12.5523 10 13 10.4477 13 11Z" fill="black"/>
<path d="M13 5C13 5.55229 12.5523 6 12 6C11.4477 6 11 5.55229 11 5C11 4.44772 11.4477 4 12 4C12.5523 4 13 4.44772 13 5Z" fill="black"/>
<path d="M13 17C13 17.5523 12.5523 18 12 18C11.4477 18 11 17.5523 11 17C11 16.4477 11.4477 16 12 16C12.5523 16 13 16.4477 13 17Z" fill="black"/>
<path fill-rule="evenodd" clip-rule="evenodd" d="M9.94358 1.25H14.0564C15.8942 1.24998 17.3498 1.24997 18.489 1.40314C19.6614 1.56076 20.6104 1.89288 21.3588 2.64124C22.1071 3.38961 22.4392 4.33856 22.5969 5.51098C22.6873 6.18385 22.7244 6.96711 22.7395 7.87429C22.7464 7.91516 22.75 7.95716 22.75 8C22.75 8.03525 22.7476 8.06993 22.7429 8.10388C22.75 8.66962 22.75 9.28183 22.75 9.94359V12.0564C22.75 12.7182 22.75 13.3304 22.7429 13.8961C22.7476 13.9301 22.75 13.9648 22.75 14C22.75 14.0428 22.7464 14.0848 22.7395 14.1257C22.7244 15.0329 22.6873 15.8162 22.5969 16.489C22.4392 17.6614 22.1071 18.6104 21.3588 19.3588C20.8948 19.8227 20.3538 20.1267 19.7302 20.3282C19.7432 20.3834 19.75 20.4409 19.75 20.5V22C19.75 22.4142 19.4142 22.75 19 22.75C18.5858 22.75 18.25 22.4142 18.25 22V20.6263C17.1482 20.75 15.7681 20.75 14.0564 20.75H9.94359C8.23194 20.75 6.85177 20.75 5.75 20.6263V22C5.75 22.4142 5.41421 22.75 5 22.75C4.58579 22.75 4.25 22.4142 4.25 22V20.5C4.25 20.4409 4.25684 20.3834 4.26976 20.3282C3.6462 20.1267 3.10518 19.8227 2.64124 19.3588C1.89288 18.6104 1.56076 17.6614 1.40314 16.489C1.31267 15.8162 1.27564 15.0329 1.26049 14.1257C1.25359 14.0848 1.25 14.0428 1.25 14C1.25 13.9648 1.25243 13.9301 1.25714 13.8961C1.24999 13.3304 1.24999 12.7182 1.25 12.0564V9.94358C1.24999 9.28182 1.24999 8.66961 1.25714 8.10388C1.25243 8.06993 1.25 8.03525 1.25 8C1.25 7.95716 1.25359 7.91517 1.26049 7.87429C1.27564 6.96711 1.31267 6.18385 1.40314 5.51098C1.56076 4.33856 1.89288 3.38961 2.64124 2.64124C3.38961 1.89288 4.33856 1.56076 5.51098 1.40314C6.65019 1.24997 8.10582 1.24998 9.94358 1.25ZM2.75199 8.75C2.75009 9.13839 2.75 9.5541 2.75 10V12C2.75 12.4459 2.75009 12.8616 2.75199 13.25H21.248C21.2499 12.8616 21.25 12.4459 21.25 12V10C21.25 9.5541 21.2499 9.13839 21.248 8.75H2.75199ZM21.2239 7.25H2.77607C2.79564 6.66327 2.82987 6.15634 2.88976 5.71085C3.02502 4.70476 3.27869 4.12511 3.7019 3.7019C4.12511 3.27869 4.70476 3.02502 5.71085 2.88976C6.73851 2.75159 8.09318 2.75 10 2.75H14C15.9068 2.75 17.2615 2.75159 18.2892 2.88976C19.2952 3.02502 19.8749 3.27869 20.2981 3.7019C20.7213 4.12511 20.975 4.70476 21.1102 5.71085C21.1701 6.15634 21.2044 6.66327 21.2239 7.25ZM21.2239 14.75H2.77607C2.79564 15.3367 2.82987 15.8437 2.88976 16.2892C3.02502 17.2952 3.27869 17.8749 3.7019 18.2981C4.12511 18.7213 4.70476 18.975 5.71085 19.1102C6.73851 19.2484 8.09318 19.25 10 19.25H14C15.9068 19.25 17.2615 19.2484 18.2892 19.1102C19.2952 18.975 19.8749 18.7213 20.2981 18.2981C20.7213 17.8749 20.975 17.2952 21.1102 16.2892C21.1701 15.8437 21.2044 15.3367 21.2239 14.75Z" fill="black"/>
</svg>
