<svg width="24" height="24" viewBox="0 0 24 24" fill="none" xmlns="http://www.w3.org/2000/svg">
<path fill-rule="evenodd" clip-rule="evenodd" d="M11.9642 2.25H12.0358C12.94 2.24999 13.6693 2.24998 14.2576 2.3033C14.8639 2.35826 15.3937 2.47455 15.875 2.75241C16.4451 3.08154 16.9184 3.55493 17.2476 4.125C17.5254 4.60625 17.6417 5.13605 17.6967 5.7424C17.75 6.33069 17.75 7.05998 17.75 7.96423V11.371C18.244 11.4754 18.691 11.6795 19.0519 12.0919C19.4974 12.6011 19.6427 13.2365 19.7029 13.9366C19.7043 13.9525 19.7056 13.9684 19.707 13.9843C19.7422 14.3935 19.7756 14.7811 19.754 15.105C19.7291 15.4762 19.6284 15.855 19.3272 16.1833C19.0161 16.5223 18.6254 16.6485 18.2513 16.702C18.0989 16.7237 17.9305 16.7357 17.75 16.7422V21C17.75 21.4142 17.4142 21.75 17 21.75C16.5858 21.75 16.25 21.4142 16.25 21V16.75H7.74998V21C7.74998 21.4142 7.4142 21.75 6.99998 21.75C6.58577 21.75 6.24998 21.4142 6.24998 21V16.7422C6.06947 16.7357 5.90108 16.7237 5.74871 16.702C5.37455 16.6485 4.98389 16.5223 4.67278 16.1833C4.37157 15.855 4.27087 15.4762 4.24602 15.105C4.22433 14.7811 4.25772 14.3934 4.29297 13.9842C4.29434 13.9684 4.29571 13.9525 4.29707 13.9366C4.35725 13.2365 4.50255 12.6011 4.94811 12.0919C5.309 11.6795 5.75597 11.4754 6.24998 11.371L6.24998 7.96421C6.24997 7.05997 6.24997 6.33069 6.30329 5.7424C6.35824 5.13605 6.47454 4.60625 6.75239 4.125C7.08152 3.55493 7.55491 3.08154 8.12498 2.75241C8.60624 2.47455 9.13604 2.35826 9.74238 2.3033C10.3307 2.24998 11.06 2.24999 11.9642 2.25ZM8.44359 11.25C8.40696 11.25 8.37057 11.25 8.33442 11.25H7.74998V8C7.74998 7.05158 7.7507 6.39041 7.79716 5.87779C7.84269 5.37549 7.92735 5.0899 8.05143 4.875C8.24891 4.53296 8.53294 4.24892 8.87498 4.05144C9.08989 3.92737 9.37547 3.84271 9.87778 3.79718C10.3904 3.75072 11.0516 3.75 12 3.75C12.9484 3.75 13.6096 3.75072 14.1222 3.79718C14.6245 3.84271 14.9101 3.92737 15.125 4.05144C15.467 4.24892 15.7511 4.53296 15.9485 4.875C16.0726 5.0899 16.1573 5.37549 16.2028 5.87779C16.2493 6.39041 16.25 7.05158 16.25 8V11.25H15.6655C15.6294 11.25 15.593 11.25 15.5564 11.25H8.44359ZM8.49998 12.75C7.65089 12.75 7.10013 12.7521 6.69366 12.8145C6.32015 12.8719 6.17677 12.9656 6.07698 13.0797C5.95077 13.2239 5.84322 13.4641 5.79156 14.065C5.7508 14.5393 5.72961 14.8098 5.74267 15.0048C5.74847 15.0915 5.75991 15.1324 5.76582 15.1487C5.76965 15.1592 5.77174 15.1623 5.77793 15.169L5.77911 15.1703C5.77913 15.1703 5.77909 15.1703 5.77911 15.1703L5.78219 15.1723C5.78397 15.1733 5.78709 15.1749 5.79194 15.1771C5.81282 15.1863 5.8613 15.2028 5.96083 15.2171C6.17886 15.2482 6.48489 15.25 6.99998 15.25H17C17.5151 15.25 17.8211 15.2482 18.0391 15.2171C18.1387 15.2028 18.1871 15.1863 18.208 15.1771C18.2129 15.1749 18.216 15.1733 18.2178 15.1723L18.2204 15.1707C18.2205 15.1706 18.2205 15.1706 18.2204 15.1707L18.222 15.169C18.2282 15.1623 18.2303 15.1592 18.2341 15.1487C18.2401 15.1324 18.2515 15.0915 18.2573 15.0048C18.2704 14.8098 18.2492 14.5393 18.2084 14.065C18.1567 13.4641 18.0492 13.2239 17.923 13.0797C17.8232 12.9656 17.6798 12.8719 17.3063 12.8145C16.8998 12.7521 16.3491 12.75 15.5 12.75H8.49998Z" fill="black"/>
</svg>
