<svg width="24" height="24" viewBox="0 0 24 24" fill="none" xmlns="http://www.w3.org/2000/svg">
<path fill-rule="evenodd" clip-rule="evenodd" d="M9.94358 1.25H14.0564C15.8942 1.24998 17.3498 1.24997 18.489 1.40314C19.6614 1.56076 20.6104 1.89288 21.3588 2.64124C22.1071 3.38961 22.4392 4.33856 22.5969 5.51098C22.75 6.65019 22.75 8.10583 22.75 9.94359V12.0564C22.75 13.8942 22.75 15.3498 22.5969 16.489C22.4392 17.6614 22.1071 18.6104 21.3588 19.3588C20.8948 19.8227 20.3538 20.1267 19.7302 20.3282C19.7432 20.3834 19.75 20.4409 19.75 20.5V22C19.75 22.4142 19.4142 22.75 19 22.75C18.5858 22.75 18.25 22.4142 18.25 22V20.6263C17.1482 20.75 15.7681 20.75 14.0564 20.75H9.94359C8.23194 20.75 6.85177 20.75 5.75 20.6263V22C5.75 22.4142 5.41421 22.75 5 22.75C4.58579 22.75 4.25 22.4142 4.25 22V20.5C4.25 20.4409 4.25684 20.3834 4.26976 20.3282C3.6462 20.1267 3.10518 19.8227 2.64124 19.3588C1.89288 18.6104 1.56076 17.6614 1.40314 16.489C1.24997 15.3498 1.24998 13.8942 1.25 12.0564V9.94358C1.24998 8.10582 1.24997 6.65019 1.40314 5.51098C1.56076 4.33856 1.89288 3.38961 2.64124 2.64124C3.38961 1.89288 4.33856 1.56076 5.51098 1.40314C6.65019 1.24997 8.10582 1.24998 9.94358 1.25ZM12.75 19.25H14C15.9068 19.25 17.2615 19.2484 18.2892 19.1102C19.2952 18.975 19.8749 18.7213 20.2981 18.2981C20.7213 17.8749 20.975 17.2952 21.1102 16.2892C21.2484 15.2615 21.25 13.9068 21.25 12V10C21.25 8.09318 21.2484 6.73851 21.1102 5.71085C20.975 4.70476 20.7213 4.12511 20.2981 3.7019C19.8749 3.27869 19.2952 3.02502 18.2892 2.88976C17.2615 2.75159 15.9068 2.75 14 2.75H12.75V19.25ZM11.25 2.75V19.25H10C8.09318 19.25 6.73851 19.2484 5.71085 19.1102C4.70476 18.975 4.12511 18.7213 3.7019 18.2981C3.27869 17.8749 3.02502 17.2952 2.88976 16.2892C2.75159 15.2615 2.75 13.9068 2.75 12V10C2.75 8.09318 2.75159 6.73851 2.88976 5.71085C3.02502 4.70476 3.27869 4.12511 3.7019 3.7019C4.12511 3.27869 4.70476 3.02502 5.71085 2.88976C6.73851 2.75159 8.09318 2.75 10 2.75H11.25ZM9 8.25C9.41421 8.25 9.75 8.58579 9.75 9V13C9.75 13.4142 9.41421 13.75 9 13.75C8.58579 13.75 8.25 13.4142 8.25 13V9C8.25 8.58579 8.58579 8.25 9 8.25ZM15 8.25C15.4142 8.25 15.75 8.58579 15.75 9V13C15.75 13.4142 15.4142 13.75 15 13.75C14.5858 13.75 14.25 13.4142 14.25 13V9C14.25 8.58579 14.5858 8.25 15 8.25Z" fill="black"/>
</svg>
