<svg width="24" height="24" viewBox="0 0 24 24" fill="none" xmlns="http://www.w3.org/2000/svg">
<path d="M5.25 8.5C5.25 8.08579 5.58579 7.75 6 7.75H18C18.4142 7.75 18.75 8.08579 18.75 8.5C18.75 8.91422 18.4142 9.25 18 9.25H6C5.58579 9.25 5.25 8.91422 5.25 8.5Z" fill="black"/>
<path d="M6 5.25C5.58579 5.25 5.25 5.58579 5.25 6C5.25 6.41422 5.58579 6.75 6 6.75H18C18.4142 6.75 18.75 6.41422 18.75 6C18.75 5.58579 18.4142 5.25 18 5.25H6Z" fill="black"/>
<path fill-rule="evenodd" clip-rule="evenodd" d="M7.52488 1.25H16.4751C17.6426 1.24999 18.584 1.24997 19.3334 1.3368C20.1086 1.42662 20.7734 1.61778 21.3381 2.06813C21.5576 2.24321 21.7568 2.44238 21.9319 2.66191C22.3822 3.22664 22.5734 3.8914 22.6632 4.66664C22.75 5.41601 22.75 6.35733 22.75 7.52484V7.61928C22.75 9.18808 22.75 10.431 22.6359 11.4157C22.5188 12.4263 22.2731 13.2601 21.7137 13.9616C21.4919 14.2397 21.2397 14.4919 20.9616 14.7137C20.2601 15.2731 19.4263 15.5188 18.4157 15.6359C17.431 15.75 16.1882 15.75 14.6194 15.75H9.38072C7.81193 15.75 6.56897 15.75 5.58429 15.6359C4.57368 15.5188 3.73994 15.2731 3.03842 14.7137C2.76035 14.4919 2.50806 14.2397 2.2863 13.9616C1.72686 13.2601 1.48116 12.4263 1.36407 11.4157C1.24998 10.431 1.24999 9.18813 1.25 7.6193V7.52488C1.24999 6.35736 1.24997 5.41601 1.3368 4.66664C1.42662 3.8914 1.61778 3.22664 2.06813 2.66191C2.24321 2.44238 2.44238 2.24321 2.66191 2.06813C3.22664 1.61778 3.8914 1.42662 4.66664 1.3368C5.41601 1.24997 6.35736 1.24999 7.52488 1.25ZM4.83928 2.82683C4.20227 2.90064 3.85315 3.03673 3.59715 3.24088C3.46543 3.34592 3.34592 3.46543 3.24088 3.59715C3.03673 3.85315 2.90064 4.20227 2.82683 4.83928C2.75118 5.49221 2.75 6.3464 2.75 7.57143C2.75 9.19881 2.75118 10.3548 2.8541 11.2431C2.95518 12.1154 3.14581 12.6336 3.45905 13.0263C3.61078 13.2166 3.7834 13.3892 3.97366 13.541C4.2852 13.7894 4.67558 13.9607 5.25903 14.0714C5.27429 13.6568 5.31857 13.287 5.45914 12.9476C5.73825 12.2738 6.2736 11.7384 6.94743 11.4593C7.23782 11.339 7.53734 11.2924 7.85444 11.2708C8.15906 11.25 8.5301 11.25 8.97456 11.25L15.5731 11.25C15.9658 11.2498 16.2688 11.2496 16.5363 11.3028C17.6272 11.5198 18.48 12.3726 18.697 13.4635C18.7329 13.644 18.7445 13.8406 18.7482 14.07C19.3276 13.9593 19.7161 13.7884 20.0263 13.541C20.2166 13.3892 20.3892 13.2166 20.541 13.0263C20.8542 12.6336 21.0448 12.1154 21.1459 11.2431C21.2488 10.3548 21.25 9.19881 21.25 7.57143C21.25 6.3464 21.2488 5.49221 21.1732 4.83928C21.0994 4.20227 20.9633 3.85315 20.7591 3.59715C20.6541 3.46543 20.5346 3.34592 20.4029 3.24088C20.1469 3.03673 19.7977 2.90064 19.1607 2.82683C18.5078 2.75118 17.6536 2.75 16.4286 2.75H7.57143C6.3464 2.75 5.49221 2.75118 4.83928 2.82683ZM17.2491 14.219C17.2474 13.9395 17.2417 13.8361 17.2258 13.7561C17.1272 13.2603 16.7395 12.8727 16.2437 12.774C16.1412 12.7536 16.0004 12.75 15.4998 12.75H8.99981C8.52361 12.75 8.20401 12.7504 7.95655 12.7673C7.71582 12.7837 7.59861 12.8132 7.52145 12.8452C7.21517 12.972 6.97183 13.2154 6.84496 13.5216C6.79698 13.6375 6.76724 13.8037 6.75572 14.2192C7.47927 14.2495 8.35048 14.25 9.42857 14.25H14.5714C15.6519 14.25 16.5246 14.2495 17.2491 14.219Z" fill="black"/>
<path d="M7.41586 16.876C7.76051 17.1057 7.85364 17.5714 7.62387 17.916L7.31725 18.376C7.14904 18.6283 7.20724 18.9681 7.44983 19.15C8.32931 19.8096 8.5403 21.0414 7.9305 21.9561L7.62387 22.416C7.39411 22.7607 6.92846 22.8538 6.58381 22.624C6.23916 22.3943 6.14603 21.9286 6.3758 21.584L6.68242 21.124C6.85063 20.8717 6.79243 20.5319 6.54983 20.35C5.67036 19.6904 5.45936 18.4586 6.06917 17.5439L6.3758 17.084C6.60556 16.7393 7.07121 16.6462 7.41586 16.876Z" fill="black"/>
<path d="M12.4159 16.876C12.7605 17.1057 12.8536 17.5714 12.6239 17.916L12.3172 18.376C12.149 18.6283 12.2072 18.9681 12.4498 19.15C13.3293 19.8096 13.5403 21.0414 12.9305 21.9561L12.6239 22.416C12.3941 22.7607 11.9285 22.8538 11.5838 22.624C11.2392 22.3943 11.146 21.9286 11.3758 21.584L11.6824 21.124C11.8506 20.8717 11.7924 20.5319 11.5498 20.35C10.6704 19.6904 10.4594 18.4586 11.0692 17.5439L11.3758 17.084C11.6056 16.7393 12.0712 16.6462 12.4159 16.876Z" fill="black"/>
<path d="M17.4159 16.876C17.7605 17.1057 17.8536 17.5714 17.6239 17.916L17.3172 18.376C17.149 18.6283 17.2072 18.9681 17.4498 19.15C18.3293 19.8096 18.5403 21.0414 17.9305 21.9561L17.6239 22.416C17.3941 22.7607 16.9285 22.8538 16.5838 22.624C16.2392 22.3943 16.146 21.9286 16.3758 21.584L16.6824 21.124C16.8506 20.8717 16.7924 20.5319 16.5498 20.35C15.6704 19.6904 15.4594 18.4586 16.0692 17.5439L16.3758 17.084C16.6056 16.7393 17.0712 16.6462 17.4159 16.876Z" fill="black"/>
</svg>
