<svg width="24" height="24" viewBox="0 0 24 24" fill="none" xmlns="http://www.w3.org/2000/svg">
<path fill-rule="evenodd" clip-rule="evenodd" d="M9.31798 3.38964C9.59559 2.16461 10.691 1.25 12 1.25C13.309 1.25 14.4044 2.1646 14.682 3.38964C14.8978 3.48223 15.0927 3.61879 15.2498 3.7931C15.5751 4.15398 15.7335 4.68094 15.5444 5.22727C15.1158 6.4651 14.0568 7.40977 12.75 7.675V13.4071C12.8723 13.2896 13.0013 13.1781 13.1366 13.073L13.1483 13.0639L16.488 10.6768C15.9384 9.4813 16.0424 8.08564 16.738 6.99079C17.052 6.49654 17.5694 6.28894 18.063 6.32189C18.3031 6.33792 18.5362 6.40922 18.7467 6.52565C19.9024 5.96695 21.3276 6.26924 22.152 7.3246C22.9752 8.37836 22.9325 9.84164 22.1228 10.8406C22.1873 11.0751 22.202 11.321 22.1615 11.5599C22.0793 12.0435 21.7628 12.5026 21.209 12.6966C19.8971 13.1562 18.4106 12.8628 17.3672 11.8921L14.0453 14.2666C13.2296 14.9051 12.75 15.8904 12.75 16.9368V21.25H15C15.4142 21.25 15.75 21.5858 15.75 22C15.75 22.4142 15.4142 22.75 15 22.75H9C8.58579 22.75 8.25 22.4142 8.25 22C8.25 21.5858 8.58579 21.25 9 21.25H11.25V16.9368C11.25 15.8904 10.7704 14.9051 9.95474 14.2666L6.63282 11.8921C5.58942 12.8628 4.10294 13.1562 2.79098 12.6966C2.2372 12.5026 1.92068 12.0435 1.83854 11.5599C1.79796 11.321 1.8127 11.0751 1.87724 10.8406C1.06753 9.84164 1.02484 8.37836 1.848 7.3246C2.6724 6.26924 4.09763 5.96695 5.25331 6.52565C5.46379 6.40922 5.69695 6.33792 5.93704 6.32189C6.43059 6.28894 6.94805 6.49654 7.26204 6.99079C7.95758 8.08564 8.06158 9.4813 7.51203 10.6768L10.8517 13.0639L10.8634 13.073C10.9987 13.1781 11.1277 13.2896 11.25 13.4071V7.675C9.94323 7.40977 8.88421 6.4651 8.45565 5.22727C8.2665 4.68094 8.42495 4.15398 8.75023 3.7931C8.90734 3.61879 9.10218 3.48223 9.31798 3.38964ZM10.9999 3.25H13.0001C12.772 2.94639 12.409 2.75 12 2.75C11.591 2.75 11.228 2.94639 10.9999 3.25ZM4.11822 7.75209C3.71244 7.7292 3.30214 7.89973 3.03009 8.248C2.75788 8.59646 2.68829 9.04052 2.80305 9.43572L4.11822 7.75209ZM21.197 9.43572C21.3117 9.04052 21.2421 8.59646 20.9699 8.248C20.6979 7.89973 20.2876 7.7292 19.8818 7.75209L21.197 9.43572ZM9.88826 4.7789C10.2055 5.63862 11.0323 6.25 12 6.25C12.9677 6.25 13.7946 5.63862 14.1118 4.7789C14.1059 4.77538 14.0989 4.77173 14.0908 4.7682C14.0654 4.75722 14.0343 4.75 14 4.75H10C9.96572 4.75 9.93456 4.75722 9.90922 4.7682C9.90109 4.77173 9.89413 4.77538 9.88826 4.7789ZM5.98026 7.83773C5.95366 7.8522 5.92609 7.87441 5.90244 7.90468L3.37035 11.1461C3.34669 11.1764 3.33107 11.2095 3.32284 11.241C3.31753 11.2612 3.31594 11.2781 3.31599 11.2909C4.21403 11.592 5.24218 11.3139 5.86377 10.5181C5.88127 10.4957 5.89828 10.4731 5.91481 10.4504C6.48746 9.66127 6.50241 8.61771 6.0136 7.82339C6.00428 7.82629 5.99299 7.83081 5.98026 7.83773ZM17.9864 7.82339C17.4976 8.61771 17.5125 9.66127 18.0852 10.4504C18.1017 10.4731 18.1187 10.4957 18.1362 10.5181C18.7578 11.3139 19.786 11.5919 20.684 11.2909C20.6841 11.2781 20.6825 11.2612 20.6772 11.241C20.6689 11.2095 20.6533 11.1764 20.6297 11.1461L18.0976 7.90468C18.0739 7.87441 18.0463 7.8522 18.0197 7.83773C18.007 7.83081 17.9957 7.82629 17.9864 7.82339Z" fill="black"/>
</svg>
