<svg width="24" height="24" viewBox="0 0 24 24" fill="none" xmlns="http://www.w3.org/2000/svg">
<path fill-rule="evenodd" clip-rule="evenodd" d="M11.9612 1.25H12.0388C13.2175 1.24999 14.1567 1.24998 14.9174 1.32433C15.701 1.40089 16.3623 1.56105 16.967 1.92231C17.2933 2.11721 17.5949 2.35055 17.8655 2.61733C18.3672 3.11184 18.6883 3.71167 18.9594 4.45089C19.2225 5.16858 19.4585 6.07761 19.7547 7.21848L19.8631 7.63604C20.2648 9.18321 20.5856 10.419 20.7046 11.4064C20.827 12.4212 20.7563 13.3138 20.2353 14.0899C20.1416 14.2296 20.0386 14.3628 19.927 14.4886C19.4786 14.994 18.9121 15.2871 18.25 15.4623V17C18.25 17.4142 17.9142 17.75 17.5 17.75C17.0858 17.75 16.75 17.4142 16.75 17V15.6873C15.881 15.75 14.8313 15.75 13.5866 15.75H12.75V21.25H15C15.4142 21.25 15.75 21.5858 15.75 22C15.75 22.4142 15.4142 22.75 15 22.75H9C8.58579 22.75 8.25 22.4142 8.25 22C8.25 21.5858 8.58579 21.25 9 21.25H11.25V15.75H10.4134C8.81493 15.75 7.53815 15.75 6.55254 15.6171C5.53957 15.4805 4.69332 15.1878 4.07303 14.4886C3.96142 14.3628 3.8584 14.2296 3.76466 14.0899C3.24374 13.3138 3.17304 12.4212 3.29537 11.4064C3.4144 10.419 3.73525 9.18319 4.13695 7.636L4.24533 7.21852C4.54152 6.07763 4.77751 5.16859 5.04064 4.45089C5.31166 3.71167 5.63285 3.11184 6.13447 2.61733C6.40509 2.35055 6.70675 2.11721 7.03297 1.92231C7.63766 1.56105 8.29896 1.40089 9.08256 1.32433C9.84335 1.24998 10.7825 1.24999 11.9612 1.25ZM13.5293 14.25C15.1982 14.25 16.3734 14.2484 17.247 14.1306C18.105 14.0149 18.5299 13.8031 18.8049 13.4931C18.8718 13.4176 18.9336 13.3377 18.9899 13.254C19.2208 12.91 19.319 12.4454 19.2154 11.5859C19.1099 10.7108 18.8162 9.57286 18.3968 7.95744L18.3125 7.63298C18.0044 6.44607 17.786 5.60812 17.551 4.96723C17.3211 4.34 17.097 3.966 16.8125 3.68554C16.6273 3.50301 16.4209 3.34335 16.1977 3.21C15.8548 3.00511 15.4365 2.88218 14.7716 2.81721C14.0922 2.75083 13.2263 2.75 12 2.75C10.7737 2.75 9.9078 2.75083 9.22843 2.81721C8.56355 2.88218 8.14524 3.00511 7.80229 3.21C7.57908 3.34335 7.37269 3.50301 7.18752 3.68554C6.90303 3.966 6.67893 4.34 6.44897 4.96723C6.214 5.60812 5.9956 6.44607 5.68746 7.63297L5.60322 7.95744C5.18384 9.57286 4.89009 10.7108 4.78459 11.5859C4.68098 12.4454 4.77923 12.91 5.01012 13.254C5.06636 13.3377 5.12817 13.4176 5.19514 13.4931C5.47007 13.8031 5.89501 14.0149 6.75299 14.1306C7.62657 14.2484 8.80177 14.25 10.4707 14.25H13.5293Z" fill="black"/>
</svg>
