<svg width="24" height="24" viewBox="0 0 24 24" fill="none" xmlns="http://www.w3.org/2000/svg">
<path d="M14.5 4.5C14.5 5.88071 13.3807 7 12 7C10.6193 7 9.5 5.88071 9.5 4.5C9.5 3.11929 10.6193 2 12 2C13.3807 2 14.5 3.11929 14.5 4.5Z" stroke="black" stroke-width="1.5"/>
<path opacity="0.5" d="M3 17L5.58887 15.6918C5.84084 15.5645 6 15.3043 6 15.0196C6 12.0802 8.1377 9.56573 11.0067 9.0825C11.6598 8.9725 12.3402 8.9725 12.9933 9.0825C15.8623 9.56573 18 12.0802 18 15.0196C18 15.3043 18.1592 15.5645 18.4111 15.6918L21 17" stroke="black" stroke-width="1.5" stroke-linecap="round" stroke-linejoin="round"/>
<path d="M9.5 16L8.45827 17.389C8.42647 17.4314 8.41057 17.4526 8.39456 17.4728C8.13149 17.8053 7.76956 18.0456 7.36102 18.1591C7.33616 18.166 7.31042 18.1724 7.25902 18.1852L5.77423 18.5564C4.7315 18.8171 4 19.754 4 20.8288C4 21.4757 4.52435 22 5.17116 22H6.72727C7.32654 22 7.62617 22 7.917 21.9658C8.59721 21.8859 9.25375 21.667 9.84589 21.3229C10.0991 21.1757 10.3388 20.9959 10.8182 20.6364L11 20.5M11 20.5L13 19M11 20.5L13.5397 21.4524C14.1491 21.6809 14.4539 21.7952 14.7688 21.8688C14.9318 21.9069 15.0966 21.9368 15.2625 21.9583C15.5832 22 15.9087 22 16.5596 22H18.8288C19.4757 22 20 21.4757 20 20.8288C20 19.754 19.2685 18.8171 18.2258 18.5564L16.741 18.1852C16.6896 18.1724 16.6638 18.166 16.639 18.1591C16.2304 18.0456 15.8685 17.8053 15.6054 17.4728C15.5895 17.4526 15.5735 17.4313 15.5417 17.389L14.5 16" stroke="black" stroke-width="1.5" stroke-linecap="round" stroke-linejoin="round"/>
</svg>
