<svg width="24" height="24" viewBox="0 0 24 24" fill="none" xmlns="http://www.w3.org/2000/svg">
<path opacity="0.5" d="M12.0001 21.9999C16.8362 21.9999 20.7567 18.1162 20.7567 13.3253C20.7567 8.53441 16.8362 4.65063 12.0001 4.65063C7.1639 4.65063 3.24341 8.53441 3.24341 13.3253C3.24341 18.1162 7.1639 21.9999 12.0001 21.9999Z" fill="black"/>
<path d="M11.9997 8.74707C12.4028 8.74707 12.7295 9.07072 12.7295 9.46996V13.0259L14.9481 15.2238C15.2331 15.5061 15.2331 15.9638 14.9481 16.2461C14.6632 16.5285 14.2011 16.5285 13.9162 16.2461L11.4838 13.8365C11.3469 13.701 11.27 13.5171 11.27 13.3254V9.46996C11.27 9.07072 11.5967 8.74707 11.9997 8.74707Z" fill="black"/>
<path fill-rule="evenodd" clip-rule="evenodd" d="M8.2405 2.33986C8.45409 2.67841 8.3502 3.1244 8.00844 3.33599L4.11657 5.74562C3.77481 5.95722 3.32461 5.8543 3.11102 5.51574C2.89742 5.17718 3.00131 4.7312 3.34307 4.5196L7.23494 2.10998C7.5767 1.89838 8.0269 2.0013 8.2405 2.33986Z" fill="black"/>
<path fill-rule="evenodd" clip-rule="evenodd" d="M15.7595 2.33985C15.9731 2.0013 16.4233 1.89838 16.7651 2.10998L20.6569 4.5196C20.9987 4.7312 21.1026 5.17719 20.889 5.51574C20.6754 5.8543 20.2252 5.95722 19.8834 5.74562L15.9916 3.33599C15.6498 3.1244 15.5459 2.67841 15.7595 2.33985Z" fill="black"/>
</svg>
