<svg width="24" height="24" viewBox="0 0 24 24" fill="none" xmlns="http://www.w3.org/2000/svg">
<path d="M6.96006 2C7.37758 2 7.71605 2.30996 7.71605 2.69231V4.08883C8.38663 4.07692 9.13829 4.07692 9.98402 4.07692H14.016C14.8617 4.07692 15.6134 4.07692 16.284 4.08883V2.69231C16.284 2.30996 16.6224 2 17.0399 2C17.4575 2 17.7959 2.30996 17.7959 2.69231V4.15008C19.2468 4.25647 20.1992 4.51758 20.899 5.15838C21.5987 5.79917 21.8838 6.67139 22 8V9H2V8C2.11618 6.67139 2.4013 5.79917 3.10104 5.15838C3.80079 4.51758 4.75323 4.25647 6.20406 4.15008V2.69231C6.20406 2.30996 6.54253 2 6.96006 2Z" fill="black"/>
<path opacity="0.5" d="M22 14V12C22 11.161 21.9873 9.66527 21.9744 9H2.00586C1.99296 9.66527 2.00564 11.161 2.00564 12V14C2.00564 17.7712 2.00564 19.6569 3.17688 20.8284C4.34813 22 6.23321 22 10.0034 22H14.0023C17.7724 22 19.6575 22 20.8288 20.8284C22 19.6569 22 17.7712 22 14Z" fill="black"/>
<path fill-rule="evenodd" clip-rule="evenodd" d="M14 12.25C13.0335 12.25 12.25 13.0335 12.25 14V16C12.25 16.9665 13.0335 17.75 14 17.75C14.9665 17.75 15.75 16.9665 15.75 16V14C15.75 13.0335 14.9665 12.25 14 12.25ZM14 13.75C13.8619 13.75 13.75 13.862 13.75 14V16C13.75 16.1381 13.8619 16.25 14 16.25C14.1381 16.25 14.25 16.1381 14.25 16V14C14.25 13.862 14.1381 13.75 14 13.75Z" fill="black"/>
<path d="M11.25 13C11.25 12.6967 11.0673 12.4232 10.787 12.3071C10.5068 12.191 10.1842 12.2552 9.96967 12.4697L8.46967 13.9697C8.17678 14.2626 8.17678 14.7375 8.46967 15.0304C8.76256 15.3232 9.23744 15.3232 9.53033 15.0304L9.75 14.8107V17C9.75 17.4142 10.0858 17.75 10.5 17.75C10.9142 17.75 11.25 17.4142 11.25 17V13Z" fill="black"/>
</svg>
