<svg width="24" height="24" viewBox="0 0 24 24" fill="none" xmlns="http://www.w3.org/2000/svg">
<path d="M6.94028 2C7.35614 2 7.69326 2.32421 7.69326 2.72414V4.18487C8.36117 4.17241 9.10983 4.17241 9.95219 4.17241H13.9681C14.8104 4.17241 15.5591 4.17241 16.227 4.18487V2.72414C16.227 2.32421 16.5641 2 16.98 2C17.3958 2 17.733 2.32421 17.733 2.72414V4.24894C19.178 4.36022 20.1267 4.63333 20.8236 5.30359C21.5206 5.97385 21.8046 6.88616 21.9203 8.27586L22 9H2.92456H2V8.27586C2.11571 6.88616 2.3997 5.97385 3.09665 5.30359C3.79361 4.63333 4.74226 4.36022 6.1873 4.24894V2.72414C6.1873 2.32421 6.52442 2 6.94028 2Z" fill="black"/>
<path opacity="0.5" d="M22 14.0001V12.0001C22 11.161 21.9968 9.66527 21.9839 9H2.00966C1.99675 9.66527 2.00001 11.161 2.00001 12.0001V14.0001C2.00001 17.7713 2.00001 19.6569 3.17159 20.8285C4.34316 22.0001 6.22878 22.0001 10 22.0001H14C17.7713 22.0001 19.6569 22.0001 20.8284 20.8285C22 19.6569 22 17.7713 22 14.0001Z" fill="black"/>
</svg>
