<svg width="24" height="24" viewBox="0 0 24 24" fill="none" xmlns="http://www.w3.org/2000/svg">
<path fill-rule="evenodd" clip-rule="evenodd" d="M9.25 2.75C9.25 2.33579 9.58579 2 10 2H14C14.4142 2 14.75 2.33579 14.75 2.75C14.75 3.16421 14.4142 3.5 14 3.5H10C9.58579 3.5 9.25 3.16421 9.25 2.75Z" fill="black"/>
<path opacity="0.5" d="M12 23C16.9706 23 21 18.9706 21 14C21 9.02944 16.9706 5 12 5C7.02944 5 3 9.02944 3 14C3 18.9706 7.02944 23 12 23Z" fill="black"/>
<path d="M11 16.5V11.5V11.5C11 11.0341 11 10.8011 10.9239 10.6173C10.8224 10.3723 10.6277 10.1776 10.3827 10.0761C10.1989 10 9.96594 10 9.5 10C9.03406 10 8.80109 10 8.61732 10.0761C8.37229 10.1776 8.17761 10.3723 8.07612 10.6173C8 10.8011 8 11.0341 8 11.5V16.5C8 16.9659 8 17.1989 8.07612 17.3827C8.17761 17.6277 8.37229 17.8224 8.61732 17.9239C8.80109 18 9.03406 18 9.5 18C9.96594 18 10.1989 18 10.3827 17.9239C10.6277 17.8224 10.8224 17.6277 10.9239 17.3827C11 17.1989 11 16.9659 11 16.5V16.5Z" fill="black"/>
<path d="M16 16.5V11.5C16 11.0341 16 10.8011 15.9239 10.6173C15.8224 10.3723 15.6277 10.1776 15.3827 10.0761C15.1989 10 14.9659 10 14.5 10C14.0341 10 13.8011 10 13.6173 10.0761C13.3723 10.1776 13.1776 10.3723 13.0761 10.6173C13 10.8011 13 11.0341 13 11.5V16.5C13 16.9659 13 17.1989 13.0761 17.3827C13.1776 17.6277 13.3723 17.8224 13.6173 17.9239C13.8011 18 14.0341 18 14.5 18C14.9659 18 15.1989 18 15.3827 17.9239C15.6277 17.8224 15.8224 17.6277 15.9239 17.3827C16 17.1989 16 16.9659 16 16.5Z" fill="black"/>
</svg>
