<svg width="24" height="24" viewBox="0 0 24 24" fill="none" xmlns="http://www.w3.org/2000/svg">
<path fill-rule="evenodd" clip-rule="evenodd" d="M9.25 2.75C9.25 2.33579 9.58579 2 10 2H14C14.4142 2 14.75 2.33579 14.75 2.75C14.75 3.16421 14.4142 3.5 14 3.5H10C9.58579 3.5 9.25 3.16421 9.25 2.75Z" fill="black"/>
<path opacity="0.5" d="M12 23C16.9706 23 21 18.9706 21 14C21 9.02944 16.9706 5 12 5C7.02944 5 3 9.02944 3 14C3 18.9706 7.02944 23 12 23Z" fill="black"/>
<path d="M13.0261 11.2749C12.7888 11.1083 12.5201 10.936 12.2419 10.7668L12.2419 10.7668C11.1695 10.1147 10.6333 9.78859 10.1524 10.1496C9.6715 10.5106 9.62779 11.2664 9.54038 12.7778C9.51566 13.2053 9.5 13.6243 9.5 14C9.5 14.3757 9.51566 14.7947 9.54038 15.2222C9.62779 16.7336 9.6715 17.4894 10.1524 17.8504C10.6333 18.2114 11.1695 17.8853 12.2419 17.2332C12.5201 17.064 12.7888 16.8917 13.0261 16.7251C13.2966 16.5352 13.5909 16.3073 13.8876 16.0652C14.9625 15.1883 15.5 14.7499 15.5 14C15.5 13.2501 14.9625 12.8117 13.8876 11.9348C13.5909 11.6927 13.2966 11.4648 13.0261 11.2749Z" fill="black"/>
</svg>
