<svg width="24" height="24" viewBox="0 0 24 24" fill="none" xmlns="http://www.w3.org/2000/svg">
<path opacity="0.5" d="M6.77772 18.3259C7.78661 19 9.19108 19 12 19C14.8089 19 16.2134 19 17.2223 18.3259C17.659 18.034 18.034 17.659 18.3259 17.2223C19 16.2134 19 14.8089 19 12C19 9.19108 19 7.78661 18.3259 6.77772C18.034 6.34096 17.659 5.96596 17.2223 5.67412C16.2134 5 14.8089 5 12 5C9.19108 5 7.78661 5 6.77772 5.67412C6.34096 5.96596 5.96596 6.34096 5.67412 6.77772C5 7.78661 5 9.19108 5 12C5 14.8089 5 16.2134 5.67412 17.2223C5.96596 17.659 6.34096 18.034 6.77772 18.3259Z" fill="black"/>
<path d="M12 8.25C12.4142 8.25 12.75 8.58579 12.75 9V11.7576L14.5198 13.4594C14.8184 13.7465 14.8277 14.2213 14.5406 14.5198C14.2535 14.8184 13.7787 14.8277 13.4802 14.5406L11.4802 12.6175C11.3331 12.4761 11.25 12.2809 11.25 12.0769V9C11.25 8.58579 11.5858 8.25 12 8.25Z" fill="black"/>
<path fill-rule="evenodd" clip-rule="evenodd" d="M6.25 2C6.25 1.58579 6.58579 1.25 7 1.25H17C17.4142 1.25 17.75 1.58579 17.75 2C17.75 2.41421 17.4142 2.75 17 2.75H7C6.58579 2.75 6.25 2.41421 6.25 2ZM6.25 22C6.25 21.5858 6.58579 21.25 7 21.25H17C17.4142 21.25 17.75 21.5858 17.75 22C17.75 22.4142 17.4142 22.75 17 22.75H7C6.58579 22.75 6.25 22.4142 6.25 22Z" fill="black"/>
</svg>
