<svg width="24" height="24" viewBox="0 0 24 24" fill="none" xmlns="http://www.w3.org/2000/svg">
<path fill-rule="evenodd" clip-rule="evenodd" d="M21 1.25C21.4142 1.25 21.75 1.58579 21.75 2V22C21.75 22.4142 21.4142 22.75 21 22.75C20.5858 22.75 20.25 22.4142 20.25 22V2C20.25 1.58579 20.5858 1.25 21 1.25ZM5.46778 4.25C5.47848 4.25 5.48922 4.25 5.5 4.25L14.5322 4.25C14.972 4.24998 15.3514 4.24997 15.6627 4.27818C15.9918 4.30802 16.3178 4.37407 16.625 4.55144C16.967 4.74892 17.2511 5.03296 17.4486 5.375C17.6259 5.68221 17.692 6.00817 17.7218 6.33735C17.75 6.64865 17.75 7.028 17.75 7.46779V7.53221C17.75 7.972 17.75 8.35135 17.7218 8.66265C17.692 8.99183 17.6259 9.31779 17.4486 9.625C17.2511 9.96704 16.967 10.2511 16.625 10.4486C16.3178 10.6259 15.9918 10.692 15.6627 10.7218C15.3514 10.75 14.972 10.75 14.5322 10.75H5.4678C5.028 10.75 4.64865 10.75 4.33735 10.7218C4.00817 10.692 3.68221 10.6259 3.375 10.4486C3.03296 10.2511 2.74892 9.96704 2.55144 9.625C2.37407 9.31779 2.30802 8.99183 2.27818 8.66265C2.24997 8.35136 2.24998 7.97201 2.25 7.53222V7.46778C2.24998 7.02799 2.24997 6.64864 2.27818 6.33735C2.30802 6.00817 2.37407 5.68221 2.55144 5.375C2.74892 5.03296 3.03296 4.74892 3.375 4.55144C3.68221 4.37407 4.00817 4.30802 4.33735 4.27818C4.64864 4.24997 5.02799 4.24998 5.46778 4.25ZM4.47275 5.77206C4.2476 5.79246 4.16586 5.82689 4.125 5.85048C4.01099 5.91631 3.91631 6.01099 3.85048 6.125C3.82689 6.16586 3.79247 6.2476 3.77206 6.47274C3.75072 6.7082 3.75 7.01889 3.75 7.5C3.75 7.98111 3.75072 8.2918 3.77206 8.52726C3.79247 8.7524 3.82689 8.83414 3.85048 8.875C3.91631 8.98901 4.01099 9.08369 4.125 9.14952C4.16587 9.17311 4.2476 9.20754 4.47275 9.22794C4.7082 9.24928 5.01889 9.25 5.5 9.25H14.5C14.9811 9.25 15.2918 9.24928 15.5273 9.22794C15.7524 9.20754 15.8341 9.17311 15.875 9.14952C15.989 9.08369 16.0837 8.98901 16.1495 8.875C16.1731 8.83414 16.2075 8.7524 16.2279 8.52725C16.2493 8.2918 16.25 7.98111 16.25 7.5C16.25 7.01889 16.2493 6.7082 16.2279 6.47275C16.2075 6.2476 16.1731 6.16586 16.1495 6.125C16.0837 6.01099 15.989 5.91631 15.875 5.85048C15.8341 5.82689 15.7524 5.79246 15.5273 5.77206C15.2918 5.75072 14.9811 5.75 14.5 5.75H5.5C5.01889 5.75 4.7082 5.75072 4.47275 5.77206ZM8.46779 13.25H14.5322C14.972 13.25 15.3514 13.25 15.6627 13.2782C15.9918 13.308 16.3178 13.3741 16.625 13.5514C16.967 13.7489 17.2511 14.033 17.4486 14.375C17.6259 14.6822 17.692 15.0082 17.7218 15.3373C17.75 15.6486 17.75 16.028 17.75 16.4678V16.5322C17.75 16.972 17.75 17.3514 17.7218 17.6627C17.692 17.9918 17.6259 18.3178 17.4486 18.625C17.2511 18.967 16.967 19.2511 16.625 19.4486C16.3178 19.6259 15.9918 19.692 15.6627 19.7218C15.3514 19.75 14.972 19.75 14.5322 19.75H8.46775C8.02797 19.75 7.64864 19.75 7.33735 19.7218C7.00817 19.692 6.68221 19.6259 6.375 19.4486C6.03296 19.2511 5.74892 18.967 5.55144 18.625C5.37407 18.3178 5.30802 17.9918 5.27818 17.6627C5.24997 17.3514 5.24998 16.972 5.25 16.5322V16.4678C5.24998 16.028 5.24997 15.6486 5.27818 15.3373C5.30802 15.0082 5.37407 14.6822 5.55144 14.375C5.74892 14.033 6.03296 13.7489 6.375 13.5514C6.68221 13.3741 7.00817 13.308 7.33735 13.2782C7.64865 13.25 8.028 13.25 8.46779 13.25ZM7.47275 14.7721C7.2476 14.7925 7.16586 14.8269 7.125 14.8505C7.01099 14.9163 6.91631 15.011 6.85048 15.125C6.82689 15.1659 6.79247 15.2476 6.77206 15.4727C6.75072 15.7082 6.75 16.0189 6.75 16.5C6.75 16.9811 6.75072 17.2918 6.77206 17.5273C6.79247 17.7524 6.82689 17.8341 6.85048 17.875C6.91631 17.989 7.01099 18.0837 7.125 18.1495C7.16586 18.1731 7.2476 18.2075 7.47275 18.2279C7.7082 18.2493 8.01889 18.25 8.5 18.25H14.5C14.9811 18.25 15.2918 18.2493 15.5273 18.2279C15.7524 18.2075 15.8341 18.1731 15.875 18.1495C15.989 18.0837 16.0837 17.989 16.1495 17.875C16.1731 17.8341 16.2075 17.7524 16.2279 17.5273C16.2493 17.2918 16.25 16.9811 16.25 16.5C16.25 16.0189 16.2493 15.7082 16.2279 15.4727C16.2075 15.2476 16.1731 15.1659 16.1495 15.125C16.0837 15.011 15.989 14.9163 15.875 14.8505C15.8341 14.8269 15.7524 14.7925 15.5273 14.7721C15.2918 14.7507 14.9811 14.75 14.5 14.75H8.5C8.01889 14.75 7.7082 14.7507 7.47275 14.7721Z" fill="black"/>
</svg>
