<svg width="24" height="24" viewBox="0 0 24 24" fill="none" xmlns="http://www.w3.org/2000/svg">
<path fill-rule="evenodd" clip-rule="evenodd" d="M5.948 1.25L8.9992 1.25C8.99947 1.25 8.99894 1.25 8.9992 1.25C8.99947 1.25 9.00054 1.25 9.0008 1.25H11.9993C11.9996 1.25 11.9991 1.25 11.9993 1.25C11.9996 1.25 12.0005 1.25 12.0007 1.25H14.9995C14.9997 1.25 14.9993 1.25 14.9995 1.25C14.9997 1.25 15.0004 1.25 15.0005 1.25L18.5383 1.25C19.2079 1.24999 19.7667 1.24997 20.219 1.29599C20.6925 1.34415 21.1318 1.44886 21.5278 1.71346C21.8281 1.9141 22.0859 2.17191 22.2865 2.47219C22.5511 2.86818 22.6559 3.30755 22.704 3.78102C22.75 4.23336 22.75 4.79209 22.75 5.46168V5.53832C22.75 6.20791 22.75 6.76665 22.704 7.21898C22.6559 7.69246 22.5511 8.13182 22.2865 8.52782C22.0859 8.82809 21.8281 9.08591 21.5278 9.28654C21.1318 9.55114 20.6925 9.65585 20.219 9.70402C19.7666 9.75003 19.2079 9.75002 18.5383 9.75L11 9.75C10.5074 9.75 10.2134 9.7516 10.0027 9.77993C9.90611 9.79291 9.85775 9.8082 9.83597 9.81716C9.83092 9.81924 9.82761 9.82085 9.82567 9.82186L9.82324 9.82324L9.82186 9.82567C9.82085 9.82761 9.81924 9.83092 9.81716 9.83597C9.8082 9.85775 9.79291 9.90611 9.77993 10.0027C9.7516 10.2134 9.75 10.5074 9.75 11L9.75 18.5383C9.75002 19.2079 9.75003 19.7666 9.70402 20.219C9.65585 20.6925 9.55114 21.1318 9.28654 21.5278C9.08591 21.8281 8.82809 22.0859 8.52782 22.2865C8.13182 22.5511 7.69246 22.6559 7.21898 22.704C6.76665 22.75 6.20791 22.75 5.53832 22.75H5.46168C4.79209 22.75 4.23336 22.75 3.78102 22.704C3.30755 22.6559 2.86818 22.5511 2.47219 22.2865C2.17191 22.0859 1.9141 21.8281 1.71346 21.5278C1.44886 21.1318 1.34415 20.6925 1.29599 20.219C1.24997 19.7667 1.24999 19.2079 1.25 18.5383L1.25 5.948C1.24997 5.04952 1.24995 4.3003 1.32991 3.70552C1.41432 3.07773 1.59999 2.51093 2.05546 2.05546C2.51093 1.59999 3.07773 1.41432 3.70552 1.32991C4.3003 1.24995 5.04952 1.24997 5.948 1.25ZM2.75 9.75H5C5.41422 9.75 5.75 9.41422 5.75 9C5.75 8.58579 5.41422 8.25 5 8.25H2.75V6C2.75 5.03599 2.7516 4.38843 2.81654 3.90539C2.87858 3.44393 2.9858 3.24644 3.11612 3.11612C3.24644 2.9858 3.44393 2.87858 3.90539 2.81654C4.38843 2.7516 5.03599 2.75 6 2.75H8.25L8.25 5C8.25 5.41422 8.58579 5.75 9 5.75C9.41422 5.75 9.75 5.41422 9.75 5L9.75 2.75H11.25V4C11.25 4.41422 11.5858 4.75 12 4.75C12.4142 4.75 12.75 4.41422 12.75 4V2.75H14.25V5C14.25 5.41422 14.5858 5.75 15 5.75C15.4142 5.75 15.75 5.41422 15.75 5V2.75H17.25V4C17.25 4.41422 17.5858 4.75 18 4.75C18.4142 4.75 18.75 4.41422 18.75 4V2.7501C19.3326 2.75075 19.7441 2.75542 20.0672 2.78828C20.422 2.82438 20.586 2.8882 20.6945 2.96067C20.831 3.05186 20.9481 3.16905 21.0393 3.30554C21.1118 3.41399 21.1756 3.57796 21.2117 3.93283C21.2491 4.30023 21.25 4.78216 21.25 5.5C21.25 6.21784 21.2491 6.69977 21.2117 7.06717C21.1756 7.42204 21.1118 7.58601 21.0393 7.69446C20.9481 7.83095 20.831 7.94814 20.6945 8.03934C20.586 8.1118 20.422 8.17562 20.0672 8.21172C19.6998 8.2491 19.2178 8.25 18.5 8.25H11C10.985 8.25 10.9701 8.25 10.9553 8.25C10.5224 8.24995 10.1256 8.2499 9.80279 8.2933C9.44731 8.34109 9.07159 8.45354 8.76257 8.76257C8.45354 9.07159 8.34109 9.44731 8.2933 9.80279C8.2499 10.1256 8.24995 10.5224 8.25 10.9553C8.25 10.9701 8.25 10.985 8.25 11V18.5C8.25 19.2178 8.2491 19.6998 8.21172 20.0672C8.17562 20.422 8.1118 20.586 8.03934 20.6945C7.94814 20.831 7.83095 20.9481 7.69447 21.0393C7.58602 21.1118 7.42204 21.1756 7.06717 21.2117C6.69977 21.2491 6.21784 21.25 5.5 21.25C4.78216 21.25 4.30023 21.2491 3.93283 21.2117C3.57796 21.1756 3.41399 21.1118 3.30554 21.0393C3.16905 20.9481 3.05186 20.831 2.96067 20.6945C2.8882 20.586 2.82438 20.422 2.78828 20.0672C2.75542 19.7441 2.75075 19.3326 2.7501 18.75H4C4.41422 18.75 4.75 18.4142 4.75 18C4.75 17.5858 4.41422 17.25 4 17.25H2.75V15.75L5 15.75C5.41422 15.75 5.75 15.4142 5.75 15C5.75 14.5858 5.41422 14.25 5 14.25L2.75 14.25V12.75H4C4.41422 12.75 4.75 12.4142 4.75 12C4.75 11.5858 4.41422 11.25 4 11.25H2.75V9.75Z" fill="black"/>
</svg>
