<svg width="24" height="24" viewBox="0 0 24 24" fill="none" xmlns="http://www.w3.org/2000/svg">
<path fill-rule="evenodd" clip-rule="evenodd" d="M7.58656 3.10761C7.18916 3.41081 6.7188 3.87892 6.02202 4.5757L4.57572 6.022C3.87894 6.71878 3.41083 7.18914 3.10763 7.58654C2.81764 7.96662 2.75002 8.19057 2.75002 8.38426C2.75002 8.57795 2.81764 8.8019 3.10763 9.18198C3.41083 9.57937 3.87894 10.0497 4.57572 10.7465C4.86862 11.0394 4.86862 11.5143 4.57572 11.8072C4.28283 12.1001 3.80796 12.1001 3.51506 11.8072L3.47816 11.7703C2.8278 11.12 2.28668 10.5789 1.9151 10.0919C1.5233 9.57835 1.25002 9.03779 1.25002 8.38426C1.25002 7.73073 1.5233 7.19018 1.9151 6.67666C2.28668 6.18964 2.8278 5.64856 3.47816 4.99824C3.49042 4.98598 3.50272 4.97368 3.51506 4.96134L4.96136 3.51504C4.97369 3.50271 4.98599 3.49041 4.99825 3.47815C5.64857 2.82778 6.18966 2.28666 6.67668 1.91508C7.1902 1.52328 7.73075 1.25 8.38428 1.25C9.03781 1.25 9.57837 1.52328 10.0919 1.91508C10.5789 2.28666 11.12 2.82778 11.7703 3.47814L11.8072 3.51504C11.9479 3.65569 12.0269 3.84646 12.0269 4.04537C12.0269 4.24428 11.9479 4.43505 11.8072 4.5757L9.39671 6.98619C9.10382 7.27909 8.62894 7.27909 8.33605 6.98619C8.04316 6.6933 8.04316 6.21843 8.33605 5.92553L10.215 4.04659C9.79407 3.63157 9.46901 3.32658 9.18201 3.10761C8.80192 2.81761 8.57797 2.75 8.38428 2.75C8.19059 2.75 7.96664 2.81762 7.58656 3.10761ZM19.9547 11.9731C20.1536 11.9731 20.3443 12.0522 20.485 12.1928L20.5219 12.2297C21.1722 12.88 21.7134 13.4211 22.0849 13.9081C22.4767 14.4217 22.75 14.9622 22.75 15.6157C22.75 16.2693 22.4767 16.8098 22.0849 17.3233C21.7134 17.8104 21.1722 18.3514 20.5219 19.0018L19.0018 20.5219C18.3515 21.1722 17.8104 21.7133 17.3234 22.0849C16.8098 22.4767 16.2693 22.75 15.6158 22.75C14.9622 22.75 14.4217 22.4767 13.9082 22.0849C13.4211 21.7133 12.8801 21.1722 12.2297 20.5219L12.1928 20.485C11.8999 20.1921 11.8999 19.7172 12.1928 19.4243C12.4857 19.1314 12.9606 19.1314 13.2535 19.4243C13.9503 20.1211 14.4206 20.5892 14.818 20.8924C15.1981 21.1824 15.4221 21.25 15.6158 21.25C15.8095 21.25 16.0334 21.1824 16.4135 20.8924C16.8109 20.5892 17.2812 20.1211 17.978 19.4243L19.4243 17.978C20.1211 17.2812 20.5892 16.8109 20.8924 16.4135C21.1824 16.0334 21.25 15.8094 21.25 15.6157C21.25 15.422 21.1824 15.1981 20.8924 14.818C20.6734 14.531 20.3685 14.206 19.9534 13.785L18.0745 15.664C17.7816 15.9569 17.3067 15.9569 17.0138 15.664C16.7209 15.3711 16.7209 14.8962 17.0138 14.6033L19.4243 12.1928C19.565 12.0522 19.7557 11.9731 19.9547 11.9731Z" fill="black"/>
<path fill-rule="evenodd" clip-rule="evenodd" d="M14.7566 2.62145C16.5852 0.792851 19.55 0.792851 21.3786 2.62145C23.2072 4.45005 23.2072 7.41479 21.3786 9.24339L11.8933 18.7287C11.3514 19.2706 11.0323 19.5897 10.6774 19.8665C10.2592 20.1927 9.80655 20.4725 9.32766 20.7007C8.92136 20.8943 8.49334 21.037 7.76623 21.2793L4.43511 22.3897L3.63303 22.6571C2.98247 22.8739 2.26522 22.7046 1.78032 22.2197C1.29542 21.7348 1.1261 21.0175 1.34296 20.367L2.72068 16.2338C2.96303 15.5067 3.10568 15.0787 3.29932 14.6724C3.52755 14.1935 3.80727 13.7409 4.13354 13.3226C4.41035 12.9677 4.72939 12.6487 5.27137 12.1067L14.7566 2.62145ZM20.3179 3.68211C19.0751 2.4393 17.0601 2.4393 15.8173 3.68211L15.1554 4.34404C15.1896 4.519 15.2474 4.75684 15.3438 5.03487C15.561 5.66083 15.9712 6.48288 16.7442 7.25585C17.5171 8.02881 18.3392 8.43903 18.9651 8.6562C19.2432 8.75266 19.481 8.81046 19.656 8.84466L20.3179 8.18272C21.5607 6.93991 21.5607 4.92492 20.3179 3.68211ZM18.4393 10.0614C17.6506 9.78321 16.6346 9.26763 15.6835 8.31651C14.7324 7.36538 14.2168 6.34939 13.9387 5.56075L6.36917 13.1302C5.77951 13.7199 5.52959 13.9716 5.3163 14.2451C5.05704 14.5775 4.83476 14.9371 4.65341 15.3177C4.50421 15.6307 4.3908 15.9669 4.12709 16.758L3.17992 19.5995L4.40051 20.8201L7.24203 19.8729C8.03314 19.6092 8.36927 19.4958 8.68233 19.3466C9.06287 19.1653 9.42252 18.943 9.75492 18.6837C10.0284 18.4704 10.2801 18.2205 10.8698 17.6308L18.4393 10.0614Z" fill="black"/>
</svg>
