<svg width="24" height="24" viewBox="0 0 24 24" fill="none" xmlns="http://www.w3.org/2000/svg">
<path fill-rule="evenodd" clip-rule="evenodd" d="M15.948 1.25H18.052C18.9505 1.24997 19.6997 1.24995 20.2945 1.32991C20.9223 1.41432 21.4891 1.59999 21.9445 2.05546C22.4 2.51093 22.5857 3.07773 22.6701 3.70552C22.7501 4.30031 22.75 5.04953 22.75 5.94801V8.052C22.75 8.95048 22.7501 9.6997 22.6701 10.2945C22.5857 10.9223 22.4 11.4891 21.9445 11.9445C21.4891 12.4 20.9223 12.5857 20.2945 12.6701C19.6997 12.7501 18.9505 12.75 18.052 12.75L17.75 12.75L17.75 13.052C17.75 13.9505 17.7501 14.6997 17.6701 15.2945C17.5857 15.9223 17.4 16.4891 16.9445 16.9445C16.4891 17.4 15.9223 17.5857 15.2945 17.6701C14.6997 17.7501 13.9505 17.75 13.052 17.75L12.75 17.75L12.75 18.052C12.75 18.9505 12.7501 19.6997 12.6701 20.2945C12.5857 20.9223 12.4 21.4891 11.9445 21.9445C11.4891 22.4 10.9223 22.5857 10.2945 22.6701C9.6997 22.7501 8.95048 22.75 8.052 22.75H5.94801C5.04953 22.75 4.30031 22.7501 3.70552 22.6701C3.07773 22.5857 2.51093 22.4 2.05546 21.9445C1.59999 21.4891 1.41432 20.9223 1.32991 20.2945C1.24995 19.6997 1.24997 18.9505 1.25 18.052V15.948C1.24997 15.0495 1.24995 14.3003 1.32991 13.7055C1.41432 13.0777 1.59999 12.5109 2.05546 12.0555C2.51093 11.6 3.07773 11.4143 3.70552 11.3299C4.30031 11.2499 5.04953 11.25 5.94801 11.25L6.25 11.25L6.25 10.948C6.24997 10.0495 6.24995 9.30031 6.32991 8.70552C6.41432 8.07773 6.59999 7.51093 7.05546 7.05546C7.51093 6.59999 8.07773 6.41432 8.70552 6.32991C9.30031 6.24995 10.0495 6.24997 10.948 6.25L11.25 6.25L11.25 5.94801C11.25 5.04953 11.2499 4.30031 11.3299 3.70552C11.4143 3.07773 11.6 2.51093 12.0555 2.05546C12.5109 1.59999 13.0777 1.41432 13.7055 1.32991C14.3003 1.24995 15.0495 1.24997 15.948 1.25ZM11.25 7.75H11C10.036 7.75 9.38843 7.7516 8.90539 7.81654C8.44393 7.87858 8.24644 7.9858 8.11612 8.11612C7.9858 8.24644 7.87858 8.44393 7.81654 8.90539C7.7516 9.38843 7.75 10.036 7.75 11V13C7.75 13.964 7.7516 14.6116 7.81654 15.0946C7.87858 15.5561 7.9858 15.7536 8.11612 15.8839C8.24644 16.0142 8.44393 16.1214 8.90539 16.1835C9.38843 16.2484 10.036 16.25 11 16.25H13C13.964 16.25 14.6116 16.2484 15.0946 16.1835C15.5561 16.1214 15.7536 16.0142 15.8839 15.8839C16.0142 15.7536 16.1214 15.5561 16.1835 15.0946C16.2484 14.6116 16.25 13.964 16.25 13V12.75L15.948 12.75C15.0495 12.75 14.3003 12.7501 13.7055 12.6701C13.0777 12.5857 12.5109 12.4 12.0555 11.9445C11.6 11.4891 11.4143 10.9223 11.3299 10.2945C11.2499 9.6997 11.25 8.95048 11.25 8.052L11.25 7.75ZM6.25 12.75H6C5.03599 12.75 4.38843 12.7516 3.90539 12.8165C3.44393 12.8786 3.24644 12.9858 3.11612 13.1161C2.9858 13.2464 2.87858 13.4439 2.81654 13.9054C2.7516 14.3884 2.75 15.036 2.75 16V18C2.75 18.964 2.7516 19.6116 2.81654 20.0946C2.87858 20.5561 2.9858 20.7536 3.11612 20.8839C3.24644 21.0142 3.44393 21.1214 3.90539 21.1835C4.38843 21.2484 5.03599 21.25 6 21.25H8C8.96401 21.25 9.61157 21.2484 10.0946 21.1835C10.5561 21.1214 10.7536 21.0142 10.8839 20.8839C11.0142 20.7536 11.1214 20.5561 11.1835 20.0946C11.2484 19.6116 11.25 18.964 11.25 18V17.75L10.948 17.75C10.0495 17.75 9.30031 17.7501 8.70552 17.6701C8.07773 17.5857 7.51093 17.4 7.05546 16.9445C6.59999 16.4891 6.41432 15.9223 6.32991 15.2945C6.24995 14.6997 6.24997 13.9505 6.25 13.052L6.25 12.75ZM13.9054 2.81654C13.4439 2.87858 13.2464 2.9858 13.1161 3.11612C12.9858 3.24644 12.8786 3.44393 12.8165 3.90539C12.7516 4.38843 12.75 5.03599 12.75 6V8C12.75 8.96401 12.7516 9.61157 12.8165 10.0946C12.8786 10.5561 12.9858 10.7536 13.1161 10.8839C13.2464 11.0142 13.4439 11.1214 13.9054 11.1835C14.3884 11.2484 15.036 11.25 16 11.25H18C18.964 11.25 19.6116 11.2484 20.0946 11.1835C20.5561 11.1214 20.7536 11.0142 20.8839 10.8839C21.0142 10.7536 21.1214 10.5561 21.1835 10.0946C21.2484 9.61157 21.25 8.96401 21.25 8V6C21.25 5.03599 21.2484 4.38843 21.1835 3.90539C21.1214 3.44393 21.0142 3.24644 20.8839 3.11612C20.7536 2.9858 20.5561 2.87858 20.0946 2.81654C19.6116 2.7516 18.964 2.75 18 2.75H16C15.036 2.75 14.3884 2.7516 13.9054 2.81654Z" fill="black"/>
</svg>
