<svg width="24" height="24" viewBox="0 0 24 24" fill="none" xmlns="http://www.w3.org/2000/svg">
<path d="M5.65517 2.22732C5.2225 2.34037 4.9438 2.50021 4.72718 2.71244C4.42179 3.01165 4.22268 3.43172 4.11382 4.225C4.00176 5.04159 4 6.12387 4 7.67568V16.2442C4.38867 15.9781 4.82674 15.7756 5.29899 15.6517C5.41296 15.6217 5.53103 15.5983 5.65517 15.5799V2.22732Z" fill="black"/>
<path d="M7.31034 15.5135C7.32206 15.5135 7.33382 15.5135 7.34563 15.5135L20 15.5135V7.67568C20 6.12387 19.9982 5.04159 19.8862 4.22499C19.7773 3.43172 19.5782 3.01165 19.2728 2.71244C18.9674 2.41324 18.5387 2.21816 17.729 2.11151C16.8955 2.00172 15.7908 2 14.2069 2H9.7931C8.79138 2 7.98133 2.00069 7.31034 2.02897V15.5135Z" fill="black"/>
<path d="M8.68976 17.1351H7.47352C6.39406 17.1351 6.01668 17.1421 5.72748 17.218C4.93375 17.4264 4.30099 18.0044 4.02963 18.7558C4.04641 19.1382 4.0727 19.4746 4.11393 19.775C4.22279 20.5683 4.4219 20.9884 4.72729 21.2876C5.03269 21.5868 5.46145 21.7818 6.27114 21.8885C7.10463 21.9983 8.2093 22 9.79321 22H14.207C15.7909 22 16.8956 21.9983 17.7291 21.8885C18.5388 21.7818 18.9675 21.5868 19.2729 21.2876C19.5783 20.9884 19.7774 20.5683 19.8863 19.775C19.9777 19.1088 19.9957 18.2657 19.9993 17.1351H13.1036V20.1417C13.1036 20.4397 13.1036 20.5886 12.9989 20.6488C12.8942 20.709 12.7511 20.6424 12.4648 20.5092L11.0941 19.8713C10.9972 19.8262 10.9488 19.8037 10.8967 19.8037C10.8446 19.8037 10.7961 19.8262 10.6993 19.8713L9.32853 20.5092C9.04224 20.6424 8.8991 20.709 8.79443 20.6488C8.68976 20.5886 8.68976 20.4397 8.68976 20.1417V17.1351Z" fill="black"/>
</svg>
