<svg width="24" height="24" viewBox="0 0 24 24" fill="none" xmlns="http://www.w3.org/2000/svg">
<path fill-rule="evenodd" clip-rule="evenodd" d="M9.87774 4.24993C10.187 3.37503 11.0214 2.75 11.9999 2.75C12.9784 2.75 13.8128 3.37503 14.1221 4.24993C14.2601 4.64047 14.6886 4.84517 15.0791 4.70713C15.4697 4.56909 15.6744 4.1406 15.5363 3.75007C15.0219 2.29459 13.6339 1.25 11.9999 1.25C10.366 1.25 8.97792 2.29459 8.46348 3.75007C8.32545 4.1406 8.53014 4.56909 8.92068 4.70713C9.31122 4.84517 9.73971 4.64047 9.87774 4.24993ZM2.74721 8.09098C2.69387 8.05631 2.63777 8.02929 2.5802 8.00965C2.73334 7.69204 2.92691 7.41623 3.17157 7.17157C4.34315 6 6.22876 6 10 6H14C17.7712 6 19.6569 6 20.8284 7.17157C21.0731 7.41626 21.2667 7.6921 21.4199 8.00975C21.3624 8.02939 21.3064 8.05637 21.2531 8.09098C19.1527 9.45626 17.8331 10.3102 16.7366 10.858C16.6702 10.5117 16.3657 10.25 16 10.25C15.5858 10.25 15.25 10.5858 15.25 11V11.4581C13.1306 12.0976 10.8694 12.0976 8.75 11.458V11C8.75 10.5858 8.41421 10.25 8 10.25C7.6344 10.25 7.3299 10.5116 7.26346 10.8578C6.16701 10.31 4.84744 9.45613 2.74721 8.09098ZM2 14C2 12.0495 2 10.6035 2.16208 9.49968C4.43876 10.9795 5.89798 11.9233 7.25 12.5046V13C7.25 13.4142 7.58579 13.75 8 13.75C8.40872 13.75 8.74109 13.4231 8.74982 13.0164C10.8801 13.5781 13.1199 13.5781 15.2502 13.0165C15.259 13.4231 15.5913 13.75 16 13.75C16.4142 13.75 16.75 13.4142 16.75 13V12.5047C18.1021 11.9235 19.5613 10.9797 21.8379 9.49988C22 10.6036 22 12.0497 22 14C22 17.7712 22 19.6569 20.8284 20.8284C19.6569 22 17.7712 22 14 22H10C6.22876 22 4.34315 22 3.17157 20.8284C2 19.6569 2 17.7712 2 14Z" fill="black"/>
</svg>
