<svg width="24" height="24" viewBox="0 0 24 24" fill="none" xmlns="http://www.w3.org/2000/svg">
<path fill-rule="evenodd" clip-rule="evenodd" d="M3.17157 2.17157C2 3.34315 2 5.22876 2 9V13C2 16.7712 2 18.6569 3.17157 19.8284C4.34315 21 6.22876 21 10 21H14C17.7712 21 19.6569 21 20.8284 19.8284C22 18.6569 22 16.7712 22 13V9C22 5.22876 22 3.34315 20.8284 2.17157C19.6569 1 17.7712 1 14 1H10C6.22876 1 4.34315 1 3.17157 2.17157ZM12.5074 15.7223L12.5 15.7262V7.28277L12.5219 7.27042C13.0752 6.95027 13.9685 6.47356 14.7 6.27079C15.2404 6.12099 15.9405 6.05197 16.5568 6.0217C17.3619 5.98216 18 6.64543 18 7.45154V12.9108C18 13.7437 17.3207 14.4151 16.4901 14.477C15.9839 14.5147 15.4375 14.5783 15 14.6852C14.1634 14.8896 13.1174 15.4009 12.5074 15.7223ZM6 7.49649V12.9108C6 13.7437 6.67934 14.4151 7.50991 14.477C8.01608 14.5147 8.56248 14.5783 9 14.6852C9.83655 14.8896 10.8826 15.4009 11.4926 15.7223L11.5 15.7262V7.31094C11.4881 7.30525 11.4763 7.29933 11.4646 7.29318C10.851 6.9711 9.8239 6.4721 9 6.27079C8.55592 6.16228 7.99967 6.09844 7.48717 6.06091C6.66539 6.00074 6 6.67251 6 7.49649Z" fill="black"/>
</svg>
