<svg width="24" height="24" viewBox="0 0 24 24" fill="none" xmlns="http://www.w3.org/2000/svg">
<path d="M9.70711 4.79289C9.41421 4.5 8.94281 4.5 8 4.5H7.75V3C7.75 2.58579 7.41421 2.25 7 2.25C6.58579 2.25 6.25 2.58579 6.25 3V4.5H6C5.05719 4.5 4.58579 4.5 4.29289 4.79289C4 5.08579 4 5.55719 4 6.5V6.7038C4.20249 6.65059 4.40564 6.61348 4.60559 6.5866C5.25121 6.4998 6.04487 6.49989 6.9105 6.49999H7.0895C7.95513 6.49989 8.74879 6.4998 9.39441 6.5866C9.59436 6.61348 9.79751 6.65059 9.99999 6.7038L10 6.5C10 5.55719 10 5.08579 9.70711 4.79289Z" fill="#1C274C"/>
<path fill-rule="evenodd" clip-rule="evenodd" d="M2 21.25C1.58579 21.25 1.25 21.5858 1.25 22C1.25 22.4142 1.58579 22.75 2 22.75H22C22.4142 22.75 22.75 22.4142 22.75 22C22.75 21.5858 22.4142 21.25 22 21.25H21V7.77195C21 6.4311 21 5.76068 20.6439 5.24676C20.2877 4.73283 19.66 4.49743 18.4045 4.02663C15.9492 3.10591 14.7216 2.64555 13.8608 3.2421C13 3.83864 13 5.14974 13 7.77195V10.5L13.0895 10.5C13.9551 10.4999 14.7488 10.4998 15.3944 10.5866C16.1054 10.6822 16.8568 10.9071 17.4749 11.5251C18.0929 12.1432 18.3178 12.8946 18.4134 13.6056C18.5002 14.2512 18.5001 15.0449 18.5 15.9105L18.5 16V21.25H17V16C17 14.1144 17 13.1716 16.4142 12.5858C15.8284 12 14.8856 12 13 12H11C9.11438 12 8.17157 12 7.58579 12.5858C7 13.1716 7 14.1144 7 16V21.25H5.5V16L5.49999 15.9105C5.49989 15.0449 5.4998 14.2512 5.5866 13.6056C5.68219 12.8946 5.90708 12.1432 6.52513 11.5251C7.14317 10.9071 7.89462 10.6822 8.60558 10.5866C9.25121 10.4998 10.0449 10.4999 10.9105 10.5L10.9825 10.5C10.9436 9.56385 10.8183 8.98987 10.4142 8.58579C9.82843 8 8.88562 8 7 8C5.11438 8 4.17157 8 3.58579 8.58579C3 9.17157 3 10.1144 3 12V21.25H2ZM9.25 15C9.25 14.5858 9.58579 14.25 10 14.25H14C14.4142 14.25 14.75 14.5858 14.75 15C14.75 15.4142 14.4142 15.75 14 15.75H10C9.58579 15.75 9.25 15.4142 9.25 15ZM9.25 18C9.25 17.5858 9.58579 17.25 10 17.25H14C14.4142 17.25 14.75 17.5858 14.75 18C14.75 18.4142 14.4142 18.75 14 18.75H10C9.58579 18.75 9.25 18.4142 9.25 18Z" fill="#1C274C"/>
</svg>
