<svg width="24" height="24" viewBox="0 0 24 24" fill="none" xmlns="http://www.w3.org/2000/svg">
<path d="M7.35111 15L6.71424 17.323C6.0859 19.6148 5.77173 20.7607 6.19097 21.3881C6.3379 21.6079 6.535 21.7844 6.76372 21.9008C7.41635 22.2331 8.42401 21.7081 10.4393 20.658C11.1099 20.3086 11.4452 20.1339 11.8014 20.0959C11.9335 20.0818 12.0665 20.0818 12.1986 20.0959C12.5548 20.1339 12.8901 20.3086 13.5607 20.658C15.576 21.7081 16.5837 22.2331 17.2363 21.9008C17.465 21.7844 17.6621 21.6079 17.809 21.3881C18.2283 20.7607 17.9141 19.6148 17.2858 17.323L16.6489 15" stroke="black" stroke-width="1.5" stroke-linecap="round"/>
<path d="M5.5 6.39691C5.17745 7.20159 5 8.08007 5 9C5 12.866 8.13401 16 12 16C15.866 16 19 12.866 19 9C19 5.13401 15.866 2 12 2C11.0801 2 10.2016 2.17745 9.39691 2.5" stroke="black" stroke-width="1.5" stroke-linecap="round"/>
</svg>
