<svg width="24" height="24" viewBox="0 0 24 24" fill="none" xmlns="http://www.w3.org/2000/svg">
<path fill-rule="evenodd" clip-rule="evenodd" d="M8.00615 2.46967C8.29904 2.76256 8.29904 3.23744 8.00615 3.53033C7.76746 3.76902 7.56085 4.01287 7.38328 4.25989C7.14152 4.59622 6.67287 4.67288 6.33654 4.43112C6.0002 4.18935 5.92354 3.7207 6.16531 3.38437C6.39186 3.06921 6.65146 2.7637 6.94549 2.46967C7.23838 2.17678 7.71326 2.17678 8.00615 2.46967ZM18.0571 6.59287C17.4448 6.43867 16.8158 6.40899 16.189 6.48369C15.7777 6.53271 15.4045 6.23902 15.3555 5.82772C15.3065 5.41642 15.6002 5.04325 16.0115 4.99423C16.8026 4.89994 17.6171 4.93524 18.4234 5.13828C18.8251 5.23943 19.0687 5.64705 18.9676 6.04872C18.8664 6.4504 18.4588 6.69402 18.0571 6.59287ZM6.04878 5.03236C6.45046 5.13351 6.69408 5.54113 6.59294 5.9428C6.43873 6.55516 6.40905 7.18412 6.48375 7.81094C6.53277 8.22224 6.23908 8.59541 5.82778 8.64443C5.41648 8.69344 5.04331 8.39976 4.99429 7.98845C4.9 7.1973 4.9353 6.38285 5.13835 5.57651C5.23949 5.17484 5.64711 4.93121 6.04878 5.03236ZM14.7178 6.01436C14.8847 6.39346 14.7126 6.83608 14.3335 7.00297C13.7328 7.2674 13.1637 7.61379 12.6511 8.01562C12.3252 8.27119 11.8537 8.21412 11.5982 7.88814C11.3426 7.56217 11.3997 7.09074 11.7256 6.83517C12.3315 6.36015 13.0079 5.94762 13.7292 5.63011C14.1083 5.46322 14.5509 5.63525 14.7178 6.01436ZM19.5688 6.33647C19.8106 6.00014 20.2792 5.92348 20.6155 6.16525C20.9307 6.39179 21.2362 6.65139 21.5302 6.94543C21.8231 7.23832 21.8231 7.7132 21.5302 8.00609C21.2374 8.29898 20.7625 8.29898 20.4696 8.00609C20.2309 7.7674 19.987 7.56079 19.74 7.38322C19.4037 7.14145 19.327 6.67281 19.5688 6.33647ZM11.4097 9.11277C11.4693 8.83603 11.3689 8.53717 11.128 8.35549C10.7973 8.10608 10.327 8.17199 10.0776 8.50269C9.5712 9.17417 9.18136 9.90705 8.96995 10.6557C8.87695 10.985 9.01905 11.3251 9.29604 11.4968C9.26577 11.6602 9.24999 11.8284 9.24999 11.9999C9.24999 12.1339 9.25963 12.2659 9.27828 12.3952C9.21153 12.4509 9.15589 12.5171 9.11283 12.5903C8.83608 12.5306 8.53722 12.631 8.35555 12.8719C8.10614 13.2026 8.17204 13.6729 8.50275 13.9223C9.17423 14.4287 9.9071 14.8186 10.6557 15.03C10.985 15.123 11.3251 14.9809 11.4969 14.7039C11.6603 14.7341 11.8285 14.7499 12 14.7499C12.134 14.7499 12.266 14.7403 12.3953 14.7216C12.4509 14.7884 12.5171 14.844 12.5903 14.8871C12.5307 15.1638 12.6311 15.4627 12.872 15.6444C13.2027 15.8938 13.6729 15.8279 13.9224 15.4972C14.4288 14.8257 14.8186 14.0928 15.03 13.3442C15.123 13.0149 14.9809 12.6748 14.7039 12.503C14.7342 12.3396 14.75 12.1714 14.75 11.9999C14.75 11.8659 14.7404 11.7339 14.7217 11.6047C14.7884 11.549 14.8441 11.4828 14.8871 11.4096C15.1639 11.4692 15.4628 11.3688 15.6444 11.128C15.8938 10.7972 15.8279 10.327 15.4972 10.0776C14.8257 9.57114 14.0929 9.1813 13.3443 8.96989C13.0149 8.87689 12.6749 9.01899 12.5031 9.29598C12.3397 9.26571 12.1715 9.24993 12 9.24993C11.866 9.24993 11.734 9.25957 11.6047 9.27822C11.5491 9.21147 11.4828 9.15584 11.4097 9.11277ZM13.1958 10.7661C12.9929 10.908 12.724 10.9464 12.4783 10.8445C12.3319 10.7838 12.1709 10.7499 12 10.7499C11.8291 10.7499 11.668 10.7838 11.5217 10.8445C11.2772 10.9459 11.0099 10.9084 10.8073 10.7683C10.7935 10.78 10.7798 10.7919 10.7662 10.8041C10.908 11.0071 10.9464 11.2759 10.8445 11.5216C10.7839 11.668 10.75 11.8291 10.75 11.9999C10.75 12.1708 10.7839 12.3319 10.8445 12.4782C10.9459 12.7227 10.9084 12.9901 10.7683 13.1927C10.78 13.2064 10.792 13.2201 10.8041 13.2338C11.0071 13.0919 11.276 13.0535 11.5217 13.1554C11.668 13.2161 11.8291 13.2499 12 13.2499C12.1709 13.2499 12.3319 13.2161 12.4783 13.1554C12.7227 13.054 12.9901 13.0915 13.1927 13.2316C13.2065 13.2199 13.2202 13.208 13.2338 13.1958C13.092 12.9928 13.0535 12.7239 13.1554 12.4782C13.2161 12.3319 13.25 12.1708 13.25 11.9999C13.25 11.8291 13.2161 11.668 13.1554 11.5216C13.0541 11.2772 13.0916 11.0098 13.2317 10.8072C13.22 10.7934 13.208 10.7798 13.1958 10.7661ZM6.01442 9.28215C6.39352 9.11526 6.83614 9.28729 7.00303 9.6664C7.26746 10.2671 7.61385 10.8363 8.01568 11.3488C8.27125 11.6747 8.21417 12.1462 7.8882 12.4017C7.56223 12.6573 7.0908 12.6002 6.83523 12.2743C6.36021 11.6684 5.94768 10.992 5.63017 10.2708C5.46328 9.89166 5.63531 9.44904 6.01442 9.28215ZM16.1118 11.5981C16.4377 11.3425 16.9092 11.3996 17.1647 11.7256C17.6398 12.3315 18.0523 13.0078 18.3698 13.7291C18.5367 14.1082 18.3647 14.5508 17.9856 14.7177C17.6065 14.8846 17.1638 14.7126 16.9969 14.3335C16.7325 13.7328 16.3861 13.1636 15.9843 12.6511C15.7287 12.3251 15.7858 11.8537 16.1118 11.5981ZM18.1722 15.3554C18.5835 15.3064 18.9567 15.6001 19.0057 16.0114C19.1 16.8026 19.0647 17.617 18.8616 18.4233C18.7605 18.825 18.3529 19.0686 17.9512 18.9675C17.5495 18.8663 17.3059 18.4587 17.407 18.0571C17.5612 17.4447 17.5909 16.8157 17.5162 16.1889C17.4672 15.7776 17.7609 15.4045 18.1722 15.3554ZM2.46973 15.9938C2.76262 15.7009 3.2375 15.7009 3.53039 15.9938C3.76908 16.2325 4.01293 16.4391 4.25995 16.6166C4.59628 16.8584 4.67294 17.327 4.43118 17.6634C4.18941 17.9997 3.72076 18.0764 3.38443 17.8346C3.06927 17.6081 2.76376 17.3485 2.46973 17.0544C2.17684 16.7615 2.17684 16.2867 2.46973 15.9938ZM12.4018 16.1117C12.6574 16.4377 12.6003 16.9091 12.2743 17.1647C11.6685 17.6397 10.9921 18.0522 10.2708 18.3697C9.89172 18.5366 9.4491 18.3646 9.28221 17.9855C9.11532 17.6064 9.28735 17.1638 9.66646 16.9969C10.2671 16.7325 10.8363 16.3861 11.3488 15.9842C11.6748 15.7287 12.1462 15.7857 12.4018 16.1117ZM5.03242 17.9511C5.13357 17.5495 5.54119 17.3058 5.94286 17.407C6.55522 17.5612 7.18418 17.5909 7.811 17.5162C8.2223 17.4671 8.59547 17.7608 8.64449 18.1721C8.69351 18.5834 8.39982 18.9566 7.98851 19.0056C7.19737 19.0999 6.38291 19.0646 5.57657 18.8616C5.1749 18.7604 4.93127 18.3528 5.03242 17.9511ZM17.6634 19.5687C17.9998 19.8105 18.0764 20.2792 17.8347 20.6155C17.6081 20.9306 17.3485 21.2362 17.0545 21.5302C16.7616 21.8231 16.2867 21.8231 15.9938 21.5302C15.7009 21.2373 15.7009 20.7624 15.9938 20.4695C16.2325 20.2308 16.4391 19.987 16.6167 19.74C16.8585 19.4036 17.3271 19.327 17.6634 19.5687Z" fill="black"/>
</svg>
