<svg width="24" height="24" viewBox="0 0 24 24" fill="none" xmlns="http://www.w3.org/2000/svg">
<path fill-rule="evenodd" clip-rule="evenodd" d="M10.013 13.9011C9.56125 13.5111 9.19887 13.0109 8.92762 12.4529C8.30132 11.1645 8.11552 9.50716 8.34394 7.8948C8.79854 4.68585 10.9957 1.25 15.3115 1.25C15.7257 1.25 16.0615 1.58579 16.0615 2C16.0615 2.41421 15.7257 2.75 15.3115 2.75C12.0274 2.75 10.2245 5.31415 9.82911 8.1052C9.72042 8.87239 9.72584 9.62583 9.83141 10.3087C9.91337 10.2038 10.0028 10.1049 10.0989 10.013C10.4889 9.56125 10.9891 9.19887 11.5471 8.92762C12.8355 8.30132 14.4928 8.11552 16.1052 8.34394C19.3142 8.79854 22.75 10.9957 22.75 15.3115C22.75 15.7257 22.4142 16.0615 22 16.0615C21.5858 16.0615 21.25 15.7257 21.25 15.3115C21.25 12.0274 18.6858 10.2245 15.8948 9.82911C15.2064 9.73159 14.5291 9.72593 13.9039 9.80205C14.5432 10.2171 15.0377 10.835 15.3839 11.5471C16.0102 12.8355 16.196 14.4928 15.9676 16.1052C15.513 19.3142 13.3158 22.75 9 22.75C8.58579 22.75 8.25 22.4142 8.25 22C8.25 21.5858 8.58579 21.25 9 21.25C12.2842 21.25 14.087 18.6858 14.4824 15.8948C14.6034 15.041 14.583 14.2041 14.4405 13.4626C14.0493 14.3192 13.3211 14.9619 12.4529 15.3839C11.1645 16.0102 9.50716 16.196 7.8948 15.9676C4.68585 15.513 1.25 13.3158 1.25 9C1.25 8.58579 1.58579 8.25 2 8.25C2.41421 8.25 2.75 8.58579 2.75 9C2.75 12.2842 5.31415 14.087 8.1052 14.4824C9.01339 14.6111 9.90231 14.5798 10.6778 14.4118C10.4306 14.276 10.2065 14.1033 10.013 13.9011ZM12.1335 13.243C11.728 13.2105 11.367 13.0658 11.0539 12.817C10.8919 12.6295 10.7846 12.3934 10.757 12.1335C10.7895 11.728 10.9342 11.367 11.183 11.0539C11.4021 10.8646 11.6877 10.75 12 10.75C12.6904 10.75 13.25 11.3096 13.25 12C13.25 12.6453 12.7611 13.1764 12.1335 13.243Z" fill="black"/>
</svg>
