<svg width="24" height="24" viewBox="0 0 24 24" fill="none" xmlns="http://www.w3.org/2000/svg">
<path fill-rule="evenodd" clip-rule="evenodd" d="M12.629 2.92377L1.63578 9.03126C1.27369 9.23242 1.14324 9.68902 1.3444 10.0511C1.54556 10.4132 2.00217 10.5436 2.36425 10.3425L11.0497 5.5171C10.5131 7.32327 10.8479 9.33324 12.0544 10.8851L4.46969 18.4697C4.17679 18.7626 4.17679 19.2374 4.46968 19.5303C4.76257 19.8232 5.23745 19.8232 5.53034 19.5303L13.115 11.9457C14.6669 13.152 16.6768 13.4868 18.483 12.9502L13.6576 21.6358C13.4565 21.9979 13.5869 22.4545 13.949 22.6556C14.3111 22.8568 14.7677 22.7263 14.9689 22.3642L21.0762 11.3709C23.333 9.03243 23.3077 5.30714 21.0003 2.99975C18.6928 0.692357 14.9675 0.667032 12.629 2.92377ZM20.2731 10.0152C21.6787 8.25856 21.5675 5.6883 19.9396 4.06041C18.3117 2.43252 15.7414 2.32135 13.9848 3.72687C14.0695 3.89872 14.1858 4.11732 14.3408 4.37566C14.7719 5.09432 15.5039 6.12295 16.6906 7.30957C17.8772 8.49619 18.9058 9.22816 19.6244 9.65927C19.8827 9.81424 20.1013 9.93051 20.2731 10.0152ZM19.0645 11.0697C18.9964 11.0307 18.9258 10.9894 18.8527 10.9456C18.15 10.524 17.2229 9.87143 16.1696 8.89115L14.187 10.8738C15.6344 11.9031 17.5568 11.9684 19.0645 11.0697ZM13.1263 9.81314C12.0969 8.36572 12.0315 6.44317 12.9303 4.93544C12.9693 5.00355 13.0106 5.07423 13.0545 5.14735C13.4761 5.85016 14.1287 6.77721 15.109 7.8305L13.1263 9.81314Z" fill="black"/>
</svg>
