<svg width="24" height="24" viewBox="0 0 24 24" fill="none" xmlns="http://www.w3.org/2000/svg">
<path fill-rule="evenodd" clip-rule="evenodd" d="M8.96967 1.96967C9.26256 1.67678 9.73744 1.67678 10.0303 1.96967L12.0303 3.96967C12.3232 4.26256 12.3232 4.73744 12.0303 5.03033C11.7374 5.32322 11.2626 5.32322 10.9697 5.03033L8.96967 3.03033C8.67678 2.73744 8.67678 2.26256 8.96967 1.96967ZM3.46967 3.46967C3.76256 3.17678 4.23744 3.17678 4.53033 3.46967L7.03033 5.96967C7.32322 6.26256 7.32322 6.73744 7.03033 7.03033C6.73744 7.32322 6.26256 7.32322 5.96967 7.03033L3.46967 4.53033C3.17678 4.23744 3.17678 3.76256 3.46967 3.46967ZM12.4697 5.46967C12.7626 5.17678 13.2374 5.17678 13.5303 5.46967L14.0303 5.96967C14.3232 6.26256 14.3232 6.73744 14.0303 7.03033C13.7374 7.32322 13.2626 7.32322 12.9697 7.03033L12.4697 6.53033C12.1768 6.23744 12.1768 5.76256 12.4697 5.46967ZM16.8259 7.85737C16.4295 8.02051 15.9038 8.32963 15.1071 8.80145L14.7059 9.039C14.6783 9.05537 14.6507 9.07179 14.6232 9.0882C14.268 9.29969 13.9161 9.50923 13.5134 9.55966C13.1055 9.61074 12.7169 9.49007 12.3331 9.37091C12.3034 9.36169 12.2737 9.35248 12.2441 9.34335L11.8114 9.21022C10.9506 8.94531 10.3888 8.77466 9.97813 8.7139C9.59582 8.65734 9.53476 8.72645 9.52794 8.73417C9.52768 8.73446 9.52805 8.73406 9.52794 8.73417C9.52768 8.73441 9.52677 8.7353 9.52634 8.73567C9.51434 8.74573 9.43807 8.80964 9.45351 9.20961C9.46993 9.63477 9.57849 10.224 9.74689 11.1212L9.83164 11.5728C9.83736 11.6033 9.84315 11.6337 9.84894 11.6642C9.9255 12.067 10.0011 12.4649 9.91018 12.864C9.82005 13.2595 9.58129 13.5892 9.33581 13.9283C9.31723 13.9539 9.29862 13.9797 9.28002 14.0054L9.0056 14.3862C8.46101 15.1418 8.10251 15.6424 7.90046 16.0279C7.80288 16.214 7.76589 16.3301 7.75428 16.3991C7.74559 16.4508 7.75225 16.4657 7.75486 16.4716C7.75502 16.4719 7.75516 16.4722 7.75528 16.4725C7.75545 16.4729 7.7556 16.4733 7.75576 16.4738C7.75729 16.4782 7.76017 16.4863 7.79036 16.5062C7.83757 16.5372 7.9356 16.5835 8.12863 16.6313C8.53049 16.7307 9.11888 16.7866 10.0214 16.8692L10.4749 16.9107C10.5066 16.9136 10.5384 16.9165 10.5702 16.9193C10.97 16.9548 11.3796 16.9912 11.7348 17.1944C12.0909 17.3981 12.3286 17.7331 12.5596 18.0585C12.578 18.0844 12.5963 18.1103 12.6147 18.136L12.8777 18.5044C13.4014 19.2379 13.7439 19.714 14.031 20.0085C14.1686 20.1497 14.2577 20.2104 14.3085 20.2354C14.3422 20.252 14.3522 20.2506 14.36 20.2495C14.3606 20.2495 14.3611 20.2494 14.3617 20.2493C14.3714 20.2481 14.391 20.2457 14.4346 20.2101C14.4903 20.1646 14.5737 20.0741 14.6875 19.8974C14.9234 19.5313 15.1815 18.9734 15.5696 18.1283L15.7651 17.7024C15.7783 17.6737 15.7914 17.645 15.8044 17.6164C15.9783 17.2355 16.147 16.8661 16.4466 16.5919C16.7477 16.3163 17.1302 16.1833 17.5211 16.0473C17.5504 16.0371 17.5798 16.0269 17.6092 16.0166L18.0462 15.8636C18.914 15.5597 19.4846 15.3578 19.8657 15.1586C20.2272 14.9696 20.2446 14.8704 20.247 14.8572C20.247 14.8567 20.2471 14.8564 20.2472 14.8561C20.2508 14.8401 20.2536 14.8242 20.2382 14.781C20.2178 14.7236 20.1665 14.6256 20.0431 14.4718C19.7853 14.1505 19.356 13.7543 18.6937 13.1477L18.3611 12.843C18.3381 12.8219 18.315 12.8009 18.2919 12.7798C17.9967 12.5109 17.6949 12.2359 17.5343 11.8572C17.3756 11.4829 17.3828 11.0724 17.3901 10.663C17.3906 10.6308 17.3912 10.5987 17.3917 10.5666L17.3987 10.1036C17.4127 9.18335 17.4199 8.579 17.3645 8.15877C17.3378 7.95613 17.302 7.84861 17.2751 7.79445C17.2632 7.77051 17.2552 7.76154 17.2538 7.76004C17.2531 7.75919 17.2523 7.75819 17.2476 7.7555C17.2429 7.75281 17.2412 7.75241 17.239 7.75194C17.2359 7.75128 17.2228 7.74883 17.1945 7.75068C17.1311 7.75482 17.0172 7.77861 16.8259 7.85737ZM16.255 6.47027C16.7767 6.25551 17.3983 6.11355 17.9925 6.45353C18.5894 6.79503 18.778 7.40443 18.8516 7.96268C18.9233 8.50589 18.9123 9.22266 18.8995 10.0661L18.8915 10.5894C18.8828 11.1654 18.8969 11.2283 18.9153 11.2715C18.9316 11.3101 18.9597 11.3571 19.3743 11.7369L19.7522 12.083C20.3564 12.6364 20.874 13.1105 21.213 13.533C21.5696 13.9773 21.8609 14.5259 21.7097 15.1894C21.5607 15.8432 21.0688 16.2223 20.5605 16.4879C20.0707 16.7439 19.3946 16.9807 18.5975 17.2598L18.105 17.4323C17.5662 17.621 17.5039 17.6577 17.4594 17.6984C17.4133 17.7406 17.3692 17.8035 17.1283 18.3283L16.9085 18.8071C16.5513 19.585 16.2495 20.2426 15.9485 20.7097C15.6394 21.1897 15.2161 21.654 14.5481 21.7377C13.8658 21.8231 13.3516 21.4604 12.9569 21.0556C12.5794 20.6684 12.1704 20.0953 11.6928 19.4263L11.3939 19.0075C11.065 18.5468 11.0226 18.515 10.9899 18.4963C10.9562 18.4771 10.905 18.4564 10.3382 18.4045L9.82343 18.3574C8.99931 18.282 8.29486 18.2176 7.76854 18.0874C7.22118 17.9521 6.64354 17.6929 6.37435 17.0582C6.11027 16.4356 6.30783 15.8353 6.57192 15.3315C6.82971 14.8397 7.25333 14.252 7.75457 13.5566L8.06314 13.1284C8.40171 12.6587 8.4342 12.5898 8.44768 12.5307C8.46029 12.4753 8.46207 12.4073 8.35738 11.8495L8.26168 11.3396C8.10721 10.5168 7.97585 9.81705 7.95463 9.26748C7.9325 8.69434 8.0194 8.08154 8.51464 7.62827C9.01398 7.17124 9.63245 7.14643 10.1977 7.23005C10.7355 7.30963 11.4081 7.51663 12.1945 7.75867L12.6852 7.9097C13.2229 8.07516 13.281 8.07704 13.327 8.07129C13.3784 8.06484 13.444 8.04301 13.9416 7.74835L14.3939 7.48049C15.1254 7.04722 15.7456 6.67994 16.255 6.47027ZM1.46967 7.46967C1.76256 7.17678 2.23744 7.17678 2.53033 7.46967L3.03033 7.96967C3.32322 8.26256 3.32322 8.73744 3.03033 9.03033C2.73744 9.32322 2.26256 9.32322 1.96967 9.03033L1.46967 8.53033C1.17678 8.23744 1.17678 7.76256 1.46967 7.46967ZM3.96967 9.96967C4.26256 9.67678 4.73744 9.67678 5.03033 9.96967L6.53033 11.4697C6.82322 11.7626 6.82322 12.2374 6.53033 12.5303C6.23744 12.8232 5.76256 12.8232 5.46967 12.5303L3.96967 11.0303C3.67678 10.7374 3.67678 10.2626 3.96967 9.96967Z" fill="black"/>
</svg>
