<svg width="24" height="24" viewBox="0 0 24 24" fill="none" xmlns="http://www.w3.org/2000/svg">
<path fill-rule="evenodd" clip-rule="evenodd" d="M16.4827 3.58966L16.8446 4.01817C17.2403 4.48669 17.309 4.54598 17.3792 4.58087C17.4512 4.6167 17.5446 4.63622 18.1636 4.67244L18.7288 4.70552C19.6556 4.75972 20.4331 4.80519 21.0174 4.92454C21.6174 5.04709 22.2297 5.28813 22.5597 5.90987C22.8948 6.54115 22.736 7.17972 22.483 7.73153C22.2397 8.26244 21.821 8.90015 21.3264 9.65341L21.0213 10.1182C20.6863 10.6285 20.6582 10.7 20.6488 10.7606C20.6393 10.8216 20.6446 10.899 20.8088 11.4879L20.9416 11.9643L20.9584 12.0243C21.2009 12.8939 21.4061 13.6297 21.4768 14.2099C21.5502 14.812 21.5083 15.4698 20.9964 15.9692C20.4919 16.4613 19.8341 16.5019 19.2261 16.434C18.6336 16.3678 17.8795 16.1718 16.9806 15.9382L16.9229 15.9232L16.4324 15.7957C15.8318 15.6396 15.7371 15.6296 15.6581 15.6414C15.5816 15.6529 15.4991 15.6876 14.98 16.0121L14.5052 16.3089C13.7301 16.7935 13.0773 17.2017 12.5346 17.4389C11.9715 17.6851 11.3383 17.8331 10.7098 17.5206C10.2174 17.2758 9.95263 16.8603 9.79741 16.4068C6.59457 17.609 3.94035 19.7588 3.03641 22.2552C2.92049 22.5753 2.60348 22.7772 2.26436 22.7468C1.92525 22.7165 1.64913 22.4615 1.5919 22.1259C0.958077 18.4088 1.24401 15.4406 2.13208 13.0985C2.99399 10.8253 4.40732 9.18416 6.01444 8.04162C6.22077 7.56877 6.63407 7.25682 7.05668 7.02347C7.57372 6.73799 8.29848 6.46652 9.15946 6.14403L9.68714 5.94635C10.2666 5.72929 10.3415 5.68528 10.3913 5.63665C10.4383 5.59081 10.4807 5.52487 10.7023 4.96009L10.882 4.50194C10.8896 4.48266 10.8971 4.46344 10.9046 4.4443C11.2326 3.60809 11.5104 2.89996 11.8037 2.39388C12.1102 1.86509 12.5369 1.37394 13.2373 1.26869C13.9311 1.16444 14.4887 1.50041 14.9493 1.90736C15.3938 2.30006 15.8914 2.8894 16.4827 3.58966ZM6.25193 9.75385C5.13206 10.6999 4.16637 11.9642 3.53465 13.6303C2.93741 15.2054 2.62873 17.1665 2.79438 19.5949C4.34399 17.4962 6.8475 15.8672 9.53563 14.9054C9.50509 14.5619 9.48048 14.186 9.45404 13.7822L9.41779 13.229C9.37811 12.6234 9.35777 12.5466 9.32638 12.4875C9.29305 12.4247 9.23403 12.359 8.74851 11.9743L8.30626 11.6239C7.58401 11.0516 6.97645 10.5702 6.57095 10.1395C6.45798 10.0195 6.34882 9.89122 6.25193 9.75385ZM11.0594 15.0757C11.0179 14.6956 10.9861 14.2216 10.9468 13.6224L10.9146 13.1309C10.9124 13.0979 10.9103 13.0651 10.9083 13.0322C10.8804 12.5925 10.8534 12.165 10.6513 11.7843C10.4511 11.407 10.1129 11.1402 9.75951 10.8614C9.73311 10.8406 9.70661 10.8197 9.68009 10.7987L9.28539 10.4859C8.50291 9.86588 7.98408 9.45227 7.66309 9.11132C7.35223 8.78114 7.3799 8.67713 7.38196 8.66939C7.38215 8.66277 7.38529 8.55549 7.78173 8.3366C8.19038 8.11096 8.80945 7.87695 9.74269 7.52734L10.2134 7.35103C10.2451 7.33915 10.2767 7.32737 10.3082 7.31563C10.729 7.15905 11.1329 7.00873 11.4387 6.71038C11.7473 6.4094 11.9029 6.00996 12.0626 5.60012C12.0746 5.56942 12.0866 5.53867 12.0987 5.5079L12.2784 5.04975C12.6352 4.14018 12.8725 3.54109 13.1015 3.14603C13.3182 2.77202 13.4284 2.75652 13.458 2.75235C13.4588 2.75224 13.4595 2.75214 13.4602 2.75204C13.494 2.74693 13.6136 2.72887 13.9562 3.03148C14.308 3.34236 14.735 3.84494 15.3755 4.60337L15.6986 4.98597C15.7199 5.01117 15.741 5.03631 15.7621 5.06137C16.0521 5.40612 16.3268 5.73278 16.7112 5.92396C17.0939 6.11425 17.5214 6.13844 17.9763 6.16417C18.0094 6.16605 18.0426 6.16793 18.076 6.16988L18.5817 6.19948C19.5837 6.25812 20.2516 6.29909 20.7172 6.39419C21.1691 6.4865 21.2233 6.59094 21.2341 6.6118C21.2343 6.61228 21.2346 6.61271 21.2348 6.6131C21.2349 6.6134 21.2352 6.6138 21.2355 6.61432C21.2436 6.62746 21.2984 6.71618 21.1195 7.1065C20.9295 7.52093 20.5764 8.06272 20.0384 8.88224L19.7674 9.29501C19.749 9.32305 19.7305 9.35102 19.7121 9.37894C19.4699 9.7459 19.2325 10.1057 19.1666 10.5304C19.1006 10.9548 19.2174 11.3699 19.3367 11.7938C19.3458 11.8261 19.3549 11.8584 19.3639 11.8908L19.4968 12.3672C19.7605 13.3131 19.9326 13.9379 19.9878 14.3913C20.04 14.8197 19.9601 14.8861 19.9498 14.8947C19.9494 14.895 19.9491 14.8953 19.949 14.8954C19.9486 14.8957 19.9483 14.8961 19.9479 14.8965C19.9326 14.9118 19.8503 14.9944 19.3927 14.9433C18.9205 14.8905 18.2721 14.724 17.3002 14.4714L16.8096 14.3439C16.7772 14.3355 16.745 14.3271 16.7129 14.3186C16.2721 14.2032 15.8576 14.0946 15.4352 14.1581C15.0103 14.2219 14.6488 14.4489 14.2683 14.6878C14.2406 14.7052 14.2128 14.7227 14.1849 14.7402L13.7612 15.005C12.9212 15.5301 12.3626 15.877 11.9337 16.0646C11.5168 16.2468 11.4097 16.1934 11.3785 16.1779C11.3779 16.1776 11.3765 16.1769 11.3759 16.1766C11.3477 16.1629 11.2466 16.1134 11.1533 15.6889C11.1434 15.6438 11.134 15.5967 11.1251 15.5474C11.1472 15.43 11.1414 15.3055 11.1028 15.1836C11.0909 15.146 11.0764 15.11 11.0594 15.0757Z" fill="black"/>
</svg>
