<svg width="24" height="24" viewBox="0 0 24 24" fill="none" xmlns="http://www.w3.org/2000/svg">
<path fill-rule="evenodd" clip-rule="evenodd" d="M15.0136 3.18481L15.2917 3.53617C15.432 3.71326 15.511 3.81221 15.5754 3.88167C15.6102 3.91906 15.6285 3.93421 15.6351 3.93913C15.6427 3.94165 15.6633 3.94724 15.7068 3.95359C15.7959 3.96659 15.9163 3.97469 16.1366 3.98844L16.5747 4.01579C17.2574 4.05835 17.8552 4.09562 18.3102 4.19474C18.7919 4.29971 19.3161 4.51585 19.5944 5.07513C19.8693 5.6276 19.7352 6.1772 19.54 6.63138C19.3536 7.06534 19.0348 7.58314 18.6676 8.17968L18.6377 8.22823L18.4345 8.55845C18.3169 8.74956 18.2516 8.85659 18.2087 8.94062C18.1896 8.97803 18.1808 8.99972 18.1768 9.01134C18.1733 9.02126 18.173 9.02439 18.173 9.02456C18.1729 9.02477 18.1722 9.02846 18.1728 9.0402C18.1734 9.05373 18.1757 9.07839 18.1835 9.12128C18.2008 9.2169 18.2329 9.34171 18.2904 9.56184L18.39 9.94299L18.4043 9.99757C18.5847 10.6875 18.7405 11.2831 18.7944 11.7554C18.85 12.2422 18.8262 12.8172 18.3953 13.2656C17.9552 13.7236 17.3776 13.7534 16.8933 13.6957C16.432 13.6407 15.8525 13.4801 15.1905 13.2965L14.7654 13.1787C14.5518 13.1194 14.4345 13.0875 14.3458 13.0706C14.3089 13.0636 14.2884 13.0616 14.2788 13.0611C14.2698 13.0645 14.2509 13.0729 14.218 13.0911C14.1389 13.1349 14.0374 13.2019 13.853 13.3249L13.4859 13.5697C12.9142 13.951 12.4138 14.2848 11.9926 14.4812C11.5508 14.6873 10.9926 14.8396 10.4314 14.5419C10.0731 14.3518 9.86262 14.0565 9.73208 13.741C7.45909 14.7002 5.60135 16.3478 4.95864 18.241C4.84782 18.5674 4.52874 18.7763 4.18524 18.7472C3.84173 18.7182 3.56226 18.4587 3.50785 18.1183C2.56727 12.2345 4.32421 8.68585 6.84816 6.75178C7.02332 6.35595 7.35518 6.09139 7.68382 5.89784C8.08509 5.66151 8.64144 5.43925 9.27679 5.18544C9.29493 5.17819 9.31314 5.17091 9.33142 5.16361L9.68442 5.02255C9.88939 4.94065 10.0013 4.8953 10.0819 4.8551C10.1215 4.83535 10.1393 4.82358 10.1457 4.81883C10.1504 4.81213 10.1632 4.79201 10.1846 4.74533C10.2243 4.65914 10.2685 4.54042 10.3465 4.32837L10.4813 3.96185C10.4879 3.94373 10.4946 3.92567 10.5012 3.90767C10.7446 3.24573 10.9557 2.67159 11.1805 2.25796C11.412 1.83174 11.7674 1.36806 12.3929 1.2678C13.0186 1.16752 13.501 1.49712 13.8539 1.82978C14.1964 2.15254 14.576 2.63205 15.0136 3.18481ZM7.15988 8.4589C5.73673 9.82971 4.64022 12.049 4.75814 15.566C5.92566 14.0988 7.63238 12.9507 9.45659 12.234C9.43725 11.9865 9.42094 11.7206 9.40369 11.4395L9.37607 10.99C9.36212 10.7629 9.35371 10.6342 9.34032 10.538C9.33431 10.4948 9.32882 10.4707 9.32521 10.4576C9.32208 10.4463 9.32028 10.4431 9.3202 10.4429C9.32006 10.4426 9.31868 10.4396 9.31254 10.4316C9.30507 10.4219 9.29002 10.4041 9.26021 10.3745C9.19324 10.3081 9.09793 10.2269 8.9266 10.0821L8.58702 9.79503C8.05223 9.34309 7.58797 8.95074 7.27549 8.5967C7.23634 8.55235 7.1976 8.50643 7.15988 8.4589ZM11.0329 12.8376C11.0498 12.7239 11.0408 12.6045 11.0015 12.4881C10.9949 12.4686 10.9876 12.4495 10.9796 12.4309C10.9499 12.1345 10.9264 11.7634 10.8974 11.2913L10.8733 10.898C10.8715 10.8701 10.8699 10.8421 10.8682 10.8139C10.848 10.4691 10.8266 10.1032 10.6631 9.77466C10.4984 9.44365 10.2186 9.2085 9.95817 8.98972C9.93692 8.97187 9.91581 8.95413 9.89489 8.93645L9.59887 8.68625C9.00778 8.18665 8.63067 7.86535 8.40009 7.6041C8.29025 7.47965 8.24641 7.40399 8.22984 7.3653C8.22785 7.36065 8.22638 7.35683 8.22531 7.3538C8.22581 7.3532 8.22634 7.35258 8.2269 7.35192C8.24918 7.32578 8.30756 7.27131 8.44504 7.19033C8.73511 7.0195 9.18164 6.83878 9.88801 6.55652L10.241 6.41547C10.2663 6.40537 10.2919 6.39524 10.3177 6.38502C10.6256 6.26318 10.9686 6.12745 11.2271 5.85856C11.4821 5.59316 11.6088 5.24527 11.7251 4.9261C11.7349 4.89922 11.7446 4.87254 11.7543 4.84614L11.8891 4.47962C12.1583 3.7477 12.3326 3.27939 12.4985 2.97408C12.5597 2.86136 12.6048 2.79949 12.6331 2.76693C12.6701 2.78902 12.7321 2.83366 12.8252 2.92141C13.0779 3.15957 13.3895 3.54994 13.8734 4.16118L14.1157 4.46726C14.1332 4.48931 14.1507 4.51163 14.1684 4.53412C14.3783 4.80097 14.6072 5.09202 14.9325 5.26454C15.2619 5.43931 15.6303 5.46106 15.9607 5.48057C15.9885 5.48221 16.016 5.48383 16.0431 5.48553L16.4225 5.50921C17.1815 5.5566 17.6621 5.58872 17.9908 5.66036C18.1467 5.69431 18.219 5.7278 18.2482 5.74559C18.2488 5.74596 18.2494 5.74632 18.25 5.74667C18.2499 5.74987 18.2497 5.75391 18.2493 5.75888C18.2456 5.8009 18.2275 5.88654 18.1619 6.03916C18.0242 6.35949 17.7661 6.78267 17.3603 7.44202L17.1571 7.77224C17.1427 7.79557 17.1282 7.81902 17.1136 7.84262C16.9344 8.13187 16.7419 8.44259 16.6886 8.80839C16.6357 9.17151 16.7294 9.52581 16.8177 9.85973C16.8249 9.88703 16.8321 9.91419 16.8392 9.94121L16.9388 10.3224C17.1375 11.0826 17.2638 11.5729 17.3041 11.9256C17.3225 12.0869 17.3169 12.1729 17.3096 12.2144C17.2713 12.2193 17.1984 12.2215 17.0708 12.2062C16.7374 12.1665 16.2704 12.0393 15.534 11.8352L15.1661 11.7332C15.1395 11.7258 15.1125 11.7182 15.0853 11.7105C14.7669 11.6211 14.4087 11.5204 14.0413 11.5793C13.6739 11.6382 13.3651 11.8457 13.0906 12.0302C13.067 12.046 13.0438 12.0616 13.0208 12.077L12.703 12.2888C12.0671 12.7129 11.663 12.9798 11.3586 13.1217C11.2425 13.1759 11.1726 13.1967 11.1346 13.2041C11.1148 13.1668 11.0828 13.0869 11.0502 12.9286C11.0441 12.8994 11.0384 12.8691 11.0329 12.8376ZM11.0969 13.2068C11.0974 13.2061 11.1023 13.2058 11.1104 13.2076C11.1005 13.2083 11.0964 13.2074 11.0969 13.2068ZM11.1474 13.2252C11.1526 13.2293 11.1548 13.2324 11.1546 13.2329C11.1545 13.2335 11.1519 13.2314 11.1474 13.2252ZM17.2997 12.2477C17.2993 12.2472 17.3005 12.2436 17.3041 12.2381C17.3018 12.2454 17.3 12.2482 17.2997 12.2477ZM17.3334 12.2102C17.3405 12.2059 17.3453 12.2047 17.346 12.2052C17.3466 12.2057 17.3431 12.2078 17.3334 12.2102ZM12.6688 2.73408C12.6688 2.73466 12.6656 2.73732 12.6592 2.74036C12.6656 2.73503 12.6687 2.73351 12.6688 2.73408ZM12.6 2.74983C12.593 2.74892 12.5891 2.74737 12.5889 2.74682C12.5888 2.74627 12.5923 2.74672 12.6 2.74983Z" fill="black"/>
<path d="M10.2808 16C10.2808 16 10.9135 17.3908 11.6935 17.8692C12.4735 18.3475 14 18.2808 14 18.2808C14 18.2808 12.6092 18.9135 12.1308 19.6935C11.6525 20.4735 11.7192 22 11.7192 22C11.7192 22 11.0865 20.6092 10.3065 20.1308C9.52652 19.6525 8 19.7192 8 19.7192C8 19.7192 9.39082 19.0865 9.86916 18.3065C10.3475 17.5265 10.2808 16 10.2808 16Z" stroke="black" stroke-linejoin="round"/>
<path d="M18.4795 15C18.4795 15 18.0577 15.9272 17.5377 16.2461C17.0177 16.565 16 16.5205 16 16.5205C16 16.5205 16.9272 16.9423 17.2461 17.4623C17.565 17.9823 17.5205 19 17.5205 19C17.5205 19 17.9423 18.0728 18.4623 17.7539C18.9823 17.435 20 17.4795 20 17.4795C20 17.4795 19.0728 17.0577 18.7539 16.5377C18.435 16.0177 18.4795 15 18.4795 15Z" stroke="black" stroke-linejoin="round"/>
</svg>
