<svg width="24" height="24" viewBox="0 0 24 24" fill="none" xmlns="http://www.w3.org/2000/svg">
<path fill-rule="evenodd" clip-rule="evenodd" d="M18.8232 2.81493C18.4753 2.92884 18.0049 3.15967 17.2784 3.5194L16.914 3.69986C16.8881 3.7127 16.862 3.72568 16.8359 3.73873C16.5173 3.89761 16.1805 4.06557 15.8069 4.08528C15.4281 4.10527 15.0789 3.96978 14.756 3.8445C14.7296 3.83425 14.7033 3.82407 14.6772 3.81404L14.3085 3.67227C13.5718 3.38906 13.1005 3.21009 12.7546 3.13402C12.5902 3.09786 12.5018 3.09682 12.4595 3.10154C12.4464 3.103 12.4396 3.10483 12.4373 3.10557C12.4369 3.1058 12.4365 3.10612 12.436 3.10656C12.435 3.10732 12.4344 3.10784 12.4341 3.10813C12.4337 3.10866 12.4327 3.11024 12.4311 3.1133C12.4292 3.11695 12.4262 3.12318 12.4227 3.13276C12.4068 3.17543 12.386 3.26435 12.3803 3.43515C12.3684 3.79372 12.4249 4.30008 12.5161 5.08928L12.5618 5.48466C12.5651 5.51246 12.5684 5.54043 12.5717 5.56855C12.6129 5.916 12.6568 6.28678 12.5458 6.64826C12.4361 7.00563 12.1937 7.29172 11.9621 7.56502C11.9433 7.58721 11.9246 7.60931 11.906 7.63137L11.6431 7.94338C11.1192 8.5651 10.7813 8.969 10.5859 9.28198C10.4907 9.4345 10.4588 9.51988 10.4488 9.56064C10.4816 9.58277 10.5528 9.62019 10.6956 9.66615C11.0316 9.77427 11.5328 9.85793 12.3173 9.9856L12.7099 10.0495C12.7382 10.0541 12.7668 10.0587 12.7956 10.0633C13.1371 10.1177 13.5117 10.1774 13.8262 10.3866C14.1426 10.5971 14.3402 10.9202 14.5186 11.2118C14.5337 11.2364 14.5486 11.2607 14.5634 11.2848L14.7697 11.6194C15.1821 12.2885 15.4463 12.7129 15.6719 12.9778C15.7785 13.1029 15.844 13.1522 15.8742 13.1698C15.8779 13.1677 15.8828 13.1646 15.889 13.1603C15.929 13.1324 16.0001 13.0681 16.107 12.9269C16.33 12.6323 16.5857 12.174 16.9782 11.4649L17.1752 11.109C17.189 11.0841 17.2028 11.0591 17.2166 11.0339C17.3894 10.7199 17.5691 10.3931 17.8638 10.1617C18.1593 9.92977 18.5192 9.83379 18.8636 9.74197C18.8912 9.73462 18.9186 9.7273 18.9459 9.71994L19.3363 9.61473C20.1145 9.405 20.6167 9.26768 20.9538 9.12237C21.115 9.05287 21.1939 8.99934 21.2305 8.96707C21.2388 8.95982 21.2439 8.95444 21.2469 8.95105C21.2477 8.95021 21.2483 8.94947 21.2489 8.94883C21.2484 8.94661 21.2477 8.94384 21.2467 8.94046C21.2369 8.90522 21.2052 8.82811 21.1106 8.69243C20.9114 8.40672 20.5686 8.04434 20.0268 7.47674L19.7559 7.19289C19.7365 7.17259 19.7168 7.15214 19.697 7.13151C19.4601 6.88491 19.1985 6.61268 19.0744 6.25315C18.9516 5.89742 18.9858 5.52029 19.0174 5.17247C19.0201 5.1433 19.0227 5.11433 19.0252 5.0856L19.0602 4.68596C19.1301 3.88816 19.173 3.37591 19.1515 3.01914C19.1424 2.86934 19.1241 2.78936 19.1107 2.75007C19.0677 2.75133 18.9806 2.76339 18.8232 2.81493ZM19.1459 2.75327C19.1455 2.75371 19.1415 2.75329 19.135 2.75068C19.1431 2.75152 19.1463 2.75282 19.1459 2.75327ZM19.1017 2.72766C19.0964 2.72188 19.0943 2.71769 19.0947 2.71704C19.095 2.71639 19.0976 2.71929 19.1017 2.72766ZM10.4238 9.53874C10.4246 9.53858 10.4285 9.54179 10.4329 9.54887C10.4253 9.54244 10.423 9.5389 10.4238 9.53874ZM10.445 9.58037C10.4461 9.58702 10.4456 9.59091 10.4451 9.59118C10.4446 9.59145 10.4441 9.58812 10.445 9.58037ZM18.3564 1.38941C18.8321 1.23364 19.4172 1.13884 19.9499 1.49326C20.4877 1.85109 20.6187 2.43061 20.6487 2.9289C20.6778 3.41068 20.6229 4.03615 20.5596 4.7583L20.5195 5.2165C20.4993 5.44758 20.4884 5.57768 20.4877 5.67548C20.4872 5.73155 20.4907 5.75596 20.4923 5.76352C20.4958 5.7703 20.5075 5.78975 20.5387 5.82839C20.5976 5.90138 20.6838 5.9926 20.8409 6.15722L21.1532 6.48434C21.6414 6.99577 22.0675 7.44217 22.3411 7.83454C22.6304 8.24945 22.872 8.77649 22.6845 9.38691C22.5005 9.98613 22.0143 10.2986 21.5476 10.4998C21.0986 10.6934 20.489 10.8576 19.7816 11.0482L19.3363 11.1683C19.111 11.229 18.983 11.264 18.8883 11.2976C18.806 11.3269 18.7904 11.3413 18.79 11.3416C18.7664 11.3602 18.7342 11.3899 18.4876 11.8354L18.2631 12.241C17.906 12.8863 17.5989 13.4413 17.3031 13.8321C16.9973 14.2362 16.5769 14.6381 15.9493 14.6712C15.8501 14.6765 15.7555 14.672 15.6652 14.6594C15.5459 15.0025 15.4246 15.4291 15.3093 15.9265C15.0515 17.039 14.8328 18.4667 14.7276 20.0301C14.6279 21.5116 13.4181 22.75 11.8718 22.75H3.71666C2.95491 22.75 2.23941 22.4395 1.77172 21.9012C1.28972 21.3465 1.0959 20.5702 1.38621 19.7744C2.11692 17.7714 3.39669 15.6878 4.96382 13.9034C6.20239 12.4931 7.64447 11.2425 9.17239 10.3653C9.11345 10.2734 9.0631 10.1711 9.02372 10.057C8.81637 9.45628 9.04743 8.91383 9.31354 8.48759C9.57276 8.07241 9.98259 7.58609 10.4593 7.02042C10.4715 7.00594 10.4837 6.99141 10.496 6.97683L10.7589 6.66482C10.9105 6.4849 10.9969 6.38161 11.0563 6.29901C11.0831 6.26176 11.0967 6.23893 11.1039 6.22559C11.1102 6.21385 11.1116 6.20911 11.1119 6.20796C11.1122 6.20689 11.1135 6.20311 11.1146 6.19183C11.116 6.17873 11.1173 6.15436 11.1158 6.11102C11.1125 6.01382 11.0982 5.8856 11.0718 5.6569L11.0261 5.26152C11.0238 5.24223 11.0216 5.22301 11.0194 5.20387C10.9367 4.48916 10.8651 3.86965 10.8811 3.38547C10.898 2.87653 11.0157 2.31453 11.5097 1.92668C12.006 1.53713 12.5801 1.55978 13.0768 1.66903C13.5474 1.77253 14.1263 1.99513 14.7919 2.2511L14.8468 2.27218L15.2155 2.41395C15.4291 2.49606 15.5481 2.54119 15.6398 2.5681C15.6805 2.58005 15.7034 2.5845 15.7153 2.58624C15.7209 2.58707 15.7241 2.58729 15.7254 2.58735L15.7278 2.58737L15.7312 2.58698C15.7331 2.58668 15.7371 2.58597 15.7437 2.5843C15.7575 2.58078 15.7823 2.57321 15.8244 2.55628C15.918 2.51867 16.0381 2.45976 16.2484 2.35564L16.6643 2.14965C17.3245 1.82271 17.893 1.54116 18.3564 1.38941ZM10.7615 11.2317C9.12358 11.9801 7.49269 13.2971 6.09088 14.8932C4.62844 16.5584 3.45361 18.4841 2.79537 20.2884C2.70273 20.5424 2.75885 20.7503 2.90403 20.9174C3.06351 21.101 3.35242 21.25 3.71666 21.25H4.83739C4.86937 21.0902 4.90886 20.9242 4.95371 20.7553C5.07875 20.2844 5.25885 19.7419 5.48333 19.1605C5.9322 17.9981 6.57056 16.6494 7.3362 15.3641C8.09908 14.0834 9.00618 12.8355 10.0012 11.8981C10.2525 11.6614 10.5158 11.4385 10.7897 11.2378C10.7803 11.2358 10.7709 11.2338 10.7615 11.2317ZM12.5832 11.9318C12.0975 12.123 11.5761 12.4752 11.0298 12.9899C10.1729 13.7972 9.34808 14.9177 8.62488 16.1318C7.90443 17.3412 7.30252 18.6135 6.88263 19.7009C6.67274 20.2444 6.51134 20.734 6.40348 21.1403C6.39348 21.1779 6.38404 21.2145 6.37514 21.25H9.1259C9.24484 20.0732 9.60815 18.3919 10.1769 16.7077C10.7398 15.0409 11.5386 13.2651 12.5832 11.9318ZM10.6345 21.25H11.8718C12.5775 21.25 13.1807 20.6755 13.231 19.9294C13.341 18.2935 13.5705 16.7857 13.8481 15.5879C13.9867 14.9895 14.1397 14.4586 14.2999 14.0227C14.3299 13.941 14.361 13.8602 14.3933 13.7811C14.1952 13.5234 13.9895 13.2064 13.7679 12.8513C12.887 13.9733 12.148 15.5592 11.598 17.1877C11.0729 18.7427 10.7523 20.2382 10.6345 21.25ZM20.4923 5.76352C20.4928 5.76489 20.493 5.76614 20.493 5.76624Z" fill="black"/>
</svg>
