<svg width="24" height="24" viewBox="0 0 24 24" fill="none" xmlns="http://www.w3.org/2000/svg">
<path d="M13 12C13 12.5523 12.5523 13 12 13C11.4477 13 11 12.5523 11 12C11 11.4477 11.4477 11 12 11C12.5523 11 13 11.4477 13 12Z" fill="black"/>
<path d="M8 11C8 11.5523 7.55228 12 7 12C6.44772 12 6 11.5523 6 11C6 10.4477 6.44772 10 7 10C7.55228 10 8 10.4477 8 11Z" fill="black"/>
<path d="M18 11C18 11.5523 17.5523 12 17 12C16.4477 12 16 11.5523 16 11C16 10.4477 16.4477 10 17 10C17.5523 10 18 10.4477 18 11Z" fill="black"/>
<path fill-rule="evenodd" clip-rule="evenodd" d="M6.36662 6.59895C6.88733 4.11517 9.09023 2.25 11.7288 2.25H12.2712C14.9098 2.25 17.1127 4.11517 17.6334 6.59895C18.9914 6.96685 20.1722 7.47324 21.0543 8.09778C22.0199 8.78151 22.75 9.70191 22.75 10.8262C22.75 11.6633 22.3404 12.3932 21.7409 12.9846C21.1442 13.5735 20.3191 14.0693 19.3599 14.4696C17.4384 15.2715 14.8358 15.7499 12 15.7499C9.16417 15.7499 6.56159 15.2715 4.64006 14.4696C3.68091 14.0693 2.85581 13.5735 2.25907 12.9846C1.65964 12.3932 1.25 11.6633 1.25 10.8262C1.25 9.70191 1.98006 8.78151 2.94573 8.09778C3.8278 7.47324 5.00857 6.96685 6.36662 6.59895ZM6.31758 8.1738C5.27525 8.49234 4.425 8.88832 3.81252 9.32198C3.02544 9.87927 2.75 10.4057 2.75 10.8262C2.75 11.1417 2.9 11.5098 3.31263 11.9169C3.72794 12.3267 4.36731 12.7303 5.2178 13.0853C6.91556 13.7939 9.31299 14.2499 12 14.2499C14.687 14.2499 17.0844 13.7939 18.7822 13.0853C19.6327 12.7303 20.2721 12.3267 20.6874 11.9169C21.1 11.5098 21.25 11.1417 21.25 10.8262C21.25 10.4057 20.9746 9.87927 20.1875 9.32198C19.575 8.88832 18.7247 8.49234 17.6824 8.1738C17.6121 8.39507 17.4763 8.62375 17.2285 8.79611C16.6273 9.21425 15.2456 9.75 12 9.75C8.75443 9.75 7.37265 9.21425 6.77147 8.79611C6.52367 8.62375 6.38791 8.39507 6.31758 8.1738ZM7.751 7.63868C8.13808 7.84517 9.25423 8.25 12 8.25C14.7458 8.25 15.8619 7.84517 16.249 7.63868C16.2011 5.48287 14.4385 3.75 12.2712 3.75H11.7288C9.56146 3.75 7.79889 5.48287 7.751 7.63868ZM16.2497 7.73583C16.2497 7.73582 16.2497 7.73538 16.2498 7.73451ZM6 16.25C6.41421 16.25 6.75 16.5858 6.75 17V20C6.75 20.4142 6.41421 20.75 6 20.75C5.58579 20.75 5.25 20.4142 5.25 20V17C5.25 16.5858 5.58579 16.25 6 16.25ZM18 16.25C18.4142 16.25 18.75 16.5858 18.75 17V20C18.75 20.4142 18.4142 20.75 18 20.75C17.5858 20.75 17.25 20.4142 17.25 20V17C17.25 16.5858 17.5858 16.25 18 16.25ZM12 17.25C12.4142 17.25 12.75 17.5858 12.75 18V21C12.75 21.4142 12.4142 21.75 12 21.75C11.5858 21.75 11.25 21.4142 11.25 21V18C11.25 17.5858 11.5858 17.25 12 17.25Z" fill="black"/>
</svg>
