<svg width="24" height="24" viewBox="0 0 24 24" fill="none" xmlns="http://www.w3.org/2000/svg">
<path fill-rule="evenodd" clip-rule="evenodd" d="M12 2.75C8.54822 2.75 5.75 5.54822 5.75 9C5.75 12.4518 8.54802 15.25 11.9998 15.25C15.4516 15.25 18.25 12.4517 18.25 9C18.25 5.54822 15.4518 2.75 12 2.75ZM4.25 9C4.25 4.71979 7.71979 1.25 12 1.25C16.2802 1.25 19.75 4.71979 19.75 9C19.75 13.0272 16.6781 16.337 12.7498 16.7142V17.75H14.5C14.9142 17.75 15.25 18.0858 15.25 18.5C15.25 18.9142 14.9142 19.25 14.5 19.25H12.7498L12.75 21.9999C12.7501 22.4142 12.4143 22.75 12.0001 22.75C11.5859 22.75 11.2501 22.4143 11.25 22.0001L11.2498 19.25H9.50003C9.08582 19.25 8.75003 18.9142 8.75003 18.5C8.75003 18.0858 9.08582 17.75 9.50003 17.75H11.2498V16.7142C7.32147 16.3369 4.25 13.0272 4.25 9Z" fill="black"/>
</svg>
