<svg width="24" height="24" viewBox="0 0 24 24" fill="none" xmlns="http://www.w3.org/2000/svg">
<path opacity="0.5" d="M2 14C2 10.2288 2 8.34315 3.17157 7.17157C4.34315 6 6.22876 6 10 6H14C17.7712 6 19.6569 6 20.8284 7.17157C22 8.34315 22 10.2288 22 14C22 17.7712 22 19.6569 20.8284 20.8284C19.6569 22 17.7712 22 14 22H10C6.22876 22 4.34315 22 3.17157 20.8284C2 19.6569 2 17.7712 2 14Z" fill="black"/>
<path d="M11.948 1.25C11.0495 1.24997 10.3003 1.24995 9.70552 1.32991C9.07773 1.41432 8.51093 1.59999 8.05546 2.05546C7.59999 2.51093 7.41432 3.07773 7.32991 3.70552C7.24995 4.3003 7.24997 5.04951 7.25 5.94798L7.25 6H8.75C8.75 5.03599 8.7516 4.38843 8.81654 3.9054C8.87858 3.44393 8.9858 3.24644 9.11612 3.11612C9.24644 2.9858 9.44393 2.87858 9.9054 2.81654C10.3884 2.7516 11.036 2.75 12 2.75C12.964 2.75 13.6116 2.7516 14.0946 2.81654C14.5561 2.87858 14.7536 2.9858 14.8839 3.11612C15.0142 3.24644 15.1214 3.44393 15.1835 3.9054C15.2484 4.38843 15.25 5.03599 15.25 6H16.75L16.75 5.94801C16.75 5.04954 16.7501 4.3003 16.6701 3.70552C16.5857 3.07773 16.4 2.51093 15.9445 2.05546C15.4891 1.59999 14.9223 1.41432 14.2945 1.32991C13.6997 1.24995 12.9505 1.24997 12.052 1.25H11.948Z" fill="black"/>
<path d="M10 15H6C5.5286 15 5.29289 15 5.14645 15.1464C5 15.2929 5 15.5286 5 16V17C5 17.4714 5 17.7071 5.14645 17.8536C5.29289 18 5.5286 18 6 18H10C10.4714 18 10.7071 18 10.8536 17.8536C11 17.7071 11 17.4714 11 17V16C11 15.5286 11 15.2929 10.8536 15.1464C10.7071 15 10.4714 15 10 15Z" fill="black"/>
<path d="M5.25 21.7976C5.68871 21.8761 6.18479 21.9242 6.75 21.9536V18.0002H6C5.62604 18.0002 5.40041 18.0002 5.25 17.9271V21.7976Z" fill="black"/>
<path d="M5.25 15.0734V6.20285C5.68871 6.12441 6.18479 6.07634 6.75 6.04688V15.0002H6C5.62604 15.0002 5.40041 15.0002 5.25 15.0734Z" fill="black"/>
<path d="M17.25 21.9536C17.8152 21.9242 18.3113 21.8761 18.75 21.7976V6.20285C18.3113 6.12441 17.8152 6.07634 17.25 6.04688V21.9536Z" fill="black"/>
</svg>
