<svg width="24" height="24" viewBox="0 0 24 24" fill="none" xmlns="http://www.w3.org/2000/svg">
<path fill-rule="evenodd" clip-rule="evenodd" d="M16.8773 2.598C16.8694 2.61228 16.8611 2.62737 16.8522 2.64337L16.7757 2.78166L17.6421 3.30359L17.7204 3.16208C17.7287 3.1472 17.7364 3.13319 17.7437 3.11992C17.7308 3.11209 17.717 3.10382 17.7025 3.09505L16.9218 2.62475C16.9061 2.61531 16.8913 2.60642 16.8773 2.598ZM17.9306 3.23869C17.9306 3.23868 17.9303 3.23846 17.9298 3.238ZM17.2048 4.79127L15.733 3.90467L13.0682 5.21437C12.9831 5.25621 12.9487 5.27314 12.9171 5.28938C11.9498 5.78604 11.199 6.6434 10.8073 7.68686L10.8669 7.65704C12.0721 7.05448 13.5176 7.20762 14.5697 8.04931C15.0873 8.46344 15.7796 8.58692 16.4086 8.37728L17.4637 8.02557C17.4614 7.99551 17.4583 7.95618 17.4532 7.89235L17.2048 4.79127ZM18.962 8.78978C19.0062 8.65676 19.0135 8.51039 18.9762 8.36643C18.9761 8.23547 18.9719 8.10411 18.9636 7.97253C18.9603 7.92126 18.956 7.86806 18.949 7.78L18.6873 4.51292L19.0424 3.87108C19.0996 3.76782 19.1619 3.65531 19.2081 3.55329C19.2606 3.43735 19.3192 3.27938 19.3279 3.08659C19.3395 2.82916 19.2713 2.57442 19.1326 2.35725C19.0287 2.19461 18.899 2.08704 18.7956 2.01285C18.7047 1.94755 18.5945 1.88121 18.4934 1.82033L18.4765 1.81017L17.678 1.32916C17.5697 1.2639 17.4529 1.19351 17.3471 1.14114C17.2278 1.08211 17.0627 1.01446 16.859 1.00224C16.5892 0.986061 16.3215 1.05775 16.0959 1.20656C15.9256 1.3189 15.8163 1.46001 15.7425 1.57075C15.677 1.66901 15.611 1.78834 15.5498 1.89897L15.2273 2.48186L12.3997 3.87156C12.3235 3.909 12.2766 3.93203 12.2319 3.95502C10.606 4.7899 9.46047 6.35869 9.11562 8.18796C9.10611 8.23841 9.09709 8.29099 9.08217 8.37798L9.08094 8.38517C9.06501 8.47805 9.05798 8.51897 9.05076 8.55846C8.78456 10.0141 8.0939 11.3426 7.07835 12.3644C7.05083 12.3921 7.02207 12.4204 6.95619 12.4851L6.1518 13.2761C5.64777 13.7716 5.24146 14.1712 4.93768 14.5148C4.62759 14.8657 4.37758 15.2087 4.22734 15.6032C3.82618 16.6565 3.96118 17.8503 4.59068 18.7834C4.82679 19.1333 5.14871 19.4089 5.5299 19.6771C5.90313 19.9396 6.38864 20.2321 6.99012 20.5944L7.70314 21.0239C8.30438 21.3861 8.78997 21.6786 9.19477 21.8848C9.60683 22.0946 10.0015 22.2507 10.4202 22.2901C11.5377 22.395 12.6191 21.905 13.3001 21.0062C13.5538 20.6714 13.7127 20.2746 13.8478 19.8224C13.9808 19.3773 14.109 18.8116 14.2685 18.1074L14.5226 16.9862C14.5434 16.8944 14.5525 16.854 14.5618 16.815C14.9043 15.3775 15.6637 14.0916 16.7309 13.1304C16.7598 13.1043 16.79 13.0777 16.8592 13.0168L16.8647 13.012C16.9293 12.9552 16.9687 12.9205 17.0062 12.8863C18.164 11.8315 18.8564 10.3548 18.962 8.78978ZM17.2962 9.66253L16.8829 9.8003C15.7713 10.1708 14.5476 9.9526 13.6326 9.22061C13.0374 8.74441 12.2196 8.65777 11.5378 8.99868L10.3518 9.59164C9.95287 11.0412 9.19399 12.3636 8.14225 13.4218C8.10794 13.4563 8.07275 13.4909 8.01157 13.5511L7.22343 14.326C6.69478 14.8458 6.32638 15.2087 6.06157 15.5082C5.79909 15.8052 5.68537 15.9894 5.62912 16.1371C5.4006 16.7371 5.47929 17.4184 5.83417 17.9445C5.92087 18.073 6.07138 18.224 6.39293 18.4502C6.71743 18.6785 7.15695 18.9438 7.78835 19.3241L8.45269 19.7243C9.08421 20.1047 9.52399 20.3691 9.87538 20.5481C10.225 20.7261 10.4206 20.7835 10.5605 20.7966C11.1463 20.8516 11.7281 20.5971 12.1045 20.1003C12.1976 19.9774 12.2944 19.782 12.4106 19.3929C12.5274 19.0023 12.6447 18.4864 12.8117 17.7493L13.0607 16.6502C13.0801 16.5644 13.0912 16.5155 13.1027 16.4674C13.514 14.7408 14.4286 13.1853 15.727 12.0158C15.763 11.9834 15.7999 11.9509 15.8638 11.8947L15.8682 11.8908C15.94 11.8276 15.9692 11.8019 15.9959 11.7775C16.6179 11.2109 17.065 10.4749 17.2962 9.66253Z" fill="black"/>
</svg>
