<svg width="24" height="24" viewBox="0 0 24 24" fill="none" xmlns="http://www.w3.org/2000/svg">
<path fill-rule="evenodd" clip-rule="evenodd" d="M6.97735 1.32697C7.31457 1.56751 7.39295 2.03587 7.15241 2.37309L6.76634 2.91434C7.39216 3.3886 7.53087 4.27785 7.07189 4.92132L6.66127 5.49699C6.42073 5.83421 5.95237 5.91258 5.61515 5.67205C5.27794 5.43151 5.19956 4.96315 5.44009 4.62594L5.82616 4.08469C5.20034 3.61042 5.06164 2.72117 5.52062 2.0777L5.93124 1.50203C6.17177 1.16481 6.64013 1.08644 6.97735 1.32697ZM10.9774 1.32697C11.3146 1.56751 11.3929 2.03587 11.1524 2.37309L10.7663 2.91434C11.3922 3.3886 11.5309 4.27785 11.0719 4.92132L10.6613 5.49699C10.4207 5.83421 9.95237 5.91258 9.61515 5.67205C9.27794 5.43151 9.19956 4.96315 9.44009 4.62594L9.82616 4.08469C9.20034 3.61042 9.06164 2.72117 9.52062 2.0777L9.93124 1.50203C10.1718 1.16481 10.6401 1.08644 10.9774 1.32697ZM14.9774 1.32697C15.3146 1.56751 15.3929 2.03587 15.1524 2.37309L14.7663 2.91434C15.3922 3.3886 15.5309 4.27785 15.0719 4.92132L14.6613 5.49699C14.4207 5.83421 13.9524 5.91258 13.6152 5.67205C13.2779 5.43151 13.1996 4.96315 13.4401 4.62594L13.8262 4.08469C13.2003 3.61042 13.0616 2.72117 13.5206 2.0777L13.9312 1.50203C14.1718 1.16481 14.6401 1.08644 14.9774 1.32697ZM7.2215 6.25015H12.7785C13.7343 6.25012 14.5286 6.25009 15.155 6.33637C15.8146 6.42723 16.4084 6.62754 16.8704 7.12139C17.1803 7.45267 17.3545 7.8343 17.4497 8.25015H18C20.6233 8.25015 22.75 10.3768 22.75 13.0001C22.75 15.6235 20.6233 17.7501 18 17.7501H17.0305C17.0207 17.8758 17.0105 17.9984 17 18.118V18.7502H16.9362C16.8989 19.0698 16.8554 19.364 16.8017 19.6337C16.6333 20.479 16.3469 21.1851 15.7553 21.7386C15.1637 22.292 14.4401 22.5309 13.5855 22.6427C12.7634 22.7502 11.725 22.7502 10.4394 22.7502H9.56057C8.27499 22.7502 7.23654 22.7502 6.41451 22.6427C5.55985 22.5309 4.83631 22.292 4.24471 21.7386C3.65312 21.1851 3.3667 20.479 3.1983 19.6337C3.03633 18.8207 2.96727 17.7845 2.88177 16.5018L2.53246 11.2622C2.46886 10.3085 2.41599 9.51592 2.46041 8.88522C2.50719 8.22103 2.66756 7.61525 3.12959 7.12139C3.59162 6.62754 4.18539 6.42723 4.845 6.33637C5.47135 6.25009 6.26573 6.25012 7.2215 6.25015ZM17.135 16.2501H18C19.7949 16.2501 21.25 14.7951 21.25 13.0001C21.25 11.2052 19.7949 9.75015 18 9.75015H17.5509C17.5385 10.1986 17.5048 10.7027 17.4675 11.2622L17.135 16.2501ZM15.5635 17.2502H4.4365C4.41652 16.9718 4.39647 16.6724 4.37494 16.3494L4.03274 11.2163C3.96464 10.1949 3.9204 9.50606 3.9567 8.9906C3.99148 8.49678 4.09419 8.28594 4.22496 8.14617C4.35572 8.00639 4.55927 7.88989 5.04968 7.82234C5.56158 7.75183 6.25179 7.75015 7.27554 7.75015H12.7244C13.7482 7.75015 14.4384 7.75183 14.9503 7.82234C15.4407 7.88989 15.6443 8.00639 15.775 8.14617C15.9058 8.28594 16.0085 8.49678 16.0433 8.9906C16.0796 9.50606 16.0353 10.1949 15.9672 11.2163L15.625 16.3494C15.6035 16.6724 15.5835 16.9718 15.5635 17.2502ZM4.57477 18.7502H15.4252C15.3975 18.9642 15.3666 19.16 15.3306 19.3407C15.1942 20.0251 15.0039 20.3874 14.7305 20.6432C14.4571 20.899 14.0829 21.0648 13.3909 21.1553C12.6775 21.2486 11.7375 21.2502 10.3867 21.2502H9.61331C8.26247 21.2502 7.32246 21.2486 6.60906 21.1553C5.91706 21.0648 5.5429 20.899 5.26949 20.6432C4.99607 20.3874 4.80574 20.0251 4.66939 19.3407C4.63341 19.16 4.60244 18.9642 4.57477 18.7502Z" fill="black"/>
</svg>
