<svg width="24" height="24" viewBox="0 0 24 24" fill="none" xmlns="http://www.w3.org/2000/svg">
<path fill-rule="evenodd" clip-rule="evenodd" d="M17.3093 2.35785C18.3614 1.03363 20.3128 0.872125 21.5683 2.00537C21.6243 2.05592 21.686 2.11766 21.7692 2.20084L21.7993 2.2309C21.8823 2.31394 21.9442 2.37576 21.9947 2.43173C23.1279 3.68721 22.9664 5.63862 21.6422 6.69071C21.5831 6.73766 21.512 6.78843 21.4162 6.85684L19.3067 8.36365C19.6901 8.88574 19.9437 9.42955 19.9437 10.0721C19.9437 10.7538 19.6591 11.3197 19.2447 11.8629C18.8504 12.3796 18.2754 12.9545 17.5801 13.6498L13.6498 17.5801C12.9545 18.2755 12.3795 18.8505 11.8629 19.2447C11.3197 19.6591 10.7538 19.9437 10.0721 19.9437C9.42955 19.9437 8.88574 19.6901 8.36365 19.3067L6.85684 21.4162C6.78843 21.512 6.73767 21.5831 6.69071 21.6422C5.63862 22.9664 3.68722 23.1279 2.43173 21.9947C2.37577 21.9442 2.31395 21.8823 2.2309 21.7993L2.20084 21.7692C2.11766 21.686 2.05591 21.6243 2.00537 21.5683C0.872124 20.3128 1.03363 18.3614 2.35785 17.3093C2.41691 17.2624 2.48813 17.2115 2.58377 17.1432L4.69336 15.6364C4.30999 15.1143 4.05636 14.5705 4.05636 13.9279C4.05636 13.2463 4.34096 12.6803 4.75539 12.1371C5.14959 11.6205 5.7246 11.0455 6.41993 10.3502L10.3502 6.41993C11.0455 5.72459 11.6205 5.14959 12.1372 4.75538C12.6803 4.34096 13.2463 4.05636 13.9279 4.05636C14.5705 4.05636 15.1143 4.30999 15.6364 4.69336L17.1432 2.58377C17.2115 2.48813 17.2624 2.4169 17.3093 2.35785ZM16.7684 5.6893C17.0048 5.91915 17.2583 6.17267 17.532 6.44634L17.5537 6.46806C17.8274 6.74173 18.0809 6.99523 18.3107 7.23168L20.5272 5.64847C20.6478 5.56236 20.6843 5.53595 20.7091 5.51627C21.3556 5.00258 21.4345 4.04979 20.8812 3.43679C20.86 3.41333 20.8282 3.38118 20.7235 3.2765C20.6188 3.17174 20.5867 3.14005 20.5632 3.11885C19.9502 2.56554 18.9975 2.64439 18.4838 3.29095C18.4641 3.3157 18.4376 3.35238 18.3516 3.47281L16.7684 5.6893ZM5.6893 16.7684L3.47281 18.3516C3.35238 18.4376 3.3157 18.4641 3.29095 18.4838C2.64439 18.9975 2.56554 19.9502 3.11885 20.5632C3.14005 20.5867 3.17174 20.6188 3.2765 20.7235C3.38118 20.8282 3.41333 20.86 3.43679 20.8812C4.04979 21.4345 5.00258 21.3556 5.51627 20.7091C5.53595 20.6843 5.56236 20.6478 5.64846 20.5272L7.23168 18.3107C6.99523 18.0809 6.74173 17.8274 6.46806 17.5537L6.44634 17.532C6.17267 17.2583 5.91915 17.0048 5.6893 16.7684ZM13.047 5.94792C12.62 6.27375 12.1157 6.7758 11.3736 7.51785L7.51785 11.3736C6.7758 12.1157 6.27375 12.62 5.94792 13.047C5.63529 13.4568 5.55636 13.7061 5.55636 13.9279C5.55636 14.2286 5.70055 14.569 6.34065 15.2737C6.6474 15.6115 7.03372 15.9981 7.51785 16.4822C8.00199 16.9663 8.38855 17.3526 8.7263 17.6594C9.43103 18.2995 9.77141 18.4437 10.0721 18.4437C10.2939 18.4437 10.5433 18.3647 10.953 18.0521C11.3801 17.7263 11.8844 17.2242 12.6264 16.4822L16.4822 12.6264C17.2242 11.8844 17.7263 11.3801 18.0521 10.953C18.3647 10.5433 18.4437 10.2939 18.4437 10.0721C18.4437 9.77141 18.2995 9.43103 17.6594 8.7263C17.3526 8.38855 16.9663 8.00199 16.4822 7.51785C15.9981 7.03372 15.6115 6.6474 15.2737 6.34065C14.569 5.70055 14.2286 5.55636 13.9279 5.55636C13.7061 5.55636 13.4568 5.63529 13.047 5.94792Z" fill="black"/>
</svg>
